999
dxfrw 0.6.3
  0
SECTION
  2
HEADER
  9
$ACADVER
  1
AC1021
  9
$DWGCODEPAGE
  3
ANSI_1250
  9
$INSBASE
 10
0
 20
0
 30
0
  9
$EXTMIN
 10
-36.3953838825197
 20
-13.26444288211479
 30
0
  9
$EXTMAX
 10
210
 20
148.5000038146973
 30
0
  9
$LIMMIN
 10
0
 20
0
  9
$LIMMAX
 10
420
 20
297
  9
$ORTHOMODE
 70
    0
  9
$REGENMODE
 70
    1
  9
$FILLMODE
 70
    1
  9
$QTEXTMODE
 70
    0
  9
$MIRRTEXT
 70
    0
  9
$LTSCALE
 40
1
  9
$ATTMODE
 70
    0
  9
$TEXTSIZE
 40
2.5
  9
$TRACEWID
 40
15.68
  9
$TEXTSTYLE
  7
STANDARD
  9
$CLAYER
  8
Center Mark (ISO)
  9
$CELTYPE
  6
BYLAYER
  9
$CECOLOR
 62
  256
  9
$CELTSCALE
 40
1
  9
$DISPSILH
 70
    0
  9
$DIMSCALE
 40
1
  9
$DIMASZ
 40
2.5
  9
$DIMEXO
 40
0.625
  9
$DIMDLI
 40
3.75
  9
$DIMRND
 40
0
  9
$DIMDLE
 40
0
  9
$DIMEXE
 40
1.25
  9
$DIMTP
 40
0
  9
$DIMTM
 40
0
  9
$DIMTXT
 40
2.5
  9
$DIMCEN
 40
2.5
  9
$DIMTSZ
 40
0
  9
$DIMTOL
 70
    0
  9
$DIMLIM
 70
    0
  9
$DIMTIH
 70
    0
  9
$DIMTOH
 70
    0
  9
$DIMSE1
 70
    0
  9
$DIMSE2
 70
    0
  9
$DIMTAD
 70
    1
  9
$DIMZIN
 70
    8
  9
$DIMBLK
  1

  9
$DIMASO
 70
    1
  9
$DIMSHO
 70
    1
  9
$DIMPOST
  1

  9
$DIMAPOST
  1

  9
$DIMALT
 70
    0
  9
$DIMALTD
 70
    3
  9
$DIMALTF
 40
0.03937
  9
$DIMLFAC
 40
1
  9
$DIMTOFL
 70
    1
  9
$DIMTVP
 40
0
  9
$DIMTIX
 70
    0
  9
$DIMSOXD
 70
    0
  9
$DIMSAH
 70
    0
  9
$DIMBLK1
  1

  9
$DIMBLK2
  1

  9
$DIMSTYLE
  2
Standard
  9
$DIMCLRD
 70
    0
  9
$DIMCLRE
 70
    0
  9
$DIMCLRT
 70
    0
  9
$DIMTFAC
 40
1
  9
$DIMGAP
 40
0.625
  9
$DIMJUST
 70
    0
  9
$DIMSD1
 70
    0
  9
$DIMSD2
 70
    0
  9
$DIMTOLJ
 70
    0
  9
$DIMTZIN
 70
    8
  9
$DIMALTZ
 70
    0
  9
$DIMALTTZ
 70
    0
  9
$DIMUPT
 70
    0
  9
$DIMDEC
 70
    4
  9
$DIMTDEC
 70
    2
  9
$DIMALTU
 70
    2
  9
$DIMALTTD
 70
    3
  9
$DIMTXSTY
  7
STANDARD
  9
$DIMAUNIT
 70
    0
  9
$DIMADEC
 70
    0
  9
$DIMALTRND
 40
0
  9
$DIMAZIN
 70
    0
  9
$DIMDSEP
 70
   44
  9
$DIMATFIT
 70
    3
  9
$DIMFRAC
 70
    0
  9
$DIMLDRBLK
  1
STANDARD
  9
$DIMLUNIT
 70
    2
  9
$DIMLWD
 70
   -2
  9
$DIMLWE
 70
   -2
  9
$DIMTMOVE
 70
    0
  9
$DIMFXL
 40
1
  9
$DIMFXLON
 70
    0
  9
$DIMJOGANG
 40
0.7854
  9
$DIMTFILL
 70
    0
  9
$DIMTFILLCLR
 70
    0
  9
$DIMARCSYM
 70
    0
  9
$DIMLTYPE
  6

  9
$DIMLTEX1
  6

  9
$DIMLTEX2
  6

  9
$LUNITS
 70
    2
  9
$LUPREC
 70
    4
  9
$SKETCHINC
 40
1
  9
$FILLETRAD
 40
0
  9
$AUNITS
 70
    0
  9
$AUPREC
 70
    2
  9
$MENU
  1
.
  9
$ELEVATION
 40
0
  9
$PELEVATION
 40
0
  9
$THICKNESS
 40
0
  9
$LIMCHECK
 70
    0
  9
$CHAMFERA
 40
0
  9
$CHAMFERB
 40
0
  9
$CHAMFERC
 40
0
  9
$CHAMFERD
 40
0
  9
$SKPOLY
 70
    0
  9
$USRTIMER
 70
    1
  9
$ANGBASE
 50
0
  9
$ANGDIR
 70
    0
  9
$PDMODE
 70
   34
  9
$PDSIZE
 40
0
  9
$PLINEWID
 40
0
  9
$SPLFRAME
 70
    0
  9
$SPLINETYPE
 70
    2
  9
$SPLINESEGS
 70
    8
  9
$HANDSEED
  5
20000
  9
$SURFTAB1
 70
    6
  9
$SURFTAB2
 70
    6
  9
$SURFTYPE
 70
    6
  9
$SURFU
 70
    6
  9
$SURFV
 70
    6
  9
$UCSBASE
  2

  9
$UCSNAME
  2

  9
$UCSORG
 10
0
 20
0
 30
0
  9
$UCSXDIR
 10
1
 20
0
 30
0
  9
$UCSYDIR
 10
0
 20
1
 30
0
  9
$UCSORTHOREF
  2

  9
$UCSORTHOVIEW
 70
    0
  9
$UCSORGTOP
 10
0
 20
0
 30
0
  9
$UCSORGBOTTOM
 10
0
 20
0
 30
0
  9
$UCSORGLEFT
 10
0
 20
0
 30
0
  9
$UCSORGRIGHT
 10
0
 20
0
 30
0
  9
$UCSORGFRONT
 10
0
 20
0
 30
0
  9
$UCSORGBACK
 10
0
 20
0
 30
0
  9
$PUCSBASE
  2

  9
$PUCSNAME
  2

  9
$PUCSORG
 10
0
 20
0
 30
0
  9
$PUCSXDIR
 10
1
 20
0
 30
0
  9
$PUCSYDIR
 10
0
 20
1
 30
0
  9
$PUCSORTHOREF
  2

  9
$PUCSORTHOVIEW
 70
    0
  9
$PUCSORGTOP
 10
0
 20
0
 30
0
  9
$PUCSORGBOTTOM
 10
0
 20
0
 30
0
  9
$PUCSORGLEFT
 10
0
 20
0
 30
0
  9
$PUCSORGRIGHT
 10
0
 20
0
 30
0
  9
$PUCSORGFRONT
 10
0
 20
0
 30
0
  9
$PUCSORGBACK
 10
0
 20
0
 30
0
  9
$USERI1
 70
    0
  9
$USERI2
 70
    0
  9
$USERI3
 70
    0
  9
$USERI4
 70
    0
  9
$USERI5
 70
    0
  9
$USERR1
 40
0
  9
$USERR2
 40
0
  9
$USERR3
 40
0
  9
$USERR4
 40
0
  9
$USERR5
 40
0
  9
$WORLDVIEW
 70
    1
  9
$SHADEDGE
 70
    3
  9
$SHADEDIF
 70
   70
  9
$TILEMODE
 70
    1
  9
$MAXACTVP
 70
   64
  9
$PINSBASE
 10
0
 20
0
 30
0
  9
$PLIMCHECK
 70
    0
  9
$PEXTMIN
 10
0
 20
0
 30
0
  9
$PEXTMAX
 10
0
 20
0
 30
0
  9
$GRIDMODE
 70
    0
  9
$SNAPSTYLE
 70
    0
  9
$PLIMMIN
 10
0
 20
0
  9
$PLIMMAX
 10
841
 20
1189
  9
$UNITMODE
 70
    0
  9
$VISRETAIN
 70
    1
  9
$PLINEGEN
 70
    0
  9
$PSLTSCALE
 70
    1
  9
$TREEDEPTH
 70
 3020
  9
$CMLSTYLE
  2
Standard
  9
$CMLJUST
 70
    0
  9
$CMLSCALE
 40
20
  9
$PROXYGRAPHICS
 70
    1
  9
$MEASUREMENT
 70
    1
  9
$CELWEIGHT
370
   -1
  9
$ENDCAPS
280
    0
  9
$JOINSTYLE
280
    0
  9
$LWDISPLAY
290
    0
  9
$INSUNITS
 70
    4
  9
$HYPERLINKBASE
  1

  9
$STYLESHEET
  1

  9
$XEDIT
290
    1
  9
$CEPSNTYPE
380
    0
  9
$PSTYLEMODE
290
    1
  9
$EXTNAMES
290
    1
  9
$PSVPSCALE
 40
1
  9
$OLESTARTUP
290
    0
  9
$SORTENTS
280
  127
  9
$INDEXCTL
280
    0
  9
$HIDETEXT
280
    1
  9
$XCLIPFRAME
290
    0
  9
$HALOGAP
280
    0
  9
$OBSCOLOR
 70
  257
  9
$OBSLTYPE
280
    0
  9
$INTERSECTIONDISPLAY
280
    0
  9
$INTERSECTIONCOLOR
 70
  257
  9
$DIMASSOC
280
    1
  9
$PROJECTNAME
  1

  9
$CAMERADISPLAY
290
    0
  9
$LENSLENGTH
 40
50
  9
$CAMERAHEIGHT
 40
0
  9
$STEPSPERSEC
 40
2
  9
$STEPSIZE
 40
50
  9
$3DDWFPREC
 40
2
  9
$PSOLWIDTH
 40
5
  9
$PSOLHEIGHT
 40
80
  9
$LOFTANG1
 40
1.570796326794897
  9
$LOFTANG2
 40
1.570796326794897
  9
$LOFTMAG1
 40
0
  9
$LOFTMAG2
 40
0
  9
$LOFTPARAM
 70
    7
  9
$LOFTNORMALS
280
    1
  9
$LATITUDE
 40
1
  9
$LONGITUDE
 40
1
  9
$NORTHDIRECTION
 40
0
  9
$TIMEZONE
 70
-8000
  9
$LIGHTGLYPHDISPLAY
280
    1
  9
$TILEMODELIGHTSYNCH
280
    1
  9
$SOLIDHIST
280
    1
  9
$SHOWHIST
280
    1
  9
$DWFFRAME
280
    2
  9
$DGNFRAME
280
    0
  9
$REALWORLDSCALE
290
    1
  9
$INTERFERECOLOR
 62
    1
  9
$CSHADOW
280
    0
  9
$SHADOWPLANELOCATION
 40
0
  0
ENDSEC
  0
SECTION
  2
CLASSES
  0
ENDSEC
  0
SECTION
  2
TABLES
  0
TABLE
  2
VPORT
  5
8
330
0
100
AcDbSymbolTable
 70
    1
  0
VPORT
  5
31
330
2
100
AcDbSymbolTableRecord
100
AcDbViewportTableRecord
  2
*ACTIVE
 70
    0
 10
0
 20
0
 11
1
 21
1
 12
85.1619138896416
 22
47.32840497468933
 13
0
 23
0
 14
10
 24
10
 15
10
 25
10
 16
0
 26
0
 36
1
 17
0
 27
0
 37
0
 40
169.4473758353075
 41
1.591379310344827
 42
50
 43
0
 44
0
 50
0
 51
0
 71
    0
 72
  100
 73
    1
 74
    3
 75
    0
 76
    0
 77
    0
 78
    0
281
    0
 65
    1
110
0
120
0
130
0
111
1
121
0
131
0
112
0
122
1
132
0
 79
    0
146
0
348
10020
 60
    7
 61
    5
292
1
282
    1
141
0
142
0
 63
  250
421
3358443
  0
ENDTAB
  0
TABLE
  2
LTYPE
  5
5
330
0
100
AcDbSymbolTable
 70
    4
  0
LTYPE
  5
14
330
5
100
AcDbSymbolTableRecord
100
AcDbLinetypeTableRecord
  2
ByBlock
 70
    0
  3

 72
   65
 73
    0
 40
0
  0
LTYPE
  5
15
330
5
100
AcDbSymbolTableRecord
100
AcDbLinetypeTableRecord
  2
ByLayer
 70
    0
  3

 72
   65
 73
    0
 40
0
  0
LTYPE
  5
16
330
5
100
AcDbSymbolTableRecord
100
AcDbLinetypeTableRecord
  2
Continuous
 70
    0
  3
Solid line
 72
   65
 73
    0
 40
0
  0
LTYPE
  5
32
330
5
100
AcDbSymbolTableRecord
100
AcDbLinetypeTableRecord
  2
DOT
 70
    0
  3
Dot . . . . . . . . . . . . . . . . . . . . . .
 72
   65
 73
    2
 40
6.35
 49
0
 74
    0
 49
-6.35
 74
    0
  0
LTYPE
  5
33
330
5
100
AcDbSymbolTableRecord
100
AcDbLinetypeTableRecord
  2
DOTTINY
 70
    0
  3
Dot (.15x) .....................................
 72
   65
 73
    2
 40
0.9525
 49
0
 74
    0
 49
-0.9525
 74
    0
  0
LTYPE
  5
34
330
5
100
AcDbSymbolTableRecord
100
AcDbLinetypeTableRecord
  2
DOT2
 70
    0
  3
Dot (.5x) .....................................
 72
   65
 73
    2
 40
3.175
 49
0
 74
    0
 49
-3.175
 74
    0
  0
LTYPE
  5
35
330
5
100
AcDbSymbolTableRecord
100
AcDbLinetypeTableRecord
  2
DOTX2
 70
    0
  3
Dot (2x) .  .  .  .  .  .  .  .  .  .  .  .  .
 72
   65
 73
    2
 40
12.7
 49
0
 74
    0
 49
-12.7
 74
    0
  0
LTYPE
  5
36
330
5
100
AcDbSymbolTableRecord
100
AcDbLinetypeTableRecord
  2
DASHED
 70
    0
  3
Dashed _ _ _ _ _ _ _ _ _ _ _ _ _ _ _ _ _
 72
   65
 73
    2
 40
19.05
 49
12.7
 74
    0
 49
-6.35
 74
    0
  0
LTYPE
  5
37
330
5
100
AcDbSymbolTableRecord
100
AcDbLinetypeTableRecord
  2
DASHEDTINY
 70
    0
  3
Dashed (.15x) _ _ _ _ _ _ _ _ _ _ _ _ _ _ _ _ _
 72
   65
 73
    2
 40
2.8575
 49
1.905
 74
    0
 49
-0.9525
 74
    0
  0
LTYPE
  5
38
330
5
100
AcDbSymbolTableRecord
100
AcDbLinetypeTableRecord
  2
DASHED2
 70
    0
  3
Dashed (.5x) _ _ _ _ _ _ _ _ _ _ _ _ _ _ _ _ _
 72
   65
 73
    2
 40
9.524999999999999
 49
6.35
 74
    0
 49
-3.175
 74
    0
  0
LTYPE
  5
39
330
5
100
AcDbSymbolTableRecord
100
AcDbLinetypeTableRecord
  2
DASHEDX2
 70
    0
  3
Dashed (2x) ____  ____  ____  ____  ____  ___
 72
   65
 73
    2
 40
38.09999999999999
 49
25.4
 74
    0
 49
-12.7
 74
    0
  0
LTYPE
  5
3A
330
5
100
AcDbSymbolTableRecord
100
AcDbLinetypeTableRecord
  2
DASHDOT
 70
    0
  3
Dash dot __ . __ . __ . __ . __ . __ . __ . __
 72
   65
 73
    4
 40
25.4
 49
12.7
 74
    0
 49
-6.35
 74
    0
 49
0
 74
    0
 49
-6.35
 74
    0
  0
LTYPE
  5
3B
330
5
100
AcDbSymbolTableRecord
100
AcDbLinetypeTableRecord
  2
DASHDOTTINY
 70
    0
  3
Dash dot (.15x) _._._._._._._._._._._._._._._.
 72
   65
 73
    4
 40
3.81
 49
1.905
 74
    0
 49
-0.9525
 74
    0
 49
0
 74
    0
 49
-0.9525
 74
    0
  0
LTYPE
  5
3C
330
5
100
AcDbSymbolTableRecord
100
AcDbLinetypeTableRecord
  2
DASHDOT2
 70
    0
  3
Dash dot (.5x) _._._._._._._._._._._._._._._.
 72
   65
 73
    4
 40
12.7
 49
6.35
 74
    0
 49
-3.175
 74
    0
 49
0
 74
    0
 49
-3.175
 74
    0
  0
LTYPE
  5
3D
330
5
100
AcDbSymbolTableRecord
100
AcDbLinetypeTableRecord
  2
DASHDOTX2
 70
    0
  3
Dash dot (2x) ____  .  ____  .  ____  .  ___
 72
   65
 73
    4
 40
50.8
 49
25.4
 74
    0
 49
-12.7
 74
    0
 49
0
 74
    0
 49
-12.7
 74
    0
  0
LTYPE
  5
3E
330
5
100
AcDbSymbolTableRecord
100
AcDbLinetypeTableRecord
  2
DIVIDE
 70
    0
  3
Divide ____ . . ____ . . ____ . . ____ . . ____
 72
   65
 73
    6
 40
31.75
 49
12.7
 74
    0
 49
-6.35
 74
    0
 49
0
 74
    0
 49
-6.35
 74
    0
 49
0
 74
    0
 49
-6.35
 74
    0
  0
LTYPE
  5
3F
330
5
100
AcDbSymbolTableRecord
100
AcDbLinetypeTableRecord
  2
DIVIDETINY
 70
    0
  3
Divide (.15x) __..__..__..__..__..__..__..__.._
 72
   65
 73
    6
 40
4.7625
 49
1.905
 74
    0
 49
-0.9525
 74
    0
 49
0
 74
    0
 49
-0.9525
 74
    0
 49
0
 74
    0
 49
-0.9525
 74
    0
  0
LTYPE
  5
40
330
5
100
AcDbSymbolTableRecord
100
AcDbLinetypeTableRecord
  2
DIVIDE2
 70
    0
  3
Divide (.5x) __..__..__..__..__..__..__..__.._
 72
   65
 73
    6
 40
15.875
 49
6.35
 74
    0
 49
-3.175
 74
    0
 49
0
 74
    0
 49
-3.175
 74
    0
 49
0
 74
    0
 49
-3.175
 74
    0
  0
LTYPE
  5
41
330
5
100
AcDbSymbolTableRecord
100
AcDbLinetypeTableRecord
  2
DIVIDEX2
 70
    0
  3
Divide (2x) ________  .  .  ________  .  .  _
 72
   65
 73
    6
 40
63.5
 49
25.4
 74
    0
 49
-12.7
 74
    0
 49
0
 74
    0
 49
-12.7
 74
    0
 49
0
 74
    0
 49
-12.7
 74
    0
  0
LTYPE
  5
42
330
5
100
AcDbSymbolTableRecord
100
AcDbLinetypeTableRecord
  2
BORDER
 70
    0
  3
Border __ __ . __ __ . __ __ . __ __ . __ __ .
 72
   65
 73
    6
 40
44.45
 49
12.7
 74
    0
 49
-6.35
 74
    0
 49
12.7
 74
    0
 49
-6.35
 74
    0
 49
0
 74
    0
 49
-6.35
 74
    0
  0
LTYPE
  5
43
330
5
100
AcDbSymbolTableRecord
100
AcDbLinetypeTableRecord
  2
BORDERTINY
 70
    0
  3
Border (.15x) __.__.__.__.__.__.__.__.__.__.__.
 72
   65
 73
    6
 40
6.6675
 49
1.905
 74
    0
 49
-0.9525
 74
    0
 49
1.905
 74
    0
 49
-0.9525
 74
    0
 49
0
 74
    0
 49
-0.9525
 74
    0
  0
LTYPE
  5
44
330
5
100
AcDbSymbolTableRecord
100
AcDbLinetypeTableRecord
  2
BORDER2
 70
    0
  3
Border (.5x) __.__.__.__.__.__.__.__.__.__.__.
 72
   65
 73
    6
 40
22.225
 49
6.35
 74
    0
 49
-3.175
 74
    0
 49
6.35
 74
    0
 49
-3.175
 74
    0
 49
0
 74
    0
 49
-3.175
 74
    0
  0
LTYPE
  5
45
330
5
100
AcDbSymbolTableRecord
100
AcDbLinetypeTableRecord
  2
BORDERX2
 70
    0
  3
Border (2x) ____  ____  .  ____  ____  .  ___
 72
   65
 73
    6
 40
88.89999999999999
 49
25.4
 74
    0
 49
-12.7
 74
    0
 49
25.4
 74
    0
 49
-12.7
 74
    0
 49
0
 74
    0
 49
-12.7
 74
    0
  0
LTYPE
  5
46
330
5
100
AcDbSymbolTableRecord
100
AcDbLinetypeTableRecord
  2
CENTER
 70
    0
  3
Center ____ _ ____ _ ____ _ ____ _ ____ _ ____
 72
   65
 73
    4
 40
50.8
 49
31.75
 74
    0
 49
-6.35
 74
    0
 49
6.35
 74
    0
 49
-6.35
 74
    0
  0
LTYPE
  5
47
330
5
100
AcDbSymbolTableRecord
100
AcDbLinetypeTableRecord
  2
CENTERTINY
 70
    0
  3
Center (.15x) ___ _ ___ _ ___ _ ___ _ ___ _ ___
 72
   65
 73
    4
 40
7.619999999999999
 49
4.7625
 74
    0
 49
-0.9525
 74
    0
 49
0.9525
 74
    0
 49
-0.9525
 74
    0
  0
LTYPE
  5
48
330
5
100
AcDbSymbolTableRecord
100
AcDbLinetypeTableRecord
  2
CENTER2
 70
    0
  3
Center (.5x) ___ _ ___ _ ___ _ ___ _ ___ _ ___
 72
   65
 73
    4
 40
28.575
 49
19.05
 74
    0
 49
-3.175
 74
    0
 49
3.175
 74
    0
 49
-3.175
 74
    0
  0
LTYPE
  5
49
330
5
100
AcDbSymbolTableRecord
100
AcDbLinetypeTableRecord
  2
CENTERX2
 70
    0
  3
Center (2x) ________  __  ________  __  _____
 72
   65
 73
    4
 40
101.6
 49
63.5
 74
    0
 49
-12.7
 74
    0
 49
12.7
 74
    0
 49
-12.7
 74
    0
  0
ENDTAB
  0
TABLE
  2
LAYER
  5
2
330
0
100
AcDbSymbolTable
 70
    1
  0
LAYER
  5
10
330
2
100
AcDbSymbolTableRecord
100
AcDbLayerTableRecord
  2
0
 70
    1
 62
    7
  6
CONTINUOUS
370
   -3
390
F
  0
LAYER
  5
4A
330
2
100
AcDbSymbolTableRecord
100
AcDbLayerTableRecord
  2
Border (ISO)
 70
    1
 62
    7
  6
CONTINUOUS
370
   70
390
F
  0
LAYER
  5
4B
330
2
100
AcDbSymbolTableRecord
100
AcDbLayerTableRecord
  2
Center Mark (ISO)
 70
    0
 62
    7
  6
CONTINUOUS
370
   -3
390
F
  0
LAYER
  5
4C
330
2
100
AcDbSymbolTableRecord
100
AcDbLayerTableRecord
  2
Defpoints
 70
    1
 62
    7
  6
CONTINUOUS
290
0
370
   -3
390
F
  0
LAYER
  5
4D
330
2
100
AcDbSymbolTableRecord
100
AcDbLayerTableRecord
  2
Dimension (ISO)
 70
    0
 62
    7
  6
CONTINUOUS
370
   -3
390
F
  0
LAYER
  5
4E
330
2
100
AcDbSymbolTableRecord
100
AcDbLayerTableRecord
  2
Hidden (ISO)
 70
    0
 62
    7
  6
DASHED
370
    0
390
F
  0
LAYER
  5
4F
330
2
100
AcDbSymbolTableRecord
100
AcDbLayerTableRecord
  2
Symbol (ISO)
 70
    1
 62
    7
  6
CONTINUOUS
370
   25
390
F
  0
LAYER
  5
50
330
2
100
AcDbSymbolTableRecord
100
AcDbLayerTableRecord
  2
Title (ISO)
 70
    1
 62
    7
  6
CONTINUOUS
370
   50
390
F
  0
LAYER
  5
51
330
2
100
AcDbSymbolTableRecord
100
AcDbLayerTableRecord
  2
Visible (ISO)
 70
    0
 62
    7
  6
CONTINUOUS
370
   -3
390
F
  0
LAYER
  5
52
330
2
100
AcDbSymbolTableRecord
100
AcDbLayerTableRecord
  2
Visible Narrow (ISO)
 70
    0
 62
    7
  6
CONTINUOUS
370
   -3
390
F
  0
ENDTAB
  0
TABLE
  2
STYLE
  5
3
330
0
100
AcDbSymbolTable
 70
    3
  0
STYLE
  5
53
330
2
100
AcDbSymbolTableRecord
100
AcDbTextStyleTableRecord
  2
note text (iso)
 70
    0
 40
0
 41
1
 50
0
 71
    0
 42
1
  3
note text (iso)
  4

  0
STYLE
  5
54
330
2
100
AcDbSymbolTableRecord
100
AcDbTextStyleTableRecord
  2
text style41
 70
    0
 40
0
 41
1
 50
0
 71
    0
 42
1
  3
text style41
  4

  0
STYLE
  5
55
330
2
100
AcDbSymbolTableRecord
100
AcDbTextStyleTableRecord
  2
Standard
 70
    0
 40
0
 41
1
 50
0
 71
    0
 42
1
  3
txt
  4

  0
ENDTAB
  0
TABLE
  2
VIEW
  5
6
330
0
100
AcDbSymbolTable
 70
    0
  0
ENDTAB
  0
TABLE
  2
UCS
  5
7
330
0
100
AcDbSymbolTable
 70
    0
  0
ENDTAB
  0
TABLE
  2
APPID
  5
9
330
0
100
AcDbSymbolTable
 70
    1
  0
APPID
  5
12
330
9
100
AcDbSymbolTableRecord
100
AcDbRegAppTableRecord
  2
ACAD
 70
    0
  0
APPID
  5
56
330
9
100
AcDbSymbolTableRecord
100
AcDbRegAppTableRecord
  2
LibreCad
 70
    0
  0
ENDTAB
  0
TABLE
  2
DIMSTYLE
  5
A
330
0
100
AcDbSymbolTable
 70
    1
100
AcDbDimStyleTable
 71
    1
  0
DIMSTYLE
105
57
330
A
100
AcDbSymbolTableRecord
100
AcDbDimStyleTableRecord
  2
Standard
 70
    0
 40
1
 41
2.5
 42
0.625
 43
0.38
 44
1.25
 45
0
 46
0
 47
0
 48
0
 49
1
140
2.5
141
0.09
142
0
143
25.4
144
1
145
0
146
1
147
0.625
148
0
 71
    0
 72
    0
 73
    0
 74
    1
 75
    0
 76
    0
 77
    0
 78
    1
 79
    0
170
    0
171
    2
172
    0
173
    0
174
    0
175
    0
176
    0
177
    0
178
    0
179
    0
271
    4
272
    4
273
    2
274
    2
275
    0
276
    0
277
    2
278
    0
279
    0
280
    0
281
    0
282
    0
283
    1
284
    0
285
    0
286
    0
288
    0
289
    3
340
standard
341

371
   -2
372
   -2
  0
ENDTAB
  0
TABLE
  2
BLOCK_RECORD
  5
1
330
0
100
AcDbSymbolTable
 70
    2
  0
BLOCK_RECORD
  5
1F
330
1
100
AcDbSymbolTableRecord
100
AcDbBlockTableRecord
  2
*Model_Space
 70
    0
280
    1
281
    0
  0
BLOCK_RECORD
  5
1E
330
1
100
AcDbSymbolTableRecord
100
AcDbBlockTableRecord
  2
*Paper_Space
 70
    0
280
    1
281
    0
  0
BLOCK_RECORD
  5
58
330
1
100
AcDbSymbolTableRecord
100
AcDbBlockTableRecord
  2
*D7
 70
    0
280
    1
281
    0
  0
BLOCK_RECORD
  5
5B
330
1
100
AcDbSymbolTableRecord
100
AcDbBlockTableRecord
  2
*D2
 70
    0
280
    1
281
    0
  0
BLOCK_RECORD
  5
5E
330
1
100
AcDbSymbolTableRecord
100
AcDbBlockTableRecord
  2
*D1
 70
    0
280
    1
281
    0
  0
BLOCK_RECORD
  5
61
330
1
100
AcDbSymbolTableRecord
100
AcDbBlockTableRecord
  2
*D3
 70
    0
280
    1
281
    0
  0
BLOCK_RECORD
  5
64
330
1
100
AcDbSymbolTableRecord
100
AcDbBlockTableRecord
  2
*D8
 70
    0
280
    1
281
    0
  0
BLOCK_RECORD
  5
67
330
1
100
AcDbSymbolTableRecord
100
AcDbBlockTableRecord
  2
*D9
 70
    0
280
    1
281
    0
  0
BLOCK_RECORD
  5
6A
330
1
100
AcDbSymbolTableRecord
100
AcDbBlockTableRecord
  2
*D4
 70
    0
280
    1
281
    0
  0
BLOCK_RECORD
  5
6D
330
1
100
AcDbSymbolTableRecord
100
AcDbBlockTableRecord
  2
*D6
 70
    0
280
    1
281
    0
  0
BLOCK_RECORD
  5
70
330
1
100
AcDbSymbolTableRecord
100
AcDbBlockTableRecord
  2
*D5
 70
    0
280
    1
281
    0
  0
BLOCK_RECORD
  5
73
330
1
100
AcDbSymbolTableRecord
100
AcDbBlockTableRecord
  2
_Closed
 70
    0
280
    1
281
    0
  0
BLOCK_RECORD
  5
76
330
1
100
AcDbSymbolTableRecord
100
AcDbBlockTableRecord
  2
DatumFilled45
 70
    0
280
    1
281
    0
  0
BLOCK_RECORD
  5
79
330
1
100
AcDbSymbolTableRecord
100
AcDbBlockTableRecord
  2
Filled-1
 70
    0
280
    1
281
    0
  0
BLOCK_RECORD
  5
7C
330
1
100
AcDbSymbolTableRecord
100
AcDbBlockTableRecord
  2
Borders Default Border
 70
    0
280
    1
281
    0
  0
BLOCK_RECORD
  5
7F
330
1
100
AcDbSymbolTableRecord
100
AcDbBlockTableRecord
  2
Title Blocks ISO
 70
    0
280
    1
281
    0
  0
ENDTAB
  0
ENDSEC
  0
SECTION
  2
BLOCKS
  0
BLOCK
  5
20
330
1F
100
AcDbEntity
  8
0
100
AcDbBlockBegin
  2
*Model_Space
 70
    0
 10
0
 20
0
 30
0
  3
*Model_Space
  1

  0
ENDBLK
  5
21
330
1F
100
AcDbEntity
  8
0
100
AcDbBlockEnd
  0
BLOCK
  5
1C
330
1B
100
AcDbEntity
  8
0
100
AcDbBlockBegin
  2
*Paper_Space
 70
    0
 10
0
 20
0
 30
0
  3
*Paper_Space
  1

  0
ENDBLK
  5
1D
330
1F
100
AcDbEntity
  8
0
100
AcDbBlockEnd
  0
BLOCK
  5
59
330
58
100
AcDbEntity
  8
0
100
AcDbBlockBegin
  2
*D7
 70
    1
 10
0
 20
0
  3
*D7
  1

  0
LINE
  5
82
100
AcDbEntity
  8
Dimension (ISO)
  6
ByBlock
 62
    0
370
   -2
100
AcDbLine
 10
0.005520028251076781
 20
46.48555711788535
 11
9.005520028251077
 21
46.48555711788535
  0
SOLID
  5
83
100
AcDbEntity
  8
Dimension (ISO)
  6
ByBlock
 62
    0
370
   -2
100
AcDbTrace
 10
0.005520028251076781
 20
46.48555711788535
 30
0
 11
2.505520028251077
 21
46.90184177565819
 31
0
 12
2.505520028251077
 22
46.06927246011251
 32
0
 13
2.505520028251077
 23
46.06927246011251
 33
0
  0
SOLID
  5
84
100
AcDbEntity
  8
Dimension (ISO)
  6
ByBlock
 62
    0
370
   -2
100
AcDbTrace
 10
9.005520028251077
 20
46.48555711788535
 30
0
 11
6.505520028251077
 21
46.06927246011251
 31
0
 12
6.505520028251077
 22
46.90184177565819
 32
0
 13
6.505520028251077
 23
46.90184177565819
 33
0
  0
MTEXT
  5
85
100
AcDbEntity
  8
Dimension (ISO)
  6
CONTINUOUS
 62
    0
370
   -2
100
AcDbMText
 10
14.49163113936226
 20
46.48555711788535
 30
0
 40
2.5
 41
9.722222222222378
 71
    5
 72
    1
  1
9.0000
  7
standard
210
0
220
0
230
1
 50
0
 73
    2
 44
1
  0
LINE
  5
86
100
AcDbEntity
  8
Dimension (ISO)
  6
ByBlock
 62
    0
370
   -2
100
AcDbLine
 10
0.005520028251076819
 20
34.61055711788535
 11
0.005520028251076857
 21
47.73555711788535
  0
LINE
  5
87
100
AcDbEntity
  8
Dimension (ISO)
  6
ByBlock
 62
    0
370
   -2
100
AcDbLine
 10
9.005520028251077
 20
37.11055711788535
 11
9.005520028251077
 21
47.73555711788535
  0
ENDBLK
  5
5A
330
58
100
AcDbEntity
  8
0
100
AcDbBlockEnd
  0
BLOCK
  5
5C
330
5B
100
AcDbEntity
  8
0
100
AcDbBlockBegin
  2
*D2
 70
    1
 10
0
 20
0
  3
*D2
  1

  0
LINE
  5
88
100
AcDbEntity
  8
Dimension (ISO)
  6
ByBlock
 62
    0
370
   -2
100
AcDbLine
 10
-5.99447997174889
 20
-0.01444288211463629
 11
-5.994479971748888
 21
37.98555711788536
  0
SOLID
  5
89
100
AcDbEntity
  8
Dimension (ISO)
  6
ByBlock
 62
    0
370
   -2
100
AcDbTrace
 10
-5.99447997174889
 20
-0.01444288211463629
 30
0
 11
-6.41076462952173
 21
2.485557117885364
 31
0
 12
-5.57819531397605
 22
2.485557117885364
 32
0
 13
-5.57819531397605
 23
2.485557117885364
 33
0
  0
SOLID
  5
8A
100
AcDbEntity
  8
Dimension (ISO)
  6
ByBlock
 62
    0
370
   -2
100
AcDbTrace
 10
-5.994479971748888
 20
37.98555711788536
 30
0
 11
-5.578195313976047
 21
35.48555711788536
 31
0
 12
-6.410764629521728
 22
35.48555711788536
 32
0
 13
-6.410764629521728
 23
35.48555711788536
 33
0
  0
MTEXT
  5
8B
100
AcDbEntity
  8
Dimension (ISO)
  6
CONTINUOUS
 62
    0
370
   -2
100
AcDbMText
 10
-5.994479971748902
 20
18.98555711788536
 30
0
 40
2.5
 41
11.66666666666682
 71
    5
 72
    1
  1
38.0000
  7
standard
210
0
220
0
230
1
 50
90
 73
    2
 44
1
  0
LINE
  5
8C
100
AcDbEntity
  8
Dimension (ISO)
  6
ByBlock
 62
    0
370
   -2
100
AcDbLine
 10
3.380520028251098
 20
-0.01444288211463621
 11
-7.24447997174889
 21
-0.01444288211463614
  0
LINE
  5
8D
100
AcDbEntity
  8
Dimension (ISO)
  6
ByBlock
 62
    0
370
   -2
100
AcDbLine
 10
3.380520028251077
 20
37.98555711788536
 11
-7.244479971748888
 21
37.98555711788536
  0
ENDBLK
  5
5D
330
5B
100
AcDbEntity
  8
0
100
AcDbBlockEnd
  0
BLOCK
  5
5F
330
5E
100
AcDbEntity
  8
0
100
AcDbBlockBegin
  2
*D1
 70
    1
 10
0
 20
0
  3
*D1
  1

  0
LINE
  5
8E
100
AcDbEntity
  8
Dimension (ISO)
  6
ByBlock
 62
    0
370
   -2
100
AcDbLine
 10
0.005520028251083886
 20
-12.01444288211464
 11
70.50552002825111
 21
-12.01444288211464
  0
SOLID
  5
8F
100
AcDbEntity
  8
Dimension (ISO)
  6
ByBlock
 62
    0
370
   -2
100
AcDbTrace
 10
0.005520028251083886
 20
-12.01444288211464
 30
0
 11
2.505520028251084
 21
-11.5981582243418
 31
0
 12
2.505520028251084
 22
-12.43072753988748
 32
0
 13
2.505520028251084
 23
-12.43072753988748
 33
0
  0
SOLID
  5
90
100
AcDbEntity
  8
Dimension (ISO)
  6
ByBlock
 62
    0
370
   -2
100
AcDbTrace
 10
70.50552002825111
 20
-12.01444288211464
 30
0
 11
68.00552002825111
 21
-12.43072753988748
 31
0
 12
68.00552002825111
 22
-11.5981582243418
 32
0
 13
68.00552002825111
 23
-11.5981582243418
 33
0
  0
MTEXT
  5
91
100
AcDbEntity
  8
Dimension (ISO)
  6
CONTINUOUS
 62
    0
370
   -2
100
AcDbMText
 10
35.25552002825112
 20
-12.01444288211464
 30
0
 40
2.5
 41
11.66666666666682
 71
    5
 72
    1
  1
70.5000
  7
standard
210
0
220
0
230
1
 50
0
 73
    2
 44
1
  0
LINE
  5
92
100
AcDbEntity
  8
Dimension (ISO)
  6
ByBlock
 62
    0
370
   -2
100
AcDbLine
 10
0.005520028251090877
 20
3.360557117885357
 11
0.005520028251083656
 21
-13.26444288211464
  0
LINE
  5
93
100
AcDbEntity
  8
Dimension (ISO)
  6
ByBlock
 62
    0
370
   -2
100
AcDbLine
 10
70.50552002825111
 20
3.360557117885357
 11
70.50552002825111
 21
-13.26444288211464
  0
ENDBLK
  5
60
330
5E
100
AcDbEntity
  8
0
100
AcDbBlockEnd
  0
BLOCK
  5
62
330
61
100
AcDbEntity
  8
0
100
AcDbBlockBegin
  2
*D3
 70
    1
 10
0
 20
0
  3
*D3
  1

  0
SOLID
  5
94
100
AcDbEntity
  8
Dimension (ISO)
  6
ByBlock
 62
    0
370
   -2
100
AcDbTrace
 10
69.63325571483932
 20
36.47900242004104
 30
0
 11
71.3285947628862
 21
38.36291282886216
 31
0
 12
71.84758627502778
 22
37.71189863891452
 32
0
 13
71.84758627502778
 23
37.71189863891452
 33
0
  0
LINE
  5
95
100
AcDbEntity
  8
Dimension (ISO)
  6
ByBlock
 62
    0
370
   -2
100
AcDbLine
 10
66.50552002825106
 20
33.98555711788536
 11
81.36226453954532
 21
45.82942230312484
  0
MTEXT
  5
96
100
AcDbEntity
  8
Dimension (ISO)
  6
CONTINUOUS
 62
    0
370
   -2
100
AcDbMText
 10
80.64694417346939
 20
45.25916561104681
 30
0
 40
2.5
 41
10
 71
    5
 72
    1
  1
4.0000
  7
standard
210
0
220
0
230
1
 50
38.56201392284154
 73
    2
 44
1
  0
ENDBLK
  5
63
330
61
100
AcDbEntity
  8
0
100
AcDbBlockEnd
  0
BLOCK
  5
65
330
64
100
AcDbEntity
  8
0
100
AcDbBlockBegin
  2
*D8
 70
    1
 10
0
 20
0
  3
*D8
  1

  0
LINE
  5
97
100
AcDbEntity
  8
Dimension (ISO)
  6
ByBlock
 62
    0
370
   -2
100
AcDbLine
 10
70.50552002825108
 20
43.98555711788538
 11
60.00552002825109
 21
43.98555711788538
  0
SOLID
  5
98
100
AcDbEntity
  8
Dimension (ISO)
  6
ByBlock
 62
    0
370
   -2
100
AcDbTrace
 10
70.50552002825108
 20
43.98555711788538
 30
0
 11
68.00552002825108
 21
43.56927246011254
 31
0
 12
68.00552002825108
 22
44.40184177565822
 32
0
 13
68.00552002825108
 23
44.40184177565822
 33
0
  0
SOLID
  5
99
100
AcDbEntity
  8
Dimension (ISO)
  6
ByBlock
 62
    0
370
   -2
100
AcDbTrace
 10
60.00552002825109
 20
43.98555711788538
 30
0
 11
62.50552002825109
 21
44.40184177565822
 31
0
 12
62.50552002825109
 22
43.56927246011254
 32
0
 13
62.50552002825109
 23
43.56927246011254
 33
0
  0
MTEXT
  5
9A
100
AcDbEntity
  8
Dimension (ISO)
  6
CONTINUOUS
 62
    0
370
   -2
100
AcDbMText
 10
76.68607558380668
 20
51.73244397643334
 30
0
 40
2.5
 41
11.11111111111127
 71
    5
 72
    1
  1
10.5000
  7
standard
210
0
220
0
230
1
 50
360
 73
    2
 44
1
  0
LINE
  5
9B
100
AcDbEntity
  8
Dimension (ISO)
  6
ByBlock
 62
    0
370
   -2
100
AcDbLine
 10
70.50552002825108
 20
34.61055711788538
 11
70.50552002825108
 21
45.23555711788538
  0
LINE
  5
9C
100
AcDbEntity
  8
Dimension (ISO)
  6
ByBlock
 62
    0
370
   -2
100
AcDbLine
 10
60.00552002825109
 20
24.61055711788538
 11
60.00552002825109
 21
45.23555711788538
  0
ENDBLK
  5
66
330
64
100
AcDbEntity
  8
0
100
AcDbBlockEnd
  0
BLOCK
  5
68
330
67
100
AcDbEntity
  8
0
100
AcDbBlockBegin
  2
*D9
 70
    1
 10
0
 20
0
  3
*D9
  1

  0
SOLID
  5
9D
100
AcDbEntity
  8
Center Mark (ISO)
  6
ByBlock
 62
    0
370
   -2
100
AcDbTrace
 10
64.35797931305083
 20
17.0921667998665
 30
0
 11
64.54904985130723
 21
14.56495787187747
 31
0
 12
63.71981569843003
 22
14.63940506719226
 32
0
 13
63.71981569843003
 23
14.63940506719226
 33
0
  0
LINE
  5
9E
100
AcDbEntity
  8
Center Mark (ISO)
  6
ByBlock
 62
    0
370
   -2
100
AcDbLine
 10
64.50552002825108
 20
18.73555711788538
 11
63.09121559668502
 21
2.982249927986913
  0
MTEXT
  5
9F
100
AcDbEntity
  8
Center Mark (ISO)
  6
CONTINUOUS
 62
    0
370
   -2
100
AcDbMText
 10
61.85710845711913
 20
10.20486826756338
 30
0
 40
2.5
 41
9.166666666666977
 71
    5
 72
    1
  1
1.6500
  7
standard
210
0
220
0
230
1
 50
84.86983865430369
 73
    2
 44
1
  0
ENDBLK
  5
69
330
67
100
AcDbEntity
  8
0
100
AcDbBlockEnd
  0
BLOCK
  5
6B
330
6A
100
AcDbEntity
  8
0
100
AcDbBlockBegin
  2
*D4
 70
    1
 10
0
 20
0
  3
*D4
  1

  0
LINE
  5
A0
100
AcDbEntity
  8
Dimension (ISO)
  6
ByBlock
 62
    0
370
   -2
100
AcDbLine
 10
-1.644479971745747
 20
18.73556376788452
 11
11.6555200282476
 21
18.73555046788507
  0
SOLID
  5
A1
100
AcDbEntity
  8
Dimension (ISO)
  6
ByBlock
 62
    0
370
   -2
100
AcDbTrace
 10
3.355520028251753
 20
18.73555876788473
 30
0
 11
0.8555196119683623
 21
18.31927661011199
 31
0
 12
0.8555204445376439
 22
19.15184592565726
 32
0
 13
0.8555204445376439
 23
19.15184592565726
 33
0
  0
SOLID
  5
A2
100
AcDbEntity
  8
Dimension (ISO)
  6
ByBlock
 62
    0
370
   -2
100
AcDbTrace
 10
6.655520028250102
 20
18.73555546788486
 30
0
 11
9.155520444533492
 21
19.1518376256576
 31
0
 12
9.155519611964213
 22
18.31926831011234
 32
0
 13
9.155519611964213
 23
18.31926831011234
 33
0
  0
MTEXT
  5
A3
100
AcDbEntity
  8
Dimension (ISO)
  6
CONTINUOUS
 62
    0
370
   -2
100
AcDbMText
 10
27.95388112338409
 20
18.73553416952466
 30
0
 40
2.5
 41
14.16666666666698
 71
    5
 72
    1
  1
2X3.3000
  7
standard
210
0
220
0
230
1
 50
359.9999427042229
 73
    2
 44
1
  0
ENDBLK
  5
6C
330
6A
100
AcDbEntity
  8
0
100
AcDbBlockEnd
  0
BLOCK
  5
6E
330
6D
100
AcDbEntity
  8
0
100
AcDbBlockBegin
  2
*D6
 70
    1
 10
0
 20
0
  3
*D6
  1

  0
LINE
  5
A4
100
AcDbEntity
  8
Dimension (ISO)
  6
ByBlock
 62
    0
370
   -2
100
AcDbLine
 10
-36.3953838825197
 20
42.68555711788537
 11
-25.195383882519
 21
42.68555711788537
  0
SOLID
  5
A5
100
AcDbEntity
  8
Dimension (ISO)
  6
ByBlock
 62
    0
370
   -2
100
AcDbTrace
 10
-31.3953838825197
 20
42.68555711788537
 30
0
 11
-33.8953838825197
 21
42.26927246011252
 31
0
 12
-33.8953838825197
 22
43.10184177565821
 32
0
 13
-33.8953838825197
 23
43.10184177565821
 33
0
  0
SOLID
  5
A6
100
AcDbEntity
  8
Dimension (ISO)
  6
ByBlock
 62
    0
370
   -2
100
AcDbTrace
 10
-30.195383882519
 20
42.68555711788537
 30
0
 11
-27.695383882519
 21
43.10184177565821
 31
0
 12
-27.695383882519
 22
42.26927246011252
 32
0
 13
-27.695383882519
 23
42.26927246011252
 33
0
  0
MTEXT
  5
A7
100
AcDbEntity
  8
Dimension (ISO)
  6
CONTINUOUS
 62
    0
370
   -2
100
AcDbMText
 10
-24.98705054918567
 20
42.68555711788537
 30
0
 40
2.5
 41
9.166666666666668
 71
    5
 72
    1
  1
1.2000
  7
standard
210
0
220
0
230
1
 50
0
 73
    2
 44
1
  0
LINE
  5
A8
100
AcDbEntity
  8
Dimension (ISO)
  6
ByBlock
 62
    0
370
   -2
100
AcDbLine
 10
-31.3953838825197
 20
37.11055711788539
 11
-31.3953838825197
 21
43.93555711788537
  0
LINE
  5
A9
100
AcDbEntity
  8
Dimension (ISO)
  6
ByBlock
 62
    0
370
   -2
100
AcDbLine
 10
-30.195383882519
 20
38.31055711788539
 11
-30.195383882519
 21
43.93555711788537
  0
ENDBLK
  5
6F
330
6D
100
AcDbEntity
  8
0
100
AcDbBlockEnd
  0
BLOCK
  5
71
330
70
100
AcDbEntity
  8
0
100
AcDbBlockBegin
  2
*D5
 70
    1
 10
0
 20
0
  3
*D5
  1

  0
LINE
  5
AA
100
AcDbEntity
  8
Dimension (ISO)
  6
ByBlock
 62
    0
370
   -2
100
AcDbLine
 10
-4.644479971734222
 20
68.36363179587708
 11
-4.64447997173422
 21
80.06363179588256
  0
SOLID
  5
AB
100
AcDbEntity
  8
Dimension (ISO)
  6
ByBlock
 62
    0
370
   -2
100
AcDbTrace
 10
-4.644479971734221
 20
73.36363179587708
 30
0
 11
-4.22819531396138
 21
70.86363179587708
 31
0
 12
-5.060764629507061
 22
70.86363179587708
 32
0
 13
-5.060764629507061
 23
70.86363179587708
 33
0
  0
SOLID
  5
AC
100
AcDbEntity
  8
Dimension (ISO)
  6
ByBlock
 62
    0
370
   -2
100
AcDbTrace
 10
-4.644479971734221
 20
75.06363179588256
 30
0
 11
-5.060764629507061
 21
77.56363179588256
 31
0
 12
-4.22819531396138
 22
77.56363179588256
 32
0
 13
-4.22819531396138
 23
77.56363179588256
 33
0
  0
MTEXT
  5
AD
100
AcDbEntity
  8
Dimension (ISO)
  6
CONTINUOUS
 62
    0
370
   -2
100
AcDbMText
 10
-4.644479971734242
 20
80.2719651292159
 30
0
 40
2.5
 41
9.166666666666668
 71
    5
 72
    1
  1
1.7000
  7
standard
210
0
220
0
230
1
 50
90
 73
    2
 44
1
  0
LINE
  5
AE
100
AcDbEntity
  8
Dimension (ISO)
  6
ByBlock
 62
    0
370
   -2
100
AcDbLine
 10
3.380520028265771
 20
73.36363179587708
 11
-5.894479971734221
 21
73.36363179587708
  0
LINE
  5
AF
100
AcDbEntity
  8
Dimension (ISO)
  6
ByBlock
 62
    0
370
   -2
100
AcDbLine
 10
2.730520028265758
 20
75.06363179588256
 11
-5.894479971734221
 21
75.06363179588256
  0
ENDBLK
  5
72
330
70
100
AcDbEntity
  8
0
100
AcDbBlockEnd
  0
BLOCK
  5
74
330
73
100
AcDbEntity
  8
0
100
AcDbBlockBegin
  2
_Closed
 70
    0
 10
0
 20
0
  3
_Closed
  1

  0
LINE
  5
B0
100
AcDbEntity
  8
0
  6
ByBlock
 62
    0
370
   -2
100
AcDbLine
 10
-1
 20
0.1666666666666667
 11
0
 21
0
  0
LINE
  5
B1
100
AcDbEntity
  8
0
  6
ByBlock
 62
    0
370
   -2
100
AcDbLine
 10
0
 20
0
 11
-1
 21
-0.1666666666666667
  0
LINE
  5
B2
100
AcDbEntity
  8
0
  6
ByBlock
 62
    0
370
   -2
100
AcDbLine
 10
-1
 20
0.1666666666666667
 11
-1
 21
-0.1666666666666667
  0
LINE
  5
B3
100
AcDbEntity
  8
0
  6
ByBlock
 62
    0
370
   -2
100
AcDbLine
 10
0
 20
0
 11
-1
 21
0
  0
ENDBLK
  5
75
330
73
100
AcDbEntity
  8
0
100
AcDbBlockEnd
  0
BLOCK
  5
77
330
76
100
AcDbEntity
  8
0
100
AcDbBlockBegin
  2
DatumFilled45
 70
    0
 10
0
 20
0
  3
DatumFilled45
  1

  0
LWPOLYLINE
  5
B4
100
AcDbEntity
  8
0
  6
ByLayer
 62
    0
370
   -1
100
AcDbPolyline
 90
    4
 70
    0
 43
0
 10
0
 20
1
 10
0
 20
-1
 10
-1
 20
0
 10
0
 20
1
  0
SOLID
  5
B5
100
AcDbEntity
  8
0
  6
ByLayer
 62
    0
370
   -1
100
AcDbTrace
 10
0
 20
1
 30
0
 11
0
 21
-1
 31
0
 12
-1
 22
0
 32
0
 13
0
 23
1
 33
0
  0
ENDBLK
  5
78
330
76
100
AcDbEntity
  8
0
100
AcDbBlockEnd
  0
BLOCK
  5
7A
330
79
100
AcDbEntity
  8
0
100
AcDbBlockBegin
  2
Filled-1
 70
    0
 10
0
 20
0
  3
Filled-1
  1

  0
LINE
  5
B6
100
AcDbEntity
  8
0
  6
ByLayer
 62
    0
370
   -1
100
AcDbLine
 10
-1
 20
0
 11
0
 21
0
  0
LWPOLYLINE
  5
B7
100
AcDbEntity
  8
0
  6
ByLayer
 62
    0
370
   -1
100
AcDbPolyline
 90
    4
 70
    0
 43
0
 10
-1
 20
-0.1
 10
0
 20
0
 10
-1
 20
0.1
 10
-1
 20
-0.1
  0
SOLID
  5
B8
100
AcDbEntity
  8
0
  6
ByLayer
 62
    0
370
   -1
100
AcDbTrace
 10
-1
 20
-0.1
 30
0
 11
0
 21
0
 31
0
 12
-1
 22
0.1
 32
0
 13
-1
 23
-0.1
 33
0
  0
LINE
  5
B9
100
AcDbEntity
  8
0
  6
ByLayer
 62
    0
370
   -1
100
AcDbLine
 10
-1
 20
-0.1
 11
0
 21
0
  0
LINE
  5
BA
100
AcDbEntity
  8
0
  6
ByLayer
 62
    0
370
   -1
100
AcDbLine
 10
0
 20
0
 11
-1
 21
0.1
  0
LINE
  5
BB
100
AcDbEntity
  8
0
  6
ByLayer
 62
    0
370
   -1
100
AcDbLine
 10
-1
 20
0.1
 11
-1
 21
-0.1
  0
ENDBLK
  5
7B
330
79
100
AcDbEntity
  8
0
100
AcDbBlockEnd
  0
BLOCK
  5
7D
330
7C
100
AcDbEntity
  8
0
100
AcDbBlockBegin
  2
Borders Default Border
 70
    0
 10
0
 20
0
  3
Borders Default Border
  1

  0
LWPOLYLINE
  5
BC
100
AcDbEntity
  8
Border (ISO)
  6
ByLayer
 62
  256
370
   -1
100
AcDbPolyline
 90
    5
 70
    0
 43
0
 10
10
 20
10
 10
10
 20
287.0000076293945
 10
410
 20
287.0000076293945
 10
410
 20
10
 10
10
 20
10
  0
LWPOLYLINE
  5
BD
100
AcDbEntity
  8
Border (ISO)
  6
ByLayer
 62
  256
370
   -1
100
AcDbPolyline
 90
    5
 70
    0
 43
0
 10
210
 20
0
 10
210
 20
10
 10
207.1132469177246
 20
5
 10
212.8867530822754
 20
5
 10
210
 20
10
  0
LWPOLYLINE
  5
BE
100
AcDbEntity
  8
Border (ISO)
  6
ByLayer
 62
  256
370
   -1
100
AcDbPolyline
 90
    5
 70
    0
 43
0
 10
210
 20
297.0000076293945
 10
210
 20
287.0000076293945
 10
207.1132469177246
 20
292.0000076293945
 10
212.8867530822754
 20
292.0000076293945
 10
210
 20
287.0000076293945
  0
LWPOLYLINE
  5
BF
100
AcDbEntity
  8
Border (ISO)
  6
ByLayer
 62
  256
370
   -1
100
AcDbPolyline
 90
    5
 70
    0
 43
0
 10
0
 20
148.5000038146973
 10
10
 20
148.5000038146973
 10
5
 20
151.3867473602295
 10
5
 20
145.6132507324219
 10
10
 20
148.5000038146973
  0
LWPOLYLINE
  5
C0
100
AcDbEntity
  8
Border (ISO)
  6
ByLayer
 62
  256
370
   -1
100
AcDbPolyline
 90
    5
 70
    0
 43
0
 10
420
 20
148.5000038146973
 10
410
 20
148.5000038146973
 10
415
 20
151.3867473602295
 10
415
 20
145.6132507324219
 10
410
 20
148.5000038146973
  0
LINE
  5
C1
100
AcDbEntity
  8
Border (ISO)
  6
ByLayer
 62
  256
370
   -1
100
AcDbLine
 10
70
 20
10
 11
70
 21
6.100000143051147
  0
LINE
  5
C2
100
AcDbEntity
  8
Border (ISO)
  6
ByLayer
 62
  256
370
   -1
100
AcDbLine
 10
70
 20
287.0000076293945
 11
70
 21
290.9000015258789
  0
LINE
  5
C3
100
AcDbEntity
  8
Border (ISO)
  6
ByLayer
 62
  256
370
   -1
100
AcDbLine
 10
140
 20
10
 11
140
 21
6.100000143051147
  0
LINE
  5
C4
100
AcDbEntity
  8
Border (ISO)
  6
ByLayer
 62
  256
370
   -1
100
AcDbLine
 10
140
 20
287.0000076293945
 11
140
 21
290.9000015258789
  0
LINE
  5
C5
100
AcDbEntity
  8
Border (ISO)
  6
ByLayer
 62
  256
370
   -1
100
AcDbLine
 10
280
 20
10
 11
280
 21
6.100000143051147
  0
LINE
  5
C6
100
AcDbEntity
  8
Border (ISO)
  6
ByLayer
 62
  256
370
   -1
100
AcDbLine
 10
280
 20
287.0000076293945
 11
280
 21
290.9000015258789
  0
LINE
  5
C7
100
AcDbEntity
  8
Border (ISO)
  6
ByLayer
 62
  256
370
   -1
100
AcDbLine
 10
350
 20
10
 11
350
 21
6.100000143051147
  0
LINE
  5
C8
100
AcDbEntity
  8
Border (ISO)
  6
ByLayer
 62
  256
370
   -1
100
AcDbLine
 10
350
 20
287.0000076293945
 11
350
 21
290.9000015258789
  0
MTEXT
  5
C9
100
AcDbEntity
  8
Border (ISO)
  6
ByLayer
 62
  256
370
   -1
100
AcDbMText
 10
384.2103922448459
 20
287.4
 30
0
 40
3.499999940395355
 41
0.7777777645323012
 71
    7
 72
    5
  1
1
  7
note text (iso)
210
0
220
0
230
1
 50
0
 73
    1
 44
1
  0
MTEXT
  5
CA
100
AcDbEntity
  8
Border (ISO)
  6
ByLayer
 62
  256
370
   -1
100
AcDbMText
 10
384.2103922448459
 20
6.100000059604644
 30
0
 40
3.499999940395355
 41
0.7777777645323012
 71
    7
 72
    5
  1
1
  7
note text (iso)
210
0
220
0
230
1
 50
0
 73
    1
 44
1
  0
MTEXT
  5
CB
100
AcDbEntity
  8
Border (ISO)
  6
ByLayer
 62
  256
370
   -1
100
AcDbMText
 10
313.9387915541735
 20
287.4
 30
0
 40
3.499999940395355
 41
1.555555529064602
 71
    7
 72
    5
  1
2
  7
note text (iso)
210
0
220
0
230
1
 50
0
 73
    1
 44
1
  0
MTEXT
  5
CC
100
AcDbEntity
  8
Border (ISO)
  6
ByLayer
 62
  256
370
   -1
100
AcDbMText
 10
313.9387915541735
 20
6.100000059604644
 30
0
 40
3.499999940395355
 41
1.555555529064602
 71
    7
 72
    5
  1
2
  7
note text (iso)
210
0
220
0
230
1
 50
0
 73
    1
 44
1
  0
MTEXT
  5
CD
100
AcDbEntity
  8
Border (ISO)
  6
ByLayer
 62
  256
370
   -1
100
AcDbMText
 10
243.9107914829702
 20
287.3262560764327
 30
0
 40
3.499999940395355
 41
1.55555552906482
 71
    7
 72
    5
  1
3
  7
note text (iso)
210
0
220
0
230
1
 50
0
 73
    1
 44
1
  0
MTEXT
  5
CE
100
AcDbEntity
  8
Border (ISO)
  6
ByLayer
 62
  256
370
   -1
100
AcDbMText
 10
243.9107914829702
 20
6.026256136037409
 30
0
 40
3.499999940395355
 41
1.55555552906482
 71
    7
 72
    5
  1
3
  7
note text (iso)
210
0
220
0
230
1
 50
0
 73
    1
 44
1
  0
MTEXT
  5
CF
100
AcDbEntity
  8
Border (ISO)
  6
ByLayer
 62
  256
370
   -1
100
AcDbMText
 10
173.7791911483145
 20
287.4
 30
0
 40
3.499999940395355
 41
1.944444411330753
 71
    7
 72
    5
  1
4
  7
note text (iso)
210
0
220
0
230
1
 50
0
 73
    1
 44
1
  0
MTEXT
  5
D0
100
AcDbEntity
  8
Border (ISO)
  6
ByLayer
 62
  256
370
   -1
100
AcDbMText
 10
173.7791911483145
 20
6.100000059604644
 30
0
 40
3.499999940395355
 41
1.944444411330753
 71
    7
 72
    5
  1
4
  7
note text (iso)
210
0
220
0
230
1
 50
0
 73
    1
 44
1
  0
MTEXT
  5
D1
100
AcDbEntity
  8
Border (ISO)
  6
ByLayer
 62
  256
370
   -1
100
AcDbMText
 10
103.9751916467379
 20
287.3262560764327
 30
0
 40
3.499999940395355
 41
1.55555552906482
 71
    7
 72
    5
  1
5
  7
note text (iso)
210
0
220
0
230
1
 50
0
 73
    1
 44
1
  0
MTEXT
  5
D2
100
AcDbEntity
  8
Border (ISO)
  6
ByLayer
 62
  256
370
   -1
100
AcDbMText
 10
103.9751916467379
 20
6.026256136037409
 30
0
 40
3.499999940395355
 41
1.55555552906482
 71
    7
 72
    5
  1
5
  7
note text (iso)
210
0
220
0
230
1
 50
0
 73
    1
 44
1
  0
MTEXT
  5
D3
100
AcDbEntity
  8
Border (ISO)
  6
ByLayer
 62
  256
370
   -1
100
AcDbMText
 10
33.88279141176685
 20
287.3262560764327
 30
0
 40
3.499999940395355
 41
1.55555552906482
 71
    7
 72
    5
  1
6
  7
note text (iso)
210
0
220
0
230
1
 50
0
 73
    1
 44
1
  0
MTEXT
  5
D4
100
AcDbEntity
  8
Border (ISO)
  6
ByLayer
 62
  256
370
   -1
100
AcDbMText
 10
33.88279141176685
 20
6.026256136037409
 30
0
 40
3.499999940395355
 41
1.55555552906482
 71
    7
 72
    5
  1
6
  7
note text (iso)
210
0
220
0
230
1
 50
0
 73
    1
 44
1
  0
LINE
  5
D5
100
AcDbEntity
  8
Border (ISO)
  6
ByLayer
 62
  256
370
   -1
100
AcDbLine
 10
10
 20
74.25000190734863
 11
6.100000143051147
 21
74.25000190734863
  0
LINE
  5
D6
100
AcDbEntity
  8
Border (ISO)
  6
ByLayer
 62
  256
370
   -1
100
AcDbLine
 10
410
 20
74.25000190734863
 11
413.8999938964844
 21
74.25000190734863
  0
LINE
  5
D7
100
AcDbEntity
  8
Border (ISO)
  6
ByLayer
 62
  256
370
   -1
100
AcDbLine
 10
10
 20
222.7499961853027
 11
6.100000143051147
 21
222.7499961853027
  0
LINE
  5
D8
100
AcDbEntity
  8
Border (ISO)
  6
ByLayer
 62
  256
370
   -1
100
AcDbLine
 10
410
 20
222.7499961853027
 11
413.8999938964844
 21
222.7499961853027
  0
MTEXT
  5
D9
100
AcDbEntity
  8
Border (ISO)
  6
ByLayer
 62
  256
370
   -1
100
AcDbMText
 10
6.361230343933396
 20
35.37500002980232
 30
0
 40
3.499999940395355
 41
2.333333293596904
 71
    7
 72
    5
  1
A
  7
note text (iso)
210
0
220
0
230
1
 50
0
 73
    1
 44
1
  0
MTEXT
  5
DA
100
AcDbEntity
  8
Border (ISO)
  6
ByLayer
 62
  256
370
   -1
100
AcDbMText
 10
410.6612302843288
 20
35.37500002980232
 30
0
 40
3.499999940395355
 41
2.333333293596904
 71
    7
 72
    5
  1
A
  7
note text (iso)
210
0
220
0
230
1
 50
0
 73
    1
 44
1
  0
MTEXT
  5
DB
100
AcDbEntity
  8
Border (ISO)
  6
ByLayer
 62
  256
370
   -1
100
AcDbMText
 10
6.781848468328938
 20
109.6250000298023
 30
0
 40
3.499999940395355
 41
1.944444411330753
 71
    7
 72
    5
  1
B
  7
note text (iso)
210
0
220
0
230
1
 50
0
 73
    1
 44
1
  0
MTEXT
  5
DC
100
AcDbEntity
  8
Border (ISO)
  6
ByLayer
 62
  256
370
   -1
100
AcDbMText
 10
411.0818484087242
 20
109.6250000298023
 30
0
 40
3.499999940395355
 41
1.944444411330753
 71
    7
 72
    5
  1
B
  7
note text (iso)
210
0
220
0
230
1
 50
0
 73
    1
 44
1
  0
MTEXT
  5
DD
100
AcDbEntity
  8
Border (ISO)
  6
ByLayer
 62
  256
370
   -1
100
AcDbMText
 10
6.558903094188359
 20
183.8126013241708
 30
0
 40
3.499999940395355
 41
1.55555552906482
 71
    7
 72
    5
  1
C
  7
note text (iso)
210
0
220
0
230
1
 50
0
 73
    1
 44
1
  0
MTEXT
  5
DE
100
AcDbEntity
  8
Border (ISO)
  6
ByLayer
 62
  256
370
   -1
100
AcDbMText
 10
410.8589030345837
 20
183.8126013241708
 30
0
 40
3.499999940395355
 41
1.55555552906482
 71
    7
 72
    5
  1
C
  7
note text (iso)
210
0
220
0
230
1
 50
0
 73
    1
 44
1
  0
MTEXT
  5
DF
100
AcDbEntity
  8
Border (ISO)
  6
ByLayer
 62
  256
370
   -1
100
AcDbMText
 10
6.56770745709084
 20
258.1250000298023
 30
0
 40
3.499999940395355
 41
1.94444441133097
 71
    7
 72
    5
  1
D
  7
note text (iso)
210
0
220
0
230
1
 50
0
 73
    1
 44
1
  0
MTEXT
  5
E0
100
AcDbEntity
  8
Border (ISO)
  6
ByLayer
 62
  256
370
   -1
100
AcDbMText
 10
410.8677073974861
 20
258.1250000298023
 30
0
 40
3.499999940395355
 41
1.94444441133097
 71
    7
 72
    5
  1
D
  7
note text (iso)
210
0
220
0
230
1
 50
0
 73
    1
 44
1
  0
ENDBLK
  5
7E
330
7C
100
AcDbEntity
  8
0
100
AcDbBlockEnd
  0
BLOCK
  5
80
330
7F
100
AcDbEntity
  8
0
100
AcDbBlockBegin
  2
Title Blocks ISO
 70
    0
 10
0
 20
0
  3
Title Blocks ISO
  1

  0
LINE
  5
E1
100
AcDbEntity
  8
Title (ISO)
  6
ByLayer
 62
  256
370
   -1
100
AcDbLine
 10
100.0713910852682
 20
99.99999999999918
 11
270.0713910852681
 21
99.99999999999916
  0
LINE
  5
E2
100
AcDbEntity
  8
Title (ISO)
  6
ByLayer
 62
  256
370
   -1
100
AcDbLine
 10
270.0713910852681
 20
99.99999999999916
 11
270.0713910852681
 21
129.9999999999993
  0
LINE
  5
E3
100
AcDbEntity
  8
Title (ISO)
  6
ByLayer
 62
  256
370
   -1
100
AcDbLine
 10
270.0713910852681
 20
129.9999999999993
 11
100.0713910852681
 21
129.9999999999991
  0
LINE
  5
E4
100
AcDbEntity
  8
Title (ISO)
  6
ByLayer
 62
  256
370
   -1
100
AcDbLine
 10
100.0713910852681
 20
129.9999999999991
 11
100.0713910852682
 21
99.99999999999918
  0
LINE
  5
E5
100
AcDbEntity
  8
Title (ISO)
  6
ByLayer
 62
  256
370
   -1
100
AcDbLine
 10
100.0713910852681
 20
120
 11
270.0713910852681
 21
120
  0
LINE
  5
E6
100
AcDbEntity
  8
Title (ISO)
  6
ByLayer
 62
  256
370
   -1
100
AcDbLine
 10
132.0713910852681
 20
119.9999999999991
 11
132.0713910852681
 21
129.9999999999991
  0
LINE
  5
E7
100
AcDbEntity
  8
Title (ISO)
  6
ByLayer
 62
  256
370
   -1
100
AcDbLine
 10
157.0713910852681
 20
119.9999999999991
 11
157.0713910852681
 21
129.9999999999991
  0
LINE
  5
E8
100
AcDbEntity
  8
Title (ISO)
  6
ByLayer
 62
  256
370
   -1
100
AcDbLine
 10
175.0713910852681
 20
120
 11
175.0713910852681
 21
100
  0
LINE
  5
E9
100
AcDbEntity
  8
Title (ISO)
  6
ByLayer
 62
  256
370
   -1
100
AcDbLine
 10
197.0713910852682
 20
119.9999999999992
 11
197.0713910852682
 21
129.9999999999992
  0
LINE
  5
EA
100
AcDbEntity
  8
Title (ISO)
  6
ByLayer
 62
  256
370
   -1
100
AcDbLine
 10
220.0713910852682
 20
119.9999999999993
 11
220.0713910852682
 21
129.9999999999992
  0
LINE
  5
EB
100
AcDbEntity
  8
Title (ISO)
  6
ByLayer
 62
  256
370
   -1
100
AcDbLine
 10
270.0713910852681
 20
109.9999999999993
 11
175.0713910852681
 21
110
  0
LINE
  5
EC
100
AcDbEntity
  8
Title (ISO)
  6
ByLayer
 62
  256
370
   -1
100
AcDbLine
 10
235.0713910852681
 20
100
 11
235.0713910852681
 21
110
  0
LINE
  5
ED
100
AcDbEntity
  8
Title (ISO)
  6
ByLayer
 62
  256
370
   -1
100
AcDbLine
 10
250.0713910852681
 20
100
 11
250.0713910852681
 21
110
  0
LINE
  5
EE
100
AcDbEntity
  8
Title (ISO)
  6
ByLayer
 62
  256
370
   -1
100
AcDbLine
 10
250.0713910852682
 20
119.9999999999993
 11
250.0713910852682
 21
129.9999999999993
  0
TEXT
  5
EF
100
AcDbEntity
  8
Title (ISO)
  6
ByLayer
 62
  256
370
   -1
100
AcDbText
 10
101.0713910852681
 20
128.9999999999991
 30
0
 40
2.000000029802322
  1
Designed by
 50
0
 41
1
 51
0
  7
text style41
 71
    0
 11
101.0713910852681
 21
128.9999999999991
 31
0
210
0
220
0
230
1
100
AcDbText
 73
    3
  0
TEXT
  5
F0
100
AcDbEntity
  8
Title (ISO)
  6
ByLayer
 62
  256
370
   -1
100
AcDbText
 10
133.0713910852681
 20
128.9999999999991
 30
0
 40
2.000000029802322
  1
Checked by
 50
0
 41
1
 51
0
  7
text style41
 71
    0
 11
133.0713910852681
 21
128.9999999999991
 31
0
210
0
220
0
230
1
100
AcDbText
 73
    3
  0
TEXT
  5
F1
100
AcDbEntity
  8
Title (ISO)
  6
ByLayer
 62
  256
370
   -1
100
AcDbText
 10
158.0713910852681
 20
128.9999999999991
 30
0
 40
2.000000029802322
  1
Approved by
 50
0
 41
1
 51
0
  7
text style41
 71
    0
 11
158.0713910852681
 21
128.9999999999991
 31
0
210
0
220
0
230
1
100
AcDbText
 73
    3
  0
TEXT
  5
F2
100
AcDbEntity
  8
Title (ISO)
  6
ByLayer
 62
  256
370
   -1
100
AcDbText
 10
221.0713910852682
 20
129
 30
0
 40
2.000000029802322
  1
Date
 50
0
 41
1
 51
0
  7
text style41
 71
    0
 11
221.0713910852682
 21
129
 31
0
210
0
220
0
230
1
100
AcDbText
 73
    3
  0
TEXT
  5
F3
100
AcDbEntity
  8
Title (ISO)
  6
ByLayer
 62
  256
370
   -1
100
AcDbText
 10
260.0713910852681
 20
103.4999999999997
 30
0
 40
3.499999940395355
  1
1 / 1 
 50
0
 41
1
 51
0
  7
note text (iso)
 71
    0
 72
    1
 11
260.0713910852681
 21
103.4999999999997
 31
0
210
0
220
0
230
1
100
AcDbText
 73
    2
  0
TEXT
  5
F4
100
AcDbEntity
  8
Title (ISO)
  6
ByLayer
 62
  256
370
   -1
100
AcDbText
 10
242.5713910852681
 20
108.9999999999992
 30
0
 40
2.000000029802322
  1
Edition
 50
0
 41
1
 51
0
  7
text style41
 71
    0
 72
    1
 11
242.5713910852681
 21
108.9999999999992
 31
0
210
0
220
0
230
1
100
AcDbText
 73
    3
  0
TEXT
  5
F5
100
AcDbEntity
  8
Title (ISO)
  6
ByLayer
 62
  256
370
   -1
100
AcDbText
 10
260.0713910852681
 20
108.9999999999992
 30
0
 40
2.000000029802322
  1
Sheet
 50
0
 41
1
 51
0
  7
text style41
 71
    0
 72
    1
 11
260.0713910852681
 21
108.9999999999992
 31
0
210
0
220
0
230
1
100
AcDbText
 73
    3
  0
TEXT
  5
F6
100
AcDbEntity
  8
Title (ISO)
  6
ByLayer
 62
  256
370
   -1
100
AcDbText
 10
196.0713910852681
 20
128.9999999999992
 30
0
 40
2.000000029802322
  1
Date
 50
0
 41
1
 51
0
  7
text style41
 71
    0
 72
    2
 11
196.0713910852681
 21
128.9999999999992
 31
0
210
0
220
0
230
1
100
AcDbText
 73
    3
  0
ENDBLK
  5
81
330
7F
100
AcDbEntity
  8
0
100
AcDbBlockEnd
  0
ENDSEC
  0
SECTION
  2
ENTITIES
  0
INSERT
  5
F7
100
AcDbEntity
  8
0
  6
ByLayer
 62
  256
370
   -1
100
AcDbBlockReference
  2
Borders Default Border
 10
0
 20
0
 30
0
 41
0.5
 42
0.5
 43
0
 50
0
 70
    1
 71
    1
 44
0
 45
0
  0
INSERT
  5
F8
100
AcDbEntity
  8
0
  6
ByLayer
 62
  256
370
   -1
100
AcDbBlockReference
  2
Title Blocks ISO
 10
69.96430445736593
 20
-44.99999999999958
 30
0
 41
0.5
 42
0.5
 43
0
 50
0
 70
    1
 71
    1
 44
0
 45
0
  0
MTEXT
  5
F9
100
AcDbEntity
  8
Symbol (ISO)
  6
ByLayer
 62
  256
370
   -1
100
AcDbMText
 10
200.1227905152118
 20
17.3419853094901
 30
0
 40
2.5
 41
3.333333333333333
 71
    5
 72
    5
  1
2:1
  7
note text (iso)
210
0
220
0
230
1
 50
0
 73
    1
 44
1
  0
CIRCLE
  5
FA
100
AcDbEntity
  8
Hidden (ISO)
  6
ByLayer
 62
  256
370
   -1
100
AcDbCircle
 10
5.005520028251084
 20
18.73555711788538
 40
3.35
  0
CIRCLE
  5
FB
100
AcDbEntity
  8
Hidden (ISO)
  6
ByLayer
 62
  256
370
   -1
100
AcDbCircle
 10
64.50552002825108
 20
18.73555711788538
 40
3.35
  0
LINE
  5
FC
100
AcDbEntity
  8
Hidden (ISO)
  6
ByLayer
 62
  256
370
   -1
100
AcDbLine
 10
66.50552002825108
 20
37.68555711788537
 11
4.005520028251077
 21
37.68555711788537
  0
ARC
  5
FD
100
AcDbEntity
  8
Hidden (ISO)
  6
ByLayer
 62
  256
370
   -1
100
AcDbCircle
 10
66.50552002825108
 20
33.98555711788538
 40
3.700000000000001
100
AcDbArc
 50
0
 51
90
  0
LINE
  5
FE
100
AcDbEntity
  8
Hidden (ISO)
  6
ByLayer
 62
  256
370
   -1
100
AcDbLine
 10
70.2055200282511
 20
3.985557117885364
 11
70.2055200282511
 21
33.98555711788538
  0
ARC
  5
FF
100
AcDbEntity
  8
Hidden (ISO)
  6
ByLayer
 62
  256
370
   -1
100
AcDbCircle
 10
66.50552002825108
 20
3.985557117885364
 40
3.700000000000003
100
AcDbArc
 50
270
 51
0
  0
LINE
  5
100
100
AcDbEntity
  8
Hidden (ISO)
  6
ByLayer
 62
  256
370
   -1
100
AcDbLine
 10
4.005520028251098
 20
0.2855571178853609
 11
66.50552002825108
 21
0.2855571178853609
  0
ARC
  5
101
100
AcDbEntity
  8
Hidden (ISO)
  6
ByLayer
 62
  256
370
   -1
100
AcDbCircle
 10
4.005520028251098
 20
3.985557117885364
 40
3.7
100
AcDbArc
 50
180
 51
270
  0
LINE
  5
102
100
AcDbEntity
  8
Hidden (ISO)
  6
ByLayer
 62
  256
370
   -1
100
AcDbLine
 10
0.3055200282510881
 20
33.98555711788535
 11
0.3055200282510881
 21
3.985557117885357
  0
ARC
  5
103
100
AcDbEntity
  8
Hidden (ISO)
  6
ByLayer
 62
  256
370
   -1
100
AcDbCircle
 10
4.005520028251091
 20
33.98555711788535
 40
3.700000000000001
100
AcDbArc
 50
90
 51
180
  0
CIRCLE
  5
104
100
AcDbEntity
  8
Visible (ISO)
  6
ByLayer
 62
  256
370
   -1
100
AcDbCircle
 10
5.005520028251084
 20
18.73555711788538
 40
1.65
  0
CIRCLE
  5
105
100
AcDbEntity
  8
Visible (ISO)
  6
ByLayer
 62
  256
370
   -1
100
AcDbCircle
 10
64.50552002825108
 20
18.73555711788538
 40
1.65
  0
ARC
  5
106
100
AcDbEntity
  8
Visible (ISO)
  6
ByLayer
 62
  256
370
   -1
100
AcDbCircle
 10
66.50552002825108
 20
3.985557117885364
 40
4.000000000000004
100
AcDbArc
 50
270
 51
0
  0
LINE
  5
107
100
AcDbEntity
  8
Visible (ISO)
  6
ByLayer
 62
  256
370
   -1
100
AcDbLine
 10
70.50552002825108
 20
33.98555711788538
 11
70.50552002825111
 21
3.985557117885357
  0
ARC
  5
108
100
AcDbEntity
  8
Visible (ISO)
  6
ByLayer
 62
  256
370
   -1
100
AcDbCircle
 10
66.50552002825108
 20
33.98555711788535
 40
4.000000000000004
100
AcDbArc
 50
0
 51
90
  0
LINE
  5
109
100
AcDbEntity
  8
Visible (ISO)
  6
ByLayer
 62
  256
370
   -1
100
AcDbLine
 10
4.005520028251077
 20
37.98555711788536
 11
66.50552002825108
 21
37.98555711788538
  0
ARC
  5
10A
100
AcDbEntity
  8
Visible (ISO)
  6
ByLayer
 62
  256
370
   -1
100
AcDbCircle
 10
4.005520028251098
 20
3.985557117885364
 40
4.000000000000002
100
AcDbArc
 50
180
 51
270
  0
LINE
  5
10B
100
AcDbEntity
  8
Visible (ISO)
  6
ByLayer
 62
  256
370
   -1
100
AcDbLine
 10
66.50552002825108
 20
-0.01444288211463629
 11
4.005520028251098
 21
-0.01444288211463629
  0
ARC
  5
10C
100
AcDbEntity
  8
Visible (ISO)
  6
ByLayer
 62
  256
370
   -1
100
AcDbCircle
 10
4.005520028251091
 20
33.98555711788535
 40
4.000000000000002
100
AcDbArc
 50
90
 51
180
  0
LINE
  5
10D
100
AcDbEntity
  8
Visible (ISO)
  6
ByLayer
 62
  256
370
   -1
100
AcDbLine
 10
0.005520028251090991
 20
3.985557117885357
 11
0.005520028251083886
 21
33.98555711788535
  0
LINE
  5
10E
100
AcDbEntity
  8
Visible (ISO)
  6
ByLayer
 62
  256
370
   -1
100
AcDbLine
 10
9.005520028251077
 20
36.48555711788535
 11
9.005520028251091
 21
1.485557117885378
  0
ARC
  5
10F
100
AcDbEntity
  8
Visible (ISO)
  6
ByLayer
 62
  256
370
   -1
100
AcDbCircle
 10
4.005520028251091
 20
33.98555711788535
 40
2.499999999999993
100
AcDbArc
 50
90.0000000013339
 51
180
  0
LINE
  5
110
100
AcDbEntity
  8
Visible (ISO)
  6
ByLayer
 62
  256
370
   -1
100
AcDbLine
 10
1.505520028251098
 20
3.985557117827156
 11
1.505520028251091
 21
33.98555711782717
  0
ARC
  5
111
100
AcDbEntity
  8
Visible (ISO)
  6
ByLayer
 62
  256
370
   -1
100
AcDbCircle
 10
4.005520028251098
 20
3.985557117885364
 40
2.499999999999992
100
AcDbArc
 50
180
 51
269.9999999986659
  0
ARC
  5
112
100
AcDbEntity
  8
Visible (ISO)
  6
ByLayer
 62
  256
370
   -1
100
AcDbCircle
 10
66.50552002825108
 20
3.985557117885357
 40
2.499999999999982
100
AcDbArc
 50
269.9999999986655
 51
0
  0
LINE
  5
113
100
AcDbEntity
  8
Visible (ISO)
  6
ByLayer
 62
  256
370
   -1
100
AcDbLine
 10
69.00552002825108
 20
33.98555711782717
 11
69.00552002825108
 21
3.985557117827156
  0
ARC
  5
114
100
AcDbEntity
  8
Visible (ISO)
  6
ByLayer
 62
  256
370
   -1
100
AcDbCircle
 10
66.50552002825108
 20
33.98555711788539
 40
2.499999999999978
100
AcDbArc
 50
0
 51
90.00000000133413
  0
ARC
  5
115
100
AcDbEntity
  8
Visible (ISO)
  6
ByLayer
 62
  256
370
   -1
100
AcDbCircle
 10
66.00552002825108
 20
35.48555711788538
 40
0.9999999999999964
100
AcDbArc
 50
0
 51
90
  0
LINE
  5
116
100
AcDbEntity
  8
Visible (ISO)
  6
ByLayer
 62
  256
370
   -1
100
AcDbLine
 10
67.00552002825106
 20
24.98555711788538
 11
67.00552002825108
 21
35.48555711788538
  0
ARC
  5
117
100
AcDbEntity
  8
Visible (ISO)
  6
ByLayer
 62
  256
370
   -1
100
AcDbCircle
 10
66.00552002825108
 20
24.98555711788538
 40
1.000000000000001
100
AcDbArc
 50
270
 51
0
  0
LINE
  5
118
100
AcDbEntity
  8
Visible (ISO)
  6
ByLayer
 62
  256
370
   -1
100
AcDbLine
 10
60.00552002825112
 20
23.98555711788538
 11
66.00552002825108
 21
23.98555711788538
  0
LINE
  5
119
100
AcDbEntity
  8
Visible (ISO)
  6
ByLayer
 62
  256
370
   -1
100
AcDbLine
 10
60.00552002825112
 20
1.485557117885378
 11
60.00552002825112
 21
23.98555711788538
  0
LINE
  5
11A
100
AcDbEntity
  8
Visible (ISO)
  6
ByLayer
 62
  256
370
   -1
100
AcDbLine
 10
4.005520028192883
 20
36.48555711788535
 11
66.50552002819288
 21
36.48555711788535
  0
LINE
  5
11B
100
AcDbEntity
  8
Visible (ISO)
  6
ByLayer
 62
  256
370
   -1
100
AcDbLine
 10
66.50552002819288
 20
1.485557117885378
 11
4.005520028192883
 21
1.485557117885378
  0
LINE
  5
11C
100
AcDbEntity
  8
Hidden (ISO)
  6
ByLayer
 62
  256
370
   -1
100
AcDbLine
 10
6.655520028265762
 20
75.06363179588256
 11
3.355520028265758
 21
75.06363179588256
  0
LINE
  5
11D
100
AcDbEntity
  8
Hidden (ISO)
  6
ByLayer
 62
  256
370
   -1
100
AcDbLine
 10
66.15552002826576
 20
75.06363179588256
 11
62.85552002826575
 21
75.06363179588256
  0
LINE
  5
11E
100
AcDbEntity
  8
Hidden (ISO)
  6
ByLayer
 62
  256
370
   -1
100
AcDbLine
 10
6.655520028265762
 20
75.06363179588256
 11
8.355520028265751
 21
73.36363179588255
  0
LINE
  5
11F
100
AcDbEntity
  8
Hidden (ISO)
  6
ByLayer
 62
  256
370
   -1
100
AcDbLine
 10
3.355520028265758
 20
75.06363179588256
 11
1.655520028265762
 21
73.36363179588255
  0
LINE
  5
120
100
AcDbEntity
  8
Hidden (ISO)
  6
ByLayer
 62
  256
370
   -1
100
AcDbLine
 10
66.15552002826576
 20
75.06363179588256
 11
67.85552002826574
 21
73.36363179588255
  0
LINE
  5
121
100
AcDbEntity
  8
Hidden (ISO)
  6
ByLayer
 62
  256
370
   -1
100
AcDbLine
 10
62.85552002826575
 20
75.06363179588256
 11
61.15552002826576
 21
73.36363179588255
  0
LINE
  5
122
100
AcDbEntity
  8
Visible (ISO)
  6
ByLayer
 62
  256
370
   -1
100
AcDbLine
 10
70.20552002826577
 20
73.36363179587819
 11
66.50552002826578
 21
73.36363179587708
  0
LINE
  5
123
100
AcDbEntity
  8
Visible (ISO)
  6
ByLayer
 62
  256
370
   -1
100
AcDbLine
 10
4.005520028265771
 20
73.36363179587708
 11
66.50552002826578
 21
73.36363179587708
  0
LINE
  5
124
100
AcDbEntity
  8
Visible (ISO)
  6
ByLayer
 62
  256
370
   -1
100
AcDbLine
 10
4.005520028265771
 20
73.36363179587708
 11
0.305520028265768
 21
73.36363179587819
  0
LINE
  5
125
100
AcDbEntity
  8
Visible (ISO)
  6
ByLayer
 62
  256
370
   -1
100
AcDbLine
 10
0.3055200282657609
 20
73.36363179587819
 11
0.005520028265770804
 21
73.66363179587819
  0
LINE
  5
126
100
AcDbEntity
  8
Visible (ISO)
  6
ByLayer
 62
  256
370
   -1
100
AcDbLine
 10
0.005520028265770804
 20
73.66363179587819
 11
4.005520028265771
 21
73.663631795877
  0
LINE
  5
127
100
AcDbEntity
  8
Visible (ISO)
  6
ByLayer
 62
  256
370
   -1
100
AcDbLine
 10
66.50552002826578
 20
73.663631795877
 11
4.005520028265771
 21
73.663631795877
  0
LINE
  5
128
100
AcDbEntity
  8
Visible (ISO)
  6
ByLayer
 62
  256
370
   -1
100
AcDbLine
 10
70.20552002826577
 20
73.36363179587819
 11
70.50552002826578
 21
73.66363179587819
  0
LINE
  5
129
100
AcDbEntity
  8
Visible (ISO)
  6
ByLayer
 62
  256
370
   -1
100
AcDbLine
 10
66.50552002826578
 20
73.663631795877
 11
70.50552002826578
 21
73.66363179587819
  0
LINE
  5
12A
100
AcDbEntity
  8
Visible (ISO)
  6
ByLayer
 62
  256
370
   -1
100
AcDbLine
 10
70.50552002826578
 20
73.66363179587819
 11
70.50552002826578
 21
76.06363179587818
  0
LINE
  5
12B
100
AcDbEntity
  8
Visible (ISO)
  6
ByLayer
 62
  256
370
   -1
100
AcDbLine
 10
66.50552002826578
 20
76.063631795877
 11
70.50552002826578
 21
76.06363179587818
  0
LINE
  5
12C
100
AcDbEntity
  8
Visible (ISO)
  6
ByLayer
 62
  256
370
   -1
100
AcDbLine
 10
0.005520028265770804
 20
76.06363179587818
 11
4.005520028265771
 21
76.063631795877
  0
LINE
  5
12D
100
AcDbEntity
  8
Visible (ISO)
  6
ByLayer
 62
  256
370
   -1
100
AcDbLine
 10
66.50552002826578
 20
76.063631795877
 11
4.005520028265771
 21
76.063631795877
  0
LINE
  5
12E
100
AcDbEntity
  8
Visible (ISO)
  6
ByLayer
 62
  256
370
   -1
100
AcDbLine
 10
0.005520028265770804
 20
73.66363179587819
 11
0.005520028265770804
 21
76.06363179587818
  0
LINE
  5
12F
100
AcDbEntity
  8
Hidden (ISO)
  6
ByLayer
 62
  256
370
   -1
100
AcDbLine
 10
4.00552002820757
 20
75.66363179587745
 11
1.505520028265778
 21
75.66363179587819
  0
LINE
  5
130
100
AcDbEntity
  8
Hidden (ISO)
  6
ByLayer
 62
  256
370
   -1
100
AcDbLine
 10
4.005520028207563
 20
75.66363179587745
 11
9.005520028265771
 21
75.66363179587745
  0
LINE
  5
131
100
AcDbEntity
  8
Hidden (ISO)
  6
ByLayer
 62
  256
370
   -1
100
AcDbLine
 10
1.505520028265771
 20
76.06363179587818
 11
1.505520028265771
 21
75.66363179587819
  0
LINE
  5
132
100
AcDbEntity
  8
Hidden (ISO)
  6
ByLayer
 62
  256
370
   -1
100
AcDbLine
 10
69.00552002826575
 20
75.66363179587819
 11
66.50552002820754
 21
75.66363179587745
  0
LINE
  5
133
100
AcDbEntity
  8
Hidden (ISO)
  6
ByLayer
 62
  256
370
   -1
100
AcDbLine
 10
69.00552002826578
 20
76.06363179587818
 11
69.00552002826578
 21
75.66363179587819
  0
LINE
  5
134
100
AcDbEntity
  8
Hidden (ISO)
  6
ByLayer
 62
  256
370
   -1
100
AcDbLine
 10
60.00552002826579
 20
75.66363179587745
 11
66.50552002820757
 21
75.66363179587745
  0
LINE
  5
135
100
AcDbEntity
  8
Hidden (ISO)
  6
ByLayer
 62
  256
370
   -1
100
AcDbLine
 10
67.00552002826575
 20
75.66363179588441
 11
67.00552002826575
 21
74.56363179588442
  0
LINE
  5
136
100
AcDbEntity
  8
Hidden (ISO)
  6
ByLayer
 62
  256
370
   -1
100
AcDbLine
 10
9.005520028265771
 20
75.66363179587745
 11
9.005520028265771
 21
74.56363179587743
  0
LINE
  5
137
100
AcDbEntity
  8
Hidden (ISO)
  6
ByLayer
 62
  256
370
   -1
100
AcDbLine
 10
60.00552002826579
 20
75.66363179587745
 11
60.00552002826579
 21
74.56363179587743
  0
LINE
  5
138
100
AcDbEntity
  8
Hidden (ISO)
  6
ByLayer
 62
  256
370
   -1
100
AcDbLine
 10
60.00552002826579
 20
74.56363179588411
 11
66.00552002826575
 21
74.56363179588411
  0
LINE
  5
139
100
AcDbEntity
  8
Hidden (ISO)
  6
ByLayer
 62
  256
370
   -1
100
AcDbLine
 10
67.00552002826575
 20
74.56363179588442
 11
66.00552002826575
 21
74.56363179588411
  0
LINE
  5
13A
100
AcDbEntity
  8
Hidden (ISO)
  6
ByLayer
 62
  256
370
   -1
100
AcDbLine
 10
9.005520028265771
 20
74.56363179587743
 11
60.00552002826579
 21
74.56363179587743
  0
LINE
  5
13B
100
AcDbEntity
  8
Hidden (ISO)
  6
ByLayer
 62
  256
370
   -1
100
AcDbLine
 10
6.655520028265762
 20
75.66363179588257
 11
6.655520028265762
 21
75.06363179588256
  0
LINE
  5
13C
100
AcDbEntity
  8
Hidden (ISO)
  6
ByLayer
 62
  256
370
   -1
100
AcDbLine
 10
3.355520028265758
 20
75.66363179588257
 11
3.355520028265758
 21
75.06363179588256
  0
LINE
  5
13D
100
AcDbEntity
  8
Hidden (ISO)
  6
ByLayer
 62
  256
370
   -1
100
AcDbLine
 10
66.15552002826576
 20
75.66363179588257
 11
66.15552002826576
 21
75.06363179588256
  0
LINE
  5
13E
100
AcDbEntity
  8
Hidden (ISO)
  6
ByLayer
 62
  256
370
   -1
100
AcDbLine
 10
62.85552002826575
 20
75.66363179588257
 11
62.85552002826575
 21
75.06363179588256
  0
LINE
  5
13F
100
AcDbEntity
  8
Visible (ISO)
  6
ByLayer
 62
  256
370
   -1
100
AcDbLine
 10
-30.19538388251955
 20
37.68555711788537
 11
-30.19538388251846
 21
33.98555711788538
  0
LINE
  5
140
100
AcDbEntity
  8
Visible (ISO)
  6
ByLayer
 62
  256
370
   -1
100
AcDbLine
 10
-30.19538388251846
 20
3.985557117885364
 11
-30.19538388251846
 21
33.98555711788538
  0
LINE
  5
141
100
AcDbEntity
  8
Visible (ISO)
  6
ByLayer
 62
  256
370
   -1
100
AcDbLine
 10
-30.19538388251846
 20
3.985557117885357
 11
-30.19538388251955
 21
0.2855571178853609
  0
LINE
  5
142
100
AcDbEntity
  8
Visible (ISO)
  6
ByLayer
 62
  256
370
   -1
100
AcDbLine
 10
-30.49538388251955
 20
37.98555711788538
 11
-30.19538388251955
 21
37.68555711788537
  0
LINE
  5
143
100
AcDbEntity
  8
Visible (ISO)
  6
ByLayer
 62
  256
370
   -1
100
AcDbLine
 10
-30.19538388251955
 20
0.2855571178853609
 11
-30.49538388251955
 21
-0.01444288211463629
  0
LINE
  5
144
100
AcDbEntity
  8
Visible (ISO)
  6
ByLayer
 62
  256
370
   -1
100
AcDbLine
 10
-30.49538388251955
 20
-0.01444288211463629
 11
-30.49538388251836
 21
3.985557117885357
  0
LINE
  5
145
100
AcDbEntity
  8
Visible (ISO)
  6
ByLayer
 62
  256
370
   -1
100
AcDbLine
 10
-30.49538388251836
 20
33.98555711788538
 11
-30.49538388251836
 21
3.985557117885357
  0
LINE
  5
146
100
AcDbEntity
  8
Visible (ISO)
  6
ByLayer
 62
  256
370
   -1
100
AcDbLine
 10
-30.49538388251836
 20
33.98555711788535
 11
-30.49538388251955
 21
37.98555711788536
  0
LINE
  5
147
100
AcDbEntity
  8
Hidden (ISO)
  6
ByLayer
 62
  256
370
   -1
100
AcDbLine
 10
-31.89538388252015
 20
20.38555711788537
 11
-31.89538388252015
 21
17.08555711788537
  0
LINE
  5
148
100
AcDbEntity
  8
Hidden (ISO)
  6
ByLayer
 62
  256
370
   -1
100
AcDbLine
 10
-31.89538388252015
 20
20.38555711788536
 11
-30.19538388252014
 21
22.08555711788536
  0
LINE
  5
149
100
AcDbEntity
  8
Hidden (ISO)
  6
ByLayer
 62
  256
370
   -1
100
AcDbLine
 10
-31.89538388252015
 20
17.08555711788536
 11
-30.19538388252014
 21
15.38555711788536
  0
LINE
  5
14A
100
AcDbEntity
  8
Visible (ISO)
  6
ByLayer
 62
  256
370
   -1
100
AcDbLine
 10
-32.89538388251955
 20
-0.01444288211463629
 11
-32.89538388251837
 21
3.985557117885357
  0
LINE
  5
14B
100
AcDbEntity
  8
Visible (ISO)
  6
ByLayer
 62
  256
370
   -1
100
AcDbLine
 10
-30.49538388251955
 20
-0.01444288211463629
 11
-32.89538388251955
 21
-0.01444288211463629
  0
LINE
  5
14C
100
AcDbEntity
  8
Visible (ISO)
  6
ByLayer
 62
  256
370
   -1
100
AcDbLine
 10
-32.89538388251837
 20
33.98555711788538
 11
-32.89538388251837
 21
3.985557117885357
  0
LINE
  5
14D
100
AcDbEntity
  8
Visible (ISO)
  6
ByLayer
 62
  256
370
   -1
100
AcDbLine
 10
-30.49538388251955
 20
37.98555711788538
 11
-32.89538388251955
 21
37.98555711788538
  0
LINE
  5
14E
100
AcDbEntity
  8
Visible (ISO)
  6
ByLayer
 62
  256
370
   -1
100
AcDbLine
 10
-32.89538388251837
 20
33.98555711788535
 11
-32.89538388251955
 21
37.98555711788536
  0
LINE
  5
14F
100
AcDbEntity
  8
Hidden (ISO)
  6
ByLayer
 62
  256
370
   -1
100
AcDbLine
 10
-32.49538388251881
 20
3.985557117827156
 11
-32.49538388251955
 21
1.485557117885378
  0
LINE
  5
150
100
AcDbEntity
  8
Hidden (ISO)
  6
ByLayer
 62
  256
370
   -1
100
AcDbLine
 10
-32.89538388251955
 20
1.485557117885378
 11
-32.49538388251955
 21
1.485557117885378
  0
LINE
  5
151
100
AcDbEntity
  8
Hidden (ISO)
  6
ByLayer
 62
  256
370
   -1
100
AcDbLine
 10
-32.49538388251881
 20
3.985557117827156
 11
-32.49538388251881
 21
33.98555711782717
  0
LINE
  5
152
100
AcDbEntity
  8
Hidden (ISO)
  6
ByLayer
 62
  256
370
   -1
100
AcDbLine
 10
-32.49538388251955
 20
36.48555711788538
 11
-32.49538388251881
 21
33.98555711782717
  0
LINE
  5
153
100
AcDbEntity
  8
Hidden (ISO)
  6
ByLayer
 62
  256
370
   -1
100
AcDbLine
 10
-32.89538388251955
 20
36.48555711788535
 11
-32.49538388251955
 21
36.48555711788535
  0
LINE
  5
154
100
AcDbEntity
  8
Hidden (ISO)
  6
ByLayer
 62
  256
370
   -1
100
AcDbLine
 10
-31.3953838825194
 20
24.98555711788538
 11
-31.3953838825194
 21
35.48555711788538
  0
LINE
  5
155
100
AcDbEntity
  8
Hidden (ISO)
  6
ByLayer
 62
  256
370
   -1
100
AcDbLine
 10
-32.4953838825197
 20
36.48555711788535
 11
-31.3953838825197
 21
36.48555711788539
  0
LINE
  5
156
100
AcDbEntity
  8
Hidden (ISO)
  6
ByLayer
 62
  256
370
   -1
100
AcDbLine
 10
-31.3953838825197
 20
36.48555711788538
 11
-31.3953838825194
 21
35.48555711788538
  0
LINE
  5
157
100
AcDbEntity
  8
Hidden (ISO)
  6
ByLayer
 62
  256
370
   -1
100
AcDbLine
 10
-31.39538388252148
 20
1.485557117885378
 11
-31.39538388252148
 21
23.98555711788538
  0
LINE
  5
158
100
AcDbEntity
  8
Hidden (ISO)
  6
ByLayer
 62
  256
370
   -1
100
AcDbLine
 10
-32.49538388252148
 20
1.485557117885378
 11
-31.39538388252148
 21
1.485557117885378
  0
LINE
  5
159
100
AcDbEntity
  8
Hidden (ISO)
  6
ByLayer
 62
  256
370
   -1
100
AcDbLine
 10
-32.4953838825197
 20
23.98555711788538
 11
-31.3953838825197
 21
23.98555711788538
  0
LINE
  5
15A
100
AcDbEntity
  8
Hidden (ISO)
  6
ByLayer
 62
  256
370
   -1
100
AcDbLine
 10
-31.3953838825194
 20
24.98555711788538
 11
-31.3953838825197
 21
23.98555711788538
  0
LINE
  5
15B
100
AcDbEntity
  8
Hidden (ISO)
  6
ByLayer
 62
  256
370
   -1
100
AcDbLine
 10
-32.49538388252014
 20
20.38555711788536
 11
-31.89538388252015
 21
20.38555711788536
  0
LINE
  5
15C
100
AcDbEntity
  8
Hidden (ISO)
  6
ByLayer
 62
  256
370
   -1
100
AcDbLine
 10
-32.49538388252014
 20
17.08555711788536
 11
-31.89538388252015
 21
17.08555711788536
  0
ELLIPSE
  5
15D
100
AcDbEntity
  8
Visible (ISO)
  6
ByLayer
 62
  256
370
   -1
100
AcDbEllipse
 10
103.124927442054
 20
68.78555315785788
 30
0
 11
0.4117015745571337
 21
-0.7149313348197691
 31
0
 40
0.5780931159158106
 41
0.2595379080919349
 42
2.882054745497841
  0
ELLIPSE
  5
15E
100
AcDbEntity
  8
Visible (ISO)
  6
ByLayer
 62
  256
370
   -1
100
AcDbEllipse
 10
102.5238866780456
 20
68.43943680113433
 30
0
 11
0.8358789544037895
 21
-1.451527255543214
 31
0
 40
0.5780931159158106
 41
1.090481468568441
 42
2.05111118502152
  0
ELLIPSE
  5
15F
100
AcDbEntity
  8
Visible (ISO)
  6
ByLayer
 62
  256
370
   -1
100
AcDbEllipse
 10
123.5603134183485
 20
56.3253643158142
 30
0
 11
0.8358789544037942
 21
-1.451527255543223
 31
0
 40
0.5780931159158105
 41
1.090481468568456
 42
2.051111185021513
  0
ELLIPSE
  5
160
100
AcDbEntity
  8
Visible (ISO)
  6
ByLayer
 62
  256
370
   -1
100
AcDbEllipse
 10
124.1613541823569
 20
56.67148067253774
 30
0
 11
0.4117015745571334
 21
-0.7149313348197687
 31
0
 40
0.5780931159158107
 41
0.2595379080919633
 42
2.882054745497888
  0
ELLIPSE
  5
161
100
AcDbEntity
  8
Visible (ISO)
  6
ByLayer
 62
  256
370
   -1
100
AcDbEllipse
 10
102.1703332874522
 20
62.61362461231673
 30
0
 11
0.9232095914312448
 21
-1.603179356868519
 31
0
 40
0.5780931159158105
 41
3.928924525409888
 42
5.495853435358722
  0
ELLIPSE
  5
162
100
AcDbEntity
  8
Visible (ISO)
  6
ByLayer
 62
  256
370
   -1
100
AcDbEllipse
 10
102.2763993046302
 20
74.9379108420237
 30
0
 11
-0.9980644231688129
 21
1.733166872290356
 31
0
 40
0.5780931159158107
 41
0
 42
0.7873318718203297
  0
LINE
  5
163
100
AcDbEntity
  8
Visible (ISO)
  6
ByLayer
 62
  256
370
   -1
100
AcDbLine
 10
100.8621857422569
 20
63.36693668283245
 11
100.8621857422569
 21
63.48909539697016
  0
LINE
  5
164
100
AcDbEntity
  8
Visible (ISO)
  6
ByLayer
 62
  256
370
   -1
100
AcDbLine
 10
100.8621857422569
 20
63.48909539697016
 11
100.8621857422569
 21
75.75230226960825
  0
ELLIPSE
  5
165
100
AcDbEntity
  8
Visible (ISO)
  6
ByLayer
 62
  256
370
   -1
100
AcDbEllipse
 10
102.2763993046302
 20
62.6747039693856
 30
0
 11
-0.9980644231687066
 21
1.73316687229041
 31
0
 40
0.5780931159158105
 41
0.7873318718205775
 42
2.358128198615464
  0
LINE
  5
166
100
AcDbEntity
  8
Visible (ISO)
  6
ByLayer
 62
  256
370
   -1
100
AcDbLine
 10
124.3734862167131
 20
48.31474366369196
 11
102.2763993046302
 21
61.03960971970052
  0
ELLIPSE
  5
167
100
AcDbEntity
  8
Visible (ISO)
  6
ByLayer
 62
  256
370
   -1
100
AcDbEllipse
 10
124.3734862167131
 20
49.94983791337705
 30
0
 11
0.9980644231688139
 21
-1.733166872290358
 31
0
 40
0.5780931159158108
 41
5.499720852205023
 42
6.283185307179595
  0
LINE
  5
168
100
AcDbEntity
  8
Visible (ISO)
  6
ByLayer
 62
  256
370
   -1
100
AcDbLine
 10
102.1652741482103
 20
61.10408710675598
 11
102.2709299649092
 21
61.04277153094152
  0
ELLIPSE
  5
169
100
AcDbEntity
  8
Visible (ISO)
  6
ByLayer
 62
  256
370
   -1
100
AcDbEllipse
 10
103.33705947641
 20
68.9077118719956
 30
0
 11
-0.4117015745571339
 21
0.7149313348197693
 31
0
 40
0.5780931159158105
 41
0
 42
6.283185307179586
  0
ELLIPSE
  5
16A
100
AcDbEntity
  8
Visible (ISO)
  6
ByLayer
 62
  256
370
   -1
100
AcDbEllipse
 10
124.3734862167129
 20
56.79363938667547
 30
0
 11
-0.411701574557134
 21
0.7149313348197693
 31
0
 40
0.5780931159158106
 41
0
 42
6.283185307179586
  0
ELLIPSE
  5
16B
100
AcDbEntity
  8
Visible (ISO)
  6
ByLayer
 62
  256
370
   -1
100
AcDbEllipse
 10
125.2220143541368
 20
50.43847276992793
 30
0
 11
0.9980644231688105
 21
-1.733166872290351
 31
0
 40
0.5780931159158106
 41
5.499720852205023
 42
7.070517178999916
  0
LINE
  5
16C
100
AcDbEntity
  8
Visible Narrow (ISO)
  6
ByLayer
 62
  256
370
   -1
100
AcDbLine
 10
124.3734862167131
 20
48.31474366369196
 11
125.2220143541368
 21
48.80337852024284
  0
LINE
  5
16D
100
AcDbEntity
  8
Visible (ISO)
  6
ByLayer
 62
  256
370
   -1
100
AcDbLine
 10
126.6362279165101
 20
61.88728821498148
 11
126.6362279165101
 21
49.62408134234337
  0
ELLIPSE
  5
16E
100
AcDbEntity
  8
Visible (ISO)
  6
ByLayer
 62
  256
370
   -1
100
AcDbEllipse
 10
125.2220143541368
 20
62.70167964256602
 30
0
 11
0.9980644231687068
 21
-1.733166872290411
 31
0
 40
0.5780931159158106
 41
0.7873318718205775
 42
2.358128198615479
  0
LINE
  5
16F
100
AcDbEntity
  8
Visible (ISO)
  6
ByLayer
 62
  256
370
   -1
100
AcDbLine
 10
103.1249274420539
 20
77.06163994825965
 11
125.2220143541368
 21
64.3367738922511
  0
ELLIPSE
  5
170
100
AcDbEntity
  8
Visible (ISO)
  6
ByLayer
 62
  256
370
   -1
100
AcDbEllipse
 10
103.1249274420539
 20
63.16333882593648
 30
0
 11
-0.9980644231687066
 21
1.73316687229041
 31
0
 40
0.5780931159158105
 41
0.7873318718205775
 42
2.358128198615464
  0
LINE
  5
171
100
AcDbEntity
  8
Visible (ISO)
  6
ByLayer
 62
  256
370
   -1
100
AcDbLine
 10
125.2220143541368
 20
48.80337852024284
 11
103.1249274420539
 21
61.52824457625138
  0
ELLIPSE
  5
172
100
AcDbEntity
  8
Visible (ISO)
  6
ByLayer
 62
  256
370
   -1
100
AcDbEllipse
 10
103.1249274420539
 20
75.42654569857459
 30
0
 11
-0.9980644231688097
 21
1.733166872290351
 31
0
 40
0.5780931159158106
 41
5.499720852205023
 42
7.070517178999916
  0
LINE
  5
173
100
AcDbEntity
  8
Visible (ISO)
  6
ByLayer
 62
  256
370
   -1
100
AcDbLine
 10
101.7107138796806
 20
63.97773025352102
 11
101.7107138796806
 21
76.24093712615914
  0
LINE
  5
174
100
AcDbEntity
  8
Visible Narrow (ISO)
  6
ByLayer
 62
  256
370
   -1
100
AcDbLine
 10
102.2763993046302
 20
61.03960971970052
 11
103.1249274420539
 21
61.52824457625141
  0
LINE
  5
175
100
AcDbEntity
  8
Visible Narrow (ISO)
  6
ByLayer
 62
  256
370
   -1
100
AcDbLine
 10
100.8621857422569
 20
63.48909539697016
 11
101.7107138796806
 21
63.97773025352102
  0
LINE
  5
176
100
AcDbEntity
  8
Visible Narrow (ISO)
  6
ByLayer
 62
  256
370
   -1
100
AcDbLine
 10
100.8621857422569
 20
75.75230226960825
 11
101.7107138796806
 21
76.24093712615914
  0
LINE
  5
177
100
AcDbEntity
  8
Visible (ISO)
  6
ByLayer
 62
  256
370
   -1
100
AcDbLine
 10
125.3715506398819
 20
48.2166710410867
 11
126.2200787773056
 21
48.70530589763757
  0
LINE
  5
178
100
AcDbEntity
  8
Visible (ISO)
  6
ByLayer
 62
  256
370
   -1
100
AcDbLine
 10
101.2783348814614
 20
76.67107771431405
 11
102.1268630188851
 21
77.15971257086493
  0
LINE
  5
179
100
AcDbEntity
  8
Visible (ISO)
  6
ByLayer
 62
  256
370
   -1
100
AcDbLine
 10
104.7512730387832
 20
75.34905117738859
 11
104.7512730387833
 21
61.20485477816105
  0
LINE
  5
17A
100
AcDbEntity
  8
Visible (ISO)
  6
ByLayer
 62
  256
370
   -1
100
AcDbLine
 10
104.7512730387832
 20
75.34905117738859
 11
102.9835060857961
 21
76.36704046188112
  0
ELLIPSE
  5
17B
100
AcDbEntity
  8
Visible (ISO)
  6
ByLayer
 62
  256
370
   -1
100
AcDbEllipse
 10
102.9835060858166
 20
75.3451065558161
 30
0
 11
-0.6237902644805003
 21
1.083229295181459
 31
0
 40
0.5780931159158105
 41
5.499720852228296
 42
6.170025010130801
  0
LINE
  5
17C
100
AcDbEntity
  8
Visible Narrow (ISO)
  6
ByLayer
 62
  256
370
   -1
100
AcDbLine
 10
103.1249274420333
 20
76.4484796046396
 11
102.9835060857961
 21
76.36704046188112
  0
ELLIPSE
  5
17D
100
AcDbEntity
  8
Visible (ISO)
  6
ByLayer
 62
  256
370
   -1
100
AcDbEllipse
 10
103.1249274420539
 20
75.42654569857459
 30
0
 11
-0.6237902644805041
 21
1.083229295181465
 31
0
 40
0.5780931159158106
 41
5.499720852228315
 42
7.070517179023225
  0
LINE
  5
17E
100
AcDbEntity
  8
Visible (ISO)
  6
ByLayer
 62
  256
370
   -1
100
AcDbLine
 10
102.2410439655706
 20
63.67233346815303
 11
102.2410439655706
 21
75.93554034079112
  0
ELLIPSE
  5
17F
100
AcDbEntity
  8
Visible (ISO)
  6
ByLayer
 62
  256
370
   -1
100
AcDbEllipse
 10
103.1249274420539
 20
63.16333882593648
 30
0
 11
-0.6237902644804392
 21
1.083229295181502
 31
0
 40
0.5780931159158108
 41
0.7873318718438451
 42
2.358128198592169
  0
ELLIPSE
  5
180
100
AcDbEntity
  8
Visible (ISO)
  6
ByLayer
 62
  256
370
   -1
100
AcDbEllipse
 10
125.0805929978995
 20
50.35703362716944
 30
0
 11
0.6237902644805058
 21
-1.083229295181468
 31
0
 40
0.5780931159158107
 41
0.1131602970487717
 42
0.7873318717970472
  0
ELLIPSE
  5
181
100
AcDbEntity
  8
Visible (ISO)
  6
ByLayer
 62
  256
370
   -1
100
AcDbEllipse
 10
125.2220143541368
 20
50.43847276992793
 30
0
 11
0.6237902644805015
 21
-1.083229295181461
 31
0
 40
0.5780931159158106
 41
5.49972085218175
 42
7.070517178976614
  0
LINE
  5
182
100
AcDbEntity
  8
Visible Narrow (ISO)
  6
ByLayer
 62
  256
370
   -1
100
AcDbLine
 10
126.1058978306201
 20
49.9294781276638
 11
125.9644764743828
 21
49.84803898490532
  0
LINE
  5
183
100
AcDbEntity
  8
Visible (ISO)
  6
ByLayer
 62
  256
370
   -1
100
AcDbLine
 10
125.9644764743828
 20
49.84803898490532
 11
125.9644764743828
 21
62.11124585754341
  0
LINE
  5
184
100
AcDbEntity
  8
Visible (ISO)
  6
ByLayer
 62
  256
370
   -1
100
AcDbLine
 10
126.1058978306201
 20
62.19268500030189
 11
126.1058978306201
 21
49.9294781276638
  0
LINE
  5
185
100
AcDbEntity
  8
Visible Narrow (ISO)
  6
ByLayer
 62
  256
370
   -1
100
AcDbLine
 10
126.1058978306201
 20
62.19268500030189
 11
125.9644764743828
 21
62.11124585754341
  0
ELLIPSE
  5
186
100
AcDbEntity
  8
Visible (ISO)
  6
ByLayer
 62
  256
370
   -1
100
AcDbEllipse
 10
125.0805929978995
 20
62.62024049980755
 30
0
 11
-0.623790264480566
 21
1.083229295181424
 31
0
 40
0.5780931159158106
 41
3.928924525386581
 42
5.499720852228044
  0
ELLIPSE
  5
187
100
AcDbEntity
  8
Visible (ISO)
  6
ByLayer
 62
  256
370
   -1
100
AcDbEllipse
 10
125.2220143541368
 20
62.70167964256603
 30
0
 11
0.6237902644804355
 21
-1.083229295181496
 31
0
 40
0.5780931159158105
 41
0.7873318717972682
 42
2.358128198638756
  0
LINE
  5
188
100
AcDbEntity
  8
Visible Narrow (ISO)
  6
ByLayer
 62
  256
370
   -1
100
AcDbLine
 10
125.2220143541163
 20
63.72361354863105
 11
125.080592997879
 21
63.64217440587257
  0
ELLIPSE
  5
189
100
AcDbEntity
  8
Visible (ISO)
  6
ByLayer
 62
  256
370
   -1
100
AcDbEllipse
 10
124.9038163026028
 20
63.33519977188755
 30
0
 11
-0.2495161057922274
 21
0.4332917180725711
 31
0
 40
0.5780931159158106
 41
3.928924525409908
 42
5.499720852204749
  0
LINE
  5
18A
100
AcDbEntity
  8
Visible (ISO)
  6
ByLayer
 62
  256
370
   -1
100
AcDbLine
 10
125.2573696931962
 20
58.83947950956806
 11
125.2573696931962
 21
63.13160191499139
  0
ELLIPSE
  5
18B
100
AcDbEntity
  8
Visible (ISO)
  6
ByLayer
 62
  256
370
   -1
100
AcDbEllipse
 10
124.9038163026028
 20
59.04307736646419
 30
0
 11
0.2495161057922027
 21
-0.4332917180725878
 31
0
 40
0.5780931159158107
 41
5.499720852205023
 42
7.070517178999916
  0
LINE
  5
18C
100
AcDbEntity
  8
Visible (ISO)
  6
ByLayer
 62
  256
370
   -1
100
AcDbLine
 10
122.7824959590429
 20
59.85589094541973
 11
124.9038163026028
 21
58.63430380404293
  0
LINE
  5
18D
100
AcDbEntity
  8
Visible (ISO)
  6
ByLayer
 62
  256
370
   -1
100
AcDbLine
 10
122.7824959590429
 20
50.82136407645807
 11
122.7824959590429
 21
59.85589094541973
  0
LINE
  5
18E
100
AcDbEntity
  8
Visible (ISO)
  6
ByLayer
 62
  256
370
   -1
100
AcDbLine
 10
125.080592997879
 20
63.64217440587257
 11
124.9038163026028
 21
63.74397333430879
  0
LINE
  5
18F
100
AcDbEntity
  8
Visible Narrow (ISO)
  6
ByLayer
 62
  256
370
   -1
100
AcDbLine
 10
125.2573696931962
 20
63.13160191499139
 11
124.8684609635436
 21
62.90764427240558
  0
LINE
  5
190
100
AcDbEntity
  8
Visible (ISO)
  6
ByLayer
 62
  256
370
   -1
100
AcDbLine
 10
124.8684609635436
 20
58.65466358973248
 11
124.8684609635436
 21
62.90764427240558
  0
LINE
  5
191
100
AcDbEntity
  8
Visible Narrow (ISO)
  6
ByLayer
 62
  256
370
   -1
100
AcDbLine
 10
125.2573696931962
 20
58.83947950956806
 11
124.902446313397
 21
58.63509272835736
  0
LINE
  5
192
100
AcDbEntity
  8
Visible Narrow (ISO)
  6
ByLayer
 62
  256
370
   -1
100
AcDbLine
 10
124.9038163026028
 20
63.74397333430879
 11
124.5149075729503
 21
63.52001569172299
  0
ELLIPSE
  5
193
100
AcDbEntity
  8
Visible (ISO)
  6
ByLayer
 62
  256
370
   -1
100
AcDbEllipse
 10
124.5149075729503
 20
63.1112421293017
 30
0
 11
-0.2495161057922274
 21
0.4332917180725711
 31
0
 40
0.5780931159158106
 41
3.928924525409908
 42
5.499720852204749
  0
LINE
  5
194
100
AcDbEntity
  8
Visible (ISO)
  6
ByLayer
 62
  256
370
   -1
100
AcDbLine
 10
124.5149075729503
 20
63.52001569172299
 11
104.7512730387833
 21
74.90113589221707
  0
LINE
  5
195
100
AcDbEntity
  8
Visible (ISO)
  6
ByLayer
 62
  256
370
   -1
100
AcDbLine
 10
103.1249274420333
 20
76.4484796046396
 11
125.2220143541163
 21
63.72361354863105
  0
LINE
  5
196
100
AcDbEntity
  8
Visible (ISO)
  6
ByLayer
 62
  256
370
   -1
100
AcDbLine
 10
125.2220143541163
 20
49.41653886388661
 11
103.1249274420333
 21
62.14140491989514
  0
LINE
  5
197
100
AcDbEntity
  8
Visible (ISO)
  6
ByLayer
 62
  256
370
   -1
100
AcDbLine
 10
122.7824959590429
 20
59.85589094541973
 11
122.3935872293904
 21
59.63193330283391
  0
LINE
  5
198
100
AcDbEntity
  8
Visible (ISO)
  6
ByLayer
 62
  256
370
   -1
100
AcDbLine
 10
122.3935872293904
 20
51.04532171904376
 11
122.3935872293904
 21
59.63193330283391
  0
DIMENSION
  5
199
100
AcDbEntity
  8
Dimension (ISO)
  6
ByLayer
 62
  256
370
   -1
100
AcDbDimension
  2
*D1
 10
70.50552002825111
 20
-12.01444288211464
 30
0
 11
35.25552002825112
 21
-12.01444288211464
 31
0
 70
   32
  1
<>
 71
    1
 72
    0
  3
Default (ISO)
 53
0
210
0
220
0
230
1
100
AcDbAlignedDimension
 13
0.005520028251090991
 23
3.985557117885357
 33
0
 14
70.50552002825111
 24
3.985557117885357
 34
0
100
AcDbRotatedDimension
  0
DIMENSION
  5
19A
100
AcDbEntity
  8
Dimension (ISO)
  6
ByLayer
 62
  256
370
   -1
100
AcDbDimension
  2
*D2
 10
-5.994479971748888
 20
37.98555711788536
 30
0
 11
-5.994479971748902
 21
18.98555711788536
 31
0
 70
   32
  1
<>
 71
    1
 72
    0
  3
Default (ISO)
 53
0
210
0
220
0
230
1
100
AcDbAlignedDimension
 13
4.005520028251098
 23
-0.01444288211463629
 33
0
 14
4.005520028251077
 24
37.98555711788536
 34
0
 50
90
100
AcDbRotatedDimension
  0
DIMENSION
  5
19B
100
AcDbEntity
  8
Dimension (ISO)
  6
ByLayer
 62
  256
370
   -1
100
AcDbDimension
  2
*D3
 10
66.50552002825106
 20
33.98555711788536
 30
0
 11
80.64694417346939
 21
45.25916561104681
 31
0
 70
   36
  1
<>
 71
    1
 72
    0
  3
Default (ISO)
 53
0
210
0
220
0
230
1
100
AcDbRadialDimension
 15
69.63325571483932
 25
36.47900242004104
 35
0
 40
0
  0
DIMENSION
  5
19C
100
AcDbEntity
  8
Dimension (ISO)
  6
ByLayer
 62
  256
370
   -1
100
AcDbDimension
  2
*D4
 10
3.355520028251753
 20
18.73555876788473
 30
0
 11
18.59554779005529
 21
18.7355435278576
 31
0
 70
   35
  1
2X<>
 71
    1
 72
    0
  3
Default (ISO)
 53
0
210
0
220
0
230
1
100
AcDbDiametricDimension
 15
6.655520028250102
 25
18.73555546788486
 35
0
 40
0
  0
DIMENSION
  5
19D
100
AcDbEntity
  8
Dimension (ISO)
  6
ByLayer
 62
  256
370
   -1
100
AcDbDimension
  2
*D5
 10
-4.644479971734221
 20
75.06363179588256
 30
0
 11
-4.644479971734242
 21
74.21363179587983
 31
0
 70
   32
  1
<>
 71
    1
 72
    0
  3
Default (ISO)
 53
0
210
0
220
0
230
1
100
AcDbAlignedDimension
 13
4.005520028265771
 23
73.36363179587708
 33
0
 14
3.355520028265758
 24
75.06363179588256
 34
0
 50
270
100
AcDbRotatedDimension
  0
DIMENSION
  5
19E
100
AcDbEntity
  8
Dimension (ISO)
  6
ByLayer
 62
  256
370
   -1
100
AcDbDimension
  2
*D6
 10
-30.195383882519
 20
42.68555711788537
 30
0
 11
-30.79538388251935
 21
42.68555711788537
 31
0
 70
   32
  1
<>
 71
    1
 72
    0
  3
Default (ISO)
 53
0
210
0
220
0
230
1
100
AcDbAlignedDimension
 13
-31.3953838825197
 23
36.48555711788539
 33
0
 14
-30.195383882519
 24
37.68555711788539
 34
0
100
AcDbRotatedDimension
  0
DIMENSION
  5
19F
100
AcDbEntity
  8
Dimension (ISO)
  6
ByLayer
 62
  256
370
   -1
100
AcDbDimension
  2
*D7
 10
9.005520028251077
 20
46.48555711788535
 30
0
 11
4.50552002825107
 21
46.48555711788535
 31
0
 70
   32
  1
<>
 71
    1
 72
    0
  3
Default (ISO)
 53
0
210
0
220
0
230
1
100
AcDbAlignedDimension
 13
0.005520028251076781
 23
33.98555711788535
 33
0
 14
9.005520028251077
 24
36.48555711788535
 34
0
100
AcDbRotatedDimension
  0
LINE
  5
1A0
100
AcDbEntity
  8
Center Mark (ISO)
  6
CONTINUOUS
 62
  256
370
   -1
100
AcDbLine
 10
7.905520028251082
 20
18.73555711788538
 11
2.105520028251085
 21
18.73555711788538
  0
LINE
  5
1A1
100
AcDbEntity
  8
Center Mark (ISO)
  6
CONTINUOUS
 62
  256
370
   -1
100
AcDbLine
 10
5.005520028251084
 20
21.63555711788537
 11
5.005520028251084
 21
15.83555711788537
  0
LINE
  5
1A2
100
AcDbEntity
  8
Center Mark (ISO)
  6
CONTINUOUS
 62
  256
370
   -1
100
AcDbLine
 10
67.40552002825109
 20
18.73555711788538
 11
61.60552002825109
 21
18.73555711788538
  0
LINE
  5
1A3
100
AcDbEntity
  8
Center Mark (ISO)
  6
CONTINUOUS
 62
  256
370
   -1
100
AcDbLine
 10
64.50552002825108
 20
21.63555711788537
 11
64.50552002825108
 21
15.83555711788537
  0
DIMENSION
  5
1A4
100
AcDbEntity
  8
Dimension (ISO)
  6
ByLayer
 62
  256
370
   -1
100
AcDbDimension
  2
*D8
 10
60.00552002825109
 20
43.98555711788538
 30
0
 11
65.25552002825106
 21
51.73244397643334
 31
0
 70
   32
  1
<>
 71
    1
 72
    0
  3
Default (ISO)
 53
0
210
0
220
0
230
1
100
AcDbAlignedDimension
 13
70.50552002825108
 23
33.98555711788538
 33
0
 14
60.00552002825109
 24
23.98555711788538
 34
0
 50
180
100
AcDbRotatedDimension
  0
DIMENSION
  5
1A5
100
AcDbEntity
  8
Center Mark (ISO)
  6
ByLayer
 62
  256
370
   -1
100
AcDbDimension
  2
*D9
 10
64.50552002825108
 20
18.73555711788538
 30
0
 11
61.85710845711913
 21
10.20486826756338
 31
0
 70
   36
 71
    5
  3
Standard
 53
0
210
0
220
0
230
1
100
AcDbRadialDimension
 15
64.35797931305083
 25
17.0921667998665
 35
0
 40
0
  0
ENDSEC
  0
SECTION
  2
OBJECTS
  0
DICTIONARY
  5
C
330
0
100
AcDbDictionary
281
    1
  3
ACAD_GROUP
350
D
  0
DICTIONARY
  5
D
330
C
100
AcDbDictionary
281
    1
  0
ENDSEC
  0
EOF
