%TF.GenerationSoftware,KiCad,Pcbnew,10.0.6*%
%TF.CreationDate,2026-09-21T15:54:58+02:00*%
%TF.ProjectId,midi2ttl,6d696469-3274-4746-9c2e-6b696361645f,rev?*%
%TF.SameCoordinates,Original*%
%TF.FileFunction,Soldermask,Top*%
%TF.FilePolarity,Negative*%
%FSLAX46Y46*%
G04 Gerber Fmt 4.6, Leading zero omitted, Abs format (unit mm)*
G04 Created by KiCad (PCBNEW 10.0.6) date 2026-09-21 15:54:58*
%MOMM*%
%LPD*%
G01*
G04 APERTURE LIST*
G04 Aperture macros list*
%AMRoundRect*
0 Rectangle with rounded corners*
0 $1 Rounding radius*
0 $2 $3 $4 $5 $6 $7 $8 $9 X,Y pos of 4 corners*
0 Add a 4 corners polygon primitive as box body*
4,1,4,$2,$3,$4,$5,$6,$7,$8,$9,$2,$3,0*
0 Add four circle primitives for the rounded corners*
1,1,$1+$1,$2,$3*
1,1,$1+$1,$4,$5*
1,1,$1+$1,$6,$7*
1,1,$1+$1,$8,$9*
0 Add four rect primitives between the rounded corners*
20,1,$1+$1,$2,$3,$4,$5,0*
20,1,$1+$1,$4,$5,$6,$7,0*
20,1,$1+$1,$6,$7,$8,$9,0*
20,1,$1+$1,$8,$9,$2,$3,0*%
G04 Aperture macros list end*
%ADD10C,1.400000*%
%ADD11C,2.200000*%
%ADD12C,3.200000*%
%ADD13RoundRect,0.200000X-0.200000X-0.275000X0.200000X-0.275000X0.200000X0.275000X-0.200000X0.275000X0*%
%ADD14RoundRect,0.225000X0.375000X-0.225000X0.375000X0.225000X-0.375000X0.225000X-0.375000X-0.225000X0*%
%ADD15RoundRect,0.249999X-0.750001X-0.640001X0.750001X-0.640001X0.750001X0.640001X-0.750001X0.640001X0*%
%ADD16RoundRect,0.225000X-0.225000X-0.250000X0.225000X-0.250000X0.225000X0.250000X-0.225000X0.250000X0*%
%ADD17RoundRect,0.200000X0.275000X-0.200000X0.275000X0.200000X-0.275000X0.200000X-0.275000X-0.200000X0*%
G04 APERTURE END LIST*
D10*
%TO.C,J7*%
X52500000Y-27000000D03*
X55000000Y-27000000D03*
D11*
X49000000Y-27000000D03*
%TD*%
D12*
%TO.C,H1*%
X4000000Y-4000000D03*
%TD*%
D13*
%TO.C,R2*%
X35175000Y-10000000D03*
X36825000Y-10000000D03*
%TD*%
D10*
%TO.C,J10*%
X28000000Y-39500000D03*
X28000000Y-42000000D03*
D11*
X28000000Y-36000000D03*
%TD*%
D10*
%TO.C,J3*%
X52500000Y-7000000D03*
X55000000Y-7000000D03*
D11*
X49000000Y-7000000D03*
%TD*%
D14*
%TO.C,D1*%
X15000000Y-13650000D03*
X15000000Y-10350000D03*
%TD*%
D13*
%TO.C,R1*%
X14175000Y-22000000D03*
X15825000Y-22000000D03*
%TD*%
D10*
%TO.C,J2*%
X3500000Y-22000000D03*
X1000000Y-22000000D03*
D11*
X7000000Y-22000000D03*
%TD*%
D10*
%TO.C,J11*%
X40000000Y-39500000D03*
X40000000Y-42000000D03*
D11*
X40000000Y-36000000D03*
%TD*%
D15*
%TO.C,U1*%
X21235000Y-14460000D03*
X21235000Y-17000000D03*
X21235000Y-19540000D03*
X30765000Y-19540000D03*
X30765000Y-17000000D03*
X30765000Y-14460000D03*
%TD*%
D10*
%TO.C,J4*%
X52500000Y-12000000D03*
X55000000Y-12000000D03*
D11*
X49000000Y-12000000D03*
%TD*%
D10*
%TO.C,J8*%
X52500000Y-32000000D03*
X55000000Y-32000000D03*
D11*
X49000000Y-32000000D03*
%TD*%
D16*
%TO.C,C1*%
X25225000Y-8000000D03*
X26775000Y-8000000D03*
%TD*%
D10*
%TO.C,J1*%
X3500000Y-14000000D03*
X1000000Y-14000000D03*
D11*
X7000000Y-14000000D03*
%TD*%
D17*
%TO.C,R4*%
X28000000Y-29825000D03*
X28000000Y-28175000D03*
%TD*%
%TO.C,R3*%
X16000000Y-29825000D03*
X16000000Y-28175000D03*
%TD*%
D10*
%TO.C,J6*%
X52500000Y-22000000D03*
X55000000Y-22000000D03*
D11*
X49000000Y-22000000D03*
%TD*%
D10*
%TO.C,J9*%
X16000000Y-39500000D03*
X16000000Y-42000000D03*
D11*
X16000000Y-36000000D03*
%TD*%
D12*
%TO.C,H2*%
X52000000Y-38000000D03*
%TD*%
D10*
%TO.C,J5*%
X52500000Y-17000000D03*
X55000000Y-17000000D03*
D11*
X49000000Y-17000000D03*
%TD*%
M02*
