%TF.GenerationSoftware,KiCad,Pcbnew,10.0.6*%
%TF.CreationDate,2026-09-21T15:54:58+02:00*%
%TF.ProjectId,midi2ttl,6d696469-3274-4746-9c2e-6b696361645f,rev?*%
%TF.SameCoordinates,Original*%
%TF.FileFunction,Legend,Top*%
%TF.FilePolarity,Positive*%
%FSLAX46Y46*%
G04 Gerber Fmt 4.6, Leading zero omitted, Abs format (unit mm)*
G04 Created by KiCad (PCBNEW 10.0.6) date 2026-09-21 15:54:58*
%MOMM*%
%LPD*%
G01*
G04 APERTURE LIST*
%ADD10C,0.150000*%
%ADD11C,0.120000*%
G04 APERTURE END LIST*
D10*
X5028571Y-10408557D02*
X5028571Y-9508557D01*
X5457142Y-10408557D02*
X5457142Y-9508557D01*
X5457142Y-9508557D02*
X5971428Y-10408557D01*
X5971428Y-10408557D02*
X5971428Y-9508557D01*
X19100000Y-40008557D02*
X19271428Y-40008557D01*
X19271428Y-40008557D02*
X19357143Y-40051414D01*
X19357143Y-40051414D02*
X19442857Y-40137128D01*
X19442857Y-40137128D02*
X19485714Y-40308557D01*
X19485714Y-40308557D02*
X19485714Y-40608557D01*
X19485714Y-40608557D02*
X19442857Y-40779985D01*
X19442857Y-40779985D02*
X19357143Y-40865700D01*
X19357143Y-40865700D02*
X19271428Y-40908557D01*
X19271428Y-40908557D02*
X19100000Y-40908557D01*
X19100000Y-40908557D02*
X19014286Y-40865700D01*
X19014286Y-40865700D02*
X18928571Y-40779985D01*
X18928571Y-40779985D02*
X18885714Y-40608557D01*
X18885714Y-40608557D02*
X18885714Y-40308557D01*
X18885714Y-40308557D02*
X18928571Y-40137128D01*
X18928571Y-40137128D02*
X19014286Y-40051414D01*
X19014286Y-40051414D02*
X19100000Y-40008557D01*
X19871428Y-40008557D02*
X19871428Y-40737128D01*
X19871428Y-40737128D02*
X19914285Y-40822842D01*
X19914285Y-40822842D02*
X19957143Y-40865700D01*
X19957143Y-40865700D02*
X20042857Y-40908557D01*
X20042857Y-40908557D02*
X20214285Y-40908557D01*
X20214285Y-40908557D02*
X20300000Y-40865700D01*
X20300000Y-40865700D02*
X20342857Y-40822842D01*
X20342857Y-40822842D02*
X20385714Y-40737128D01*
X20385714Y-40737128D02*
X20385714Y-40008557D01*
X20685714Y-40008557D02*
X21200000Y-40008557D01*
X20942857Y-40908557D02*
X20942857Y-40008557D01*
X27599999Y-2008557D02*
X28157142Y-2008557D01*
X28157142Y-2008557D02*
X27857142Y-2351414D01*
X27857142Y-2351414D02*
X27985713Y-2351414D01*
X27985713Y-2351414D02*
X28071428Y-2394271D01*
X28071428Y-2394271D02*
X28114285Y-2437128D01*
X28114285Y-2437128D02*
X28157142Y-2522842D01*
X28157142Y-2522842D02*
X28157142Y-2737128D01*
X28157142Y-2737128D02*
X28114285Y-2822842D01*
X28114285Y-2822842D02*
X28071428Y-2865700D01*
X28071428Y-2865700D02*
X27985713Y-2908557D01*
X27985713Y-2908557D02*
X27728570Y-2908557D01*
X27728570Y-2908557D02*
X27642856Y-2865700D01*
X27642856Y-2865700D02*
X27599999Y-2822842D01*
X28414285Y-2008557D02*
X28714285Y-2908557D01*
X28714285Y-2908557D02*
X29014285Y-2008557D01*
X29228571Y-2008557D02*
X29785714Y-2008557D01*
X29785714Y-2008557D02*
X29485714Y-2351414D01*
X29485714Y-2351414D02*
X29614285Y-2351414D01*
X29614285Y-2351414D02*
X29700000Y-2394271D01*
X29700000Y-2394271D02*
X29742857Y-2437128D01*
X29742857Y-2437128D02*
X29785714Y-2522842D01*
X29785714Y-2522842D02*
X29785714Y-2737128D01*
X29785714Y-2737128D02*
X29742857Y-2822842D01*
X29742857Y-2822842D02*
X29700000Y-2865700D01*
X29700000Y-2865700D02*
X29614285Y-2908557D01*
X29614285Y-2908557D02*
X29357142Y-2908557D01*
X29357142Y-2908557D02*
X29271428Y-2865700D01*
X29271428Y-2865700D02*
X29228571Y-2822842D01*
X30814285Y-1965700D02*
X30042857Y-3122842D01*
X31542857Y-2008557D02*
X31114285Y-2008557D01*
X31114285Y-2008557D02*
X31071428Y-2437128D01*
X31071428Y-2437128D02*
X31114285Y-2394271D01*
X31114285Y-2394271D02*
X31200000Y-2351414D01*
X31200000Y-2351414D02*
X31414285Y-2351414D01*
X31414285Y-2351414D02*
X31500000Y-2394271D01*
X31500000Y-2394271D02*
X31542857Y-2437128D01*
X31542857Y-2437128D02*
X31585714Y-2522842D01*
X31585714Y-2522842D02*
X31585714Y-2737128D01*
X31585714Y-2737128D02*
X31542857Y-2822842D01*
X31542857Y-2822842D02*
X31500000Y-2865700D01*
X31500000Y-2865700D02*
X31414285Y-2908557D01*
X31414285Y-2908557D02*
X31200000Y-2908557D01*
X31200000Y-2908557D02*
X31114285Y-2865700D01*
X31114285Y-2865700D02*
X31071428Y-2822842D01*
X31842857Y-2008557D02*
X32142857Y-2908557D01*
X32142857Y-2908557D02*
X32442857Y-2008557D01*
X43500000Y-4908557D02*
X43500000Y-4008557D01*
X43500000Y-4437128D02*
X44014286Y-4437128D01*
X44014286Y-4908557D02*
X44014286Y-4008557D01*
X44614286Y-4008557D02*
X44785714Y-4008557D01*
X44785714Y-4008557D02*
X44871429Y-4051414D01*
X44871429Y-4051414D02*
X44957143Y-4137128D01*
X44957143Y-4137128D02*
X45000000Y-4308557D01*
X45000000Y-4308557D02*
X45000000Y-4608557D01*
X45000000Y-4608557D02*
X44957143Y-4779985D01*
X44957143Y-4779985D02*
X44871429Y-4865700D01*
X44871429Y-4865700D02*
X44785714Y-4908557D01*
X44785714Y-4908557D02*
X44614286Y-4908557D01*
X44614286Y-4908557D02*
X44528572Y-4865700D01*
X44528572Y-4865700D02*
X44442857Y-4779985D01*
X44442857Y-4779985D02*
X44400000Y-4608557D01*
X44400000Y-4608557D02*
X44400000Y-4308557D01*
X44400000Y-4308557D02*
X44442857Y-4137128D01*
X44442857Y-4137128D02*
X44528572Y-4051414D01*
X44528572Y-4051414D02*
X44614286Y-4008557D01*
X45342857Y-4865700D02*
X45471429Y-4908557D01*
X45471429Y-4908557D02*
X45685714Y-4908557D01*
X45685714Y-4908557D02*
X45771429Y-4865700D01*
X45771429Y-4865700D02*
X45814286Y-4822842D01*
X45814286Y-4822842D02*
X45857143Y-4737128D01*
X45857143Y-4737128D02*
X45857143Y-4651414D01*
X45857143Y-4651414D02*
X45814286Y-4565700D01*
X45814286Y-4565700D02*
X45771429Y-4522842D01*
X45771429Y-4522842D02*
X45685714Y-4479985D01*
X45685714Y-4479985D02*
X45514286Y-4437128D01*
X45514286Y-4437128D02*
X45428571Y-4394271D01*
X45428571Y-4394271D02*
X45385714Y-4351414D01*
X45385714Y-4351414D02*
X45342857Y-4265700D01*
X45342857Y-4265700D02*
X45342857Y-4179985D01*
X45342857Y-4179985D02*
X45385714Y-4094271D01*
X45385714Y-4094271D02*
X45428571Y-4051414D01*
X45428571Y-4051414D02*
X45514286Y-4008557D01*
X45514286Y-4008557D02*
X45728571Y-4008557D01*
X45728571Y-4008557D02*
X45857143Y-4051414D01*
X46114286Y-4008557D02*
X46628572Y-4008557D01*
X46371429Y-4908557D02*
X46371429Y-4008557D01*
X14800000Y-3047342D02*
X14800000Y-2247342D01*
X14800000Y-2361628D02*
X14857143Y-2304485D01*
X14857143Y-2304485D02*
X14971428Y-2247342D01*
X14971428Y-2247342D02*
X15142857Y-2247342D01*
X15142857Y-2247342D02*
X15257143Y-2304485D01*
X15257143Y-2304485D02*
X15314286Y-2418771D01*
X15314286Y-2418771D02*
X15314286Y-3047342D01*
X15314286Y-2418771D02*
X15371428Y-2304485D01*
X15371428Y-2304485D02*
X15485714Y-2247342D01*
X15485714Y-2247342D02*
X15657143Y-2247342D01*
X15657143Y-2247342D02*
X15771428Y-2304485D01*
X15771428Y-2304485D02*
X15828571Y-2418771D01*
X15828571Y-2418771D02*
X15828571Y-3047342D01*
X16400000Y-3047342D02*
X16400000Y-2247342D01*
X16400000Y-1847342D02*
X16342857Y-1904485D01*
X16342857Y-1904485D02*
X16400000Y-1961628D01*
X16400000Y-1961628D02*
X16457143Y-1904485D01*
X16457143Y-1904485D02*
X16400000Y-1847342D01*
X16400000Y-1847342D02*
X16400000Y-1961628D01*
X17485715Y-3047342D02*
X17485715Y-1847342D01*
X17485715Y-2990200D02*
X17371429Y-3047342D01*
X17371429Y-3047342D02*
X17142857Y-3047342D01*
X17142857Y-3047342D02*
X17028572Y-2990200D01*
X17028572Y-2990200D02*
X16971429Y-2933057D01*
X16971429Y-2933057D02*
X16914286Y-2818771D01*
X16914286Y-2818771D02*
X16914286Y-2475914D01*
X16914286Y-2475914D02*
X16971429Y-2361628D01*
X16971429Y-2361628D02*
X17028572Y-2304485D01*
X17028572Y-2304485D02*
X17142857Y-2247342D01*
X17142857Y-2247342D02*
X17371429Y-2247342D01*
X17371429Y-2247342D02*
X17485715Y-2304485D01*
X18057143Y-3047342D02*
X18057143Y-2247342D01*
X18057143Y-1847342D02*
X18000000Y-1904485D01*
X18000000Y-1904485D02*
X18057143Y-1961628D01*
X18057143Y-1961628D02*
X18114286Y-1904485D01*
X18114286Y-1904485D02*
X18057143Y-1847342D01*
X18057143Y-1847342D02*
X18057143Y-1961628D01*
X18571429Y-1961628D02*
X18628572Y-1904485D01*
X18628572Y-1904485D02*
X18742858Y-1847342D01*
X18742858Y-1847342D02*
X19028572Y-1847342D01*
X19028572Y-1847342D02*
X19142858Y-1904485D01*
X19142858Y-1904485D02*
X19200000Y-1961628D01*
X19200000Y-1961628D02*
X19257143Y-2075914D01*
X19257143Y-2075914D02*
X19257143Y-2190200D01*
X19257143Y-2190200D02*
X19200000Y-2361628D01*
X19200000Y-2361628D02*
X18514286Y-3047342D01*
X18514286Y-3047342D02*
X19257143Y-3047342D01*
X19600000Y-2247342D02*
X20057143Y-2247342D01*
X19771429Y-1847342D02*
X19771429Y-2875914D01*
X19771429Y-2875914D02*
X19828572Y-2990200D01*
X19828572Y-2990200D02*
X19942857Y-3047342D01*
X19942857Y-3047342D02*
X20057143Y-3047342D01*
X20285714Y-2247342D02*
X20742857Y-2247342D01*
X20457143Y-1847342D02*
X20457143Y-2875914D01*
X20457143Y-2875914D02*
X20514286Y-2990200D01*
X20514286Y-2990200D02*
X20628571Y-3047342D01*
X20628571Y-3047342D02*
X20742857Y-3047342D01*
X21314285Y-3047342D02*
X21200000Y-2990200D01*
X21200000Y-2990200D02*
X21142857Y-2875914D01*
X21142857Y-2875914D02*
X21142857Y-1847342D01*
D11*
X45063855Y-27266666D02*
X45635283Y-27266666D01*
X45635283Y-27266666D02*
X45749569Y-27304761D01*
X45749569Y-27304761D02*
X45825760Y-27380952D01*
X45825760Y-27380952D02*
X45863855Y-27495237D01*
X45863855Y-27495237D02*
X45863855Y-27571428D01*
X45063855Y-26961904D02*
X45063855Y-26428570D01*
X45063855Y-26428570D02*
X45863855Y-26771428D01*
D10*
X3238095Y-304819D02*
X3238095Y695180D01*
X3238095Y218990D02*
X3809523Y218990D01*
X3809523Y-304819D02*
X3809523Y695180D01*
X4809523Y-304819D02*
X4238095Y-304819D01*
X4523809Y-304819D02*
X4523809Y695180D01*
X4523809Y695180D02*
X4428571Y552323D01*
X4428571Y552323D02*
X4333333Y457085D01*
X4333333Y457085D02*
X4238095Y409466D01*
X35833333Y-9024819D02*
X35500000Y-8548628D01*
X35261905Y-9024819D02*
X35261905Y-8024819D01*
X35261905Y-8024819D02*
X35642857Y-8024819D01*
X35642857Y-8024819D02*
X35738095Y-8072438D01*
X35738095Y-8072438D02*
X35785714Y-8120057D01*
X35785714Y-8120057D02*
X35833333Y-8215295D01*
X35833333Y-8215295D02*
X35833333Y-8358152D01*
X35833333Y-8358152D02*
X35785714Y-8453390D01*
X35785714Y-8453390D02*
X35738095Y-8501009D01*
X35738095Y-8501009D02*
X35642857Y-8548628D01*
X35642857Y-8548628D02*
X35261905Y-8548628D01*
X36214286Y-8120057D02*
X36261905Y-8072438D01*
X36261905Y-8072438D02*
X36357143Y-8024819D01*
X36357143Y-8024819D02*
X36595238Y-8024819D01*
X36595238Y-8024819D02*
X36690476Y-8072438D01*
X36690476Y-8072438D02*
X36738095Y-8120057D01*
X36738095Y-8120057D02*
X36785714Y-8215295D01*
X36785714Y-8215295D02*
X36785714Y-8310533D01*
X36785714Y-8310533D02*
X36738095Y-8453390D01*
X36738095Y-8453390D02*
X36166667Y-9024819D01*
X36166667Y-9024819D02*
X36785714Y-9024819D01*
D11*
X27352380Y-32063855D02*
X27352380Y-32635283D01*
X27352380Y-32635283D02*
X27314285Y-32749569D01*
X27314285Y-32749569D02*
X27238094Y-32825760D01*
X27238094Y-32825760D02*
X27123809Y-32863855D01*
X27123809Y-32863855D02*
X27047618Y-32863855D01*
X28152380Y-32863855D02*
X27695237Y-32863855D01*
X27923809Y-32863855D02*
X27923809Y-32063855D01*
X27923809Y-32063855D02*
X27847618Y-32178140D01*
X27847618Y-32178140D02*
X27771428Y-32254331D01*
X27771428Y-32254331D02*
X27695237Y-32292426D01*
X28647619Y-32063855D02*
X28723809Y-32063855D01*
X28723809Y-32063855D02*
X28800000Y-32101950D01*
X28800000Y-32101950D02*
X28838095Y-32140045D01*
X28838095Y-32140045D02*
X28876190Y-32216236D01*
X28876190Y-32216236D02*
X28914285Y-32368617D01*
X28914285Y-32368617D02*
X28914285Y-32559093D01*
X28914285Y-32559093D02*
X28876190Y-32711474D01*
X28876190Y-32711474D02*
X28838095Y-32787664D01*
X28838095Y-32787664D02*
X28800000Y-32825760D01*
X28800000Y-32825760D02*
X28723809Y-32863855D01*
X28723809Y-32863855D02*
X28647619Y-32863855D01*
X28647619Y-32863855D02*
X28571428Y-32825760D01*
X28571428Y-32825760D02*
X28533333Y-32787664D01*
X28533333Y-32787664D02*
X28495238Y-32711474D01*
X28495238Y-32711474D02*
X28457142Y-32559093D01*
X28457142Y-32559093D02*
X28457142Y-32368617D01*
X28457142Y-32368617D02*
X28495238Y-32216236D01*
X28495238Y-32216236D02*
X28533333Y-32140045D01*
X28533333Y-32140045D02*
X28571428Y-32101950D01*
X28571428Y-32101950D02*
X28647619Y-32063855D01*
X45063855Y-7266666D02*
X45635283Y-7266666D01*
X45635283Y-7266666D02*
X45749569Y-7304761D01*
X45749569Y-7304761D02*
X45825760Y-7380952D01*
X45825760Y-7380952D02*
X45863855Y-7495237D01*
X45863855Y-7495237D02*
X45863855Y-7571428D01*
X45063855Y-6961904D02*
X45063855Y-6466666D01*
X45063855Y-6466666D02*
X45368617Y-6733332D01*
X45368617Y-6733332D02*
X45368617Y-6619047D01*
X45368617Y-6619047D02*
X45406712Y-6542856D01*
X45406712Y-6542856D02*
X45444807Y-6504761D01*
X45444807Y-6504761D02*
X45520998Y-6466666D01*
X45520998Y-6466666D02*
X45711474Y-6466666D01*
X45711474Y-6466666D02*
X45787664Y-6504761D01*
X45787664Y-6504761D02*
X45825760Y-6542856D01*
X45825760Y-6542856D02*
X45863855Y-6619047D01*
X45863855Y-6619047D02*
X45863855Y-6847618D01*
X45863855Y-6847618D02*
X45825760Y-6923809D01*
X45825760Y-6923809D02*
X45787664Y-6961904D01*
D10*
X13454819Y-12738094D02*
X12454819Y-12738094D01*
X12454819Y-12738094D02*
X12454819Y-12499999D01*
X12454819Y-12499999D02*
X12502438Y-12357142D01*
X12502438Y-12357142D02*
X12597676Y-12261904D01*
X12597676Y-12261904D02*
X12692914Y-12214285D01*
X12692914Y-12214285D02*
X12883390Y-12166666D01*
X12883390Y-12166666D02*
X13026247Y-12166666D01*
X13026247Y-12166666D02*
X13216723Y-12214285D01*
X13216723Y-12214285D02*
X13311961Y-12261904D01*
X13311961Y-12261904D02*
X13407200Y-12357142D01*
X13407200Y-12357142D02*
X13454819Y-12499999D01*
X13454819Y-12499999D02*
X13454819Y-12738094D01*
X13454819Y-11214285D02*
X13454819Y-11785713D01*
X13454819Y-11499999D02*
X12454819Y-11499999D01*
X12454819Y-11499999D02*
X12597676Y-11595237D01*
X12597676Y-11595237D02*
X12692914Y-11690475D01*
X12692914Y-11690475D02*
X12740533Y-11785713D01*
X14833333Y-21024819D02*
X14500000Y-20548628D01*
X14261905Y-21024819D02*
X14261905Y-20024819D01*
X14261905Y-20024819D02*
X14642857Y-20024819D01*
X14642857Y-20024819D02*
X14738095Y-20072438D01*
X14738095Y-20072438D02*
X14785714Y-20120057D01*
X14785714Y-20120057D02*
X14833333Y-20215295D01*
X14833333Y-20215295D02*
X14833333Y-20358152D01*
X14833333Y-20358152D02*
X14785714Y-20453390D01*
X14785714Y-20453390D02*
X14738095Y-20501009D01*
X14738095Y-20501009D02*
X14642857Y-20548628D01*
X14642857Y-20548628D02*
X14261905Y-20548628D01*
X15785714Y-21024819D02*
X15214286Y-21024819D01*
X15500000Y-21024819D02*
X15500000Y-20024819D01*
X15500000Y-20024819D02*
X15404762Y-20167676D01*
X15404762Y-20167676D02*
X15309524Y-20262914D01*
X15309524Y-20262914D02*
X15214286Y-20310533D01*
D11*
X10063855Y-22266666D02*
X10635283Y-22266666D01*
X10635283Y-22266666D02*
X10749569Y-22304761D01*
X10749569Y-22304761D02*
X10825760Y-22380952D01*
X10825760Y-22380952D02*
X10863855Y-22495237D01*
X10863855Y-22495237D02*
X10863855Y-22571428D01*
X10140045Y-21923809D02*
X10101950Y-21885713D01*
X10101950Y-21885713D02*
X10063855Y-21809523D01*
X10063855Y-21809523D02*
X10063855Y-21619047D01*
X10063855Y-21619047D02*
X10101950Y-21542856D01*
X10101950Y-21542856D02*
X10140045Y-21504761D01*
X10140045Y-21504761D02*
X10216236Y-21466666D01*
X10216236Y-21466666D02*
X10292426Y-21466666D01*
X10292426Y-21466666D02*
X10406712Y-21504761D01*
X10406712Y-21504761D02*
X10863855Y-21961904D01*
X10863855Y-21961904D02*
X10863855Y-21466666D01*
X39352380Y-32063855D02*
X39352380Y-32635283D01*
X39352380Y-32635283D02*
X39314285Y-32749569D01*
X39314285Y-32749569D02*
X39238094Y-32825760D01*
X39238094Y-32825760D02*
X39123809Y-32863855D01*
X39123809Y-32863855D02*
X39047618Y-32863855D01*
X40152380Y-32863855D02*
X39695237Y-32863855D01*
X39923809Y-32863855D02*
X39923809Y-32063855D01*
X39923809Y-32063855D02*
X39847618Y-32178140D01*
X39847618Y-32178140D02*
X39771428Y-32254331D01*
X39771428Y-32254331D02*
X39695237Y-32292426D01*
X40914285Y-32863855D02*
X40457142Y-32863855D01*
X40685714Y-32863855D02*
X40685714Y-32063855D01*
X40685714Y-32063855D02*
X40609523Y-32178140D01*
X40609523Y-32178140D02*
X40533333Y-32254331D01*
X40533333Y-32254331D02*
X40457142Y-32292426D01*
D10*
X25238095Y-11584819D02*
X25238095Y-12394342D01*
X25238095Y-12394342D02*
X25285714Y-12489580D01*
X25285714Y-12489580D02*
X25333333Y-12537200D01*
X25333333Y-12537200D02*
X25428571Y-12584819D01*
X25428571Y-12584819D02*
X25619047Y-12584819D01*
X25619047Y-12584819D02*
X25714285Y-12537200D01*
X25714285Y-12537200D02*
X25761904Y-12489580D01*
X25761904Y-12489580D02*
X25809523Y-12394342D01*
X25809523Y-12394342D02*
X25809523Y-11584819D01*
X26809523Y-12584819D02*
X26238095Y-12584819D01*
X26523809Y-12584819D02*
X26523809Y-11584819D01*
X26523809Y-11584819D02*
X26428571Y-11727676D01*
X26428571Y-11727676D02*
X26333333Y-11822914D01*
X26333333Y-11822914D02*
X26238095Y-11870533D01*
D11*
X45063855Y-12266666D02*
X45635283Y-12266666D01*
X45635283Y-12266666D02*
X45749569Y-12304761D01*
X45749569Y-12304761D02*
X45825760Y-12380952D01*
X45825760Y-12380952D02*
X45863855Y-12495237D01*
X45863855Y-12495237D02*
X45863855Y-12571428D01*
X45330521Y-11542856D02*
X45863855Y-11542856D01*
X45025760Y-11733332D02*
X45597188Y-11923809D01*
X45597188Y-11923809D02*
X45597188Y-11428570D01*
X45063855Y-32266666D02*
X45635283Y-32266666D01*
X45635283Y-32266666D02*
X45749569Y-32304761D01*
X45749569Y-32304761D02*
X45825760Y-32380952D01*
X45825760Y-32380952D02*
X45863855Y-32495237D01*
X45863855Y-32495237D02*
X45863855Y-32571428D01*
X45406712Y-31771428D02*
X45368617Y-31847618D01*
X45368617Y-31847618D02*
X45330521Y-31885713D01*
X45330521Y-31885713D02*
X45254331Y-31923809D01*
X45254331Y-31923809D02*
X45216236Y-31923809D01*
X45216236Y-31923809D02*
X45140045Y-31885713D01*
X45140045Y-31885713D02*
X45101950Y-31847618D01*
X45101950Y-31847618D02*
X45063855Y-31771428D01*
X45063855Y-31771428D02*
X45063855Y-31619047D01*
X45063855Y-31619047D02*
X45101950Y-31542856D01*
X45101950Y-31542856D02*
X45140045Y-31504761D01*
X45140045Y-31504761D02*
X45216236Y-31466666D01*
X45216236Y-31466666D02*
X45254331Y-31466666D01*
X45254331Y-31466666D02*
X45330521Y-31504761D01*
X45330521Y-31504761D02*
X45368617Y-31542856D01*
X45368617Y-31542856D02*
X45406712Y-31619047D01*
X45406712Y-31619047D02*
X45406712Y-31771428D01*
X45406712Y-31771428D02*
X45444807Y-31847618D01*
X45444807Y-31847618D02*
X45482902Y-31885713D01*
X45482902Y-31885713D02*
X45559093Y-31923809D01*
X45559093Y-31923809D02*
X45711474Y-31923809D01*
X45711474Y-31923809D02*
X45787664Y-31885713D01*
X45787664Y-31885713D02*
X45825760Y-31847618D01*
X45825760Y-31847618D02*
X45863855Y-31771428D01*
X45863855Y-31771428D02*
X45863855Y-31619047D01*
X45863855Y-31619047D02*
X45825760Y-31542856D01*
X45825760Y-31542856D02*
X45787664Y-31504761D01*
X45787664Y-31504761D02*
X45711474Y-31466666D01*
X45711474Y-31466666D02*
X45559093Y-31466666D01*
X45559093Y-31466666D02*
X45482902Y-31504761D01*
X45482902Y-31504761D02*
X45444807Y-31542856D01*
X45444807Y-31542856D02*
X45406712Y-31619047D01*
D10*
X25833333Y-6929580D02*
X25785714Y-6977200D01*
X25785714Y-6977200D02*
X25642857Y-7024819D01*
X25642857Y-7024819D02*
X25547619Y-7024819D01*
X25547619Y-7024819D02*
X25404762Y-6977200D01*
X25404762Y-6977200D02*
X25309524Y-6881961D01*
X25309524Y-6881961D02*
X25261905Y-6786723D01*
X25261905Y-6786723D02*
X25214286Y-6596247D01*
X25214286Y-6596247D02*
X25214286Y-6453390D01*
X25214286Y-6453390D02*
X25261905Y-6262914D01*
X25261905Y-6262914D02*
X25309524Y-6167676D01*
X25309524Y-6167676D02*
X25404762Y-6072438D01*
X25404762Y-6072438D02*
X25547619Y-6024819D01*
X25547619Y-6024819D02*
X25642857Y-6024819D01*
X25642857Y-6024819D02*
X25785714Y-6072438D01*
X25785714Y-6072438D02*
X25833333Y-6120057D01*
X26785714Y-7024819D02*
X26214286Y-7024819D01*
X26500000Y-7024819D02*
X26500000Y-6024819D01*
X26500000Y-6024819D02*
X26404762Y-6167676D01*
X26404762Y-6167676D02*
X26309524Y-6262914D01*
X26309524Y-6262914D02*
X26214286Y-6310533D01*
D11*
X10063855Y-14266666D02*
X10635283Y-14266666D01*
X10635283Y-14266666D02*
X10749569Y-14304761D01*
X10749569Y-14304761D02*
X10825760Y-14380952D01*
X10825760Y-14380952D02*
X10863855Y-14495237D01*
X10863855Y-14495237D02*
X10863855Y-14571428D01*
X10863855Y-13466666D02*
X10863855Y-13923809D01*
X10863855Y-13695237D02*
X10063855Y-13695237D01*
X10063855Y-13695237D02*
X10178140Y-13771428D01*
X10178140Y-13771428D02*
X10254331Y-13847618D01*
X10254331Y-13847618D02*
X10292426Y-13923809D01*
D10*
X27024819Y-29166666D02*
X26548628Y-29499999D01*
X27024819Y-29738094D02*
X26024819Y-29738094D01*
X26024819Y-29738094D02*
X26024819Y-29357142D01*
X26024819Y-29357142D02*
X26072438Y-29261904D01*
X26072438Y-29261904D02*
X26120057Y-29214285D01*
X26120057Y-29214285D02*
X26215295Y-29166666D01*
X26215295Y-29166666D02*
X26358152Y-29166666D01*
X26358152Y-29166666D02*
X26453390Y-29214285D01*
X26453390Y-29214285D02*
X26501009Y-29261904D01*
X26501009Y-29261904D02*
X26548628Y-29357142D01*
X26548628Y-29357142D02*
X26548628Y-29738094D01*
X26358152Y-28309523D02*
X27024819Y-28309523D01*
X25977200Y-28547618D02*
X26691485Y-28785713D01*
X26691485Y-28785713D02*
X26691485Y-28166666D01*
X15024819Y-29166666D02*
X14548628Y-29499999D01*
X15024819Y-29738094D02*
X14024819Y-29738094D01*
X14024819Y-29738094D02*
X14024819Y-29357142D01*
X14024819Y-29357142D02*
X14072438Y-29261904D01*
X14072438Y-29261904D02*
X14120057Y-29214285D01*
X14120057Y-29214285D02*
X14215295Y-29166666D01*
X14215295Y-29166666D02*
X14358152Y-29166666D01*
X14358152Y-29166666D02*
X14453390Y-29214285D01*
X14453390Y-29214285D02*
X14501009Y-29261904D01*
X14501009Y-29261904D02*
X14548628Y-29357142D01*
X14548628Y-29357142D02*
X14548628Y-29738094D01*
X14024819Y-28833332D02*
X14024819Y-28214285D01*
X14024819Y-28214285D02*
X14405771Y-28547618D01*
X14405771Y-28547618D02*
X14405771Y-28404761D01*
X14405771Y-28404761D02*
X14453390Y-28309523D01*
X14453390Y-28309523D02*
X14501009Y-28261904D01*
X14501009Y-28261904D02*
X14596247Y-28214285D01*
X14596247Y-28214285D02*
X14834342Y-28214285D01*
X14834342Y-28214285D02*
X14929580Y-28261904D01*
X14929580Y-28261904D02*
X14977200Y-28309523D01*
X14977200Y-28309523D02*
X15024819Y-28404761D01*
X15024819Y-28404761D02*
X15024819Y-28690475D01*
X15024819Y-28690475D02*
X14977200Y-28785713D01*
X14977200Y-28785713D02*
X14929580Y-28833332D01*
D11*
X45063855Y-22266666D02*
X45635283Y-22266666D01*
X45635283Y-22266666D02*
X45749569Y-22304761D01*
X45749569Y-22304761D02*
X45825760Y-22380952D01*
X45825760Y-22380952D02*
X45863855Y-22495237D01*
X45863855Y-22495237D02*
X45863855Y-22571428D01*
X45063855Y-21542856D02*
X45063855Y-21695237D01*
X45063855Y-21695237D02*
X45101950Y-21771428D01*
X45101950Y-21771428D02*
X45140045Y-21809523D01*
X45140045Y-21809523D02*
X45254331Y-21885713D01*
X45254331Y-21885713D02*
X45406712Y-21923809D01*
X45406712Y-21923809D02*
X45711474Y-21923809D01*
X45711474Y-21923809D02*
X45787664Y-21885713D01*
X45787664Y-21885713D02*
X45825760Y-21847618D01*
X45825760Y-21847618D02*
X45863855Y-21771428D01*
X45863855Y-21771428D02*
X45863855Y-21619047D01*
X45863855Y-21619047D02*
X45825760Y-21542856D01*
X45825760Y-21542856D02*
X45787664Y-21504761D01*
X45787664Y-21504761D02*
X45711474Y-21466666D01*
X45711474Y-21466666D02*
X45520998Y-21466666D01*
X45520998Y-21466666D02*
X45444807Y-21504761D01*
X45444807Y-21504761D02*
X45406712Y-21542856D01*
X45406712Y-21542856D02*
X45368617Y-21619047D01*
X45368617Y-21619047D02*
X45368617Y-21771428D01*
X45368617Y-21771428D02*
X45406712Y-21847618D01*
X45406712Y-21847618D02*
X45444807Y-21885713D01*
X45444807Y-21885713D02*
X45520998Y-21923809D01*
X15733333Y-32063855D02*
X15733333Y-32635283D01*
X15733333Y-32635283D02*
X15695238Y-32749569D01*
X15695238Y-32749569D02*
X15619047Y-32825760D01*
X15619047Y-32825760D02*
X15504762Y-32863855D01*
X15504762Y-32863855D02*
X15428571Y-32863855D01*
X16152381Y-32863855D02*
X16304762Y-32863855D01*
X16304762Y-32863855D02*
X16380952Y-32825760D01*
X16380952Y-32825760D02*
X16419048Y-32787664D01*
X16419048Y-32787664D02*
X16495238Y-32673379D01*
X16495238Y-32673379D02*
X16533333Y-32520998D01*
X16533333Y-32520998D02*
X16533333Y-32216236D01*
X16533333Y-32216236D02*
X16495238Y-32140045D01*
X16495238Y-32140045D02*
X16457143Y-32101950D01*
X16457143Y-32101950D02*
X16380952Y-32063855D01*
X16380952Y-32063855D02*
X16228571Y-32063855D01*
X16228571Y-32063855D02*
X16152381Y-32101950D01*
X16152381Y-32101950D02*
X16114286Y-32140045D01*
X16114286Y-32140045D02*
X16076190Y-32216236D01*
X16076190Y-32216236D02*
X16076190Y-32406712D01*
X16076190Y-32406712D02*
X16114286Y-32482902D01*
X16114286Y-32482902D02*
X16152381Y-32520998D01*
X16152381Y-32520998D02*
X16228571Y-32559093D01*
X16228571Y-32559093D02*
X16380952Y-32559093D01*
X16380952Y-32559093D02*
X16457143Y-32520998D01*
X16457143Y-32520998D02*
X16495238Y-32482902D01*
X16495238Y-32482902D02*
X16533333Y-32406712D01*
D10*
X51238095Y-34304819D02*
X51238095Y-33304819D01*
X51238095Y-33781009D02*
X51809523Y-33781009D01*
X51809523Y-34304819D02*
X51809523Y-33304819D01*
X52238095Y-33400057D02*
X52285714Y-33352438D01*
X52285714Y-33352438D02*
X52380952Y-33304819D01*
X52380952Y-33304819D02*
X52619047Y-33304819D01*
X52619047Y-33304819D02*
X52714285Y-33352438D01*
X52714285Y-33352438D02*
X52761904Y-33400057D01*
X52761904Y-33400057D02*
X52809523Y-33495295D01*
X52809523Y-33495295D02*
X52809523Y-33590533D01*
X52809523Y-33590533D02*
X52761904Y-33733390D01*
X52761904Y-33733390D02*
X52190476Y-34304819D01*
X52190476Y-34304819D02*
X52809523Y-34304819D01*
D11*
X45063855Y-17266666D02*
X45635283Y-17266666D01*
X45635283Y-17266666D02*
X45749569Y-17304761D01*
X45749569Y-17304761D02*
X45825760Y-17380952D01*
X45825760Y-17380952D02*
X45863855Y-17495237D01*
X45863855Y-17495237D02*
X45863855Y-17571428D01*
X45063855Y-16504761D02*
X45063855Y-16885713D01*
X45063855Y-16885713D02*
X45444807Y-16923809D01*
X45444807Y-16923809D02*
X45406712Y-16885713D01*
X45406712Y-16885713D02*
X45368617Y-16809523D01*
X45368617Y-16809523D02*
X45368617Y-16619047D01*
X45368617Y-16619047D02*
X45406712Y-16542856D01*
X45406712Y-16542856D02*
X45444807Y-16504761D01*
X45444807Y-16504761D02*
X45520998Y-16466666D01*
X45520998Y-16466666D02*
X45711474Y-16466666D01*
X45711474Y-16466666D02*
X45787664Y-16504761D01*
X45787664Y-16504761D02*
X45825760Y-16542856D01*
X45825760Y-16542856D02*
X45863855Y-16619047D01*
X45863855Y-16619047D02*
X45863855Y-16809523D01*
X45863855Y-16809523D02*
X45825760Y-16885713D01*
X45825760Y-16885713D02*
X45787664Y-16923809D01*
%TO.C,J7*%
X50400000Y-27000000D02*
G75*
G02*
X47600000Y-27000000I-1400000J0D01*
G01*
X47600000Y-27000000D02*
G75*
G02*
X50400000Y-27000000I1400000J0D01*
G01*
%TO.C,R2*%
X35762742Y-9477500D02*
X36237258Y-9477500D01*
X35762742Y-10522500D02*
X36237258Y-10522500D01*
%TO.C,J10*%
X29400000Y-36000000D02*
G75*
G02*
X26600000Y-36000000I-1400000J0D01*
G01*
X26600000Y-36000000D02*
G75*
G02*
X29400000Y-36000000I1400000J0D01*
G01*
%TO.C,J3*%
X50400000Y-7000000D02*
G75*
G02*
X47600000Y-7000000I-1400000J0D01*
G01*
X47600000Y-7000000D02*
G75*
G02*
X50400000Y-7000000I1400000J0D01*
G01*
%TO.C,D1*%
X14000000Y-14360000D02*
X14000000Y-10350000D01*
X14000000Y-14360000D02*
X16000000Y-14360000D01*
X16000000Y-14360000D02*
X16000000Y-10350000D01*
%TO.C,R1*%
X14762742Y-21477500D02*
X15237258Y-21477500D01*
X14762742Y-22522500D02*
X15237258Y-22522500D01*
%TO.C,J2*%
X8400000Y-22000000D02*
G75*
G02*
X5600000Y-22000000I-1400000J0D01*
G01*
X5600000Y-22000000D02*
G75*
G02*
X8400000Y-22000000I1400000J0D01*
G01*
%TO.C,J11*%
X41400000Y-36000000D02*
G75*
G02*
X38600000Y-36000000I-1400000J0D01*
G01*
X38600000Y-36000000D02*
G75*
G02*
X41400000Y-36000000I1400000J0D01*
G01*
%TO.C,U1*%
X22765000Y-13130000D02*
X22765000Y-20870000D01*
X22765000Y-20870000D02*
X29235000Y-20870000D01*
X25000000Y-13130000D02*
X22765000Y-13130000D01*
X29235000Y-13130000D02*
X27000000Y-13130000D01*
X29235000Y-20870000D02*
X29235000Y-13130000D01*
X27000000Y-13130000D02*
G75*
G02*
X25000000Y-13130000I-1000000J0D01*
G01*
%TO.C,J4*%
X50400000Y-12000000D02*
G75*
G02*
X47600000Y-12000000I-1400000J0D01*
G01*
X47600000Y-12000000D02*
G75*
G02*
X50400000Y-12000000I1400000J0D01*
G01*
%TO.C,J8*%
X50400000Y-32000000D02*
G75*
G02*
X47600000Y-32000000I-1400000J0D01*
G01*
X47600000Y-32000000D02*
G75*
G02*
X50400000Y-32000000I1400000J0D01*
G01*
%TO.C,C1*%
X25859420Y-7490000D02*
X26140580Y-7490000D01*
X25859420Y-8510000D02*
X26140580Y-8510000D01*
%TO.C,J1*%
X8400000Y-14000000D02*
G75*
G02*
X5600000Y-14000000I-1400000J0D01*
G01*
X5600000Y-14000000D02*
G75*
G02*
X8400000Y-14000000I1400000J0D01*
G01*
%TO.C,R4*%
X27477500Y-29237258D02*
X27477500Y-28762742D01*
X28522500Y-29237258D02*
X28522500Y-28762742D01*
%TO.C,R3*%
X15477500Y-29237258D02*
X15477500Y-28762742D01*
X16522500Y-29237258D02*
X16522500Y-28762742D01*
%TO.C,J6*%
X50400000Y-22000000D02*
G75*
G02*
X47600000Y-22000000I-1400000J0D01*
G01*
X47600000Y-22000000D02*
G75*
G02*
X50400000Y-22000000I1400000J0D01*
G01*
%TO.C,J9*%
X17400000Y-36000000D02*
G75*
G02*
X14600000Y-36000000I-1400000J0D01*
G01*
X14600000Y-36000000D02*
G75*
G02*
X17400000Y-36000000I1400000J0D01*
G01*
%TO.C,J5*%
X50400000Y-17000000D02*
G75*
G02*
X47600000Y-17000000I-1400000J0D01*
G01*
X47600000Y-17000000D02*
G75*
G02*
X50400000Y-17000000I1400000J0D01*
G01*
%TD*%
M02*
