%TF.GenerationSoftware,KiCad,Pcbnew,10.0.6*%
%TF.CreationDate,2026-09-21T15:54:58+02:00*%
%TF.ProjectId,midi2ttl,6d696469-3274-4746-9c2e-6b696361645f,rev?*%
%TF.SameCoordinates,Original*%
%TF.FileFunction,Copper,L1,Top*%
%TF.FilePolarity,Positive*%
%FSLAX46Y46*%
G04 Gerber Fmt 4.6, Leading zero omitted, Abs format (unit mm)*
G04 Created by KiCad (PCBNEW 10.0.6) date 2026-09-21 15:54:58*
%MOMM*%
%LPD*%
G01*
G04 APERTURE LIST*
G04 Aperture macros list*
%AMRoundRect*
0 Rectangle with rounded corners*
0 $1 Rounding radius*
0 $2 $3 $4 $5 $6 $7 $8 $9 X,Y pos of 4 corners*
0 Add a 4 corners polygon primitive as box body*
4,1,4,$2,$3,$4,$5,$6,$7,$8,$9,$2,$3,0*
0 Add four circle primitives for the rounded corners*
1,1,$1+$1,$2,$3*
1,1,$1+$1,$4,$5*
1,1,$1+$1,$6,$7*
1,1,$1+$1,$8,$9*
0 Add four rect primitives between the rounded corners*
20,1,$1+$1,$2,$3,$4,$5,0*
20,1,$1+$1,$4,$5,$6,$7,0*
20,1,$1+$1,$6,$7,$8,$9,0*
20,1,$1+$1,$8,$9,$2,$3,0*%
G04 Aperture macros list end*
%TA.AperFunction,ComponentPad*%
%ADD10C,2.200000*%
%TD*%
%TA.AperFunction,SMDPad,CuDef*%
%ADD11RoundRect,0.200000X-0.200000X-0.275000X0.200000X-0.275000X0.200000X0.275000X-0.200000X0.275000X0*%
%TD*%
%TA.AperFunction,SMDPad,CuDef*%
%ADD12RoundRect,0.225000X0.375000X-0.225000X0.375000X0.225000X-0.375000X0.225000X-0.375000X-0.225000X0*%
%TD*%
%TA.AperFunction,SMDPad,CuDef*%
%ADD13RoundRect,0.249999X-0.750001X-0.640001X0.750001X-0.640001X0.750001X0.640001X-0.750001X0.640001X0*%
%TD*%
%TA.AperFunction,SMDPad,CuDef*%
%ADD14RoundRect,0.225000X-0.225000X-0.250000X0.225000X-0.250000X0.225000X0.250000X-0.225000X0.250000X0*%
%TD*%
%TA.AperFunction,SMDPad,CuDef*%
%ADD15RoundRect,0.200000X0.275000X-0.200000X0.275000X0.200000X-0.275000X0.200000X-0.275000X-0.200000X0*%
%TD*%
%TA.AperFunction,ViaPad*%
%ADD16C,0.600000*%
%TD*%
%TA.AperFunction,Conductor*%
%ADD17C,0.300000*%
%TD*%
%TA.AperFunction,Conductor*%
%ADD18C,0.350000*%
%TD*%
%TA.AperFunction,Conductor*%
%ADD19C,0.400000*%
%TD*%
%TA.AperFunction,Conductor*%
%ADD20C,0.250000*%
%TD*%
G04 APERTURE END LIST*
D10*
%TO.P,J7,1*%
%TO.N,GND*%
X49000000Y-27000000D03*
%TD*%
D11*
%TO.P,R2,1*%
%TO.N,VCC*%
X35175000Y-10000000D03*
%TO.P,R2,2*%
%TO.N,RX*%
X36825000Y-10000000D03*
%TD*%
D10*
%TO.P,J10,1*%
%TO.N,MIDI_OUT_5*%
X28000000Y-36000000D03*
%TD*%
%TO.P,J3,1*%
%TO.N,BOOT*%
X49000000Y-7000000D03*
%TD*%
D12*
%TO.P,D1,1*%
%TO.N,MIDI_IN_4*%
X15000000Y-13650000D03*
%TO.P,D1,2*%
%TO.N,OPTO_C*%
X15000000Y-10350000D03*
%TD*%
D11*
%TO.P,R1,1*%
%TO.N,MIDI_IN_5*%
X14175000Y-22000000D03*
%TO.P,R1,2*%
%TO.N,OPTO_C*%
X15825000Y-22000000D03*
%TD*%
D10*
%TO.P,J2,1*%
%TO.N,MIDI_IN_5*%
X7000000Y-22000000D03*
%TD*%
%TO.P,J11,1*%
%TO.N,GND*%
X40000000Y-36000000D03*
%TD*%
D13*
%TO.P,U1,1*%
%TO.N,MIDI_IN_4*%
X21235000Y-14460000D03*
%TO.P,U1,2*%
%TO.N,OPTO_C*%
X21235000Y-17000000D03*
%TO.P,U1,3*%
%TO.N,N/C*%
X21235000Y-19540000D03*
%TO.P,U1,4*%
%TO.N,GND*%
X30765000Y-19540000D03*
%TO.P,U1,5*%
%TO.N,RX*%
X30765000Y-17000000D03*
%TO.P,U1,6*%
%TO.N,VCC*%
X30765000Y-14460000D03*
%TD*%
D10*
%TO.P,J4,1*%
%TO.N,RX*%
X49000000Y-12000000D03*
%TD*%
%TO.P,J8,1*%
%TO.N,SCK*%
X49000000Y-32000000D03*
%TD*%
D14*
%TO.P,C1,1*%
%TO.N,VCC*%
X25225000Y-8000000D03*
%TO.P,C1,2*%
%TO.N,GND*%
X26775000Y-8000000D03*
%TD*%
D10*
%TO.P,J1,1*%
%TO.N,MIDI_IN_4*%
X7000000Y-14000000D03*
%TD*%
D15*
%TO.P,R4,1*%
%TO.N,MIDI_OUT_5*%
X28000000Y-29825000D03*
%TO.P,R4,2*%
%TO.N,TX*%
X28000000Y-28175000D03*
%TD*%
%TO.P,R3,1*%
%TO.N,MIDI_OUT_4*%
X16000000Y-29825000D03*
%TO.P,R3,2*%
%TO.N,VCC*%
X16000000Y-28175000D03*
%TD*%
D10*
%TO.P,J6,1*%
%TO.N,VCC*%
X49000000Y-22000000D03*
%TD*%
%TO.P,J9,1*%
%TO.N,MIDI_OUT_4*%
X16000000Y-36000000D03*
%TD*%
%TO.P,J5,1*%
%TO.N,TX*%
X49000000Y-17000000D03*
%TD*%
D16*
%TO.N,GND*%
X28275000Y-8000000D03*
%TO.N,VCC*%
X16000000Y-28175000D03*
X47500000Y-22000000D03*
X25225000Y-5500000D03*
%TO.N,RX*%
X43000000Y-12000000D03*
X47000000Y-12000000D03*
%TO.N,TX*%
X42000000Y-17000000D03*
X28000000Y-28175000D03*
%TD*%
%TO.N,GND*%
D17*
X26775000Y-8000000D02*
X28275000Y-8000000D01*
%TO.N,VCC*%
D18*
X35175000Y-5500000D02*
X35175000Y-10000000D01*
D19*
X30765000Y-14460000D02*
X30765000Y-5500000D01*
D18*
X25225000Y-5500000D02*
X35175000Y-5500000D01*
D19*
X30765000Y-5500000D02*
X25225000Y-5500000D01*
X25225000Y-5500000D02*
X25225000Y-8000000D01*
%TO.N,RX*%
D17*
X36825000Y-10000000D02*
X36825000Y-12000000D01*
X36825000Y-12000000D02*
X43000000Y-12000000D01*
X36825000Y-17000000D02*
X36825000Y-10000000D01*
X30765000Y-17000000D02*
X36825000Y-17000000D01*
%TO.N,TX*%
X49000000Y-17000000D02*
X42000000Y-17000000D01*
%TO.N,MIDI_IN_4*%
X13000000Y-13650000D02*
X13000000Y-12000000D01*
X15000000Y-13650000D02*
X13000000Y-13650000D01*
X13000000Y-12000000D02*
X21235000Y-12000000D01*
X21235000Y-12000000D02*
X21235000Y-14460000D01*
D18*
X7000000Y-14000000D02*
X15000000Y-13650000D01*
%TO.N,MIDI_IN_5*%
X7000000Y-22000000D02*
X14175000Y-22000000D01*
%TO.N,MIDI_OUT_4*%
D17*
X16000000Y-29825000D02*
X16000000Y-36000000D01*
%TO.N,MIDI_OUT_5*%
X28000000Y-29825000D02*
X28000000Y-36000000D01*
%TO.N,OPTO_C*%
D20*
X18500000Y-10350000D02*
X18500000Y-17000000D01*
X18500000Y-17000000D02*
X21235000Y-17000000D01*
X18500000Y-22000000D02*
X18500000Y-17000000D01*
X15825000Y-22000000D02*
X18500000Y-22000000D01*
X15000000Y-10350000D02*
X18500000Y-10350000D01*
%TD*%
%TA.AperFunction,Conductor*%
%TO.N,GND*%
G36*
X55458691Y-519407D02*
G01*
X55494655Y-568907D01*
X55499500Y-599500D01*
X55499500Y-6029921D01*
X55480593Y-6088112D01*
X55431093Y-6124076D01*
X55369907Y-6124076D01*
X55362615Y-6121385D01*
X55277251Y-6086027D01*
X55093618Y-6049500D01*
X55093616Y-6049500D01*
X54906384Y-6049500D01*
X54906381Y-6049500D01*
X54722750Y-6086026D01*
X54549770Y-6157677D01*
X54549761Y-6157681D01*
X54394092Y-6261698D01*
X54394088Y-6261701D01*
X54261701Y-6394088D01*
X54261698Y-6394092D01*
X54157681Y-6549761D01*
X54157677Y-6549770D01*
X54086026Y-6722750D01*
X54049500Y-6906381D01*
X54049500Y-7093618D01*
X54086026Y-7277249D01*
X54157677Y-7450229D01*
X54157681Y-7450238D01*
X54204307Y-7520017D01*
X54261698Y-7605908D01*
X54394092Y-7738302D01*
X54460463Y-7782649D01*
X54549761Y-7842318D01*
X54549767Y-7842320D01*
X54549769Y-7842322D01*
X54722749Y-7913973D01*
X54906384Y-7950500D01*
X54906385Y-7950500D01*
X55093615Y-7950500D01*
X55093616Y-7950500D01*
X55277251Y-7913973D01*
X55362614Y-7878613D01*
X55423611Y-7873813D01*
X55475780Y-7905783D01*
X55499195Y-7962311D01*
X55499500Y-7970078D01*
X55499500Y-11029921D01*
X55480593Y-11088112D01*
X55431093Y-11124076D01*
X55369907Y-11124076D01*
X55362615Y-11121385D01*
X55277251Y-11086027D01*
X55093618Y-11049500D01*
X55093616Y-11049500D01*
X54906384Y-11049500D01*
X54906381Y-11049500D01*
X54722750Y-11086026D01*
X54549770Y-11157677D01*
X54549761Y-11157681D01*
X54394092Y-11261698D01*
X54394088Y-11261701D01*
X54261701Y-11394088D01*
X54261698Y-11394092D01*
X54157681Y-11549761D01*
X54157677Y-11549770D01*
X54086026Y-11722750D01*
X54049500Y-11906381D01*
X54049500Y-12093618D01*
X54086026Y-12277249D01*
X54157677Y-12450229D01*
X54157681Y-12450238D01*
X54232065Y-12561559D01*
X54261698Y-12605908D01*
X54394092Y-12738302D01*
X54460463Y-12782649D01*
X54549761Y-12842318D01*
X54549767Y-12842320D01*
X54549769Y-12842322D01*
X54722749Y-12913973D01*
X54906384Y-12950500D01*
X54906385Y-12950500D01*
X55093615Y-12950500D01*
X55093616Y-12950500D01*
X55277251Y-12913973D01*
X55362614Y-12878613D01*
X55423611Y-12873813D01*
X55475780Y-12905783D01*
X55499195Y-12962311D01*
X55499500Y-12970078D01*
X55499500Y-16029921D01*
X55480593Y-16088112D01*
X55431093Y-16124076D01*
X55369907Y-16124076D01*
X55362615Y-16121385D01*
X55277251Y-16086027D01*
X55093618Y-16049500D01*
X55093616Y-16049500D01*
X54906384Y-16049500D01*
X54906381Y-16049500D01*
X54722750Y-16086026D01*
X54549770Y-16157677D01*
X54549761Y-16157681D01*
X54394092Y-16261698D01*
X54394088Y-16261701D01*
X54261701Y-16394088D01*
X54261698Y-16394092D01*
X54157681Y-16549761D01*
X54157677Y-16549770D01*
X54086026Y-16722750D01*
X54049500Y-16906381D01*
X54049500Y-17093618D01*
X54086026Y-17277249D01*
X54157677Y-17450229D01*
X54157681Y-17450238D01*
X54232065Y-17561559D01*
X54261698Y-17605908D01*
X54394092Y-17738302D01*
X54460463Y-17782649D01*
X54549761Y-17842318D01*
X54549767Y-17842320D01*
X54549769Y-17842322D01*
X54722749Y-17913973D01*
X54906384Y-17950500D01*
X54906385Y-17950500D01*
X55093615Y-17950500D01*
X55093616Y-17950500D01*
X55277251Y-17913973D01*
X55362614Y-17878613D01*
X55423611Y-17873813D01*
X55475780Y-17905783D01*
X55499195Y-17962311D01*
X55499500Y-17970078D01*
X55499500Y-21029921D01*
X55480593Y-21088112D01*
X55431093Y-21124076D01*
X55369907Y-21124076D01*
X55362615Y-21121385D01*
X55277251Y-21086027D01*
X55093618Y-21049500D01*
X55093616Y-21049500D01*
X54906384Y-21049500D01*
X54906381Y-21049500D01*
X54722750Y-21086026D01*
X54549770Y-21157677D01*
X54549761Y-21157681D01*
X54394092Y-21261698D01*
X54394088Y-21261701D01*
X54261701Y-21394088D01*
X54261698Y-21394092D01*
X54157681Y-21549761D01*
X54157677Y-21549770D01*
X54086026Y-21722750D01*
X54049500Y-21906381D01*
X54049500Y-22093618D01*
X54086026Y-22277249D01*
X54157677Y-22450229D01*
X54157681Y-22450238D01*
X54232065Y-22561559D01*
X54261698Y-22605908D01*
X54394092Y-22738302D01*
X54460463Y-22782649D01*
X54549761Y-22842318D01*
X54549767Y-22842320D01*
X54549769Y-22842322D01*
X54722749Y-22913973D01*
X54906384Y-22950500D01*
X54906385Y-22950500D01*
X55093615Y-22950500D01*
X55093616Y-22950500D01*
X55277251Y-22913973D01*
X55362614Y-22878613D01*
X55423611Y-22873813D01*
X55475780Y-22905783D01*
X55499195Y-22962311D01*
X55499500Y-22970078D01*
X55499500Y-26029921D01*
X55480593Y-26088112D01*
X55431093Y-26124076D01*
X55369907Y-26124076D01*
X55362615Y-26121385D01*
X55277251Y-26086027D01*
X55093618Y-26049500D01*
X55093616Y-26049500D01*
X54906384Y-26049500D01*
X54906381Y-26049500D01*
X54722750Y-26086026D01*
X54549770Y-26157677D01*
X54549761Y-26157681D01*
X54394092Y-26261698D01*
X54394088Y-26261701D01*
X54261701Y-26394088D01*
X54261698Y-26394092D01*
X54157681Y-26549761D01*
X54157677Y-26549770D01*
X54086026Y-26722750D01*
X54049500Y-26906381D01*
X54049500Y-27093618D01*
X54086026Y-27277249D01*
X54157677Y-27450229D01*
X54157681Y-27450238D01*
X54232065Y-27561559D01*
X54261698Y-27605908D01*
X54394092Y-27738302D01*
X54460463Y-27782649D01*
X54549761Y-27842318D01*
X54549767Y-27842320D01*
X54549769Y-27842322D01*
X54722749Y-27913973D01*
X54906384Y-27950500D01*
X54906385Y-27950500D01*
X55093615Y-27950500D01*
X55093616Y-27950500D01*
X55277251Y-27913973D01*
X55362614Y-27878613D01*
X55423611Y-27873813D01*
X55475780Y-27905783D01*
X55499195Y-27962311D01*
X55499500Y-27970078D01*
X55499500Y-31029921D01*
X55480593Y-31088112D01*
X55431093Y-31124076D01*
X55369907Y-31124076D01*
X55362615Y-31121385D01*
X55277251Y-31086027D01*
X55093618Y-31049500D01*
X55093616Y-31049500D01*
X54906384Y-31049500D01*
X54906381Y-31049500D01*
X54722750Y-31086026D01*
X54549770Y-31157677D01*
X54549761Y-31157681D01*
X54394092Y-31261698D01*
X54394088Y-31261701D01*
X54261701Y-31394088D01*
X54261698Y-31394092D01*
X54157681Y-31549761D01*
X54157677Y-31549770D01*
X54086026Y-31722750D01*
X54049500Y-31906381D01*
X54049500Y-32093618D01*
X54086026Y-32277249D01*
X54157677Y-32450229D01*
X54157681Y-32450238D01*
X54232065Y-32561559D01*
X54261698Y-32605908D01*
X54394092Y-32738302D01*
X54460463Y-32782649D01*
X54549761Y-32842318D01*
X54549767Y-32842320D01*
X54549769Y-32842322D01*
X54722749Y-32913973D01*
X54906384Y-32950500D01*
X54906385Y-32950500D01*
X55093615Y-32950500D01*
X55093616Y-32950500D01*
X55277251Y-32913973D01*
X55362614Y-32878613D01*
X55423611Y-32873813D01*
X55475780Y-32905783D01*
X55499195Y-32962311D01*
X55499500Y-32970078D01*
X55499500Y-41400500D01*
X55480593Y-41458691D01*
X55431093Y-41494655D01*
X55400500Y-41499500D01*
X40861650Y-41499500D01*
X40803459Y-41480593D01*
X40779334Y-41455501D01*
X40738302Y-41394092D01*
X40605916Y-41261705D01*
X40605911Y-41261701D01*
X40605908Y-41261698D01*
X40561559Y-41232065D01*
X40450238Y-41157681D01*
X40450229Y-41157677D01*
X40277249Y-41086026D01*
X40093618Y-41049500D01*
X40093616Y-41049500D01*
X39906384Y-41049500D01*
X39906381Y-41049500D01*
X39722750Y-41086026D01*
X39549770Y-41157677D01*
X39549761Y-41157681D01*
X39394092Y-41261698D01*
X39394083Y-41261705D01*
X39261697Y-41394092D01*
X39220666Y-41455501D01*
X39172616Y-41493381D01*
X39138350Y-41499500D01*
X28861650Y-41499500D01*
X28803459Y-41480593D01*
X28779334Y-41455501D01*
X28738302Y-41394092D01*
X28605916Y-41261705D01*
X28605911Y-41261701D01*
X28605908Y-41261698D01*
X28561559Y-41232065D01*
X28450238Y-41157681D01*
X28450229Y-41157677D01*
X28277249Y-41086026D01*
X28093618Y-41049500D01*
X28093616Y-41049500D01*
X27906384Y-41049500D01*
X27906381Y-41049500D01*
X27722750Y-41086026D01*
X27549770Y-41157677D01*
X27549761Y-41157681D01*
X27394092Y-41261698D01*
X27394083Y-41261705D01*
X27261697Y-41394092D01*
X27220666Y-41455501D01*
X27172616Y-41493381D01*
X27138350Y-41499500D01*
X16861650Y-41499500D01*
X16803459Y-41480593D01*
X16779334Y-41455501D01*
X16738302Y-41394092D01*
X16605916Y-41261705D01*
X16605911Y-41261701D01*
X16605908Y-41261698D01*
X16561559Y-41232065D01*
X16450238Y-41157681D01*
X16450229Y-41157677D01*
X16277249Y-41086026D01*
X16093618Y-41049500D01*
X16093616Y-41049500D01*
X15906384Y-41049500D01*
X15906381Y-41049500D01*
X15722750Y-41086026D01*
X15549770Y-41157677D01*
X15549761Y-41157681D01*
X15394092Y-41261698D01*
X15394083Y-41261705D01*
X15261697Y-41394092D01*
X15220666Y-41455501D01*
X15172616Y-41493381D01*
X15138350Y-41499500D01*
X599500Y-41499500D01*
X541309Y-41480593D01*
X505345Y-41431093D01*
X500500Y-41400500D01*
X500500Y-39406381D01*
X15049500Y-39406381D01*
X15049500Y-39593618D01*
X15086026Y-39777249D01*
X15157677Y-39950229D01*
X15157681Y-39950238D01*
X15232065Y-40061559D01*
X15261698Y-40105908D01*
X15394092Y-40238302D01*
X15460463Y-40282649D01*
X15549761Y-40342318D01*
X15549767Y-40342320D01*
X15549769Y-40342322D01*
X15722749Y-40413973D01*
X15906384Y-40450500D01*
X15906385Y-40450500D01*
X16093615Y-40450500D01*
X16093616Y-40450500D01*
X16277251Y-40413973D01*
X16450231Y-40342322D01*
X16450234Y-40342319D01*
X16450238Y-40342318D01*
X16495187Y-40312282D01*
X16605908Y-40238302D01*
X16738302Y-40105908D01*
X16812282Y-39995187D01*
X16842318Y-39950238D01*
X16842319Y-39950234D01*
X16842322Y-39950231D01*
X16913973Y-39777251D01*
X16950500Y-39593616D01*
X16950500Y-39406384D01*
X16950499Y-39406381D01*
X27049500Y-39406381D01*
X27049500Y-39593618D01*
X27086026Y-39777249D01*
X27157677Y-39950229D01*
X27157681Y-39950238D01*
X27232065Y-40061559D01*
X27261698Y-40105908D01*
X27394092Y-40238302D01*
X27460463Y-40282649D01*
X27549761Y-40342318D01*
X27549767Y-40342320D01*
X27549769Y-40342322D01*
X27722749Y-40413973D01*
X27906384Y-40450500D01*
X27906385Y-40450500D01*
X28093615Y-40450500D01*
X28093616Y-40450500D01*
X28277251Y-40413973D01*
X28450231Y-40342322D01*
X28450234Y-40342319D01*
X28450238Y-40342318D01*
X28495187Y-40312282D01*
X28605908Y-40238302D01*
X28738302Y-40105908D01*
X28812282Y-39995187D01*
X28842318Y-39950238D01*
X28842319Y-39950234D01*
X28842322Y-39950231D01*
X28913973Y-39777251D01*
X28950500Y-39593616D01*
X28950500Y-39406384D01*
X28950499Y-39406381D01*
X39049500Y-39406381D01*
X39049500Y-39593618D01*
X39086026Y-39777249D01*
X39157677Y-39950229D01*
X39157681Y-39950238D01*
X39232065Y-40061559D01*
X39261698Y-40105908D01*
X39394092Y-40238302D01*
X39460463Y-40282649D01*
X39549761Y-40342318D01*
X39549767Y-40342320D01*
X39549769Y-40342322D01*
X39722749Y-40413973D01*
X39906384Y-40450500D01*
X39906385Y-40450500D01*
X40093615Y-40450500D01*
X40093616Y-40450500D01*
X40277251Y-40413973D01*
X40450231Y-40342322D01*
X40450234Y-40342319D01*
X40450238Y-40342318D01*
X40495187Y-40312282D01*
X40605908Y-40238302D01*
X40738302Y-40105908D01*
X40812282Y-39995187D01*
X40842318Y-39950238D01*
X40842319Y-39950234D01*
X40842322Y-39950231D01*
X40913973Y-39777251D01*
X40950500Y-39593616D01*
X40950500Y-39406384D01*
X40913973Y-39222749D01*
X40842322Y-39049769D01*
X40842320Y-39049767D01*
X40842318Y-39049761D01*
X40782649Y-38960463D01*
X40738302Y-38894092D01*
X40605908Y-38761698D01*
X40561559Y-38732065D01*
X40450238Y-38657681D01*
X40450229Y-38657677D01*
X40277249Y-38586026D01*
X40093618Y-38549500D01*
X40093616Y-38549500D01*
X39906384Y-38549500D01*
X39906381Y-38549500D01*
X39722750Y-38586026D01*
X39549770Y-38657677D01*
X39549761Y-38657681D01*
X39394092Y-38761698D01*
X39394088Y-38761701D01*
X39261701Y-38894088D01*
X39261698Y-38894092D01*
X39157681Y-39049761D01*
X39157677Y-39049770D01*
X39086026Y-39222750D01*
X39049500Y-39406381D01*
X28950499Y-39406381D01*
X28913973Y-39222749D01*
X28842322Y-39049769D01*
X28842320Y-39049767D01*
X28842318Y-39049761D01*
X28782649Y-38960463D01*
X28738302Y-38894092D01*
X28605908Y-38761698D01*
X28561559Y-38732065D01*
X28450238Y-38657681D01*
X28450229Y-38657677D01*
X28277249Y-38586026D01*
X28093618Y-38549500D01*
X28093616Y-38549500D01*
X27906384Y-38549500D01*
X27906381Y-38549500D01*
X27722750Y-38586026D01*
X27549770Y-38657677D01*
X27549761Y-38657681D01*
X27394092Y-38761698D01*
X27394088Y-38761701D01*
X27261701Y-38894088D01*
X27261698Y-38894092D01*
X27157681Y-39049761D01*
X27157677Y-39049770D01*
X27086026Y-39222750D01*
X27049500Y-39406381D01*
X16950499Y-39406381D01*
X16913973Y-39222749D01*
X16842322Y-39049769D01*
X16842320Y-39049767D01*
X16842318Y-39049761D01*
X16782649Y-38960463D01*
X16738302Y-38894092D01*
X16605908Y-38761698D01*
X16561559Y-38732065D01*
X16450238Y-38657681D01*
X16450229Y-38657677D01*
X16277249Y-38586026D01*
X16093618Y-38549500D01*
X16093616Y-38549500D01*
X15906384Y-38549500D01*
X15906381Y-38549500D01*
X15722750Y-38586026D01*
X15549770Y-38657677D01*
X15549761Y-38657681D01*
X15394092Y-38761698D01*
X15394088Y-38761701D01*
X15261701Y-38894088D01*
X15261698Y-38894092D01*
X15157681Y-39049761D01*
X15157677Y-39049770D01*
X15086026Y-39222750D01*
X15049500Y-39406381D01*
X500500Y-39406381D01*
X500500Y-37878710D01*
X50149500Y-37878710D01*
X50149500Y-38121289D01*
X50181161Y-38361781D01*
X50181161Y-38361786D01*
X50181162Y-38361789D01*
X50231459Y-38549500D01*
X50243944Y-38596092D01*
X50243948Y-38596105D01*
X50336772Y-38820204D01*
X50336774Y-38820208D01*
X50336776Y-38820212D01*
X50379431Y-38894092D01*
X50458066Y-39030292D01*
X50605729Y-39222731D01*
X50605731Y-39222733D01*
X50605735Y-39222738D01*
X50777262Y-39394265D01*
X50777266Y-39394268D01*
X50777268Y-39394270D01*
X50793057Y-39406385D01*
X50969711Y-39541936D01*
X51179788Y-39663224D01*
X51403900Y-39756054D01*
X51638211Y-39818838D01*
X51878712Y-39850500D01*
X51878713Y-39850500D01*
X52121287Y-39850500D01*
X52121288Y-39850500D01*
X52361789Y-39818838D01*
X52596100Y-39756054D01*
X52820212Y-39663224D01*
X53030289Y-39541936D01*
X53222738Y-39394265D01*
X53394265Y-39222738D01*
X53541936Y-39030289D01*
X53663224Y-38820212D01*
X53756054Y-38596100D01*
X53818838Y-38361789D01*
X53850500Y-38121288D01*
X53850500Y-37878712D01*
X53818838Y-37638211D01*
X53756054Y-37403900D01*
X53663224Y-37179788D01*
X53541936Y-36969711D01*
X53394265Y-36777262D01*
X53222738Y-36605735D01*
X53222733Y-36605731D01*
X53222731Y-36605729D01*
X53030292Y-36458066D01*
X53030289Y-36458064D01*
X52820212Y-36336776D01*
X52820208Y-36336774D01*
X52820204Y-36336772D01*
X52596105Y-36243948D01*
X52596104Y-36243947D01*
X52596100Y-36243946D01*
X52361789Y-36181162D01*
X52361786Y-36181161D01*
X52361784Y-36181161D01*
X52121289Y-36149500D01*
X52121288Y-36149500D01*
X51878712Y-36149500D01*
X51878710Y-36149500D01*
X51638218Y-36181161D01*
X51638213Y-36181161D01*
X51403907Y-36243944D01*
X51403894Y-36243948D01*
X51179795Y-36336772D01*
X50969707Y-36458066D01*
X50777268Y-36605729D01*
X50605729Y-36777268D01*
X50458066Y-36969707D01*
X50336772Y-37179795D01*
X50243948Y-37403894D01*
X50243944Y-37403907D01*
X50181161Y-37638213D01*
X50181161Y-37638218D01*
X50149500Y-37878710D01*
X500500Y-37878710D01*
X500500Y-35893709D01*
X14649500Y-35893709D01*
X14649500Y-36106290D01*
X14682752Y-36316238D01*
X14748443Y-36518412D01*
X14844948Y-36707815D01*
X14844950Y-36707819D01*
X14969891Y-36879786D01*
X14969893Y-36879788D01*
X14969896Y-36879792D01*
X15120208Y-37030104D01*
X15120211Y-37030106D01*
X15120213Y-37030108D01*
X15292180Y-37155049D01*
X15292184Y-37155051D01*
X15481588Y-37251557D01*
X15683757Y-37317246D01*
X15683758Y-37317246D01*
X15683761Y-37317247D01*
X15893710Y-37350500D01*
X15893713Y-37350500D01*
X16106290Y-37350500D01*
X16316238Y-37317247D01*
X16316239Y-37317246D01*
X16316243Y-37317246D01*
X16518412Y-37251557D01*
X16707816Y-37155051D01*
X16879792Y-37030104D01*
X17030104Y-36879792D01*
X17155051Y-36707816D01*
X17251557Y-36518412D01*
X17317246Y-36316243D01*
X17317247Y-36316238D01*
X17350500Y-36106290D01*
X17350500Y-35893709D01*
X26649500Y-35893709D01*
X26649500Y-36106290D01*
X26682752Y-36316238D01*
X26748443Y-36518412D01*
X26844948Y-36707815D01*
X26844950Y-36707819D01*
X26969891Y-36879786D01*
X26969893Y-36879788D01*
X26969896Y-36879792D01*
X27120208Y-37030104D01*
X27120211Y-37030106D01*
X27120213Y-37030108D01*
X27292180Y-37155049D01*
X27292184Y-37155051D01*
X27481588Y-37251557D01*
X27683757Y-37317246D01*
X27683758Y-37317246D01*
X27683761Y-37317247D01*
X27893710Y-37350500D01*
X27893713Y-37350500D01*
X28106290Y-37350500D01*
X28316238Y-37317247D01*
X28316239Y-37317246D01*
X28316243Y-37317246D01*
X28518412Y-37251557D01*
X28707816Y-37155051D01*
X28879792Y-37030104D01*
X29030104Y-36879792D01*
X29155051Y-36707816D01*
X29251557Y-36518412D01*
X29317246Y-36316243D01*
X29317247Y-36316238D01*
X29350500Y-36106290D01*
X29350500Y-35893749D01*
X38650000Y-35893749D01*
X38650000Y-36106250D01*
X38683240Y-36316121D01*
X38748904Y-36518215D01*
X38845375Y-36707551D01*
X38944240Y-36843626D01*
X39556328Y-36231536D01*
X39599901Y-36307007D01*
X39692993Y-36400099D01*
X39768460Y-36443670D01*
X39156372Y-37055758D01*
X39156372Y-37055759D01*
X39292440Y-37154619D01*
X39292446Y-37154623D01*
X39481784Y-37251095D01*
X39683878Y-37316759D01*
X39893750Y-37350000D01*
X40106250Y-37350000D01*
X40316121Y-37316759D01*
X40518215Y-37251095D01*
X40707553Y-37154623D01*
X40707559Y-37154619D01*
X40843626Y-37055759D01*
X40843626Y-37055758D01*
X40231538Y-36443670D01*
X40307007Y-36400099D01*
X40400099Y-36307007D01*
X40443670Y-36231538D01*
X41055758Y-36843626D01*
X41055759Y-36843626D01*
X41154619Y-36707559D01*
X41154623Y-36707553D01*
X41251095Y-36518215D01*
X41316759Y-36316121D01*
X41350000Y-36106250D01*
X41350000Y-35893749D01*
X41316759Y-35683878D01*
X41251095Y-35481784D01*
X41154623Y-35292446D01*
X41154619Y-35292440D01*
X41055759Y-35156372D01*
X41055758Y-35156372D01*
X40443670Y-35768460D01*
X40400099Y-35692993D01*
X40307007Y-35599901D01*
X40231536Y-35556328D01*
X40843626Y-34944240D01*
X40707551Y-34845375D01*
X40518215Y-34748904D01*
X40316121Y-34683240D01*
X40106250Y-34650000D01*
X39893750Y-34650000D01*
X39683878Y-34683240D01*
X39481784Y-34748904D01*
X39292446Y-34845376D01*
X39292442Y-34845378D01*
X39156372Y-34944239D01*
X39768461Y-35556328D01*
X39692993Y-35599901D01*
X39599901Y-35692993D01*
X39556328Y-35768461D01*
X38944239Y-35156372D01*
X38845378Y-35292442D01*
X38845376Y-35292446D01*
X38748904Y-35481784D01*
X38683240Y-35683878D01*
X38650000Y-35893749D01*
X29350500Y-35893749D01*
X29350500Y-35893709D01*
X29317247Y-35683761D01*
X29257539Y-35500000D01*
X29251557Y-35481588D01*
X29155051Y-35292184D01*
X29155049Y-35292180D01*
X29030108Y-35120213D01*
X29030106Y-35120211D01*
X29030104Y-35120208D01*
X28879792Y-34969896D01*
X28879788Y-34969893D01*
X28879786Y-34969891D01*
X28707819Y-34844950D01*
X28707815Y-34844948D01*
X28618324Y-34799350D01*
X28518412Y-34748443D01*
X28518409Y-34748442D01*
X28518407Y-34748441D01*
X28468906Y-34732357D01*
X28419407Y-34696393D01*
X28400500Y-34638203D01*
X28400500Y-31893709D01*
X47649500Y-31893709D01*
X47649500Y-32106290D01*
X47682752Y-32316238D01*
X47748443Y-32518412D01*
X47844948Y-32707815D01*
X47844950Y-32707819D01*
X47969891Y-32879786D01*
X47969893Y-32879788D01*
X47969896Y-32879792D01*
X48120208Y-33030104D01*
X48120211Y-33030106D01*
X48120213Y-33030108D01*
X48292180Y-33155049D01*
X48292184Y-33155051D01*
X48481588Y-33251557D01*
X48683757Y-33317246D01*
X48683758Y-33317246D01*
X48683761Y-33317247D01*
X48893710Y-33350500D01*
X48893713Y-33350500D01*
X49106290Y-33350500D01*
X49316238Y-33317247D01*
X49316239Y-33317246D01*
X49316243Y-33317246D01*
X49518412Y-33251557D01*
X49707816Y-33155051D01*
X49879792Y-33030104D01*
X50030104Y-32879792D01*
X50155051Y-32707816D01*
X50251557Y-32518412D01*
X50317246Y-32316243D01*
X50350500Y-32106287D01*
X50350500Y-31906381D01*
X51549500Y-31906381D01*
X51549500Y-32093618D01*
X51586026Y-32277249D01*
X51657677Y-32450229D01*
X51657681Y-32450238D01*
X51732065Y-32561559D01*
X51761698Y-32605908D01*
X51894092Y-32738302D01*
X51960463Y-32782649D01*
X52049761Y-32842318D01*
X52049767Y-32842320D01*
X52049769Y-32842322D01*
X52222749Y-32913973D01*
X52406384Y-32950500D01*
X52406385Y-32950500D01*
X52593615Y-32950500D01*
X52593616Y-32950500D01*
X52777251Y-32913973D01*
X52950231Y-32842322D01*
X52950234Y-32842319D01*
X52950238Y-32842318D01*
X52999501Y-32809401D01*
X53105908Y-32738302D01*
X53238302Y-32605908D01*
X53312282Y-32495187D01*
X53342318Y-32450238D01*
X53342319Y-32450234D01*
X53342322Y-32450231D01*
X53413973Y-32277251D01*
X53450500Y-32093616D01*
X53450500Y-31906384D01*
X53413973Y-31722749D01*
X53342322Y-31549769D01*
X53342320Y-31549767D01*
X53342318Y-31549761D01*
X53282649Y-31460463D01*
X53238302Y-31394092D01*
X53105908Y-31261698D01*
X53061559Y-31232065D01*
X52950238Y-31157681D01*
X52950229Y-31157677D01*
X52777249Y-31086026D01*
X52593618Y-31049500D01*
X52593616Y-31049500D01*
X52406384Y-31049500D01*
X52406381Y-31049500D01*
X52222750Y-31086026D01*
X52049770Y-31157677D01*
X52049761Y-31157681D01*
X51894092Y-31261698D01*
X51894088Y-31261701D01*
X51761701Y-31394088D01*
X51761698Y-31394092D01*
X51657681Y-31549761D01*
X51657677Y-31549770D01*
X51586026Y-31722750D01*
X51549500Y-31906381D01*
X50350500Y-31906381D01*
X50350500Y-31893713D01*
X50350500Y-31893709D01*
X50317247Y-31683761D01*
X50317246Y-31683757D01*
X50251557Y-31481588D01*
X50155051Y-31292184D01*
X50155049Y-31292180D01*
X50030108Y-31120213D01*
X50030106Y-31120211D01*
X50030104Y-31120208D01*
X49879792Y-30969896D01*
X49879788Y-30969893D01*
X49879786Y-30969891D01*
X49707819Y-30844950D01*
X49707815Y-30844948D01*
X49518412Y-30748443D01*
X49316238Y-30682752D01*
X49106290Y-30649500D01*
X49106287Y-30649500D01*
X48893713Y-30649500D01*
X48893710Y-30649500D01*
X48683761Y-30682752D01*
X48481587Y-30748443D01*
X48292184Y-30844948D01*
X48292180Y-30844950D01*
X48120213Y-30969891D01*
X47969891Y-31120213D01*
X47844950Y-31292180D01*
X47844948Y-31292184D01*
X47748443Y-31481587D01*
X47682752Y-31683761D01*
X47649500Y-31893709D01*
X28400500Y-31893709D01*
X28400500Y-30528613D01*
X28419407Y-30470422D01*
X28466800Y-30435169D01*
X28487882Y-30427793D01*
X28597150Y-30347150D01*
X28677793Y-30237882D01*
X28722646Y-30109699D01*
X28725499Y-30079273D01*
X28725500Y-30079273D01*
X28725500Y-29570727D01*
X28725499Y-29570725D01*
X28722646Y-29540305D01*
X28722646Y-29540301D01*
X28677793Y-29412118D01*
X28597150Y-29302850D01*
X28597146Y-29302847D01*
X28597144Y-29302845D01*
X28487883Y-29222207D01*
X28359703Y-29177355D01*
X28359694Y-29177353D01*
X28329274Y-29174500D01*
X28329266Y-29174500D01*
X27670734Y-29174500D01*
X27670725Y-29174500D01*
X27640305Y-29177353D01*
X27640296Y-29177355D01*
X27512116Y-29222207D01*
X27402855Y-29302845D01*
X27402845Y-29302855D01*
X27322207Y-29412116D01*
X27277355Y-29540296D01*
X27277353Y-29540305D01*
X27274500Y-29570725D01*
X27274500Y-30079274D01*
X27277353Y-30109694D01*
X27277355Y-30109703D01*
X27322207Y-30237883D01*
X27402845Y-30347144D01*
X27402847Y-30347146D01*
X27402850Y-30347150D01*
X27402853Y-30347152D01*
X27402855Y-30347154D01*
X27512114Y-30427791D01*
X27512116Y-30427791D01*
X27512118Y-30427793D01*
X27533198Y-30435169D01*
X27581878Y-30472233D01*
X27599500Y-30528613D01*
X27599500Y-34638203D01*
X27580593Y-34696394D01*
X27531094Y-34732357D01*
X27481593Y-34748441D01*
X27481592Y-34748441D01*
X27292184Y-34844948D01*
X27292180Y-34844950D01*
X27120213Y-34969891D01*
X26969891Y-35120213D01*
X26844950Y-35292180D01*
X26844948Y-35292184D01*
X26748443Y-35481587D01*
X26682752Y-35683761D01*
X26649500Y-35893709D01*
X17350500Y-35893709D01*
X17317247Y-35683761D01*
X17257539Y-35500000D01*
X17251557Y-35481588D01*
X17155051Y-35292184D01*
X17155049Y-35292180D01*
X17030108Y-35120213D01*
X17030106Y-35120211D01*
X17030104Y-35120208D01*
X16879792Y-34969896D01*
X16879788Y-34969893D01*
X16879786Y-34969891D01*
X16707819Y-34844950D01*
X16707815Y-34844948D01*
X16618324Y-34799350D01*
X16518412Y-34748443D01*
X16518409Y-34748442D01*
X16518407Y-34748441D01*
X16468906Y-34732357D01*
X16419407Y-34696393D01*
X16400500Y-34638203D01*
X16400500Y-30528613D01*
X16419407Y-30470422D01*
X16466800Y-30435169D01*
X16487882Y-30427793D01*
X16597150Y-30347150D01*
X16677793Y-30237882D01*
X16722646Y-30109699D01*
X16725499Y-30079273D01*
X16725500Y-30079273D01*
X16725500Y-29570727D01*
X16725499Y-29570725D01*
X16722646Y-29540305D01*
X16722646Y-29540301D01*
X16677793Y-29412118D01*
X16597150Y-29302850D01*
X16597146Y-29302847D01*
X16597144Y-29302845D01*
X16487883Y-29222207D01*
X16359703Y-29177355D01*
X16359694Y-29177353D01*
X16329274Y-29174500D01*
X16329266Y-29174500D01*
X15670734Y-29174500D01*
X15670725Y-29174500D01*
X15640305Y-29177353D01*
X15640296Y-29177355D01*
X15512116Y-29222207D01*
X15402855Y-29302845D01*
X15402845Y-29302855D01*
X15322207Y-29412116D01*
X15277355Y-29540296D01*
X15277353Y-29540305D01*
X15274500Y-29570725D01*
X15274500Y-30079274D01*
X15277353Y-30109694D01*
X15277355Y-30109703D01*
X15322207Y-30237883D01*
X15402845Y-30347144D01*
X15402847Y-30347146D01*
X15402850Y-30347150D01*
X15402853Y-30347152D01*
X15402855Y-30347154D01*
X15512114Y-30427791D01*
X15512116Y-30427791D01*
X15512118Y-30427793D01*
X15533198Y-30435169D01*
X15581878Y-30472233D01*
X15599500Y-30528613D01*
X15599500Y-34638203D01*
X15580593Y-34696394D01*
X15531094Y-34732357D01*
X15481593Y-34748441D01*
X15481592Y-34748441D01*
X15292184Y-34844948D01*
X15292180Y-34844950D01*
X15120213Y-34969891D01*
X14969891Y-35120213D01*
X14844950Y-35292180D01*
X14844948Y-35292184D01*
X14748443Y-35481587D01*
X14682752Y-35683761D01*
X14649500Y-35893709D01*
X500500Y-35893709D01*
X500500Y-27920725D01*
X15274500Y-27920725D01*
X15274500Y-28429274D01*
X15277353Y-28459694D01*
X15277355Y-28459703D01*
X15322207Y-28587883D01*
X15402845Y-28697144D01*
X15402847Y-28697146D01*
X15402850Y-28697150D01*
X15402853Y-28697152D01*
X15402855Y-28697154D01*
X15512116Y-28777792D01*
X15512117Y-28777792D01*
X15512118Y-28777793D01*
X15640301Y-28822646D01*
X15670725Y-28825499D01*
X15670727Y-28825500D01*
X15670734Y-28825500D01*
X16329273Y-28825500D01*
X16329273Y-28825499D01*
X16359699Y-28822646D01*
X16487882Y-28777793D01*
X16597150Y-28697150D01*
X16677793Y-28587882D01*
X16722646Y-28459699D01*
X16725499Y-28429273D01*
X16725500Y-28429273D01*
X16725500Y-27920727D01*
X16725499Y-27920725D01*
X27274500Y-27920725D01*
X27274500Y-28429274D01*
X27277353Y-28459694D01*
X27277355Y-28459703D01*
X27322207Y-28587883D01*
X27402845Y-28697144D01*
X27402847Y-28697146D01*
X27402850Y-28697150D01*
X27402853Y-28697152D01*
X27402855Y-28697154D01*
X27512116Y-28777792D01*
X27512117Y-28777792D01*
X27512118Y-28777793D01*
X27640301Y-28822646D01*
X27670725Y-28825499D01*
X27670727Y-28825500D01*
X27670734Y-28825500D01*
X28329273Y-28825500D01*
X28329273Y-28825499D01*
X28359699Y-28822646D01*
X28487882Y-28777793D01*
X28597150Y-28697150D01*
X28677793Y-28587882D01*
X28722646Y-28459699D01*
X28725499Y-28429273D01*
X28725500Y-28429273D01*
X28725500Y-27920727D01*
X28725499Y-27920725D01*
X28722646Y-27890305D01*
X28722646Y-27890301D01*
X28677793Y-27762118D01*
X28660216Y-27738302D01*
X28597154Y-27652855D01*
X28597152Y-27652853D01*
X28597150Y-27652850D01*
X28597146Y-27652847D01*
X28597144Y-27652845D01*
X28487883Y-27572207D01*
X28359703Y-27527355D01*
X28359694Y-27527353D01*
X28329274Y-27524500D01*
X28329266Y-27524500D01*
X27670734Y-27524500D01*
X27670725Y-27524500D01*
X27640305Y-27527353D01*
X27640296Y-27527355D01*
X27512116Y-27572207D01*
X27402855Y-27652845D01*
X27402845Y-27652855D01*
X27322207Y-27762116D01*
X27277355Y-27890296D01*
X27277353Y-27890305D01*
X27274500Y-27920725D01*
X16725499Y-27920725D01*
X16722646Y-27890305D01*
X16722646Y-27890301D01*
X16677793Y-27762118D01*
X16660216Y-27738302D01*
X16597154Y-27652855D01*
X16597152Y-27652853D01*
X16597150Y-27652850D01*
X16597146Y-27652847D01*
X16597144Y-27652845D01*
X16487883Y-27572207D01*
X16359703Y-27527355D01*
X16359694Y-27527353D01*
X16329274Y-27524500D01*
X16329266Y-27524500D01*
X15670734Y-27524500D01*
X15670725Y-27524500D01*
X15640305Y-27527353D01*
X15640296Y-27527355D01*
X15512116Y-27572207D01*
X15402855Y-27652845D01*
X15402845Y-27652855D01*
X15322207Y-27762116D01*
X15277355Y-27890296D01*
X15277353Y-27890305D01*
X15274500Y-27920725D01*
X500500Y-27920725D01*
X500500Y-26893749D01*
X47650000Y-26893749D01*
X47650000Y-27106250D01*
X47683240Y-27316121D01*
X47748904Y-27518215D01*
X47845375Y-27707551D01*
X47944240Y-27843626D01*
X48556328Y-27231536D01*
X48599901Y-27307007D01*
X48692993Y-27400099D01*
X48768460Y-27443670D01*
X48156372Y-28055758D01*
X48156372Y-28055759D01*
X48292440Y-28154619D01*
X48292446Y-28154623D01*
X48481784Y-28251095D01*
X48683878Y-28316759D01*
X48893750Y-28350000D01*
X49106250Y-28350000D01*
X49316121Y-28316759D01*
X49518215Y-28251095D01*
X49707553Y-28154623D01*
X49707559Y-28154619D01*
X49843626Y-28055759D01*
X49843626Y-28055758D01*
X49231538Y-27443670D01*
X49307007Y-27400099D01*
X49400099Y-27307007D01*
X49443670Y-27231538D01*
X50055758Y-27843626D01*
X50055759Y-27843626D01*
X50154619Y-27707559D01*
X50154623Y-27707553D01*
X50251095Y-27518215D01*
X50316759Y-27316121D01*
X50350000Y-27106250D01*
X50350000Y-26906381D01*
X51549500Y-26906381D01*
X51549500Y-27093618D01*
X51586026Y-27277249D01*
X51657677Y-27450229D01*
X51657681Y-27450238D01*
X51732065Y-27561559D01*
X51761698Y-27605908D01*
X51894092Y-27738302D01*
X51960463Y-27782649D01*
X52049761Y-27842318D01*
X52049767Y-27842320D01*
X52049769Y-27842322D01*
X52222749Y-27913973D01*
X52406384Y-27950500D01*
X52406385Y-27950500D01*
X52593615Y-27950500D01*
X52593616Y-27950500D01*
X52777251Y-27913973D01*
X52950231Y-27842322D01*
X52950234Y-27842319D01*
X52950238Y-27842318D01*
X52999501Y-27809401D01*
X53105908Y-27738302D01*
X53238302Y-27605908D01*
X53331836Y-27465925D01*
X53342318Y-27450238D01*
X53342319Y-27450234D01*
X53342322Y-27450231D01*
X53413973Y-27277251D01*
X53450500Y-27093616D01*
X53450500Y-26906384D01*
X53413973Y-26722749D01*
X53342322Y-26549769D01*
X53342320Y-26549767D01*
X53342318Y-26549761D01*
X53282649Y-26460463D01*
X53238302Y-26394092D01*
X53105908Y-26261698D01*
X53061559Y-26232065D01*
X52950238Y-26157681D01*
X52950229Y-26157677D01*
X52777249Y-26086026D01*
X52593618Y-26049500D01*
X52593616Y-26049500D01*
X52406384Y-26049500D01*
X52406381Y-26049500D01*
X52222750Y-26086026D01*
X52049770Y-26157677D01*
X52049761Y-26157681D01*
X51894092Y-26261698D01*
X51894088Y-26261701D01*
X51761701Y-26394088D01*
X51761698Y-26394092D01*
X51657681Y-26549761D01*
X51657677Y-26549770D01*
X51586026Y-26722750D01*
X51549500Y-26906381D01*
X50350000Y-26906381D01*
X50350000Y-26893749D01*
X50316759Y-26683878D01*
X50251095Y-26481784D01*
X50154623Y-26292446D01*
X50154619Y-26292440D01*
X50055759Y-26156372D01*
X50055758Y-26156372D01*
X49443670Y-26768460D01*
X49400099Y-26692993D01*
X49307007Y-26599901D01*
X49231536Y-26556328D01*
X49843626Y-25944240D01*
X49707551Y-25845375D01*
X49518215Y-25748904D01*
X49316121Y-25683240D01*
X49106250Y-25650000D01*
X48893750Y-25650000D01*
X48683878Y-25683240D01*
X48481784Y-25748904D01*
X48292446Y-25845376D01*
X48292442Y-25845378D01*
X48156372Y-25944239D01*
X48768461Y-26556328D01*
X48692993Y-26599901D01*
X48599901Y-26692993D01*
X48556328Y-26768461D01*
X47944239Y-26156372D01*
X47845378Y-26292442D01*
X47845376Y-26292446D01*
X47748904Y-26481784D01*
X47683240Y-26683878D01*
X47650000Y-26893749D01*
X500500Y-26893749D01*
X500500Y-22970078D01*
X519407Y-22911887D01*
X568907Y-22875923D01*
X630093Y-22875923D01*
X637378Y-22878611D01*
X722749Y-22913973D01*
X906384Y-22950500D01*
X906385Y-22950500D01*
X1093615Y-22950500D01*
X1093616Y-22950500D01*
X1277251Y-22913973D01*
X1450231Y-22842322D01*
X1450234Y-22842319D01*
X1450238Y-22842318D01*
X1499501Y-22809401D01*
X1605908Y-22738302D01*
X1738302Y-22605908D01*
X1813139Y-22493907D01*
X1842318Y-22450238D01*
X1842319Y-22450234D01*
X1842322Y-22450231D01*
X1913973Y-22277251D01*
X1950500Y-22093616D01*
X1950500Y-21906384D01*
X1950499Y-21906381D01*
X2549500Y-21906381D01*
X2549500Y-22093618D01*
X2586026Y-22277249D01*
X2657677Y-22450229D01*
X2657681Y-22450238D01*
X2732065Y-22561559D01*
X2761698Y-22605908D01*
X2894092Y-22738302D01*
X2960463Y-22782649D01*
X3049761Y-22842318D01*
X3049767Y-22842320D01*
X3049769Y-22842322D01*
X3222749Y-22913973D01*
X3406384Y-22950500D01*
X3406385Y-22950500D01*
X3593615Y-22950500D01*
X3593616Y-22950500D01*
X3777251Y-22913973D01*
X3950231Y-22842322D01*
X3950234Y-22842319D01*
X3950238Y-22842318D01*
X3999501Y-22809401D01*
X4105908Y-22738302D01*
X4238302Y-22605908D01*
X4313139Y-22493907D01*
X4342318Y-22450238D01*
X4342319Y-22450234D01*
X4342322Y-22450231D01*
X4413973Y-22277251D01*
X4450500Y-22093616D01*
X4450500Y-21906384D01*
X4447979Y-21893709D01*
X5649500Y-21893709D01*
X5649500Y-22106290D01*
X5682752Y-22316238D01*
X5748443Y-22518412D01*
X5844948Y-22707815D01*
X5844950Y-22707819D01*
X5969891Y-22879786D01*
X5969893Y-22879788D01*
X5969896Y-22879792D01*
X6120208Y-23030104D01*
X6120211Y-23030106D01*
X6120213Y-23030108D01*
X6292180Y-23155049D01*
X6292184Y-23155051D01*
X6481588Y-23251557D01*
X6683757Y-23317246D01*
X6683758Y-23317246D01*
X6683761Y-23317247D01*
X6893710Y-23350500D01*
X6893713Y-23350500D01*
X7106290Y-23350500D01*
X7316238Y-23317247D01*
X7316239Y-23317246D01*
X7316243Y-23317246D01*
X7518412Y-23251557D01*
X7707816Y-23155051D01*
X7879792Y-23030104D01*
X8030104Y-22879792D01*
X8142204Y-22725499D01*
X8155049Y-22707819D01*
X8155051Y-22707816D01*
X8251557Y-22518412D01*
X8259519Y-22493906D01*
X8295483Y-22444407D01*
X8353674Y-22425500D01*
X13480135Y-22425500D01*
X13538326Y-22444407D01*
X13566618Y-22482448D01*
X13568742Y-22481326D01*
X13572207Y-22487883D01*
X13652845Y-22597144D01*
X13652847Y-22597146D01*
X13652850Y-22597150D01*
X13652853Y-22597152D01*
X13652855Y-22597154D01*
X13762116Y-22677792D01*
X13762117Y-22677792D01*
X13762118Y-22677793D01*
X13890301Y-22722646D01*
X13920725Y-22725499D01*
X13920727Y-22725500D01*
X13920734Y-22725500D01*
X14429273Y-22725500D01*
X14429273Y-22725499D01*
X14459699Y-22722646D01*
X14587882Y-22677793D01*
X14697150Y-22597150D01*
X14777793Y-22487882D01*
X14822646Y-22359699D01*
X14825499Y-22329273D01*
X14825500Y-22329273D01*
X14825500Y-21670727D01*
X14825499Y-21670725D01*
X14824680Y-21661989D01*
X14822646Y-21640301D01*
X14777793Y-21512118D01*
X14777790Y-21512114D01*
X14697154Y-21402855D01*
X14697152Y-21402853D01*
X14697150Y-21402850D01*
X14697146Y-21402847D01*
X14697144Y-21402845D01*
X14587883Y-21322207D01*
X14459703Y-21277355D01*
X14459694Y-21277353D01*
X14429274Y-21274500D01*
X14429266Y-21274500D01*
X13920734Y-21274500D01*
X13920725Y-21274500D01*
X13890305Y-21277353D01*
X13890296Y-21277355D01*
X13762116Y-21322207D01*
X13652855Y-21402845D01*
X13652845Y-21402855D01*
X13572207Y-21512116D01*
X13568742Y-21518674D01*
X13566501Y-21517490D01*
X13536524Y-21556871D01*
X13480135Y-21574500D01*
X8353674Y-21574500D01*
X8295483Y-21555593D01*
X8259519Y-21506093D01*
X8258722Y-21503639D01*
X8251557Y-21481588D01*
X8155051Y-21292184D01*
X8155049Y-21292180D01*
X8030108Y-21120213D01*
X8030106Y-21120211D01*
X8030104Y-21120208D01*
X7879792Y-20969896D01*
X7879788Y-20969893D01*
X7879786Y-20969891D01*
X7707819Y-20844950D01*
X7707815Y-20844948D01*
X7518412Y-20748443D01*
X7316238Y-20682752D01*
X7106290Y-20649500D01*
X7106287Y-20649500D01*
X6893713Y-20649500D01*
X6893710Y-20649500D01*
X6683761Y-20682752D01*
X6481587Y-20748443D01*
X6292184Y-20844948D01*
X6292180Y-20844950D01*
X6120213Y-20969891D01*
X5969891Y-21120213D01*
X5844950Y-21292180D01*
X5844948Y-21292184D01*
X5748443Y-21481587D01*
X5682752Y-21683761D01*
X5649500Y-21893709D01*
X4447979Y-21893709D01*
X4413973Y-21722749D01*
X4342322Y-21549769D01*
X4342320Y-21549767D01*
X4342318Y-21549761D01*
X4275324Y-21449500D01*
X4238302Y-21394092D01*
X4105908Y-21261698D01*
X4061559Y-21232065D01*
X3950238Y-21157681D01*
X3950229Y-21157677D01*
X3777249Y-21086026D01*
X3593618Y-21049500D01*
X3593616Y-21049500D01*
X3406384Y-21049500D01*
X3406381Y-21049500D01*
X3222750Y-21086026D01*
X3049770Y-21157677D01*
X3049761Y-21157681D01*
X2894092Y-21261698D01*
X2894088Y-21261701D01*
X2761701Y-21394088D01*
X2761698Y-21394092D01*
X2657681Y-21549761D01*
X2657677Y-21549770D01*
X2586026Y-21722750D01*
X2549500Y-21906381D01*
X1950499Y-21906381D01*
X1913973Y-21722749D01*
X1842322Y-21549769D01*
X1842320Y-21549767D01*
X1842318Y-21549761D01*
X1775324Y-21449500D01*
X1738302Y-21394092D01*
X1605908Y-21261698D01*
X1561559Y-21232065D01*
X1450238Y-21157681D01*
X1450229Y-21157677D01*
X1277249Y-21086026D01*
X1093618Y-21049500D01*
X1093616Y-21049500D01*
X906384Y-21049500D01*
X906381Y-21049500D01*
X722749Y-21086027D01*
X722747Y-21086027D01*
X637385Y-21121385D01*
X576388Y-21126185D01*
X524219Y-21094216D01*
X500805Y-21037688D01*
X500500Y-21029921D01*
X500500Y-14970078D01*
X519407Y-14911887D01*
X568907Y-14875923D01*
X630093Y-14875923D01*
X637378Y-14878611D01*
X722749Y-14913973D01*
X906384Y-14950500D01*
X906385Y-14950500D01*
X1093615Y-14950500D01*
X1093616Y-14950500D01*
X1277251Y-14913973D01*
X1450231Y-14842322D01*
X1450234Y-14842319D01*
X1450238Y-14842318D01*
X1499501Y-14809401D01*
X1605908Y-14738302D01*
X1738302Y-14605908D01*
X1812282Y-14495187D01*
X1842318Y-14450238D01*
X1842319Y-14450234D01*
X1842322Y-14450231D01*
X1913973Y-14277251D01*
X1950500Y-14093616D01*
X1950500Y-13906384D01*
X1950499Y-13906381D01*
X2549500Y-13906381D01*
X2549500Y-14093618D01*
X2586026Y-14277249D01*
X2657677Y-14450229D01*
X2657681Y-14450238D01*
X2732065Y-14561559D01*
X2761698Y-14605908D01*
X2894092Y-14738302D01*
X2960463Y-14782649D01*
X3049761Y-14842318D01*
X3049767Y-14842320D01*
X3049769Y-14842322D01*
X3222749Y-14913973D01*
X3406384Y-14950500D01*
X3406385Y-14950500D01*
X3593615Y-14950500D01*
X3593616Y-14950500D01*
X3777251Y-14913973D01*
X3950231Y-14842322D01*
X3950234Y-14842319D01*
X3950238Y-14842318D01*
X3999501Y-14809401D01*
X4105908Y-14738302D01*
X4238302Y-14605908D01*
X4312282Y-14495187D01*
X4342318Y-14450238D01*
X4342319Y-14450234D01*
X4342322Y-14450231D01*
X4413973Y-14277251D01*
X4450500Y-14093616D01*
X4450500Y-13906384D01*
X4447979Y-13893709D01*
X5649500Y-13893709D01*
X5649500Y-14106290D01*
X5682752Y-14316238D01*
X5748443Y-14518412D01*
X5844948Y-14707815D01*
X5844950Y-14707819D01*
X5969891Y-14879786D01*
X5969893Y-14879788D01*
X5969896Y-14879792D01*
X6120208Y-15030104D01*
X6120211Y-15030106D01*
X6120213Y-15030108D01*
X6292180Y-15155049D01*
X6292184Y-15155051D01*
X6481588Y-15251557D01*
X6683757Y-15317246D01*
X6683758Y-15317246D01*
X6683761Y-15317247D01*
X6893710Y-15350500D01*
X6893713Y-15350500D01*
X7106290Y-15350500D01*
X7316238Y-15317247D01*
X7316239Y-15317246D01*
X7316243Y-15317246D01*
X7518412Y-15251557D01*
X7707816Y-15155051D01*
X7717695Y-15147874D01*
X7879786Y-15030108D01*
X7879792Y-15030104D01*
X8030104Y-14879792D01*
X8155051Y-14707816D01*
X8251557Y-14518412D01*
X8278874Y-14434336D01*
X8314838Y-14384838D01*
X8368700Y-14366026D01*
X14155141Y-14112869D01*
X14214100Y-14129214D01*
X14238719Y-14152445D01*
X14285309Y-14214682D01*
X14285313Y-14214687D01*
X14358563Y-14269521D01*
X14368886Y-14277249D01*
X14394774Y-14296628D01*
X14522886Y-14344412D01*
X14579515Y-14350500D01*
X15420484Y-14350499D01*
X15477114Y-14344412D01*
X15605226Y-14296628D01*
X15714687Y-14214687D01*
X15796628Y-14105226D01*
X15844412Y-13977114D01*
X15850500Y-13920485D01*
X15850499Y-13379516D01*
X15844412Y-13322886D01*
X15796628Y-13194774D01*
X15714687Y-13085313D01*
X15651067Y-13037688D01*
X15605228Y-13003373D01*
X15605226Y-13003372D01*
X15477114Y-12955588D01*
X15477113Y-12955587D01*
X15438895Y-12951479D01*
X15420485Y-12949500D01*
X15420481Y-12949500D01*
X14579521Y-12949500D01*
X14579515Y-12949501D01*
X14522888Y-12955587D01*
X14522886Y-12955588D01*
X14394774Y-13003372D01*
X14394773Y-13003372D01*
X14394772Y-13003373D01*
X14285315Y-13085311D01*
X14285311Y-13085315D01*
X14203373Y-13194771D01*
X14201641Y-13197945D01*
X14199447Y-13200017D01*
X14199129Y-13200442D01*
X14199055Y-13200386D01*
X14157159Y-13239957D01*
X14114750Y-13249500D01*
X13499500Y-13249500D01*
X13441309Y-13230593D01*
X13405345Y-13181093D01*
X13400500Y-13150500D01*
X13400500Y-12499500D01*
X13419407Y-12441309D01*
X13468907Y-12405345D01*
X13499500Y-12400500D01*
X18025500Y-12400500D01*
X18083691Y-12419407D01*
X18119655Y-12468907D01*
X18124500Y-12499500D01*
X18124500Y-21525500D01*
X18105593Y-21583691D01*
X18056093Y-21619655D01*
X18025500Y-21624500D01*
X16537361Y-21624500D01*
X16479170Y-21605593D01*
X16443917Y-21558198D01*
X16427793Y-21512118D01*
X16427791Y-21512116D01*
X16427791Y-21512114D01*
X16347154Y-21402855D01*
X16347152Y-21402853D01*
X16347150Y-21402850D01*
X16347146Y-21402847D01*
X16347144Y-21402845D01*
X16237883Y-21322207D01*
X16109703Y-21277355D01*
X16109694Y-21277353D01*
X16079274Y-21274500D01*
X16079266Y-21274500D01*
X15570734Y-21274500D01*
X15570725Y-21274500D01*
X15540305Y-21277353D01*
X15540296Y-21277355D01*
X15412116Y-21322207D01*
X15302855Y-21402845D01*
X15302845Y-21402855D01*
X15222207Y-21512116D01*
X15177355Y-21640296D01*
X15177353Y-21640305D01*
X15174500Y-21670725D01*
X15174500Y-22329274D01*
X15177353Y-22359694D01*
X15177355Y-22359703D01*
X15222207Y-22487883D01*
X15302845Y-22597144D01*
X15302847Y-22597146D01*
X15302850Y-22597150D01*
X15302853Y-22597152D01*
X15302855Y-22597154D01*
X15412116Y-22677792D01*
X15412117Y-22677792D01*
X15412118Y-22677793D01*
X15540301Y-22722646D01*
X15570725Y-22725499D01*
X15570727Y-22725500D01*
X15570734Y-22725500D01*
X16079273Y-22725500D01*
X16079273Y-22725499D01*
X16109699Y-22722646D01*
X16237882Y-22677793D01*
X16347150Y-22597150D01*
X16409267Y-22512984D01*
X16427791Y-22487885D01*
X16427792Y-22487883D01*
X16427793Y-22487882D01*
X16443917Y-22441801D01*
X16480982Y-22393122D01*
X16537361Y-22375500D01*
X18549433Y-22375500D01*
X18549435Y-22375500D01*
X18644938Y-22349910D01*
X18644940Y-22349908D01*
X18644942Y-22349908D01*
X18670377Y-22335222D01*
X18730562Y-22300475D01*
X18800475Y-22230562D01*
X18849910Y-22144938D01*
X18875500Y-22049435D01*
X18875500Y-21927525D01*
X46949500Y-21927525D01*
X46949500Y-22072475D01*
X46958560Y-22106287D01*
X46987017Y-22212489D01*
X47059487Y-22338010D01*
X47059489Y-22338012D01*
X47059491Y-22338015D01*
X47161985Y-22440509D01*
X47161987Y-22440510D01*
X47161989Y-22440512D01*
X47287511Y-22512982D01*
X47287512Y-22512982D01*
X47287515Y-22512984D01*
X47427525Y-22550500D01*
X47427526Y-22550500D01*
X47572476Y-22550500D01*
X47572476Y-22550499D01*
X47664252Y-22525908D01*
X47725354Y-22529109D01*
X47772904Y-22567614D01*
X47778082Y-22576583D01*
X47793026Y-22605911D01*
X47844948Y-22707815D01*
X47844950Y-22707819D01*
X47969891Y-22879786D01*
X47969893Y-22879788D01*
X47969896Y-22879792D01*
X48120208Y-23030104D01*
X48120211Y-23030106D01*
X48120213Y-23030108D01*
X48292180Y-23155049D01*
X48292184Y-23155051D01*
X48481588Y-23251557D01*
X48683757Y-23317246D01*
X48683758Y-23317246D01*
X48683761Y-23317247D01*
X48893710Y-23350500D01*
X48893713Y-23350500D01*
X49106290Y-23350500D01*
X49316238Y-23317247D01*
X49316239Y-23317246D01*
X49316243Y-23317246D01*
X49518412Y-23251557D01*
X49707816Y-23155051D01*
X49879792Y-23030104D01*
X50030104Y-22879792D01*
X50142204Y-22725499D01*
X50155049Y-22707819D01*
X50155051Y-22707816D01*
X50251557Y-22518412D01*
X50317246Y-22316243D01*
X50319743Y-22300476D01*
X50350500Y-22106290D01*
X50350500Y-21906381D01*
X51549500Y-21906381D01*
X51549500Y-22093618D01*
X51586026Y-22277249D01*
X51657677Y-22450229D01*
X51657681Y-22450238D01*
X51732065Y-22561559D01*
X51761698Y-22605908D01*
X51894092Y-22738302D01*
X51960463Y-22782649D01*
X52049761Y-22842318D01*
X52049767Y-22842320D01*
X52049769Y-22842322D01*
X52222749Y-22913973D01*
X52406384Y-22950500D01*
X52406385Y-22950500D01*
X52593615Y-22950500D01*
X52593616Y-22950500D01*
X52777251Y-22913973D01*
X52950231Y-22842322D01*
X52950234Y-22842319D01*
X52950238Y-22842318D01*
X52999501Y-22809401D01*
X53105908Y-22738302D01*
X53238302Y-22605908D01*
X53313139Y-22493907D01*
X53342318Y-22450238D01*
X53342319Y-22450234D01*
X53342322Y-22450231D01*
X53413973Y-22277251D01*
X53450500Y-22093616D01*
X53450500Y-21906384D01*
X53413973Y-21722749D01*
X53342322Y-21549769D01*
X53342320Y-21549767D01*
X53342318Y-21549761D01*
X53275324Y-21449500D01*
X53238302Y-21394092D01*
X53105908Y-21261698D01*
X53061559Y-21232065D01*
X52950238Y-21157681D01*
X52950229Y-21157677D01*
X52777249Y-21086026D01*
X52593618Y-21049500D01*
X52593616Y-21049500D01*
X52406384Y-21049500D01*
X52406381Y-21049500D01*
X52222750Y-21086026D01*
X52049770Y-21157677D01*
X52049761Y-21157681D01*
X51894092Y-21261698D01*
X51894088Y-21261701D01*
X51761701Y-21394088D01*
X51761698Y-21394092D01*
X51657681Y-21549761D01*
X51657677Y-21549770D01*
X51586026Y-21722750D01*
X51549500Y-21906381D01*
X50350500Y-21906381D01*
X50350500Y-21893709D01*
X50317247Y-21683761D01*
X50317246Y-21683757D01*
X50251557Y-21481588D01*
X50155051Y-21292184D01*
X50155049Y-21292180D01*
X50030108Y-21120213D01*
X50030106Y-21120211D01*
X50030104Y-21120208D01*
X49879792Y-20969896D01*
X49879788Y-20969893D01*
X49879786Y-20969891D01*
X49707819Y-20844950D01*
X49707815Y-20844948D01*
X49518412Y-20748443D01*
X49316238Y-20682752D01*
X49106290Y-20649500D01*
X49106287Y-20649500D01*
X48893713Y-20649500D01*
X48893710Y-20649500D01*
X48683761Y-20682752D01*
X48481587Y-20748443D01*
X48292184Y-20844948D01*
X48292180Y-20844950D01*
X48120213Y-20969891D01*
X47969891Y-21120213D01*
X47844950Y-21292180D01*
X47844948Y-21292184D01*
X47778086Y-21423410D01*
X47734821Y-21466675D01*
X47674389Y-21476246D01*
X47664253Y-21474092D01*
X47635027Y-21466261D01*
X47572475Y-21449500D01*
X47427525Y-21449500D01*
X47365790Y-21466041D01*
X47287510Y-21487017D01*
X47161989Y-21559487D01*
X47059487Y-21661989D01*
X46987017Y-21787510D01*
X46949500Y-21927525D01*
X18875500Y-21927525D01*
X18875500Y-18852128D01*
X19984500Y-18852128D01*
X19984500Y-20227871D01*
X19990908Y-20287478D01*
X19990910Y-20287489D01*
X20041202Y-20422329D01*
X20099136Y-20499719D01*
X20127453Y-20537547D01*
X20203974Y-20594830D01*
X20242670Y-20623797D01*
X20377510Y-20674089D01*
X20377511Y-20674089D01*
X20377516Y-20674091D01*
X20437126Y-20680500D01*
X20437129Y-20680500D01*
X22032871Y-20680500D01*
X22032874Y-20680500D01*
X22092484Y-20674091D01*
X22139303Y-20656628D01*
X22227329Y-20623797D01*
X22227329Y-20623796D01*
X22227331Y-20623796D01*
X22342547Y-20537547D01*
X22428796Y-20422331D01*
X22479091Y-20287484D01*
X22485500Y-20227874D01*
X22485500Y-19690001D01*
X29515001Y-19690001D01*
X29515001Y-20227828D01*
X29521401Y-20287373D01*
X29521402Y-20287378D01*
X29571645Y-20422087D01*
X29657808Y-20537187D01*
X29657812Y-20537191D01*
X29772912Y-20623354D01*
X29907618Y-20673596D01*
X29907629Y-20673598D01*
X29967174Y-20679999D01*
X30614998Y-20679999D01*
X30615000Y-20679998D01*
X30615000Y-19690001D01*
X30915000Y-19690001D01*
X30915000Y-20679998D01*
X30915001Y-20679999D01*
X31562823Y-20679999D01*
X31562828Y-20679998D01*
X31622373Y-20673598D01*
X31622378Y-20673597D01*
X31757087Y-20623354D01*
X31872187Y-20537191D01*
X31872191Y-20537187D01*
X31958354Y-20422087D01*
X32008596Y-20287381D01*
X32008598Y-20287370D01*
X32015000Y-20227825D01*
X32015000Y-19690001D01*
X32014999Y-19690000D01*
X30915001Y-19690000D01*
X30915000Y-19690001D01*
X30615000Y-19690001D01*
X30614999Y-19690000D01*
X29515002Y-19690000D01*
X29515001Y-19690001D01*
X22485500Y-19690001D01*
X22485500Y-18852174D01*
X29515000Y-18852174D01*
X29515000Y-19389999D01*
X29515001Y-19390000D01*
X30614999Y-19390000D01*
X30615000Y-19389999D01*
X30615000Y-18400001D01*
X30915000Y-18400001D01*
X30915000Y-19389999D01*
X30915001Y-19390000D01*
X32014998Y-19390000D01*
X32014999Y-19389999D01*
X32014999Y-18852177D01*
X32014998Y-18852171D01*
X32008598Y-18792626D01*
X32008597Y-18792621D01*
X31958354Y-18657912D01*
X31872191Y-18542812D01*
X31872187Y-18542808D01*
X31757087Y-18456645D01*
X31622381Y-18406403D01*
X31622370Y-18406401D01*
X31562825Y-18400000D01*
X30915001Y-18400000D01*
X30915000Y-18400001D01*
X30615000Y-18400001D01*
X30614999Y-18400000D01*
X29967177Y-18400000D01*
X29967171Y-18400001D01*
X29907626Y-18406401D01*
X29907621Y-18406402D01*
X29772912Y-18456645D01*
X29657812Y-18542808D01*
X29657808Y-18542812D01*
X29571645Y-18657912D01*
X29521403Y-18792618D01*
X29521401Y-18792629D01*
X29515000Y-18852174D01*
X22485500Y-18852174D01*
X22485500Y-18852126D01*
X22479091Y-18792516D01*
X22428887Y-18657912D01*
X22428797Y-18657670D01*
X22399830Y-18618974D01*
X22342547Y-18542453D01*
X22304719Y-18514136D01*
X22227329Y-18456202D01*
X22092489Y-18405910D01*
X22092484Y-18405909D01*
X22092482Y-18405908D01*
X22092478Y-18405908D01*
X22061250Y-18402550D01*
X22032874Y-18399500D01*
X20437126Y-18399500D01*
X20412635Y-18402133D01*
X20377521Y-18405908D01*
X20377510Y-18405910D01*
X20242670Y-18456202D01*
X20127455Y-18542451D01*
X20127451Y-18542455D01*
X20041202Y-18657670D01*
X19990910Y-18792510D01*
X19990908Y-18792521D01*
X19984500Y-18852128D01*
X18875500Y-18852128D01*
X18875500Y-17474500D01*
X18894407Y-17416309D01*
X18943907Y-17380345D01*
X18974500Y-17375500D01*
X19885500Y-17375500D01*
X19943691Y-17394407D01*
X19979655Y-17443907D01*
X19984500Y-17474500D01*
X19984500Y-17687871D01*
X19990908Y-17747478D01*
X19990910Y-17747489D01*
X20041202Y-17882329D01*
X20092234Y-17950499D01*
X20127453Y-17997547D01*
X20170950Y-18030108D01*
X20242670Y-18083797D01*
X20377510Y-18134089D01*
X20377511Y-18134089D01*
X20377516Y-18134091D01*
X20437126Y-18140500D01*
X20437129Y-18140500D01*
X22032871Y-18140500D01*
X22032874Y-18140500D01*
X22092484Y-18134091D01*
X22139303Y-18116628D01*
X22227329Y-18083797D01*
X22227329Y-18083796D01*
X22227331Y-18083796D01*
X22342547Y-17997547D01*
X22428796Y-17882331D01*
X22430183Y-17878614D01*
X22479089Y-17747489D01*
X22479088Y-17747489D01*
X22479091Y-17747484D01*
X22485500Y-17687874D01*
X22485500Y-16312128D01*
X29514500Y-16312128D01*
X29514500Y-17687871D01*
X29520908Y-17747478D01*
X29520910Y-17747489D01*
X29571202Y-17882329D01*
X29622234Y-17950499D01*
X29657453Y-17997547D01*
X29700950Y-18030108D01*
X29772670Y-18083797D01*
X29907510Y-18134089D01*
X29907511Y-18134089D01*
X29907516Y-18134091D01*
X29967126Y-18140500D01*
X29967129Y-18140500D01*
X31562871Y-18140500D01*
X31562874Y-18140500D01*
X31622484Y-18134091D01*
X31669303Y-18116628D01*
X31757329Y-18083797D01*
X31757329Y-18083796D01*
X31757331Y-18083796D01*
X31872547Y-17997547D01*
X31958796Y-17882331D01*
X31960183Y-17878614D01*
X32009089Y-17747489D01*
X32009088Y-17747489D01*
X32009091Y-17747484D01*
X32015500Y-17687874D01*
X32015500Y-17499500D01*
X32034407Y-17441309D01*
X32083907Y-17405345D01*
X32114500Y-17400500D01*
X36877725Y-17400500D01*
X36877727Y-17400500D01*
X36979587Y-17373207D01*
X37070913Y-17320480D01*
X37145480Y-17245913D01*
X37198207Y-17154587D01*
X37225500Y-17052727D01*
X37225500Y-16927525D01*
X41449500Y-16927525D01*
X41449500Y-17072475D01*
X41458560Y-17106287D01*
X41487017Y-17212489D01*
X41559487Y-17338010D01*
X41559489Y-17338012D01*
X41559491Y-17338015D01*
X41661985Y-17440509D01*
X41661987Y-17440510D01*
X41661989Y-17440512D01*
X41787511Y-17512982D01*
X41787512Y-17512982D01*
X41787515Y-17512984D01*
X41927525Y-17550500D01*
X41927526Y-17550500D01*
X42072474Y-17550500D01*
X42072475Y-17550500D01*
X42212485Y-17512984D01*
X42212487Y-17512982D01*
X42212489Y-17512982D01*
X42338010Y-17440512D01*
X42338010Y-17440511D01*
X42338015Y-17440509D01*
X42349029Y-17429494D01*
X42403544Y-17401719D01*
X42419031Y-17400500D01*
X47638203Y-17400500D01*
X47696394Y-17419407D01*
X47732358Y-17468907D01*
X47748443Y-17518412D01*
X47844948Y-17707815D01*
X47844950Y-17707819D01*
X47969891Y-17879786D01*
X47969893Y-17879788D01*
X47969896Y-17879792D01*
X48120208Y-18030104D01*
X48120211Y-18030106D01*
X48120213Y-18030108D01*
X48292180Y-18155049D01*
X48292184Y-18155051D01*
X48481588Y-18251557D01*
X48683757Y-18317246D01*
X48683758Y-18317246D01*
X48683761Y-18317247D01*
X48893710Y-18350500D01*
X48893713Y-18350500D01*
X49106290Y-18350500D01*
X49316238Y-18317247D01*
X49316239Y-18317246D01*
X49316243Y-18317246D01*
X49518412Y-18251557D01*
X49707816Y-18155051D01*
X49879792Y-18030104D01*
X50030104Y-17879792D01*
X50155051Y-17707816D01*
X50251557Y-17518412D01*
X50317246Y-17316243D01*
X50323422Y-17277249D01*
X50350500Y-17106290D01*
X50350500Y-16906381D01*
X51549500Y-16906381D01*
X51549500Y-17093618D01*
X51586026Y-17277249D01*
X51657677Y-17450229D01*
X51657681Y-17450238D01*
X51732065Y-17561559D01*
X51761698Y-17605908D01*
X51894092Y-17738302D01*
X51960463Y-17782649D01*
X52049761Y-17842318D01*
X52049767Y-17842320D01*
X52049769Y-17842322D01*
X52222749Y-17913973D01*
X52406384Y-17950500D01*
X52406385Y-17950500D01*
X52593615Y-17950500D01*
X52593616Y-17950500D01*
X52777251Y-17913973D01*
X52950231Y-17842322D01*
X52950234Y-17842319D01*
X52950238Y-17842318D01*
X52999501Y-17809401D01*
X53105908Y-17738302D01*
X53238302Y-17605908D01*
X53329843Y-17468907D01*
X53342318Y-17450238D01*
X53342319Y-17450234D01*
X53342322Y-17450231D01*
X53413973Y-17277251D01*
X53450500Y-17093616D01*
X53450500Y-16906384D01*
X53413973Y-16722749D01*
X53342322Y-16549769D01*
X53342320Y-16549767D01*
X53342318Y-16549761D01*
X53275324Y-16449500D01*
X53238302Y-16394092D01*
X53105908Y-16261698D01*
X53061559Y-16232065D01*
X52950238Y-16157681D01*
X52950229Y-16157677D01*
X52777249Y-16086026D01*
X52593618Y-16049500D01*
X52593616Y-16049500D01*
X52406384Y-16049500D01*
X52406381Y-16049500D01*
X52222750Y-16086026D01*
X52049770Y-16157677D01*
X52049761Y-16157681D01*
X51894092Y-16261698D01*
X51894088Y-16261701D01*
X51761701Y-16394088D01*
X51761698Y-16394092D01*
X51657681Y-16549761D01*
X51657677Y-16549770D01*
X51586026Y-16722750D01*
X51549500Y-16906381D01*
X50350500Y-16906381D01*
X50350500Y-16893709D01*
X50317247Y-16683761D01*
X50310173Y-16661989D01*
X50251557Y-16481588D01*
X50155051Y-16292184D01*
X50155049Y-16292180D01*
X50030108Y-16120213D01*
X50030106Y-16120211D01*
X50030104Y-16120208D01*
X49879792Y-15969896D01*
X49879788Y-15969893D01*
X49879786Y-15969891D01*
X49707819Y-15844950D01*
X49707815Y-15844948D01*
X49518412Y-15748443D01*
X49316238Y-15682752D01*
X49106290Y-15649500D01*
X49106287Y-15649500D01*
X48893713Y-15649500D01*
X48893710Y-15649500D01*
X48683761Y-15682752D01*
X48481587Y-15748443D01*
X48292184Y-15844948D01*
X48292180Y-15844950D01*
X48120213Y-15969891D01*
X47969891Y-16120213D01*
X47844950Y-16292180D01*
X47844948Y-16292184D01*
X47748443Y-16481587D01*
X47732358Y-16531093D01*
X47696394Y-16580593D01*
X47638203Y-16599500D01*
X42419031Y-16599500D01*
X42360840Y-16580593D01*
X42349033Y-16570509D01*
X42338015Y-16559491D01*
X42338012Y-16559489D01*
X42338010Y-16559487D01*
X42212488Y-16487017D01*
X42212489Y-16487017D01*
X42182896Y-16479087D01*
X42072475Y-16449500D01*
X41927525Y-16449500D01*
X41865790Y-16466041D01*
X41787510Y-16487017D01*
X41661989Y-16559487D01*
X41559487Y-16661989D01*
X41487017Y-16787510D01*
X41449500Y-16927525D01*
X37225500Y-16927525D01*
X37225500Y-12499500D01*
X37244407Y-12441309D01*
X37293907Y-12405345D01*
X37324500Y-12400500D01*
X42580969Y-12400500D01*
X42639160Y-12419407D01*
X42650966Y-12429490D01*
X42661985Y-12440509D01*
X42661987Y-12440510D01*
X42661989Y-12440512D01*
X42787511Y-12512982D01*
X42787512Y-12512982D01*
X42787515Y-12512984D01*
X42927525Y-12550500D01*
X42927526Y-12550500D01*
X43072474Y-12550500D01*
X43072475Y-12550500D01*
X43212485Y-12512984D01*
X43212487Y-12512982D01*
X43212489Y-12512982D01*
X43338010Y-12440512D01*
X43338010Y-12440511D01*
X43338015Y-12440509D01*
X43440509Y-12338015D01*
X43453079Y-12316243D01*
X43512982Y-12212489D01*
X43512982Y-12212487D01*
X43512984Y-12212485D01*
X43550500Y-12072475D01*
X43550500Y-11927525D01*
X46449500Y-11927525D01*
X46449500Y-12072475D01*
X46458560Y-12106287D01*
X46487017Y-12212489D01*
X46559487Y-12338010D01*
X46559489Y-12338012D01*
X46559491Y-12338015D01*
X46661985Y-12440509D01*
X46661987Y-12440510D01*
X46661989Y-12440512D01*
X46787511Y-12512982D01*
X46787512Y-12512982D01*
X46787515Y-12512984D01*
X46927525Y-12550500D01*
X46927526Y-12550500D01*
X47072474Y-12550500D01*
X47072475Y-12550500D01*
X47212485Y-12512984D01*
X47212487Y-12512982D01*
X47212489Y-12512982D01*
X47338010Y-12440512D01*
X47338010Y-12440511D01*
X47338015Y-12440509D01*
X47440509Y-12338015D01*
X47493527Y-12246184D01*
X47538996Y-12205244D01*
X47599846Y-12198848D01*
X47652834Y-12229441D01*
X47677044Y-12280197D01*
X47682753Y-12316239D01*
X47748443Y-12518412D01*
X47844948Y-12707815D01*
X47844950Y-12707819D01*
X47969891Y-12879786D01*
X47969893Y-12879788D01*
X47969896Y-12879792D01*
X48120208Y-13030104D01*
X48120211Y-13030106D01*
X48120213Y-13030108D01*
X48292180Y-13155049D01*
X48292184Y-13155051D01*
X48481588Y-13251557D01*
X48683757Y-13317246D01*
X48683758Y-13317246D01*
X48683761Y-13317247D01*
X48893710Y-13350500D01*
X48893713Y-13350500D01*
X49106290Y-13350500D01*
X49316238Y-13317247D01*
X49316239Y-13317246D01*
X49316243Y-13317246D01*
X49518412Y-13251557D01*
X49707816Y-13155051D01*
X49879792Y-13030104D01*
X50030104Y-12879792D01*
X50155051Y-12707816D01*
X50251557Y-12518412D01*
X50317246Y-12316243D01*
X50328342Y-12246186D01*
X50350500Y-12106290D01*
X50350500Y-11906381D01*
X51549500Y-11906381D01*
X51549500Y-12093618D01*
X51586026Y-12277249D01*
X51657677Y-12450229D01*
X51657681Y-12450238D01*
X51732065Y-12561559D01*
X51761698Y-12605908D01*
X51894092Y-12738302D01*
X51960463Y-12782649D01*
X52049761Y-12842318D01*
X52049767Y-12842320D01*
X52049769Y-12842322D01*
X52222749Y-12913973D01*
X52406384Y-12950500D01*
X52406385Y-12950500D01*
X52593615Y-12950500D01*
X52593616Y-12950500D01*
X52777251Y-12913973D01*
X52950231Y-12842322D01*
X52950234Y-12842319D01*
X52950238Y-12842318D01*
X52999501Y-12809401D01*
X53105908Y-12738302D01*
X53238302Y-12605908D01*
X53329843Y-12468907D01*
X53342318Y-12450238D01*
X53342319Y-12450234D01*
X53342322Y-12450231D01*
X53413973Y-12277251D01*
X53450500Y-12093616D01*
X53450500Y-11906384D01*
X53413973Y-11722749D01*
X53342322Y-11549769D01*
X53342320Y-11549767D01*
X53342318Y-11549761D01*
X53275324Y-11449500D01*
X53238302Y-11394092D01*
X53105908Y-11261698D01*
X53061559Y-11232065D01*
X52950238Y-11157681D01*
X52950229Y-11157677D01*
X52777249Y-11086026D01*
X52593618Y-11049500D01*
X52593616Y-11049500D01*
X52406384Y-11049500D01*
X52406381Y-11049500D01*
X52222750Y-11086026D01*
X52049770Y-11157677D01*
X52049761Y-11157681D01*
X51894092Y-11261698D01*
X51894088Y-11261701D01*
X51761701Y-11394088D01*
X51761698Y-11394092D01*
X51657681Y-11549761D01*
X51657677Y-11549770D01*
X51586026Y-11722750D01*
X51549500Y-11906381D01*
X50350500Y-11906381D01*
X50350500Y-11893709D01*
X50317247Y-11683761D01*
X50315869Y-11679520D01*
X50251557Y-11481588D01*
X50155051Y-11292184D01*
X50155049Y-11292180D01*
X50030108Y-11120213D01*
X50030106Y-11120211D01*
X50030104Y-11120208D01*
X49879792Y-10969896D01*
X49879788Y-10969893D01*
X49879786Y-10969891D01*
X49707819Y-10844950D01*
X49707815Y-10844948D01*
X49518412Y-10748443D01*
X49316238Y-10682752D01*
X49106290Y-10649500D01*
X49106287Y-10649500D01*
X48893713Y-10649500D01*
X48893710Y-10649500D01*
X48683761Y-10682752D01*
X48481587Y-10748443D01*
X48292184Y-10844948D01*
X48292180Y-10844950D01*
X48120213Y-10969891D01*
X47969891Y-11120213D01*
X47844950Y-11292180D01*
X47844948Y-11292184D01*
X47748443Y-11481587D01*
X47682753Y-11683759D01*
X47677044Y-11719803D01*
X47649265Y-11774319D01*
X47594748Y-11802095D01*
X47534316Y-11792523D01*
X47493527Y-11753815D01*
X47440509Y-11661985D01*
X47338015Y-11559491D01*
X47338012Y-11559489D01*
X47338010Y-11559487D01*
X47212488Y-11487017D01*
X47212489Y-11487017D01*
X47182896Y-11479087D01*
X47072475Y-11449500D01*
X46927525Y-11449500D01*
X46865790Y-11466041D01*
X46787510Y-11487017D01*
X46661989Y-11559487D01*
X46559487Y-11661989D01*
X46487017Y-11787510D01*
X46449500Y-11927525D01*
X43550500Y-11927525D01*
X43512984Y-11787515D01*
X43512982Y-11787512D01*
X43512982Y-11787510D01*
X43440512Y-11661989D01*
X43440510Y-11661987D01*
X43440509Y-11661985D01*
X43338015Y-11559491D01*
X43338012Y-11559489D01*
X43338010Y-11559487D01*
X43212488Y-11487017D01*
X43212489Y-11487017D01*
X43182896Y-11479087D01*
X43072475Y-11449500D01*
X42927525Y-11449500D01*
X42865790Y-11466041D01*
X42787510Y-11487017D01*
X42661989Y-11559487D01*
X42661988Y-11559488D01*
X42661985Y-11559490D01*
X42661985Y-11559491D01*
X42650970Y-11570505D01*
X42596456Y-11598281D01*
X42580969Y-11599500D01*
X37324500Y-11599500D01*
X37266309Y-11580593D01*
X37230345Y-11531093D01*
X37225500Y-11500500D01*
X37225500Y-10736909D01*
X37244407Y-10678718D01*
X37265712Y-10657254D01*
X37315533Y-10620484D01*
X37347150Y-10597150D01*
X37427793Y-10487882D01*
X37472646Y-10359699D01*
X37475499Y-10329273D01*
X37475500Y-10329273D01*
X37475500Y-9670727D01*
X37475499Y-9670725D01*
X37472646Y-9640301D01*
X37427793Y-9512118D01*
X37347150Y-9402850D01*
X37347146Y-9402847D01*
X37347144Y-9402845D01*
X37237883Y-9322207D01*
X37109703Y-9277355D01*
X37109694Y-9277353D01*
X37079274Y-9274500D01*
X37079266Y-9274500D01*
X36570734Y-9274500D01*
X36570725Y-9274500D01*
X36540305Y-9277353D01*
X36540296Y-9277355D01*
X36412116Y-9322207D01*
X36302855Y-9402845D01*
X36302845Y-9402855D01*
X36222207Y-9512116D01*
X36177355Y-9640296D01*
X36177353Y-9640305D01*
X36174500Y-9670725D01*
X36174500Y-10329274D01*
X36177353Y-10359694D01*
X36177355Y-10359703D01*
X36222207Y-10487883D01*
X36302845Y-10597144D01*
X36302847Y-10597146D01*
X36302850Y-10597150D01*
X36302853Y-10597152D01*
X36302854Y-10597153D01*
X36384288Y-10657254D01*
X36419881Y-10707021D01*
X36424500Y-10736909D01*
X36424500Y-16500500D01*
X36405593Y-16558691D01*
X36356093Y-16594655D01*
X36325500Y-16599500D01*
X32114500Y-16599500D01*
X32056309Y-16580593D01*
X32020345Y-16531093D01*
X32015500Y-16500500D01*
X32015500Y-16312128D01*
X32013355Y-16292180D01*
X32009091Y-16252516D01*
X31973720Y-16157681D01*
X31958797Y-16117670D01*
X31929830Y-16078974D01*
X31872547Y-16002453D01*
X31829049Y-15969891D01*
X31757329Y-15916202D01*
X31622489Y-15865910D01*
X31622484Y-15865909D01*
X31622482Y-15865908D01*
X31622478Y-15865908D01*
X31591250Y-15862550D01*
X31562874Y-15859500D01*
X29967126Y-15859500D01*
X29942635Y-15862133D01*
X29907521Y-15865908D01*
X29907510Y-15865910D01*
X29772670Y-15916202D01*
X29657455Y-16002451D01*
X29657451Y-16002455D01*
X29571202Y-16117670D01*
X29520910Y-16252510D01*
X29520908Y-16252521D01*
X29514500Y-16312128D01*
X22485500Y-16312128D01*
X22485500Y-16312126D01*
X22479091Y-16252516D01*
X22443720Y-16157681D01*
X22428797Y-16117670D01*
X22399830Y-16078974D01*
X22342547Y-16002453D01*
X22299049Y-15969891D01*
X22227329Y-15916202D01*
X22092489Y-15865910D01*
X22092484Y-15865909D01*
X22092482Y-15865908D01*
X22092478Y-15865908D01*
X22061250Y-15862550D01*
X22032874Y-15859500D01*
X20437126Y-15859500D01*
X20412635Y-15862133D01*
X20377521Y-15865908D01*
X20377510Y-15865910D01*
X20242670Y-15916202D01*
X20127455Y-16002451D01*
X20127451Y-16002455D01*
X20041202Y-16117670D01*
X19990910Y-16252510D01*
X19990908Y-16252521D01*
X19984500Y-16312128D01*
X19984500Y-16525500D01*
X19965593Y-16583691D01*
X19916093Y-16619655D01*
X19885500Y-16624500D01*
X18974500Y-16624500D01*
X18916309Y-16605593D01*
X18880345Y-16556093D01*
X18875500Y-16525500D01*
X18875500Y-12499500D01*
X18894407Y-12441309D01*
X18943907Y-12405345D01*
X18974500Y-12400500D01*
X20735500Y-12400500D01*
X20793691Y-12419407D01*
X20829655Y-12468907D01*
X20834500Y-12499500D01*
X20834500Y-13220500D01*
X20815593Y-13278691D01*
X20766093Y-13314655D01*
X20735500Y-13319500D01*
X20437126Y-13319500D01*
X20412635Y-13322133D01*
X20377521Y-13325908D01*
X20377510Y-13325910D01*
X20242670Y-13376202D01*
X20127455Y-13462451D01*
X20127451Y-13462455D01*
X20041202Y-13577670D01*
X19990910Y-13712510D01*
X19990908Y-13712521D01*
X19986533Y-13753208D01*
X19984500Y-13772126D01*
X19984500Y-15147874D01*
X19985272Y-15155051D01*
X19990908Y-15207478D01*
X19990910Y-15207489D01*
X20041202Y-15342329D01*
X20047319Y-15350500D01*
X20127453Y-15457547D01*
X20203974Y-15514830D01*
X20242670Y-15543797D01*
X20377510Y-15594089D01*
X20377511Y-15594089D01*
X20377516Y-15594091D01*
X20437126Y-15600500D01*
X20437129Y-15600500D01*
X22032871Y-15600500D01*
X22032874Y-15600500D01*
X22092484Y-15594091D01*
X22139303Y-15576628D01*
X22227329Y-15543797D01*
X22227329Y-15543796D01*
X22227331Y-15543796D01*
X22342547Y-15457547D01*
X22428796Y-15342331D01*
X22479091Y-15207484D01*
X22485500Y-15147874D01*
X22485500Y-13772126D01*
X22479091Y-13712516D01*
X22468365Y-13683757D01*
X22428797Y-13577670D01*
X22399830Y-13538974D01*
X22342547Y-13462453D01*
X22251227Y-13394092D01*
X22227329Y-13376202D01*
X22092489Y-13325910D01*
X22092484Y-13325909D01*
X22092482Y-13325908D01*
X22092478Y-13325908D01*
X22061250Y-13322550D01*
X22032874Y-13319500D01*
X22032871Y-13319500D01*
X21734500Y-13319500D01*
X21676309Y-13300593D01*
X21640345Y-13251093D01*
X21635500Y-13220500D01*
X21635500Y-11947274D01*
X21635500Y-11947273D01*
X21608207Y-11845413D01*
X21555480Y-11754087D01*
X21480913Y-11679520D01*
X21450548Y-11661989D01*
X21389589Y-11626794D01*
X21389588Y-11626793D01*
X21389587Y-11626793D01*
X21287727Y-11599500D01*
X21287725Y-11599500D01*
X18974500Y-11599500D01*
X18916309Y-11580593D01*
X18880345Y-11531093D01*
X18875500Y-11500500D01*
X18875500Y-10300566D01*
X18875500Y-10300565D01*
X18849910Y-10205062D01*
X18849908Y-10205059D01*
X18849908Y-10205057D01*
X18800476Y-10119440D01*
X18800475Y-10119438D01*
X18730562Y-10049525D01*
X18684424Y-10022887D01*
X18644941Y-10000091D01*
X18644943Y-10000091D01*
X18607885Y-9990161D01*
X18549435Y-9974500D01*
X18549433Y-9974500D01*
X15895101Y-9974500D01*
X15836910Y-9955593D01*
X15802343Y-9910097D01*
X15796628Y-9894775D01*
X15796626Y-9894771D01*
X15714688Y-9785315D01*
X15714687Y-9785313D01*
X15678476Y-9758206D01*
X15605228Y-9703373D01*
X15605226Y-9703372D01*
X15477114Y-9655588D01*
X15477113Y-9655587D01*
X15438895Y-9651479D01*
X15420485Y-9649500D01*
X15420481Y-9649500D01*
X14579521Y-9649500D01*
X14579515Y-9649501D01*
X14522888Y-9655587D01*
X14522886Y-9655588D01*
X14394774Y-9703372D01*
X14394773Y-9703372D01*
X14394772Y-9703373D01*
X14285315Y-9785311D01*
X14285311Y-9785315D01*
X14203373Y-9894771D01*
X14155587Y-10022887D01*
X14149500Y-10079518D01*
X14149500Y-10620478D01*
X14149501Y-10620484D01*
X14155587Y-10677111D01*
X14155587Y-10677112D01*
X14155588Y-10677114D01*
X14203372Y-10805226D01*
X14285313Y-10914687D01*
X14394774Y-10996628D01*
X14522886Y-11044412D01*
X14579515Y-11050500D01*
X15420484Y-11050499D01*
X15477114Y-11044412D01*
X15605226Y-10996628D01*
X15714687Y-10914687D01*
X15796628Y-10805226D01*
X15802343Y-10789902D01*
X15840394Y-10741988D01*
X15895101Y-10725500D01*
X18025500Y-10725500D01*
X18083691Y-10744407D01*
X18119655Y-10793907D01*
X18124500Y-10824500D01*
X18124500Y-11500500D01*
X18105593Y-11558691D01*
X18056093Y-11594655D01*
X18025500Y-11599500D01*
X13052727Y-11599500D01*
X12947273Y-11599500D01*
X12845413Y-11626793D01*
X12845412Y-11626793D01*
X12845410Y-11626794D01*
X12845409Y-11626794D01*
X12754089Y-11679518D01*
X12679518Y-11754089D01*
X12626794Y-11845409D01*
X12626794Y-11845410D01*
X12626793Y-11845412D01*
X12626793Y-11845413D01*
X12604792Y-11927525D01*
X12599500Y-11947274D01*
X12599500Y-13234350D01*
X12580593Y-13292541D01*
X12531093Y-13328505D01*
X12504827Y-13333255D01*
X8333996Y-13515730D01*
X8275035Y-13499385D01*
X8241459Y-13461770D01*
X8206975Y-13394092D01*
X8155051Y-13292184D01*
X8155049Y-13292180D01*
X8030108Y-13120213D01*
X8030106Y-13120211D01*
X8030104Y-13120208D01*
X7879792Y-12969896D01*
X7879788Y-12969893D01*
X7879786Y-12969891D01*
X7707819Y-12844950D01*
X7707815Y-12844948D01*
X7518412Y-12748443D01*
X7316238Y-12682752D01*
X7106290Y-12649500D01*
X7106287Y-12649500D01*
X6893713Y-12649500D01*
X6893710Y-12649500D01*
X6683761Y-12682752D01*
X6481587Y-12748443D01*
X6292184Y-12844948D01*
X6292180Y-12844950D01*
X6120213Y-12969891D01*
X5969891Y-13120213D01*
X5844950Y-13292180D01*
X5844948Y-13292184D01*
X5748443Y-13481587D01*
X5682752Y-13683761D01*
X5649500Y-13893709D01*
X4447979Y-13893709D01*
X4413973Y-13722749D01*
X4342322Y-13549769D01*
X4342320Y-13549767D01*
X4342318Y-13549761D01*
X4282649Y-13460463D01*
X4238302Y-13394092D01*
X4105908Y-13261698D01*
X4044251Y-13220500D01*
X3950238Y-13157681D01*
X3950229Y-13157677D01*
X3777249Y-13086026D01*
X3593618Y-13049500D01*
X3593616Y-13049500D01*
X3406384Y-13049500D01*
X3406381Y-13049500D01*
X3222750Y-13086026D01*
X3049770Y-13157677D01*
X3049761Y-13157681D01*
X2894092Y-13261698D01*
X2894088Y-13261701D01*
X2761701Y-13394088D01*
X2761698Y-13394092D01*
X2657681Y-13549761D01*
X2657677Y-13549770D01*
X2586026Y-13722750D01*
X2549500Y-13906381D01*
X1950499Y-13906381D01*
X1913973Y-13722749D01*
X1842322Y-13549769D01*
X1842320Y-13549767D01*
X1842318Y-13549761D01*
X1782649Y-13460463D01*
X1738302Y-13394092D01*
X1605908Y-13261698D01*
X1544251Y-13220500D01*
X1450238Y-13157681D01*
X1450229Y-13157677D01*
X1277249Y-13086026D01*
X1093618Y-13049500D01*
X1093616Y-13049500D01*
X906384Y-13049500D01*
X906381Y-13049500D01*
X722749Y-13086027D01*
X722747Y-13086027D01*
X637385Y-13121385D01*
X576388Y-13126185D01*
X524219Y-13094216D01*
X500805Y-13037688D01*
X500500Y-13029921D01*
X500500Y-7704518D01*
X24524500Y-7704518D01*
X24524500Y-8295478D01*
X24524501Y-8295484D01*
X24530587Y-8352111D01*
X24530587Y-8352112D01*
X24530588Y-8352114D01*
X24578372Y-8480226D01*
X24660313Y-8589687D01*
X24769774Y-8671628D01*
X24897886Y-8719412D01*
X24954515Y-8725500D01*
X25495484Y-8725499D01*
X25552114Y-8719412D01*
X25680226Y-8671628D01*
X25789687Y-8589687D01*
X25871628Y-8480226D01*
X25907510Y-8384022D01*
X25945559Y-8336112D01*
X26004506Y-8319714D01*
X26061833Y-8341096D01*
X26093024Y-8384026D01*
X26128814Y-8479983D01*
X26210668Y-8589327D01*
X26210672Y-8589331D01*
X26320016Y-8671185D01*
X26447990Y-8718916D01*
X26447998Y-8718918D01*
X26504566Y-8724999D01*
X26625000Y-8724999D01*
X26625000Y-8150001D01*
X26925000Y-8150001D01*
X26925000Y-8724998D01*
X26925001Y-8724999D01*
X27045431Y-8724999D01*
X27045436Y-8724998D01*
X27102004Y-8718918D01*
X27102006Y-8718917D01*
X27229983Y-8671185D01*
X27339327Y-8589331D01*
X27339331Y-8589327D01*
X27421185Y-8479983D01*
X27468916Y-8352009D01*
X27468918Y-8352001D01*
X27475000Y-8295434D01*
X27475000Y-8150001D01*
X27474999Y-8150000D01*
X26925001Y-8150000D01*
X26925000Y-8150001D01*
X26625000Y-8150001D01*
X26625000Y-7275001D01*
X26925000Y-7275001D01*
X26925000Y-7849999D01*
X26925001Y-7850000D01*
X27474998Y-7850000D01*
X27474999Y-7849999D01*
X27474999Y-7704569D01*
X27474998Y-7704563D01*
X27468918Y-7647995D01*
X27468917Y-7647993D01*
X27421185Y-7520016D01*
X27339331Y-7410672D01*
X27339327Y-7410668D01*
X27229983Y-7328814D01*
X27102009Y-7281083D01*
X27102001Y-7281081D01*
X27045434Y-7275000D01*
X26925001Y-7275000D01*
X26925000Y-7275001D01*
X26625000Y-7275001D01*
X26624999Y-7275000D01*
X26504569Y-7275000D01*
X26504562Y-7275001D01*
X26447995Y-7281081D01*
X26447993Y-7281082D01*
X26320016Y-7328814D01*
X26210672Y-7410668D01*
X26210668Y-7410672D01*
X26128814Y-7520017D01*
X26093024Y-7615973D01*
X26054973Y-7663888D01*
X25996026Y-7680285D01*
X25938698Y-7658903D01*
X25907509Y-7615975D01*
X25871628Y-7519774D01*
X25789687Y-7410313D01*
X25715172Y-7354532D01*
X25679918Y-7304523D01*
X25675500Y-7275278D01*
X25675500Y-6049500D01*
X25694407Y-5991309D01*
X25743907Y-5955345D01*
X25774500Y-5950500D01*
X30215500Y-5950500D01*
X30273691Y-5969407D01*
X30309655Y-6018907D01*
X30314500Y-6049500D01*
X30314500Y-13220500D01*
X30295593Y-13278691D01*
X30246093Y-13314655D01*
X30215500Y-13319500D01*
X29967126Y-13319500D01*
X29942635Y-13322133D01*
X29907521Y-13325908D01*
X29907510Y-13325910D01*
X29772670Y-13376202D01*
X29657455Y-13462451D01*
X29657451Y-13462455D01*
X29571202Y-13577670D01*
X29520910Y-13712510D01*
X29520908Y-13712521D01*
X29516533Y-13753208D01*
X29514500Y-13772126D01*
X29514500Y-15147874D01*
X29515272Y-15155051D01*
X29520908Y-15207478D01*
X29520910Y-15207489D01*
X29571202Y-15342329D01*
X29577319Y-15350500D01*
X29657453Y-15457547D01*
X29733974Y-15514830D01*
X29772670Y-15543797D01*
X29907510Y-15594089D01*
X29907511Y-15594089D01*
X29907516Y-15594091D01*
X29967126Y-15600500D01*
X29967129Y-15600500D01*
X31562871Y-15600500D01*
X31562874Y-15600500D01*
X31622484Y-15594091D01*
X31669303Y-15576628D01*
X31757329Y-15543797D01*
X31757329Y-15543796D01*
X31757331Y-15543796D01*
X31872547Y-15457547D01*
X31958796Y-15342331D01*
X32009091Y-15207484D01*
X32015500Y-15147874D01*
X32015500Y-13772126D01*
X32009091Y-13712516D01*
X31998365Y-13683757D01*
X31958797Y-13577670D01*
X31929830Y-13538974D01*
X31872547Y-13462453D01*
X31781227Y-13394092D01*
X31757329Y-13376202D01*
X31622489Y-13325910D01*
X31622484Y-13325909D01*
X31622482Y-13325908D01*
X31622478Y-13325908D01*
X31591250Y-13322550D01*
X31562874Y-13319500D01*
X31562871Y-13319500D01*
X31314500Y-13319500D01*
X31256309Y-13300593D01*
X31220345Y-13251093D01*
X31215500Y-13220500D01*
X31215500Y-6024500D01*
X31234407Y-5966309D01*
X31283907Y-5930345D01*
X31314500Y-5925500D01*
X34650500Y-5925500D01*
X34708691Y-5944407D01*
X34744655Y-5993907D01*
X34749500Y-6024500D01*
X34749500Y-9281541D01*
X34730593Y-9339732D01*
X34709288Y-9361196D01*
X34652852Y-9402847D01*
X34652850Y-9402849D01*
X34572207Y-9512116D01*
X34527355Y-9640296D01*
X34527353Y-9640305D01*
X34524500Y-9670725D01*
X34524500Y-10329274D01*
X34527353Y-10359694D01*
X34527355Y-10359703D01*
X34572207Y-10487883D01*
X34652845Y-10597144D01*
X34652847Y-10597146D01*
X34652850Y-10597150D01*
X34652853Y-10597152D01*
X34652855Y-10597154D01*
X34762116Y-10677792D01*
X34762117Y-10677792D01*
X34762118Y-10677793D01*
X34890301Y-10722646D01*
X34920725Y-10725499D01*
X34920727Y-10725500D01*
X34920734Y-10725500D01*
X35429273Y-10725500D01*
X35429273Y-10725499D01*
X35459699Y-10722646D01*
X35587882Y-10677793D01*
X35697150Y-10597150D01*
X35777793Y-10487882D01*
X35822646Y-10359699D01*
X35825499Y-10329273D01*
X35825500Y-10329273D01*
X35825500Y-9670727D01*
X35825499Y-9670725D01*
X35822646Y-9640301D01*
X35777793Y-9512118D01*
X35697150Y-9402850D01*
X35697149Y-9402849D01*
X35697147Y-9402847D01*
X35640712Y-9361196D01*
X35605119Y-9311429D01*
X35600500Y-9281541D01*
X35600500Y-6893709D01*
X47649500Y-6893709D01*
X47649500Y-7106290D01*
X47682752Y-7316238D01*
X47748443Y-7518412D01*
X47844948Y-7707815D01*
X47844950Y-7707819D01*
X47969891Y-7879786D01*
X47969893Y-7879788D01*
X47969896Y-7879792D01*
X48120208Y-8030104D01*
X48120211Y-8030106D01*
X48120213Y-8030108D01*
X48292180Y-8155049D01*
X48292184Y-8155051D01*
X48481588Y-8251557D01*
X48683757Y-8317246D01*
X48683758Y-8317246D01*
X48683761Y-8317247D01*
X48893710Y-8350500D01*
X48893713Y-8350500D01*
X49106290Y-8350500D01*
X49316238Y-8317247D01*
X49316239Y-8317246D01*
X49316243Y-8317246D01*
X49518412Y-8251557D01*
X49707816Y-8155051D01*
X49879792Y-8030104D01*
X50030104Y-7879792D01*
X50155051Y-7707816D01*
X50251557Y-7518412D01*
X50317246Y-7316243D01*
X50317247Y-7316238D01*
X50350500Y-7106290D01*
X50350500Y-6906381D01*
X51549500Y-6906381D01*
X51549500Y-7093618D01*
X51586026Y-7277249D01*
X51657677Y-7450229D01*
X51657681Y-7450238D01*
X51704307Y-7520017D01*
X51761698Y-7605908D01*
X51894092Y-7738302D01*
X51960463Y-7782649D01*
X52049761Y-7842318D01*
X52049767Y-7842320D01*
X52049769Y-7842322D01*
X52222749Y-7913973D01*
X52406384Y-7950500D01*
X52406385Y-7950500D01*
X52593615Y-7950500D01*
X52593616Y-7950500D01*
X52777251Y-7913973D01*
X52950231Y-7842322D01*
X52950234Y-7842319D01*
X52950238Y-7842318D01*
X52999501Y-7809401D01*
X53105908Y-7738302D01*
X53238302Y-7605908D01*
X53312282Y-7495187D01*
X53342318Y-7450238D01*
X53342319Y-7450234D01*
X53342322Y-7450231D01*
X53413973Y-7277251D01*
X53450500Y-7093616D01*
X53450500Y-6906384D01*
X53413973Y-6722749D01*
X53342322Y-6549769D01*
X53342320Y-6549767D01*
X53342318Y-6549761D01*
X53282649Y-6460463D01*
X53238302Y-6394092D01*
X53105908Y-6261698D01*
X53061559Y-6232065D01*
X52950238Y-6157681D01*
X52950229Y-6157677D01*
X52777249Y-6086026D01*
X52593618Y-6049500D01*
X52593616Y-6049500D01*
X52406384Y-6049500D01*
X52406381Y-6049500D01*
X52222750Y-6086026D01*
X52049770Y-6157677D01*
X52049761Y-6157681D01*
X51894092Y-6261698D01*
X51894088Y-6261701D01*
X51761701Y-6394088D01*
X51761698Y-6394092D01*
X51657681Y-6549761D01*
X51657677Y-6549770D01*
X51586026Y-6722750D01*
X51549500Y-6906381D01*
X50350500Y-6906381D01*
X50350500Y-6893709D01*
X50317247Y-6683761D01*
X50317246Y-6683757D01*
X50251557Y-6481588D01*
X50155051Y-6292184D01*
X50155049Y-6292180D01*
X50030108Y-6120213D01*
X50030106Y-6120211D01*
X50030104Y-6120208D01*
X49879792Y-5969896D01*
X49879788Y-5969893D01*
X49879786Y-5969891D01*
X49707819Y-5844950D01*
X49707815Y-5844948D01*
X49518412Y-5748443D01*
X49316238Y-5682752D01*
X49106290Y-5649500D01*
X49106287Y-5649500D01*
X48893713Y-5649500D01*
X48893710Y-5649500D01*
X48683761Y-5682752D01*
X48481587Y-5748443D01*
X48292184Y-5844948D01*
X48292180Y-5844950D01*
X48120213Y-5969891D01*
X47969891Y-6120213D01*
X47844950Y-6292180D01*
X47844948Y-6292184D01*
X47748443Y-6481587D01*
X47682752Y-6683761D01*
X47649500Y-6893709D01*
X35600500Y-6893709D01*
X35600500Y-5443983D01*
X35596090Y-5427525D01*
X35571503Y-5335763D01*
X35571501Y-5335760D01*
X35571501Y-5335758D01*
X35515486Y-5238739D01*
X35515485Y-5238737D01*
X35436263Y-5159515D01*
X35436260Y-5159513D01*
X35339240Y-5103498D01*
X35339242Y-5103498D01*
X35297251Y-5092247D01*
X35231018Y-5074500D01*
X35231016Y-5074500D01*
X30930645Y-5074500D01*
X30905022Y-5071127D01*
X30898667Y-5069424D01*
X30824309Y-5049500D01*
X30824307Y-5049500D01*
X25572236Y-5049500D01*
X25522737Y-5036236D01*
X25437485Y-4987016D01*
X25297475Y-4949500D01*
X25152525Y-4949500D01*
X25090790Y-4966041D01*
X25012510Y-4987017D01*
X24886989Y-5059487D01*
X24784487Y-5161989D01*
X24712017Y-5287510D01*
X24712016Y-5287515D01*
X24674500Y-5427525D01*
X24674500Y-5572475D01*
X24712016Y-5712485D01*
X24761236Y-5797737D01*
X24774500Y-5847236D01*
X24774500Y-7275278D01*
X24755593Y-7333469D01*
X24734828Y-7354532D01*
X24660316Y-7410310D01*
X24660311Y-7410315D01*
X24578373Y-7519771D01*
X24530587Y-7647887D01*
X24524500Y-7704518D01*
X500500Y-7704518D01*
X500500Y-3878710D01*
X2149500Y-3878710D01*
X2149500Y-4121289D01*
X2181161Y-4361781D01*
X2181161Y-4361786D01*
X2243944Y-4596092D01*
X2243948Y-4596105D01*
X2336772Y-4820204D01*
X2336774Y-4820208D01*
X2336776Y-4820212D01*
X2433081Y-4987017D01*
X2458066Y-5030292D01*
X2605729Y-5222731D01*
X2605731Y-5222733D01*
X2605735Y-5222738D01*
X2777262Y-5394265D01*
X2777266Y-5394268D01*
X2777268Y-5394270D01*
X2842056Y-5443983D01*
X2969711Y-5541936D01*
X3179788Y-5663224D01*
X3403900Y-5756054D01*
X3638211Y-5818838D01*
X3878712Y-5850500D01*
X3878713Y-5850500D01*
X4121287Y-5850500D01*
X4121288Y-5850500D01*
X4361789Y-5818838D01*
X4596100Y-5756054D01*
X4820212Y-5663224D01*
X5030289Y-5541936D01*
X5222738Y-5394265D01*
X5394265Y-5222738D01*
X5541936Y-5030289D01*
X5663224Y-4820212D01*
X5756054Y-4596100D01*
X5818838Y-4361789D01*
X5850500Y-4121288D01*
X5850500Y-3878712D01*
X5818838Y-3638211D01*
X5756054Y-3403900D01*
X5663224Y-3179788D01*
X5541936Y-2969711D01*
X5394265Y-2777262D01*
X5222738Y-2605735D01*
X5222733Y-2605731D01*
X5222731Y-2605729D01*
X5030292Y-2458066D01*
X5030289Y-2458064D01*
X4820212Y-2336776D01*
X4820208Y-2336774D01*
X4820204Y-2336772D01*
X4596105Y-2243948D01*
X4596104Y-2243947D01*
X4596100Y-2243946D01*
X4361789Y-2181162D01*
X4361786Y-2181161D01*
X4361784Y-2181161D01*
X4121289Y-2149500D01*
X4121288Y-2149500D01*
X3878712Y-2149500D01*
X3878710Y-2149500D01*
X3638218Y-2181161D01*
X3638213Y-2181161D01*
X3403907Y-2243944D01*
X3403894Y-2243948D01*
X3179795Y-2336772D01*
X2969707Y-2458066D01*
X2777268Y-2605729D01*
X2605729Y-2777268D01*
X2458066Y-2969707D01*
X2336772Y-3179795D01*
X2243948Y-3403894D01*
X2243944Y-3403907D01*
X2181161Y-3638213D01*
X2181161Y-3638218D01*
X2149500Y-3878710D01*
X500500Y-3878710D01*
X500500Y-599500D01*
X519407Y-541309D01*
X568907Y-505345D01*
X599500Y-500500D01*
X55400500Y-500500D01*
X55458691Y-519407D01*
G37*
%TD.AperFunction*%
%TD*%
M02*
