%TF.GenerationSoftware,KiCad,Pcbnew,10.0.6*%
%TF.CreationDate,2026-09-21T15:54:58+02:00*%
%TF.ProjectId,midi2ttl,6d696469-3274-4746-9c2e-6b696361645f,rev?*%
%TF.SameCoordinates,Original*%
%TF.FileFunction,Copper,L2,Bot*%
%TF.FilePolarity,Positive*%
%FSLAX46Y46*%
G04 Gerber Fmt 4.6, Leading zero omitted, Abs format (unit mm)*
G04 Created by KiCad (PCBNEW 10.0.6) date 2026-09-21 15:54:58*
%MOMM*%
%LPD*%
G01*
G04 APERTURE LIST*
%TA.AperFunction,ComponentPad*%
%ADD10C,2.200000*%
%TD*%
%TA.AperFunction,ViaPad*%
%ADD11C,0.600000*%
%TD*%
%TA.AperFunction,Conductor*%
%ADD12C,0.350000*%
%TD*%
%TA.AperFunction,Conductor*%
%ADD13C,0.300000*%
%TD*%
G04 APERTURE END LIST*
D10*
%TO.P,J7,1*%
%TO.N,GND*%
X49000000Y-27000000D03*
%TD*%
%TO.P,J10,1*%
%TO.N,MIDI_OUT_5*%
X28000000Y-36000000D03*
%TD*%
%TO.P,J3,1*%
%TO.N,BOOT*%
X49000000Y-7000000D03*
%TD*%
%TO.P,J2,1*%
%TO.N,MIDI_IN_5*%
X7000000Y-22000000D03*
%TD*%
%TO.P,J11,1*%
%TO.N,GND*%
X40000000Y-36000000D03*
%TD*%
%TO.P,J4,1*%
%TO.N,RX*%
X49000000Y-12000000D03*
%TD*%
%TO.P,J8,1*%
%TO.N,SCK*%
X49000000Y-32000000D03*
%TD*%
%TO.P,J1,1*%
%TO.N,MIDI_IN_4*%
X7000000Y-14000000D03*
%TD*%
%TO.P,J6,1*%
%TO.N,VCC*%
X49000000Y-22000000D03*
%TD*%
%TO.P,J9,1*%
%TO.N,MIDI_OUT_4*%
X16000000Y-36000000D03*
%TD*%
%TO.P,J5,1*%
%TO.N,TX*%
X49000000Y-17000000D03*
%TD*%
D11*
%TO.N,GND*%
X28275000Y-8000000D03*
%TO.N,VCC*%
X16000000Y-28175000D03*
X47500000Y-22000000D03*
X25225000Y-5500000D03*
%TO.N,RX*%
X43000000Y-12000000D03*
X47000000Y-12000000D03*
%TO.N,TX*%
X42000000Y-17000000D03*
X28000000Y-28175000D03*
%TD*%
%TO.N,VCC*%
D12*
X25225000Y-5500000D02*
X47500000Y-5500000D01*
X16000000Y-5500000D02*
X16000000Y-28175000D01*
X47500000Y-22000000D02*
X49000000Y-22000000D01*
X47500000Y-5500000D02*
X47500000Y-22000000D01*
X25225000Y-5500000D02*
X16000000Y-5500000D01*
%TO.N,RX*%
D13*
X47000000Y-12000000D02*
X49000000Y-12000000D01*
X43000000Y-12000000D02*
X47000000Y-12000000D01*
%TO.N,TX*%
X42000000Y-17000000D02*
X42000000Y-28175000D01*
X42000000Y-28175000D02*
X28000000Y-28175000D01*
%TD*%
%TA.AperFunction,Conductor*%
%TO.N,GND*%
G36*
X55458691Y-519407D02*
G01*
X55494655Y-568907D01*
X55499500Y-599500D01*
X55499500Y-6029921D01*
X55480593Y-6088112D01*
X55431093Y-6124076D01*
X55369907Y-6124076D01*
X55362615Y-6121385D01*
X55277251Y-6086027D01*
X55093618Y-6049500D01*
X55093616Y-6049500D01*
X54906384Y-6049500D01*
X54906381Y-6049500D01*
X54722750Y-6086026D01*
X54549770Y-6157677D01*
X54549761Y-6157681D01*
X54394092Y-6261698D01*
X54394088Y-6261701D01*
X54261701Y-6394088D01*
X54261698Y-6394092D01*
X54157681Y-6549761D01*
X54157677Y-6549770D01*
X54086026Y-6722750D01*
X54049500Y-6906381D01*
X54049500Y-7093618D01*
X54086026Y-7277249D01*
X54157677Y-7450229D01*
X54157681Y-7450238D01*
X54232065Y-7561559D01*
X54261698Y-7605908D01*
X54394092Y-7738302D01*
X54460463Y-7782649D01*
X54549761Y-7842318D01*
X54549767Y-7842320D01*
X54549769Y-7842322D01*
X54722749Y-7913973D01*
X54906384Y-7950500D01*
X54906385Y-7950500D01*
X55093615Y-7950500D01*
X55093616Y-7950500D01*
X55277251Y-7913973D01*
X55362614Y-7878613D01*
X55423611Y-7873813D01*
X55475780Y-7905783D01*
X55499195Y-7962311D01*
X55499500Y-7970078D01*
X55499500Y-11029921D01*
X55480593Y-11088112D01*
X55431093Y-11124076D01*
X55369907Y-11124076D01*
X55362615Y-11121385D01*
X55277251Y-11086027D01*
X55093618Y-11049500D01*
X55093616Y-11049500D01*
X54906384Y-11049500D01*
X54906381Y-11049500D01*
X54722750Y-11086026D01*
X54549770Y-11157677D01*
X54549761Y-11157681D01*
X54394092Y-11261698D01*
X54394088Y-11261701D01*
X54261701Y-11394088D01*
X54261698Y-11394092D01*
X54157681Y-11549761D01*
X54157677Y-11549770D01*
X54086026Y-11722750D01*
X54049500Y-11906381D01*
X54049500Y-12093618D01*
X54086026Y-12277249D01*
X54157677Y-12450229D01*
X54157681Y-12450238D01*
X54232065Y-12561559D01*
X54261698Y-12605908D01*
X54394092Y-12738302D01*
X54460463Y-12782649D01*
X54549761Y-12842318D01*
X54549767Y-12842320D01*
X54549769Y-12842322D01*
X54722749Y-12913973D01*
X54906384Y-12950500D01*
X54906385Y-12950500D01*
X55093615Y-12950500D01*
X55093616Y-12950500D01*
X55277251Y-12913973D01*
X55362614Y-12878613D01*
X55423611Y-12873813D01*
X55475780Y-12905783D01*
X55499195Y-12962311D01*
X55499500Y-12970078D01*
X55499500Y-16029921D01*
X55480593Y-16088112D01*
X55431093Y-16124076D01*
X55369907Y-16124076D01*
X55362615Y-16121385D01*
X55277251Y-16086027D01*
X55093618Y-16049500D01*
X55093616Y-16049500D01*
X54906384Y-16049500D01*
X54906381Y-16049500D01*
X54722750Y-16086026D01*
X54549770Y-16157677D01*
X54549761Y-16157681D01*
X54394092Y-16261698D01*
X54394088Y-16261701D01*
X54261701Y-16394088D01*
X54261698Y-16394092D01*
X54157681Y-16549761D01*
X54157677Y-16549770D01*
X54086026Y-16722750D01*
X54049500Y-16906381D01*
X54049500Y-17093618D01*
X54086026Y-17277249D01*
X54157677Y-17450229D01*
X54157681Y-17450238D01*
X54232065Y-17561559D01*
X54261698Y-17605908D01*
X54394092Y-17738302D01*
X54460463Y-17782649D01*
X54549761Y-17842318D01*
X54549767Y-17842320D01*
X54549769Y-17842322D01*
X54722749Y-17913973D01*
X54906384Y-17950500D01*
X54906385Y-17950500D01*
X55093615Y-17950500D01*
X55093616Y-17950500D01*
X55277251Y-17913973D01*
X55362614Y-17878613D01*
X55423611Y-17873813D01*
X55475780Y-17905783D01*
X55499195Y-17962311D01*
X55499500Y-17970078D01*
X55499500Y-21029921D01*
X55480593Y-21088112D01*
X55431093Y-21124076D01*
X55369907Y-21124076D01*
X55362615Y-21121385D01*
X55277251Y-21086027D01*
X55093618Y-21049500D01*
X55093616Y-21049500D01*
X54906384Y-21049500D01*
X54906381Y-21049500D01*
X54722750Y-21086026D01*
X54549770Y-21157677D01*
X54549761Y-21157681D01*
X54394092Y-21261698D01*
X54394088Y-21261701D01*
X54261701Y-21394088D01*
X54261698Y-21394092D01*
X54157681Y-21549761D01*
X54157677Y-21549770D01*
X54086026Y-21722750D01*
X54049500Y-21906381D01*
X54049500Y-22093618D01*
X54086026Y-22277249D01*
X54157677Y-22450229D01*
X54157681Y-22450238D01*
X54232065Y-22561559D01*
X54261698Y-22605908D01*
X54394092Y-22738302D01*
X54460463Y-22782649D01*
X54549761Y-22842318D01*
X54549767Y-22842320D01*
X54549769Y-22842322D01*
X54722749Y-22913973D01*
X54906384Y-22950500D01*
X54906385Y-22950500D01*
X55093615Y-22950500D01*
X55093616Y-22950500D01*
X55277251Y-22913973D01*
X55362614Y-22878613D01*
X55423611Y-22873813D01*
X55475780Y-22905783D01*
X55499195Y-22962311D01*
X55499500Y-22970078D01*
X55499500Y-26029921D01*
X55480593Y-26088112D01*
X55431093Y-26124076D01*
X55369907Y-26124076D01*
X55362615Y-26121385D01*
X55277251Y-26086027D01*
X55093618Y-26049500D01*
X55093616Y-26049500D01*
X54906384Y-26049500D01*
X54906381Y-26049500D01*
X54722750Y-26086026D01*
X54549770Y-26157677D01*
X54549761Y-26157681D01*
X54394092Y-26261698D01*
X54394088Y-26261701D01*
X54261701Y-26394088D01*
X54261698Y-26394092D01*
X54157681Y-26549761D01*
X54157677Y-26549770D01*
X54086026Y-26722750D01*
X54049500Y-26906381D01*
X54049500Y-27093618D01*
X54086026Y-27277249D01*
X54157677Y-27450229D01*
X54157681Y-27450238D01*
X54203103Y-27518215D01*
X54261698Y-27605908D01*
X54394092Y-27738302D01*
X54448266Y-27774500D01*
X54549761Y-27842318D01*
X54549767Y-27842320D01*
X54549769Y-27842322D01*
X54722749Y-27913973D01*
X54906384Y-27950500D01*
X54906385Y-27950500D01*
X55093615Y-27950500D01*
X55093616Y-27950500D01*
X55277251Y-27913973D01*
X55362614Y-27878613D01*
X55423611Y-27873813D01*
X55475780Y-27905783D01*
X55499195Y-27962311D01*
X55499500Y-27970078D01*
X55499500Y-31029921D01*
X55480593Y-31088112D01*
X55431093Y-31124076D01*
X55369907Y-31124076D01*
X55362615Y-31121385D01*
X55277251Y-31086027D01*
X55093618Y-31049500D01*
X55093616Y-31049500D01*
X54906384Y-31049500D01*
X54906381Y-31049500D01*
X54722750Y-31086026D01*
X54549770Y-31157677D01*
X54549761Y-31157681D01*
X54394092Y-31261698D01*
X54394088Y-31261701D01*
X54261701Y-31394088D01*
X54261698Y-31394092D01*
X54157681Y-31549761D01*
X54157677Y-31549770D01*
X54086026Y-31722750D01*
X54049500Y-31906381D01*
X54049500Y-32093618D01*
X54086026Y-32277249D01*
X54157677Y-32450229D01*
X54157681Y-32450238D01*
X54232065Y-32561559D01*
X54261698Y-32605908D01*
X54394092Y-32738302D01*
X54460463Y-32782649D01*
X54549761Y-32842318D01*
X54549767Y-32842320D01*
X54549769Y-32842322D01*
X54722749Y-32913973D01*
X54906384Y-32950500D01*
X54906385Y-32950500D01*
X55093615Y-32950500D01*
X55093616Y-32950500D01*
X55277251Y-32913973D01*
X55362614Y-32878613D01*
X55423611Y-32873813D01*
X55475780Y-32905783D01*
X55499195Y-32962311D01*
X55499500Y-32970078D01*
X55499500Y-41400500D01*
X55480593Y-41458691D01*
X55431093Y-41494655D01*
X55400500Y-41499500D01*
X40861650Y-41499500D01*
X40803459Y-41480593D01*
X40779334Y-41455501D01*
X40738302Y-41394092D01*
X40605916Y-41261705D01*
X40605911Y-41261701D01*
X40605908Y-41261698D01*
X40561559Y-41232065D01*
X40450238Y-41157681D01*
X40450229Y-41157677D01*
X40277249Y-41086026D01*
X40093618Y-41049500D01*
X40093616Y-41049500D01*
X39906384Y-41049500D01*
X39906381Y-41049500D01*
X39722750Y-41086026D01*
X39549770Y-41157677D01*
X39549761Y-41157681D01*
X39394092Y-41261698D01*
X39394083Y-41261705D01*
X39261697Y-41394092D01*
X39220666Y-41455501D01*
X39172616Y-41493381D01*
X39138350Y-41499500D01*
X28861650Y-41499500D01*
X28803459Y-41480593D01*
X28779334Y-41455501D01*
X28738302Y-41394092D01*
X28605916Y-41261705D01*
X28605911Y-41261701D01*
X28605908Y-41261698D01*
X28561559Y-41232065D01*
X28450238Y-41157681D01*
X28450229Y-41157677D01*
X28277249Y-41086026D01*
X28093618Y-41049500D01*
X28093616Y-41049500D01*
X27906384Y-41049500D01*
X27906381Y-41049500D01*
X27722750Y-41086026D01*
X27549770Y-41157677D01*
X27549761Y-41157681D01*
X27394092Y-41261698D01*
X27394083Y-41261705D01*
X27261697Y-41394092D01*
X27220666Y-41455501D01*
X27172616Y-41493381D01*
X27138350Y-41499500D01*
X16861650Y-41499500D01*
X16803459Y-41480593D01*
X16779334Y-41455501D01*
X16738302Y-41394092D01*
X16605916Y-41261705D01*
X16605911Y-41261701D01*
X16605908Y-41261698D01*
X16561559Y-41232065D01*
X16450238Y-41157681D01*
X16450229Y-41157677D01*
X16277249Y-41086026D01*
X16093618Y-41049500D01*
X16093616Y-41049500D01*
X15906384Y-41049500D01*
X15906381Y-41049500D01*
X15722750Y-41086026D01*
X15549770Y-41157677D01*
X15549761Y-41157681D01*
X15394092Y-41261698D01*
X15394083Y-41261705D01*
X15261697Y-41394092D01*
X15220666Y-41455501D01*
X15172616Y-41493381D01*
X15138350Y-41499500D01*
X599500Y-41499500D01*
X541309Y-41480593D01*
X505345Y-41431093D01*
X500500Y-41400500D01*
X500500Y-39406381D01*
X15049500Y-39406381D01*
X15049500Y-39593618D01*
X15086026Y-39777249D01*
X15157677Y-39950229D01*
X15157681Y-39950238D01*
X15232065Y-40061559D01*
X15261698Y-40105908D01*
X15394092Y-40238302D01*
X15460463Y-40282649D01*
X15549761Y-40342318D01*
X15549767Y-40342320D01*
X15549769Y-40342322D01*
X15722749Y-40413973D01*
X15906384Y-40450500D01*
X15906385Y-40450500D01*
X16093615Y-40450500D01*
X16093616Y-40450500D01*
X16277251Y-40413973D01*
X16450231Y-40342322D01*
X16450234Y-40342319D01*
X16450238Y-40342318D01*
X16495187Y-40312282D01*
X16605908Y-40238302D01*
X16738302Y-40105908D01*
X16812282Y-39995187D01*
X16842318Y-39950238D01*
X16842319Y-39950234D01*
X16842322Y-39950231D01*
X16913973Y-39777251D01*
X16950500Y-39593616D01*
X16950500Y-39406384D01*
X16950499Y-39406381D01*
X27049500Y-39406381D01*
X27049500Y-39593618D01*
X27086026Y-39777249D01*
X27157677Y-39950229D01*
X27157681Y-39950238D01*
X27232065Y-40061559D01*
X27261698Y-40105908D01*
X27394092Y-40238302D01*
X27460463Y-40282649D01*
X27549761Y-40342318D01*
X27549767Y-40342320D01*
X27549769Y-40342322D01*
X27722749Y-40413973D01*
X27906384Y-40450500D01*
X27906385Y-40450500D01*
X28093615Y-40450500D01*
X28093616Y-40450500D01*
X28277251Y-40413973D01*
X28450231Y-40342322D01*
X28450234Y-40342319D01*
X28450238Y-40342318D01*
X28495187Y-40312282D01*
X28605908Y-40238302D01*
X28738302Y-40105908D01*
X28812282Y-39995187D01*
X28842318Y-39950238D01*
X28842319Y-39950234D01*
X28842322Y-39950231D01*
X28913973Y-39777251D01*
X28950500Y-39593616D01*
X28950500Y-39406384D01*
X28950499Y-39406381D01*
X39049500Y-39406381D01*
X39049500Y-39593618D01*
X39086026Y-39777249D01*
X39157677Y-39950229D01*
X39157681Y-39950238D01*
X39232065Y-40061559D01*
X39261698Y-40105908D01*
X39394092Y-40238302D01*
X39460463Y-40282649D01*
X39549761Y-40342318D01*
X39549767Y-40342320D01*
X39549769Y-40342322D01*
X39722749Y-40413973D01*
X39906384Y-40450500D01*
X39906385Y-40450500D01*
X40093615Y-40450500D01*
X40093616Y-40450500D01*
X40277251Y-40413973D01*
X40450231Y-40342322D01*
X40450234Y-40342319D01*
X40450238Y-40342318D01*
X40495187Y-40312282D01*
X40605908Y-40238302D01*
X40738302Y-40105908D01*
X40812282Y-39995187D01*
X40842318Y-39950238D01*
X40842319Y-39950234D01*
X40842322Y-39950231D01*
X40913973Y-39777251D01*
X40950500Y-39593616D01*
X40950500Y-39406384D01*
X40913973Y-39222749D01*
X40842322Y-39049769D01*
X40842320Y-39049767D01*
X40842318Y-39049761D01*
X40782649Y-38960463D01*
X40738302Y-38894092D01*
X40605908Y-38761698D01*
X40561559Y-38732065D01*
X40450238Y-38657681D01*
X40450229Y-38657677D01*
X40277249Y-38586026D01*
X40093618Y-38549500D01*
X40093616Y-38549500D01*
X39906384Y-38549500D01*
X39906381Y-38549500D01*
X39722750Y-38586026D01*
X39549770Y-38657677D01*
X39549761Y-38657681D01*
X39394092Y-38761698D01*
X39394088Y-38761701D01*
X39261701Y-38894088D01*
X39261698Y-38894092D01*
X39157681Y-39049761D01*
X39157677Y-39049770D01*
X39086026Y-39222750D01*
X39049500Y-39406381D01*
X28950499Y-39406381D01*
X28913973Y-39222749D01*
X28842322Y-39049769D01*
X28842320Y-39049767D01*
X28842318Y-39049761D01*
X28782649Y-38960463D01*
X28738302Y-38894092D01*
X28605908Y-38761698D01*
X28561559Y-38732065D01*
X28450238Y-38657681D01*
X28450229Y-38657677D01*
X28277249Y-38586026D01*
X28093618Y-38549500D01*
X28093616Y-38549500D01*
X27906384Y-38549500D01*
X27906381Y-38549500D01*
X27722750Y-38586026D01*
X27549770Y-38657677D01*
X27549761Y-38657681D01*
X27394092Y-38761698D01*
X27394088Y-38761701D01*
X27261701Y-38894088D01*
X27261698Y-38894092D01*
X27157681Y-39049761D01*
X27157677Y-39049770D01*
X27086026Y-39222750D01*
X27049500Y-39406381D01*
X16950499Y-39406381D01*
X16913973Y-39222749D01*
X16842322Y-39049769D01*
X16842320Y-39049767D01*
X16842318Y-39049761D01*
X16782649Y-38960463D01*
X16738302Y-38894092D01*
X16605908Y-38761698D01*
X16561559Y-38732065D01*
X16450238Y-38657681D01*
X16450229Y-38657677D01*
X16277249Y-38586026D01*
X16093618Y-38549500D01*
X16093616Y-38549500D01*
X15906384Y-38549500D01*
X15906381Y-38549500D01*
X15722750Y-38586026D01*
X15549770Y-38657677D01*
X15549761Y-38657681D01*
X15394092Y-38761698D01*
X15394088Y-38761701D01*
X15261701Y-38894088D01*
X15261698Y-38894092D01*
X15157681Y-39049761D01*
X15157677Y-39049770D01*
X15086026Y-39222750D01*
X15049500Y-39406381D01*
X500500Y-39406381D01*
X500500Y-37878710D01*
X50149500Y-37878710D01*
X50149500Y-38121289D01*
X50181161Y-38361781D01*
X50181161Y-38361786D01*
X50181162Y-38361789D01*
X50231459Y-38549500D01*
X50243944Y-38596092D01*
X50243948Y-38596105D01*
X50336772Y-38820204D01*
X50336774Y-38820208D01*
X50336776Y-38820212D01*
X50379431Y-38894092D01*
X50458066Y-39030292D01*
X50605729Y-39222731D01*
X50605731Y-39222733D01*
X50605735Y-39222738D01*
X50777262Y-39394265D01*
X50777266Y-39394268D01*
X50777268Y-39394270D01*
X50793057Y-39406385D01*
X50969711Y-39541936D01*
X51179788Y-39663224D01*
X51403900Y-39756054D01*
X51638211Y-39818838D01*
X51878712Y-39850500D01*
X51878713Y-39850500D01*
X52121287Y-39850500D01*
X52121288Y-39850500D01*
X52361789Y-39818838D01*
X52596100Y-39756054D01*
X52820212Y-39663224D01*
X53030289Y-39541936D01*
X53222738Y-39394265D01*
X53394265Y-39222738D01*
X53541936Y-39030289D01*
X53663224Y-38820212D01*
X53756054Y-38596100D01*
X53818838Y-38361789D01*
X53850500Y-38121288D01*
X53850500Y-37878712D01*
X53818838Y-37638211D01*
X53756054Y-37403900D01*
X53663224Y-37179788D01*
X53541936Y-36969711D01*
X53394265Y-36777262D01*
X53222738Y-36605735D01*
X53222733Y-36605731D01*
X53222731Y-36605729D01*
X53030292Y-36458066D01*
X53030289Y-36458064D01*
X52820212Y-36336776D01*
X52820208Y-36336774D01*
X52820204Y-36336772D01*
X52596105Y-36243948D01*
X52596104Y-36243947D01*
X52596100Y-36243946D01*
X52361789Y-36181162D01*
X52361786Y-36181161D01*
X52361784Y-36181161D01*
X52121289Y-36149500D01*
X52121288Y-36149500D01*
X51878712Y-36149500D01*
X51878710Y-36149500D01*
X51638218Y-36181161D01*
X51638213Y-36181161D01*
X51403907Y-36243944D01*
X51403894Y-36243948D01*
X51179795Y-36336772D01*
X50969707Y-36458066D01*
X50777268Y-36605729D01*
X50605729Y-36777268D01*
X50458066Y-36969707D01*
X50336772Y-37179795D01*
X50243948Y-37403894D01*
X50243944Y-37403907D01*
X50181161Y-37638213D01*
X50181161Y-37638218D01*
X50149500Y-37878710D01*
X500500Y-37878710D01*
X500500Y-35893709D01*
X14649500Y-35893709D01*
X14649500Y-36106290D01*
X14682752Y-36316238D01*
X14748443Y-36518412D01*
X14844948Y-36707815D01*
X14844950Y-36707819D01*
X14969891Y-36879786D01*
X14969893Y-36879788D01*
X14969896Y-36879792D01*
X15120208Y-37030104D01*
X15120211Y-37030106D01*
X15120213Y-37030108D01*
X15292180Y-37155049D01*
X15292184Y-37155051D01*
X15481588Y-37251557D01*
X15683757Y-37317246D01*
X15683758Y-37317246D01*
X15683761Y-37317247D01*
X15893710Y-37350500D01*
X15893713Y-37350500D01*
X16106290Y-37350500D01*
X16316238Y-37317247D01*
X16316239Y-37317246D01*
X16316243Y-37317246D01*
X16518412Y-37251557D01*
X16707816Y-37155051D01*
X16879792Y-37030104D01*
X17030104Y-36879792D01*
X17155051Y-36707816D01*
X17251557Y-36518412D01*
X17317246Y-36316243D01*
X17317247Y-36316238D01*
X17350500Y-36106290D01*
X17350500Y-35893709D01*
X26649500Y-35893709D01*
X26649500Y-36106290D01*
X26682752Y-36316238D01*
X26748443Y-36518412D01*
X26844948Y-36707815D01*
X26844950Y-36707819D01*
X26969891Y-36879786D01*
X26969893Y-36879788D01*
X26969896Y-36879792D01*
X27120208Y-37030104D01*
X27120211Y-37030106D01*
X27120213Y-37030108D01*
X27292180Y-37155049D01*
X27292184Y-37155051D01*
X27481588Y-37251557D01*
X27683757Y-37317246D01*
X27683758Y-37317246D01*
X27683761Y-37317247D01*
X27893710Y-37350500D01*
X27893713Y-37350500D01*
X28106290Y-37350500D01*
X28316238Y-37317247D01*
X28316239Y-37317246D01*
X28316243Y-37317246D01*
X28518412Y-37251557D01*
X28707816Y-37155051D01*
X28879792Y-37030104D01*
X29030104Y-36879792D01*
X29155051Y-36707816D01*
X29251557Y-36518412D01*
X29317246Y-36316243D01*
X29317247Y-36316238D01*
X29350500Y-36106290D01*
X29350500Y-35893749D01*
X38650000Y-35893749D01*
X38650000Y-36106250D01*
X38683240Y-36316121D01*
X38748904Y-36518215D01*
X38845375Y-36707551D01*
X38944240Y-36843626D01*
X39556328Y-36231536D01*
X39599901Y-36307007D01*
X39692993Y-36400099D01*
X39768460Y-36443670D01*
X39156372Y-37055758D01*
X39156372Y-37055759D01*
X39292440Y-37154619D01*
X39292446Y-37154623D01*
X39481784Y-37251095D01*
X39683878Y-37316759D01*
X39893750Y-37350000D01*
X40106250Y-37350000D01*
X40316121Y-37316759D01*
X40518215Y-37251095D01*
X40707553Y-37154623D01*
X40707559Y-37154619D01*
X40843626Y-37055759D01*
X40843626Y-37055758D01*
X40231538Y-36443670D01*
X40307007Y-36400099D01*
X40400099Y-36307007D01*
X40443670Y-36231538D01*
X41055758Y-36843626D01*
X41055759Y-36843626D01*
X41154619Y-36707559D01*
X41154623Y-36707553D01*
X41251095Y-36518215D01*
X41316759Y-36316121D01*
X41350000Y-36106250D01*
X41350000Y-35893749D01*
X41316759Y-35683878D01*
X41251095Y-35481784D01*
X41154623Y-35292446D01*
X41154619Y-35292440D01*
X41055759Y-35156372D01*
X41055758Y-35156372D01*
X40443670Y-35768460D01*
X40400099Y-35692993D01*
X40307007Y-35599901D01*
X40231536Y-35556328D01*
X40843626Y-34944240D01*
X40707551Y-34845375D01*
X40518215Y-34748904D01*
X40316121Y-34683240D01*
X40106250Y-34650000D01*
X39893750Y-34650000D01*
X39683878Y-34683240D01*
X39481784Y-34748904D01*
X39292446Y-34845376D01*
X39292442Y-34845378D01*
X39156372Y-34944239D01*
X39768461Y-35556328D01*
X39692993Y-35599901D01*
X39599901Y-35692993D01*
X39556328Y-35768461D01*
X38944239Y-35156372D01*
X38845378Y-35292442D01*
X38845376Y-35292446D01*
X38748904Y-35481784D01*
X38683240Y-35683878D01*
X38650000Y-35893749D01*
X29350500Y-35893749D01*
X29350500Y-35893709D01*
X29317247Y-35683761D01*
X29257539Y-35500000D01*
X29251557Y-35481588D01*
X29155051Y-35292184D01*
X29155049Y-35292180D01*
X29030108Y-35120213D01*
X29030106Y-35120211D01*
X29030104Y-35120208D01*
X28879792Y-34969896D01*
X28879788Y-34969893D01*
X28879786Y-34969891D01*
X28707819Y-34844950D01*
X28707815Y-34844948D01*
X28518412Y-34748443D01*
X28316238Y-34682752D01*
X28106290Y-34649500D01*
X28106287Y-34649500D01*
X27893713Y-34649500D01*
X27893710Y-34649500D01*
X27683761Y-34682752D01*
X27481587Y-34748443D01*
X27292184Y-34844948D01*
X27292180Y-34844950D01*
X27120213Y-34969891D01*
X26969891Y-35120213D01*
X26844950Y-35292180D01*
X26844948Y-35292184D01*
X26748443Y-35481587D01*
X26682752Y-35683761D01*
X26649500Y-35893709D01*
X17350500Y-35893709D01*
X17317247Y-35683761D01*
X17257539Y-35500000D01*
X17251557Y-35481588D01*
X17155051Y-35292184D01*
X17155049Y-35292180D01*
X17030108Y-35120213D01*
X17030106Y-35120211D01*
X17030104Y-35120208D01*
X16879792Y-34969896D01*
X16879788Y-34969893D01*
X16879786Y-34969891D01*
X16707819Y-34844950D01*
X16707815Y-34844948D01*
X16518412Y-34748443D01*
X16316238Y-34682752D01*
X16106290Y-34649500D01*
X16106287Y-34649500D01*
X15893713Y-34649500D01*
X15893710Y-34649500D01*
X15683761Y-34682752D01*
X15481587Y-34748443D01*
X15292184Y-34844948D01*
X15292180Y-34844950D01*
X15120213Y-34969891D01*
X14969891Y-35120213D01*
X14844950Y-35292180D01*
X14844948Y-35292184D01*
X14748443Y-35481587D01*
X14682752Y-35683761D01*
X14649500Y-35893709D01*
X500500Y-35893709D01*
X500500Y-31893709D01*
X47649500Y-31893709D01*
X47649500Y-32106290D01*
X47682752Y-32316238D01*
X47748443Y-32518412D01*
X47844948Y-32707815D01*
X47844950Y-32707819D01*
X47969891Y-32879786D01*
X47969893Y-32879788D01*
X47969896Y-32879792D01*
X48120208Y-33030104D01*
X48120211Y-33030106D01*
X48120213Y-33030108D01*
X48292180Y-33155049D01*
X48292184Y-33155051D01*
X48481588Y-33251557D01*
X48683757Y-33317246D01*
X48683758Y-33317246D01*
X48683761Y-33317247D01*
X48893710Y-33350500D01*
X48893713Y-33350500D01*
X49106290Y-33350500D01*
X49316238Y-33317247D01*
X49316239Y-33317246D01*
X49316243Y-33317246D01*
X49518412Y-33251557D01*
X49707816Y-33155051D01*
X49879792Y-33030104D01*
X50030104Y-32879792D01*
X50155051Y-32707816D01*
X50251557Y-32518412D01*
X50317246Y-32316243D01*
X50350500Y-32106287D01*
X50350500Y-31906381D01*
X51549500Y-31906381D01*
X51549500Y-32093618D01*
X51586026Y-32277249D01*
X51657677Y-32450229D01*
X51657681Y-32450238D01*
X51732065Y-32561559D01*
X51761698Y-32605908D01*
X51894092Y-32738302D01*
X51960463Y-32782649D01*
X52049761Y-32842318D01*
X52049767Y-32842320D01*
X52049769Y-32842322D01*
X52222749Y-32913973D01*
X52406384Y-32950500D01*
X52406385Y-32950500D01*
X52593615Y-32950500D01*
X52593616Y-32950500D01*
X52777251Y-32913973D01*
X52950231Y-32842322D01*
X52950234Y-32842319D01*
X52950238Y-32842318D01*
X52999501Y-32809401D01*
X53105908Y-32738302D01*
X53238302Y-32605908D01*
X53312282Y-32495187D01*
X53342318Y-32450238D01*
X53342319Y-32450234D01*
X53342322Y-32450231D01*
X53413973Y-32277251D01*
X53450500Y-32093616D01*
X53450500Y-31906384D01*
X53413973Y-31722749D01*
X53342322Y-31549769D01*
X53342320Y-31549767D01*
X53342318Y-31549761D01*
X53282649Y-31460463D01*
X53238302Y-31394092D01*
X53105908Y-31261698D01*
X53061559Y-31232065D01*
X52950238Y-31157681D01*
X52950229Y-31157677D01*
X52777249Y-31086026D01*
X52593618Y-31049500D01*
X52593616Y-31049500D01*
X52406384Y-31049500D01*
X52406381Y-31049500D01*
X52222750Y-31086026D01*
X52049770Y-31157677D01*
X52049761Y-31157681D01*
X51894092Y-31261698D01*
X51894088Y-31261701D01*
X51761701Y-31394088D01*
X51761698Y-31394092D01*
X51657681Y-31549761D01*
X51657677Y-31549770D01*
X51586026Y-31722750D01*
X51549500Y-31906381D01*
X50350500Y-31906381D01*
X50350500Y-31893713D01*
X50350500Y-31893709D01*
X50317247Y-31683761D01*
X50317246Y-31683757D01*
X50251557Y-31481588D01*
X50155051Y-31292184D01*
X50155049Y-31292180D01*
X50030108Y-31120213D01*
X50030106Y-31120211D01*
X50030104Y-31120208D01*
X49879792Y-30969896D01*
X49879788Y-30969893D01*
X49879786Y-30969891D01*
X49707819Y-30844950D01*
X49707815Y-30844948D01*
X49518412Y-30748443D01*
X49316238Y-30682752D01*
X49106290Y-30649500D01*
X49106287Y-30649500D01*
X48893713Y-30649500D01*
X48893710Y-30649500D01*
X48683761Y-30682752D01*
X48481587Y-30748443D01*
X48292184Y-30844948D01*
X48292180Y-30844950D01*
X48120213Y-30969891D01*
X47969891Y-31120213D01*
X47844950Y-31292180D01*
X47844948Y-31292184D01*
X47748443Y-31481587D01*
X47682752Y-31683761D01*
X47649500Y-31893709D01*
X500500Y-31893709D01*
X500500Y-28102525D01*
X15449500Y-28102525D01*
X15449500Y-28247474D01*
X15487017Y-28387489D01*
X15559487Y-28513010D01*
X15559489Y-28513012D01*
X15559491Y-28513015D01*
X15661985Y-28615509D01*
X15661987Y-28615510D01*
X15661989Y-28615512D01*
X15787511Y-28687982D01*
X15787512Y-28687982D01*
X15787515Y-28687984D01*
X15927525Y-28725500D01*
X15927526Y-28725500D01*
X16072474Y-28725500D01*
X16072475Y-28725500D01*
X16212485Y-28687984D01*
X16212487Y-28687982D01*
X16212489Y-28687982D01*
X16338010Y-28615512D01*
X16338010Y-28615511D01*
X16338015Y-28615509D01*
X16440509Y-28513015D01*
X16450633Y-28495480D01*
X16512982Y-28387489D01*
X16512982Y-28387487D01*
X16512984Y-28387485D01*
X16550500Y-28247475D01*
X16550500Y-28102525D01*
X27449500Y-28102525D01*
X27449500Y-28247474D01*
X27487017Y-28387489D01*
X27559487Y-28513010D01*
X27559489Y-28513012D01*
X27559491Y-28513015D01*
X27661985Y-28615509D01*
X27661987Y-28615510D01*
X27661989Y-28615512D01*
X27787511Y-28687982D01*
X27787512Y-28687982D01*
X27787515Y-28687984D01*
X27927525Y-28725500D01*
X27927526Y-28725500D01*
X28072474Y-28725500D01*
X28072475Y-28725500D01*
X28212485Y-28687984D01*
X28212487Y-28687982D01*
X28212489Y-28687982D01*
X28338010Y-28615512D01*
X28338010Y-28615511D01*
X28338015Y-28615509D01*
X28349029Y-28604494D01*
X28403544Y-28576719D01*
X28419031Y-28575500D01*
X42052725Y-28575500D01*
X42052727Y-28575500D01*
X42154587Y-28548207D01*
X42245913Y-28495480D01*
X42320480Y-28420913D01*
X42373207Y-28329587D01*
X42400500Y-28227727D01*
X42400500Y-26893749D01*
X47650000Y-26893749D01*
X47650000Y-27106250D01*
X47683240Y-27316121D01*
X47748904Y-27518215D01*
X47845375Y-27707551D01*
X47944240Y-27843626D01*
X48556328Y-27231536D01*
X48599901Y-27307007D01*
X48692993Y-27400099D01*
X48768460Y-27443670D01*
X48156372Y-28055758D01*
X48156372Y-28055759D01*
X48292440Y-28154619D01*
X48292446Y-28154623D01*
X48481784Y-28251095D01*
X48683878Y-28316759D01*
X48893750Y-28350000D01*
X49106250Y-28350000D01*
X49316121Y-28316759D01*
X49518215Y-28251095D01*
X49707553Y-28154623D01*
X49707559Y-28154619D01*
X49843626Y-28055759D01*
X49843626Y-28055758D01*
X49231538Y-27443670D01*
X49307007Y-27400099D01*
X49400099Y-27307007D01*
X49443670Y-27231538D01*
X50055758Y-27843626D01*
X50055759Y-27843626D01*
X50154619Y-27707559D01*
X50154623Y-27707553D01*
X50251095Y-27518215D01*
X50316759Y-27316121D01*
X50350000Y-27106250D01*
X50350000Y-26906381D01*
X51549500Y-26906381D01*
X51549500Y-27093618D01*
X51586026Y-27277249D01*
X51657677Y-27450229D01*
X51657681Y-27450238D01*
X51703103Y-27518215D01*
X51761698Y-27605908D01*
X51894092Y-27738302D01*
X51948266Y-27774500D01*
X52049761Y-27842318D01*
X52049767Y-27842320D01*
X52049769Y-27842322D01*
X52222749Y-27913973D01*
X52406384Y-27950500D01*
X52406385Y-27950500D01*
X52593615Y-27950500D01*
X52593616Y-27950500D01*
X52777251Y-27913973D01*
X52950231Y-27842322D01*
X52950234Y-27842319D01*
X52950238Y-27842318D01*
X52999501Y-27809401D01*
X53105908Y-27738302D01*
X53238302Y-27605908D01*
X53331836Y-27465925D01*
X53342318Y-27450238D01*
X53342319Y-27450234D01*
X53342322Y-27450231D01*
X53413973Y-27277251D01*
X53450500Y-27093616D01*
X53450500Y-26906384D01*
X53413973Y-26722749D01*
X53342322Y-26549769D01*
X53342320Y-26549767D01*
X53342318Y-26549761D01*
X53282649Y-26460463D01*
X53238302Y-26394092D01*
X53105908Y-26261698D01*
X53061559Y-26232065D01*
X52950238Y-26157681D01*
X52950229Y-26157677D01*
X52777249Y-26086026D01*
X52593618Y-26049500D01*
X52593616Y-26049500D01*
X52406384Y-26049500D01*
X52406381Y-26049500D01*
X52222750Y-26086026D01*
X52049770Y-26157677D01*
X52049761Y-26157681D01*
X51894092Y-26261698D01*
X51894088Y-26261701D01*
X51761701Y-26394088D01*
X51761698Y-26394092D01*
X51657681Y-26549761D01*
X51657677Y-26549770D01*
X51586026Y-26722750D01*
X51549500Y-26906381D01*
X50350000Y-26906381D01*
X50350000Y-26893749D01*
X50316759Y-26683878D01*
X50251095Y-26481784D01*
X50154623Y-26292446D01*
X50154619Y-26292440D01*
X50055759Y-26156372D01*
X50055758Y-26156372D01*
X49443670Y-26768460D01*
X49400099Y-26692993D01*
X49307007Y-26599901D01*
X49231536Y-26556328D01*
X49843626Y-25944240D01*
X49707551Y-25845375D01*
X49518215Y-25748904D01*
X49316121Y-25683240D01*
X49106250Y-25650000D01*
X48893750Y-25650000D01*
X48683878Y-25683240D01*
X48481784Y-25748904D01*
X48292446Y-25845376D01*
X48292442Y-25845378D01*
X48156372Y-25944239D01*
X48768461Y-26556328D01*
X48692993Y-26599901D01*
X48599901Y-26692993D01*
X48556328Y-26768461D01*
X47944239Y-26156372D01*
X47845378Y-26292442D01*
X47845376Y-26292446D01*
X47748904Y-26481784D01*
X47683240Y-26683878D01*
X47650000Y-26893749D01*
X42400500Y-26893749D01*
X42400500Y-17419031D01*
X42419407Y-17360840D01*
X42429490Y-17349033D01*
X42440509Y-17338015D01*
X42475591Y-17277251D01*
X42512982Y-17212489D01*
X42512982Y-17212487D01*
X42512984Y-17212485D01*
X42550500Y-17072475D01*
X42550500Y-16927525D01*
X42512984Y-16787515D01*
X42512982Y-16787512D01*
X42512982Y-16787510D01*
X42440512Y-16661989D01*
X42440510Y-16661987D01*
X42440509Y-16661985D01*
X42338015Y-16559491D01*
X42338012Y-16559489D01*
X42338010Y-16559487D01*
X42212488Y-16487017D01*
X42212489Y-16487017D01*
X42182896Y-16479087D01*
X42072475Y-16449500D01*
X41927525Y-16449500D01*
X41865790Y-16466041D01*
X41787510Y-16487017D01*
X41661989Y-16559487D01*
X41559487Y-16661989D01*
X41487017Y-16787510D01*
X41449500Y-16927525D01*
X41449500Y-17072475D01*
X41458560Y-17106287D01*
X41487017Y-17212489D01*
X41559487Y-17338010D01*
X41559489Y-17338012D01*
X41559491Y-17338015D01*
X41570505Y-17349029D01*
X41598281Y-17403544D01*
X41599500Y-17419031D01*
X41599500Y-27675500D01*
X41580593Y-27733691D01*
X41531093Y-27769655D01*
X41500500Y-27774500D01*
X28419031Y-27774500D01*
X28360840Y-27755593D01*
X28349033Y-27745509D01*
X28338015Y-27734491D01*
X28338012Y-27734489D01*
X28338010Y-27734487D01*
X28212488Y-27662017D01*
X28212489Y-27662017D01*
X28182896Y-27654087D01*
X28072475Y-27624500D01*
X27927525Y-27624500D01*
X27865790Y-27641041D01*
X27787510Y-27662017D01*
X27661989Y-27734487D01*
X27559487Y-27836989D01*
X27487017Y-27962510D01*
X27449500Y-28102525D01*
X16550500Y-28102525D01*
X16512984Y-27962515D01*
X16512982Y-27962512D01*
X16512982Y-27962510D01*
X16438764Y-27833961D01*
X16425500Y-27784461D01*
X16425500Y-6024500D01*
X16444407Y-5966309D01*
X16493907Y-5930345D01*
X16524500Y-5925500D01*
X24834461Y-5925500D01*
X24883961Y-5938764D01*
X25012511Y-6012982D01*
X25012512Y-6012982D01*
X25012515Y-6012984D01*
X25152525Y-6050500D01*
X25152526Y-6050500D01*
X25297474Y-6050500D01*
X25297475Y-6050500D01*
X25437485Y-6012984D01*
X25437487Y-6012982D01*
X25437489Y-6012982D01*
X25566039Y-5938764D01*
X25615539Y-5925500D01*
X46975500Y-5925500D01*
X47033691Y-5944407D01*
X47069655Y-5993907D01*
X47074500Y-6024500D01*
X47074500Y-11350500D01*
X47055593Y-11408691D01*
X47006093Y-11444655D01*
X46975500Y-11449500D01*
X46927525Y-11449500D01*
X46865790Y-11466041D01*
X46787510Y-11487017D01*
X46661989Y-11559487D01*
X46661988Y-11559488D01*
X46661985Y-11559490D01*
X46661985Y-11559491D01*
X46650970Y-11570505D01*
X46596456Y-11598281D01*
X46580969Y-11599500D01*
X43419031Y-11599500D01*
X43360840Y-11580593D01*
X43349033Y-11570509D01*
X43338015Y-11559491D01*
X43338012Y-11559489D01*
X43338010Y-11559487D01*
X43212488Y-11487017D01*
X43212489Y-11487017D01*
X43182896Y-11479087D01*
X43072475Y-11449500D01*
X42927525Y-11449500D01*
X42865790Y-11466041D01*
X42787510Y-11487017D01*
X42661989Y-11559487D01*
X42559487Y-11661989D01*
X42487017Y-11787510D01*
X42449500Y-11927525D01*
X42449500Y-12072475D01*
X42458560Y-12106287D01*
X42487017Y-12212489D01*
X42559487Y-12338010D01*
X42559489Y-12338012D01*
X42559491Y-12338015D01*
X42661985Y-12440509D01*
X42661987Y-12440510D01*
X42661989Y-12440512D01*
X42787511Y-12512982D01*
X42787512Y-12512982D01*
X42787515Y-12512984D01*
X42927525Y-12550500D01*
X42927526Y-12550500D01*
X43072474Y-12550500D01*
X43072475Y-12550500D01*
X43212485Y-12512984D01*
X43212487Y-12512982D01*
X43212489Y-12512982D01*
X43338010Y-12440512D01*
X43338010Y-12440511D01*
X43338015Y-12440509D01*
X43349029Y-12429494D01*
X43403544Y-12401719D01*
X43419031Y-12400500D01*
X46580969Y-12400500D01*
X46639160Y-12419407D01*
X46650966Y-12429490D01*
X46661985Y-12440509D01*
X46661987Y-12440510D01*
X46661989Y-12440512D01*
X46787511Y-12512982D01*
X46787512Y-12512982D01*
X46787515Y-12512984D01*
X46927525Y-12550500D01*
X46927526Y-12550500D01*
X46975500Y-12550500D01*
X47033691Y-12569407D01*
X47069655Y-12618907D01*
X47074500Y-12649500D01*
X47074500Y-21609461D01*
X47061236Y-21658961D01*
X46987017Y-21787510D01*
X46949500Y-21927525D01*
X46949500Y-22072475D01*
X46958560Y-22106287D01*
X46987017Y-22212489D01*
X47059487Y-22338010D01*
X47059489Y-22338012D01*
X47059491Y-22338015D01*
X47161985Y-22440509D01*
X47161987Y-22440510D01*
X47161989Y-22440512D01*
X47287511Y-22512982D01*
X47287512Y-22512982D01*
X47287515Y-22512984D01*
X47427525Y-22550500D01*
X47427526Y-22550500D01*
X47572476Y-22550500D01*
X47572476Y-22550499D01*
X47664252Y-22525908D01*
X47725354Y-22529109D01*
X47772904Y-22567614D01*
X47778082Y-22576583D01*
X47793026Y-22605911D01*
X47844948Y-22707815D01*
X47844950Y-22707819D01*
X47969891Y-22879786D01*
X47969893Y-22879788D01*
X47969896Y-22879792D01*
X48120208Y-23030104D01*
X48120211Y-23030106D01*
X48120213Y-23030108D01*
X48292180Y-23155049D01*
X48292184Y-23155051D01*
X48481588Y-23251557D01*
X48683757Y-23317246D01*
X48683758Y-23317246D01*
X48683761Y-23317247D01*
X48893710Y-23350500D01*
X48893713Y-23350500D01*
X49106290Y-23350500D01*
X49316238Y-23317247D01*
X49316239Y-23317246D01*
X49316243Y-23317246D01*
X49518412Y-23251557D01*
X49707816Y-23155051D01*
X49879792Y-23030104D01*
X50030104Y-22879792D01*
X50155051Y-22707816D01*
X50251557Y-22518412D01*
X50317246Y-22316243D01*
X50350500Y-22106287D01*
X50350500Y-21906381D01*
X51549500Y-21906381D01*
X51549500Y-22093618D01*
X51586026Y-22277249D01*
X51657677Y-22450229D01*
X51657681Y-22450238D01*
X51732065Y-22561559D01*
X51761698Y-22605908D01*
X51894092Y-22738302D01*
X51960463Y-22782649D01*
X52049761Y-22842318D01*
X52049767Y-22842320D01*
X52049769Y-22842322D01*
X52222749Y-22913973D01*
X52406384Y-22950500D01*
X52406385Y-22950500D01*
X52593615Y-22950500D01*
X52593616Y-22950500D01*
X52777251Y-22913973D01*
X52950231Y-22842322D01*
X52950234Y-22842319D01*
X52950238Y-22842318D01*
X52999501Y-22809401D01*
X53105908Y-22738302D01*
X53238302Y-22605908D01*
X53312282Y-22495187D01*
X53342318Y-22450238D01*
X53342319Y-22450234D01*
X53342322Y-22450231D01*
X53413973Y-22277251D01*
X53450500Y-22093616D01*
X53450500Y-21906384D01*
X53413973Y-21722749D01*
X53342322Y-21549769D01*
X53342320Y-21549767D01*
X53342318Y-21549761D01*
X53282649Y-21460463D01*
X53238302Y-21394092D01*
X53105908Y-21261698D01*
X53061559Y-21232065D01*
X52950238Y-21157681D01*
X52950229Y-21157677D01*
X52777249Y-21086026D01*
X52593618Y-21049500D01*
X52593616Y-21049500D01*
X52406384Y-21049500D01*
X52406381Y-21049500D01*
X52222750Y-21086026D01*
X52049770Y-21157677D01*
X52049761Y-21157681D01*
X51894092Y-21261698D01*
X51894088Y-21261701D01*
X51761701Y-21394088D01*
X51761698Y-21394092D01*
X51657681Y-21549761D01*
X51657677Y-21549770D01*
X51586026Y-21722750D01*
X51549500Y-21906381D01*
X50350500Y-21906381D01*
X50350500Y-21893713D01*
X50350500Y-21893709D01*
X50317247Y-21683761D01*
X50317246Y-21683757D01*
X50251557Y-21481588D01*
X50155051Y-21292184D01*
X50155049Y-21292180D01*
X50030108Y-21120213D01*
X50030106Y-21120211D01*
X50030104Y-21120208D01*
X49879792Y-20969896D01*
X49879788Y-20969893D01*
X49879786Y-20969891D01*
X49707819Y-20844950D01*
X49707815Y-20844948D01*
X49518412Y-20748443D01*
X49316238Y-20682752D01*
X49106290Y-20649500D01*
X49106287Y-20649500D01*
X48893713Y-20649500D01*
X48893710Y-20649500D01*
X48683761Y-20682752D01*
X48481587Y-20748443D01*
X48292184Y-20844948D01*
X48292180Y-20844950D01*
X48120213Y-20969891D01*
X48120208Y-20969895D01*
X48120208Y-20969896D01*
X48094501Y-20995602D01*
X48039987Y-21023378D01*
X47979555Y-21013807D01*
X47936290Y-20970542D01*
X47925500Y-20925597D01*
X47925500Y-18074403D01*
X47944407Y-18016212D01*
X47993907Y-17980248D01*
X48055093Y-17980248D01*
X48094501Y-18004397D01*
X48120208Y-18030104D01*
X48120211Y-18030106D01*
X48120213Y-18030108D01*
X48292180Y-18155049D01*
X48292184Y-18155051D01*
X48481588Y-18251557D01*
X48683757Y-18317246D01*
X48683758Y-18317246D01*
X48683761Y-18317247D01*
X48893710Y-18350500D01*
X48893713Y-18350500D01*
X49106290Y-18350500D01*
X49316238Y-18317247D01*
X49316239Y-18317246D01*
X49316243Y-18317246D01*
X49518412Y-18251557D01*
X49707816Y-18155051D01*
X49879792Y-18030104D01*
X50030104Y-17879792D01*
X50155051Y-17707816D01*
X50251557Y-17518412D01*
X50317246Y-17316243D01*
X50350500Y-17106287D01*
X50350500Y-16906381D01*
X51549500Y-16906381D01*
X51549500Y-17093618D01*
X51586026Y-17277249D01*
X51657677Y-17450229D01*
X51657681Y-17450238D01*
X51732065Y-17561559D01*
X51761698Y-17605908D01*
X51894092Y-17738302D01*
X51960463Y-17782649D01*
X52049761Y-17842318D01*
X52049767Y-17842320D01*
X52049769Y-17842322D01*
X52222749Y-17913973D01*
X52406384Y-17950500D01*
X52406385Y-17950500D01*
X52593615Y-17950500D01*
X52593616Y-17950500D01*
X52777251Y-17913973D01*
X52950231Y-17842322D01*
X52950234Y-17842319D01*
X52950238Y-17842318D01*
X52999501Y-17809401D01*
X53105908Y-17738302D01*
X53238302Y-17605908D01*
X53312282Y-17495187D01*
X53342318Y-17450238D01*
X53342319Y-17450234D01*
X53342322Y-17450231D01*
X53413973Y-17277251D01*
X53450500Y-17093616D01*
X53450500Y-16906384D01*
X53413973Y-16722749D01*
X53342322Y-16549769D01*
X53342320Y-16549767D01*
X53342318Y-16549761D01*
X53275324Y-16449500D01*
X53238302Y-16394092D01*
X53105908Y-16261698D01*
X53061559Y-16232065D01*
X52950238Y-16157681D01*
X52950229Y-16157677D01*
X52777249Y-16086026D01*
X52593618Y-16049500D01*
X52593616Y-16049500D01*
X52406384Y-16049500D01*
X52406381Y-16049500D01*
X52222750Y-16086026D01*
X52049770Y-16157677D01*
X52049761Y-16157681D01*
X51894092Y-16261698D01*
X51894088Y-16261701D01*
X51761701Y-16394088D01*
X51761698Y-16394092D01*
X51657681Y-16549761D01*
X51657677Y-16549770D01*
X51586026Y-16722750D01*
X51549500Y-16906381D01*
X50350500Y-16906381D01*
X50350500Y-16893713D01*
X50350500Y-16893709D01*
X50317247Y-16683761D01*
X50310173Y-16661989D01*
X50251557Y-16481588D01*
X50155051Y-16292184D01*
X50155049Y-16292180D01*
X50030108Y-16120213D01*
X50030106Y-16120211D01*
X50030104Y-16120208D01*
X49879792Y-15969896D01*
X49879788Y-15969893D01*
X49879786Y-15969891D01*
X49707819Y-15844950D01*
X49707815Y-15844948D01*
X49518412Y-15748443D01*
X49316238Y-15682752D01*
X49106290Y-15649500D01*
X49106287Y-15649500D01*
X48893713Y-15649500D01*
X48893710Y-15649500D01*
X48683761Y-15682752D01*
X48481587Y-15748443D01*
X48292184Y-15844948D01*
X48292180Y-15844950D01*
X48120213Y-15969891D01*
X48120208Y-15969895D01*
X48120208Y-15969896D01*
X48094501Y-15995602D01*
X48039987Y-16023378D01*
X47979555Y-16013807D01*
X47936290Y-15970542D01*
X47925500Y-15925597D01*
X47925500Y-13074403D01*
X47944407Y-13016212D01*
X47993907Y-12980248D01*
X48055093Y-12980248D01*
X48094501Y-13004397D01*
X48120208Y-13030104D01*
X48120211Y-13030106D01*
X48120213Y-13030108D01*
X48292180Y-13155049D01*
X48292184Y-13155051D01*
X48481588Y-13251557D01*
X48683757Y-13317246D01*
X48683758Y-13317246D01*
X48683761Y-13317247D01*
X48893710Y-13350500D01*
X48893713Y-13350500D01*
X49106290Y-13350500D01*
X49316238Y-13317247D01*
X49316239Y-13317246D01*
X49316243Y-13317246D01*
X49518412Y-13251557D01*
X49707816Y-13155051D01*
X49879792Y-13030104D01*
X50030104Y-12879792D01*
X50155051Y-12707816D01*
X50251557Y-12518412D01*
X50317246Y-12316243D01*
X50350500Y-12106287D01*
X50350500Y-11906381D01*
X51549500Y-11906381D01*
X51549500Y-12093618D01*
X51586026Y-12277249D01*
X51657677Y-12450229D01*
X51657681Y-12450238D01*
X51732065Y-12561559D01*
X51761698Y-12605908D01*
X51894092Y-12738302D01*
X51960463Y-12782649D01*
X52049761Y-12842318D01*
X52049767Y-12842320D01*
X52049769Y-12842322D01*
X52222749Y-12913973D01*
X52406384Y-12950500D01*
X52406385Y-12950500D01*
X52593615Y-12950500D01*
X52593616Y-12950500D01*
X52777251Y-12913973D01*
X52950231Y-12842322D01*
X52950234Y-12842319D01*
X52950238Y-12842318D01*
X52999501Y-12809401D01*
X53105908Y-12738302D01*
X53238302Y-12605908D01*
X53312282Y-12495187D01*
X53342318Y-12450238D01*
X53342319Y-12450234D01*
X53342322Y-12450231D01*
X53413973Y-12277251D01*
X53450500Y-12093616D01*
X53450500Y-11906384D01*
X53413973Y-11722749D01*
X53342322Y-11549769D01*
X53342320Y-11549767D01*
X53342318Y-11549761D01*
X53282649Y-11460463D01*
X53238302Y-11394092D01*
X53105908Y-11261698D01*
X53061559Y-11232065D01*
X52950238Y-11157681D01*
X52950229Y-11157677D01*
X52777249Y-11086026D01*
X52593618Y-11049500D01*
X52593616Y-11049500D01*
X52406384Y-11049500D01*
X52406381Y-11049500D01*
X52222750Y-11086026D01*
X52049770Y-11157677D01*
X52049761Y-11157681D01*
X51894092Y-11261698D01*
X51894088Y-11261701D01*
X51761701Y-11394088D01*
X51761698Y-11394092D01*
X51657681Y-11549761D01*
X51657677Y-11549770D01*
X51586026Y-11722750D01*
X51549500Y-11906381D01*
X50350500Y-11906381D01*
X50350500Y-11893713D01*
X50350500Y-11893709D01*
X50317247Y-11683761D01*
X50310173Y-11661989D01*
X50251557Y-11481588D01*
X50155051Y-11292184D01*
X50155049Y-11292180D01*
X50030108Y-11120213D01*
X50030106Y-11120211D01*
X50030104Y-11120208D01*
X49879792Y-10969896D01*
X49879788Y-10969893D01*
X49879786Y-10969891D01*
X49707819Y-10844950D01*
X49707815Y-10844948D01*
X49518412Y-10748443D01*
X49316238Y-10682752D01*
X49106290Y-10649500D01*
X49106287Y-10649500D01*
X48893713Y-10649500D01*
X48893710Y-10649500D01*
X48683761Y-10682752D01*
X48481587Y-10748443D01*
X48292184Y-10844948D01*
X48292180Y-10844950D01*
X48120213Y-10969891D01*
X48120208Y-10969895D01*
X48120208Y-10969896D01*
X48094501Y-10995602D01*
X48039987Y-11023378D01*
X47979555Y-11013807D01*
X47936290Y-10970542D01*
X47925500Y-10925597D01*
X47925500Y-8074403D01*
X47944407Y-8016212D01*
X47993907Y-7980248D01*
X48055093Y-7980248D01*
X48094501Y-8004397D01*
X48120208Y-8030104D01*
X48120211Y-8030106D01*
X48120213Y-8030108D01*
X48292180Y-8155049D01*
X48292184Y-8155051D01*
X48481588Y-8251557D01*
X48683757Y-8317246D01*
X48683758Y-8317246D01*
X48683761Y-8317247D01*
X48893710Y-8350500D01*
X48893713Y-8350500D01*
X49106290Y-8350500D01*
X49316238Y-8317247D01*
X49316239Y-8317246D01*
X49316243Y-8317246D01*
X49518412Y-8251557D01*
X49707816Y-8155051D01*
X49879792Y-8030104D01*
X50030104Y-7879792D01*
X50155051Y-7707816D01*
X50251557Y-7518412D01*
X50317246Y-7316243D01*
X50350500Y-7106287D01*
X50350500Y-6906381D01*
X51549500Y-6906381D01*
X51549500Y-7093618D01*
X51586026Y-7277249D01*
X51657677Y-7450229D01*
X51657681Y-7450238D01*
X51732065Y-7561559D01*
X51761698Y-7605908D01*
X51894092Y-7738302D01*
X51960463Y-7782649D01*
X52049761Y-7842318D01*
X52049767Y-7842320D01*
X52049769Y-7842322D01*
X52222749Y-7913973D01*
X52406384Y-7950500D01*
X52406385Y-7950500D01*
X52593615Y-7950500D01*
X52593616Y-7950500D01*
X52777251Y-7913973D01*
X52950231Y-7842322D01*
X52950234Y-7842319D01*
X52950238Y-7842318D01*
X52999501Y-7809401D01*
X53105908Y-7738302D01*
X53238302Y-7605908D01*
X53312282Y-7495187D01*
X53342318Y-7450238D01*
X53342319Y-7450234D01*
X53342322Y-7450231D01*
X53413973Y-7277251D01*
X53450500Y-7093616D01*
X53450500Y-6906384D01*
X53413973Y-6722749D01*
X53342322Y-6549769D01*
X53342320Y-6549767D01*
X53342318Y-6549761D01*
X53282649Y-6460463D01*
X53238302Y-6394092D01*
X53105908Y-6261698D01*
X53061559Y-6232065D01*
X52950238Y-6157681D01*
X52950229Y-6157677D01*
X52777249Y-6086026D01*
X52593618Y-6049500D01*
X52593616Y-6049500D01*
X52406384Y-6049500D01*
X52406381Y-6049500D01*
X52222750Y-6086026D01*
X52049770Y-6157677D01*
X52049761Y-6157681D01*
X51894092Y-6261698D01*
X51894088Y-6261701D01*
X51761701Y-6394088D01*
X51761698Y-6394092D01*
X51657681Y-6549761D01*
X51657677Y-6549770D01*
X51586026Y-6722750D01*
X51549500Y-6906381D01*
X50350500Y-6906381D01*
X50350500Y-6893713D01*
X50350500Y-6893709D01*
X50317247Y-6683761D01*
X50317246Y-6683757D01*
X50251557Y-6481588D01*
X50155051Y-6292184D01*
X50155049Y-6292180D01*
X50030108Y-6120213D01*
X50030106Y-6120211D01*
X50030104Y-6120208D01*
X49879792Y-5969896D01*
X49879788Y-5969893D01*
X49879786Y-5969891D01*
X49707819Y-5844950D01*
X49707815Y-5844948D01*
X49518412Y-5748443D01*
X49316238Y-5682752D01*
X49106290Y-5649500D01*
X49106287Y-5649500D01*
X48893713Y-5649500D01*
X48893710Y-5649500D01*
X48683761Y-5682752D01*
X48481587Y-5748443D01*
X48292184Y-5844948D01*
X48292180Y-5844950D01*
X48120213Y-5969891D01*
X48120208Y-5969895D01*
X48120208Y-5969896D01*
X48094501Y-5995602D01*
X48039987Y-6023378D01*
X47979555Y-6013807D01*
X47936290Y-5970542D01*
X47925500Y-5925597D01*
X47925500Y-5443983D01*
X47925500Y-5443982D01*
X47896503Y-5335763D01*
X47896501Y-5335760D01*
X47896501Y-5335758D01*
X47840486Y-5238739D01*
X47840485Y-5238737D01*
X47761263Y-5159515D01*
X47761260Y-5159513D01*
X47664240Y-5103498D01*
X47664242Y-5103498D01*
X47622251Y-5092247D01*
X47556018Y-5074500D01*
X47556016Y-5074500D01*
X25615539Y-5074500D01*
X25566039Y-5061236D01*
X25437488Y-4987017D01*
X25437489Y-4987017D01*
X25407896Y-4979087D01*
X25297475Y-4949500D01*
X25152525Y-4949500D01*
X25090790Y-4966041D01*
X25012510Y-4987017D01*
X24883961Y-5061236D01*
X24834461Y-5074500D01*
X16056018Y-5074500D01*
X15943982Y-5074500D01*
X15877748Y-5092247D01*
X15835758Y-5103498D01*
X15738739Y-5159513D01*
X15659513Y-5238739D01*
X15603498Y-5335758D01*
X15574500Y-5443983D01*
X15574500Y-27784461D01*
X15561236Y-27833961D01*
X15487017Y-27962510D01*
X15449500Y-28102525D01*
X500500Y-28102525D01*
X500500Y-22970078D01*
X519407Y-22911887D01*
X568907Y-22875923D01*
X630093Y-22875923D01*
X637378Y-22878611D01*
X722749Y-22913973D01*
X906384Y-22950500D01*
X906385Y-22950500D01*
X1093615Y-22950500D01*
X1093616Y-22950500D01*
X1277251Y-22913973D01*
X1450231Y-22842322D01*
X1450234Y-22842319D01*
X1450238Y-22842318D01*
X1499501Y-22809401D01*
X1605908Y-22738302D01*
X1738302Y-22605908D01*
X1812282Y-22495187D01*
X1842318Y-22450238D01*
X1842319Y-22450234D01*
X1842322Y-22450231D01*
X1913973Y-22277251D01*
X1950500Y-22093616D01*
X1950500Y-21906384D01*
X1950499Y-21906381D01*
X2549500Y-21906381D01*
X2549500Y-22093618D01*
X2586026Y-22277249D01*
X2657677Y-22450229D01*
X2657681Y-22450238D01*
X2732065Y-22561559D01*
X2761698Y-22605908D01*
X2894092Y-22738302D01*
X2960463Y-22782649D01*
X3049761Y-22842318D01*
X3049767Y-22842320D01*
X3049769Y-22842322D01*
X3222749Y-22913973D01*
X3406384Y-22950500D01*
X3406385Y-22950500D01*
X3593615Y-22950500D01*
X3593616Y-22950500D01*
X3777251Y-22913973D01*
X3950231Y-22842322D01*
X3950234Y-22842319D01*
X3950238Y-22842318D01*
X3999501Y-22809401D01*
X4105908Y-22738302D01*
X4238302Y-22605908D01*
X4312282Y-22495187D01*
X4342318Y-22450238D01*
X4342319Y-22450234D01*
X4342322Y-22450231D01*
X4413973Y-22277251D01*
X4450500Y-22093616D01*
X4450500Y-21906384D01*
X4447979Y-21893709D01*
X5649500Y-21893709D01*
X5649500Y-22106290D01*
X5682752Y-22316238D01*
X5748443Y-22518412D01*
X5844948Y-22707815D01*
X5844950Y-22707819D01*
X5969891Y-22879786D01*
X5969893Y-22879788D01*
X5969896Y-22879792D01*
X6120208Y-23030104D01*
X6120211Y-23030106D01*
X6120213Y-23030108D01*
X6292180Y-23155049D01*
X6292184Y-23155051D01*
X6481588Y-23251557D01*
X6683757Y-23317246D01*
X6683758Y-23317246D01*
X6683761Y-23317247D01*
X6893710Y-23350500D01*
X6893713Y-23350500D01*
X7106290Y-23350500D01*
X7316238Y-23317247D01*
X7316239Y-23317246D01*
X7316243Y-23317246D01*
X7518412Y-23251557D01*
X7707816Y-23155051D01*
X7879792Y-23030104D01*
X8030104Y-22879792D01*
X8155051Y-22707816D01*
X8251557Y-22518412D01*
X8317246Y-22316243D01*
X8350500Y-22106287D01*
X8350500Y-21893713D01*
X8350500Y-21893709D01*
X8317247Y-21683761D01*
X8317246Y-21683757D01*
X8251557Y-21481588D01*
X8155051Y-21292184D01*
X8155049Y-21292180D01*
X8030108Y-21120213D01*
X8030106Y-21120211D01*
X8030104Y-21120208D01*
X7879792Y-20969896D01*
X7879788Y-20969893D01*
X7879786Y-20969891D01*
X7707819Y-20844950D01*
X7707815Y-20844948D01*
X7518412Y-20748443D01*
X7316238Y-20682752D01*
X7106290Y-20649500D01*
X7106287Y-20649500D01*
X6893713Y-20649500D01*
X6893710Y-20649500D01*
X6683761Y-20682752D01*
X6481587Y-20748443D01*
X6292184Y-20844948D01*
X6292180Y-20844950D01*
X6120213Y-20969891D01*
X5969891Y-21120213D01*
X5844950Y-21292180D01*
X5844948Y-21292184D01*
X5748443Y-21481587D01*
X5682752Y-21683761D01*
X5649500Y-21893709D01*
X4447979Y-21893709D01*
X4413973Y-21722749D01*
X4342322Y-21549769D01*
X4342320Y-21549767D01*
X4342318Y-21549761D01*
X4282649Y-21460463D01*
X4238302Y-21394092D01*
X4105908Y-21261698D01*
X4061559Y-21232065D01*
X3950238Y-21157681D01*
X3950229Y-21157677D01*
X3777249Y-21086026D01*
X3593618Y-21049500D01*
X3593616Y-21049500D01*
X3406384Y-21049500D01*
X3406381Y-21049500D01*
X3222750Y-21086026D01*
X3049770Y-21157677D01*
X3049761Y-21157681D01*
X2894092Y-21261698D01*
X2894088Y-21261701D01*
X2761701Y-21394088D01*
X2761698Y-21394092D01*
X2657681Y-21549761D01*
X2657677Y-21549770D01*
X2586026Y-21722750D01*
X2549500Y-21906381D01*
X1950499Y-21906381D01*
X1913973Y-21722749D01*
X1842322Y-21549769D01*
X1842320Y-21549767D01*
X1842318Y-21549761D01*
X1782649Y-21460463D01*
X1738302Y-21394092D01*
X1605908Y-21261698D01*
X1561559Y-21232065D01*
X1450238Y-21157681D01*
X1450229Y-21157677D01*
X1277249Y-21086026D01*
X1093618Y-21049500D01*
X1093616Y-21049500D01*
X906384Y-21049500D01*
X906381Y-21049500D01*
X722749Y-21086027D01*
X722747Y-21086027D01*
X637385Y-21121385D01*
X576388Y-21126185D01*
X524219Y-21094216D01*
X500805Y-21037688D01*
X500500Y-21029921D01*
X500500Y-14970078D01*
X519407Y-14911887D01*
X568907Y-14875923D01*
X630093Y-14875923D01*
X637378Y-14878611D01*
X722749Y-14913973D01*
X906384Y-14950500D01*
X906385Y-14950500D01*
X1093615Y-14950500D01*
X1093616Y-14950500D01*
X1277251Y-14913973D01*
X1450231Y-14842322D01*
X1450234Y-14842319D01*
X1450238Y-14842318D01*
X1499501Y-14809401D01*
X1605908Y-14738302D01*
X1738302Y-14605908D01*
X1812282Y-14495187D01*
X1842318Y-14450238D01*
X1842319Y-14450234D01*
X1842322Y-14450231D01*
X1913973Y-14277251D01*
X1950500Y-14093616D01*
X1950500Y-13906384D01*
X1950499Y-13906381D01*
X2549500Y-13906381D01*
X2549500Y-14093618D01*
X2586026Y-14277249D01*
X2657677Y-14450229D01*
X2657681Y-14450238D01*
X2732065Y-14561559D01*
X2761698Y-14605908D01*
X2894092Y-14738302D01*
X2960463Y-14782649D01*
X3049761Y-14842318D01*
X3049767Y-14842320D01*
X3049769Y-14842322D01*
X3222749Y-14913973D01*
X3406384Y-14950500D01*
X3406385Y-14950500D01*
X3593615Y-14950500D01*
X3593616Y-14950500D01*
X3777251Y-14913973D01*
X3950231Y-14842322D01*
X3950234Y-14842319D01*
X3950238Y-14842318D01*
X3999501Y-14809401D01*
X4105908Y-14738302D01*
X4238302Y-14605908D01*
X4312282Y-14495187D01*
X4342318Y-14450238D01*
X4342319Y-14450234D01*
X4342322Y-14450231D01*
X4413973Y-14277251D01*
X4450500Y-14093616D01*
X4450500Y-13906384D01*
X4447979Y-13893709D01*
X5649500Y-13893709D01*
X5649500Y-14106290D01*
X5682752Y-14316238D01*
X5748443Y-14518412D01*
X5844948Y-14707815D01*
X5844950Y-14707819D01*
X5969891Y-14879786D01*
X5969893Y-14879788D01*
X5969896Y-14879792D01*
X6120208Y-15030104D01*
X6120211Y-15030106D01*
X6120213Y-15030108D01*
X6292180Y-15155049D01*
X6292184Y-15155051D01*
X6481588Y-15251557D01*
X6683757Y-15317246D01*
X6683758Y-15317246D01*
X6683761Y-15317247D01*
X6893710Y-15350500D01*
X6893713Y-15350500D01*
X7106290Y-15350500D01*
X7316238Y-15317247D01*
X7316239Y-15317246D01*
X7316243Y-15317246D01*
X7518412Y-15251557D01*
X7707816Y-15155051D01*
X7879792Y-15030104D01*
X8030104Y-14879792D01*
X8155051Y-14707816D01*
X8251557Y-14518412D01*
X8317246Y-14316243D01*
X8350500Y-14106287D01*
X8350500Y-13893713D01*
X8350500Y-13893709D01*
X8317247Y-13683761D01*
X8317246Y-13683757D01*
X8251557Y-13481588D01*
X8155051Y-13292184D01*
X8155049Y-13292180D01*
X8030108Y-13120213D01*
X8030106Y-13120211D01*
X8030104Y-13120208D01*
X7879792Y-12969896D01*
X7879788Y-12969893D01*
X7879786Y-12969891D01*
X7707819Y-12844950D01*
X7707815Y-12844948D01*
X7518412Y-12748443D01*
X7316238Y-12682752D01*
X7106290Y-12649500D01*
X7106287Y-12649500D01*
X6893713Y-12649500D01*
X6893710Y-12649500D01*
X6683761Y-12682752D01*
X6481587Y-12748443D01*
X6292184Y-12844948D01*
X6292180Y-12844950D01*
X6120213Y-12969891D01*
X5969891Y-13120213D01*
X5844950Y-13292180D01*
X5844948Y-13292184D01*
X5748443Y-13481587D01*
X5682752Y-13683761D01*
X5649500Y-13893709D01*
X4447979Y-13893709D01*
X4413973Y-13722749D01*
X4342322Y-13549769D01*
X4342320Y-13549767D01*
X4342318Y-13549761D01*
X4282649Y-13460463D01*
X4238302Y-13394092D01*
X4105908Y-13261698D01*
X4061559Y-13232065D01*
X3950238Y-13157681D01*
X3950229Y-13157677D01*
X3777249Y-13086026D01*
X3593618Y-13049500D01*
X3593616Y-13049500D01*
X3406384Y-13049500D01*
X3406381Y-13049500D01*
X3222750Y-13086026D01*
X3049770Y-13157677D01*
X3049761Y-13157681D01*
X2894092Y-13261698D01*
X2894088Y-13261701D01*
X2761701Y-13394088D01*
X2761698Y-13394092D01*
X2657681Y-13549761D01*
X2657677Y-13549770D01*
X2586026Y-13722750D01*
X2549500Y-13906381D01*
X1950499Y-13906381D01*
X1913973Y-13722749D01*
X1842322Y-13549769D01*
X1842320Y-13549767D01*
X1842318Y-13549761D01*
X1782649Y-13460463D01*
X1738302Y-13394092D01*
X1605908Y-13261698D01*
X1561559Y-13232065D01*
X1450238Y-13157681D01*
X1450229Y-13157677D01*
X1277249Y-13086026D01*
X1093618Y-13049500D01*
X1093616Y-13049500D01*
X906384Y-13049500D01*
X906381Y-13049500D01*
X722749Y-13086027D01*
X722747Y-13086027D01*
X637385Y-13121385D01*
X576388Y-13126185D01*
X524219Y-13094216D01*
X500805Y-13037688D01*
X500500Y-13029921D01*
X500500Y-3878710D01*
X2149500Y-3878710D01*
X2149500Y-4121289D01*
X2181161Y-4361781D01*
X2181161Y-4361786D01*
X2243944Y-4596092D01*
X2243948Y-4596105D01*
X2336772Y-4820204D01*
X2336774Y-4820208D01*
X2336776Y-4820212D01*
X2433081Y-4987017D01*
X2458066Y-5030292D01*
X2605729Y-5222731D01*
X2605731Y-5222733D01*
X2605735Y-5222738D01*
X2777262Y-5394265D01*
X2777266Y-5394268D01*
X2777268Y-5394270D01*
X2842056Y-5443983D01*
X2969711Y-5541936D01*
X3179788Y-5663224D01*
X3403900Y-5756054D01*
X3638211Y-5818838D01*
X3878712Y-5850500D01*
X3878713Y-5850500D01*
X4121287Y-5850500D01*
X4121288Y-5850500D01*
X4361789Y-5818838D01*
X4596100Y-5756054D01*
X4820212Y-5663224D01*
X5030289Y-5541936D01*
X5222738Y-5394265D01*
X5394265Y-5222738D01*
X5541936Y-5030289D01*
X5663224Y-4820212D01*
X5756054Y-4596100D01*
X5818838Y-4361789D01*
X5850500Y-4121288D01*
X5850500Y-3878712D01*
X5818838Y-3638211D01*
X5756054Y-3403900D01*
X5663224Y-3179788D01*
X5541936Y-2969711D01*
X5394265Y-2777262D01*
X5222738Y-2605735D01*
X5222733Y-2605731D01*
X5222731Y-2605729D01*
X5030292Y-2458066D01*
X5030289Y-2458064D01*
X4820212Y-2336776D01*
X4820208Y-2336774D01*
X4820204Y-2336772D01*
X4596105Y-2243948D01*
X4596104Y-2243947D01*
X4596100Y-2243946D01*
X4361789Y-2181162D01*
X4361786Y-2181161D01*
X4361784Y-2181161D01*
X4121289Y-2149500D01*
X4121288Y-2149500D01*
X3878712Y-2149500D01*
X3878710Y-2149500D01*
X3638218Y-2181161D01*
X3638213Y-2181161D01*
X3403907Y-2243944D01*
X3403894Y-2243948D01*
X3179795Y-2336772D01*
X2969707Y-2458066D01*
X2777268Y-2605729D01*
X2605729Y-2777268D01*
X2458066Y-2969707D01*
X2336772Y-3179795D01*
X2243948Y-3403894D01*
X2243944Y-3403907D01*
X2181161Y-3638213D01*
X2181161Y-3638218D01*
X2149500Y-3878710D01*
X500500Y-3878710D01*
X500500Y-599500D01*
X519407Y-541309D01*
X568907Y-505345D01*
X599500Y-500500D01*
X55400500Y-500500D01*
X55458691Y-519407D01*
G37*
%TD.AperFunction*%
%TD*%
M02*
