<?xml version="1.0" encoding="UTF-8" standalone="no"?>
<!-- Created with Inkscape (http://www.inkscape.org/) -->

<svg
   xmlns:dc="http://purl.org/dc/elements/1.1/"
   xmlns:cc="http://creativecommons.org/ns#"
   xmlns:rdf="http://www.w3.org/1999/02/22-rdf-syntax-ns#"
   xmlns:svg="http://www.w3.org/2000/svg"
   xmlns="http://www.w3.org/2000/svg"
   version="1.1"
   width="713.56091"
   height="800.58954"
   id="svg4749">
  <defs
     id="defs3" />
  <metadata
     id="metadata4">
    <rdf:RDF>
      <cc:Work
         rdf:about="">
        <dc:format>image/svg+xml</dc:format>
        <dc:type
           rdf:resource="http://purl.org/dc/dcmitype/StillImage" />
        <dc:title></dc:title>
      </cc:Work>
    </rdf:RDF>
  </metadata>
  <g
     transform="translate(191.36707,-78.163525)"
     id="layer1">
    <g
       transform="matrix(3.8147093,0,0,3.8147093,-911.41417,-929.25988)"
       id="g4315">
      <path
         d="m 189.29687,365.01292 c 0.57573,-7.07285 1.20157,-14.6747 3.45149,-21.45668 1.15509,-4.55034 3.41061,-8.70956 6.00258,-12.45389 2.47143,-3.86986 8.17782,-6.13815 12.90554,-4.31259 3.25332,1.29392 6.05613,3.83297 8.10348,6.71334 3.15242,3.66374 4.68578,8.38405 7.03323,12.45388 2.58003,5.22567 4.01039,10.98155 5.73174,16.44913 2.45499,12.10856 -0.76216,23.4097 -10.67788,28.81662 -5.70925,3.41038 -13.79244,3.93258 -20.09482,1.41231 -4.38459,-1.65694 -7.17573,-5.48047 -9.42066,-9.31641 -2.92092,-5.61826 -4.22204,-11.60614 -3.26619,-18.12284 l 0.23149,-0.18287 z"
         id="path4286"
         style="fill:#000000" />
      <path
         d="m 190.1668,429.23294 c 1.83052,-10.76093 9.09505,-19.64923 18.06842,-25.48613 8.1612,-5.64918 16.95703,-10.34269 24.84632,-16.29932 5.05607,-5.66448 7.51585,-13.06582 12.01624,-19.19333 7.4832,-8.88461 19.85649,-11.39471 30.94682,-11.98063 14.20447,-0.51947 30.23551,-0.34628 41.63124,9.38219 6.58779,6.49133 8.23151,16.51649 15.53286,22.46441 6.9948,5.58553 14.89126,9.56024 22.2117,14.70068 10.09208,6.72295 19.49434,17.09353 19.51259,29.94371 0.2958,10.04123 -3.52,19.93942 -8.49465,28.49505 -5.33598,8.29183 -14.88569,13.35907 -24.77903,12.62909 -10.35784,0.13126 -19.62549,-5.5392 -29.78905,-6.22178 -10.04411,2.41575 -20.5072,3.88861 -30.93896,3.50491 -9.94302,0.68229 -19.6136,-2.40049 -29.26135,-3.42777 -11.99253,2.08796 -23.85034,8.05953 -36.2912,5.50994 -11.18234,-2.58598 -18.88278,-12.4414 -21.99815,-23.08458 -2.39443,-6.52214 -4.76221,-13.98429 -3.2138,-20.93644 z"
         id="path4282"
         style="fill:#000000" />
      <path
         d="m 222.31106,321.19927 c 0.35791,-8.86037 1.84907,-17.55342 3.90664,-26.22012 3.43033,-11.53335 7.33457,-25.93921 19.84546,-30.40779 11.89541,-1.87832 19.49865,10.82065 23.57004,20.37908 5.78084,13.22404 9.8212,27.38068 11.18512,41.78187 0.72297,13.29903 -11.11633,22.49319 -23.19173,24.41331 -11.06099,3.32324 -24.42732,-0.33332 -30.3136,-10.85803 -3.7042,-5.70817 -5.11213,-12.91906 -5.00193,-19.08832 z"
         id="path4268"
         style="fill:#000000" />
      <path
         d="m 284.13762,324.2002 c 1.11008,-6.74905 1.79369,-13.90824 4.20181,-20.10626 0.52034,-5.20254 3.58179,-9.59895 4.44873,-14.67179 2.68746,-3.27487 2.46809,-7.38157 5.45552,-10.23598 1.4416,-3.25095 3.37169,-6.33301 6.00258,-9.0028 2.05804,-2.5262 5.08224,-4.42294 8.30357,-5.20877 4.67668,-2.48831 9.1451,0.82347 12.70546,3.10811 2.18571,1.88322 2.77698,4.74304 5.43448,6.20819 0.8606,3.88551 3.96676,6.84566 4.43477,10.89714 2.27302,5.75871 4.00066,11.94274 4.77609,18.43075 1.52668,6.49363 2.59158,14.1606 2.46201,20.58141 -1.16676,5.41453 -1.43311,11.20337 -4.78331,15.72991 -1.47418,2.6359 -4.23129,5.23733 -6.32146,7.3773 -5.98838,4.47779 -13.60889,5.47683 -21.09902,4.72172 -5.74453,-1.35487 -11.24005,-2.4507 -15.96691,-5.9221 -3.10219,-2.11846 -6.04317,-4.49859 -7.50322,-7.95248 -1.90278,-4.04699 -3.27497,-9.40668 -2.5511,-13.95435 z"
         id="path4262"
         style="fill:#000000" />
      <path
         d="m 334.60216,354.85976 c 1.40297,-4.13143 2.75229,-7.97578 4.79259,-11.75366 1.17452,-3.06919 3.15654,-6.13314 4.76866,-9.00281 2.80378,-2.67131 4.87621,-5.42798 8.10348,-6.90215 4.86428,-2.8528 10.8432,-0.2333 13.50581,3.90121 1.96819,2.97261 3.94056,5.93839 4.95213,9.3029 2.81312,6.46744 3.59366,13.78845 4.18403,21.15668 1.1881,5.97334 1.56903,12.64166 -1.18274,18.15558 -0.86818,3.20173 -2.70641,6.81562 -5.87617,8.5872 -2.57995,4.96961 -10.03963,6.32479 -15.55436,5.79961 -5.76344,-0.50577 -10.70178,-2.77069 -15.48534,-5.54765 -3.88733,-3.39304 -6.83008,-7.39686 -6.08885,-12.76539 -2.05392,-6.19388 1.87124,-15.26777 3.88076,-20.93152 z"
         id="path4258"
         style="fill:#000000" />
    </g>
  </g>
</svg>
