<?xml version="1.0" encoding="UTF-8" standalone="no"?>
<!-- Created with Inkscape (http://www.inkscape.org/) -->

<svg
   xmlns:dc="http://purl.org/dc/elements/1.1/"
   xmlns:cc="http://creativecommons.org/ns#"
   xmlns:rdf="http://www.w3.org/1999/02/22-rdf-syntax-ns#"
   xmlns:svg="http://www.w3.org/2000/svg"
   xmlns="http://www.w3.org/2000/svg"
   xmlns:sodipodi="http://sodipodi.sourceforge.net/DTD/sodipodi-0.dtd"
   xmlns:inkscape="http://www.inkscape.org/namespaces/inkscape"
   version="1.1"
   id="svg2"
   xml:space="preserve"
   width="391.86798"
   height="68.550667"
   viewBox="0 0 391.86798 68.550666"
   sodipodi:docname="logo_spoje2.svg"
   inkscape:version="0.92.1 r"><metadata
     id="metadata8"><rdf:RDF><cc:Work
         rdf:about=""><dc:format>image/svg+xml</dc:format><dc:type
           rdf:resource="http://purl.org/dc/dcmitype/StillImage" /><dc:title></dc:title></cc:Work></rdf:RDF></metadata><defs
     id="defs6"><clipPath
       clipPathUnits="userSpaceOnUse"
       id="clipPath18"><path
         d="M 0,841.89 H 595.276 V 0 H 0 Z"
         id="path16"
         inkscape:connector-curvature="0" /></clipPath></defs><sodipodi:namedview
     pagecolor="#ffffff"
     bordercolor="#666666"
     borderopacity="1"
     objecttolerance="10"
     gridtolerance="10"
     guidetolerance="10"
     inkscape:pageopacity="0"
     inkscape:pageshadow="2"
     inkscape:window-width="1280"
     inkscape:window-height="751"
     id="namedview4"
     showgrid="false"
     inkscape:zoom="1.6819299"
     inkscape:cx="204.36762"
     inkscape:cy="23.02982"
     inkscape:window-x="0"
     inkscape:window-y="27"
     inkscape:window-maximized="1"
     inkscape:current-layer="g14"
     fit-margin-top="0"
     fit-margin-left="0"
     fit-margin-right="0"
     fit-margin-bottom="0" /><g
     id="g10"
     inkscape:groupmode="layer"
     inkscape:label="logo_spoje"
     transform="matrix(1.3333333,0,0,-1.3333333,-149.36604,552.80662)"><g
       id="g12"
       transform="translate(-40.13247,-30.768227)"><g
         id="g14"
         clip-path="url(#clipPath18)"><path
           style="fill:#f8b334;fill-opacity:1;stroke:#1a171b;stroke-width:1;stroke-linecap:butt;stroke-linejoin:miter;stroke-miterlimit:4;stroke-dasharray:none;stroke-opacity:1"
           d="M 10.980469 2.296875 C 6.1831316 2.296875 2.296875 6.1831316 2.296875 10.980469 L 2.296875 57.566406 C 2.296875 62.362406 6.1831316 66.253906 10.980469 66.253906 L 380.88477 66.253906 C 385.6821 66.253906 389.57031 62.362406 389.57031 57.566406 L 389.57031 10.980469 C 389.57031 6.1831316 385.6821 2.296875 380.88477 2.296875 L 10.980469 2.296875 z M 285.75195 15.287109 L 307.02539 35.3125 L 285.75195 55.337891 L 280.26953 49.509766 L 295.35352 35.3125 L 280.26953 21.113281 L 285.75195 15.287109 z M 317.49414 15.289062 L 338.76172 35.3125 L 317.49414 55.337891 L 312.00977 49.509766 L 327.09375 35.3125 L 312.00977 21.113281 L 312.01367 21.113281 L 317.49414 15.289062 z M 349.23633 15.289062 L 370.50781 35.3125 L 349.23828 55.333984 L 343.75586 49.511719 L 358.83594 35.3125 L 343.75586 21.113281 L 349.23633 15.289062 z M 34.091797 16.449219 C 38.82513 16.449219 42.256458 17.608318 45.203125 20.458984 L 40.951172 24.660156 C 38.777839 22.584156 36.167771 22.292969 33.898438 22.292969 C 30.322425 22.292969 28.583984 24.275912 28.583984 26.642578 C 28.583984 27.511911 28.873656 28.429469 29.597656 29.105469 C 30.273656 29.733469 31.385776 30.265031 32.787109 30.457031 L 36.845703 31.037109 C 39.985703 31.471776 41.964729 32.341979 43.414062 33.695312 C 45.250075 35.433992 46.072266 37.946234 46.072266 40.990234 C 46.072266 47.656901 40.515693 51.423828 33.318359 51.423828 C 28.101026 51.423828 24.139159 50.313492 20.757812 46.882812 L 25.105469 42.535156 C 27.280135 44.709823 30.226063 45.433594 33.414062 45.433594 C 37.375409 45.433594 39.501953 43.936927 39.501953 41.183594 C 39.501953 39.975594 39.164786 38.961156 38.439453 38.285156 C 37.763453 37.657156 36.989818 37.317505 35.396484 37.076172 L 31.240234 36.496094 C 28.293568 36.061427 26.119552 35.143818 24.574219 33.646484 C 22.931552 32.003818 22.111328 29.781492 22.111328 26.882812 C 22.111328 20.748146 26.651797 16.449219 34.091797 16.449219 z M 94.283203 16.449219 C 98.196536 16.449219 101.14259 17.80213 103.55859 20.216797 C 107.03593 23.695463 106.98828 27.99288 106.98828 33.935547 C 106.98828 39.878213 107.03593 44.177583 103.55859 47.65625 C 101.14259 50.07225 98.196536 51.423828 94.283203 51.423828 C 90.371203 51.423828 87.373651 50.07225 84.958984 47.65625 C 81.480318 44.177583 81.578125 39.878213 81.578125 33.935547 C 81.578125 27.99288 81.480318 23.695463 84.958984 20.216797 C 87.373651 17.80213 90.371203 16.449219 94.283203 16.449219 z M 52.400391 16.738281 L 65.734375 16.738281 C 72.835708 16.738281 77.085938 21.617557 77.085938 27.462891 C 77.085938 33.308224 72.835708 38.1875 65.734375 38.1875 L 59.115234 38.1875 L 59.115234 51.132812 L 52.400391 51.132812 L 52.400391 16.738281 z M 122.64258 16.738281 L 129.35547 16.738281 L 129.35547 39.830078 C 129.35547 47.414078 123.60647 51.423828 117.23047 51.423828 C 113.51047 51.423828 110.95066 50.457818 108.39062 47.896484 L 112.83594 43.5 C 113.9466 44.612 115.0078 45.433594 117.23047 45.433594 C 120.5158 45.433594 122.64258 43.5004 122.64258 39.539062 L 122.64258 16.738281 z M 136.93945 16.738281 L 159.59766 16.738281 L 159.59766 22.728516 L 143.6543 22.728516 L 143.6543 30.796875 L 157.23047 30.796875 L 157.23047 36.787109 L 143.6543 36.787109 L 143.6543 45.144531 L 159.59766 45.144531 L 159.59766 51.134766 L 136.93945 51.134766 L 136.93945 16.738281 z M 179.93555 16.738281 L 185.92578 16.738281 L 199.54883 37.800781 L 199.54883 16.738281 L 206.26172 16.738281 L 206.26172 51.134766 L 200.27148 51.134766 L 186.64844 30.023438 L 186.64844 51.134766 L 179.93555 51.134766 L 179.93555 16.738281 z M 214.28125 16.738281 L 236.93945 16.738281 L 236.93945 22.728516 L 220.99609 22.728516 L 220.99609 30.796875 L 234.57227 30.796875 L 234.57227 36.787109 L 220.99609 36.787109 L 220.99609 45.144531 L 236.93945 45.144531 L 236.93945 51.134766 L 214.28125 51.134766 L 214.28125 16.738281 z M 240.94922 16.738281 L 265.63281 16.738281 L 265.63281 22.728516 L 256.64844 22.728516 L 256.64844 51.134766 L 249.93359 51.134766 L 249.93359 22.728516 L 240.94922 22.728516 L 240.94922 16.738281 z M 94.283203 22.439453 C 92.447203 22.439453 90.90026 23.163391 89.933594 24.275391 C 88.629594 25.724724 88.292969 27.31688 88.292969 33.935547 C 88.292969 40.554213 88.629594 42.148323 89.933594 43.597656 C 90.90026 44.709656 92.447203 45.433594 94.283203 45.433594 C 96.119203 45.433594 97.615365 44.709656 98.582031 43.597656 C 99.886031 42.148323 100.27344 40.554213 100.27344 33.935547 C 100.27344 27.31688 99.886031 25.724724 98.582031 24.275391 C 97.615365 23.163391 96.119203 22.439453 94.283203 22.439453 z M 59.115234 22.728516 L 59.115234 32.150391 L 65.394531 32.150391 C 68.438531 32.150391 70.371094 30.265557 70.371094 27.462891 C 70.371094 24.660224 68.438531 22.728516 65.394531 22.728516 L 59.115234 22.728516 z M 165.44336 43.984375 L 172.64062 43.984375 L 172.64062 51.134766 L 165.44336 51.134766 L 165.44336 43.984375 z "
           transform="matrix(0.75000002,0,0,-0.75000002,152.157,445.3732)"
           id="path26" /></g></g></g></svg>