  0
SECTION
  2
HEADER
  9
$ACADVER
  1
AC1014
  9
$HANDSEED
  5
FFFF
  9
$MEASUREMENT
 70
     1
  0
ENDSEC
  0
SECTION
  2
TABLES
  0
TABLE
  2
VPORT
  5
8
330
0
100
AcDbSymbolTable
 70
     4
  0
VPORT
  5
2E
330
8
100
AcDbSymbolTableRecord
100
AcDbViewportTableRecord
  2
*ACTIVE
 70
     0
 10
0.0
 20
0.0
 11
1.0
 21
1.0
 12
210.0
 22
148.5
 13
0.0
 23
0.0
 14
10.0
 24
10.0
 15
10.0
 25
10.0
 16
0.0
 26
0.0
 36
1.0
 17
0.0
 27
0.0
 37
0.0
 40
341.0
 41
1.24
 42
50.0
 43
0.0
 44
0.0
 50
0.0
 51
0.0
 71
     0
 72
   100
 73
     1
 74
     3
 75
     0
 76
     0
 77
     0
 78
     0
  0
ENDTAB
  0
TABLE
  2
LTYPE
  5
5
330
0
100
AcDbSymbolTable
 70
     1
  0
LTYPE
  5
14
330
5
100
AcDbSymbolTableRecord
100
AcDbLinetypeTableRecord
  2
BYBLOCK
 70
     0
  3

 72
    65
 73
     0
 40
0.0
  0
LTYPE
  5
15
330
5
100
AcDbSymbolTableRecord
100
AcDbLinetypeTableRecord
  2
BYLAYER
 70
     0
  3

 72
    65
 73
     0
 40
0.0
  0
LTYPE
  5
16
330
5
100
AcDbSymbolTableRecord
100
AcDbLinetypeTableRecord
  2
CONTINUOUS
 70
     0
  3
Solid line
 72
    65
 73
     0
 40
0.0
  0
ENDTAB
  0
TABLE
  2
LAYER
  5
2
100
AcDbSymbolTable
 70
2
  0
LAYER
  5
50
100
AcDbSymbolTableRecord
100
AcDbLayerTableRecord
  2
0
 70
0
  6
CONTINUOUS
  0
LAYER
  5
51
100
AcDbSymbolTableRecord
100
AcDbLayerTableRecord
  2
logo_spoje
 70
0
  6
CONTINUOUS
  0
ENDTAB
  0
TABLE
  2
STYLE
  5
3
330
0
100
AcDbSymbolTable
 70
     1
  0
STYLE
  5
11
330
3
100
AcDbSymbolTableRecord
100
AcDbTextStyleTableRecord
  2
STANDARD
 70
     0
 40
0.0
 41
1.0
 50
0.0
 71
     0
 42
2.5
  3
txt
  4

  0
ENDTAB
  0
TABLE
  2
VIEW
  5
6
330
0
100
AcDbSymbolTable
 70
     0
  0
ENDTAB
  0
TABLE
  2
UCS
  5
7
330
0
100
AcDbSymbolTable
 70
     0
  0
ENDTAB
  0
TABLE
  2
APPID
  5
9
330
0
100
AcDbSymbolTable
 70
     2
  0
APPID
  5
12
330
9
100
AcDbSymbolTableRecord
100
AcDbRegAppTableRecord
  2
ACAD
 70
     0
  0
ENDTAB
  0
TABLE
  2
DIMSTYLE
  5
A
330
0
100
AcDbSymbolTable
 70
     1
  0
DIMSTYLE
105
27
330
A
100
AcDbSymbolTableRecord
100
AcDbDimStyleTableRecord
  2
ISO-25
 70
     0
  3

  4

  5

  6

  7

 40
1.0
 41
2.5
 42
0.625
 43
3.75
 44
1.25
 45
0.0
 46
0.0
 47
0.0
 48
0.0
140
2.5
141
2.5
142
0.0
143
0.03937007874016
144
1.0
145
0.0
146
1.0
147
0.625
 71
     0
 72
     0
 73
     0
 74
     0
 75
     0
 76
     0
 77
     1
 78
     8
170
     0
171
     3
172
     1
173
     0
174
     0
175
     0
176
     0
177
     0
178
     0
270
     2
271
     2
272
     2
273
     2
274
     3
340
11
275
     0
280
     0
281
     0
282
     0
283
     0
284
     8
285
     0
286
     0
287
     3
288
     0
  0
ENDTAB
  0
TABLE
  2
BLOCK_RECORD
  5
1
330
0
100
AcDbSymbolTable
 70
     1
  0
BLOCK_RECORD
  5
1F
330
1
100
AcDbSymbolTableRecord
100
AcDbBlockTableRecord
  2
*MODEL_SPACE
  0
BLOCK_RECORD
  5
1B
330
1
100
AcDbSymbolTableRecord
100
AcDbBlockTableRecord
  2
*PAPER_SPACE
  0
ENDTAB
  0
ENDSEC
  0
SECTION
  2
BLOCKS
  0
BLOCK
  5
20
330
1F
100
AcDbEntity
  8
0
100
AcDbBlockBegin
  2
*MODEL_SPACE
 70
     0
 10
0.0
 20
0.0
 30
0.0
  3
*MODEL_SPACE
  1

  0
ENDBLK
  5
21
330
1F
100
AcDbEntity
  8
0
100
AcDbBlockEnd
  0
BLOCK
  5
1C
330
1B
100
AcDbEntity
 67
     1
  8
0
100
AcDbBlockBegin
  2
*PAPER_SPACE
  1

  0
ENDBLK
  5
1D
330
1B
100
AcDbEntity
 67
     1
  8
0
100
AcDbBlockEnd
  0
ENDSEC
  0
SECTION
  2
ENTITIES
  0
SPLINE
  5
100
100
AcDbEntity
  8
logo_spoje
 62
7
100
AcDbSpline
 70
8
 71
3
 72
8
 73
4
 74
0
 40
0
 40
0
 40
0
 40
0
 40
1
 40
1
 40
1
 40
1
 10
8.235347
 20
51.190339
 30
0.0
 10
3.827257
 20
51.190339
 30
0.0
 10
0.222657
 20
47.585739
 30
0.0
 10
0.222657
 20
43.177649
 30
0.0
  0
LINE
  5
101
100
AcDbEntity
  8
logo_spoje
 62
7
100
AcDbLine
 10
0.222657
 20
43.177649
 30
0.0
 11
0.222657
 21
8.238189
 31
0.0
  0
SPLINE
  5
102
100
AcDbEntity
  8
logo_spoje
 62
7
100
AcDbSpline
 70
8
 71
3
 72
8
 73
4
 74
0
 40
0
 40
0
 40
0
 40
0
 40
1
 40
1
 40
1
 40
1
 10
0.222657
 20
8.238189
 30
0.0
 10
0.222657
 20
3.830879
 30
0.0
 10
3.826167
 20
0.222569
 30
0.0
 10
8.235347
 20
0.222569
 30
0.0
  0
LINE
  5
103
100
AcDbEntity
  8
logo_spoje
 62
7
100
AcDbLine
 10
8.235347
 20
0.222569
 30
0.0
 11
285.663584
 21
0.222569
 31
0.0
  0
SPLINE
  5
104
100
AcDbEntity
  8
logo_spoje
 62
7
100
AcDbSpline
 70
8
 71
3
 72
8
 73
4
 74
0
 40
0
 40
0
 40
0
 40
0
 40
1
 40
1
 40
1
 40
1
 10
285.663584
 20
0.222569
 30
0.0
 10
290.072754
 20
0.222569
 30
0.0
 10
293.677734
 20
3.830469
 30
0.0
 10
293.677734
 20
8.238189
 30
0.0
  0
LINE
  5
105
100
AcDbEntity
  8
logo_spoje
 62
7
100
AcDbLine
 10
293.677734
 20
8.238189
 30
0.0
 11
293.677734
 21
43.177649
 31
0.0
  0
SPLINE
  5
106
100
AcDbEntity
  8
logo_spoje
 62
7
100
AcDbSpline
 70
8
 71
3
 72
8
 73
4
 74
0
 40
0
 40
0
 40
0
 40
0
 40
1
 40
1
 40
1
 40
1
 10
293.677734
 20
43.177649
 30
0.0
 10
293.677734
 20
47.586139
 30
0.0
 10
290.071664
 20
51.190339
 30
0.0
 10
285.663584
 20
51.190339
 30
0.0
  0
LINE
  5
107
100
AcDbEntity
  8
logo_spoje
 62
7
100
AcDbLine
 10
285.663584
 20
51.190339
 30
0.0
 11
8.235347
 21
51.190339
 31
0.0
  0
LINE
  5
108
100
AcDbEntity
  8
logo_spoje
 62
7
100
AcDbLine
 10
8.235347
 20
48.190339
 30
0.0
 11
285.663584
 21
48.190339
 31
0.0
  0
SPLINE
  5
109
100
AcDbEntity
  8
logo_spoje
 62
7
100
AcDbSpline
 70
8
 71
3
 72
8
 73
4
 74
0
 40
0
 40
0
 40
0
 40
0
 40
1
 40
1
 40
1
 40
1
 10
285.663584
 20
48.190339
 30
0.0
 10
288.451484
 20
48.190339
 30
0.0
 10
290.677734
 20
45.965159
 30
0.0
 10
290.677734
 20
43.177649
 30
0.0
  0
LINE
  5
10a
100
AcDbEntity
  8
logo_spoje
 62
7
100
AcDbLine
 10
290.677734
 20
43.177649
 30
0.0
 11
290.677734
 21
8.238189
 31
0.0
  0
SPLINE
  5
10b
100
AcDbEntity
  8
logo_spoje
 62
7
100
AcDbSpline
 70
8
 71
3
 72
8
 73
4
 74
0
 40
0
 40
0
 40
0
 40
0
 40
1
 40
1
 40
1
 40
1
 10
290.677734
 20
8.238189
 30
0.0
 10
290.677734
 20
5.451909
 30
0.0
 10
288.450394
 20
3.222569
 30
0.0
 10
285.663584
 20
3.222569
 30
0.0
  0
LINE
  5
10c
100
AcDbEntity
  8
logo_spoje
 62
7
100
AcDbLine
 10
285.663584
 20
3.222569
 30
0.0
 11
8.235347
 21
3.222569
 31
0.0
  0
SPLINE
  5
10d
100
AcDbEntity
  8
logo_spoje
 62
7
100
AcDbSpline
 70
8
 71
3
 72
8
 73
4
 74
0
 40
0
 40
0
 40
0
 40
0
 40
1
 40
1
 40
1
 40
1
 10
8.235347
 20
3.222569
 30
0.0
 10
5.448527
 20
3.222569
 30
0.0
 10
3.222657
 20
5.451509
 30
0.0
 10
3.222657
 20
8.238189
 30
0.0
  0
LINE
  5
10e
100
AcDbEntity
  8
logo_spoje
 62
7
100
AcDbLine
 10
3.222657
 20
8.238189
 30
0.0
 11
3.222657
 21
43.177649
 31
0.0
  0
SPLINE
  5
10f
100
AcDbEntity
  8
logo_spoje
 62
7
100
AcDbSpline
 70
8
 71
3
 72
8
 73
4
 74
0
 40
0
 40
0
 40
0
 40
0
 40
1
 40
1
 40
1
 40
1
 10
3.222657
 20
43.177649
 30
0.0
 10
3.222657
 20
45.965569
 30
0.0
 10
5.447427
 20
48.190339
 30
0.0
 10
8.235347
 20
48.190339
 30
0.0
  0
LINE
  5
110
100
AcDbEntity
  8
logo_spoje
 62
7
100
AcDbLine
 10
8.235347
 20
48.190339
 30
0.0
 11
8.235347
 21
48.190339
 31
0.0
  0
LINE
  5
111
100
AcDbEntity
  8
logo_spoje
 62
6
100
AcDbLine
 10
214.313963
 20
39.947667
 30
0.0
 11
230.269043
 21
24.928623
 31
0.0
  0
LINE
  5
112
100
AcDbEntity
  8
logo_spoje
 62
6
100
AcDbLine
 10
230.269043
 20
24.928623
 30
0.0
 11
214.313963
 21
9.909580
 31
0.0
  0
LINE
  5
113
100
AcDbEntity
  8
logo_spoje
 62
6
100
AcDbLine
 10
214.313963
 20
9.909580
 30
0.0
 11
210.202148
 21
14.280674
 31
0.0
  0
LINE
  5
114
100
AcDbEntity
  8
logo_spoje
 62
6
100
AcDbLine
 10
210.202148
 20
14.280674
 30
0.0
 11
221.515141
 21
24.928623
 31
0.0
  0
LINE
  5
115
100
AcDbEntity
  8
logo_spoje
 62
6
100
AcDbLine
 10
221.515141
 20
24.928623
 30
0.0
 11
210.202148
 21
35.578038
 31
0.0
  0
LINE
  5
116
100
AcDbEntity
  8
logo_spoje
 62
6
100
AcDbLine
 10
210.202148
 20
35.578038
 30
0.0
 11
214.313963
 21
39.947667
 31
0.0
  0
LINE
  5
117
100
AcDbEntity
  8
logo_spoje
 62
6
100
AcDbLine
 10
238.120606
 20
39.946202
 30
0.0
 11
254.071291
 21
24.928623
 31
0.0
  0
LINE
  5
118
100
AcDbEntity
  8
logo_spoje
 62
6
100
AcDbLine
 10
254.071291
 20
24.928623
 30
0.0
 11
238.120606
 21
9.909580
 31
0.0
  0
LINE
  5
119
100
AcDbEntity
  8
logo_spoje
 62
6
100
AcDbLine
 10
238.120606
 20
9.909580
 30
0.0
 11
234.007329
 21
14.280674
 31
0.0
  0
LINE
  5
11a
100
AcDbEntity
  8
logo_spoje
 62
6
100
AcDbLine
 10
234.007329
 20
14.280674
 30
0.0
 11
245.320314
 21
24.928623
 31
0.0
  0
LINE
  5
11b
100
AcDbEntity
  8
logo_spoje
 62
6
100
AcDbLine
 10
245.320314
 20
24.928623
 30
0.0
 11
234.007329
 21
35.578038
 31
0.0
  0
LINE
  5
11c
100
AcDbEntity
  8
logo_spoje
 62
6
100
AcDbLine
 10
234.007329
 20
35.578038
 30
0.0
 11
234.010329
 21
35.578038
 31
0.0
  0
LINE
  5
11d
100
AcDbEntity
  8
logo_spoje
 62
6
100
AcDbLine
 10
234.010329
 20
35.578038
 30
0.0
 11
238.120606
 21
39.946202
 31
0.0
  0
LINE
  5
11e
100
AcDbEntity
  8
logo_spoje
 62
6
100
AcDbLine
 10
261.927249
 20
39.946202
 30
0.0
 11
277.880859
 21
24.928623
 31
0.0
  0
LINE
  5
11f
100
AcDbEntity
  8
logo_spoje
 62
6
100
AcDbLine
 10
277.880859
 20
24.928623
 30
0.0
 11
261.928711
 21
9.912510
 31
0.0
  0
LINE
  5
120
100
AcDbEntity
  8
logo_spoje
 62
6
100
AcDbLine
 10
261.928711
 20
9.912510
 30
0.0
 11
257.816896
 21
14.279209
 31
0.0
  0
LINE
  5
121
100
AcDbEntity
  8
logo_spoje
 62
6
100
AcDbLine
 10
257.816896
 20
14.279209
 30
0.0
 11
269.126957
 21
24.928623
 31
0.0
  0
LINE
  5
122
100
AcDbEntity
  8
logo_spoje
 62
6
100
AcDbLine
 10
269.126957
 20
24.928623
 30
0.0
 11
257.816896
 21
35.578038
 31
0.0
  0
LINE
  5
123
100
AcDbEntity
  8
logo_spoje
 62
6
100
AcDbLine
 10
257.816896
 20
35.578038
 30
0.0
 11
261.927249
 21
39.946202
 31
0.0
  0
SPLINE
  5
124
100
AcDbEntity
  8
logo_spoje
 62
6
100
AcDbSpline
 70
8
 71
3
 72
8
 73
4
 74
0
 40
0
 40
0
 40
0
 40
0
 40
1
 40
1
 40
1
 40
1
 10
25.568845
 20
39.076084
 30
0.0
 10
29.118845
 20
39.076084
 30
0.0
 10
31.692341
 20
38.206760
 30
0.0
 10
33.902342
 20
36.068760
 30
0.0
  0
LINE
  5
125
100
AcDbEntity
  8
logo_spoje
 62
6
100
AcDbLine
 10
33.902342
 20
36.068760
 30
0.0
 11
30.713377
 21
32.917881
 31
0.0
  0
SPLINE
  5
126
100
AcDbEntity
  8
logo_spoje
 62
6
100
AcDbSpline
 70
8
 71
3
 72
8
 73
4
 74
0
 40
0
 40
0
 40
0
 40
0
 40
1
 40
1
 40
1
 40
1
 10
30.713377
 20
32.917881
 30
0.0
 10
29.083377
 20
34.474881
 30
0.0
 10
27.125826
 20
34.693272
 30
0.0
 10
25.423826
 20
34.693272
 30
0.0
  0
SPLINE
  5
127
100
AcDbEntity
  8
logo_spoje
 62
6
100
AcDbSpline
 70
8
 71
3
 72
8
 73
4
 74
0
 40
0
 40
0
 40
0
 40
0
 40
1
 40
1
 40
1
 40
1
 10
25.423826
 20
34.693272
 30
0.0
 10
22.741816
 20
34.693272
 30
0.0
 10
21.437986
 20
33.206064
 30
0.0
 10
21.437986
 20
31.431065
 30
0.0
  0
SPLINE
  5
128
100
AcDbEntity
  8
logo_spoje
 62
6
100
AcDbSpline
 70
8
 71
3
 72
8
 73
4
 74
0
 40
0
 40
0
 40
0
 40
0
 40
1
 40
1
 40
1
 40
1
 10
21.437986
 20
31.431065
 30
0.0
 10
21.437986
 20
30.779065
 30
0.0
 10
21.655240
 20
30.090897
 30
0.0
 10
22.198240
 20
29.583897
 30
0.0
  0
SPLINE
  5
129
100
AcDbEntity
  8
logo_spoje
 62
6
100
AcDbSpline
 70
8
 71
3
 72
8
 73
4
 74
0
 40
0
 40
0
 40
0
 40
0
 40
1
 40
1
 40
1
 40
1
 10
22.198240
 20
29.583897
 30
0.0
 10
22.705240
 20
29.112897
 30
0.0
 10
23.539330
 20
28.714225
 30
0.0
 10
24.590329
 20
28.570225
 30
0.0
  0
LINE
  5
12a
100
AcDbEntity
  8
logo_spoje
 62
6
100
AcDbLine
 10
24.590329
 20
28.570225
 30
0.0
 11
27.634275
 21
28.135167
 31
0.0
  0
SPLINE
  5
12b
100
AcDbEntity
  8
logo_spoje
 62
6
100
AcDbSpline
 70
8
 71
3
 72
8
 73
4
 74
0
 40
0
 40
0
 40
0
 40
0
 40
1
 40
1
 40
1
 40
1
 10
27.634275
 20
28.135167
 30
0.0
 10
29.989275
 20
27.809166
 30
0.0
 10
31.473544
 20
27.156514
 30
0.0
 10
32.560544
 20
26.141514
 30
0.0
  0
SPLINE
  5
12c
100
AcDbEntity
  8
logo_spoje
 62
6
100
AcDbSpline
 70
8
 71
3
 72
8
 73
4
 74
0
 40
0
 40
0
 40
0
 40
0
 40
1
 40
1
 40
1
 40
1
 10
32.560544
 20
26.141514
 30
0.0
 10
33.937554
 20
24.837504
 30
0.0
 10
34.554197
 20
22.953323
 30
0.0
 10
34.554197
 20
20.670323
 30
0.0
  0
SPLINE
  5
12d
100
AcDbEntity
  8
logo_spoje
 62
6
100
AcDbSpline
 70
8
 71
3
 72
8
 73
4
 74
0
 40
0
 40
0
 40
0
 40
0
 40
1
 40
1
 40
1
 40
1
 10
34.554197
 20
20.670323
 30
0.0
 10
34.554197
 20
15.670322
 30
0.0
 10
30.386767
 20
12.845127
 30
0.0
 10
24.988767
 20
12.845127
 30
0.0
  0
SPLINE
  5
12e
100
AcDbEntity
  8
logo_spoje
 62
6
100
AcDbSpline
 70
8
 71
3
 72
8
 73
4
 74
0
 40
0
 40
0
 40
0
 40
0
 40
1
 40
1
 40
1
 40
1
 10
24.988767
 20
12.845127
 30
0.0
 10
21.075767
 20
12.845127
 30
0.0
 10
18.104367
 20
13.677879
 30
0.0
 10
15.568356
 20
16.250889
 30
0.0
  0
LINE
  5
12f
100
AcDbEntity
  8
logo_spoje
 62
6
100
AcDbLine
 10
15.568356
 20
16.250889
 30
0.0
 11
18.829099
 21
19.511631
 31
0.0
  0
SPLINE
  5
130
100
AcDbEntity
  8
logo_spoje
 62
6
100
AcDbSpline
 70
8
 71
3
 72
8
 73
4
 74
0
 40
0
 40
0
 40
0
 40
0
 40
1
 40
1
 40
1
 40
1
 10
18.829099
 20
19.511631
 30
0.0
 10
20.460099
 20
17.880631
 30
0.0
 10
22.669545
 20
17.337803
 30
0.0
 10
25.060544
 20
17.337803
 30
0.0
  0
SPLINE
  5
131
100
AcDbEntity
  8
logo_spoje
 62
6
100
AcDbSpline
 70
8
 71
3
 72
8
 73
4
 74
0
 40
0
 40
0
 40
0
 40
0
 40
1
 40
1
 40
1
 40
1
 10
25.060544
 20
17.337803
 30
0.0
 10
28.031554
 20
17.337803
 30
0.0
 10
29.626462
 20
18.460303
 30
0.0
 10
29.626462
 20
20.525303
 30
0.0
  0
SPLINE
  5
132
100
AcDbEntity
  8
logo_spoje
 62
6
100
AcDbSpline
 70
8
 71
3
 72
8
 73
4
 74
0
 40
0
 40
0
 40
0
 40
0
 40
1
 40
1
 40
1
 40
1
 10
29.626462
 20
20.525303
 30
0.0
 10
29.626462
 20
21.431303
 30
0.0
 10
29.373587
 20
22.192131
 30
0.0
 10
28.829587
 20
22.699131
 30
0.0
  0
SPLINE
  5
133
100
AcDbEntity
  8
logo_spoje
 62
6
100
AcDbSpline
 70
8
 71
3
 72
8
 73
4
 74
0
 40
0
 40
0
 40
0
 40
0
 40
1
 40
1
 40
1
 40
1
 10
28.829587
 20
22.699131
 30
0.0
 10
28.322587
 20
23.170131
 30
0.0
 10
27.742361
 20
23.424869
 30
0.0
 10
26.547361
 20
23.605869
 30
0.0
  0
LINE
  5
134
100
AcDbEntity
  8
logo_spoje
 62
6
100
AcDbLine
 10
26.547361
 20
23.605869
 30
0.0
 11
23.430173
 21
24.040928
 31
0.0
  0
SPLINE
  5
135
100
AcDbEntity
  8
logo_spoje
 62
6
100
AcDbSpline
 70
8
 71
3
 72
8
 73
4
 74
0
 40
0
 40
0
 40
0
 40
0
 40
1
 40
1
 40
1
 40
1
 10
23.430173
 20
24.040928
 30
0.0
 10
21.220174
 20
24.366928
 30
0.0
 10
19.589662
 20
25.055135
 30
0.0
 10
18.430662
 20
26.178135
 30
0.0
  0
SPLINE
  5
136
100
AcDbEntity
  8
logo_spoje
 62
6
100
AcDbSpline
 70
8
 71
3
 72
8
 73
4
 74
0
 40
0
 40
0
 40
0
 40
0
 40
1
 40
1
 40
1
 40
1
 10
18.430662
 20
26.178135
 30
0.0
 10
17.198661
 20
27.410135
 30
0.0
 10
16.583493
 20
29.076879
 30
0.0
 10
16.583493
 20
31.250889
 30
0.0
  0
SPLINE
  5
137
100
AcDbEntity
  8
logo_spoje
 62
6
100
AcDbSpline
 70
8
 71
3
 72
8
 73
4
 74
0
 40
0
 40
0
 40
0
 40
0
 40
1
 40
1
 40
1
 40
1
 10
16.583493
 20
31.250889
 30
0.0
 10
16.583493
 20
35.851889
 30
0.0
 10
19.988845
 20
39.076084
 30
0.0
 10
25.568845
 20
39.076084
 30
0.0
  0
LINE
  5
138
100
AcDbEntity
  8
logo_spoje
 62
6
100
AcDbLine
 10
25.568845
 20
39.076084
 30
0.0
 11
25.568845
 21
39.076084
 31
0.0
  0
SPLINE
  5
139
100
AcDbEntity
  8
logo_spoje
 62
6
100
AcDbSpline
 70
8
 71
3
 72
8
 73
4
 74
0
 40
0
 40
0
 40
0
 40
0
 40
1
 40
1
 40
1
 40
1
 10
70.712401
 20
39.076084
 30
0.0
 10
73.647400
 20
39.076084
 30
0.0
 10
75.856941
 20
38.061401
 30
0.0
 10
77.668941
 20
36.250401
 30
0.0
  0
SPLINE
  5
13a
100
AcDbEntity
  8
logo_spoje
 62
6
100
AcDbSpline
 70
8
 71
3
 72
8
 73
4
 74
0
 40
0
 40
0
 40
0
 40
0
 40
1
 40
1
 40
1
 40
1
 10
77.668941
 20
36.250401
 30
0.0
 10
80.276946
 20
33.641401
 30
0.0
 10
80.241209
 20
30.418338
 30
0.0
 10
80.241209
 20
25.961338
 30
0.0
  0
SPLINE
  5
13b
100
AcDbEntity
  8
logo_spoje
 62
6
100
AcDbSpline
 70
8
 71
3
 72
8
 73
4
 74
0
 40
0
 40
0
 40
0
 40
0
 40
1
 40
1
 40
1
 40
1
 10
80.241209
 20
25.961338
 30
0.0
 10
80.241209
 20
21.504338
 30
0.0
 10
80.276909
 20
18.279811
 30
0.0
 10
77.668941
 20
15.670811
 30
0.0
  0
SPLINE
  5
13c
100
AcDbEntity
  8
logo_spoje
 62
6
100
AcDbSpline
 70
8
 71
3
 72
8
 73
4
 74
0
 40
0
 40
0
 40
0
 40
0
 40
1
 40
1
 40
1
 40
1
 10
77.668941
 20
15.670811
 30
0.0
 10
75.856941
 20
13.858811
 30
0.0
 10
73.647400
 20
12.845127
 30
0.0
 10
70.712401
 20
12.845127
 30
0.0
  0
SPLINE
  5
13d
100
AcDbEntity
  8
logo_spoje
 62
6
100
AcDbSpline
 70
8
 71
3
 72
8
 73
4
 74
0
 40
0
 40
0
 40
0
 40
0
 40
1
 40
1
 40
1
 40
1
 10
70.712401
 20
12.845127
 30
0.0
 10
67.778401
 20
12.845127
 30
0.0
 10
65.530237
 20
13.858811
 30
0.0
 10
63.719236
 20
15.670811
 30
0.0
  0
SPLINE
  5
13e
100
AcDbEntity
  8
logo_spoje
 62
6
100
AcDbSpline
 70
8
 71
3
 72
8
 73
4
 74
0
 40
0
 40
0
 40
0
 40
0
 40
1
 40
1
 40
1
 40
1
 10
63.719236
 20
15.670811
 30
0.0
 10
61.110237
 20
18.279811
 30
0.0
 10
61.183592
 20
21.504338
 30
0.0
 10
61.183592
 20
25.961338
 30
0.0
  0
SPLINE
  5
13f
100
AcDbEntity
  8
logo_spoje
 62
6
100
AcDbSpline
 70
8
 71
3
 72
8
 73
4
 74
0
 40
0
 40
0
 40
0
 40
0
 40
1
 40
1
 40
1
 40
1
 10
61.183592
 20
25.961338
 30
0.0
 10
61.183592
 20
30.418338
 30
0.0
 10
61.110234
 20
33.641401
 30
0.0
 10
63.719236
 20
36.250401
 30
0.0
  0
SPLINE
  5
140
100
AcDbEntity
  8
logo_spoje
 62
6
100
AcDbSpline
 70
8
 71
3
 72
8
 73
4
 74
0
 40
0
 40
0
 40
0
 40
0
 40
1
 40
1
 40
1
 40
1
 10
63.719236
 20
36.250401
 30
0.0
 10
65.530237
 20
38.061401
 30
0.0
 10
67.778401
 20
39.076084
 30
0.0
 10
70.712401
 20
39.076084
 30
0.0
  0
LINE
  5
141
100
AcDbEntity
  8
logo_spoje
 62
6
100
AcDbLine
 10
70.712401
 20
39.076084
 30
0.0
 11
70.712401
 21
39.076084
 31
0.0
  0
LINE
  5
142
100
AcDbEntity
  8
logo_spoje
 62
6
100
AcDbLine
 10
39.300291
 20
38.859288
 30
0.0
 11
49.300779
 21
38.859288
 31
0.0
  0
SPLINE
  5
143
100
AcDbEntity
  8
logo_spoje
 62
6
100
AcDbSpline
 70
8
 71
3
 72
8
 73
4
 74
0
 40
0
 40
0
 40
0
 40
0
 40
1
 40
1
 40
1
 40
1
 10
49.300779
 20
38.859288
 30
0.0
 10
54.626779
 20
38.859288
 30
0.0
 10
57.814452
 20
35.199831
 30
0.0
 10
57.814452
 20
30.815830
 30
0.0
  0
SPLINE
  5
144
100
AcDbEntity
  8
logo_spoje
 62
6
100
AcDbSpline
 70
8
 71
3
 72
8
 73
4
 74
0
 40
0
 40
0
 40
0
 40
0
 40
1
 40
1
 40
1
 40
1
 10
57.814452
 20
30.815830
 30
0.0
 10
57.814452
 20
26.431830
 30
0.0
 10
54.626779
 20
22.772373
 30
0.0
 10
49.300779
 20
22.772373
 30
0.0
  0
LINE
  5
145
100
AcDbEntity
  8
logo_spoje
 62
6
100
AcDbLine
 10
49.300779
 20
22.772373
 30
0.0
 11
44.336423
 21
22.772373
 31
0.0
  0
LINE
  5
146
100
AcDbEntity
  8
logo_spoje
 62
6
100
AcDbLine
 10
44.336423
 20
22.772373
 30
0.0
 11
44.336423
 21
13.063389
 31
0.0
  0
LINE
  5
147
100
AcDbEntity
  8
logo_spoje
 62
6
100
AcDbLine
 10
44.336423
 20
13.063389
 30
0.0
 11
39.300291
 21
13.063389
 31
0.0
  0
LINE
  5
148
100
AcDbEntity
  8
logo_spoje
 62
6
100
AcDbLine
 10
39.300291
 20
13.063389
 30
0.0
 11
39.300291
 21
38.859288
 31
0.0
  0
LINE
  5
149
100
AcDbEntity
  8
logo_spoje
 62
6
100
AcDbLine
 10
91.981934
 20
38.859288
 30
0.0
 11
97.016601
 21
38.859288
 31
0.0
  0
LINE
  5
14a
100
AcDbEntity
  8
logo_spoje
 62
6
100
AcDbLine
 10
97.016601
 20
38.859288
 30
0.0
 11
97.016601
 21
21.540440
 31
0.0
  0
SPLINE
  5
14b
100
AcDbEntity
  8
logo_spoje
 62
6
100
AcDbSpline
 70
8
 71
3
 72
8
 73
4
 74
0
 40
0
 40
0
 40
0
 40
0
 40
1
 40
1
 40
1
 40
1
 10
97.016601
 20
21.540440
 30
0.0
 10
97.016601
 20
15.852440
 30
0.0
 10
92.704851
 20
12.845127
 30
0.0
 10
87.922851
 20
12.845127
 30
0.0
  0
SPLINE
  5
14c
100
AcDbEntity
  8
logo_spoje
 62
6
100
AcDbSpline
 70
8
 71
3
 72
8
 73
4
 74
0
 40
0
 40
0
 40
0
 40
0
 40
1
 40
1
 40
1
 40
1
 10
87.922851
 20
12.845127
 30
0.0
 10
85.132851
 20
12.845127
 30
0.0
 10
83.212994
 20
13.569635
 30
0.0
 10
81.292964
 20
15.490635
 30
0.0
  0
LINE
  5
14d
100
AcDbEntity
  8
logo_spoje
 62
6
100
AcDbLine
 10
81.292964
 20
15.490635
 30
0.0
 11
84.626954
 21
18.787998
 31
0.0
  0
SPLINE
  5
14e
100
AcDbEntity
  8
logo_spoje
 62
6
100
AcDbSpline
 70
8
 71
3
 72
8
 73
4
 74
0
 40
0
 40
0
 40
0
 40
0
 40
1
 40
1
 40
1
 40
1
 10
84.626954
 20
18.787998
 30
0.0
 10
85.459949
 20
17.953998
 30
0.0
 10
86.255849
 20
17.337803
 30
0.0
 10
87.922851
 20
17.337803
 30
0.0
  0
SPLINE
  5
14f
100
AcDbEntity
  8
logo_spoje
 62
6
100
AcDbSpline
 70
8
 71
3
 72
8
 73
4
 74
0
 40
0
 40
0
 40
0
 40
0
 40
1
 40
1
 40
1
 40
1
 10
87.922851
 20
17.337803
 30
0.0
 10
90.386849
 20
17.337803
 30
0.0
 10
91.981934
 20
18.787698
 30
0.0
 10
91.981934
 20
21.758702
 30
0.0
  0
LINE
  5
150
100
AcDbEntity
  8
logo_spoje
 62
6
100
AcDbLine
 10
91.981934
 20
21.758702
 30
0.0
 11
91.981934
 21
38.859288
 31
0.0
  0
LINE
  5
151
100
AcDbEntity
  8
logo_spoje
 62
6
100
AcDbLine
 10
102.704586
 20
38.859288
 30
0.0
 11
119.698244
 21
38.859288
 31
0.0
  0
LINE
  5
152
100
AcDbEntity
  8
logo_spoje
 62
6
100
AcDbLine
 10
119.698244
 20
38.859288
 30
0.0
 11
119.698244
 21
34.366611
 31
0.0
  0
LINE
  5
153
100
AcDbEntity
  8
logo_spoje
 62
6
100
AcDbLine
 10
119.698244
 20
34.366611
 30
0.0
 11
107.740724
 21
34.366611
 31
0.0
  0
LINE
  5
154
100
AcDbEntity
  8
logo_spoje
 62
6
100
AcDbLine
 10
107.740724
 20
34.366611
 30
0.0
 11
107.740724
 21
28.315342
 31
0.0
  0
LINE
  5
155
100
AcDbEntity
  8
logo_spoje
 62
6
100
AcDbLine
 10
107.740724
 20
28.315342
 30
0.0
 11
117.922852
 21
28.315342
 31
0.0
  0
LINE
  5
156
100
AcDbEntity
  8
logo_spoje
 62
6
100
AcDbLine
 10
117.922852
 20
28.315342
 30
0.0
 11
117.922852
 21
23.822666
 31
0.0
  0
LINE
  5
157
100
AcDbEntity
  8
logo_spoje
 62
6
100
AcDbLine
 10
117.922852
 20
23.822666
 30
0.0
 11
107.740724
 21
23.822666
 31
0.0
  0
LINE
  5
158
100
AcDbEntity
  8
logo_spoje
 62
6
100
AcDbLine
 10
107.740724
 20
23.822666
 30
0.0
 11
107.740724
 21
17.554600
 31
0.0
  0
LINE
  5
159
100
AcDbEntity
  8
logo_spoje
 62
6
100
AcDbLine
 10
107.740724
 20
17.554600
 30
0.0
 11
119.698244
 21
17.554600
 31
0.0
  0
LINE
  5
15a
100
AcDbEntity
  8
logo_spoje
 62
6
100
AcDbLine
 10
119.698244
 20
17.554600
 30
0.0
 11
119.698244
 21
13.061924
 31
0.0
  0
LINE
  5
15b
100
AcDbEntity
  8
logo_spoje
 62
6
100
AcDbLine
 10
119.698244
 20
13.061924
 30
0.0
 11
102.704586
 21
13.061924
 31
0.0
  0
LINE
  5
15c
100
AcDbEntity
  8
logo_spoje
 62
6
100
AcDbLine
 10
102.704586
 20
13.061924
 30
0.0
 11
102.704586
 21
38.859288
 31
0.0
  0
LINE
  5
15d
100
AcDbEntity
  8
logo_spoje
 62
6
100
AcDbLine
 10
134.951662
 20
38.859288
 30
0.0
 11
139.444334
 21
38.859288
 31
0.0
  0
LINE
  5
15e
100
AcDbEntity
  8
logo_spoje
 62
6
100
AcDbLine
 10
139.444334
 20
38.859288
 30
0.0
 11
149.661622
 21
23.062412
 31
0.0
  0
LINE
  5
15f
100
AcDbEntity
  8
logo_spoje
 62
6
100
AcDbLine
 10
149.661622
 20
23.062412
 30
0.0
 11
149.661622
 21
38.859288
 31
0.0
  0
LINE
  5
160
100
AcDbEntity
  8
logo_spoje
 62
6
100
AcDbLine
 10
149.661622
 20
38.859288
 30
0.0
 11
154.696290
 21
38.859288
 31
0.0
  0
LINE
  5
161
100
AcDbEntity
  8
logo_spoje
 62
6
100
AcDbLine
 10
154.696290
 20
38.859288
 30
0.0
 11
154.696290
 21
13.061924
 31
0.0
  0
LINE
  5
162
100
AcDbEntity
  8
logo_spoje
 62
6
100
AcDbLine
 10
154.696290
 20
13.061924
 30
0.0
 11
150.203610
 21
13.061924
 31
0.0
  0
LINE
  5
163
100
AcDbEntity
  8
logo_spoje
 62
6
100
AcDbLine
 10
150.203610
 20
13.061924
 30
0.0
 11
139.986329
 21
28.895420
 31
0.0
  0
LINE
  5
164
100
AcDbEntity
  8
logo_spoje
 62
6
100
AcDbLine
 10
139.986329
 20
28.895420
 30
0.0
 11
139.986329
 21
13.061924
 31
0.0
  0
LINE
  5
165
100
AcDbEntity
  8
logo_spoje
 62
6
100
AcDbLine
 10
139.986329
 20
13.061924
 30
0.0
 11
134.951662
 21
13.061924
 31
0.0
  0
LINE
  5
166
100
AcDbEntity
  8
logo_spoje
 62
6
100
AcDbLine
 10
134.951662
 20
13.061924
 30
0.0
 11
134.951662
 21
38.859288
 31
0.0
  0
LINE
  5
167
100
AcDbEntity
  8
logo_spoje
 62
6
100
AcDbLine
 10
160.710937
 20
38.859288
 30
0.0
 11
177.704588
 21
38.859288
 31
0.0
  0
LINE
  5
168
100
AcDbEntity
  8
logo_spoje
 62
6
100
AcDbLine
 10
177.704588
 20
38.859288
 30
0.0
 11
177.704588
 21
34.366611
 31
0.0
  0
LINE
  5
169
100
AcDbEntity
  8
logo_spoje
 62
6
100
AcDbLine
 10
177.704588
 20
34.366611
 30
0.0
 11
165.747067
 21
34.366611
 31
0.0
  0
LINE
  5
16a
100
AcDbEntity
  8
logo_spoje
 62
6
100
AcDbLine
 10
165.747067
 20
34.366611
 30
0.0
 11
165.747067
 21
28.315342
 31
0.0
  0
LINE
  5
16b
100
AcDbEntity
  8
logo_spoje
 62
6
100
AcDbLine
 10
165.747067
 20
28.315342
 30
0.0
 11
175.929203
 21
28.315342
 31
0.0
  0
LINE
  5
16c
100
AcDbEntity
  8
logo_spoje
 62
6
100
AcDbLine
 10
175.929203
 20
28.315342
 30
0.0
 11
175.929203
 21
23.822666
 31
0.0
  0
LINE
  5
16d
100
AcDbEntity
  8
logo_spoje
 62
6
100
AcDbLine
 10
175.929203
 20
23.822666
 30
0.0
 11
165.747067
 21
23.822666
 31
0.0
  0
LINE
  5
16e
100
AcDbEntity
  8
logo_spoje
 62
6
100
AcDbLine
 10
165.747067
 20
23.822666
 30
0.0
 11
165.747067
 21
17.554600
 31
0.0
  0
LINE
  5
16f
100
AcDbEntity
  8
logo_spoje
 62
6
100
AcDbLine
 10
165.747067
 20
17.554600
 30
0.0
 11
177.704588
 21
17.554600
 31
0.0
  0
LINE
  5
170
100
AcDbEntity
  8
logo_spoje
 62
6
100
AcDbLine
 10
177.704588
 20
17.554600
 30
0.0
 11
177.704588
 21
13.061924
 31
0.0
  0
LINE
  5
171
100
AcDbEntity
  8
logo_spoje
 62
6
100
AcDbLine
 10
177.704588
 20
13.061924
 30
0.0
 11
160.710937
 21
13.061924
 31
0.0
  0
LINE
  5
172
100
AcDbEntity
  8
logo_spoje
 62
6
100
AcDbLine
 10
160.710937
 20
13.061924
 30
0.0
 11
160.710937
 21
38.859288
 31
0.0
  0
LINE
  5
173
100
AcDbEntity
  8
logo_spoje
 62
6
100
AcDbLine
 10
180.711915
 20
38.859288
 30
0.0
 11
199.224608
 21
38.859288
 31
0.0
  0
LINE
  5
174
100
AcDbEntity
  8
logo_spoje
 62
6
100
AcDbLine
 10
199.224608
 20
38.859288
 30
0.0
 11
199.224608
 21
34.366611
 31
0.0
  0
LINE
  5
175
100
AcDbEntity
  8
logo_spoje
 62
6
100
AcDbLine
 10
199.224608
 20
34.366611
 30
0.0
 11
192.486330
 21
34.366611
 31
0.0
  0
LINE
  5
176
100
AcDbEntity
  8
logo_spoje
 62
6
100
AcDbLine
 10
192.486330
 20
34.366611
 30
0.0
 11
192.486330
 21
13.061924
 31
0.0
  0
LINE
  5
177
100
AcDbEntity
  8
logo_spoje
 62
6
100
AcDbLine
 10
192.486330
 20
13.061924
 30
0.0
 11
187.450193
 21
13.061924
 31
0.0
  0
LINE
  5
178
100
AcDbEntity
  8
logo_spoje
 62
6
100
AcDbLine
 10
187.450193
 20
13.061924
 30
0.0
 11
187.450193
 21
34.366611
 31
0.0
  0
LINE
  5
179
100
AcDbEntity
  8
logo_spoje
 62
6
100
AcDbLine
 10
187.450193
 20
34.366611
 30
0.0
 11
180.711915
 21
34.366611
 31
0.0
  0
LINE
  5
17a
100
AcDbEntity
  8
logo_spoje
 62
6
100
AcDbLine
 10
180.711915
 20
34.366611
 30
0.0
 11
180.711915
 21
38.859288
 31
0.0
  0
SPLINE
  5
17b
100
AcDbEntity
  8
logo_spoje
 62
6
100
AcDbSpline
 70
8
 71
3
 72
8
 73
4
 74
0
 40
0
 40
0
 40
0
 40
0
 40
1
 40
1
 40
1
 40
1
 10
70.712401
 20
34.583409
 30
0.0
 10
69.335401
 20
34.583409
 30
0.0
 10
68.175193
 20
34.040455
 30
0.0
 10
67.450194
 20
33.206455
 30
0.0
  0
SPLINE
  5
17c
100
AcDbEntity
  8
logo_spoje
 62
6
100
AcDbSpline
 70
8
 71
3
 72
8
 73
4
 74
0
 40
0
 40
0
 40
0
 40
0
 40
1
 40
1
 40
1
 40
1
 10
67.450194
 20
33.206455
 30
0.0
 10
66.472194
 20
32.119455
 30
0.0
 10
66.219725
 20
30.925338
 30
0.0
 10
66.219725
 20
25.961338
 30
0.0
  0
SPLINE
  5
17d
100
AcDbEntity
  8
logo_spoje
 62
6
100
AcDbSpline
 70
8
 71
3
 72
8
 73
4
 74
0
 40
0
 40
0
 40
0
 40
0
 40
1
 40
1
 40
1
 40
1
 10
66.219725
 20
25.961338
 30
0.0
 10
66.219725
 20
20.997338
 30
0.0
 10
66.472194
 20
19.801756
 30
0.0
 10
67.450194
 20
18.714756
 30
0.0
  0
SPLINE
  5
17e
100
AcDbEntity
  8
logo_spoje
 62
6
100
AcDbSpline
 70
8
 71
3
 72
8
 73
4
 74
0
 40
0
 40
0
 40
0
 40
0
 40
1
 40
1
 40
1
 40
1
 10
67.450194
 20
18.714756
 30
0.0
 10
68.175193
 20
17.880756
 30
0.0
 10
69.335401
 20
17.337803
 30
0.0
 10
70.712401
 20
17.337803
 30
0.0
  0
SPLINE
  5
17f
100
AcDbEntity
  8
logo_spoje
 62
6
100
AcDbSpline
 70
8
 71
3
 72
8
 73
4
 74
0
 40
0
 40
0
 40
0
 40
0
 40
1
 40
1
 40
1
 40
1
 10
70.712401
 20
17.337803
 30
0.0
 10
72.089401
 20
17.337803
 30
0.0
 10
73.211522
 20
17.880756
 30
0.0
 10
73.936522
 20
18.714756
 30
0.0
  0
SPLINE
  5
180
100
AcDbEntity
  8
logo_spoje
 62
6
100
AcDbSpline
 70
8
 71
3
 72
8
 73
4
 74
0
 40
0
 40
0
 40
0
 40
0
 40
1
 40
1
 40
1
 40
1
 10
73.936522
 20
18.714756
 30
0.0
 10
74.914522
 20
19.801756
 30
0.0
 10
75.205078
 20
20.997338
 30
0.0
 10
75.205078
 20
25.961338
 30
0.0
  0
SPLINE
  5
181
100
AcDbEntity
  8
logo_spoje
 62
6
100
AcDbSpline
 70
8
 71
3
 72
8
 73
4
 74
0
 40
0
 40
0
 40
0
 40
0
 40
1
 40
1
 40
1
 40
1
 10
75.205078
 20
25.961338
 30
0.0
 10
75.205078
 20
30.925338
 30
0.0
 10
74.914522
 20
32.119455
 30
0.0
 10
73.936522
 20
33.206455
 30
0.0
  0
SPLINE
  5
182
100
AcDbEntity
  8
logo_spoje
 62
6
100
AcDbSpline
 70
8
 71
3
 72
8
 73
4
 74
0
 40
0
 40
0
 40
0
 40
0
 40
1
 40
1
 40
1
 40
1
 10
73.936522
 20
33.206455
 30
0.0
 10
73.211522
 20
34.040455
 30
0.0
 10
72.089401
 20
34.583409
 30
0.0
 10
70.712401
 20
34.583409
 30
0.0
  0
LINE
  5
183
100
AcDbEntity
  8
logo_spoje
 62
6
100
AcDbLine
 10
70.712401
 20
34.583409
 30
0.0
 11
70.712401
 21
34.583409
 31
0.0
  0
LINE
  5
184
100
AcDbEntity
  8
logo_spoje
 62
6
100
AcDbLine
 10
44.336423
 20
34.366611
 30
0.0
 11
44.336423
 21
27.300205
 31
0.0
  0
LINE
  5
185
100
AcDbEntity
  8
logo_spoje
 62
6
100
AcDbLine
 10
44.336423
 20
27.300205
 30
0.0
 11
49.045896
 21
27.300205
 31
0.0
  0
SPLINE
  5
186
100
AcDbEntity
  8
logo_spoje
 62
6
100
AcDbSpline
 70
8
 71
3
 72
8
 73
4
 74
0
 40
0
 40
0
 40
0
 40
0
 40
1
 40
1
 40
1
 40
1
 10
49.045896
 20
27.300205
 30
0.0
 10
51.328896
 20
27.300205
 30
0.0
 10
52.778319
 20
28.713831
 30
0.0
 10
52.778319
 20
30.815830
 30
0.0
  0
SPLINE
  5
187
100
AcDbEntity
  8
logo_spoje
 62
6
100
AcDbSpline
 70
8
 71
3
 72
8
 73
4
 74
0
 40
0
 40
0
 40
0
 40
0
 40
1
 40
1
 40
1
 40
1
 10
52.778319
 20
30.815830
 30
0.0
 10
52.778319
 20
32.917830
 30
0.0
 10
51.328896
 20
34.366611
 30
0.0
 10
49.045896
 20
34.366611
 30
0.0
  0
LINE
  5
188
100
AcDbEntity
  8
logo_spoje
 62
6
100
AcDbLine
 10
49.045896
 20
34.366611
 30
0.0
 11
44.336423
 21
34.366611
 31
0.0
  0
LINE
  5
189
100
AcDbEntity
  8
logo_spoje
 62
6
100
AcDbLine
 10
124.082519
 20
18.424717
 30
0.0
 11
129.480464
 21
18.424717
 31
0.0
  0
LINE
  5
18a
100
AcDbEntity
  8
logo_spoje
 62
6
100
AcDbLine
 10
129.480464
 20
18.424717
 30
0.0
 11
129.480464
 21
13.061924
 31
0.0
  0
LINE
  5
18b
100
AcDbEntity
  8
logo_spoje
 62
6
100
AcDbLine
 10
129.480464
 20
13.061924
 30
0.0
 11
124.082519
 21
13.061924
 31
0.0
  0
LINE
  5
18c
100
AcDbEntity
  8
logo_spoje
 62
6
100
AcDbLine
 10
124.082519
 20
13.061924
 30
0.0
 11
124.082519
 21
18.424717
 31
0.0
  0
ENDSEC
  0
SECTION
  2
OBJECTS
  0
DICTIONARY
  5
C
330
0
100
AcDbDictionary
  3
ACAD_GROUP
350
D
  3
ACAD_MLINESTYLE
350
17
  0
DICTIONARY
  5
D
330
C
100
AcDbDictionary
  0
DICTIONARY
  5
1A
330
C
100
AcDbDictionary
  0
DICTIONARY
  5
17
330
C
100
AcDbDictionary
  3
STANDARD
350
18
  0
DICTIONARY
  5
19
330
C
100
AcDbDictionary
  0
ENDSEC
  0
EOF
