<?xml version="1.0" encoding="UTF-8" standalone="no"?>
<!-- Created with Inkscape (http://www.inkscape.org/) -->

<svg
   xmlns:dc="http://purl.org/dc/elements/1.1/"
   xmlns:cc="http://creativecommons.org/ns#"
   xmlns:rdf="http://www.w3.org/1999/02/22-rdf-syntax-ns#"
   xmlns:svg="http://www.w3.org/2000/svg"
   xmlns="http://www.w3.org/2000/svg"
   xmlns:sodipodi="http://sodipodi.sourceforge.net/DTD/sodipodi-0.dtd"
   xmlns:inkscape="http://www.inkscape.org/namespaces/inkscape"
   version="1.1"
   id="svg2"
   xml:space="preserve"
   width="391.86798"
   height="68.550667"
   viewBox="0 0 391.86798 68.550666"
   sodipodi:docname="logo_spoje.svg"
   inkscape:version="0.92.1 r"><metadata
     id="metadata8"><rdf:RDF><cc:Work
         rdf:about=""><dc:format>image/svg+xml</dc:format><dc:type
           rdf:resource="http://purl.org/dc/dcmitype/StillImage" /><dc:title></dc:title></cc:Work></rdf:RDF></metadata><defs
     id="defs6"><clipPath
       clipPathUnits="userSpaceOnUse"
       id="clipPath18"><path
         d="M 0,841.89 H 595.276 V 0 H 0 Z"
         id="path16"
         inkscape:connector-curvature="0" /></clipPath></defs><sodipodi:namedview
     pagecolor="#ffffff"
     bordercolor="#666666"
     borderopacity="1"
     objecttolerance="10"
     gridtolerance="10"
     guidetolerance="10"
     inkscape:pageopacity="0"
     inkscape:pageshadow="2"
     inkscape:window-width="1280"
     inkscape:window-height="751"
     id="namedview4"
     showgrid="false"
     inkscape:zoom="0.59465202"
     inkscape:cx="384.49699"
     inkscape:cy="-93.63713"
     inkscape:window-x="0"
     inkscape:window-y="27"
     inkscape:window-maximized="1"
     inkscape:current-layer="g14"
     fit-margin-top="0"
     fit-margin-left="0"
     fit-margin-right="0"
     fit-margin-bottom="0" /><g
     id="g10"
     inkscape:groupmode="layer"
     inkscape:label="logo_spoje"
     transform="matrix(1.3333333,0,0,-1.3333333,-149.36604,552.80662)"><g
       id="g12"
       transform="translate(-40.13247,-30.768227)"><g
         id="g14"
         clip-path="url(#clipPath18)"><g
           id="g24"
           transform="translate(444.335,402.1982)"><path
             d="m 0,0 c 0,-3.597 -2.917,-6.515 -6.515,-6.515 h -277.427 c -3.598,0 -6.513,2.918 -6.513,6.515 v 34.939 c 0,3.598 2.915,6.513 6.513,6.513 H -6.515 C -2.917,41.452 0,38.537 0,34.939 Z"
             style="fill:none;stroke:#1a171b;stroke-width:3.4460001;stroke-linecap:butt;stroke-linejoin:miter;stroke-miterlimit:4;stroke-dasharray:none;stroke-opacity:1"
             id="path26"
             inkscape:connector-curvature="0" /></g><g
           id="g32"
           transform="translate(186.7109,414.6309)"><path
             d="M 0,0 C 0,2.283 -0.616,4.167 -1.993,5.471 -3.08,6.486 -4.565,7.138 -6.92,7.464 l -3.044,0.435 c -1.051,0.144 -1.884,0.543 -2.391,1.014 -0.543,0.507 -0.761,1.196 -0.761,1.848 0,1.775 1.304,3.261 3.986,3.261 1.702,0 3.659,-0.218 5.289,-1.775 l 3.189,3.151 c -2.21,2.138 -4.783,3.008 -8.333,3.008 -5.58,0 -8.986,-3.225 -8.986,-7.826 0,-2.174 0.616,-3.841 1.848,-5.073 1.159,-1.123 2.79,-1.811 5,-2.137 l 3.116,-0.435 c 1.195,-0.181 1.775,-0.435 2.282,-0.906 0.544,-0.507 0.797,-1.268 0.797,-2.174 0,-2.065 -1.594,-3.188 -4.565,-3.188 -2.391,0 -4.601,0.543 -6.232,2.174 l -3.26,-3.261 c 2.536,-2.573 5.507,-3.406 9.42,-3.406 C -4.167,-7.826 0,-5 0,0 Z"
             style="fill:none;stroke:#1a171b;stroke-width:0.97399998;stroke-linecap:butt;stroke-linejoin:miter;stroke-miterlimit:4;stroke-dasharray:none;stroke-opacity:1"
             id="path34"
             inkscape:connector-curvature="0" /></g><g
           id="g36"
           transform="translate(209.9712,424.7759)"><path
             d="m 0,0 c 0,4.384 -3.188,8.043 -8.514,8.043 h -10 v -25.796 h 5.036 v 9.71 h 4.964 C -3.188,-8.043 0,-4.384 0,0 Z m -5.036,0 c 0,-2.102 -1.449,-3.515 -3.732,-3.515 h -4.71 v 7.066 h 4.71 c 2.283,0 3.732,-1.449 3.732,-3.551 z"
             style="fill:none;stroke:#1a171b;stroke-width:0.97399998;stroke-linecap:butt;stroke-linejoin:miter;stroke-miterlimit:4;stroke-dasharray:none;stroke-opacity:1"
             id="path38"
             inkscape:connector-curvature="0" /></g><g
           id="g40"
           transform="translate(232.3979,419.9209)"><path
             d="m 0,0 c 0,4.457 0.036,7.681 -2.572,10.29 -1.812,1.811 -4.022,2.826 -6.957,2.826 -2.934,0 -5.181,-1.015 -6.992,-2.826 C -19.13,7.681 -19.058,4.457 -19.058,0 c 0,-4.457 -0.072,-7.681 2.537,-10.29 1.811,-1.812 4.058,-2.826 6.992,-2.826 2.935,0 5.145,1.014 6.957,2.826 C 0.036,-7.681 0,-4.457 0,0 Z m -5.036,0 c 0,-4.964 -0.29,-6.159 -1.268,-7.246 -0.725,-0.834 -1.848,-1.377 -3.225,-1.377 -1.377,0 -2.536,0.543 -3.261,1.377 -0.978,1.087 -1.231,2.282 -1.231,7.246 0,4.964 0.253,6.159 1.231,7.246 0.725,0.834 1.884,1.377 3.261,1.377 1.377,0 2.5,-0.543 3.225,-1.377 C -5.326,6.159 -5.036,4.964 -5.036,0 Z"
             style="fill:none;stroke:#1a171b;stroke-width:0.97399998;stroke-linecap:butt;stroke-linejoin:miter;stroke-miterlimit:4;stroke-dasharray:none;stroke-opacity:1"
             id="path42"
             inkscape:connector-curvature="0" /></g><g
           id="g44"
           transform="translate(249.1743,415.5005)"><path
             d="M 0,0 V 17.319 H -5.036 V 0.218 c 0,-2.971 -1.594,-4.421 -4.058,-4.421 -1.667,0 -2.464,0.616 -3.297,1.45 l -3.333,-3.297 c 1.92,-1.921 3.84,-2.645 6.63,-2.645 C -4.312,-8.695 0,-5.688 0,0 Z"
             style="fill:none;stroke:#1a171b;stroke-width:0.97399998;stroke-linecap:butt;stroke-linejoin:miter;stroke-miterlimit:4;stroke-dasharray:none;stroke-opacity:1"
             id="path46"
             inkscape:connector-curvature="0" /></g><g
           id="g48"
           transform="translate(271.855,407.0225)"><path
             d="m 0,0 v 4.493 h -11.957 v 6.268 h 10.182 v 4.492 h -10.182 v 6.051 H 0 v 4.493 H -16.993 V 0 Z"
             style="fill:none;stroke:#1a171b;stroke-width:0.97399998;stroke-linecap:butt;stroke-linejoin:miter;stroke-miterlimit:4;stroke-dasharray:none;stroke-opacity:1"
             id="path50"
             inkscape:connector-curvature="0" /></g><g
           id="g52"
           transform="translate(281.6372,407.0225)"><path
             d="M 0,0 V 5.362 H -5.398 V 0 Z"
             style="fill:none;stroke:#1a171b;stroke-width:0.97399998;stroke-linecap:butt;stroke-linejoin:miter;stroke-miterlimit:4;stroke-dasharray:none;stroke-opacity:1"
             id="path54"
             inkscape:connector-curvature="0" /></g><g
           id="g56"
           transform="translate(306.854,407.0225)"><path
             d="M 0,0 V 25.797 H -5.036 V 10 l -10.217,15.797 h -4.493 V 0 h 5.036 V 15.833 L -4.493,0 Z"
             style="fill:none;stroke:#1a171b;stroke-width:0.97399998;stroke-linecap:butt;stroke-linejoin:miter;stroke-miterlimit:4;stroke-dasharray:none;stroke-opacity:1"
             id="path58"
             inkscape:connector-curvature="0" /></g><g
           id="g60"
           transform="translate(329.8613,407.0225)"><path
             d="m 0,0 v 4.493 h -11.957 v 6.268 h 10.182 v 4.492 h -10.182 v 6.051 H 0 v 4.493 H -16.993 V 0 Z"
             style="fill:none;stroke:#1a171b;stroke-width:0.97399998;stroke-linecap:butt;stroke-linejoin:miter;stroke-miterlimit:4;stroke-dasharray:none;stroke-opacity:1"
             id="path62"
             inkscape:connector-curvature="0" /></g><g
           id="g64"
           transform="translate(351.3823,428.3267)"><path
             d="M 0,0 V 4.493 H -18.514 V 0 h 6.739 v -21.304 h 5.036 V 0 Z"
             style="fill:none;stroke:#1a171b;stroke-width:0.97399998;stroke-linecap:butt;stroke-linejoin:miter;stroke-miterlimit:4;stroke-dasharray:none;stroke-opacity:1"
             id="path66"
             inkscape:connector-curvature="0" /></g><g
           id="g68"
           transform="translate(362.3594,408.2402)"><path
             d="M 0,0 11.313,10.649 0,21.298 4.112,25.667 20.066,10.649 4.112,-4.37 Z"
             style="fill:#f8b334;fill-opacity:1;fill-rule:nonzero;stroke:none"
             id="path70"
             inkscape:connector-curvature="0" /></g><g
           id="g72"
           transform="translate(386.165,408.2402)"><path
             d="M 0,0 11.313,10.649 0,21.298 H 0.002 L 4.113,25.666 20.063,10.649 4.113,-4.37 Z"
             style="fill:#f8b334;fill-opacity:1;fill-rule:nonzero;stroke:none"
             id="path74"
             inkscape:connector-curvature="0" /></g><g
           id="g76"
           transform="translate(409.9736,408.2393)"><path
             d="M 0,0 11.311,10.65 0,21.299 4.11,25.667 20.064,10.65 4.112,-4.367 Z"
             style="fill:#f8b334;fill-opacity:1;fill-rule:nonzero;stroke:none"
             id="path78"
             inkscape:connector-curvature="0" /></g></g></g></g></svg>