  0
SECTION
  2
HEADER
  9
$ACADVER
  1
AC1014
  9
$HANDSEED
  5
FFFF
  9
$MEASUREMENT
 70
     1
  0
ENDSEC
  0
SECTION
  2
TABLES
  0
TABLE
  2
VPORT
  5
8
330
0
100
AcDbSymbolTable
 70
     4
  0
VPORT
  5
2E
330
8
100
AcDbSymbolTableRecord
100
AcDbViewportTableRecord
  2
*ACTIVE
 70
     0
 10
0.0
 20
0.0
 11
1.0
 21
1.0
 12
210.0
 22
148.5
 13
0.0
 23
0.0
 14
10.0
 24
10.0
 15
10.0
 25
10.0
 16
0.0
 26
0.0
 36
1.0
 17
0.0
 27
0.0
 37
0.0
 40
341.0
 41
1.24
 42
50.0
 43
0.0
 44
0.0
 50
0.0
 51
0.0
 71
     0
 72
   100
 73
     1
 74
     3
 75
     0
 76
     0
 77
     0
 78
     0
  0
ENDTAB
  0
TABLE
  2
LTYPE
  5
5
330
0
100
AcDbSymbolTable
 70
     1
  0
LTYPE
  5
14
330
5
100
AcDbSymbolTableRecord
100
AcDbLinetypeTableRecord
  2
BYBLOCK
 70
     0
  3

 72
    65
 73
     0
 40
0.0
  0
LTYPE
  5
15
330
5
100
AcDbSymbolTableRecord
100
AcDbLinetypeTableRecord
  2
BYLAYER
 70
     0
  3

 72
    65
 73
     0
 40
0.0
  0
LTYPE
  5
16
330
5
100
AcDbSymbolTableRecord
100
AcDbLinetypeTableRecord
  2
CONTINUOUS
 70
     0
  3
Solid line
 72
    65
 73
     0
 40
0.0
  0
ENDTAB
  0
TABLE
  2
LAYER
  5
2
100
AcDbSymbolTable
 70
2
  0
LAYER
  5
50
100
AcDbSymbolTableRecord
100
AcDbLayerTableRecord
  2
0
 70
0
  6
CONTINUOUS
  0
LAYER
  5
51
100
AcDbSymbolTableRecord
100
AcDbLayerTableRecord
  2
Vrstva_1
 70
0
  6
CONTINUOUS
  0
ENDTAB
  0
TABLE
  2
STYLE
  5
3
330
0
100
AcDbSymbolTable
 70
     1
  0
STYLE
  5
11
330
3
100
AcDbSymbolTableRecord
100
AcDbTextStyleTableRecord
  2
STANDARD
 70
     0
 40
0.0
 41
1.0
 50
0.0
 71
     0
 42
2.5
  3
txt
  4

  0
ENDTAB
  0
TABLE
  2
VIEW
  5
6
330
0
100
AcDbSymbolTable
 70
     0
  0
ENDTAB
  0
TABLE
  2
UCS
  5
7
330
0
100
AcDbSymbolTable
 70
     0
  0
ENDTAB
  0
TABLE
  2
APPID
  5
9
330
0
100
AcDbSymbolTable
 70
     2
  0
APPID
  5
12
330
9
100
AcDbSymbolTableRecord
100
AcDbRegAppTableRecord
  2
ACAD
 70
     0
  0
ENDTAB
  0
TABLE
  2
DIMSTYLE
  5
A
330
0
100
AcDbSymbolTable
 70
     1
  0
DIMSTYLE
105
27
330
A
100
AcDbSymbolTableRecord
100
AcDbDimStyleTableRecord
  2
ISO-25
 70
     0
  3

  4

  5

  6

  7

 40
1.0
 41
2.5
 42
0.625
 43
3.75
 44
1.25
 45
0.0
 46
0.0
 47
0.0
 48
0.0
140
2.5
141
2.5
142
0.0
143
0.03937007874016
144
1.0
145
0.0
146
1.0
147
0.625
 71
     0
 72
     0
 73
     0
 74
     0
 75
     0
 76
     0
 77
     1
 78
     8
170
     0
171
     3
172
     1
173
     0
174
     0
175
     0
176
     0
177
     0
178
     0
270
     2
271
     2
272
     2
273
     2
274
     3
340
11
275
     0
280
     0
281
     0
282
     0
283
     0
284
     8
285
     0
286
     0
287
     3
288
     0
  0
ENDTAB
  0
TABLE
  2
BLOCK_RECORD
  5
1
330
0
100
AcDbSymbolTable
 70
     1
  0
BLOCK_RECORD
  5
1F
330
1
100
AcDbSymbolTableRecord
100
AcDbBlockTableRecord
  2
*MODEL_SPACE
  0
BLOCK_RECORD
  5
1B
330
1
100
AcDbSymbolTableRecord
100
AcDbBlockTableRecord
  2
*PAPER_SPACE
  0
ENDTAB
  0
ENDSEC
  0
SECTION
  2
BLOCKS
  0
BLOCK
  5
20
330
1F
100
AcDbEntity
  8
0
100
AcDbBlockBegin
  2
*MODEL_SPACE
 70
     0
 10
0.0
 20
0.0
 30
0.0
  3
*MODEL_SPACE
  1

  0
ENDBLK
  5
21
330
1F
100
AcDbEntity
  8
0
100
AcDbBlockEnd
  0
BLOCK
  5
1C
330
1B
100
AcDbEntity
 67
     1
  8
0
100
AcDbBlockBegin
  2
*PAPER_SPACE
  1

  0
ENDBLK
  5
1D
330
1B
100
AcDbEntity
 67
     1
  8
0
100
AcDbBlockEnd
  0
ENDSEC
  0
SECTION
  2
ENTITIES
  0
SPLINE
  5
100
100
AcDbEntity
  8
Vrstva_1
 62
7
100
AcDbSpline
 70
8
 71
3
 72
8
 73
4
 74
0
 40
0
 40
0
 40
0
 40
0
 40
1
 40
1
 40
1
 40
1
 10
34.234433
 20
5.107439
 30
0.0
 10
33.516160
 20
5.012569
 30
0.0
 10
32.865649
 20
5.012569
 30
0.0
 10
32.282899
 20
5.107439
 30
0.0
  0
SPLINE
  5
101
100
AcDbEntity
  8
Vrstva_1
 62
7
100
AcDbSpline
 70
8
 71
3
 72
8
 73
4
 74
0
 40
0
 40
0
 40
0
 40
0
 40
1
 40
1
 40
1
 40
1
 10
32.282899
 20
5.107439
 30
0.0
 10
31.374894
 20
5.256514
 30
0.0
 10
30.920891
 20
5.778277
 30
0.0
 10
30.920891
 20
6.672727
 30
0.0
  0
LWPOLYLINE
  5
102
100
AcDbEntity
  8
Vrstva_1
 62
7
100
AcDbPolyline
 90
4
 70
1
 10
0.061265
 20
24.078584
 30
0.0
 10
122.688395
 20
24.078584
 30
0.0
 10
122.688395
 20
0.061269
 30
0.0
 10
0.061265
 20
0.061269
 30
0.0
  0
SPLINE
  5
103
100
AcDbEntity
  8
Vrstva_1
 62
7
100
AcDbSpline
 70
8
 71
3
 72
8
 73
4
 74
0
 40
0
 40
0
 40
0
 40
0
 40
1
 40
1
 40
1
 40
1
 10
30.920891
 20
6.672727
 30
0.0
 10
30.920891
 20
7.391002
 30
0.0
 10
31.293580
 20
8.658144
 30
0.0
 10
32.038957
 20
10.474154
 30
0.0
  0
SPLINE
  5
104
100
AcDbEntity
  8
Vrstva_1
 62
7
100
AcDbSpline
 70
8
 71
3
 72
8
 73
4
 74
0
 40
0
 40
0
 40
0
 40
0
 40
1
 40
1
 40
1
 40
1
 10
32.038957
 20
10.474154
 30
0.0
 10
32.879201
 20
12.479899
 30
0.0
 10
33.360308
 20
13.848684
 30
0.0
 10
33.482279
 20
14.580509
 30
0.0
  0
SPLINE
  5
105
100
AcDbEntity
  8
Vrstva_1
 62
7
100
AcDbSpline
 70
8
 71
3
 72
8
 73
4
 74
0
 40
0
 40
0
 40
0
 40
0
 40
1
 40
1
 40
1
 40
1
 10
33.482279
 20
14.580509
 30
0.0
 10
33.712669
 20
15.949294
 30
0.0
 10
33.312875
 20
16.803089
 30
0.0
 10
32.282899
 20
17.141894
 30
0.0
  0
SPLINE
  5
106
100
AcDbEntity
  8
Vrstva_1
 62
7
100
AcDbSpline
 70
8
 71
3
 72
8
 73
4
 74
0
 40
0
 40
0
 40
0
 40
0
 40
1
 40
1
 40
1
 40
1
 10
32.282899
 20
17.141894
 30
0.0
 10
32.038957
 20
17.223209
 30
0.0
 10
31.815344
 20
17.263867
 30
0.0
 10
31.612059
 20
17.263867
 30
0.0
  0
LWPOLYLINE
  5
107
100
AcDbEntity
  8
Vrstva_1
 62
7
100
AcDbPolyline
 90
1
 70
1
 10
30.920891
 20
6.672727
 30
0.0
  0
SPLINE
  5
108
100
AcDbEntity
  8
Vrstva_1
 62
7
100
AcDbSpline
 70
8
 71
3
 72
8
 73
4
 74
0
 40
0
 40
0
 40
0
 40
0
 40
1
 40
1
 40
1
 40
1
 10
31.612059
 20
17.263867
 30
0.0
 10
30.676949
 20
17.263867
 30
0.0
 10
30.222946
 20
16.166129
 30
0.0
 10
30.250051
 20
13.970654
 30
0.0
  0
SPLINE
  5
109
100
AcDbEntity
  8
Vrstva_1
 62
7
100
AcDbSpline
 70
8
 71
3
 72
8
 73
4
 74
0
 40
0
 40
0
 40
0
 40
0
 40
1
 40
1
 40
1
 40
1
 10
30.250051
 20
13.970654
 30
0.0
 10
30.317813
 20
8.549724
 30
0.0
 10
30.385574
 20
6.469444
 30
0.0
 10
30.453336
 20
7.729814
 30
0.0
  0
SPLINE
  5
10a
100
AcDbEntity
  8
Vrstva_1
 62
7
100
AcDbSpline
 70
8
 71
3
 72
8
 73
4
 74
0
 40
0
 40
0
 40
0
 40
0
 40
1
 40
1
 40
1
 40
1
 10
30.453336
 20
7.729814
 30
0.0
 10
30.331365
 20
5.439469
 30
0.0
 10
29.613092
 20
4.199432
 30
0.0
 10
28.298517
 20
4.009702
 30
0.0
  0
SPLINE
  5
10b
100
AcDbEntity
  8
Vrstva_1
 62
7
100
AcDbSpline
 70
8
 71
3
 72
8
 73
4
 74
0
 40
0
 40
0
 40
0
 40
0
 40
1
 40
1
 40
1
 40
1
 10
28.298517
 20
4.009702
 30
0.0
 10
27.797081
 20
3.941937
 30
0.0
 10
27.146570
 20
3.962262
 30
0.0
 10
26.346983
 20
4.070677
 30
0.0
  0
SPLINE
  5
10c
100
AcDbEntity
  8
Vrstva_1
 62
7
100
AcDbSpline
 70
8
 71
3
 72
8
 73
4
 74
0
 40
0
 40
0
 40
0
 40
0
 40
1
 40
1
 40
1
 40
1
 10
26.346983
 20
4.070677
 30
0.0
 10
24.869780
 20
4.273962
 30
0.0
 10
24.131179
 20
5.893464
 30
0.0
 10
24.131179
 20
8.929184
 30
0.0
  0
LWPOLYLINE
  5
10d
100
AcDbEntity
  8
Vrstva_1
 62
7
100
AcDbPolyline
 90
2
 70
1
 10
31.612059
 20
17.263867
 30
0.0
 10
31.612059
 20
17.263867
 30
0.0
  0
SPLINE
  5
10e
100
AcDbEntity
  8
Vrstva_1
 62
7
100
AcDbSpline
 70
8
 71
3
 72
8
 73
4
 74
0
 40
0
 40
0
 40
0
 40
0
 40
1
 40
1
 40
1
 40
1
 10
24.131179
 20
8.929184
 30
0.0
 10
24.131179
 20
8.590374
 30
0.0
 10
24.185388
 20
9.979487
 30
0.0
 10
24.293806
 20
13.096522
 30
0.0
  0
SPLINE
  5
10f
100
AcDbEntity
  8
Vrstva_1
 62
7
100
AcDbSpline
 70
8
 71
3
 72
8
 73
4
 74
0
 40
0
 40
0
 40
0
 40
0
 40
1
 40
1
 40
1
 40
1
 10
24.293806
 20
13.096522
 30
0.0
 10
24.348016
 20
14.655037
 30
0.0
 10
24.259926
 20
15.745999
 30
0.0
 10
24.029537
 20
16.369409
 30
0.0
  0
SPLINE
  5
110
100
AcDbEntity
  8
Vrstva_1
 62
7
100
AcDbSpline
 70
8
 71
3
 72
8
 73
4
 74
0
 40
0
 40
0
 40
0
 40
0
 40
1
 40
1
 40
1
 40
1
 10
24.029537
 20
16.369409
 30
0.0
 10
23.731386
 20
17.182549
 30
0.0
 10
23.135084
 20
17.440042
 30
0.0
 10
22.240630
 20
17.141887
 30
0.0
  0
SPLINE
  5
111
100
AcDbEntity
  8
Vrstva_1
 62
7
100
AcDbSpline
 70
8
 71
3
 72
8
 73
4
 74
0
 40
0
 40
0
 40
0
 40
0
 40
1
 40
1
 40
1
 40
1
 10
22.240630
 20
17.141887
 30
0.0
 10
21.400387
 20
16.857292
 30
0.0
 10
20.980265
 20
16.240662
 30
0.0
 10
20.980265
 20
15.291997
 30
0.0
  0
LWPOLYLINE
  5
112
100
AcDbEntity
  8
Vrstva_1
 62
7
100
AcDbPolyline
 90
2
 70
1
 10
24.131179
 20
8.929184
 30
0.0
 10
24.131179
 20
8.929184
 30
0.0
  0
SPLINE
  5
113
100
AcDbEntity
  8
Vrstva_1
 62
7
100
AcDbSpline
 70
8
 71
3
 72
8
 73
4
 74
0
 40
0
 40
0
 40
0
 40
0
 40
1
 40
1
 40
1
 40
1
 10
20.980265
 20
15.291997
 30
0.0
 10
20.980265
 20
14.492412
 30
0.0
 10
21.359730
 20
13.164284
 30
0.0
 10
22.118660
 20
11.307614
 30
0.0
  0
SPLINE
  5
114
100
AcDbEntity
  8
Vrstva_1
 62
7
100
AcDbSpline
 70
8
 71
3
 72
8
 73
4
 74
0
 40
0
 40
0
 40
0
 40
0
 40
1
 40
1
 40
1
 40
1
 10
22.118660
 20
11.307614
 30
0.0
 10
22.972456
 20
9.261214
 30
0.0
 10
23.453563
 20
7.919534
 30
0.0
 10
23.561982
 20
7.282574
 30
0.0
  0
SPLINE
  5
115
100
AcDbEntity
  8
Vrstva_1
 62
7
100
AcDbSpline
 70
8
 71
3
 72
8
 73
4
 74
0
 40
0
 40
0
 40
0
 40
0
 40
1
 40
1
 40
1
 40
1
 10
23.561982
 20
7.282574
 30
0.0
 10
23.765266
 20
6.008659
 30
0.0
 10
23.324816
 20
5.283612
 30
0.0
 10
22.240630
 20
5.107432
 30
0.0
  0
SPLINE
  5
116
100
AcDbEntity
  8
Vrstva_1
 62
7
100
AcDbSpline
 70
8
 71
3
 72
8
 73
4
 74
0
 40
0
 40
0
 40
0
 40
0
 40
1
 40
1
 40
1
 40
1
 10
22.240630
 20
5.107432
 30
0.0
 10
21.657881
 20
5.012562
 30
0.0
 10
21.007369
 20
5.012562
 30
0.0
 10
20.289096
 20
5.107432
 30
0.0
  0
SPLINE
  5
117
100
AcDbEntity
  8
Vrstva_1
 62
7
100
AcDbSpline
 70
8
 71
3
 72
8
 73
4
 74
0
 40
0
 40
0
 40
0
 40
0
 40
1
 40
1
 40
1
 40
1
 10
20.289096
 20
5.107432
 30
0.0
 10
18.933864
 20
5.283612
 30
0.0
 10
17.863231
 20
6.117079
 30
0.0
 10
17.077196
 20
7.607834
 30
0.0
  0
SPLINE
  5
118
100
AcDbEntity
  8
Vrstva_1
 62
7
100
AcDbSpline
 70
8
 71
3
 72
8
 73
4
 74
0
 40
0
 40
0
 40
0
 40
0
 40
1
 40
1
 40
1
 40
1
 10
17.077196
 20
7.607834
 30
0.0
 10
16.358923
 20
8.963064
 30
0.0
 10
15.999787
 20
10.582567
 30
0.0
 10
15.999787
 20
12.466342
 30
0.0
  0
SPLINE
  5
119
100
AcDbEntity
  8
Vrstva_1
 62
7
100
AcDbSpline
 70
8
 71
3
 72
8
 73
4
 74
0
 40
0
 40
0
 40
0
 40
0
 40
1
 40
1
 40
1
 40
1
 10
15.999787
 20
12.466342
 30
0.0
 10
15.999787
 20
14.350112
 30
0.0
 10
16.358923
 20
15.989942
 30
0.0
 10
17.077196
 20
17.385832
 30
0.0
  0
SPLINE
  5
11a
100
AcDbEntity
  8
Vrstva_1
 62
7
100
AcDbSpline
 70
8
 71
3
 72
8
 73
4
 74
0
 40
0
 40
0
 40
0
 40
0
 40
1
 40
1
 40
1
 40
1
 10
17.077196
 20
17.385832
 30
0.0
 10
17.863231
 20
18.917242
 30
0.0
 10
18.933864
 20
19.804919
 30
0.0
 10
20.289096
 20
20.048864
 30
0.0
  0
SPLINE
  5
11b
100
AcDbEntity
  8
Vrstva_1
 62
7
100
AcDbSpline
 70
8
 71
3
 72
8
 73
4
 74
0
 40
0
 40
0
 40
0
 40
0
 40
1
 40
1
 40
1
 40
1
 10
20.289096
 20
20.048864
 30
0.0
 10
21.156445
 20
20.211489
 30
0.0
 10
22.118660
 20
20.231814
 30
0.0
 10
23.175740
 20
20.109839
 30
0.0
  0
SPLINE
  5
11c
100
AcDbEntity
  8
Vrstva_1
 62
7
100
AcDbSpline
 70
8
 71
3
 72
8
 73
4
 74
0
 40
0
 40
0
 40
0
 40
0
 40
1
 40
1
 40
1
 40
1
 10
23.175740
 20
20.109839
 30
0.0
 10
25.777786
 20
19.825239
 30
0.0
 10
27.078808
 20
18.259947
 30
0.0
 10
27.078808
 20
15.413962
 30
0.0
  0
SPLINE
  5
11d
100
AcDbEntity
  8
Vrstva_1
 62
7
100
AcDbSpline
 70
8
 71
3
 72
8
 73
4
 74
0
 40
0
 40
0
 40
0
 40
0
 40
1
 40
1
 40
1
 40
1
 10
27.078808
 20
15.413962
 30
0.0
 10
27.078808
 20
14.600822
 30
0.0
 10
26.956837
 20
13.475979
 30
0.0
 10
26.712896
 20
12.039434
 30
0.0
  0
SPLINE
  5
11e
100
AcDbEntity
  8
Vrstva_1
 62
7
100
AcDbSpline
 70
8
 71
3
 72
8
 73
4
 74
0
 40
0
 40
0
 40
0
 40
0
 40
1
 40
1
 40
1
 40
1
 10
26.712896
 20
12.039434
 30
0.0
 10
26.482506
 20
10.602889
 30
0.0
 10
26.367311
 20
9.667779
 30
0.0
 10
26.367311
 20
9.234104
 30
0.0
  0
SPLINE
  5
11f
100
AcDbEntity
  8
Vrstva_1
 62
7
100
AcDbSpline
 70
8
 71
3
 72
8
 73
4
 74
0
 40
0
 40
0
 40
0
 40
0
 40
1
 40
1
 40
1
 40
1
 10
26.367311
 20
9.234104
 30
0.0
 10
26.367311
 20
8.326099
 30
0.0
 10
26.685791
 20
7.892424
 30
0.0
 10
27.322750
 20
7.933079
 30
0.0
  0
SPLINE
  5
120
100
AcDbEntity
  8
Vrstva_1
 62
7
100
AcDbSpline
 70
8
 71
3
 72
8
 73
4
 74
0
 40
0
 40
0
 40
0
 40
0
 40
1
 40
1
 40
1
 40
1
 10
27.322750
 20
7.933079
 30
0.0
 10
27.675110
 20
7.960179
 30
0.0
 10
27.851290
 20
8.346422
 30
0.0
 10
27.851290
 20
9.091807
 30
0.0
  0
SPLINE
  5
121
100
AcDbEntity
  8
Vrstva_1
 62
7
100
AcDbSpline
 70
8
 71
3
 72
8
 73
4
 74
0
 40
0
 40
0
 40
0
 40
0
 40
1
 40
1
 40
1
 40
1
 10
27.851290
 20
9.091807
 30
0.0
 10
27.851290
 20
9.430612
 30
0.0
 10
27.783529
 20
10.189542
 30
0.0
 10
27.648006
 20
11.368597
 30
0.0
  0
SPLINE
  5
122
100
AcDbEntity
  8
Vrstva_1
 62
7
100
AcDbSpline
 70
8
 71
3
 72
8
 73
4
 74
0
 40
0
 40
0
 40
0
 40
0
 40
1
 40
1
 40
1
 40
1
 10
27.648006
 20
11.368597
 30
0.0
 10
27.526035
 20
12.561197
 30
0.0
 10
27.465049
 20
13.509859
 30
0.0
 10
27.465049
 20
14.214584
 30
0.0
  0
SPLINE
  5
123
100
AcDbEntity
  8
Vrstva_1
 62
7
100
AcDbSpline
 70
8
 71
3
 72
8
 73
4
 74
0
 40
0
 40
0
 40
0
 40
0
 40
1
 40
1
 40
1
 40
1
 10
27.465049
 20
14.214584
 30
0.0
 10
27.465049
 20
17.616214
 30
0.0
 10
28.820281
 20
19.520314
 30
0.0
 10
31.530745
 20
19.926884
 30
0.0
  0
SPLINE
  5
124
100
AcDbEntity
  8
Vrstva_1
 62
7
100
AcDbSpline
 70
8
 71
3
 72
8
 73
4
 74
0
 40
0
 40
0
 40
0
 40
0
 40
1
 40
1
 40
1
 40
1
 10
31.530745
 20
19.926884
 30
0.0
 10
32.506512
 20
20.075959
 30
0.0
 10
33.407742
 20
20.075959
 30
0.0
 10
34.234433
 20
19.926884
 30
0.0
  0
SPLINE
  5
125
100
AcDbEntity
  8
Vrstva_1
 62
7
100
AcDbSpline
 70
8
 71
3
 72
8
 73
4
 74
0
 40
0
 40
0
 40
0
 40
0
 40
1
 40
1
 40
1
 40
1
 10
34.234433
 20
19.926884
 30
0.0
 10
35.589665
 20
19.682944
 30
0.0
 10
36.660299
 20
18.802044
 30
0.0
 10
37.446333
 20
17.284184
 30
0.0
  0
SPLINE
  5
126
100
AcDbEntity
  8
Vrstva_1
 62
7
100
AcDbSpline
 70
8
 71
3
 72
8
 73
4
 74
0
 40
0
 40
0
 40
0
 40
0
 40
1
 40
1
 40
1
 40
1
 10
37.446333
 20
17.284184
 30
0.0
 10
38.164606
 20
15.888294
 30
0.0
 10
38.523742
 20
14.262014
 30
0.0
 10
38.523742
 20
12.405344
 30
0.0
  0
SPLINE
  5
127
100
AcDbEntity
  8
Vrstva_1
 62
7
100
AcDbSpline
 70
8
 71
3
 72
8
 73
4
 74
0
 40
0
 40
0
 40
0
 40
0
 40
1
 40
1
 40
1
 40
1
 10
38.523742
 20
12.405344
 30
0.0
 10
38.523742
 20
10.535124
 30
0.0
 10
38.164606
 20
8.929174
 30
0.0
 10
37.446333
 20
7.587494
 30
0.0
  0
SPLINE
  5
128
100
AcDbEntity
  8
Vrstva_1
 62
7
100
AcDbSpline
 70
8
 71
3
 72
8
 73
4
 74
0
 40
0
 40
0
 40
0
 40
0
 40
1
 40
1
 40
1
 40
1
 10
37.446333
 20
7.587494
 30
0.0
 10
36.660298
 20
6.110294
 30
0.0
 10
35.589665
 20
5.283604
 30
0.0
 10
34.234433
 20
5.107424
 30
0.0
  0
LWPOLYLINE
  5
129
100
AcDbEntity
  8
Vrstva_1
 62
7
100
AcDbPolyline
 90
1
 70
1
 10
20.980265
 20
15.291997
 30
0.0
  0
SPLINE
  5
12a
100
AcDbEntity
  8
Vrstva_1
 62
7
100
AcDbSpline
 70
8
 71
3
 72
8
 73
4
 74
0
 40
0
 40
0
 40
0
 40
0
 40
1
 40
1
 40
1
 40
1
 10
60.577283
 20
16.572697
 30
0.0
 10
60.875435
 20
16.288102
 30
0.0
 10
61.024510
 20
15.820547
 30
0.0
 10
61.024510
 20
15.170032
 30
0.0
  0
LWPOLYLINE
  5
12b
100
AcDbEntity
  8
Vrstva_1
 62
7
100
AcDbPolyline
 90
1
 70
1
 10
34.234433
 20
5.107424
 30
0.0
  0
SPLINE
  5
12c
100
AcDbEntity
  8
Vrstva_1
 62
7
100
AcDbSpline
 70
8
 71
3
 72
8
 73
4
 74
0
 40
0
 40
0
 40
0
 40
0
 40
1
 40
1
 40
1
 40
1
 10
61.024510
 20
15.170032
 30
0.0
 10
61.024510
 20
14.478867
 30
0.0
 10
60.875435
 20
13.923222
 30
0.0
 10
60.577283
 20
13.503097
 30
0.0
  0
SPLINE
  5
12d
100
AcDbEntity
  8
Vrstva_1
 62
7
100
AcDbSpline
 70
8
 71
3
 72
8
 73
4
 74
0
 40
0
 40
0
 40
0
 40
0
 40
1
 40
1
 40
1
 40
1
 10
60.577283
 20
13.503097
 30
0.0
 10
60.238475
 20
13.028767
 30
0.0
 10
59.831906
 20
12.947454
 30
0.0
 10
59.357575
 20
13.259159
 30
0.0
  0
SPLINE
  5
12e
100
AcDbEntity
  8
Vrstva_1
 62
7
100
AcDbSpline
 70
8
 71
3
 72
8
 73
4
 74
0
 40
0
 40
0
 40
0
 40
0
 40
1
 40
1
 40
1
 40
1
 10
59.357575
 20
13.259159
 30
0.0
 10
58.259837
 20
14.004534
 30
0.0
 10
57.324727
 20
14.377222
 30
0.0
 10
56.552245
 20
14.377222
 30
0.0
  0
SPLINE
  5
12f
100
AcDbEntity
  8
Vrstva_1
 62
7
100
AcDbSpline
 70
8
 71
3
 72
8
 73
4
 74
0
 40
0
 40
0
 40
0
 40
0
 40
1
 40
1
 40
1
 40
1
 10
56.552245
 20
14.377222
 30
0.0
 10
55.264774
 20
14.377222
 30
0.0
 10
54.553277
 20
13.401454
 30
0.0
 10
54.417754
 20
11.449919
 30
0.0
  0
SPLINE
  5
130
100
AcDbEntity
  8
Vrstva_1
 62
7
100
AcDbSpline
 70
8
 71
3
 72
8
 73
4
 74
0
 40
0
 40
0
 40
0
 40
0
 40
1
 40
1
 40
1
 40
1
 10
54.417754
 20
11.449919
 30
0.0
 10
54.390649
 20
10.948484
 30
0.0
 10
54.465187
 20
10.352184
 30
0.0
 10
54.641368
 20
9.661019
 30
0.0
  0
SPLINE
  5
131
100
AcDbEntity
  8
Vrstva_1
 62
7
100
AcDbSpline
 70
8
 71
3
 72
8
 73
4
 74
0
 40
0
 40
0
 40
0
 40
0
 40
1
 40
1
 40
1
 40
1
 10
54.641368
 20
9.661019
 30
0.0
 10
54.980176
 20
8.468414
 30
0.0
 10
55.312207
 20
7.275809
 30
0.0
 10
55.637463
 20
6.083204
 30
0.0
  0
SPLINE
  5
132
100
AcDbEntity
  8
Vrstva_1
 62
7
100
AcDbSpline
 70
8
 71
3
 72
8
 73
4
 74
0
 40
0
 40
0
 40
0
 40
0
 40
1
 40
1
 40
1
 40
1
 10
55.637463
 20
6.083204
 30
0.0
 10
55.664568
 20
5.988339
 30
0.0
 10
55.678120
 20
5.893472
 30
0.0
 10
55.678121
 20
5.798602
 30
0.0
  0
SPLINE
  5
133
100
AcDbEntity
  8
Vrstva_1
 62
7
100
AcDbSpline
 70
8
 71
3
 72
8
 73
4
 74
0
 40
0
 40
0
 40
0
 40
0
 40
1
 40
1
 40
1
 40
1
 10
55.678121
 20
5.798602
 30
0.0
 10
55.678120
 20
5.310722
 30
0.0
 10
55.379970
 20
4.897377
 30
0.0
 10
54.783667
 20
4.558567
 30
0.0
  0
SPLINE
  5
134
100
AcDbEntity
  8
Vrstva_1
 62
7
100
AcDbSpline
 70
8
 71
3
 72
8
 73
4
 74
0
 40
0
 40
0
 40
0
 40
0
 40
1
 40
1
 40
1
 40
1
 10
54.783667
 20
4.558567
 30
0.0
 10
54.268680
 20
4.260417
 30
0.0
 10
53.821453
 20
4.138447
 30
0.0
 10
53.441988
 20
4.192657
 30
0.0
  0
SPLINE
  5
135
100
AcDbEntity
  8
Vrstva_1
 62
7
100
AcDbSpline
 70
8
 71
3
 72
8
 73
4
 74
0
 40
0
 40
0
 40
0
 40
0
 40
1
 40
1
 40
1
 40
1
 10
53.441988
 20
4.192657
 30
0.0
 10
52.086756
 20
4.409492
 30
0.0
 10
51.409140
 20
5.459797
 30
0.0
 10
51.409140
 20
7.343572
 30
0.0
  0
LWPOLYLINE
  5
136
100
AcDbEntity
  8
Vrstva_1
 62
7
100
AcDbPolyline
 90
1
 70
1
 10
61.024510
 20
15.170032
 30
0.0
  0
SPLINE
  5
137
100
AcDbEntity
  8
Vrstva_1
 62
7
100
AcDbSpline
 70
8
 71
3
 72
8
 73
4
 74
0
 40
0
 40
0
 40
0
 40
0
 40
1
 40
1
 40
1
 40
1
 10
51.409140
 20
7.343572
 30
0.0
 10
51.409140
 20
8.183812
 30
0.0
 10
51.598872
 20
9.566147
 30
0.0
 10
51.978338
 20
11.490577
 30
0.0
  0
SPLINE
  5
138
100
AcDbEntity
  8
Vrstva_1
 62
7
100
AcDbSpline
 70
8
 71
3
 72
8
 73
4
 74
0
 40
0
 40
0
 40
0
 40
0
 40
1
 40
1
 40
1
 40
1
 10
51.978338
 20
11.490577
 30
0.0
 10
52.303593
 20
13.130412
 30
0.0
 10
52.405235
 20
14.153612
 30
0.0
 10
52.283264
 20
14.560177
 30
0.0
  0
SPLINE
  5
139
100
AcDbEntity
  8
Vrstva_1
 62
7
100
AcDbSpline
 70
8
 71
3
 72
8
 73
4
 74
0
 40
0
 40
0
 40
0
 40
0
 40
1
 40
1
 40
1
 40
1
 10
52.283264
 20
14.560177
 30
0.0
 10
52.147741
 20
15.007407
 30
0.0
 10
52.079980
 20
15.434307
 30
0.0
 10
52.079980
 20
15.840877
 30
0.0
  0
LWPOLYLINE
  5
13a
100
AcDbEntity
  8
Vrstva_1
 62
7
100
AcDbPolyline
 90
1
 70
1
 10
51.409140
 20
7.343572
 30
0.0
  0
SPLINE
  5
13b
100
AcDbEntity
  8
Vrstva_1
 62
7
100
AcDbSpline
 70
8
 71
3
 72
8
 73
4
 74
0
 40
0
 40
0
 40
0
 40
0
 40
1
 40
1
 40
1
 40
1
 10
52.079980
 20
15.840877
 30
0.0
 10
52.079980
 20
16.803092
 30
0.0
 10
52.398459
 20
17.460379
 30
0.0
 10
53.035418
 20
17.812739
 30
0.0
  0
SPLINE
  5
13c
100
AcDbEntity
  8
Vrstva_1
 62
7
100
AcDbSpline
 70
8
 71
3
 72
8
 73
4
 74
0
 40
0
 40
0
 40
0
 40
0
 40
1
 40
1
 40
1
 40
1
 10
53.035418
 20
17.812739
 30
0.0
 10
53.645273
 20
18.165099
 30
0.0
 10
54.228023
 20
18.077009
 30
0.0
 10
54.783667
 20
17.548469
 30
0.0
  0
SPLINE
  5
13d
100
AcDbEntity
  8
Vrstva_1
 62
7
100
AcDbSpline
 70
8
 71
3
 72
8
 73
4
 74
0
 40
0
 40
0
 40
0
 40
0
 40
1
 40
1
 40
1
 40
1
 10
54.783667
 20
17.548469
 30
0.0
 10
55.000505
 20
17.331629
 30
0.0
 10
55.108923
 20
17.141897
 30
0.0
 10
55.108923
 20
16.979272
 30
0.0
  0
SPLINE
  5
13e
100
AcDbEntity
  8
Vrstva_1
 62
7
100
AcDbSpline
 70
8
 71
3
 72
8
 73
4
 74
0
 40
0
 40
0
 40
0
 40
0
 40
1
 40
1
 40
1
 40
1
 10
55.108923
 20
16.979272
 30
0.0
 10
55.108923
 20
16.857297
 30
0.0
 10
55.020833
 20
16.701444
 30
0.0
 10
54.844653
 20
16.511714
 30
0.0
  0
SPLINE
  5
13f
100
AcDbEntity
  8
Vrstva_1
 62
7
100
AcDbSpline
 70
8
 71
3
 72
8
 73
4
 74
0
 40
0
 40
0
 40
0
 40
0
 40
1
 40
1
 40
1
 40
1
 10
54.844653
 20
16.511714
 30
0.0
 10
54.668473
 20
16.321979
 30
0.0
 10
54.580383
 20
16.172904
 30
0.0
 10
54.580383
 20
16.064489
 30
0.0
  0
SPLINE
  5
140
100
AcDbEntity
  8
Vrstva_1
 62
7
100
AcDbSpline
 70
8
 71
3
 72
8
 73
4
 74
0
 40
0
 40
0
 40
0
 40
0
 40
1
 40
1
 40
1
 40
1
 10
54.580383
 20
16.064489
 30
0.0
 10
54.580383
 20
15.793439
 30
0.0
 10
54.715906
 20
15.657914
 30
0.0
 10
54.986952
 20
15.657914
 30
0.0
  0
SPLINE
  5
141
100
AcDbEntity
  8
Vrstva_1
 62
7
100
AcDbSpline
 70
8
 71
3
 72
8
 73
4
 74
0
 40
0
 40
0
 40
0
 40
0
 40
1
 40
1
 40
1
 40
1
 10
54.986952
 20
15.657914
 30
0.0
 10
55.217342
 20
15.657914
 30
0.0
 10
55.705225
 20
15.874752
 30
0.0
 10
56.450603
 20
16.308427
 30
0.0
  0
SPLINE
  5
142
100
AcDbEntity
  8
Vrstva_1
 62
7
100
AcDbSpline
 70
8
 71
3
 72
8
 73
4
 74
0
 40
0
 40
0
 40
0
 40
0
 40
1
 40
1
 40
1
 40
1
 10
56.450603
 20
16.308427
 30
0.0
 10
57.250190
 20
16.782762
 30
0.0
 10
57.826163
 20
17.053809
 30
0.0
 10
58.178524
 20
17.121569
 30
0.0
  0
SPLINE
  5
143
100
AcDbEntity
  8
Vrstva_1
 62
7
100
AcDbSpline
 70
8
 71
3
 72
8
 73
4
 74
0
 40
0
 40
0
 40
0
 40
0
 40
1
 40
1
 40
1
 40
1
 10
58.178524
 20
17.121569
 30
0.0
 10
58.544436
 20
17.189329
 30
0.0
 10
58.856140
 20
17.223209
 30
0.0
 10
59.113634
 20
17.223209
 30
0.0
  0
SPLINE
  5
144
100
AcDbEntity
  8
Vrstva_1
 62
7
100
AcDbSpline
 70
8
 71
3
 72
8
 73
4
 74
0
 40
0
 40
0
 40
0
 40
0
 40
1
 40
1
 40
1
 40
1
 10
59.113634
 20
17.223209
 30
0.0
 10
59.642174
 20
17.223209
 30
0.0
 10
60.130058
 20
17.006372
 30
0.0
 10
60.577284
 20
16.572697
 30
0.0
  0
LWPOLYLINE
  5
145
100
AcDbEntity
  8
Vrstva_1
 62
7
100
AcDbPolyline
 90
1
 70
1
 10
52.079980
 20
15.840877
 30
0.0
  0
SPLINE
  5
146
100
AcDbEntity
  8
Vrstva_1
 62
7
100
AcDbSpline
 70
8
 71
3
 72
8
 73
4
 74
0
 40
0
 40
0
 40
0
 40
0
 40
1
 40
1
 40
1
 40
1
 10
74.216422
 20
13.564087
 30
0.0
 10
74.243527
 20
12.628977
 30
0.0
 10
73.958929
 20
11.504134
 30
0.0
 10
73.362626
 20
10.189559
 30
0.0
  0
SPLINE
  5
147
100
AcDbEntity
  8
Vrstva_1
 62
7
100
AcDbSpline
 70
8
 71
3
 72
8
 73
4
 74
0
 40
0
 40
0
 40
0
 40
0
 40
1
 40
1
 40
1
 40
1
 10
73.362626
 20
10.189559
 30
0.0
 10
72.752772
 20
8.820774
 30
0.0
 10
72.441068
 20
7.709484
 30
0.0
 10
72.427516
 20
6.855689
 30
0.0
  0
SPLINE
  5
148
100
AcDbEntity
  8
Vrstva_1
 62
7
100
AcDbSpline
 70
8
 71
3
 72
8
 73
4
 74
0
 40
0
 40
0
 40
0
 40
0
 40
1
 40
1
 40
1
 40
1
 10
72.427516
 20
6.855689
 30
0.0
 10
72.427516
 20
6.571089
 30
0.0
 10
72.610472
 20
6.110309
 30
0.0
 10
72.976385
 20
5.473349
 30
0.0
  0
SPLINE
  5
149
100
AcDbEntity
  8
Vrstva_1
 62
7
100
AcDbSpline
 70
8
 71
3
 72
8
 73
4
 74
0
 40
0
 40
0
 40
0
 40
0
 40
1
 40
1
 40
1
 40
1
 10
72.976385
 20
5.473349
 30
0.0
 10
73.342298
 20
4.849944
 30
0.0
 10
73.525254
 20
4.423047
 30
0.0
 10
73.525254
 20
4.192657
 30
0.0
  0
SPLINE
  5
14a
100
AcDbEntity
  8
Vrstva_1
 62
7
100
AcDbSpline
 70
8
 71
3
 72
8
 73
4
 74
0
 40
0
 40
0
 40
0
 40
0
 40
1
 40
1
 40
1
 40
1
 10
73.525254
 20
4.192657
 30
0.0
 10
73.525254
 20
3.867402
 30
0.0
 10
73.267760
 20
3.582802
 30
0.0
 10
72.752772
 20
3.338857
 30
0.0
  0
SPLINE
  5
14b
100
AcDbEntity
  8
Vrstva_1
 62
7
100
AcDbSpline
 70
8
 71
3
 72
8
 73
4
 74
0
 40
0
 40
0
 40
0
 40
0
 40
1
 40
1
 40
1
 40
1
 10
72.752772
 20
3.338857
 30
0.0
 10
72.237783
 20
3.094917
 30
0.0
 10
71.675362
 20
2.972947
 30
0.0
 10
71.065508
 20
2.972947
 30
0.0
  0
SPLINE
  5
14c
100
AcDbEntity
  8
Vrstva_1
 62
7
100
AcDbSpline
 70
8
 71
3
 72
8
 73
4
 74
0
 40
0
 40
0
 40
0
 40
0
 40
1
 40
1
 40
1
 40
1
 10
71.065508
 20
2.972947
 30
0.0
 10
70.198160
 20
2.972947
 30
0.0
 10
69.622186
 20
3.250769
 30
0.0
 10
69.337587
 20
3.806414
 30
0.0
  0
SPLINE
  5
14d
100
AcDbEntity
  8
Vrstva_1
 62
7
100
AcDbSpline
 70
8
 71
3
 72
8
 73
4
 74
0
 40
0
 40
0
 40
0
 40
0
 40
1
 40
1
 40
1
 40
1
 10
69.337587
 20
3.806414
 30
0.0
 10
69.229169
 20
3.996144
 30
0.0
 10
69.229169
 20
4.287519
 30
0.0
 10
69.337587
 20
4.680539
 30
0.0
  0
SPLINE
  5
14e
100
AcDbEntity
  8
Vrstva_1
 62
7
100
AcDbSpline
 70
8
 71
3
 72
8
 73
4
 74
0
 40
0
 40
0
 40
0
 40
0
 40
1
 40
1
 40
1
 40
1
 10
69.337587
 20
4.680539
 30
0.0
 10
69.473111
 20
5.168424
 30
0.0
 10
69.540872
 20
5.439469
 30
0.0
 10
69.540872
 20
5.493674
 30
0.0
  0
SPLINE
  5
14f
100
AcDbEntity
  8
Vrstva_1
 62
7
100
AcDbSpline
 70
8
 71
3
 72
8
 73
4
 74
0
 40
0
 40
0
 40
0
 40
0
 40
1
 40
1
 40
1
 40
1
 10
69.540872
 20
5.493674
 30
0.0
 10
69.540872
 20
5.669859
 30
0.0
 10
69.446006
 20
5.764727
 30
0.0
 10
69.256273
 20
5.778277
 30
0.0
  0
SPLINE
  5
150
100
AcDbEntity
  8
Vrstva_1
 62
7
100
AcDbSpline
 70
8
 71
3
 72
8
 73
4
 74
0
 40
0
 40
0
 40
0
 40
0
 40
1
 40
1
 40
1
 40
1
 10
69.256273
 20
5.778277
 30
0.0
 10
68.903913
 20
5.805377
 30
0.0
 10
68.687076
 20
5.663077
 30
0.0
 10
68.605762
 20
5.351377
 30
0.0
  0
SPLINE
  5
151
100
AcDbEntity
  8
Vrstva_1
 62
7
100
AcDbSpline
 70
8
 71
3
 72
8
 73
4
 74
0
 40
0
 40
0
 40
0
 40
0
 40
1
 40
1
 40
1
 40
1
 10
68.605762
 20
5.351377
 30
0.0
 10
68.470239
 20
4.849942
 30
0.0
 10
68.361820
 20
4.551792
 30
0.0
 10
68.280506
 20
4.456927
 30
0.0
  0
SPLINE
  5
152
100
AcDbEntity
  8
Vrstva_1
 62
7
100
AcDbSpline
 70
8
 71
3
 72
8
 73
4
 74
0
 40
0
 40
0
 40
0
 40
0
 40
1
 40
1
 40
1
 40
1
 10
68.280506
 20
4.456927
 30
0.0
 10
68.090774
 20
4.240087
 30
0.0
 10
67.758742
 20
4.057129
 30
0.0
 10
67.284410
 20
3.908054
 30
0.0
  0
SPLINE
  5
153
100
AcDbEntity
  8
Vrstva_1
 62
7
100
AcDbSpline
 70
8
 71
3
 72
8
 73
4
 74
0
 40
0
 40
0
 40
0
 40
0
 40
1
 40
1
 40
1
 40
1
 10
67.284410
 20
3.908054
 30
0.0
 10
66.823632
 20
3.758979
 30
0.0
 10
66.396734
 20
3.684442
 30
0.0
 10
66.003716
 20
3.684442
 30
0.0
  0
SPLINE
  5
154
100
AcDbEntity
  8
Vrstva_1
 62
7
100
AcDbSpline
 70
8
 71
3
 72
8
 73
4
 74
0
 40
0
 40
0
 40
0
 40
0
 40
1
 40
1
 40
1
 40
1
 10
66.003716
 20
3.684442
 30
0.0
 10
65.583594
 20
3.684442
 30
0.0
 10
65.095711
 20
3.745427
 30
0.0
 10
64.540066
 20
3.867397
 30
0.0
  0
SPLINE
  5
155
100
AcDbEntity
  8
Vrstva_1
 62
7
100
AcDbSpline
 70
8
 71
3
 72
8
 73
4
 74
0
 40
0
 40
0
 40
0
 40
0
 40
1
 40
1
 40
1
 40
1
 10
64.540066
 20
3.867397
 30
0.0
 10
63.903107
 20
4.002922
 30
0.0
 10
63.462656
 20
4.165552
 30
0.0
 10
63.218714
 20
4.355287
 30
0.0
  0
SPLINE
  5
156
100
AcDbEntity
  8
Vrstva_1
 62
7
100
AcDbSpline
 70
8
 71
3
 72
8
 73
4
 74
0
 40
0
 40
0
 40
0
 40
0
 40
1
 40
1
 40
1
 40
1
 10
63.218714
 20
4.355287
 30
0.0
 10
62.364920
 20
5.005797
 30
0.0
 10
61.721186
 20
6.022219
 30
0.0
 10
61.287512
 20
7.404554
 30
0.0
  0
SPLINE
  5
157
100
AcDbEntity
  8
Vrstva_1
 62
7
100
AcDbSpline
 70
8
 71
3
 72
8
 73
4
 74
0
 40
0
 40
0
 40
0
 40
0
 40
1
 40
1
 40
1
 40
1
 10
61.287512
 20
7.404554
 30
0.0
 10
60.948703
 20
8.515844
 30
0.0
 10
60.779299
 20
9.688119
 30
0.0
 10
60.779300
 20
10.921379
 30
0.0
  0
SPLINE
  5
158
100
AcDbEntity
  8
Vrstva_1
 62
7
100
AcDbSpline
 70
8
 71
3
 72
8
 73
4
 74
0
 40
0
 40
0
 40
0
 40
0
 40
1
 40
1
 40
1
 40
1
 10
60.779300
 20
10.921379
 30
0.0
 10
60.779299
 20
12.290164
 30
0.0
 10
61.219750
 20
13.536979
 30
0.0
 10
62.100651
 20
14.661824
 30
0.0
  0
SPLINE
  5
159
100
AcDbEntity
  8
Vrstva_1
 62
7
100
AcDbSpline
 70
8
 71
3
 72
8
 73
4
 74
0
 40
0
 40
0
 40
0
 40
0
 40
1
 40
1
 40
1
 40
1
 10
62.100651
 20
14.661824
 30
0.0
 10
62.534325
 20
15.203914
 30
0.0
 10
63.137402
 20
15.664692
 30
0.0
 10
63.909883
 20
16.044157
 30
0.0
  0
SPLINE
  5
15a
100
AcDbEntity
  8
Vrstva_1
 62
7
100
AcDbSpline
 70
8
 71
3
 72
8
 73
4
 74
0
 40
0
 40
0
 40
0
 40
0
 40
1
 40
1
 40
1
 40
1
 10
63.909883
 20
16.044157
 30
0.0
 10
64.628156
 20
16.369412
 30
0.0
 10
65.258339
 20
16.532039
 30
0.0
 10
65.800432
 20
16.532039
 30
0.0
  0
SPLINE
  5
15b
100
AcDbEntity
  8
Vrstva_1
 62
7
100
AcDbSpline
 70
8
 71
3
 72
8
 73
4
 74
0
 40
0
 40
0
 40
0
 40
0
 40
1
 40
1
 40
1
 40
1
 10
65.800432
 20
16.532039
 30
0.0
 10
66.328972
 20
16.532039
 30
0.0
 10
66.816856
 20
16.355859
 30
0.0
 10
67.264082
 20
16.003499
 30
0.0
  0
SPLINE
  5
15c
100
AcDbEntity
  8
Vrstva_1
 62
7
100
AcDbSpline
 70
8
 71
3
 72
8
 73
4
 74
0
 40
0
 40
0
 40
0
 40
0
 40
1
 40
1
 40
1
 40
1
 10
67.264082
 20
16.003499
 30
0.0
 10
67.331844
 20
15.949294
 30
0.0
 10
67.650323
 20
15.630817
 30
0.0
 10
68.219521
 20
15.048067
 30
0.0
  0
SPLINE
  5
15d
100
AcDbEntity
  8
Vrstva_1
 62
7
100
AcDbSpline
 70
8
 71
3
 72
8
 73
4
 74
0
 40
0
 40
0
 40
0
 40
0
 40
1
 40
1
 40
1
 40
1
 10
68.219521
 20
15.048067
 30
0.0
 10
68.558329
 20
14.709257
 30
0.0
 10
68.870032
 20
14.539852
 30
0.0
 10
69.154631
 20
14.539852
 30
0.0
  0
SPLINE
  5
15e
100
AcDbEntity
  8
Vrstva_1
 62
7
100
AcDbSpline
 70
8
 71
3
 72
8
 73
4
 74
0
 40
0
 40
0
 40
0
 40
0
 40
1
 40
1
 40
1
 40
1
 10
69.154631
 20
14.539852
 30
0.0
 10
69.235945
 20
14.539852
 30
0.0
 10
69.324035
 20
14.560177
 30
0.0
 10
69.418901
 20
14.600827
 30
0.0
  0
SPLINE
  5
15f
100
AcDbEntity
  8
Vrstva_1
 62
7
100
AcDbSpline
 70
8
 71
3
 72
8
 73
4
 74
0
 40
0
 40
0
 40
0
 40
0
 40
1
 40
1
 40
1
 40
1
 10
69.418901
 20
14.600827
 30
0.0
 10
69.852575
 20
14.817667
 30
0.0
 10
70.042308
 20
15.237789
 30
0.0
 10
69.988099
 20
15.861194
 30
0.0
  0
SPLINE
  5
160
100
AcDbEntity
  8
Vrstva_1
 62
7
100
AcDbSpline
 70
8
 71
3
 72
8
 73
4
 74
0
 40
0
 40
0
 40
0
 40
0
 40
1
 40
1
 40
1
 40
1
 10
69.988099
 20
15.861194
 30
0.0
 10
69.947444
 20
16.376184
 30
0.0
 10
69.710278
 20
17.053802
 30
0.0
 10
69.276601
 20
17.894047
 30
0.0
  0
SPLINE
  5
161
100
AcDbEntity
  8
Vrstva_1
 62
7
100
AcDbSpline
 70
8
 71
3
 72
8
 73
4
 74
0
 40
0
 40
0
 40
0
 40
0
 40
1
 40
1
 40
1
 40
1
 10
69.276601
 20
17.894047
 30
0.0
 10
68.856480
 20
18.734287
 30
0.0
 10
68.646419
 20
19.317034
 30
0.0
 10
68.646419
 20
19.642289
 30
0.0
  0
SPLINE
  5
162
100
AcDbEntity
  8
Vrstva_1
 62
7
100
AcDbSpline
 70
8
 71
3
 72
8
 73
4
 74
0
 40
0
 40
0
 40
0
 40
0
 40
1
 40
1
 40
1
 40
1
 10
68.646419
 20
19.642289
 30
0.0
 10
68.646419
 20
20.021754
 30
0.0
 10
68.836151
 20
20.333459
 30
0.0
 10
69.215616
 20
20.577404
 30
0.0
  0
SPLINE
  5
163
100
AcDbEntity
  8
Vrstva_1
 62
7
100
AcDbSpline
 70
8
 71
3
 72
8
 73
4
 74
0
 40
0
 40
0
 40
0
 40
0
 40
1
 40
1
 40
1
 40
1
 10
69.215616
 20
20.577404
 30
0.0
 10
69.811918
 20
20.970419
 30
0.0
 10
70.320130
 20
21.166927
 30
0.0
 10
70.740252
 20
21.166927
 30
0.0
  0
SPLINE
  5
164
100
AcDbEntity
  8
Vrstva_1
 62
7
100
AcDbSpline
 70
8
 71
3
 72
8
 73
4
 74
0
 40
0
 40
0
 40
0
 40
0
 40
1
 40
1
 40
1
 40
1
 10
70.740252
 20
21.166927
 30
0.0
 10
71.051956
 20
21.166927
 30
0.0
 10
71.329778
 20
21.065284
 30
0.0
 10
71.573720
 20
20.861999
 30
0.0
  0
SPLINE
  5
165
100
AcDbEntity
  8
Vrstva_1
 62
7
100
AcDbSpline
 70
8
 71
3
 72
8
 73
4
 74
0
 40
0
 40
0
 40
0
 40
0
 40
1
 40
1
 40
1
 40
1
 10
71.573720
 20
20.861999
 30
0.0
 10
72.237784
 20
20.306354
 30
0.0
 10
72.827310
 20
19.330587
 30
0.0
 10
73.342298
 20
17.934697
 30
0.0
  0
SPLINE
  5
166
100
AcDbEntity
  8
Vrstva_1
 62
7
100
AcDbSpline
 70
8
 71
3
 72
8
 73
4
 74
0
 40
0
 40
0
 40
0
 40
0
 40
1
 40
1
 40
1
 40
1
 10
73.342298
 20
17.934697
 30
0.0
 10
73.884391
 20
16.484602
 30
0.0
 10
74.175765
 20
15.027729
 30
0.0
 10
74.216423
 20
13.564079
 30
0.0
  0
LWPOLYLINE
  5
167
100
AcDbEntity
  8
Vrstva_1
 62
7
100
AcDbPolyline
 90
1
 70
1
 10
60.577284
 20
16.572697
 30
0.0
  0
SPLINE
  5
168
100
AcDbEntity
  8
Vrstva_1
 62
7
100
AcDbSpline
 70
8
 71
3
 72
8
 73
4
 74
0
 40
0
 40
0
 40
0
 40
0
 40
1
 40
1
 40
1
 40
1
 10
68.402477
 20
12.547664
 30
0.0
 10
67.779070
 20
13.496324
 30
0.0
 10
67.067573
 20
13.970654
 30
0.0
 10
66.267986
 20
13.970654
 30
0.0
  0
SPLINE
  5
169
100
AcDbEntity
  8
Vrstva_1
 62
7
100
AcDbSpline
 70
8
 71
3
 72
8
 73
4
 74
0
 40
0
 40
0
 40
0
 40
0
 40
1
 40
1
 40
1
 40
1
 10
66.267986
 20
13.970654
 30
0.0
 10
65.983388
 20
13.970654
 30
0.0
 10
65.651356
 20
13.902892
 30
0.0
 10
65.271891
 20
13.767367
 30
0.0
  0
SPLINE
  5
16a
100
AcDbEntity
  8
Vrstva_1
 62
7
100
AcDbSpline
 70
8
 71
3
 72
8
 73
4
 74
0
 40
0
 40
0
 40
0
 40
0
 40
1
 40
1
 40
1
 40
1
 10
65.271891
 20
13.767367
 30
0.0
 10
64.282571
 20
13.428562
 30
0.0
 10
63.672717
 20
12.622199
 30
0.0
 10
63.442328
 20
11.348279
 30
0.0
  0
SPLINE
  5
16b
100
AcDbEntity
  8
Vrstva_1
 62
7
100
AcDbSpline
 70
8
 71
3
 72
8
 73
4
 74
0
 40
0
 40
0
 40
0
 40
0
 40
1
 40
1
 40
1
 40
1
 10
63.442328
 20
11.348279
 30
0.0
 10
63.415222
 20
11.212754
 30
0.0
 10
63.401670
 20
11.063679
 30
0.0
 10
63.401670
 20
10.901054
 30
0.0
  0
SPLINE
  5
16c
100
AcDbEntity
  8
Vrstva_1
 62
7
100
AcDbSpline
 70
8
 71
3
 72
8
 73
4
 74
0
 40
0
 40
0
 40
0
 40
0
 40
1
 40
1
 40
1
 40
1
 10
63.401670
 20
10.901054
 30
0.0
 10
63.401670
 20
10.196334
 30
0.0
 10
63.550746
 20
9.369642
 30
0.0
 10
63.848897
 20
8.420977
 30
0.0
  0
SPLINE
  5
16d
100
AcDbEntity
  8
Vrstva_1
 62
7
100
AcDbSpline
 70
8
 71
3
 72
8
 73
4
 74
0
 40
0
 40
0
 40
0
 40
0
 40
1
 40
1
 40
1
 40
1
 10
63.848897
 20
8.420977
 30
0.0
 10
64.160600
 20
7.472317
 30
0.0
 10
64.465527
 20
6.889567
 30
0.0
 10
64.763678
 20
6.672727
 30
0.0
  0
SPLINE
  5
16e
100
AcDbEntity
  8
Vrstva_1
 62
7
100
AcDbSpline
 70
8
 71
3
 72
8
 73
4
 74
0
 40
0
 40
0
 40
0
 40
0
 40
1
 40
1
 40
1
 40
1
 10
64.763678
 20
6.672727
 30
0.0
 10
65.441294
 20
6.171292
 30
0.0
 10
66.051149
 20
5.940904
 30
0.0
 10
66.593242
 20
5.981564
 30
0.0
  0
SPLINE
  5
16f
100
AcDbEntity
  8
Vrstva_1
 62
7
100
AcDbSpline
 70
8
 71
3
 72
8
 73
4
 74
0
 40
0
 40
0
 40
0
 40
0
 40
1
 40
1
 40
1
 40
1
 10
66.593242
 20
5.981564
 30
0.0
 10
67.365724
 20
6.035769
 30
0.0
 10
67.982354
 20
6.408457
 30
0.0
 10
68.443133
 20
7.099627
 30
0.0
  0
SPLINE
  5
170
100
AcDbEntity
  8
Vrstva_1
 62
7
100
AcDbSpline
 70
8
 71
3
 72
8
 73
4
 74
0
 40
0
 40
0
 40
0
 40
0
 40
1
 40
1
 40
1
 40
1
 10
68.443133
 20
7.099627
 30
0.0
 10
68.795494
 20
7.628167
 30
0.0
 10
68.971674
 20
8.441307
 30
0.0
 10
68.971674
 20
9.539047
 30
0.0
  0
SPLINE
  5
171
100
AcDbEntity
  8
Vrstva_1
 62
7
100
AcDbSpline
 70
8
 71
3
 72
8
 73
4
 74
0
 40
0
 40
0
 40
0
 40
0
 40
1
 40
1
 40
1
 40
1
 10
68.971674
 20
9.539047
 30
0.0
 10
68.971674
 20
10.975592
 30
0.0
 10
68.781942
 20
11.978464
 30
0.0
 10
68.402477
 20
12.547664
 30
0.0
  0
LWPOLYLINE
  5
172
100
AcDbEntity
  8
Vrstva_1
 62
7
100
AcDbPolyline
 90
1
 70
1
 10
74.216423
 20
13.564079
 30
0.0
  0
SPLINE
  5
173
100
AcDbEntity
  8
Vrstva_1
 62
7
100
AcDbSpline
 70
8
 71
3
 72
8
 73
4
 74
0
 40
0
 40
0
 40
0
 40
0
 40
1
 40
1
 40
1
 40
1
 10
84.684955
 20
10.982369
 30
0.0
 10
84.441013
 20
10.142124
 30
0.0
 10
83.736292
 20
9.722002
 30
0.0
 10
82.570793
 20
9.722002
 30
0.0
  0
LWPOLYLINE
  5
174
100
AcDbEntity
  8
Vrstva_1
 62
7
100
AcDbPolyline
 90
1
 70
1
 10
68.402477
 20
12.547664
 30
0.0
  0
SPLINE
  5
175
100
AcDbEntity
  8
Vrstva_1
 62
7
100
AcDbSpline
 70
8
 71
3
 72
8
 73
4
 74
0
 40
0
 40
0
 40
0
 40
0
 40
1
 40
1
 40
1
 40
1
 10
82.570793
 20
9.722002
 30
0.0
 10
82.137118
 20
9.722002
 30
0.0
 10
81.384965
 20
9.810092
 30
0.0
 10
80.314331
 20
9.986272
 30
0.0
  0
SPLINE
  5
176
100
AcDbEntity
  8
Vrstva_1
 62
7
100
AcDbSpline
 70
8
 71
3
 72
8
 73
4
 74
0
 40
0
 40
0
 40
0
 40
0
 40
1
 40
1
 40
1
 40
1
 10
80.314331
 20
9.986272
 30
0.0
 10
79.365669
 20
10.135347
 30
0.0
 10
78.708381
 20
10.182779
 30
0.0
 10
78.342469
 20
10.128569
 30
0.0
  0
SPLINE
  5
177
100
AcDbEntity
  8
Vrstva_1
 62
7
100
AcDbSpline
 70
8
 71
3
 72
8
 73
4
 74
0
 40
0
 40
0
 40
0
 40
0
 40
1
 40
1
 40
1
 40
1
 10
78.342469
 20
10.128569
 30
0.0
 10
77.786824
 20
10.060809
 30
0.0
 10
77.509001
 20
9.762659
 30
0.0
 10
77.509001
 20
9.234119
 30
0.0
  0
SPLINE
  5
178
100
AcDbEntity
  8
Vrstva_1
 62
7
100
AcDbSpline
 70
8
 71
3
 72
8
 73
4
 74
0
 40
0
 40
0
 40
0
 40
0
 40
1
 40
1
 40
1
 40
1
 10
77.509001
 20
9.234119
 30
0.0
 10
77.509001
 20
9.125699
 30
0.0
 10
77.522554
 20
8.996952
 30
0.0
 10
77.549659
 20
8.847877
 30
0.0
  0
SPLINE
  5
179
100
AcDbEntity
  8
Vrstva_1
 62
7
100
AcDbSpline
 70
8
 71
3
 72
8
 73
4
 74
0
 40
0
 40
0
 40
0
 40
0
 40
1
 40
1
 40
1
 40
1
 10
77.549659
 20
8.847877
 30
0.0
 10
77.752944
 20
7.750137
 30
0.0
 10
78.132409
 20
7.140282
 30
0.0
 10
78.688054
 20
7.018312
 30
0.0
  0
SPLINE
  5
17a
100
AcDbEntity
  8
Vrstva_1
 62
7
100
AcDbSpline
 70
8
 71
3
 72
8
 73
4
 74
0
 40
0
 40
0
 40
0
 40
0
 40
1
 40
1
 40
1
 40
1
 10
78.688054
 20
7.018312
 30
0.0
 10
79.026862
 20
6.937002
 30
0.0
 10
79.311461
 20
6.896347
 30
0.0
 10
79.541850
 20
6.896347
 30
0.0
  0
SPLINE
  5
17b
100
AcDbEntity
  8
Vrstva_1
 62
7
100
AcDbSpline
 70
8
 71
3
 72
8
 73
4
 74
0
 40
0
 40
0
 40
0
 40
0
 40
1
 40
1
 40
1
 40
1
 10
79.541850
 20
6.896347
 30
0.0
 10
79.961972
 20
6.896347
 30
0.0
 10
80.266899
 20
7.052197
 30
0.0
 10
80.456632
 20
7.363897
 30
0.0
  0
SPLINE
  5
17c
100
AcDbEntity
  8
Vrstva_1
 62
7
100
AcDbSpline
 70
8
 71
3
 72
8
 73
4
 74
0
 40
0
 40
0
 40
0
 40
0
 40
1
 40
1
 40
1
 40
1
 10
80.456632
 20
7.363897
 30
0.0
 10
80.646364
 20
7.675602
 30
0.0
 10
80.842873
 20
7.987307
 30
0.0
 10
81.046157
 20
8.299012
 30
0.0
  0
SPLINE
  5
17d
100
AcDbEntity
  8
Vrstva_1
 62
7
100
AcDbSpline
 70
8
 71
3
 72
8
 73
4
 74
0
 40
0
 40
0
 40
0
 40
0
 40
1
 40
1
 40
1
 40
1
 10
81.046157
 20
8.299012
 30
0.0
 10
81.398518
 20
8.678477
 30
0.0
 10
81.967715
 20
8.929194
 30
0.0
 10
82.753750
 20
9.051164
 30
0.0
  0
SPLINE
  5
17e
100
AcDbEntity
  8
Vrstva_1
 62
7
100
AcDbSpline
 70
8
 71
3
 72
8
 73
4
 74
0
 40
0
 40
0
 40
0
 40
0
 40
1
 40
1
 40
1
 40
1
 10
82.753750
 20
9.051164
 30
0.0
 10
83.336500
 20
9.146029
 30
0.0
 10
83.973459
 20
8.739459
 30
0.0
 10
84.664627
 20
7.831454
 30
0.0
  0
SPLINE
  5
17f
100
AcDbEntity
  8
Vrstva_1
 62
7
100
AcDbSpline
 70
8
 71
3
 72
8
 73
4
 74
0
 40
0
 40
0
 40
0
 40
0
 40
1
 40
1
 40
1
 40
1
 10
84.664627
 20
7.831454
 30
0.0
 10
84.895016
 20
7.519749
 30
0.0
 10
85.030540
 20
7.221597
 30
0.0
 10
85.071196
 20
6.936997
 30
0.0
  0
SPLINE
  5
180
100
AcDbEntity
  8
Vrstva_1
 62
7
100
AcDbSpline
 70
8
 71
3
 72
8
 73
4
 74
0
 40
0
 40
0
 40
0
 40
0
 40
1
 40
1
 40
1
 40
1
 10
85.071196
 20
6.936997
 30
0.0
 10
85.084747
 20
6.774372
 30
0.0
 10
85.071194
 20
6.361027
 30
0.0
 10
85.030539
 20
5.696962
 30
0.0
  0
SPLINE
  5
181
100
AcDbEntity
  8
Vrstva_1
 62
7
100
AcDbSpline
 70
8
 71
3
 72
8
 73
4
 74
0
 40
0
 40
0
 40
0
 40
0
 40
1
 40
1
 40
1
 40
1
 10
85.030539
 20
5.696962
 30
0.0
 10
84.989884
 20
5.032897
 30
0.0
 10
84.352925
 20
4.551789
 30
0.0
 10
83.119662
 20
4.253639
 30
0.0
  0
SPLINE
  5
182
100
AcDbEntity
  8
Vrstva_1
 62
7
100
AcDbSpline
 70
8
 71
3
 72
8
 73
4
 74
0
 40
0
 40
0
 40
0
 40
0
 40
1
 40
1
 40
1
 40
1
 10
83.119662
 20
4.253639
 30
0.0
 10
82.292970
 20
4.050354
 30
0.0
 10
81.330756
 20
3.948712
 30
0.0
 10
80.233018
 20
3.948712
 30
0.0
  0
SPLINE
  5
183
100
AcDbEntity
  8
Vrstva_1
 62
7
100
AcDbSpline
 70
8
 71
3
 72
8
 73
4
 74
0
 40
0
 40
0
 40
0
 40
0
 40
1
 40
1
 40
1
 40
1
 10
80.233018
 20
3.948712
 30
0.0
 10
79.460535
 20
3.948712
 30
0.0
 10
78.701605
 20
4.091012
 30
0.0
 10
77.956228
 20
4.375612
 30
0.0
  0
SPLINE
  5
184
100
AcDbEntity
  8
Vrstva_1
 62
7
100
AcDbSpline
 70
8
 71
3
 72
8
 73
4
 74
0
 40
0
 40
0
 40
0
 40
0
 40
1
 40
1
 40
1
 40
1
 10
77.956228
 20
4.375612
 30
0.0
 10
77.129536
 20
4.687317
 30
0.0
 10
76.499353
 20
5.114214
 30
0.0
 10
76.065679
 20
5.656304
 30
0.0
  0
SPLINE
  5
185
100
AcDbEntity
  8
Vrstva_1
 62
7
100
AcDbSpline
 70
8
 71
3
 72
8
 73
4
 74
0
 40
0
 40
0
 40
0
 40
0
 40
1
 40
1
 40
1
 40
1
 10
76.065679
 20
5.656304
 30
0.0
 10
75.550691
 20
6.306814
 30
0.0
 10
75.205107
 20
6.794699
 30
0.0
 10
75.028927
 20
7.119959
 30
0.0
  0
SPLINE
  5
186
100
AcDbEntity
  8
Vrstva_1
 62
7
100
AcDbSpline
 70
8
 71
3
 72
8
 73
4
 74
0
 40
0
 40
0
 40
0
 40
0
 40
1
 40
1
 40
1
 40
1
 10
75.028927
 20
7.119959
 30
0.0
 10
74.676566
 20
7.756914
 30
0.0
 10
74.432625
 20
8.502292
 30
0.0
 10
74.297101
 20
9.356092
 30
0.0
  0
SPLINE
  5
187
100
AcDbEntity
  8
Vrstva_1
 62
7
100
AcDbSpline
 70
8
 71
3
 72
8
 73
4
 74
0
 40
0
 40
0
 40
0
 40
0
 40
1
 40
1
 40
1
 40
1
 10
74.297101
 20
9.356092
 30
0.0
 10
74.229340
 20
9.762662
 30
0.0
 10
74.195459
 20
10.142127
 30
0.0
 10
74.195459
 20
10.494487
 30
0.0
  0
SPLINE
  5
188
100
AcDbEntity
  8
Vrstva_1
 62
7
100
AcDbSpline
 70
8
 71
3
 72
8
 73
4
 74
0
 40
0
 40
0
 40
0
 40
0
 40
1
 40
1
 40
1
 40
1
 10
74.195459
 20
10.494487
 30
0.0
 10
74.195459
 20
11.632882
 30
0.0
 10
74.588476
 20
12.798379
 30
0.0
 10
75.374511
 20
13.990979
 30
0.0
  0
SPLINE
  5
189
100
AcDbEntity
  8
Vrstva_1
 62
7
100
AcDbSpline
 70
8
 71
3
 72
8
 73
4
 74
0
 40
0
 40
0
 40
0
 40
0
 40
1
 40
1
 40
1
 40
1
 10
75.374511
 20
13.990979
 30
0.0
 10
75.862394
 20
14.749909
 30
0.0
 10
76.661981
 20
15.400422
 30
0.0
 10
77.773271
 20
15.942517
 30
0.0
  0
SPLINE
  5
18a
100
AcDbEntity
  8
Vrstva_1
 62
7
100
AcDbSpline
 70
8
 71
3
 72
8
 73
4
 74
0
 40
0
 40
0
 40
0
 40
0
 40
1
 40
1
 40
1
 40
1
 10
77.773271
 20
15.942517
 30
0.0
 10
78.816800
 20
16.457507
 30
0.0
 10
79.690925
 20
16.687897
 30
0.0
 10
80.395646
 20
16.633687
 30
0.0
  0
SPLINE
  5
18b
100
AcDbEntity
  8
Vrstva_1
 62
7
100
AcDbSpline
 70
8
 71
3
 72
8
 73
4
 74
0
 40
0
 40
0
 40
0
 40
0
 40
1
 40
1
 40
1
 40
1
 10
80.395646
 20
16.633687
 30
0.0
 10
81.073262
 20
16.579477
 30
0.0
 10
81.784758
 20
16.389744
 30
0.0
 10
82.530136
 20
16.064489
 30
0.0
  0
SPLINE
  5
18c
100
AcDbEntity
  8
Vrstva_1
 62
7
100
AcDbSpline
 70
8
 71
3
 72
8
 73
4
 74
0
 40
0
 40
0
 40
0
 40
0
 40
1
 40
1
 40
1
 40
1
 10
82.530136
 20
16.064489
 30
0.0
 10
83.275513
 20
15.752784
 30
0.0
 10
83.804054
 20
15.393647
 30
0.0
 10
84.115757
 20
14.987077
 30
0.0
  0
SPLINE
  5
18d
100
AcDbEntity
  8
Vrstva_1
 62
7
100
AcDbSpline
 70
8
 71
3
 72
8
 73
4
 74
0
 40
0
 40
0
 40
0
 40
0
 40
1
 40
1
 40
1
 40
1
 10
84.115757
 20
14.987077
 30
0.0
 10
84.712059
 20
14.201042
 30
0.0
 10
85.010210
 20
13.448889
 30
0.0
 10
85.010210
 20
12.730619
 30
0.0
  0
SPLINE
  5
18e
100
AcDbEntity
  8
Vrstva_1
 62
7
100
AcDbSpline
 70
8
 71
3
 72
8
 73
4
 74
0
 40
0
 40
0
 40
0
 40
0
 40
1
 40
1
 40
1
 40
1
 10
85.010210
 20
12.730619
 30
0.0
 10
85.010210
 20
12.324049
 30
0.0
 10
84.901792
 20
11.741299
 30
0.0
 10
84.684955
 20
10.982369
 30
0.0
  0
LWPOLYLINE
  5
18f
100
AcDbEntity
  8
Vrstva_1
 62
7
100
AcDbPolyline
 90
1
 70
1
 10
82.570793
 20
9.722002
 30
0.0
  0
SPLINE
  5
190
100
AcDbEntity
  8
Vrstva_1
 62
7
100
AcDbSpline
 70
8
 71
3
 72
8
 73
4
 74
0
 40
0
 40
0
 40
0
 40
0
 40
1
 40
1
 40
1
 40
1
 10
82.123566
 20
12.730619
 30
0.0
 10
82.123566
 20
13.110084
 30
0.0
 10
82.021924
 20
13.455667
 30
0.0
 10
81.818639
 20
13.767367
 30
0.0
  0
SPLINE
  5
191
100
AcDbEntity
  8
Vrstva_1
 62
7
100
AcDbSpline
 70
8
 71
3
 72
8
 73
4
 74
0
 40
0
 40
0
 40
0
 40
0
 40
1
 40
1
 40
1
 40
1
 10
81.818639
 20
13.767367
 30
0.0
 10
81.506936
 20
14.255252
 30
0.0
 10
80.917410
 20
14.539852
 30
0.0
 10
80.050061
 20
14.621167
 30
0.0
  0
SPLINE
  5
192
100
AcDbEntity
  8
Vrstva_1
 62
7
100
AcDbSpline
 70
8
 71
3
 72
8
 73
4
 74
0
 40
0
 40
0
 40
0
 40
0
 40
1
 40
1
 40
1
 40
1
 10
80.050061
 20
14.621167
 30
0.0
 10
79.169160
 20
14.702482
 30
0.0
 10
78.511873
 20
14.370449
 30
0.0
 10
78.078199
 20
13.625069
 30
0.0
  0
SPLINE
  5
193
100
AcDbEntity
  8
Vrstva_1
 62
7
100
AcDbSpline
 70
8
 71
3
 72
8
 73
4
 74
0
 40
0
 40
0
 40
0
 40
0
 40
1
 40
1
 40
1
 40
1
 10
78.078199
 20
13.625069
 30
0.0
 10
77.820705
 20
13.191394
 30
0.0
 10
77.691958
 20
12.818707
 30
0.0
 10
77.691958
 20
12.507007
 30
0.0
  0
SPLINE
  5
194
100
AcDbEntity
  8
Vrstva_1
 62
7
100
AcDbSpline
 70
8
 71
3
 72
8
 73
4
 74
0
 40
0
 40
0
 40
0
 40
0
 40
1
 40
1
 40
1
 40
1
 10
77.691958
 20
12.507007
 30
0.0
 10
77.691958
 20
12.208852
 30
0.0
 10
77.800376
 20
11.931029
 30
0.0
 10
78.017213
 20
11.673539
 30
0.0
  0
SPLINE
  5
195
100
AcDbEntity
  8
Vrstva_1
 62
7
100
AcDbSpline
 70
8
 71
3
 72
8
 73
4
 74
0
 40
0
 40
0
 40
0
 40
0
 40
1
 40
1
 40
1
 40
1
 10
78.017213
 20
11.673539
 30
0.0
 10
78.423783
 20
11.185654
 30
0.0
 10
79.026861
 20
10.941712
 30
0.0
 10
79.826448
 20
10.941712
 30
0.0
  0
SPLINE
  5
196
100
AcDbEntity
  8
Vrstva_1
 62
7
100
AcDbSpline
 70
8
 71
3
 72
8
 73
4
 74
0
 40
0
 40
0
 40
0
 40
0
 40
1
 40
1
 40
1
 40
1
 10
79.826448
 20
10.941712
 30
0.0
 10
80.449854
 20
10.941712
 30
0.0
 10
80.964843
 20
11.077234
 30
0.0
 10
81.371413
 20
11.348279
 30
0.0
  0
SPLINE
  5
197
100
AcDbEntity
  8
Vrstva_1
 62
7
100
AcDbSpline
 70
8
 71
3
 72
8
 73
4
 74
0
 40
0
 40
0
 40
0
 40
0
 40
1
 40
1
 40
1
 40
1
 10
81.371413
 20
11.348279
 30
0.0
 10
81.872848
 20
11.673534
 30
0.0
 10
82.123566
 20
12.134314
 30
0.0
 10
82.123566
 20
12.730619
 30
0.0
  0
LWPOLYLINE
  5
198
100
AcDbEntity
  8
Vrstva_1
 62
7
100
AcDbPolyline
 90
1
 70
1
 10
84.684955
 20
10.982369
 30
0.0
  0
SPLINE
  5
199
100
AcDbEntity
  8
Vrstva_1
 62
7
100
AcDbSpline
 70
8
 71
3
 72
8
 73
4
 74
0
 40
0
 40
0
 40
0
 40
0
 40
1
 40
1
 40
1
 40
1
 10
94.444845
 20
16.572697
 30
0.0
 10
94.742996
 20
16.288102
 30
0.0
 10
94.892072
 20
15.820547
 30
0.0
 10
94.892072
 20
15.170032
 30
0.0
  0
LWPOLYLINE
  5
19a
100
AcDbEntity
  8
Vrstva_1
 62
7
100
AcDbPolyline
 90
1
 70
1
 10
82.123566
 20
12.730619
 30
0.0
  0
SPLINE
  5
19b
100
AcDbEntity
  8
Vrstva_1
 62
7
100
AcDbSpline
 70
8
 71
3
 72
8
 73
4
 74
0
 40
0
 40
0
 40
0
 40
0
 40
1
 40
1
 40
1
 40
1
 10
94.892072
 20
15.170032
 30
0.0
 10
94.892072
 20
14.478867
 30
0.0
 10
94.742996
 20
13.923222
 30
0.0
 10
94.444845
 20
13.503097
 30
0.0
  0
SPLINE
  5
19c
100
AcDbEntity
  8
Vrstva_1
 62
7
100
AcDbSpline
 70
8
 71
3
 72
8
 73
4
 74
0
 40
0
 40
0
 40
0
 40
0
 40
1
 40
1
 40
1
 40
1
 10
94.444845
 20
13.503097
 30
0.0
 10
94.106037
 20
13.028767
 30
0.0
 10
93.699467
 20
12.947454
 30
0.0
 10
93.225136
 20
13.259159
 30
0.0
  0
SPLINE
  5
19d
100
AcDbEntity
  8
Vrstva_1
 62
7
100
AcDbSpline
 70
8
 71
3
 72
8
 73
4
 74
0
 40
0
 40
0
 40
0
 40
0
 40
1
 40
1
 40
1
 40
1
 10
93.225136
 20
13.259159
 30
0.0
 10
92.127398
 20
14.004534
 30
0.0
 10
91.192288
 20
14.377222
 30
0.0
 10
90.419806
 20
14.377222
 30
0.0
  0
SPLINE
  5
19e
100
AcDbEntity
  8
Vrstva_1
 62
7
100
AcDbSpline
 70
8
 71
3
 72
8
 73
4
 74
0
 40
0
 40
0
 40
0
 40
0
 40
1
 40
1
 40
1
 40
1
 10
90.419806
 20
14.377222
 30
0.0
 10
89.132335
 20
14.377222
 30
0.0
 10
88.420839
 20
13.401454
 30
0.0
 10
88.285316
 20
11.449919
 30
0.0
  0
SPLINE
  5
19f
100
AcDbEntity
  8
Vrstva_1
 62
7
100
AcDbSpline
 70
8
 71
3
 72
8
 73
4
 74
0
 40
0
 40
0
 40
0
 40
0
 40
1
 40
1
 40
1
 40
1
 10
88.285316
 20
11.449919
 30
0.0
 10
88.258211
 20
10.948484
 30
0.0
 10
88.332748
 20
10.352184
 30
0.0
 10
88.508929
 20
9.661019
 30
0.0
  0
SPLINE
  5
1a0
100
AcDbEntity
  8
Vrstva_1
 62
7
100
AcDbSpline
 70
8
 71
3
 72
8
 73
4
 74
0
 40
0
 40
0
 40
0
 40
0
 40
1
 40
1
 40
1
 40
1
 10
88.508929
 20
9.661019
 30
0.0
 10
88.847737
 20
8.468414
 30
0.0
 10
89.179769
 20
7.275809
 30
0.0
 10
89.505024
 20
6.083204
 30
0.0
  0
SPLINE
  5
1a1
100
AcDbEntity
  8
Vrstva_1
 62
7
100
AcDbSpline
 70
8
 71
3
 72
8
 73
4
 74
0
 40
0
 40
0
 40
0
 40
0
 40
1
 40
1
 40
1
 40
1
 10
89.505024
 20
6.083204
 30
0.0
 10
89.532129
 20
5.988339
 30
0.0
 10
89.545682
 20
5.893472
 30
0.0
 10
89.545682
 20
5.798602
 30
0.0
  0
SPLINE
  5
1a2
100
AcDbEntity
  8
Vrstva_1
 62
7
100
AcDbSpline
 70
8
 71
3
 72
8
 73
4
 74
0
 40
0
 40
0
 40
0
 40
0
 40
1
 40
1
 40
1
 40
1
 10
89.545682
 20
5.798602
 30
0.0
 10
89.545682
 20
5.310722
 30
0.0
 10
89.247530
 20
4.897377
 30
0.0
 10
88.651229
 20
4.558567
 30
0.0
  0
SPLINE
  5
1a3
100
AcDbEntity
  8
Vrstva_1
 62
7
100
AcDbSpline
 70
8
 71
3
 72
8
 73
4
 74
0
 40
0
 40
0
 40
0
 40
0
 40
1
 40
1
 40
1
 40
1
 10
88.651229
 20
4.558567
 30
0.0
 10
88.136240
 20
4.260417
 30
0.0
 10
87.689014
 20
4.138447
 30
0.0
 10
87.309549
 20
4.192657
 30
0.0
  0
SPLINE
  5
1a4
100
AcDbEntity
  8
Vrstva_1
 62
7
100
AcDbSpline
 70
8
 71
3
 72
8
 73
4
 74
0
 40
0
 40
0
 40
0
 40
0
 40
1
 40
1
 40
1
 40
1
 10
87.309549
 20
4.192657
 30
0.0
 10
85.954317
 20
4.409492
 30
0.0
 10
85.276701
 20
5.459797
 30
0.0
 10
85.276701
 20
7.343572
 30
0.0
  0
LWPOLYLINE
  5
1a5
100
AcDbEntity
  8
Vrstva_1
 62
7
100
AcDbPolyline
 90
1
 70
1
 10
94.892072
 20
15.170032
 30
0.0
  0
SPLINE
  5
1a6
100
AcDbEntity
  8
Vrstva_1
 62
7
100
AcDbSpline
 70
8
 71
3
 72
8
 73
4
 74
0
 40
0
 40
0
 40
0
 40
0
 40
1
 40
1
 40
1
 40
1
 10
85.276701
 20
7.343572
 30
0.0
 10
85.276701
 20
8.183812
 30
0.0
 10
85.466434
 20
9.566147
 30
0.0
 10
85.845899
 20
11.490577
 30
0.0
  0
SPLINE
  5
1a7
100
AcDbEntity
  8
Vrstva_1
 62
7
100
AcDbSpline
 70
8
 71
3
 72
8
 73
4
 74
0
 40
0
 40
0
 40
0
 40
0
 40
1
 40
1
 40
1
 40
1
 10
85.845899
 20
11.490577
 30
0.0
 10
86.171154
 20
13.130412
 30
0.0
 10
86.272796
 20
14.153612
 30
0.0
 10
86.150825
 20
14.560177
 30
0.0
  0
SPLINE
  5
1a8
100
AcDbEntity
  8
Vrstva_1
 62
7
100
AcDbSpline
 70
8
 71
3
 72
8
 73
4
 74
0
 40
0
 40
0
 40
0
 40
0
 40
1
 40
1
 40
1
 40
1
 10
86.150825
 20
14.560177
 30
0.0
 10
86.015302
 20
15.007407
 30
0.0
 10
85.947541
 20
15.434307
 30
0.0
 10
85.947541
 20
15.840877
 30
0.0
  0
LWPOLYLINE
  5
1a9
100
AcDbEntity
  8
Vrstva_1
 62
7
100
AcDbPolyline
 90
1
 70
1
 10
85.276701
 20
7.343572
 30
0.0
  0
SPLINE
  5
1aa
100
AcDbEntity
  8
Vrstva_1
 62
7
100
AcDbSpline
 70
8
 71
3
 72
8
 73
4
 74
0
 40
0
 40
0
 40
0
 40
0
 40
1
 40
1
 40
1
 40
1
 10
85.947541
 20
15.840877
 30
0.0
 10
85.947541
 20
16.803092
 30
0.0
 10
86.266020
 20
17.460379
 30
0.0
 10
86.902979
 20
17.812739
 30
0.0
  0
SPLINE
  5
1ab
100
AcDbEntity
  8
Vrstva_1
 62
7
100
AcDbSpline
 70
8
 71
3
 72
8
 73
4
 74
0
 40
0
 40
0
 40
0
 40
0
 40
1
 40
1
 40
1
 40
1
 10
86.902979
 20
17.812739
 30
0.0
 10
87.512834
 20
18.165099
 30
0.0
 10
88.095584
 20
18.077009
 30
0.0
 10
88.651229
 20
17.548469
 30
0.0
  0
SPLINE
  5
1ac
100
AcDbEntity
  8
Vrstva_1
 62
7
100
AcDbSpline
 70
8
 71
3
 72
8
 73
4
 74
0
 40
0
 40
0
 40
0
 40
0
 40
1
 40
1
 40
1
 40
1
 10
88.651229
 20
17.548469
 30
0.0
 10
88.868066
 20
17.331629
 30
0.0
 10
88.976484
 20
17.141897
 30
0.0
 10
88.976484
 20
16.979272
 30
0.0
  0
SPLINE
  5
1ad
100
AcDbEntity
  8
Vrstva_1
 62
7
100
AcDbSpline
 70
8
 71
3
 72
8
 73
4
 74
0
 40
0
 40
0
 40
0
 40
0
 40
1
 40
1
 40
1
 40
1
 10
88.976484
 20
16.979272
 30
0.0
 10
88.976484
 20
16.857297
 30
0.0
 10
88.888394
 20
16.701444
 30
0.0
 10
88.712214
 20
16.511714
 30
0.0
  0
SPLINE
  5
1ae
100
AcDbEntity
  8
Vrstva_1
 62
7
100
AcDbSpline
 70
8
 71
3
 72
8
 73
4
 74
0
 40
0
 40
0
 40
0
 40
0
 40
1
 40
1
 40
1
 40
1
 10
88.712214
 20
16.511714
 30
0.0
 10
88.536034
 20
16.321979
 30
0.0
 10
88.447944
 20
16.172904
 30
0.0
 10
88.447944
 20
16.064489
 30
0.0
  0
SPLINE
  5
1af
100
AcDbEntity
  8
Vrstva_1
 62
7
100
AcDbSpline
 70
8
 71
3
 72
8
 73
4
 74
0
 40
0
 40
0
 40
0
 40
0
 40
1
 40
1
 40
1
 40
1
 10
88.447944
 20
16.064489
 30
0.0
 10
88.447944
 20
15.793439
 30
0.0
 10
88.583467
 20
15.657914
 30
0.0
 10
88.854514
 20
15.657914
 30
0.0
  0
SPLINE
  5
1b0
100
AcDbEntity
  8
Vrstva_1
 62
7
100
AcDbSpline
 70
8
 71
3
 72
8
 73
4
 74
0
 40
0
 40
0
 40
0
 40
0
 40
1
 40
1
 40
1
 40
1
 10
88.854514
 20
15.657914
 30
0.0
 10
89.084903
 20
15.657914
 30
0.0
 10
89.572787
 20
15.874752
 30
0.0
 10
90.318164
 20
16.308427
 30
0.0
  0
SPLINE
  5
1b1
100
AcDbEntity
  8
Vrstva_1
 62
7
100
AcDbSpline
 70
8
 71
3
 72
8
 73
4
 74
0
 40
0
 40
0
 40
0
 40
0
 40
1
 40
1
 40
1
 40
1
 10
90.318164
 20
16.308427
 30
0.0
 10
91.117751
 20
16.782762
 30
0.0
 10
91.693725
 20
17.053809
 30
0.0
 10
92.046085
 20
17.121569
 30
0.0
  0
SPLINE
  5
1b2
100
AcDbEntity
  8
Vrstva_1
 62
7
100
AcDbSpline
 70
8
 71
3
 72
8
 73
4
 74
0
 40
0
 40
0
 40
0
 40
0
 40
1
 40
1
 40
1
 40
1
 10
92.046085
 20
17.121569
 30
0.0
 10
92.411997
 20
17.189329
 30
0.0
 10
92.723701
 20
17.223209
 30
0.0
 10
92.981195
 20
17.223209
 30
0.0
  0
SPLINE
  5
1b3
100
AcDbEntity
  8
Vrstva_1
 62
7
100
AcDbSpline
 70
8
 71
3
 72
8
 73
4
 74
0
 40
0
 40
0
 40
0
 40
0
 40
1
 40
1
 40
1
 40
1
 10
92.981195
 20
17.223209
 30
0.0
 10
93.509736
 20
17.223209
 30
0.0
 10
93.997619
 20
17.006372
 30
0.0
 10
94.444845
 20
16.572697
 30
0.0
  0
LWPOLYLINE
  5
1b4
100
AcDbEntity
  8
Vrstva_1
 62
7
100
AcDbPolyline
 90
1
 70
1
 10
85.947541
 20
15.840877
 30
0.0
  0
SPLINE
  5
1b5
100
AcDbEntity
  8
Vrstva_1
 62
7
100
AcDbSpline
 70
8
 71
3
 72
8
 73
4
 74
0
 40
0
 40
0
 40
0
 40
0
 40
1
 40
1
 40
1
 40
1
 10
95.270479
 20
11.020709
 30
0.0
 10
95.305909
 20
11.456024
 30
0.0
 10
95.344437
 20
11.923889
 30
0.0
 10
95.482910
 20
12.341302
 30
0.0
  0
SPLINE
  5
1b6
100
AcDbEntity
  8
Vrstva_1
 62
7
100
AcDbSpline
 70
8
 71
3
 72
8
 73
4
 74
0
 40
0
 40
0
 40
0
 40
0
 40
1
 40
1
 40
1
 40
1
 10
95.482910
 20
12.341302
 30
0.0
 10
95.554002
 20
12.621367
 30
0.0
 10
95.692822
 20
12.877349
 30
0.0
 10
95.852354
 20
13.107802
 30
0.0
  0
SPLINE
  5
1b7
100
AcDbEntity
  8
Vrstva_1
 62
7
100
AcDbSpline
 70
8
 71
3
 72
8
 73
4
 74
0
 40
0
 40
0
 40
0
 40
0
 40
1
 40
1
 40
1
 40
1
 10
95.852354
 20
13.107802
 30
0.0
 10
96.004461
 20
13.345979
 30
0.0
 10
96.355674
 20
13.485592
 30
0.0
 10
96.646649
 20
13.373234
 30
0.0
  0
SPLINE
  5
1b8
100
AcDbEntity
  8
Vrstva_1
 62
7
100
AcDbSpline
 70
8
 71
3
 72
8
 73
4
 74
0
 40
0
 40
0
 40
0
 40
0
 40
1
 40
1
 40
1
 40
1
 10
96.646649
 20
13.373234
 30
0.0
 10
96.846881
 20
13.293592
 30
0.0
 10
97.019391
 20
13.137322
 30
0.0
 10
97.145396
 20
12.960044
 30
0.0
  0
SPLINE
  5
1b9
100
AcDbEntity
  8
Vrstva_1
 62
7
100
AcDbSpline
 70
8
 71
3
 72
8
 73
4
 74
0
 40
0
 40
0
 40
0
 40
0
 40
1
 40
1
 40
1
 40
1
 10
97.145396
 20
12.960044
 30
0.0
 10
97.339418
 20
12.734557
 30
0.0
 10
97.433793
 20
12.444037
 30
0.0
 10
97.578269
 20
12.193544
 30
0.0
  0
SPLINE
  5
1ba
100
AcDbEntity
  8
Vrstva_1
 62
7
100
AcDbSpline
 70
8
 71
3
 72
8
 73
4
 74
0
 40
0
 40
0
 40
0
 40
0
 40
1
 40
1
 40
1
 40
1
 10
97.578269
 20
12.193544
 30
0.0
 10
97.737066
 20
11.871922
 30
0.0
 10
97.825097
 20
11.517659
 30
0.0
 10
97.931046
 20
11.181149
 30
0.0
  0
SPLINE
  5
1bb
100
AcDbEntity
  8
Vrstva_1
 62
7
100
AcDbSpline
 70
8
 71
3
 72
8
 73
4
 74
0
 40
0
 40
0
 40
0
 40
0
 40
1
 40
1
 40
1
 40
1
 10
97.931046
 20
11.181149
 30
0.0
 10
98.082143
 20
10.435904
 30
0.0
 10
97.884149
 20
9.740354
 30
0.0
 10
97.273849
 20
9.407572
 30
0.0
  0
SPLINE
  5
1bc
100
AcDbEntity
  8
Vrstva_1
 62
7
100
AcDbSpline
 70
8
 71
3
 72
8
 73
4
 74
0
 40
0
 40
0
 40
0
 40
0
 40
1
 40
1
 40
1
 40
1
 10
97.273849
 20
9.407572
 30
0.0
 10
96.922465
 20
9.197669
 30
0.0
 10
96.424967
 20
9.165532
 30
0.0
 10
96.037072
 20
9.320647
 30
0.0
  0
SPLINE
  5
1bd
100
AcDbEntity
  8
Vrstva_1
 62
7
100
AcDbSpline
 70
8
 71
3
 72
8
 73
4
 74
0
 40
0
 40
0
 40
0
 40
0
 40
1
 40
1
 40
1
 40
1
 10
96.037072
 20
9.320647
 30
0.0
 10
95.767215
 20
9.422624
 30
0.0
 10
95.595426
 20
9.657952
 30
0.0
 10
95.457257
 20
9.894044
 30
0.0
  0
SPLINE
  5
1be
100
AcDbEntity
  8
Vrstva_1
 62
7
100
AcDbSpline
 70
8
 71
3
 72
8
 73
4
 74
0
 40
0
 40
0
 40
0
 40
0
 40
1
 40
1
 40
1
 40
1
 10
95.457257
 20
9.894044
 30
0.0
 10
95.277485
 20
10.239832
 30
0.0
 10
95.197404
 20
10.608367
 30
0.0
 10
95.256234
 20
11.009452
 30
0.0
  0
LWPOLYLINE
  5
1bf
100
AcDbEntity
  8
Vrstva_1
 62
7
100
AcDbPolyline
 90
1
 70
1
 10
94.444845
 20
16.572697
 30
0.0
  0
SPLINE
  5
1c0
100
AcDbEntity
  8
Vrstva_1
 62
7
100
AcDbSpline
 70
8
 71
3
 72
8
 73
4
 74
0
 40
0
 40
0
 40
0
 40
0
 40
1
 40
1
 40
1
 40
1
 10
100.941992
 20
11.567392
 30
0.0
 10
100.829975
 20
11.565892
 30
0.0
 10
100.718751
 20
11.562892
 30
0.0
 10
100.609470
 20
11.558542
 30
0.0
  0
SPLINE
  5
1c1
100
AcDbEntity
  8
Vrstva_1
 62
7
100
AcDbSpline
 70
8
 71
3
 72
8
 73
4
 74
0
 40
0
 40
0
 40
0
 40
0
 40
1
 40
1
 40
1
 40
1
 10
100.609470
 20
11.558542
 30
0.0
 10
99.926892
 20
11.522467
 30
0.0
 10
99.165349
 20
11.368087
 30
0.0
 10
98.704777
 20
10.821262
 30
0.0
  0
SPLINE
  5
1c2
100
AcDbEntity
  8
Vrstva_1
 62
7
100
AcDbSpline
 70
8
 71
3
 72
8
 73
4
 74
0
 40
0
 40
0
 40
0
 40
0
 40
1
 40
1
 40
1
 40
1
 10
98.704777
 20
10.821262
 30
0.0
 10
98.427794
 20
10.444132
 30
0.0
 10
98.276477
 20
9.988417
 30
0.0
 10
97.965289
 20
9.639787
 30
0.0
  0
SPLINE
  5
1c3
100
AcDbEntity
  8
Vrstva_1
 62
7
100
AcDbSpline
 70
8
 71
3
 72
8
 73
4
 74
0
 40
0
 40
0
 40
0
 40
0
 40
1
 40
1
 40
1
 40
1
 10
97.965289
 20
9.639787
 30
0.0
 10
97.479727
 20
9.273179
 30
0.0
 10
96.938431
 20
8.984399
 30
0.0
 10
96.436132
 20
8.636707
 30
0.0
  0
SPLINE
  5
1c4
100
AcDbEntity
  8
Vrstva_1
 62
7
100
AcDbSpline
 70
8
 71
3
 72
8
 73
4
 74
0
 40
0
 40
0
 40
0
 40
0
 40
1
 40
1
 40
1
 40
1
 10
96.436132
 20
8.636707
 30
0.0
 10
95.883848
 20
8.277464
 30
0.0
 10
95.436808
 20
7.730422
 30
0.0
 10
95.324143
 20
7.068127
 30
0.0
  0
SPLINE
  5
1c5
100
AcDbEntity
  8
Vrstva_1
 62
7
100
AcDbSpline
 70
8
 71
3
 72
8
 73
4
 74
0
 40
0
 40
0
 40
0
 40
0
 40
1
 40
1
 40
1
 40
1
 10
95.324143
 20
7.068127
 30
0.0
 10
95.228845
 20
6.640237
 30
0.0
 10
95.374468
 20
6.181094
 30
0.0
 10
95.521836
 20
5.779672
 30
0.0
  0
SPLINE
  5
1c6
100
AcDbEntity
  8
Vrstva_1
 62
7
100
AcDbSpline
 70
8
 71
3
 72
8
 73
4
 74
0
 40
0
 40
0
 40
0
 40
0
 40
1
 40
1
 40
1
 40
1
 10
95.521836
 20
5.779672
 30
0.0
 10
95.713580
 20
5.124614
 30
0.0
 10
96.187394
 20
4.518029
 30
0.0
 10
96.875633
 20
4.358872
 30
0.0
  0
SPLINE
  5
1c7
100
AcDbEntity
  8
Vrstva_1
 62
7
100
AcDbSpline
 70
8
 71
3
 72
8
 73
4
 74
0
 40
0
 40
0
 40
0
 40
0
 40
1
 40
1
 40
1
 40
1
 10
96.875633
 20
4.358872
 30
0.0
 10
97.641330
 20
4.201957
 30
0.0
 10
98.371157
 20
4.569502
 30
0.0
 10
99.109264
 20
4.698007
 30
0.0
  0
SPLINE
  5
1c8
100
AcDbEntity
  8
Vrstva_1
 62
7
100
AcDbSpline
 70
8
 71
3
 72
8
 73
4
 74
0
 40
0
 40
0
 40
0
 40
0
 40
1
 40
1
 40
1
 40
1
 10
99.109264
 20
4.698007
 30
0.0
 10
99.206794
 20
4.687657
 30
0.0
 10
99.304403
 20
4.673107
 30
0.0
 10
99.402081
 20
4.657507
 30
0.0
  0
SPLINE
  5
1c9
100
AcDbEntity
  8
Vrstva_1
 62
7
100
AcDbSpline
 70
8
 71
3
 72
8
 73
4
 74
0
 40
0
 40
0
 40
0
 40
0
 40
1
 40
1
 40
1
 40
1
 10
99.402081
 20
4.657507
 30
0.0
 10
99.347436
 20
4.747334
 30
0.0
 10
99.318261
 20
4.843087
 30
0.0
 10
99.318261
 20
4.945642
 30
0.0
  0
SPLINE
  5
1ca
100
AcDbEntity
  8
Vrstva_1
 62
7
100
AcDbSpline
 70
8
 71
3
 72
8
 73
4
 74
0
 40
0
 40
0
 40
0
 40
0
 40
1
 40
1
 40
1
 40
1
 10
99.318261
 20
4.945642
 30
0.0
 10
99.318261
 20
5.008942
 30
0.0
 10
99.334048
 20
5.077724
 30
0.0
 10
99.365684
 20
5.151607
 30
0.0
  0
SPLINE
  5
1cb
100
AcDbEntity
  8
Vrstva_1
 62
7
100
AcDbSpline
 70
8
 71
3
 72
8
 73
4
 74
0
 40
0
 40
0
 40
0
 40
0
 40
1
 40
1
 40
1
 40
1
 10
99.365684
 20
5.151607
 30
0.0
 10
99.597871
 20
5.742644
 30
0.0
 10
99.914485
 20
6.111974
 30
0.0
 10
100.315549
 20
6.259732
 30
0.0
  0
SPLINE
  5
1cc
100
AcDbEntity
  8
Vrstva_1
 62
7
100
AcDbSpline
 70
8
 71
3
 72
8
 73
4
 74
0
 40
0
 40
0
 40
0
 40
0
 40
1
 40
1
 40
1
 40
1
 10
100.315549
 20
6.259732
 30
0.0
 10
100.442200
 20
6.301957
 30
0.0
 10
100.933014
 20
6.349237
 30
0.0
 10
101.787909
 20
6.402007
 30
0.0
  0
SPLINE
  5
1cd
100
AcDbEntity
  8
Vrstva_1
 62
7
100
AcDbSpline
 70
8
 71
3
 72
8
 73
4
 74
0
 40
0
 40
0
 40
0
 40
0
 40
1
 40
1
 40
1
 40
1
 10
101.787909
 20
6.402007
 30
0.0
 10
101.834709
 20
6.405007
 30
0.0
 10
101.880549
 20
6.407257
 30
0.0
 10
101.924942
 20
6.408007
 30
0.0
  0
SPLINE
  5
1ce
100
AcDbEntity
  8
Vrstva_1
 62
7
100
AcDbSpline
 70
8
 71
3
 72
8
 73
4
 74
0
 40
0
 40
0
 40
0
 40
0
 40
1
 40
1
 40
1
 40
1
 10
101.924942
 20
6.408007
 30
0.0
 10
102.590979
 20
6.417307
 30
0.0
 10
102.983266
 20
6.124889
 30
0.0
 10
103.102007
 20
5.531212
 30
0.0
  0
SPLINE
  5
1cf
100
AcDbEntity
  8
Vrstva_1
 62
7
100
AcDbSpline
 70
8
 71
3
 72
8
 73
4
 74
0
 40
0
 40
0
 40
0
 40
0
 40
1
 40
1
 40
1
 40
1
 10
103.102007
 20
5.531212
 30
0.0
 10
103.112357
 20
5.467912
 30
0.0
 10
103.117681
 20
5.399399
 30
0.0
 10
103.117681
 20
5.325524
 30
0.0
  0
SPLINE
  5
1d0
100
AcDbEntity
  8
Vrstva_1
 62
7
100
AcDbSpline
 70
8
 71
3
 72
8
 73
4
 74
0
 40
0
 40
0
 40
0
 40
0
 40
1
 40
1
 40
1
 40
1
 10
103.117681
 20
5.325524
 30
0.0
 10
103.117681
 20
5.079719
 30
0.0
 10
103.070881
 20
4.865609
 30
0.0
 10
102.978167
 20
4.682264
 30
0.0
  0
SPLINE
  5
1d1
100
AcDbEntity
  8
Vrstva_1
 62
7
100
AcDbSpline
 70
8
 71
3
 72
8
 73
4
 74
0
 40
0
 40
0
 40
0
 40
0
 40
1
 40
1
 40
1
 40
1
 10
102.978167
 20
4.682264
 30
0.0
 10
103.540561
 20
4.599292
 30
0.0
 10
104.066664
 20
4.312342
 30
0.0
 10
104.647944
 20
4.319684
 30
0.0
  0
SPLINE
  5
1d2
100
AcDbEntity
  8
Vrstva_1
 62
7
100
AcDbSpline
 70
8
 71
3
 72
8
 73
4
 74
0
 40
0
 40
0
 40
0
 40
0
 40
1
 40
1
 40
1
 40
1
 10
104.647944
 20
4.319684
 30
0.0
 10
105.256846
 20
4.274759
 30
0.0
 10
105.844547
 20
4.586609
 30
0.0
 10
106.172964
 20
5.096947
 30
0.0
  0
SPLINE
  5
1d3
100
AcDbEntity
  8
Vrstva_1
 62
7
100
AcDbSpline
 70
8
 71
3
 72
8
 73
4
 74
0
 40
0
 40
0
 40
0
 40
0
 40
1
 40
1
 40
1
 40
1
 10
106.172964
 20
5.096947
 30
0.0
 10
106.479136
 20
5.623522
 30
0.0
 10
106.713932
 20
6.232814
 30
0.0
 10
106.695736
 20
6.850822
 30
0.0
  0
SPLINE
  5
1d4
100
AcDbEntity
  8
Vrstva_1
 62
7
100
AcDbSpline
 70
8
 71
3
 72
8
 73
4
 74
0
 40
0
 40
0
 40
0
 40
0
 40
1
 40
1
 40
1
 40
1
 10
106.695736
 20
6.850822
 30
0.0
 10
106.694237
 20
7.641712
 30
0.0
 10
106.116099
 20
8.279969
 30
0.0
 10
105.494964
 20
8.693752
 30
0.0
  0
SPLINE
  5
1d5
100
AcDbEntity
  8
Vrstva_1
 62
7
100
AcDbSpline
 70
8
 71
3
 72
8
 73
4
 74
0
 40
0
 40
0
 40
0
 40
0
 40
1
 40
1
 40
1
 40
1
 10
105.494964
 20
8.693752
 30
0.0
 10
105.044409
 20
9.010124
 30
0.0
 10
104.558439
 20
9.254624
 30
0.0
 10
104.127932
 20
9.598394
 30
0.0
  0
SPLINE
  5
1d6
100
AcDbEntity
  8
Vrstva_1
 62
7
100
AcDbSpline
 70
8
 71
3
 72
8
 73
4
 74
0
 40
0
 40
0
 40
0
 40
0
 40
1
 40
1
 40
1
 40
1
 10
104.127932
 20
9.598394
 30
0.0
 10
103.678554
 20
9.964477
 30
0.0
 10
103.577184
 20
10.581622
 30
0.0
 10
103.171727
 20
10.981147
 30
0.0
  0
SPLINE
  5
1d7
100
AcDbEntity
  8
Vrstva_1
 62
7
100
AcDbSpline
 70
8
 71
3
 72
8
 73
4
 74
0
 40
0
 40
0
 40
0
 40
0
 40
1
 40
1
 40
1
 40
1
 10
103.171727
 20
10.981147
 30
0.0
 10
102.558024
 20
11.505037
 30
0.0
 10
101.726072
 20
11.578514
 30
0.0
 10
100.941954
 20
11.567332
 30
0.0
  0
LWPOLYLINE
  5
1d8
100
AcDbEntity
  8
Vrstva_1
 62
7
100
AcDbPolyline
 90
2
 70
0
 10
95.256234
 20
11.009452
 30
0.0
 10
95.270479
 20
11.020709
 30
0.0
  0
SPLINE
  5
1d9
100
AcDbEntity
  8
Vrstva_1
 62
7
100
AcDbSpline
 70
8
 71
3
 72
8
 73
4
 74
0
 40
0
 40
0
 40
0
 40
0
 40
1
 40
1
 40
1
 40
1
 10
100.824534
 20
10.690049
 30
0.0
 10
101.436684
 20
10.690049
 30
0.0
 10
102.030639
 20
10.569719
 30
0.0
 10
102.505576
 20
10.379737
 30
0.0
  0
SPLINE
  5
1da
100
AcDbEntity
  8
Vrstva_1
 62
7
100
AcDbSpline
 70
8
 71
3
 72
8
 73
4
 74
0
 40
0
 40
0
 40
0
 40
0
 40
1
 40
1
 40
1
 40
1
 10
102.505576
 20
10.379737
 30
0.0
 10
103.054404
 20
10.158104
 30
0.0
 10
103.175919
 20
10.037999
 30
0.0
 10
103.323684
 20
9.615832
 30
0.0
  0
SPLINE
  5
1db
100
AcDbEntity
  8
Vrstva_1
 62
7
100
AcDbSpline
 70
8
 71
3
 72
8
 73
4
 74
0
 40
0
 40
0
 40
0
 40
0
 40
1
 40
1
 40
1
 40
1
 10
103.323684
 20
9.615832
 30
0.0
 10
103.418672
 20
9.362527
 30
0.0
 10
103.466229
 20
9.125002
 30
0.0
 10
103.466229
 20
8.903362
 30
0.0
  0
SPLINE
  5
1dc
100
AcDbEntity
  8
Vrstva_1
 62
7
100
AcDbSpline
 70
8
 71
3
 72
8
 73
4
 74
0
 40
0
 40
0
 40
0
 40
0
 40
1
 40
1
 40
1
 40
1
 10
103.466229
 20
8.903362
 30
0.0
 10
103.466229
 20
8.597287
 30
0.0
 10
103.386871
 20
8.349434
 30
0.0
 10
103.228561
 20
8.159467
 30
0.0
  0
SPLINE
  5
1dd
100
AcDbEntity
  8
Vrstva_1
 62
7
100
AcDbSpline
 70
8
 71
3
 72
8
 73
4
 74
0
 40
0
 40
0
 40
0
 40
0
 40
1
 40
1
 40
1
 40
1
 10
103.228561
 20
8.159467
 30
0.0
 10
103.080797
 20
7.980037
 30
0.0
 10
102.932957
 20
7.874294
 30
0.0
 10
102.785199
 20
7.842659
 30
0.0
  0
SPLINE
  5
1de
100
AcDbEntity
  8
Vrstva_1
 62
7
100
AcDbSpline
 70
8
 71
3
 72
8
 73
4
 74
0
 40
0
 40
0
 40
0
 40
0
 40
1
 40
1
 40
1
 40
1
 10
102.785199
 20
7.842659
 30
0.0
 10
102.637441
 20
7.811009
 30
0.0
 10
102.199621
 20
7.763707
 30
0.0
 10
101.471379
 20
7.700384
 30
0.0
  0
SPLINE
  5
1df
100
AcDbEntity
  8
Vrstva_1
 62
7
100
AcDbSpline
 70
8
 71
3
 72
8
 73
4
 74
0
 40
0
 40
0
 40
0
 40
0
 40
1
 40
1
 40
1
 40
1
 10
101.471379
 20
7.700384
 30
0.0
 10
100.838123
 20
7.637084
 30
0.0
 10
100.231270
 20
7.521022
 30
0.0
 10
99.650783
 20
7.352144
 30
0.0
  0
SPLINE
  5
1e0
100
AcDbEntity
  8
Vrstva_1
 62
7
100
AcDbSpline
 70
8
 71
3
 72
8
 73
4
 74
0
 40
0
 40
0
 40
0
 40
0
 40
1
 40
1
 40
1
 40
1
 10
99.650783
 20
7.352144
 30
0.0
 10
99.123068
 20
7.193834
 30
0.0
 10
98.616221
 20
6.892709
 30
0.0
 10
98.130724
 20
6.449429
 30
0.0
  0
SPLINE
  5
1e1
100
AcDbEntity
  8
Vrstva_1
 62
7
100
AcDbSpline
 70
8
 71
3
 72
8
 73
4
 74
0
 40
0
 40
0
 40
0
 40
0
 40
1
 40
1
 40
1
 40
1
 10
98.130724
 20
6.449429
 30
0.0
 10
97.874585
 20
6.211919
 30
0.0
 10
97.670080
 20
5.966384
 30
0.0
 10
97.516689
 20
5.712427
 30
0.0
  0
SPLINE
  5
1e2
100
AcDbEntity
  8
Vrstva_1
 62
7
100
AcDbSpline
 70
8
 71
3
 72
8
 73
4
 74
0
 40
0
 40
0
 40
0
 40
0
 40
1
 40
1
 40
1
 40
1
 10
97.516689
 20
5.712427
 30
0.0
 10
97.489681
 20
5.993407
 30
0.0
 10
96.819968
 20
6.554167
 30
0.0
 10
96.818519
 20
6.838124
 30
0.0
  0
SPLINE
  5
1e3
100
AcDbEntity
  8
Vrstva_1
 62
7
100
AcDbSpline
 70
8
 71
3
 72
8
 73
4
 74
0
 40
0
 40
0
 40
0
 40
0
 40
1
 40
1
 40
1
 40
1
 10
96.818519
 20
6.838124
 30
0.0
 10
96.820019
 20
7.327394
 30
0.0
 10
97.515082
 20
7.537372
 30
0.0
 10
97.591961
 20
8.012504
 30
0.0
  0
SPLINE
  5
1e4
100
AcDbEntity
  8
Vrstva_1
 62
7
100
AcDbSpline
 70
8
 71
3
 72
8
 73
4
 74
0
 40
0
 40
0
 40
0
 40
0
 40
1
 40
1
 40
1
 40
1
 10
97.591961
 20
8.012504
 30
0.0
 10
97.683493
 20
7.889624
 30
0.0
 10
97.799417
 20
7.790489
 30
0.0
 10
97.940750
 20
7.716104
 30
0.0
  0
SPLINE
  5
1e5
100
AcDbEntity
  8
Vrstva_1
 62
7
100
AcDbSpline
 70
8
 71
3
 72
8
 73
4
 74
0
 40
0
 40
0
 40
0
 40
0
 40
1
 40
1
 40
1
 40
1
 10
97.940750
 20
7.716104
 30
0.0
 10
98.077955
 20
7.642229
 30
0.0
 10
98.231240
 20
7.605262
 30
0.0
 10
98.400104
 20
7.605262
 30
0.0
  0
SPLINE
  5
1e6
100
AcDbEntity
  8
Vrstva_1
 62
7
100
AcDbSpline
 70
8
 71
3
 72
8
 73
4
 74
0
 40
0
 40
0
 40
0
 40
0
 40
1
 40
1
 40
1
 40
1
 10
98.400104
 20
7.605262
 30
0.0
 10
98.695625
 20
7.605262
 30
0.0
 10
99.006796
 20
7.710704
 30
0.0
 10
99.333976
 20
7.921792
 30
0.0
  0
SPLINE
  5
1e7
100
AcDbEntity
  8
Vrstva_1
 62
7
100
AcDbSpline
 70
8
 71
3
 72
8
 73
4
 74
0
 40
0
 40
0
 40
0
 40
0
 40
1
 40
1
 40
1
 40
1
 10
99.333976
 20
7.921792
 30
0.0
 10
99.618944
 20
8.111767
 30
0.0
 10
99.824947
 20
8.312609
 30
0.0
 10
99.951595
 20
8.523689
 30
0.0
  0
SPLINE
  5
1e8
100
AcDbEntity
  8
Vrstva_1
 62
7
100
AcDbSpline
 70
8
 71
3
 72
8
 73
4
 74
0
 40
0
 40
0
 40
0
 40
0
 40
1
 40
1
 40
1
 40
1
 10
99.951595
 20
8.523689
 30
0.0
 10
100.109908
 20
8.776994
 30
0.0
 10
100.188994
 20
8.987879
 30
0.0
 10
100.188994
 20
9.156749
 30
0.0
  0
SPLINE
  5
1e9
100
AcDbEntity
  8
Vrstva_1
 62
7
100
AcDbSpline
 70
8
 71
3
 72
8
 73
4
 74
0
 40
0
 40
0
 40
0
 40
0
 40
1
 40
1
 40
1
 40
1
 10
100.188994
 20
9.156749
 30
0.0
 10
100.188994
 20
9.420607
 30
0.0
 10
99.973419
 20
9.050047
 30
0.0
 10
99.788250
 20
9.695242
 30
0.0
  0
SPLINE
  5
1ea
100
AcDbEntity
  8
Vrstva_1
 62
7
100
AcDbSpline
 70
8
 71
3
 72
8
 73
4
 74
0
 40
0
 40
0
 40
0
 40
0
 40
1
 40
1
 40
1
 40
1
 10
99.788250
 20
9.695242
 30
0.0
 10
99.681073
 20
10.068682
 30
0.0
 10
99.681073
 20
9.942037
 30
0.0
 10
99.681073
 20
10.068682
 30
0.0
  0
SPLINE
  5
1eb
100
AcDbEntity
  8
Vrstva_1
 62
7
100
AcDbSpline
 70
8
 71
3
 72
8
 73
4
 74
0
 40
0
 40
0
 40
0
 40
0
 40
1
 40
1
 40
1
 40
1
 10
99.681073
 20
10.068682
 30
0.0
 10
99.681073
 20
10.163677
 30
0.0
 10
99.765316
 20
10.250504
 30
0.0
 10
99.934186
 20
10.429919
 30
0.0
  0
SPLINE
  5
1ec
100
AcDbEntity
  8
Vrstva_1
 62
7
100
AcDbSpline
 70
8
 71
3
 72
8
 73
4
 74
0
 40
0
 40
0
 40
0
 40
0
 40
1
 40
1
 40
1
 40
1
 10
99.934186
 20
10.429919
 30
0.0
 10
100.198040
 20
10.704337
 30
0.0
 10
99.990743
 20
10.690049
 30
0.0
 10
100.824534
 20
10.690049
 30
0.0
  0
LWPOLYLINE
  5
1ed
100
AcDbEntity
  8
Vrstva_1
 62
7
100
AcDbPolyline
 90
1
 70
1
 10
100.941954
 20
11.567332
 30
0.0
  0
SPLINE
  5
1ee
100
AcDbEntity
  8
Vrstva_1
 62
7
100
AcDbSpline
 70
8
 71
3
 72
8
 73
4
 74
0
 40
0
 40
0
 40
0
 40
0
 40
1
 40
1
 40
1
 40
1
 10
97.302410
 20
13.717312
 30
0.0
 10
97.324445
 20
14.262644
 30
0.0
 10
97.416212
 20
14.797672
 30
0.0
 10
97.542852
 20
15.331079
 30
0.0
  0
SPLINE
  5
1ef
100
AcDbEntity
  8
Vrstva_1
 62
7
100
AcDbSpline
 70
8
 71
3
 72
8
 73
4
 74
0
 40
0
 40
0
 40
0
 40
0
 40
1
 40
1
 40
1
 40
1
 10
97.542852
 20
15.331079
 30
0.0
 10
97.753980
 20
16.040924
 30
0.0
 10
97.994272
 20
16.927567
 30
0.0
 10
98.764284
 20
17.202592
 30
0.0
  0
SPLINE
  5
1f0
100
AcDbEntity
  8
Vrstva_1
 62
7
100
AcDbSpline
 70
8
 71
3
 72
8
 73
4
 74
0
 40
0
 40
0
 40
0
 40
0
 40
1
 40
1
 40
1
 40
1
 10
98.764284
 20
17.202592
 30
0.0
 10
99.496408
 20
17.318197
 30
0.0
 10
99.964369
 20
16.536614
 30
0.0
 10
100.214947
 20
15.948322
 30
0.0
  0
SPLINE
  5
1f1
100
AcDbEntity
  8
Vrstva_1
 62
7
100
AcDbSpline
 70
8
 71
3
 72
8
 73
4
 74
0
 40
0
 40
0
 40
0
 40
0
 40
1
 40
1
 40
1
 40
1
 10
100.214947
 20
15.948322
 30
0.0
 10
100.570745
 20
15.134422
 30
0.0
 10
100.819419
 20
14.263124
 30
0.0
 10
100.903366
 20
13.376767
 30
0.0
  0
SPLINE
  5
1f2
100
AcDbEntity
  8
Vrstva_1
 62
7
100
AcDbSpline
 70
8
 71
3
 72
8
 73
4
 74
0
 40
0
 40
0
 40
0
 40
0
 40
1
 40
1
 40
1
 40
1
 10
100.903366
 20
13.376767
 30
0.0
 10
100.947841
 20
12.558254
 30
0.0
 10
100.219184
 20
11.992379
 30
0.0
 10
99.475978
 20
11.874202
 30
0.0
  0
SPLINE
  5
1f3
100
AcDbEntity
  8
Vrstva_1
 62
7
100
AcDbSpline
 70
8
 71
3
 72
8
 73
4
 74
0
 40
0
 40
0
 40
0
 40
0
 40
1
 40
1
 40
1
 40
1
 10
99.475978
 20
11.874202
 30
0.0
 10
98.795209
 20
11.669662
 30
0.0
 10
97.972546
 20
11.894752
 30
0.0
 10
97.610261
 20
12.542482
 30
0.0
  0
SPLINE
  5
1f4
100
AcDbEntity
  8
Vrstva_1
 62
7
100
AcDbSpline
 70
8
 71
3
 72
8
 73
4
 74
0
 40
0
 40
0
 40
0
 40
0
 40
1
 40
1
 40
1
 40
1
 10
97.610261
 20
12.542482
 30
0.0
 10
97.382284
 20
12.893797
 30
0.0
 10
97.295629
 20
13.337609
 30
0.0
 10
97.302410
 20
13.717312
 30
0.0
  0
LWPOLYLINE
  5
1f5
100
AcDbEntity
  8
Vrstva_1
 62
7
100
AcDbPolyline
 90
1
 70
1
 10
100.824534
 20
10.690049
 30
0.0
  0
SPLINE
  5
1f6
100
AcDbEntity
  8
Vrstva_1
 62
7
100
AcDbSpline
 70
8
 71
3
 72
8
 73
4
 74
0
 40
0
 40
0
 40
0
 40
0
 40
1
 40
1
 40
1
 40
1
 10
101.107659
 20
13.532609
 30
0.0
 10
101.175984
 20
13.947997
 30
0.0
 10
101.218052
 20
14.388629
 30
0.0
 10
101.366267
 20
14.770094
 30
0.0
  0
SPLINE
  5
1f7
100
AcDbEntity
  8
Vrstva_1
 62
7
100
AcDbSpline
 70
8
 71
3
 72
8
 73
4
 74
0
 40
0
 40
0
 40
0
 40
0
 40
1
 40
1
 40
1
 40
1
 10
101.366267
 20
14.770094
 30
0.0
 10
101.398291
 20
15.090292
 30
0.0
 10
101.586714
 20
15.360884
 30
0.0
 10
101.640069
 20
15.673102
 30
0.0
  0
SPLINE
  5
1f8
100
AcDbEntity
  8
Vrstva_1
 62
7
100
AcDbSpline
 70
8
 71
3
 72
8
 73
4
 74
0
 40
0
 40
0
 40
0
 40
0
 40
1
 40
1
 40
1
 40
1
 10
101.640069
 20
15.673102
 30
0.0
 10
101.805481
 20
15.874657
 30
0.0
 10
101.791974
 20
16.127414
 30
0.0
 10
101.975844
 20
16.303094
 30
0.0
  0
SPLINE
  5
1f9
100
AcDbEntity
  8
Vrstva_1
 62
7
100
AcDbSpline
 70
8
 71
3
 72
8
 73
4
 74
0
 40
0
 40
0
 40
0
 40
0
 40
1
 40
1
 40
1
 40
1
 10
101.975844
 20
16.303094
 30
0.0
 10
102.064569
 20
16.503179
 30
0.0
 10
102.183362
 20
16.692869
 30
0.0
 10
102.345279
 20
16.857194
 30
0.0
  0
SPLINE
  5
1fa
100
AcDbEntity
  8
Vrstva_1
 62
7
100
AcDbSpline
 70
8
 71
3
 72
8
 73
4
 74
0
 40
0
 40
0
 40
0
 40
0
 40
1
 40
1
 40
1
 40
1
 10
102.345279
 20
16.857194
 30
0.0
 10
102.471947
 20
17.012677
 30
0.0
 10
102.658081
 20
17.129414
 30
0.0
 10
102.856344
 20
17.177782
 30
0.0
  0
SPLINE
  5
1fb
100
AcDbEntity
  8
Vrstva_1
 62
7
100
AcDbSpline
 70
8
 71
3
 72
8
 73
4
 74
0
 40
0
 40
0
 40
0
 40
0
 40
1
 40
1
 40
1
 40
1
 10
102.856344
 20
17.177782
 30
0.0
 10
103.144179
 20
17.330924
 30
0.0
 10
103.419204
 20
17.127082
 30
0.0
 10
103.638332
 20
16.986479
 30
0.0
  0
SPLINE
  5
1fc
100
AcDbEntity
  8
Vrstva_1
 62
7
100
AcDbSpline
 70
8
 71
3
 72
8
 73
4
 74
0
 40
0
 40
0
 40
0
 40
0
 40
1
 40
1
 40
1
 40
1
 10
103.638332
 20
16.986479
 30
0.0
 10
103.772852
 20
16.870574
 30
0.0
 10
103.809241
 20
16.694564
 30
0.0
 10
103.972802
 20
16.604384
 30
0.0
  0
SPLINE
  5
1fd
100
AcDbEntity
  8
Vrstva_1
 62
7
100
AcDbSpline
 70
8
 71
3
 72
8
 73
4
 74
0
 40
0
 40
0
 40
0
 40
0
 40
1
 40
1
 40
1
 40
1
 10
103.972802
 20
16.604384
 30
0.0
 10
104.025827
 20
16.365239
 30
0.0
 10
104.216949
 20
16.183057
 30
0.0
 10
104.245756
 20
15.933697
 30
0.0
  0
SPLINE
  5
1fe
100
AcDbEntity
  8
Vrstva_1
 62
7
100
AcDbSpline
 70
8
 71
3
 72
8
 73
4
 74
0
 40
0
 40
0
 40
0
 40
0
 40
1
 40
1
 40
1
 40
1
 10
104.245756
 20
15.933697
 30
0.0
 10
104.385654
 20
15.579269
 30
0.0
 10
104.491981
 20
15.198659
 30
0.0
 10
104.539704
 20
14.799344
 30
0.0
  0
SPLINE
  5
1ff
100
AcDbEntity
  8
Vrstva_1
 62
7
100
AcDbSpline
 70
8
 71
3
 72
8
 73
4
 74
0
 40
0
 40
0
 40
0
 40
0
 40
1
 40
1
 40
1
 40
1
 10
104.539704
 20
14.799344
 30
0.0
 10
104.633672
 20
14.399677
 30
0.0
 10
104.699214
 20
13.927792
 30
0.0
 10
104.691234
 20
13.532609
 30
0.0
  0
SPLINE
  5
200
100
AcDbEntity
  8
Vrstva_1
 62
7
100
AcDbSpline
 70
8
 71
3
 72
8
 73
4
 74
0
 40
0
 40
0
 40
0
 40
0
 40
1
 40
1
 40
1
 40
1
 10
104.691234
 20
13.532609
 30
0.0
 10
104.619459
 20
13.199362
 30
0.0
 10
104.603034
 20
12.843082
 30
0.0
 10
104.396837
 20
12.564487
 30
0.0
  0
SPLINE
  5
201
100
AcDbEntity
  8
Vrstva_1
 62
7
100
AcDbSpline
 70
8
 71
3
 72
8
 73
4
 74
0
 40
0
 40
0
 40
0
 40
0
 40
1
 40
1
 40
1
 40
1
 10
104.396837
 20
12.564487
 30
0.0
 10
104.306101
 20
12.402254
 30
0.0
 10
104.136414
 20
12.242144
 30
0.0
 10
104.007774
 20
12.110429
 30
0.0
  0
SPLINE
  5
202
100
AcDbEntity
  8
Vrstva_1
 62
7
100
AcDbSpline
 70
8
 71
3
 72
8
 73
4
 74
0
 40
0
 40
0
 40
0
 40
0
 40
1
 40
1
 40
1
 40
1
 10
104.007774
 20
12.110429
 30
0.0
 10
103.639202
 20
11.834834
 30
0.0
 10
103.170182
 20
11.773349
 30
0.0
 10
102.709187
 20
11.819819
 30
0.0
  0
SPLINE
  5
203
100
AcDbEntity
  8
Vrstva_1
 62
7
100
AcDbSpline
 70
8
 71
3
 72
8
 73
4
 74
0
 40
0
 40
0
 40
0
 40
0
 40
1
 40
1
 40
1
 40
1
 10
102.709187
 20
11.819819
 30
0.0
 10
102.355629
 20
11.903212
 30
0.0
 10
102.017394
 20
11.970659
 30
0.0
 10
101.726469
 20
12.184312
 30
0.0
  0
SPLINE
  5
204
100
AcDbEntity
  8
Vrstva_1
 62
7
100
AcDbSpline
 70
8
 71
3
 72
8
 73
4
 74
0
 40
0
 40
0
 40
0
 40
0
 40
1
 40
1
 40
1
 40
1
 10
101.726469
 20
12.184312
 30
0.0
 10
101.535542
 20
12.314692
 30
0.0
 10
101.354529
 20
12.461189
 30
0.0
 10
101.264672
 20
12.673762
 30
0.0
  0
SPLINE
  5
205
100
AcDbEntity
  8
Vrstva_1
 62
7
100
AcDbSpline
 70
8
 71
3
 72
8
 73
4
 74
0
 40
0
 40
0
 40
0
 40
0
 40
1
 40
1
 40
1
 40
1
 10
101.264672
 20
12.673762
 30
0.0
 10
101.147559
 20
12.922844
 30
0.0
 10
101.063102
 20
13.252717
 30
0.0
 10
101.107659
 20
13.532609
 30
0.0
  0
LWPOLYLINE
  5
206
100
AcDbEntity
  8
Vrstva_1
 62
7
100
AcDbPolyline
 90
1
 70
1
 10
97.302410
 20
13.717312
 30
0.0
  0
SPLINE
  5
207
100
AcDbEntity
  8
Vrstva_1
 62
7
100
AcDbSpline
 70
8
 71
3
 72
8
 73
4
 74
0
 40
0
 40
0
 40
0
 40
0
 40
1
 40
1
 40
1
 40
1
 10
104.213604
 20
11.645602
 30
0.0
 10
104.299951
 20
11.899882
 30
0.0
 10
104.382999
 20
12.136492
 30
0.0
 10
104.508571
 20
12.369007
 30
0.0
  0
SPLINE
  5
208
100
AcDbEntity
  8
Vrstva_1
 62
7
100
AcDbSpline
 70
8
 71
3
 72
8
 73
4
 74
0
 40
0
 40
0
 40
0
 40
0
 40
1
 40
1
 40
1
 40
1
 10
104.508571
 20
12.369007
 30
0.0
 10
104.580871
 20
12.557909
 30
0.0
 10
104.702844
 20
12.746482
 30
0.0
 10
104.802069
 20
12.923107
 30
0.0
  0
SPLINE
  5
209
100
AcDbEntity
  8
Vrstva_1
 62
7
100
AcDbSpline
 70
8
 71
3
 72
8
 73
4
 74
0
 40
0
 40
0
 40
0
 40
0
 40
1
 40
1
 40
1
 40
1
 10
104.802069
 20
12.923107
 30
0.0
 10
104.974636
 20
13.087514
 30
0.0
 10
105.102189
 20
13.257187
 30
0.0
 10
105.300811
 20
13.347914
 30
0.0
  0
SPLINE
  5
20a
100
AcDbEntity
  8
Vrstva_1
 62
7
100
AcDbSpline
 70
8
 71
3
 72
8
 73
4
 74
0
 40
0
 40
0
 40
0
 40
0
 40
1
 40
1
 40
1
 40
1
 10
105.300811
 20
13.347914
 30
0.0
 10
105.600196
 20
13.523497
 30
0.0
 10
105.968184
 20
13.362239
 30
0.0
 10
106.132059
 20
13.107802
 30
0.0
  0
SPLINE
  5
20b
100
AcDbEntity
  8
Vrstva_1
 62
7
100
AcDbSpline
 70
8
 71
3
 72
8
 73
4
 74
0
 40
0
 40
0
 40
0
 40
0
 40
1
 40
1
 40
1
 40
1
 10
106.132059
 20
13.107802
 30
0.0
 10
106.253191
 20
12.924847
 30
0.0
 10
106.374586
 20
12.742312
 30
0.0
 10
106.436851
 20
12.535237
 30
0.0
  0
SPLINE
  5
20c
100
AcDbEntity
  8
Vrstva_1
 62
7
100
AcDbSpline
 70
8
 71
3
 72
8
 73
4
 74
0
 40
0
 40
0
 40
0
 40
0
 40
1
 40
1
 40
1
 40
1
 10
106.436851
 20
12.535237
 30
0.0
 10
106.609989
 20
12.137182
 30
0.0
 10
106.658026
 20
11.686597
 30
0.0
 10
106.694364
 20
11.233109
 30
0.0
  0
SPLINE
  5
20d
100
AcDbEntity
  8
Vrstva_1
 62
7
100
AcDbSpline
 70
8
 71
3
 72
8
 73
4
 74
0
 40
0
 40
0
 40
0
 40
0
 40
1
 40
1
 40
1
 40
1
 10
106.694364
 20
11.233109
 30
0.0
 10
106.767489
 20
10.865467
 30
0.0
 10
106.790934
 20
10.455052
 30
0.0
 10
106.621539
 20
10.115684
 30
0.0
  0
SPLINE
  5
20e
100
AcDbEntity
  8
Vrstva_1
 62
7
100
AcDbSpline
 70
8
 71
3
 72
8
 73
4
 74
0
 40
0
 40
0
 40
0
 40
0
 40
1
 40
1
 40
1
 40
1
 10
106.621539
 20
10.115684
 30
0.0
 10
106.568139
 20
9.918629
 30
0.0
 10
106.454964
 20
9.696202
 30
0.0
 10
106.259874
 20
9.587167
 30
0.0
  0
SPLINE
  5
20f
100
AcDbEntity
  8
Vrstva_1
 62
7
100
AcDbSpline
 70
8
 71
3
 72
8
 73
4
 74
0
 40
0
 40
0
 40
0
 40
0
 40
1
 40
1
 40
1
 40
1
 10
106.259874
 20
9.587167
 30
0.0
 10
106.101091
 20
9.281302
 30
0.0
 10
105.641964
 20
9.197894
 30
0.0
 10
105.302551
 20
9.230219
 30
0.0
  0
SPLINE
  5
210
100
AcDbEntity
  8
Vrstva_1
 62
7
100
AcDbSpline
 70
8
 71
3
 72
8
 73
4
 74
0
 40
0
 40
0
 40
0
 40
0
 40
1
 40
1
 40
1
 40
1
 10
105.302551
 20
9.230219
 30
0.0
 10
104.947831
 20
9.261344
 30
0.0
 10
104.643886
 20
9.400739
 30
0.0
 10
104.349474
 20
9.571657
 30
0.0
  0
SPLINE
  5
211
100
AcDbEntity
  8
Vrstva_1
 62
7
100
AcDbSpline
 70
8
 71
3
 72
8
 73
4
 74
0
 40
0
 40
0
 40
0
 40
0
 40
1
 40
1
 40
1
 40
1
 10
104.349474
 20
9.571657
 30
0.0
 10
104.110216
 20
9.780487
 30
0.0
 10
103.929099
 20
10.026914
 30
0.0
 10
103.974722
 20
10.357327
 30
0.0
  0
SPLINE
  5
212
100
AcDbEntity
  8
Vrstva_1
 62
7
100
AcDbSpline
 70
8
 71
3
 72
8
 73
4
 74
0
 40
0
 40
0
 40
0
 40
0
 40
1
 40
1
 40
1
 40
1
 10
103.974722
 20
10.357327
 30
0.0
 10
103.848309
 20
10.738552
 30
0.0
 10
104.089891
 20
11.297017
 30
0.0
 10
104.213574
 20
11.645602
 30
0.0
  0
LWPOLYLINE
  5
213
100
AcDbEntity
  8
Vrstva_1
 62
7
100
AcDbPolyline
 90
1
 70
1
 10
101.107659
 20
13.532609
 30
0.0
  0
SPLINE
  5
214
100
AcDbEntity
  8
Vrstva_1
 62
7
100
AcDbSpline
 70
8
 71
3
 72
8
 73
4
 74
0
 40
0
 40
0
 40
0
 40
0
 40
1
 40
1
 40
1
 40
1
 10
39.058456
 20
10.892924
 30
0.0
 10
39.093886
 20
11.328232
 30
0.0
 10
39.132413
 20
11.796104
 30
0.0
 10
39.270886
 20
12.213517
 30
0.0
  0
SPLINE
  5
215
100
AcDbEntity
  8
Vrstva_1
 62
7
100
AcDbSpline
 70
8
 71
3
 72
8
 73
4
 74
0
 40
0
 40
0
 40
0
 40
0
 40
1
 40
1
 40
1
 40
1
 10
39.270886
 20
12.213517
 30
0.0
 10
39.341978
 20
12.493582
 30
0.0
 10
39.480797
 20
12.749564
 30
0.0
 10
39.640331
 20
12.980017
 30
0.0
  0
SPLINE
  5
216
100
AcDbEntity
  8
Vrstva_1
 62
7
100
AcDbSpline
 70
8
 71
3
 72
8
 73
4
 74
0
 40
0
 40
0
 40
0
 40
0
 40
1
 40
1
 40
1
 40
1
 10
39.640331
 20
12.980017
 30
0.0
 10
39.792437
 20
13.218194
 30
0.0
 10
40.143650
 20
13.357807
 30
0.0
 10
40.434625
 20
13.245442
 30
0.0
  0
SPLINE
  5
217
100
AcDbEntity
  8
Vrstva_1
 62
7
100
AcDbSpline
 70
8
 71
3
 72
8
 73
4
 74
0
 40
0
 40
0
 40
0
 40
0
 40
1
 40
1
 40
1
 40
1
 10
40.434625
 20
13.245442
 30
0.0
 10
40.634858
 20
13.165807
 30
0.0
 10
40.807367
 20
13.009537
 30
0.0
 10
40.933371
 20
12.832259
 30
0.0
  0
SPLINE
  5
218
100
AcDbEntity
  8
Vrstva_1
 62
7
100
AcDbSpline
 70
8
 71
3
 72
8
 73
4
 74
0
 40
0
 40
0
 40
0
 40
0
 40
1
 40
1
 40
1
 40
1
 10
40.933371
 20
12.832259
 30
0.0
 10
41.127394
 20
12.606764
 30
0.0
 10
41.221769
 20
12.316244
 30
0.0
 10
41.366245
 20
12.065759
 30
0.0
  0
SPLINE
  5
219
100
AcDbEntity
  8
Vrstva_1
 62
7
100
AcDbSpline
 70
8
 71
3
 72
8
 73
4
 74
0
 40
0
 40
0
 40
0
 40
0
 40
1
 40
1
 40
1
 40
1
 10
41.366245
 20
12.065759
 30
0.0
 10
41.525042
 20
11.744137
 30
0.0
 10
41.613074
 20
11.389874
 30
0.0
 10
41.719022
 20
11.053364
 30
0.0
  0
SPLINE
  5
21a
100
AcDbEntity
  8
Vrstva_1
 62
7
100
AcDbSpline
 70
8
 71
3
 72
8
 73
4
 74
0
 40
0
 40
0
 40
0
 40
0
 40
1
 40
1
 40
1
 40
1
 10
41.719022
 20
11.053364
 30
0.0
 10
41.870120
 20
10.308119
 30
0.0
 10
41.672124
 20
9.612562
 30
0.0
 10
41.061825
 20
9.279787
 30
0.0
  0
SPLINE
  5
21b
100
AcDbEntity
  8
Vrstva_1
 62
7
100
AcDbSpline
 70
8
 71
3
 72
8
 73
4
 74
0
 40
0
 40
0
 40
0
 40
0
 40
1
 40
1
 40
1
 40
1
 10
41.061825
 20
9.279787
 30
0.0
 10
40.710441
 20
9.069884
 30
0.0
 10
40.212943
 20
9.037747
 30
0.0
 10
39.825047
 20
9.192862
 30
0.0
  0
SPLINE
  5
21c
100
AcDbEntity
  8
Vrstva_1
 62
7
100
AcDbSpline
 70
8
 71
3
 72
8
 73
4
 74
0
 40
0
 40
0
 40
0
 40
0
 40
1
 40
1
 40
1
 40
1
 10
39.825047
 20
9.192862
 30
0.0
 10
39.555191
 20
9.294839
 30
0.0
 10
39.383402
 20
9.530167
 30
0.0
 10
39.245232
 20
9.766252
 30
0.0
  0
SPLINE
  5
21d
100
AcDbEntity
  8
Vrstva_1
 62
7
100
AcDbSpline
 70
8
 71
3
 72
8
 73
4
 74
0
 40
0
 40
0
 40
0
 40
0
 40
1
 40
1
 40
1
 40
1
 10
39.245232
 20
9.766252
 30
0.0
 10
39.065462
 20
10.112047
 30
0.0
 10
38.985380
 20
10.480582
 30
0.0
 10
39.044210
 20
10.881667
 30
0.0
  0
LWPOLYLINE
  5
21e
100
AcDbEntity
  8
Vrstva_1
 62
7
100
AcDbPolyline
 90
1
 70
1
 10
104.213574
 20
11.645602
 30
0.0
  0
SPLINE
  5
21f
100
AcDbEntity
  8
Vrstva_1
 62
7
100
AcDbSpline
 70
8
 71
3
 72
8
 73
4
 74
0
 40
0
 40
0
 40
0
 40
0
 40
1
 40
1
 40
1
 40
1
 10
44.729966
 20
11.439607
 30
0.0
 10
44.617948
 20
11.438107
 30
0.0
 10
44.506725
 20
11.435107
 30
0.0
 10
44.397444
 20
11.430832
 30
0.0
  0
SPLINE
  5
220
100
AcDbEntity
  8
Vrstva_1
 62
7
100
AcDbSpline
 70
8
 71
3
 72
8
 73
4
 74
0
 40
0
 40
0
 40
0
 40
0
 40
1
 40
1
 40
1
 40
1
 10
44.397444
 20
11.430832
 30
0.0
 10
43.714866
 20
11.394757
 30
0.0
 10
42.953323
 20
11.240377
 30
0.0
 10
42.492751
 20
10.693552
 30
0.0
  0
SPLINE
  5
221
100
AcDbEntity
  8
Vrstva_1
 62
7
100
AcDbSpline
 70
8
 71
3
 72
8
 73
4
 74
0
 40
0
 40
0
 40
0
 40
0
 40
1
 40
1
 40
1
 40
1
 10
42.492751
 20
10.693552
 30
0.0
 10
42.215768
 20
10.316422
 30
0.0
 10
42.064450
 20
9.860714
 30
0.0
 10
41.753264
 20
9.512084
 30
0.0
  0
SPLINE
  5
222
100
AcDbEntity
  8
Vrstva_1
 62
7
100
AcDbSpline
 70
8
 71
3
 72
8
 73
4
 74
0
 40
0
 40
0
 40
0
 40
0
 40
1
 40
1
 40
1
 40
1
 10
41.753264
 20
9.512084
 30
0.0
 10
41.267701
 20
9.145469
 30
0.0
 10
40.726406
 20
8.856697
 30
0.0
 10
40.224107
 20
8.509004
 30
0.0
  0
SPLINE
  5
223
100
AcDbEntity
  8
Vrstva_1
 62
7
100
AcDbSpline
 70
8
 71
3
 72
8
 73
4
 74
0
 40
0
 40
0
 40
0
 40
0
 40
1
 40
1
 40
1
 40
1
 10
40.224107
 20
8.509004
 30
0.0
 10
39.671822
 20
8.149762
 30
0.0
 10
39.224783
 20
7.602719
 30
0.0
 10
39.112117
 20
6.940417
 30
0.0
  0
SPLINE
  5
224
100
AcDbEntity
  8
Vrstva_1
 62
7
100
AcDbSpline
 70
8
 71
3
 72
8
 73
4
 74
0
 40
0
 40
0
 40
0
 40
0
 40
1
 40
1
 40
1
 40
1
 10
39.112117
 20
6.940417
 30
0.0
 10
39.016819
 20
6.512534
 30
0.0
 10
39.162442
 20
6.053384
 30
0.0
 10
39.309810
 20
5.651969
 30
0.0
  0
SPLINE
  5
225
100
AcDbEntity
  8
Vrstva_1
 62
7
100
AcDbSpline
 70
8
 71
3
 72
8
 73
4
 74
0
 40
0
 40
0
 40
0
 40
0
 40
1
 40
1
 40
1
 40
1
 10
39.309810
 20
5.651969
 30
0.0
 10
39.501554
 20
4.996912
 30
0.0
 10
39.975369
 20
4.390327
 30
0.0
 10
40.663608
 20
4.231162
 30
0.0
  0
SPLINE
  5
226
100
AcDbEntity
  8
Vrstva_1
 62
7
100
AcDbSpline
 70
8
 71
3
 72
8
 73
4
 74
0
 40
0
 40
0
 40
0
 40
0
 40
1
 40
1
 40
1
 40
1
 10
40.663608
 20
4.231162
 30
0.0
 10
41.429304
 20
4.074247
 30
0.0
 10
42.159131
 20
4.441799
 30
0.0
 10
42.897238
 20
4.570304
 30
0.0
  0
SPLINE
  5
227
100
AcDbEntity
  8
Vrstva_1
 62
7
100
AcDbSpline
 70
8
 71
3
 72
8
 73
4
 74
0
 40
0
 40
0
 40
0
 40
0
 40
1
 40
1
 40
1
 40
1
 10
42.897238
 20
4.570304
 30
0.0
 10
42.994768
 20
4.559879
 30
0.0
 10
43.092377
 20
4.545404
 30
0.0
 10
43.190056
 20
4.529729
 30
0.0
  0
SPLINE
  5
228
100
AcDbEntity
  8
Vrstva_1
 62
7
100
AcDbSpline
 70
8
 71
3
 72
8
 73
4
 74
0
 40
0
 40
0
 40
0
 40
0
 40
1
 40
1
 40
1
 40
1
 10
43.190056
 20
4.529729
 30
0.0
 10
43.135411
 20
4.619557
 30
0.0
 10
43.106236
 20
4.715309
 30
0.0
 10
43.106236
 20
4.817864
 30
0.0
  0
SPLINE
  5
229
100
AcDbEntity
  8
Vrstva_1
 62
7
100
AcDbSpline
 70
8
 71
3
 72
8
 73
4
 74
0
 40
0
 40
0
 40
0
 40
0
 40
1
 40
1
 40
1
 40
1
 10
43.106236
 20
4.817864
 30
0.0
 10
43.106236
 20
4.881164
 30
0.0
 10
43.122016
 20
4.949947
 30
0.0
 10
43.153658
 20
5.023822
 30
0.0
  0
SPLINE
  5
22a
100
AcDbEntity
  8
Vrstva_1
 62
7
100
AcDbSpline
 70
8
 71
3
 72
8
 73
4
 74
0
 40
0
 40
0
 40
0
 40
0
 40
1
 40
1
 40
1
 40
1
 10
43.153658
 20
5.023822
 30
0.0
 10
43.385846
 20
5.614867
 30
0.0
 10
43.702459
 20
5.984197
 30
0.0
 10
44.103524
 20
6.131954
 30
0.0
  0
SPLINE
  5
22b
100
AcDbEntity
  8
Vrstva_1
 62
7
100
AcDbSpline
 70
8
 71
3
 72
8
 73
4
 74
0
 40
0
 40
0
 40
0
 40
0
 40
1
 40
1
 40
1
 40
1
 10
44.103524
 20
6.131954
 30
0.0
 10
44.230175
 20
6.174179
 30
0.0
 10
44.720987
 20
6.221459
 30
0.0
 10
45.575882
 20
6.274229
 30
0.0
  0
SPLINE
  5
22c
100
AcDbEntity
  8
Vrstva_1
 62
7
100
AcDbSpline
 70
8
 71
3
 72
8
 73
4
 74
0
 40
0
 40
0
 40
0
 40
0
 40
1
 40
1
 40
1
 40
1
 10
45.575882
 20
6.274229
 30
0.0
 10
45.622720
 20
6.277229
 30
0.0
 10
45.668524
 20
6.278729
 30
0.0
 10
45.712916
 20
6.280229
 30
0.0
  0
SPLINE
  5
22d
100
AcDbEntity
  8
Vrstva_1
 62
7
100
AcDbSpline
 70
8
 71
3
 72
8
 73
4
 74
0
 40
0
 40
0
 40
0
 40
0
 40
1
 40
1
 40
1
 40
1
 10
45.712916
 20
6.280229
 30
0.0
 10
46.378949
 20
6.289529
 30
0.0
 10
46.771239
 20
5.997112
 30
0.0
 10
46.889976
 20
5.403434
 30
0.0
  0
SPLINE
  5
22e
100
AcDbEntity
  8
Vrstva_1
 62
7
100
AcDbSpline
 70
8
 71
3
 72
8
 73
4
 74
0
 40
0
 40
0
 40
0
 40
0
 40
1
 40
1
 40
1
 40
1
 10
46.889976
 20
5.403434
 30
0.0
 10
46.900319
 20
5.340134
 30
0.0
 10
46.905696
 20
5.271614
 30
0.0
 10
46.905696
 20
5.197739
 30
0.0
  0
SPLINE
  5
22f
100
AcDbEntity
  8
Vrstva_1
 62
7
100
AcDbSpline
 70
8
 71
3
 72
8
 73
4
 74
0
 40
0
 40
0
 40
0
 40
0
 40
1
 40
1
 40
1
 40
1
 10
46.905696
 20
5.197739
 30
0.0
 10
46.905696
 20
4.951934
 30
0.0
 10
46.858881
 20
4.737832
 30
0.0
 10
46.766181
 20
4.554479
 30
0.0
  0
SPLINE
  5
230
100
AcDbEntity
  8
Vrstva_1
 62
7
100
AcDbSpline
 70
8
 71
3
 72
8
 73
4
 74
0
 40
0
 40
0
 40
0
 40
0
 40
1
 40
1
 40
1
 40
1
 10
46.766181
 20
4.554479
 30
0.0
 10
47.328578
 20
4.471514
 30
0.0
 10
47.854679
 20
4.184564
 30
0.0
 10
48.435956
 20
4.191899
 30
0.0
  0
SPLINE
  5
231
100
AcDbEntity
  8
Vrstva_1
 62
7
100
AcDbSpline
 70
8
 71
3
 72
8
 73
4
 74
0
 40
0
 40
0
 40
0
 40
0
 40
1
 40
1
 40
1
 40
1
 10
48.435956
 20
4.191899
 30
0.0
 10
49.044862
 20
4.146974
 30
0.0
 10
49.632564
 20
4.458824
 30
0.0
 10
49.960979
 20
4.969162
 30
0.0
  0
SPLINE
  5
232
100
AcDbEntity
  8
Vrstva_1
 62
7
100
AcDbSpline
 70
8
 71
3
 72
8
 73
4
 74
0
 40
0
 40
0
 40
0
 40
0
 40
1
 40
1
 40
1
 40
1
 10
49.960979
 20
4.969162
 30
0.0
 10
50.267154
 20
5.495737
 30
0.0
 10
50.501942
 20
6.105029
 30
0.0
 10
50.483749
 20
6.723037
 30
0.0
  0
SPLINE
  5
233
100
AcDbEntity
  8
Vrstva_1
 62
7
100
AcDbSpline
 70
8
 71
3
 72
8
 73
4
 74
0
 40
0
 40
0
 40
0
 40
0
 40
1
 40
1
 40
1
 40
1
 10
50.483749
 20
6.723037
 30
0.0
 10
50.482624
 20
7.513927
 30
0.0
 10
49.904116
 20
8.152192
 30
0.0
 10
49.282976
 20
8.565967
 30
0.0
  0
SPLINE
  5
234
100
AcDbEntity
  8
Vrstva_1
 62
7
100
AcDbSpline
 70
8
 71
3
 72
8
 73
4
 74
0
 40
0
 40
0
 40
0
 40
0
 40
1
 40
1
 40
1
 40
1
 10
49.282976
 20
8.565967
 30
0.0
 10
48.832427
 20
8.882347
 30
0.0
 10
48.346454
 20
9.126839
 30
0.0
 10
47.915944
 20
9.470617
 30
0.0
  0
SPLINE
  5
235
100
AcDbEntity
  8
Vrstva_1
 62
7
100
AcDbSpline
 70
8
 71
3
 72
8
 73
4
 74
0
 40
0
 40
0
 40
0
 40
0
 40
1
 40
1
 40
1
 40
1
 10
47.915944
 20
9.470617
 30
0.0
 10
47.466567
 20
9.836692
 30
0.0
 10
47.365197
 20
10.453844
 30
0.0
 10
46.959737
 20
10.853362
 30
0.0
  0
SPLINE
  5
236
100
AcDbEntity
  8
Vrstva_1
 62
7
100
AcDbSpline
 70
8
 71
3
 72
8
 73
4
 74
0
 40
0
 40
0
 40
0
 40
0
 40
1
 40
1
 40
1
 40
1
 10
46.959737
 20
10.853362
 30
0.0
 10
46.346035
 20
11.377259
 30
0.0
 10
45.514085
 20
11.450737
 30
0.0
 10
44.729969
 20
11.439547
 30
0.0
  0
LWPOLYLINE
  5
237
100
AcDbEntity
  8
Vrstva_1
 62
7
100
AcDbPolyline
 90
2
 70
0
 10
39.044210
 20
10.881667
 30
0.0
 10
39.058456
 20
10.892924
 30
0.0
  0
SPLINE
  5
238
100
AcDbEntity
  8
Vrstva_1
 62
7
100
AcDbSpline
 70
8
 71
3
 72
8
 73
4
 74
0
 40
0
 40
0
 40
0
 40
0
 40
1
 40
1
 40
1
 40
1
 10
44.612508
 20
10.562264
 30
0.0
 10
45.224656
 20
10.562264
 30
0.0
 10
45.818609
 20
10.441934
 30
0.0
 10
46.293549
 20
10.251959
 30
0.0
  0
SPLINE
  5
239
100
AcDbEntity
  8
Vrstva_1
 62
7
100
AcDbSpline
 70
8
 71
3
 72
8
 73
4
 74
0
 40
0
 40
0
 40
0
 40
0
 40
1
 40
1
 40
1
 40
1
 10
46.293549
 20
10.251959
 30
0.0
 10
46.842376
 20
10.030319
 30
0.0
 10
46.963894
 20
9.910222
 30
0.0
 10
47.111658
 20
9.488039
 30
0.0
  0
SPLINE
  5
23a
100
AcDbEntity
  8
Vrstva_1
 62
7
100
AcDbSpline
 70
8
 71
3
 72
8
 73
4
 74
0
 40
0
 40
0
 40
0
 40
0
 40
1
 40
1
 40
1
 40
1
 10
47.111658
 20
9.488039
 30
0.0
 10
47.206643
 20
9.234742
 30
0.0
 10
47.254207
 20
8.997217
 30
0.0
 10
47.254207
 20
8.775577
 30
0.0
  0
SPLINE
  5
23b
100
AcDbEntity
  8
Vrstva_1
 62
7
100
AcDbSpline
 70
8
 71
3
 72
8
 73
4
 74
0
 40
0
 40
0
 40
0
 40
0
 40
1
 40
1
 40
1
 40
1
 10
47.254207
 20
8.775577
 30
0.0
 10
47.254207
 20
8.469502
 30
0.0
 10
47.174846
 20
8.221657
 30
0.0
 10
47.016535
 20
8.031682
 30
0.0
  0
SPLINE
  5
23c
100
AcDbEntity
  8
Vrstva_1
 62
7
100
AcDbSpline
 70
8
 71
3
 72
8
 73
4
 74
0
 40
0
 40
0
 40
0
 40
0
 40
1
 40
1
 40
1
 40
1
 10
47.016535
 20
8.031682
 30
0.0
 10
46.868770
 20
7.852259
 30
0.0
 10
46.720934
 20
7.746509
 30
0.0
 10
46.573172
 20
7.714874
 30
0.0
  0
SPLINE
  5
23d
100
AcDbEntity
  8
Vrstva_1
 62
7
100
AcDbSpline
 70
8
 71
3
 72
8
 73
4
 74
0
 40
0
 40
0
 40
0
 40
0
 40
1
 40
1
 40
1
 40
1
 10
46.573172
 20
7.714874
 30
0.0
 10
46.425415
 20
7.683224
 30
0.0
 10
45.987598
 20
7.635922
 30
0.0
 10
45.259353
 20
7.572599
 30
0.0
  0
SPLINE
  5
23e
100
AcDbEntity
  8
Vrstva_1
 62
7
100
AcDbSpline
 70
8
 71
3
 72
8
 73
4
 74
0
 40
0
 40
0
 40
0
 40
0
 40
1
 40
1
 40
1
 40
1
 10
45.259353
 20
7.572599
 30
0.0
 10
44.626097
 20
7.509299
 30
0.0
 10
44.019244
 20
7.393229
 30
0.0
 10
43.438757
 20
7.224359
 30
0.0
  0
SPLINE
  5
23f
100
AcDbEntity
  8
Vrstva_1
 62
7
100
AcDbSpline
 70
8
 71
3
 72
8
 73
4
 74
0
 40
0
 40
0
 40
0
 40
0
 40
1
 40
1
 40
1
 40
1
 10
43.438757
 20
7.224359
 30
0.0
 10
42.911042
 20
7.066049
 30
0.0
 10
42.404196
 20
6.764924
 30
0.0
 10
41.918698
 20
6.321644
 30
0.0
  0
SPLINE
  5
240
100
AcDbEntity
  8
Vrstva_1
 62
7
100
AcDbSpline
 70
8
 71
3
 72
8
 73
4
 74
0
 40
0
 40
0
 40
0
 40
0
 40
1
 40
1
 40
1
 40
1
 10
41.918698
 20
6.321644
 30
0.0
 10
41.662559
 20
6.084134
 30
0.0
 10
41.458055
 20
5.838592
 30
0.0
 10
41.304664
 20
5.584642
 30
0.0
  0
SPLINE
  5
241
100
AcDbEntity
  8
Vrstva_1
 62
7
100
AcDbSpline
 70
8
 71
3
 72
8
 73
4
 74
0
 40
0
 40
0
 40
0
 40
0
 40
1
 40
1
 40
1
 40
1
 10
41.304664
 20
5.584642
 30
0.0
 10
41.277656
 20
5.865622
 30
0.0
 10
40.607941
 20
6.426382
 30
0.0
 10
40.606493
 20
6.710332
 30
0.0
  0
SPLINE
  5
242
100
AcDbEntity
  8
Vrstva_1
 62
7
100
AcDbSpline
 70
8
 71
3
 72
8
 73
4
 74
0
 40
0
 40
0
 40
0
 40
0
 40
1
 40
1
 40
1
 40
1
 10
40.606493
 20
6.710332
 30
0.0
 10
40.608068
 20
7.199609
 30
0.0
 10
41.303056
 20
7.409587
 30
0.0
 10
41.379935
 20
7.884719
 30
0.0
  0
SPLINE
  5
243
100
AcDbEntity
  8
Vrstva_1
 62
7
100
AcDbSpline
 70
8
 71
3
 72
8
 73
4
 74
0
 40
0
 40
0
 40
0
 40
0
 40
1
 40
1
 40
1
 40
1
 10
41.379935
 20
7.884719
 30
0.0
 10
41.471467
 20
7.761839
 30
0.0
 10
41.587392
 20
7.662704
 30
0.0
 10
41.728724
 20
7.588319
 30
0.0
  0
SPLINE
  5
244
100
AcDbEntity
  8
Vrstva_1
 62
7
100
AcDbSpline
 70
8
 71
3
 72
8
 73
4
 74
0
 40
0
 40
0
 40
0
 40
0
 40
1
 40
1
 40
1
 40
1
 10
41.728724
 20
7.588319
 30
0.0
 10
41.865929
 20
7.514444
 30
0.0
 10
42.019214
 20
7.477477
 30
0.0
 10
42.188078
 20
7.477477
 30
0.0
  0
SPLINE
  5
245
100
AcDbEntity
  8
Vrstva_1
 62
7
100
AcDbSpline
 70
8
 71
3
 72
8
 73
4
 74
0
 40
0
 40
0
 40
0
 40
0
 40
1
 40
1
 40
1
 40
1
 10
42.188078
 20
7.477477
 30
0.0
 10
42.483600
 20
7.477477
 30
0.0
 10
42.794771
 20
7.582919
 30
0.0
 10
43.121950
 20
7.793999
 30
0.0
  0
SPLINE
  5
246
100
AcDbEntity
  8
Vrstva_1
 62
7
100
AcDbSpline
 70
8
 71
3
 72
8
 73
4
 74
0
 40
0
 40
0
 40
0
 40
0
 40
1
 40
1
 40
1
 40
1
 10
43.121950
 20
7.793999
 30
0.0
 10
43.406918
 20
7.983982
 30
0.0
 10
43.612921
 20
8.184824
 30
0.0
 10
43.739570
 20
8.395904
 30
0.0
  0
SPLINE
  5
247
100
AcDbEntity
  8
Vrstva_1
 62
7
100
AcDbSpline
 70
8
 71
3
 72
8
 73
4
 74
0
 40
0
 40
0
 40
0
 40
0
 40
1
 40
1
 40
1
 40
1
 10
43.739570
 20
8.395904
 30
0.0
 10
43.897882
 20
8.649209
 30
0.0
 10
43.976968
 20
8.860094
 30
0.0
 10
43.976968
 20
9.028964
 30
0.0
  0
SPLINE
  5
248
100
AcDbEntity
  8
Vrstva_1
 62
7
100
AcDbSpline
 70
8
 71
3
 72
8
 73
4
 74
0
 40
0
 40
0
 40
0
 40
0
 40
1
 40
1
 40
1
 40
1
 10
43.976968
 20
9.028964
 30
0.0
 10
43.976968
 20
9.292822
 30
0.0
 10
43.761393
 20
8.922262
 30
0.0
 10
43.576225
 20
9.567449
 30
0.0
  0
SPLINE
  5
249
100
AcDbEntity
  8
Vrstva_1
 62
7
100
AcDbSpline
 70
8
 71
3
 72
8
 73
4
 74
0
 40
0
 40
0
 40
0
 40
0
 40
1
 40
1
 40
1
 40
1
 10
43.576225
 20
9.567449
 30
0.0
 10
43.469047
 20
9.940897
 30
0.0
 10
43.469047
 20
9.814252
 30
0.0
 10
43.469047
 20
9.940897
 30
0.0
  0
SPLINE
  5
24a
100
AcDbEntity
  8
Vrstva_1
 62
7
100
AcDbSpline
 70
8
 71
3
 72
8
 73
4
 74
0
 40
0
 40
0
 40
0
 40
0
 40
1
 40
1
 40
1
 40
1
 10
43.469047
 20
9.940897
 30
0.0
 10
43.469047
 20
10.035884
 30
0.0
 10
43.553291
 20
10.122719
 30
0.0
 10
43.722160
 20
10.302134
 30
0.0
  0
SPLINE
  5
24b
100
AcDbEntity
  8
Vrstva_1
 62
7
100
AcDbSpline
 70
8
 71
3
 72
8
 73
4
 74
0
 40
0
 40
0
 40
0
 40
0
 40
1
 40
1
 40
1
 40
1
 10
43.722160
 20
10.302134
 30
0.0
 10
43.986014
 20
10.576552
 30
0.0
 10
43.778717
 20
10.562264
 30
0.0
 10
44.612508
 20
10.562264
 30
0.0
  0
LWPOLYLINE
  5
24c
100
AcDbEntity
  8
Vrstva_1
 62
7
100
AcDbPolyline
 90
1
 70
1
 10
44.729969
 20
11.439547
 30
0.0
  0
SPLINE
  5
24d
100
AcDbEntity
  8
Vrstva_1
 62
7
100
AcDbSpline
 70
8
 71
3
 72
8
 73
4
 74
0
 40
0
 40
0
 40
0
 40
0
 40
1
 40
1
 40
1
 40
1
 10
41.090386
 20
13.589527
 30
0.0
 10
41.112421
 20
14.134859
 30
0.0
 10
41.204188
 20
14.669887
 30
0.0
 10
41.330827
 20
15.203294
 30
0.0
  0
SPLINE
  5
24e
100
AcDbEntity
  8
Vrstva_1
 62
7
100
AcDbSpline
 70
8
 71
3
 72
8
 73
4
 74
0
 40
0
 40
0
 40
0
 40
0
 40
1
 40
1
 40
1
 40
1
 10
41.330827
 20
15.203294
 30
0.0
 10
41.541956
 20
15.913139
 30
0.0
 10
41.782248
 20
16.799782
 30
0.0
 10
42.552260
 20
17.074807
 30
0.0
  0
SPLINE
  5
24f
100
AcDbEntity
  8
Vrstva_1
 62
7
100
AcDbSpline
 70
8
 71
3
 72
8
 73
4
 74
0
 40
0
 40
0
 40
0
 40
0
 40
1
 40
1
 40
1
 40
1
 10
42.552260
 20
17.074807
 30
0.0
 10
43.284384
 20
17.190412
 30
0.0
 10
43.752344
 20
16.408829
 30
0.0
 10
44.002924
 20
15.820537
 30
0.0
  0
SPLINE
  5
250
100
AcDbEntity
  8
Vrstva_1
 62
7
100
AcDbSpline
 70
8
 71
3
 72
8
 73
4
 74
0
 40
0
 40
0
 40
0
 40
0
 40
1
 40
1
 40
1
 40
1
 10
44.002924
 20
15.820537
 30
0.0
 10
44.358720
 20
15.006629
 30
0.0
 10
44.607394
 20
14.135339
 30
0.0
 10
44.691339
 20
13.248982
 30
0.0
  0
SPLINE
  5
251
100
AcDbEntity
  8
Vrstva_1
 62
7
100
AcDbSpline
 70
8
 71
3
 72
8
 73
4
 74
0
 40
0
 40
0
 40
0
 40
0
 40
1
 40
1
 40
1
 40
1
 10
44.691339
 20
13.248982
 30
0.0
 10
44.735836
 20
12.430462
 30
0.0
 10
44.007160
 20
11.864594
 30
0.0
 10
43.263955
 20
11.746417
 30
0.0
  0
SPLINE
  5
252
100
AcDbEntity
  8
Vrstva_1
 62
7
100
AcDbSpline
 70
8
 71
3
 72
8
 73
4
 74
0
 40
0
 40
0
 40
0
 40
0
 40
1
 40
1
 40
1
 40
1
 10
43.263955
 20
11.746417
 30
0.0
 10
42.583185
 20
11.541877
 30
0.0
 10
41.760521
 20
11.766967
 30
0.0
 10
41.398237
 20
12.414697
 30
0.0
  0
SPLINE
  5
253
100
AcDbEntity
  8
Vrstva_1
 62
7
100
AcDbSpline
 70
8
 71
3
 72
8
 73
4
 74
0
 40
0
 40
0
 40
0
 40
0
 40
1
 40
1
 40
1
 40
1
 10
41.398237
 20
12.414697
 30
0.0
 10
41.170259
 20
12.766012
 30
0.0
 10
41.083604
 20
13.209824
 30
0.0
 10
41.090386
 20
13.589527
 30
0.0
  0
LWPOLYLINE
  5
254
100
AcDbEntity
  8
Vrstva_1
 62
7
100
AcDbPolyline
 90
1
 70
1
 10
44.612508
 20
10.562264
 30
0.0
  0
SPLINE
  5
255
100
AcDbEntity
  8
Vrstva_1
 62
7
100
AcDbSpline
 70
8
 71
3
 72
8
 73
4
 74
0
 40
0
 40
0
 40
0
 40
0
 40
1
 40
1
 40
1
 40
1
 10
44.895632
 20
13.404824
 30
0.0
 10
44.963950
 20
13.820212
 30
0.0
 10
45.006030
 20
14.260837
 30
0.0
 10
45.154241
 20
14.642309
 30
0.0
  0
SPLINE
  5
256
100
AcDbEntity
  8
Vrstva_1
 62
7
100
AcDbSpline
 70
8
 71
3
 72
8
 73
4
 74
0
 40
0
 40
0
 40
0
 40
0
 40
1
 40
1
 40
1
 40
1
 10
45.154241
 20
14.642309
 30
0.0
 10
45.186251
 20
14.962507
 30
0.0
 10
45.374690
 20
15.233092
 30
0.0
 10
45.428046
 20
15.545317
 30
0.0
  0
SPLINE
  5
257
100
AcDbEntity
  8
Vrstva_1
 62
7
100
AcDbSpline
 70
8
 71
3
 72
8
 73
4
 74
0
 40
0
 40
0
 40
0
 40
0
 40
1
 40
1
 40
1
 40
1
 10
45.428046
 20
15.545317
 30
0.0
 10
45.593454
 20
15.746872
 30
0.0
 10
45.579949
 20
15.999629
 30
0.0
 10
45.763818
 20
16.175309
 30
0.0
  0
SPLINE
  5
258
100
AcDbEntity
  8
Vrstva_1
 62
7
100
AcDbSpline
 70
8
 71
3
 72
8
 73
4
 74
0
 40
0
 40
0
 40
0
 40
0
 40
1
 40
1
 40
1
 40
1
 10
45.763818
 20
16.175309
 30
0.0
 10
45.852543
 20
16.375394
 30
0.0
 10
45.971334
 20
16.565084
 30
0.0
 10
46.133257
 20
16.729402
 30
0.0
  0
SPLINE
  5
259
100
AcDbEntity
  8
Vrstva_1
 62
7
100
AcDbSpline
 70
8
 71
3
 72
8
 73
4
 74
0
 40
0
 40
0
 40
0
 40
0
 40
1
 40
1
 40
1
 40
1
 10
46.133257
 20
16.729402
 30
0.0
 10
46.259923
 20
16.884892
 30
0.0
 10
46.446055
 20
17.001622
 30
0.0
 10
46.644319
 20
17.049989
 30
0.0
  0
SPLINE
  5
25a
100
AcDbEntity
  8
Vrstva_1
 62
7
100
AcDbSpline
 70
8
 71
3
 72
8
 73
4
 74
0
 40
0
 40
0
 40
0
 40
0
 40
1
 40
1
 40
1
 40
1
 10
46.644319
 20
17.049989
 30
0.0
 10
46.932156
 20
17.203139
 30
0.0
 10
47.207178
 20
16.999289
 30
0.0
 10
47.426304
 20
16.858694
 30
0.0
  0
SPLINE
  5
25b
100
AcDbEntity
  8
Vrstva_1
 62
7
100
AcDbSpline
 70
8
 71
3
 72
8
 73
4
 74
0
 40
0
 40
0
 40
0
 40
0
 40
1
 40
1
 40
1
 40
1
 10
47.426304
 20
16.858694
 30
0.0
 10
47.560829
 20
16.742789
 30
0.0
 10
47.597218
 20
16.566779
 30
0.0
 10
47.760779
 20
16.476599
 30
0.0
  0
SPLINE
  5
25c
100
AcDbEntity
  8
Vrstva_1
 62
7
100
AcDbSpline
 70
8
 71
3
 72
8
 73
4
 74
0
 40
0
 40
0
 40
0
 40
0
 40
1
 40
1
 40
1
 40
1
 10
47.760779
 20
16.476599
 30
0.0
 10
47.813759
 20
16.237454
 30
0.0
 10
48.004924
 20
16.055264
 30
0.0
 10
48.033731
 20
15.805912
 30
0.0
  0
SPLINE
  5
25d
100
AcDbEntity
  8
Vrstva_1
 62
7
100
AcDbSpline
 70
8
 71
3
 72
8
 73
4
 74
0
 40
0
 40
0
 40
0
 40
0
 40
1
 40
1
 40
1
 40
1
 10
48.033731
 20
15.805912
 30
0.0
 10
48.173629
 20
15.451477
 30
0.0
 10
48.279955
 20
15.070874
 30
0.0
 10
48.327683
 20
14.671552
 30
0.0
  0
SPLINE
  5
25e
100
AcDbEntity
  8
Vrstva_1
 62
7
100
AcDbSpline
 70
8
 71
3
 72
8
 73
4
 74
0
 40
0
 40
0
 40
0
 40
0
 40
1
 40
1
 40
1
 40
1
 10
48.327683
 20
14.671552
 30
0.0
 10
48.421647
 20
14.271892
 30
0.0
 10
48.487189
 20
13.800007
 30
0.0
 10
48.479213
 20
13.404824
 30
0.0
  0
SPLINE
  5
25f
100
AcDbEntity
  8
Vrstva_1
 62
7
100
AcDbSpline
 70
8
 71
3
 72
8
 73
4
 74
0
 40
0
 40
0
 40
0
 40
0
 40
1
 40
1
 40
1
 40
1
 10
48.479213
 20
13.404824
 30
0.0
 10
48.407400
 20
13.071577
 30
0.0
 10
48.391010
 20
12.715297
 30
0.0
 10
48.184812
 20
12.436694
 30
0.0
  0
SPLINE
  5
260
100
AcDbEntity
  8
Vrstva_1
 62
7
100
AcDbSpline
 70
8
 71
3
 72
8
 73
4
 74
0
 40
0
 40
0
 40
0
 40
0
 40
1
 40
1
 40
1
 40
1
 10
48.184812
 20
12.436694
 30
0.0
 10
48.094081
 20
12.274462
 30
0.0
 10
47.924389
 20
12.114352
 30
0.0
 10
47.795749
 20
11.982644
 30
0.0
  0
SPLINE
  5
261
100
AcDbEntity
  8
Vrstva_1
 62
7
100
AcDbSpline
 70
8
 71
3
 72
8
 73
4
 74
0
 40
0
 40
0
 40
0
 40
0
 40
1
 40
1
 40
1
 40
1
 10
47.795749
 20
11.982644
 30
0.0
 10
47.427178
 20
11.707049
 30
0.0
 10
46.958156
 20
11.645564
 30
0.0
 10
46.497164
 20
11.692034
 30
0.0
  0
SPLINE
  5
262
100
AcDbEntity
  8
Vrstva_1
 62
7
100
AcDbSpline
 70
8
 71
3
 72
8
 73
4
 74
0
 40
0
 40
0
 40
0
 40
0
 40
1
 40
1
 40
1
 40
1
 10
46.497164
 20
11.692034
 30
0.0
 10
46.143603
 20
11.775427
 30
0.0
 10
45.805372
 20
11.842874
 30
0.0
 10
45.514445
 20
12.056519
 30
0.0
  0
SPLINE
  5
263
100
AcDbEntity
  8
Vrstva_1
 62
7
100
AcDbSpline
 70
8
 71
3
 72
8
 73
4
 74
0
 40
0
 40
0
 40
0
 40
0
 40
1
 40
1
 40
1
 40
1
 10
45.514445
 20
12.056519
 30
0.0
 10
45.323517
 20
12.186907
 30
0.0
 10
45.142508
 20
12.333397
 30
0.0
 10
45.052647
 20
12.545977
 30
0.0
  0
SPLINE
  5
264
100
AcDbEntity
  8
Vrstva_1
 62
7
100
AcDbSpline
 70
8
 71
3
 72
8
 73
4
 74
0
 40
0
 40
0
 40
0
 40
0
 40
1
 40
1
 40
1
 40
1
 10
45.052647
 20
12.545977
 30
0.0
 10
44.935532
 20
12.795052
 30
0.0
 10
44.851080
 20
13.124932
 30
0.0
 10
44.895632
 20
13.404824
 30
0.0
  0
LWPOLYLINE
  5
265
100
AcDbEntity
  8
Vrstva_1
 62
7
100
AcDbPolyline
 90
1
 70
1
 10
41.090386
 20
13.589527
 30
0.0
  0
SPLINE
  5
266
100
AcDbEntity
  8
Vrstva_1
 62
7
100
AcDbSpline
 70
8
 71
3
 72
8
 73
4
 74
0
 40
0
 40
0
 40
0
 40
0
 40
1
 40
1
 40
1
 40
1
 10
48.001578
 20
11.517817
 30
0.0
 10
48.087929
 20
11.772097
 30
0.0
 10
48.170972
 20
12.008707
 30
0.0
 10
48.296549
 20
12.241222
 30
0.0
  0
SPLINE
  5
267
100
AcDbEntity
  8
Vrstva_1
 62
7
100
AcDbSpline
 70
8
 71
3
 72
8
 73
4
 74
0
 40
0
 40
0
 40
0
 40
0
 40
1
 40
1
 40
1
 40
1
 10
48.296549
 20
12.241222
 30
0.0
 10
48.368834
 20
12.430124
 30
0.0
 10
48.490823
 20
12.618697
 30
0.0
 10
48.590047
 20
12.795322
 30
0.0
  0
SPLINE
  5
268
100
AcDbEntity
  8
Vrstva_1
 62
7
100
AcDbSpline
 70
8
 71
3
 72
8
 73
4
 74
0
 40
0
 40
0
 40
0
 40
0
 40
1
 40
1
 40
1
 40
1
 10
48.590047
 20
12.795322
 30
0.0
 10
48.762611
 20
12.959729
 30
0.0
 10
48.890163
 20
13.129394
 30
0.0
 10
49.088789
 20
13.220129
 30
0.0
  0
SPLINE
  5
269
100
AcDbEntity
  8
Vrstva_1
 62
7
100
AcDbSpline
 70
8
 71
3
 72
8
 73
4
 74
0
 40
0
 40
0
 40
0
 40
0
 40
1
 40
1
 40
1
 40
1
 10
49.088789
 20
13.220129
 30
0.0
 10
49.388173
 20
13.395712
 30
0.0
 10
49.756161
 20
13.234454
 30
0.0
 10
49.920032
 20
12.980017
 30
0.0
  0
SPLINE
  5
26a
100
AcDbEntity
  8
Vrstva_1
 62
7
100
AcDbSpline
 70
8
 71
3
 72
8
 73
4
 74
0
 40
0
 40
0
 40
0
 40
0
 40
1
 40
1
 40
1
 40
1
 10
49.920032
 20
12.980017
 30
0.0
 10
50.041171
 20
12.797062
 30
0.0
 10
50.162565
 20
12.614527
 30
0.0
 10
50.224826
 20
12.407452
 30
0.0
  0
SPLINE
  5
26b
100
AcDbEntity
  8
Vrstva_1
 62
7
100
AcDbSpline
 70
8
 71
3
 72
8
 73
4
 74
0
 40
0
 40
0
 40
0
 40
0
 40
1
 40
1
 40
1
 40
1
 10
50.224826
 20
12.407452
 30
0.0
 10
50.397965
 20
12.009397
 30
0.0
 10
50.446000
 20
11.558812
 30
0.0
 10
50.482341
 20
11.105317
 30
0.0
  0
SPLINE
  5
26c
100
AcDbEntity
  8
Vrstva_1
 62
7
100
AcDbSpline
 70
8
 71
3
 72
8
 73
4
 74
0
 40
0
 40
0
 40
0
 40
0
 40
1
 40
1
 40
1
 40
1
 10
50.482341
 20
11.105317
 30
0.0
 10
50.555466
 20
10.737682
 30
0.0
 10
50.578909
 20
10.327259
 30
0.0
 10
50.409546
 20
9.987892
 30
0.0
  0
SPLINE
  5
26d
100
AcDbEntity
  8
Vrstva_1
 62
7
100
AcDbSpline
 70
8
 71
3
 72
8
 73
4
 74
0
 40
0
 40
0
 40
0
 40
0
 40
1
 40
1
 40
1
 40
1
 10
50.409546
 20
9.987892
 30
0.0
 10
50.356116
 20
9.790844
 30
0.0
 10
50.242976
 20
9.568409
 30
0.0
 10
50.047885
 20
9.459382
 30
0.0
  0
SPLINE
  5
26e
100
AcDbEntity
  8
Vrstva_1
 62
7
100
AcDbSpline
 70
8
 71
3
 72
8
 73
4
 74
0
 40
0
 40
0
 40
0
 40
0
 40
1
 40
1
 40
1
 40
1
 10
50.047885
 20
9.459382
 30
0.0
 10
49.889099
 20
9.153517
 30
0.0
 10
49.429975
 20
9.070109
 30
0.0
 10
49.090559
 20
9.102434
 30
0.0
  0
SPLINE
  5
26f
100
AcDbEntity
  8
Vrstva_1
 62
7
100
AcDbSpline
 70
8
 71
3
 72
8
 73
4
 74
0
 40
0
 40
0
 40
0
 40
0
 40
1
 40
1
 40
1
 40
1
 10
49.090559
 20
9.102434
 30
0.0
 10
48.735840
 20
9.133559
 30
0.0
 10
48.431894
 20
9.272954
 30
0.0
 10
48.137483
 20
9.443872
 30
0.0
  0
SPLINE
  5
270
100
AcDbEntity
  8
Vrstva_1
 62
7
100
AcDbSpline
 70
8
 71
3
 72
8
 73
4
 74
0
 40
0
 40
0
 40
0
 40
0
 40
1
 40
1
 40
1
 40
1
 10
48.137483
 20
9.443872
 30
0.0
 10
47.898226
 20
9.652702
 30
0.0
 10
47.717110
 20
9.899129
 30
0.0
 10
47.762730
 20
10.229542
 30
0.0
  0
SPLINE
  5
271
100
AcDbEntity
  8
Vrstva_1
 62
7
100
AcDbSpline
 70
8
 71
3
 72
8
 73
4
 74
0
 40
0
 40
0
 40
0
 40
0
 40
1
 40
1
 40
1
 40
1
 10
47.762730
 20
10.229542
 30
0.0
 10
47.636320
 20
10.610759
 30
0.0
 10
47.877903
 20
11.169232
 30
0.0
 10
48.001581
 20
11.517817
 30
0.0
  0
LWPOLYLINE
  5
272
100
AcDbEntity
  8
Vrstva_1
 62
7
100
AcDbPolyline
 90
1
 70
1
 10
44.895632
 20
13.404824
 30
0.0
  0
SPLINE
  5
273
100
AcDbEntity
  8
Vrstva_1
 62
7
100
AcDbSpline
 70
8
 71
3
 72
8
 73
4
 74
0
 40
0
 40
0
 40
0
 40
0
 40
1
 40
1
 40
1
 40
1
 10
8.151755
 20
12.069937
 30
0.0
 10
8.151755
 20
11.965929
 30
0.0
 10
8.110438
 20
11.866182
 30
0.0
 10
8.036894
 20
11.792638
 30
0.0
  0
SPLINE
  5
274
100
AcDbEntity
  8
Vrstva_1
 62
7
100
AcDbSpline
 70
8
 71
3
 72
8
 73
4
 74
0
 40
0
 40
0
 40
0
 40
0
 40
1
 40
1
 40
1
 40
1
 10
8.036894
 20
11.792638
 30
0.0
 10
7.963350
 20
11.719093
 30
0.0
 10
7.863603
 20
11.677777
 30
0.0
 10
7.759595
 20
11.677777
 30
0.0
  0
SPLINE
  5
275
100
AcDbEntity
  8
Vrstva_1
 62
7
100
AcDbSpline
 70
8
 71
3
 72
8
 73
4
 74
0
 40
0
 40
0
 40
0
 40
0
 40
1
 40
1
 40
1
 40
1
 10
7.759595
 20
11.677777
 30
0.0
 10
7.655588
 20
11.677777
 30
0.0
 10
7.555841
 20
11.719094
 30
0.0
 10
7.482297
 20
11.792638
 30
0.0
  0
SPLINE
  5
276
100
AcDbEntity
  8
Vrstva_1
 62
7
100
AcDbSpline
 70
8
 71
3
 72
8
 73
4
 74
0
 40
0
 40
0
 40
0
 40
0
 40
1
 40
1
 40
1
 40
1
 10
7.482297
 20
11.792638
 30
0.0
 10
7.408753
 20
11.866182
 30
0.0
 10
7.367436
 20
11.965930
 30
0.0
 10
7.367437
 20
12.069937
 30
0.0
  0
SPLINE
  5
277
100
AcDbEntity
  8
Vrstva_1
 62
7
100
AcDbSpline
 70
8
 71
3
 72
8
 73
4
 74
0
 40
0
 40
0
 40
0
 40
0
 40
1
 40
1
 40
1
 40
1
 10
7.367437
 20
12.069937
 30
0.0
 10
7.367436
 20
12.173944
 30
0.0
 10
7.408753
 20
12.273691
 30
0.0
 10
7.482297
 20
12.347236
 30
0.0
  0
SPLINE
  5
278
100
AcDbEntity
  8
Vrstva_1
 62
7
100
AcDbSpline
 70
8
 71
3
 72
8
 73
4
 74
0
 40
0
 40
0
 40
0
 40
0
 40
1
 40
1
 40
1
 40
1
 10
7.482297
 20
12.347236
 30
0.0
 10
7.555841
 20
12.420780
 30
0.0
 10
7.655588
 20
12.462097
 30
0.0
 10
7.759595
 20
12.462097
 30
0.0
  0
SPLINE
  5
279
100
AcDbEntity
  8
Vrstva_1
 62
7
100
AcDbSpline
 70
8
 71
3
 72
8
 73
4
 74
0
 40
0
 40
0
 40
0
 40
0
 40
1
 40
1
 40
1
 40
1
 10
7.759595
 20
12.462097
 30
0.0
 10
7.863603
 20
12.462097
 30
0.0
 10
7.963350
 20
12.420780
 30
0.0
 10
8.036894
 20
12.347236
 30
0.0
  0
SPLINE
  5
27a
100
AcDbEntity
  8
Vrstva_1
 62
7
100
AcDbSpline
 70
8
 71
3
 72
8
 73
4
 74
0
 40
0
 40
0
 40
0
 40
0
 40
1
 40
1
 40
1
 40
1
 10
8.036894
 20
12.347236
 30
0.0
 10
8.110438
 20
12.273691
 30
0.0
 10
8.151755
 20
12.173944
 30
0.0
 10
8.151755
 20
12.069937
 30
0.0
  0
LWPOLYLINE
  5
27b
100
AcDbEntity
  8
Vrstva_1
 62
7
100
AcDbPolyline
 90
1
 70
1
 10
48.001581
 20
11.517817
 30
0.0
  0
SPLINE
  5
27c
100
AcDbEntity
  8
Vrstva_1
 62
7
100
AcDbSpline
 70
8
 71
3
 72
8
 73
4
 74
0
 40
0
 40
0
 40
0
 40
0
 40
1
 40
1
 40
1
 40
1
 10
115.391312
 20
12.069937
 30
0.0
 10
115.391312
 20
11.965929
 30
0.0
 10
115.349995
 20
11.866182
 30
0.0
 10
115.276451
 20
11.792637
 30
0.0
  0
SPLINE
  5
27d
100
AcDbEntity
  8
Vrstva_1
 62
7
100
AcDbSpline
 70
8
 71
3
 72
8
 73
4
 74
0
 40
0
 40
0
 40
0
 40
0
 40
1
 40
1
 40
1
 40
1
 10
115.276451
 20
11.792637
 30
0.0
 10
115.202906
 20
11.719093
 30
0.0
 10
115.103159
 20
11.677776
 30
0.0
 10
114.999151
 20
11.677777
 30
0.0
  0
SPLINE
  5
27e
100
AcDbEntity
  8
Vrstva_1
 62
7
100
AcDbSpline
 70
8
 71
3
 72
8
 73
4
 74
0
 40
0
 40
0
 40
0
 40
0
 40
1
 40
1
 40
1
 40
1
 10
114.999151
 20
11.677777
 30
0.0
 10
114.895144
 20
11.677776
 30
0.0
 10
114.795397
 20
11.719093
 30
0.0
 10
114.721852
 20
11.792637
 30
0.0
  0
SPLINE
  5
27f
100
AcDbEntity
  8
Vrstva_1
 62
7
100
AcDbSpline
 70
8
 71
3
 72
8
 73
4
 74
0
 40
0
 40
0
 40
0
 40
0
 40
1
 40
1
 40
1
 40
1
 10
114.721852
 20
11.792637
 30
0.0
 10
114.648308
 20
11.866182
 30
0.0
 10
114.606991
 20
11.965929
 30
0.0
 10
114.606991
 20
12.069937
 30
0.0
  0
SPLINE
  5
280
100
AcDbEntity
  8
Vrstva_1
 62
7
100
AcDbSpline
 70
8
 71
3
 72
8
 73
4
 74
0
 40
0
 40
0
 40
0
 40
0
 40
1
 40
1
 40
1
 40
1
 10
114.606991
 20
12.069937
 30
0.0
 10
114.606991
 20
12.173944
 30
0.0
 10
114.648308
 20
12.273692
 30
0.0
 10
114.721852
 20
12.347236
 30
0.0
  0
SPLINE
  5
281
100
AcDbEntity
  8
Vrstva_1
 62
7
100
AcDbSpline
 70
8
 71
3
 72
8
 73
4
 74
0
 40
0
 40
0
 40
0
 40
0
 40
1
 40
1
 40
1
 40
1
 10
114.721852
 20
12.347236
 30
0.0
 10
114.795397
 20
12.420780
 30
0.0
 10
114.895144
 20
12.462097
 30
0.0
 10
114.999151
 20
12.462097
 30
0.0
  0
SPLINE
  5
282
100
AcDbEntity
  8
Vrstva_1
 62
7
100
AcDbSpline
 70
8
 71
3
 72
8
 73
4
 74
0
 40
0
 40
0
 40
0
 40
0
 40
1
 40
1
 40
1
 40
1
 10
114.999151
 20
12.462097
 30
0.0
 10
115.103159
 20
12.462097
 30
0.0
 10
115.202906
 20
12.420780
 30
0.0
 10
115.276451
 20
12.347236
 30
0.0
  0
SPLINE
  5
283
100
AcDbEntity
  8
Vrstva_1
 62
7
100
AcDbSpline
 70
8
 71
3
 72
8
 73
4
 74
0
 40
0
 40
0
 40
0
 40
0
 40
1
 40
1
 40
1
 40
1
 10
115.276451
 20
12.347236
 30
0.0
 10
115.349995
 20
12.273692
 30
0.0
 10
115.391312
 20
12.173944
 30
0.0
 10
115.391312
 20
12.069937
 30
0.0
  0
LWPOLYLINE
  5
284
100
AcDbEntity
  8
Vrstva_1
 62
7
100
AcDbPolyline
 90
1
 70
1
 10
8.151755
 20
12.069937
 30
0.0
  0
LWPOLYLINE
  5
285
100
AcDbEntity
  8
Vrstva_1
 62
7
100
AcDbPolyline
 90
1
 70
1
 10
115.391312
 20
12.069937
 30
0.0
  0
ENDSEC
  0
SECTION
  2
OBJECTS
  0
DICTIONARY
  5
C
330
0
100
AcDbDictionary
  3
ACAD_GROUP
350
D
  3
ACAD_MLINESTYLE
350
17
  0
DICTIONARY
  5
D
330
C
100
AcDbDictionary
  0
DICTIONARY
  5
1A
330
C
100
AcDbDictionary
  0
DICTIONARY
  5
17
330
C
100
AcDbDictionary
  3
STANDARD
350
18
  0
DICTIONARY
  5
19
330
C
100
AcDbDictionary
  0
ENDSEC
  0
EOF
