<?xml version="1.0" encoding="UTF-8" standalone="no"?>
<!-- Created with Inkscape (http://www.inkscape.org/) -->

<svg
   xmlns:dc="http://purl.org/dc/elements/1.1/"
   xmlns:cc="http://creativecommons.org/ns#"
   xmlns:rdf="http://www.w3.org/1999/02/22-rdf-syntax-ns#"
   xmlns:svg="http://www.w3.org/2000/svg"
   xmlns="http://www.w3.org/2000/svg"
   xmlns:sodipodi="http://sodipodi.sourceforge.net/DTD/sodipodi-0.dtd"
   xmlns:inkscape="http://www.inkscape.org/namespaces/inkscape"
   width="163.66621mm"
   height="32.186459mm"
   viewBox="0 0 163.66621 32.186459"
   version="1.1"
   id="svg8"
   inkscape:version="0.92.1 r"
   sodipodi:docname="mardera.svg">
  <defs
     id="defs2">
    <inkscape:perspective
       sodipodi:type="inkscape:persp3d"
       inkscape:vp_x="0 : 148.5 : 1"
       inkscape:vp_y="0 : 1000 : 0"
       inkscape:vp_z="209.99998 : 148.5 : 1"
       inkscape:persp3d-origin="105 : 99 : 1"
       id="perspective4606" />
  </defs>
  <sodipodi:namedview
     id="base"
     pagecolor="#ffffff"
     bordercolor="#666666"
     borderopacity="1.0"
     inkscape:pageopacity="0.0"
     inkscape:pageshadow="2"
     inkscape:zoom="1.4"
     inkscape:cx="161.22404"
     inkscape:cy="109.8873"
     inkscape:document-units="mm"
     inkscape:current-layer="layer1"
     showgrid="false"
     inkscape:window-width="1280"
     inkscape:window-height="751"
     inkscape:window-x="0"
     inkscape:window-y="27"
     inkscape:window-maximized="1"
     fit-margin-top="0"
     fit-margin-left="0"
     fit-margin-right="0"
     fit-margin-bottom="0"
     viewbox-x="0" />
  <metadata
     id="metadata5">
    <rdf:RDF>
      <cc:Work
         rdf:about="">
        <dc:format>image/svg+xml</dc:format>
        <dc:type
           rdf:resource="http://purl.org/dc/dcmitype/StillImage" />
        <dc:title />
      </cc:Work>
    </rdf:RDF>
  </metadata>
  <g
     inkscape:label="Vrstva 1"
     inkscape:groupmode="layer"
     id="layer1"
     transform="translate(34.492682,-121.06751)">
    <path
       style="fill:none;fill-opacity:1;fill-rule:nonzero;stroke:#000000;stroke-width:2.16300011;stroke-linejoin:miter;stroke-miterlimit:4;stroke-dasharray:none;stroke-opacity:1"
       d="M -27.274424,121.14919 H 121.95527 c 3.95366,0 7.13657,3.18291 7.13657,7.13657 v 17.74995 c 0,3.95366 -3.18291,7.13657 -7.13657,7.13657 H -27.274424 c -3.95366,0 -7.136571,-3.18291 -7.136571,-7.13657 v -17.74995 c 0,-3.95366 3.182911,-7.13657 7.136571,-7.13657 z"
       id="rect4747" />
    <flowRoot
       xml:space="preserve"
       id="flowRoot4485"
       style="font-style:normal;font-variant:normal;font-weight:normal;font-stretch:normal;font-size:144px;line-height:25px;font-family:'PHANTOM STENCIL';-inkscape-font-specification:'PHANTOM STENCIL';letter-spacing:0px;word-spacing:0px;fill:#000000;fill-opacity:1;stroke:none;stroke-width:1px;stroke-linecap:butt;stroke-linejoin:miter;stroke-opacity:1"
       transform="scale(0.26458333)"><flowRegion
         id="flowRegion4487"><rect
           id="rect4489"
           width="488.91382"
           height="177.78685"
           x="98.994949"
           y="465.92053" /></flowRegion><flowPara
         id="flowPara4491" /></flowRoot>    <path
       inkscape:connector-curvature="0"
       id="path4584"
       style="font-style:normal;font-variant:normal;font-weight:normal;font-stretch:normal;font-size:medium;line-height:6.61458349px;font-family:Thickhead;-inkscape-font-specification:Thickhead;letter-spacing:0px;word-spacing:0px;fill:#000000;fill-opacity:1;stroke:none;stroke-width:0.18822666px;stroke-linecap:butt;stroke-linejoin:miter;stroke-opacity:1"
       d="m 11.153229,146.44405 q -1.436546,0.18974 -2.6020456,0 Q 6.7351725,146.1459 6.7351725,144.357 v 0 q 0,-1.43655 1.4907553,-5.06857 1.6804876,-4.01149 1.9244292,-5.47514 0.460779,-2.73757 -1.5991736,-3.41518 -0.4878835,-0.16263 -0.8944531,-0.16263 v 0 0 q -1.8702202,0 -1.8160109,4.39095 0.1355232,10.84186 0.2710464,8.32112 -0.2439417,4.58069 -2.8730919,4.96015 -1.0028716,0.13553 -2.60204541,-0.0813 -2.95440509,-0.40657 -2.95440509,-6.47801 v 0 0 q 0,0.67762 0.2168364,-5.55645 0.1084186,-3.11703 -0.3523596,-4.36385 -0.5963021,-1.62628 -2.3852083,-1.02997 -1.6804877,0.56919 -1.6804877,2.46652 v 0 q 0,1.59917 1.5178598,5.31251 1.7075924,4.0928 1.9244295,5.36672 0.4065696,2.54783 -1.7618016,2.90019 -1.1654996,0.18974 -2.6020455,0 -2.7104644,-0.35236 -4.2825334,-3.33387 -1.436546,-2.71046 -1.436546,-6.47801 0,-3.76754 1.436546,-6.55932 1.572069,-3.06282 4.2825334,-3.55071 1.734697,-0.32525 3.8488589,-0.0813 5.2040902,0.5692 5.2040902,6.26117 0,1.62628 -0.4878835,4.49937 -0.46077887,2.87309 -0.46077887,3.74044 0,1.81601 1.27391807,1.7347 0.7047207,-0.0542 0.7047207,-1.54497 0,-0.67761 -0.2710464,-3.03572 -0.2439418,-2.3852 -0.2439418,-3.79465 0,-6.80326 5.420928,-7.6164 1.9515341,-0.29815 3.6049173,0 2.710464,0.48788 4.282533,3.5236 1.436545,2.79178 1.436545,6.50512 0,3.74044 -1.436545,6.4238 -1.572069,2.9544 -4.282533,3.30676 z" />
    <path
       inkscape:connector-curvature="0"
       id="path4588"
       style="font-style:normal;font-variant:normal;font-weight:normal;font-stretch:normal;font-size:medium;line-height:6.61458349px;font-family:Thickhead;-inkscape-font-specification:Thickhead;letter-spacing:0px;word-spacing:0px;fill:#000000;fill-opacity:1;stroke:none;stroke-width:0.18822666px;stroke-linecap:butt;stroke-linejoin:miter;stroke-opacity:1"
       d="m 46.277029,131.15704 q 0.596303,0.56919 0.596303,1.87022 v 0 q 0,1.38233 -0.596303,2.22258 -0.677616,0.94866 -1.626278,0.32525 -2.195476,-1.49075 -3.74044,-1.49075 -2.574941,0 -2.845988,3.90307 -0.05421,1.00287 0.298152,2.3852 0.677616,2.38521 1.328127,4.77042 0.05421,0.18973 0.05421,0.37947 0,0.97576 -1.192604,1.65338 -1.029976,0.5963 -1.788906,0.48788 -2.710464,-0.43367 -2.710464,-4.20122 v 0 q 0,-1.68048 0.75893,-5.52934 0.650511,-3.27967 0.406569,-4.0928 -0.271046,-0.89446 -0.271046,-1.7076 v 0 q 0,-1.92443 1.273918,-2.62915 1.219709,-0.70472 2.330999,0.35236 0.433674,0.43368 0.433674,0.75893 0,0.24395 -0.35236,0.62341 -0.35236,0.37947 -0.35236,0.5963 0,0.5421 0.542092,0.5421 0.460779,0 1.951535,-0.86735 1.599173,-0.94867 2.303894,-1.08419 0.731825,-0.13552 1.246813,-0.13552 1.057081,0 1.951534,0.86735 z" />
    <path
       inkscape:connector-curvature="0"
       id="path4590"
       style="font-style:normal;font-variant:normal;font-weight:normal;font-stretch:normal;font-size:medium;line-height:6.61458349px;font-family:Thickhead;-inkscape-font-specification:Thickhead;letter-spacing:0px;word-spacing:0px;fill:#000000;fill-opacity:1;stroke:none;stroke-width:0.18822666px;stroke-linecap:butt;stroke-linejoin:miter;stroke-opacity:1"
       d="m 64.462548,135.16852 q 0.05421,1.87022 -1.138395,4.49937 -1.219709,2.73757 -1.246814,4.44516 0,0.5692 0.731826,1.84312 0.731825,1.24681 0.731825,1.70759 0,0.65051 -1.029976,1.1384 -1.029977,0.48788 -2.249685,0.48788 -1.734697,0 -2.303895,-1.11129 -0.216837,-0.37946 0,-1.1655 0.271047,-0.97577 0.271047,-1.08418 0,-0.35237 -0.379465,-0.37947 -0.704721,-0.0542 -0.867349,0.5692 -0.271046,1.00287 -0.433674,1.1926 -0.379465,0.43368 -1.328128,0.73183 -0.921557,0.29815 -1.707592,0.29815 -0.840244,0 -1.951534,-0.24394 -1.273918,-0.27105 -1.761802,-0.65052 -1.707588,-1.30102 -2.574937,-4.06569 -0.677616,-2.22258 -0.677616,-4.6891 0,-2.73757 1.761802,-4.98726 0.867348,-1.08418 2.412309,-1.84311 1.436546,-0.65051 2.520732,-0.65051 1.057081,0 1.951534,0.70472 0.135523,0.10841 1.273918,1.27391 0.677616,0.67762 1.246813,0.67762 0.162628,0 0.352361,-0.0813 0.867348,-0.43368 0.75893,-1.68049 -0.08131,-1.02998 -0.948663,-2.71047 -0.840244,-1.68048 -0.840244,-2.33099 0,-0.75893 0.75893,-1.24682 1.192604,-0.78603 2.032848,-0.78603 0.623407,0 1.111291,0.40657 1.328127,1.11129 2.358103,3.90307 1.084186,2.90019 1.1655,5.82749 z m -7.751927,1.35523 q -1.246814,-1.89732 -2.845988,-1.89732 -0.569197,0 -1.328127,0.27105 -1.978639,0.67761 -2.439418,3.22545 -0.05421,0.27105 -0.05421,0.5963 0,1.40944 0.596302,3.30677 0.623407,1.89732 1.219709,2.331 1.355232,1.00287 2.439418,0.92155 1.544964,-0.10841 2.466522,-1.49075 0.704721,-1.05708 0.704721,-3.25256 0,-2.87309 -0.758929,-4.01149 z" />
    <path
       inkscape:connector-curvature="0"
       id="path4592"
       style="font-style:normal;font-variant:normal;font-weight:normal;font-stretch:normal;font-size:medium;line-height:6.61458349px;font-family:Thickhead;-inkscape-font-specification:Thickhead;letter-spacing:0px;word-spacing:0px;fill:#000000;fill-opacity:1;stroke:none;stroke-width:0.18822666px;stroke-linecap:butt;stroke-linejoin:miter;stroke-opacity:1"
       d="m 78.420591,138.61081 q -0.487884,1.68049 -2.818883,1.68049 v 0 q -0.867348,0 -3.008615,-0.35236 -1.897325,-0.29815 -2.62915,-0.18973 -1.11129,0.13552 -1.11129,1.1926 0,0.21684 0.05421,0.51499 0.40657,2.19548 1.51786,2.43942 0.677616,0.16262 1.138395,0.16262 0.840244,0 1.219709,-0.6234 0.379465,-0.62341 0.786034,-1.24682 0.704721,-0.75893 2.27679,-1.00287 1.1655,-0.18973 2.547836,1.62628 0.460779,0.62341 0.542093,1.19261 0.0271,0.32525 -0.05421,1.65338 -0.08131,1.32813 -2.547836,1.92443 -1.653383,0.40657 -3.848859,0.40657 -1.544965,0 -3.03572,-0.5692 -1.653383,-0.62341 -2.520732,-1.70759 -1.029976,-1.30102 -1.382336,-1.95154 -0.704721,-1.27391 -0.975767,-2.98151 -0.135523,-0.81314 -0.135523,-1.51786 0,-2.27679 1.572069,-4.66199 0.975767,-1.51786 3.198347,-2.60205 2.087058,-1.02998 3.496499,-0.92156 1.355232,0.10842 2.845987,0.75893 1.490755,0.62341 2.114162,1.43655 1.192604,1.57207 1.192604,3.00861 0,0.81314 -0.433674,2.331 z m -3.415185,-2.331 q 0,-0.75893 -0.406569,-1.38233 -0.623407,-0.97577 -2.358104,-1.1384 -1.761802,-0.16263 -2.62915,1.32813 -0.514988,0.86735 -0.514988,1.49075 0,0.59631 0.433674,1.11129 0.813139,0.97577 2.412313,0.97577 1.246813,0 2.059953,-0.54209 1.002871,-0.65051 1.002871,-1.84312 z" />
    <path
       inkscape:connector-curvature="0"
       id="path4594"
       style="font-style:normal;font-variant:normal;font-weight:normal;font-stretch:normal;font-size:medium;line-height:6.61458349px;font-family:Thickhead;-inkscape-font-specification:Thickhead;letter-spacing:0px;word-spacing:0px;fill:#000000;fill-opacity:1;stroke:none;stroke-width:0.18822666px;stroke-linecap:butt;stroke-linejoin:miter;stroke-opacity:1"
       d="m 91.433778,131.15704 q 0.596302,0.56919 0.596302,1.87022 v 0 q 0,1.38233 -0.596302,2.22258 -0.677616,0.94866 -1.626279,0.32525 -2.195476,-1.49075 -3.74044,-1.49075 -2.574941,0 -2.845987,3.90307 -0.05421,1.00287 0.298151,2.3852 0.677616,2.38521 1.328127,4.77042 0.05421,0.18973 0.05421,0.37947 0,0.97576 -1.192604,1.65338 -1.029976,0.5963 -1.788906,0.48788 -2.710464,-0.43367 -2.710464,-4.20122 v 0 q 0,-1.68048 0.75893,-5.52934 0.650511,-3.27967 0.406569,-4.0928 -0.271046,-0.89446 -0.271046,-1.7076 v 0 q 0,-1.92443 1.273918,-2.62915 1.219709,-0.70472 2.330999,0.35236 0.433674,0.43368 0.433674,0.75893 0,0.24395 -0.35236,0.62341 -0.35236,0.37947 -0.35236,0.5963 0,0.5421 0.542093,0.5421 0.460779,0 1.951534,-0.86735 1.599174,-0.94867 2.303894,-1.08419 0.731825,-0.13552 1.246814,-0.13552 1.057081,0 1.951533,0.86735 z" />
    <path
       style="fill:#000000;stroke-width:0.08206281"
       id="path4286-5"
       d="m 92.534624,138.55969 c 0.04724,-0.58042 0.09861,-1.20424 0.28324,-1.76079 0.09479,-0.37342 0.279883,-0.71473 0.492593,-1.022 0.202809,-0.31757 0.671093,-0.50372 1.059059,-0.35391 0.266977,0.10619 0.49699,0.31455 0.664996,0.55092 0.258696,0.30065 0.38453,0.68801 0.577165,1.022 0.211729,0.42883 0.329104,0.90118 0.470369,1.34986 0.201463,0.99366 -0.06253,1.92106 -0.876263,2.36477 -0.468512,0.27987 -1.131843,0.32272 -1.649036,0.1159 -0.359809,-0.13597 -0.588861,-0.44974 -0.773087,-0.76453 -0.239695,-0.46105 -0.34647,-0.95243 -0.26803,-1.48721 z"
       inkscape:connector-curvature="0" />
    <path
       style="fill:#000000;stroke-width:0.08206282"
       d="m 100.09664,137.83078 c -0.149356,0.002 -0.297654,0.006 -0.443362,0.0118 -0.910104,0.0481 -1.925495,0.25394 -2.53959,0.98304 -0.369312,0.50284 -0.571068,1.11046 -0.985984,1.5753 -0.647417,0.48881 -1.369144,0.87385 -2.038877,1.33744 -0.736378,0.47899 -1.332432,1.20838 -1.482652,2.09144 -0.127064,0.57052 0.0671,1.18271 0.263591,1.71794 0.255659,0.87341 0.887411,1.68219 1.805063,1.8944 1.020929,0.20922 1.994032,-0.28084 2.978174,-0.45218 0.13004,0.0138 0.260185,0.0332 0.390423,0.054 -0.07286,-0.11977 -0.11176,-0.24744 -0.11176,-0.38418 0,-0.0844 0.02105,-0.17611 0.06323,-0.27462 0.309584,-0.78805 0.731735,-1.28049 1.266487,-1.4775 0.168868,-0.0563 0.823287,-0.11934 1.963147,-0.1897 0.0624,-0.004 0.12352,-0.007 0.18271,-0.008 0.88805,-0.0124 1.4111,0.37749 1.56942,1.16906 0.0138,0.0844 0.0209,0.17575 0.0209,0.27425 0,0.32774 -0.0624,0.61322 -0.18602,0.85768 0.74986,0.11063 1.45133,0.49323 2.22637,0.48344 0.81187,0.0599 1.59547,-0.3559 2.03336,-1.03635 0.40823,-0.7021 0.72129,-1.51449 0.69703,-2.3385 -0.002,-1.05452 -0.77285,-1.90553 -1.60103,-2.45724 -0.60074,-0.42183 -1.2487,-0.74783 -1.82271,-1.20619 -0.59917,-0.48811 -0.73433,-1.31097 -1.27494,-1.84367 -0.81827,-0.69852 -1.92754,-0.79649 -2.97303,-0.78158 z m -0.15661,1.16979 c 0.8162,0 1.60814,0.16044 2.24139,0.41375 0.73177,0.29551 0.89379,0.45565 1.09081,1.01854 0.12665,0.33774 0.19006,0.65444 0.19006,0.94996 0,0.4081 -0.10581,0.73857 -0.31689,0.99186 -0.19702,0.23924 -0.39414,0.38023 -0.59115,0.42241 -0.19701,0.0422 -0.78077,0.10527 -1.75176,0.1897 -0.844341,0.0844 -1.653479,0.23915 -2.427461,0.46432 -0.70362,0.21108 -1.379416,0.61258 -2.026746,1.20362 -0.341518,0.31668 -0.614191,0.64406 -0.818713,0.98267 -0.03601,-0.37464 -0.928962,-1.12232 -0.930893,-1.50093 0.002,-0.65236 0.92875,-0.93233 1.031256,-1.56584 0.122042,0.16384 0.276608,0.29602 0.465052,0.3952 0.182939,0.0985 0.387319,0.14779 0.612472,0.14779 0.394028,0 0.808923,-0.14059 1.245163,-0.42204 0.379956,-0.2533 0.654628,-0.52109 0.823492,-0.80253 0.211083,-0.33774 0.316531,-0.61892 0.316531,-0.84408 0,-0.35181 -0.287433,0.14227 -0.534325,-0.71799 -0.142903,-0.49792 -0.142903,-0.32906 -0.142903,-0.49792 0,-0.12666 0.112324,-0.24243 0.337484,-0.48165 0.351806,-0.36589 0.07541,-0.34684 1.187131,-0.34684 z"
       id="path4282-1"
       inkscape:connector-curvature="0"
       sodipodi:nodetypes="scccccccccscccccsccccccccsscscccccccccsccscscss" />
    <path
       style="fill:#000000;stroke-width:0.08206281"
       id="path4268-2"
       d="m 95.243865,134.96422 c 0.02938,-0.72711 0.151736,-1.44048 0.320589,-2.15169 0.281504,-0.94646 0.601893,-2.12865 1.628576,-2.49535 0.976165,-0.15414 1.600113,0.88797 1.934218,1.67236 0.474396,1.0852 0.805962,2.24693 0.917892,3.42874 0.0593,1.09135 -0.912243,1.84585 -1.903184,2.00342 -0.907693,0.27272 -2.004577,-0.0274 -2.487623,-0.89104 -0.30397,-0.46842 -0.41951,-1.06017 -0.410468,-1.56644 z"
       inkscape:connector-curvature="0" />
    <path
       style="fill:#000000;stroke-width:0.08206281"
       id="path4262-9"
       d="m 100.31753,135.21049 c 0.0911,-0.55385 0.14719,-1.14136 0.34481,-1.64998 0.0427,-0.42693 0.29393,-0.78772 0.36507,-1.20401 0.22055,-0.26874 0.20254,-0.60575 0.4477,-0.83999 0.1183,-0.26678 0.27669,-0.5197 0.49258,-0.7388 0.16889,-0.20731 0.41707,-0.36296 0.68142,-0.42745 0.38378,-0.20419 0.75048,0.0676 1.04265,0.25507 0.17936,0.15454 0.22788,0.38922 0.44596,0.50946 0.0707,0.31886 0.32553,0.56177 0.36394,0.89425 0.18653,0.47257 0.3283,0.98005 0.39193,1.51247 0.12529,0.53289 0.21268,1.16207 0.20204,1.68898 -0.0957,0.44433 -0.1176,0.91937 -0.39253,1.29083 -0.12098,0.21631 -0.34723,0.42979 -0.51875,0.60541 -0.49143,0.36746 -1.11679,0.44944 -1.73145,0.38748 -0.47141,-0.11119 -0.92239,-0.20112 -1.31029,-0.48599 -0.25457,-0.17384 -0.49592,-0.36917 -0.61573,-0.6526 -0.15615,-0.33211 -0.26876,-0.77194 -0.20935,-1.14513 z"
       inkscape:connector-curvature="0" />
    <path
       style="fill:#000000;stroke-width:0.08206281"
       id="path4258-7"
       d="m 104.45879,137.7265 c 0.11513,-0.33904 0.22586,-0.65452 0.39329,-0.96454 0.0964,-0.25187 0.25903,-0.5033 0.39133,-0.7388 0.23009,-0.21921 0.40016,-0.44544 0.66499,-0.56641 0.39918,-0.23411 0.88983,-0.0191 1.10833,0.32015 0.16151,0.24394 0.32337,0.48732 0.40639,0.76342 0.23085,0.53074 0.2949,1.13152 0.34335,1.73617 0.0975,0.49019 0.12876,1.03741 -0.0971,1.4899 -0.0712,0.26274 -0.2221,0.55931 -0.48222,0.70469 -0.21171,0.40782 -0.82388,0.51903 -1.27643,0.47593 -0.47296,-0.0415 -0.87822,-0.22736 -1.27077,-0.45525 -0.31901,-0.27844 -0.5605,-0.60701 -0.49967,-1.04756 -0.16855,-0.5083 0.15356,-1.25292 0.31847,-1.7177 z"
       inkscape:connector-curvature="0" />
    <path
       style="fill:#000000;stroke-width:0.08206281"
       id="path4286-5-0"
       d="m 17.585259,138.73007 c 0.04724,-0.58041 0.09861,-1.20424 0.28324,-1.76079 0.09479,-0.37342 0.279882,-0.71473 0.492593,-1.022 0.202808,-0.31757 0.671092,-0.50372 1.059059,-0.3539 0.266977,0.10618 0.496989,0.31454 0.664995,0.55091 0.258697,0.30066 0.38453,0.68802 0.577165,1.022 0.21173,0.42883 0.329106,0.90118 0.470369,1.34986 0.201464,0.99366 -0.06253,1.92107 -0.876262,2.36477 -0.468512,0.27987 -1.131843,0.32272 -1.649037,0.1159 -0.359808,-0.13597 -0.58886,-0.44974 -0.773087,-0.76452 -0.239694,-0.46106 -0.34647,-0.95244 -0.26803,-1.48722 z"
       inkscape:connector-curvature="0" />
    <path
       style="fill:#000000;stroke-width:0.08206281"
       d="m 25.147273,138.00116 c -0.149357,0.002 -0.297655,0.006 -0.443363,0.0117 -0.910104,0.0481 -1.925495,0.25394 -2.53959,0.98304 -0.369311,0.50284 -0.571068,1.11045 -0.985984,1.57529 -0.647417,0.48882 -1.369143,0.87385 -2.038876,1.33744 -0.736379,0.47899 -1.332432,1.20838 -1.482653,2.09145 -0.127064,0.57051 0.0671,1.18271 0.263591,1.71793 0.255659,0.87341 0.887412,1.68219 1.805064,1.89441 1.020928,0.20922 1.994031,-0.28085 2.978173,-0.45219 0.13004,0.0139 0.260185,0.0332 0.390424,0.0541 -0.07286,-0.11977 -0.11176,-0.24744 -0.11176,-0.38418 0,-0.0844 0.02104,-0.17611 0.06323,-0.27461 0.309584,-0.78806 0.731734,-1.2805 1.266487,-1.47751 0.168868,-0.0563 0.823284,-0.11934 1.963145,-0.1897 0.06245,-0.004 0.123522,-0.006 0.182712,-0.008 0.888044,-0.0124 1.411097,0.37749 1.569413,1.16906 0.01379,0.0844 0.02096,0.17576 0.02096,0.27426 0,0.32774 -0.06242,0.61321 -0.18602,0.85768 0.749863,0.11062 1.451331,0.49322 2.226367,0.48344 0.811874,0.0599 1.595477,-0.3559 2.033364,-1.03635 0.408233,-0.7021 0.721284,-1.51449 0.697026,-2.3385 -0.0015,-1.05452 -0.772844,-1.90554 -1.60103,-2.45724 -0.600733,-0.42184 -1.248696,-0.74783 -1.82271,-1.2062 -0.599169,-0.4881 -0.734329,-1.31097 -1.274942,-1.84366 -0.81827,-0.69853 -1.927537,-0.7965 -2.973025,-0.78158 z m -0.156611,1.16979 c 0.816198,0 1.608135,0.16044 2.241388,0.41374 0.731769,0.29552 0.893794,0.45565 1.090812,1.01856 0.126646,0.33773 0.190065,0.65443 0.190065,0.94995 0,0.4081 -0.105815,0.73856 -0.316896,0.99186 -0.197019,0.23923 -0.394134,0.38023 -0.591151,0.42241 -0.197009,0.0422 -0.780764,0.10527 -1.751758,0.1897 -0.844341,0.0844 -1.653479,0.23916 -2.427461,0.46432 -0.70362,0.21108 -1.379415,0.61258 -2.026746,1.20362 -0.341518,0.31668 -0.614191,0.64407 -0.818712,0.98267 -0.03601,-0.37464 -0.928963,-1.12232 -0.930894,-1.50092 0.0021,-0.65237 0.92875,-0.93234 1.031256,-1.56585 0.122042,0.16384 0.276609,0.29602 0.465052,0.3952 0.182939,0.0985 0.38732,0.14779 0.612472,0.14779 0.394029,0 0.808924,-0.14059 1.245163,-0.42203 0.379956,-0.25331 0.654628,-0.5211 0.823492,-0.80254 0.211083,-0.33774 0.316531,-0.61892 0.316531,-0.84408 0,-0.35181 -0.287433,0.14227 -0.534324,-0.71798 -0.142904,-0.49793 -0.142904,-0.32907 -0.142904,-0.49793 0,-0.12665 0.112325,-0.24243 0.337484,-0.48165 0.351806,-0.36589 0.07541,-0.34684 1.187131,-0.34684 z"
       id="path4282-1-9"
       inkscape:connector-curvature="0"
       sodipodi:nodetypes="scccccccccscccccsccccccccsscscccccccccsccscscss" />
    <path
       style="fill:#000000;stroke-width:0.08206281"
       id="path4268-2-2"
       d="m 20.294499,135.1346 c 0.02938,-0.72711 0.151736,-1.44048 0.320589,-2.15169 0.281504,-0.94646 0.601894,-2.12865 1.628576,-2.49535 0.976166,-0.15414 1.600113,0.88797 1.93422,1.67236 0.474394,1.08521 0.80596,2.24693 0.917886,3.42874 0.05933,1.09136 -0.912239,1.84585 -1.903179,2.00342 -0.907693,0.27272 -2.004578,-0.0274 -2.487624,-0.89104 -0.30397,-0.46842 -0.41951,-1.06017 -0.410468,-1.56644 z"
       inkscape:connector-curvature="0" />
    <path
       style="fill:#000000;stroke-width:0.08206281"
       id="path4262-9-3"
       d="m 25.368161,135.38087 c 0.09109,-0.55385 0.147197,-1.14135 0.344812,-1.64998 0.04268,-0.42693 0.293932,-0.78771 0.365073,-1.20401 0.220544,-0.26874 0.202538,-0.60575 0.447696,-0.83999 0.1183,-0.26678 0.276688,-0.5197 0.492586,-0.73879 0.168888,-0.20732 0.417063,-0.36296 0.681415,-0.42745 0.383783,-0.2042 0.750479,0.0676 1.042647,0.25506 0.179367,0.15454 0.227885,0.38922 0.445967,0.50946 0.07064,0.31886 0.325526,0.56178 0.363935,0.89425 0.186531,0.47258 0.3283,0.98005 0.391936,1.51248 0.125286,0.53288 0.212675,1.16206 0.20204,1.68897 -0.09575,0.44433 -0.117603,0.91937 -0.392534,1.29084 -0.120975,0.21631 -0.347231,0.42979 -0.518751,0.6054 -0.491427,0.36746 -1.11679,0.44944 -1.731446,0.38748 -0.471415,-0.11119 -0.92239,-0.20112 -1.310293,-0.48598 -0.25457,-0.17385 -0.495915,-0.36917 -0.61573,-0.65261 -0.156154,-0.3321 -0.268756,-0.77194 -0.209353,-1.14513 z"
       inkscape:connector-curvature="0" />
    <path
       style="fill:#000000;stroke-width:0.08206281"
       id="path4258-7-1"
       d="m 29.509422,137.89688 c 0.115135,-0.33904 0.225858,-0.65452 0.393295,-0.96454 0.09638,-0.25187 0.259031,-0.5033 0.391331,-0.7388 0.230084,-0.21921 0.400154,-0.44543 0.664989,-0.56641 0.399178,-0.23411 0.889829,-0.0191 1.108324,0.32015 0.161518,0.24394 0.323377,0.48732 0.406391,0.76342 0.230853,0.53074 0.2949,1.13152 0.343354,1.73618 0.0975,0.49018 0.128758,1.03741 -0.09706,1.4899 -0.07124,0.26273 -0.222094,0.55931 -0.482214,0.70468 -0.211715,0.40782 -0.823881,0.51903 -1.276436,0.47593 -0.472958,-0.0415 -0.878219,-0.22736 -1.270767,-0.45525 -0.319009,-0.27844 -0.560497,-0.60701 -0.499671,-1.04756 -0.168547,-0.50829 0.153564,-1.25292 0.318468,-1.7177 z"
       inkscape:connector-curvature="0" />
    <path
       style="fill:#000000;fill-opacity:1;fill-rule:nonzero;stroke:#000000;stroke-width:0.18852307;stroke-linejoin:miter;stroke-miterlimit:4;stroke-dasharray:none;stroke-opacity:1"
       d="m -23.623676,137.16072 a 0.52287853,0.52287853 0 0 1 -0.522879,0.52288 0.52287853,0.52287853 0 0 1 -0.522878,-0.52288 0.52287853,0.52287853 0 0 1 0.522878,-0.52288 0.52287853,0.52287853 0 0 1 0.522879,0.52288 z"
       id="path4804" />
    <path
       style="fill:#000000;fill-opacity:1;fill-rule:nonzero;stroke:#000000;stroke-width:0.18852307;stroke-linejoin:miter;stroke-miterlimit:4;stroke-dasharray:none;stroke-opacity:1"
       d="m 119.3624,137.16072 a 0.52287853,0.52287853 0 0 1 -0.52288,0.52288 0.52287853,0.52287853 0 0 1 -0.52288,-0.52288 0.52287853,0.52287853 0 0 1 0.52288,-0.52288 0.52287853,0.52287853 0 0 1 0.52288,0.52288 z"
       id="path4804-1" />
  </g>
</svg>
