<?xml version="1.0" encoding="UTF-8" standalone="no"?>
<!-- Created with Inkscape (http://www.inkscape.org/) -->

<svg
   xmlns:dc="http://purl.org/dc/elements/1.1/"
   xmlns:cc="http://creativecommons.org/ns#"
   xmlns:rdf="http://www.w3.org/1999/02/22-rdf-syntax-ns#"
   xmlns:svg="http://www.w3.org/2000/svg"
   xmlns="http://www.w3.org/2000/svg"
   xmlns:sodipodi="http://sodipodi.sourceforge.net/DTD/sodipodi-0.dtd"
   xmlns:inkscape="http://www.inkscape.org/namespaces/inkscape"
   width="15.350273mm"
   height="17.22249mm"
   viewBox="0 0 15.350273 17.222491"
   version="1.1"
   id="svg8"
   inkscape:version="0.92.1 r"
   sodipodi:docname="packa.svg">
  <defs
     id="defs2">
    <inkscape:perspective
       sodipodi:type="inkscape:persp3d"
       inkscape:vp_x="0 : 148.49999 : 1"
       inkscape:vp_y="0 : 999.99995 : 0"
       inkscape:vp_z="209.99999 : 148.49999 : 1"
       inkscape:persp3d-origin="105.00001 : 98.999995 : 1"
       id="perspective4606" />
  </defs>
  <sodipodi:namedview
     id="base"
     pagecolor="#ffffff"
     bordercolor="#666666"
     borderopacity="1.0"
     inkscape:pageopacity="0.0"
     inkscape:pageshadow="2"
     inkscape:zoom="1.4"
     inkscape:cx="-35.438048"
     inkscape:cy="88.784354"
     inkscape:document-units="mm"
     inkscape:current-layer="layer1"
     showgrid="false"
     inkscape:window-width="1280"
     inkscape:window-height="751"
     inkscape:window-x="0"
     inkscape:window-y="27"
     inkscape:window-maximized="1"
     fit-margin-top="0"
     fit-margin-left="0"
     fit-margin-right="0"
     fit-margin-bottom="0"
     viewbox-x="0" />
  <metadata
     id="metadata5">
    <rdf:RDF>
      <cc:Work
         rdf:about="">
        <dc:format>image/svg+xml</dc:format>
        <dc:type
           rdf:resource="http://purl.org/dc/dcmitype/StillImage" />
        <dc:title></dc:title>
      </cc:Work>
    </rdf:RDF>
  </metadata>
  <g
     inkscape:label="Vrstva 1"
     inkscape:groupmode="layer"
     id="layer1"
     transform="translate(-17.540829,-130.44799)">
    <path
       style="fill:#000000;stroke-width:0.08206281"
       id="path4286-5-0"
       d="m 17.585259,138.73007 c 0.04724,-0.58041 0.09861,-1.20424 0.28324,-1.76079 0.09479,-0.37342 0.279882,-0.71473 0.492593,-1.022 0.202808,-0.31757 0.671092,-0.50372 1.059059,-0.3539 0.266977,0.10618 0.496989,0.31454 0.664995,0.55091 0.258697,0.30066 0.38453,0.68802 0.577165,1.022 0.21173,0.42883 0.329106,0.90118 0.470369,1.34986 0.201464,0.99366 -0.06253,1.92107 -0.876262,2.36477 -0.468512,0.27987 -1.131843,0.32272 -1.649037,0.1159 -0.359808,-0.13597 -0.58886,-0.44974 -0.773087,-0.76452 -0.239694,-0.46106 -0.34647,-0.95244 -0.26803,-1.48722 z"
       inkscape:connector-curvature="0" />
    <path
       style="fill:#000000;stroke-width:0.08206281"
       d="m 25.147273,138.00116 c -0.149357,0.002 -0.297655,0.006 -0.443363,0.0117 -0.910104,0.0481 -1.925495,0.25394 -2.53959,0.98304 -0.369311,0.50284 -0.571068,1.11045 -0.985984,1.57529 -0.647417,0.48882 -1.369143,0.87385 -2.038876,1.33744 -0.736379,0.47899 -1.332432,1.20838 -1.482653,2.09145 -0.127064,0.57051 0.0671,1.18271 0.263591,1.71793 0.255659,0.87341 0.887412,1.68219 1.805064,1.89441 1.020928,0.20922 1.994031,-0.28085 2.978173,-0.45219 0.13004,0.0139 0.260185,0.0332 0.390424,0.0541 -0.07286,-0.11977 -0.11176,-0.24744 -0.11176,-0.38418 0,-0.0844 0.02104,-0.17611 0.06323,-0.27461 0.309584,-0.78806 0.731734,-1.2805 1.266487,-1.47751 0.168868,-0.0563 0.823284,-0.11934 1.963145,-0.1897 0.06245,-0.004 0.123522,-0.006 0.182712,-0.008 0.888044,-0.0124 1.411097,0.37749 1.569413,1.16906 0.01379,0.0844 0.02096,0.17576 0.02096,0.27426 0,0.32774 -0.06242,0.61321 -0.18602,0.85768 0.749863,0.11062 1.451331,0.49322 2.226367,0.48344 0.811874,0.0599 1.595477,-0.3559 2.033364,-1.03635 0.408233,-0.7021 0.721284,-1.51449 0.697026,-2.3385 -0.0015,-1.05452 -0.772844,-1.90554 -1.60103,-2.45724 -0.600733,-0.42184 -1.248696,-0.74783 -1.82271,-1.2062 -0.599169,-0.4881 -0.734329,-1.31097 -1.274942,-1.84366 -0.81827,-0.69853 -1.927537,-0.7965 -2.973025,-0.78158 z m -0.156611,1.16979 c 0.816198,0 1.608135,0.16044 2.241388,0.41374 0.731769,0.29552 0.893794,0.45565 1.090812,1.01856 0.126646,0.33773 0.190065,0.65443 0.190065,0.94995 0,0.4081 -0.105815,0.73856 -0.316896,0.99186 -0.197019,0.23923 -0.394134,0.38023 -0.591151,0.42241 -0.197009,0.0422 -0.780764,0.10527 -1.751758,0.1897 -0.844341,0.0844 -1.653479,0.23916 -2.427461,0.46432 -0.70362,0.21108 -1.379415,0.61258 -2.026746,1.20362 -0.341518,0.31668 -0.614191,0.64407 -0.818712,0.98267 -0.03601,-0.37464 -0.928963,-1.12232 -0.930894,-1.50092 0.0021,-0.65237 0.92875,-0.93234 1.031256,-1.56585 0.122042,0.16384 0.276609,0.29602 0.465052,0.3952 0.182939,0.0985 0.38732,0.14779 0.612472,0.14779 0.394029,0 0.808924,-0.14059 1.245163,-0.42203 0.379956,-0.25331 0.654628,-0.5211 0.823492,-0.80254 0.211083,-0.33774 0.316531,-0.61892 0.316531,-0.84408 0,-0.35181 -0.287433,0.14227 -0.534324,-0.71798 -0.142904,-0.49793 -0.142904,-0.32907 -0.142904,-0.49793 0,-0.12665 0.112325,-0.24243 0.337484,-0.48165 0.351806,-0.36589 0.07541,-0.34684 1.187131,-0.34684 z"
       id="path4282-1-9"
       inkscape:connector-curvature="0"
       sodipodi:nodetypes="scccccccccscccccsccccccccsscscccccccccsccscscss" />
    <path
       style="fill:#000000;stroke-width:0.08206281"
       id="path4268-2-2"
       d="m 20.294499,135.1346 c 0.02938,-0.72711 0.151736,-1.44048 0.320589,-2.15169 0.281504,-0.94646 0.601894,-2.12865 1.628576,-2.49535 0.976166,-0.15414 1.600113,0.88797 1.93422,1.67236 0.474394,1.08521 0.80596,2.24693 0.917886,3.42874 0.05933,1.09136 -0.912239,1.84585 -1.903179,2.00342 -0.907693,0.27272 -2.004578,-0.0274 -2.487624,-0.89104 -0.30397,-0.46842 -0.41951,-1.06017 -0.410468,-1.56644 z"
       inkscape:connector-curvature="0" />
    <path
       style="fill:#000000;stroke-width:0.08206281"
       id="path4262-9-3"
       d="m 25.368161,135.38087 c 0.09109,-0.55385 0.147197,-1.14135 0.344812,-1.64998 0.04268,-0.42693 0.293932,-0.78771 0.365073,-1.20401 0.220544,-0.26874 0.202538,-0.60575 0.447696,-0.83999 0.1183,-0.26678 0.276688,-0.5197 0.492586,-0.73879 0.168888,-0.20732 0.417063,-0.36296 0.681415,-0.42745 0.383783,-0.2042 0.750479,0.0676 1.042647,0.25506 0.179367,0.15454 0.227885,0.38922 0.445967,0.50946 0.07064,0.31886 0.325526,0.56178 0.363935,0.89425 0.186531,0.47258 0.3283,0.98005 0.391936,1.51248 0.125286,0.53288 0.212675,1.16206 0.20204,1.68897 -0.09575,0.44433 -0.117603,0.91937 -0.392534,1.29084 -0.120975,0.21631 -0.347231,0.42979 -0.518751,0.6054 -0.491427,0.36746 -1.11679,0.44944 -1.731446,0.38748 -0.471415,-0.11119 -0.92239,-0.20112 -1.310293,-0.48598 -0.25457,-0.17385 -0.495915,-0.36917 -0.61573,-0.65261 -0.156154,-0.3321 -0.268756,-0.77194 -0.209353,-1.14513 z"
       inkscape:connector-curvature="0" />
    <path
       style="fill:#000000;stroke-width:0.08206281"
       id="path4258-7-1"
       d="m 29.509422,137.89688 c 0.115135,-0.33904 0.225858,-0.65452 0.393295,-0.96454 0.09638,-0.25187 0.259031,-0.5033 0.391331,-0.7388 0.230084,-0.21921 0.400154,-0.44543 0.664989,-0.56641 0.399178,-0.23411 0.889829,-0.0191 1.108324,0.32015 0.161518,0.24394 0.323377,0.48732 0.406391,0.76342 0.230853,0.53074 0.2949,1.13152 0.343354,1.73618 0.0975,0.49018 0.128758,1.03741 -0.09706,1.4899 -0.07124,0.26273 -0.222094,0.55931 -0.482214,0.70468 -0.211715,0.40782 -0.823881,0.51903 -1.276436,0.47593 -0.472958,-0.0415 -0.878219,-0.22736 -1.270767,-0.45525 -0.319009,-0.27844 -0.560497,-0.60701 -0.499671,-1.04756 -0.168547,-0.50829 0.153564,-1.25292 0.318468,-1.7177 z"
       inkscape:connector-curvature="0" />
  </g>
</svg>
