  0
SECTION
  2
HEADER
  9
$ACADVER
  1
AC1009
  9
$INSBASE
 10
0.0
 20
0.0
 30
0.0
  9
$EXTMIN
 10
0.0
 20
0.0
 30
0.0
  9
$EXTMAX
 10
0.0
 20
0.0
 30
0.0
  0
ENDSEC
  0
SECTION
  2
TABLES
  0
TABLE
  2
VPORT
 70
0
  0
ENDTAB
  0
TABLE
  2
LTYPE
 70
1
  0
LTYPE
  2
CONTINUOUS
 70
0
  3
Solid line
 72
65
 73
0
 40
0.0
  0
ENDTAB
  0
TABLE
  2
LAYER
 70
1
  0
LAYER
  2
0
 70
64
 62
7
  6
continuous
  0
ENDTAB
  0
TABLE
  2
STYLE
 70
1
  0
STYLE
  2
STANDARD
 70
0
 40
0
 41
1.0
 50
0.0
 71
0
 42
1
 3
ARIAL.TTF
 4

  0
ENDTAB
  0
TABLE
  2
VIEW
 70
0
  0
ENDTAB
  0
ENDSEC
  0
SECTION
  2
BLOCKS
  0
BLOCK
  8
0
  2
POCKET007
 70
0
 10
0.0
 20
0.0
 30
0.0
  3
POCKET007
  0
POLYLINE
  8
0
 62
0
 70
0
 66
1
 10
0.0
 20
0.0
 30
0.0
  0
VERTEX
  8
0
 10
0.3
 20
-54.9999997503
 30
0.0
  0
VERTEX
  8
0
 10
0.25
 20
-54.9999997503
 30
0.0
  0
VERTEX
  8
0
 10
0.2
 20
-54.9999997503
 30
0.0
  0
VERTEX
  8
0
 10
0.15
 20
-54.9999997503
 30
0.0
  0
VERTEX
  8
0
 10
0.1
 20
-54.9999997503
 30
0.0
  0
VERTEX
  8
0
 10
0.05
 20
-54.9999997503
 30
0.0
  0
VERTEX
  8
0
 10
-1.19086482014e-16
 20
-54.9999997503
 30
0.0
  0
VERTEX
  8
0
 10
-0.05
 20
-54.9999997503
 30
0.0
  0
VERTEX
  8
0
 10
-0.1
 20
-54.9999997503
 30
0.0
  0
VERTEX
  8
0
 10
-0.15
 20
-54.9999997503
 30
0.0
  0
VERTEX
  8
0
 10
-0.2
 20
-54.9999997503
 30
0.0
  0
VERTEX
  8
0
 10
-0.25
 20
-54.9999997503
 30
0.0
  0
VERTEX
  8
0
 10
-0.3
 20
-54.9999997503
 30
0.0
  0
SEQEND
  8
0
  0
POLYLINE
  8
0
 62
0
 70
0
 66
1
 10
0.0
 20
0.0
 30
0.0
  0
VERTEX
  8
0
 10
-0.3
 20
-54.9999997503
 30
0.0
  0
VERTEX
  8
0
 10
-0.25
 20
-54.9999997503
 30
0.0
  0
VERTEX
  8
0
 10
-0.2
 20
-54.9999997503
 30
0.0
  0
VERTEX
  8
0
 10
-0.15
 20
-54.9999997503
 30
0.0
  0
VERTEX
  8
0
 10
-0.1
 20
-54.9999997503
 30
0.0
  0
VERTEX
  8
0
 10
-0.05
 20
-54.9999997503
 30
0.0
  0
VERTEX
  8
0
 10
8.23470780396e-17
 20
-54.9999997503
 30
0.0
  0
VERTEX
  8
0
 10
0.05
 20
-54.9999997503
 30
0.0
  0
VERTEX
  8
0
 10
0.1
 20
-54.9999997503
 30
0.0
  0
VERTEX
  8
0
 10
0.15
 20
-54.9999997503
 30
0.0
  0
VERTEX
  8
0
 10
0.2
 20
-54.9999997503
 30
0.0
  0
VERTEX
  8
0
 10
0.25
 20
-54.9999997503
 30
0.0
  0
VERTEX
  8
0
 10
0.3
 20
-54.9999997503
 30
0.0
  0
SEQEND
  8
0
  0
POLYLINE
  8
0
 62
0
 70
0
 66
1
 10
0.0
 20
0.0
 30
0.0
  0
VERTEX
  8
0
 10
6.3
 20
-48.9999997503
 30
0.0
  0
VERTEX
  8
0
 10
6.25
 20
-48.9999997503
 30
0.0
  0
VERTEX
  8
0
 10
6.2
 20
-48.9999997503
 30
0.0
  0
VERTEX
  8
0
 10
6.15
 20
-48.9999997503
 30
0.0
  0
VERTEX
  8
0
 10
6.1
 20
-48.9999997503
 30
0.0
  0
VERTEX
  8
0
 10
6.05
 20
-48.9999997503
 30
0.0
  0
VERTEX
  8
0
 10
6.0
 20
-48.9999997503
 30
0.0
  0
VERTEX
  8
0
 10
5.95
 20
-48.9999997503
 30
0.0
  0
VERTEX
  8
0
 10
5.9
 20
-48.9999997503
 30
0.0
  0
VERTEX
  8
0
 10
5.85
 20
-48.9999997503
 30
0.0
  0
VERTEX
  8
0
 10
5.8
 20
-48.9999997503
 30
0.0
  0
VERTEX
  8
0
 10
5.75
 20
-48.9999997503
 30
0.0
  0
VERTEX
  8
0
 10
5.7
 20
-48.9999997503
 30
0.0
  0
VERTEX
  8
0
 10
5.65
 20
-48.9999997503
 30
0.0
  0
VERTEX
  8
0
 10
5.6
 20
-48.9999997503
 30
0.0
  0
VERTEX
  8
0
 10
5.55
 20
-48.9999997503
 30
0.0
  0
VERTEX
  8
0
 10
5.5
 20
-48.9999997503
 30
0.0
  0
VERTEX
  8
0
 10
5.45
 20
-48.9999997503
 30
0.0
  0
VERTEX
  8
0
 10
5.4
 20
-48.9999997503
 30
0.0
  0
VERTEX
  8
0
 10
5.35
 20
-48.9999997503
 30
0.0
  0
VERTEX
  8
0
 10
5.3
 20
-48.9999997503
 30
0.0
  0
VERTEX
  8
0
 10
5.25
 20
-48.9999997503
 30
0.0
  0
VERTEX
  8
0
 10
5.2
 20
-48.9999997503
 30
0.0
  0
VERTEX
  8
0
 10
5.15
 20
-48.9999997503
 30
0.0
  0
VERTEX
  8
0
 10
5.1
 20
-48.9999997503
 30
0.0
  0
VERTEX
  8
0
 10
5.05
 20
-48.9999997503
 30
0.0
  0
VERTEX
  8
0
 10
5.0
 20
-48.9999997503
 30
0.0
  0
VERTEX
  8
0
 10
4.95
 20
-48.9999997503
 30
0.0
  0
VERTEX
  8
0
 10
4.9
 20
-48.9999997503
 30
0.0
  0
VERTEX
  8
0
 10
4.85
 20
-48.9999997503
 30
0.0
  0
VERTEX
  8
0
 10
4.8
 20
-48.9999997503
 30
0.0
  0
VERTEX
  8
0
 10
4.75
 20
-48.9999997503
 30
0.0
  0
VERTEX
  8
0
 10
4.7
 20
-48.9999997503
 30
0.0
  0
VERTEX
  8
0
 10
4.65
 20
-48.9999997503
 30
0.0
  0
VERTEX
  8
0
 10
4.6
 20
-48.9999997503
 30
0.0
  0
VERTEX
  8
0
 10
4.55
 20
-48.9999997503
 30
0.0
  0
VERTEX
  8
0
 10
4.5
 20
-48.9999997503
 30
0.0
  0
VERTEX
  8
0
 10
4.45
 20
-48.9999997503
 30
0.0
  0
VERTEX
  8
0
 10
4.4
 20
-48.9999997503
 30
0.0
  0
VERTEX
  8
0
 10
4.35
 20
-48.9999997503
 30
0.0
  0
VERTEX
  8
0
 10
4.3
 20
-48.9999997503
 30
0.0
  0
VERTEX
  8
0
 10
4.25
 20
-48.9999997503
 30
0.0
  0
VERTEX
  8
0
 10
4.2
 20
-48.9999997503
 30
0.0
  0
VERTEX
  8
0
 10
4.15
 20
-48.9999997503
 30
0.0
  0
VERTEX
  8
0
 10
4.1
 20
-48.9999997503
 30
0.0
  0
VERTEX
  8
0
 10
4.05
 20
-48.9999997503
 30
0.0
  0
VERTEX
  8
0
 10
4.0
 20
-48.9999997503
 30
0.0
  0
VERTEX
  8
0
 10
3.95
 20
-48.9999997503
 30
0.0
  0
VERTEX
  8
0
 10
3.9
 20
-48.9999997503
 30
0.0
  0
VERTEX
  8
0
 10
3.85
 20
-48.9999997503
 30
0.0
  0
VERTEX
  8
0
 10
3.8
 20
-48.9999997503
 30
0.0
  0
VERTEX
  8
0
 10
3.75
 20
-48.9999997503
 30
0.0
  0
VERTEX
  8
0
 10
3.7
 20
-48.9999997503
 30
0.0
  0
VERTEX
  8
0
 10
3.65
 20
-48.9999997503
 30
0.0
  0
VERTEX
  8
0
 10
3.6
 20
-48.9999997503
 30
0.0
  0
VERTEX
  8
0
 10
3.55
 20
-48.9999997503
 30
0.0
  0
VERTEX
  8
0
 10
3.5
 20
-48.9999997503
 30
0.0
  0
VERTEX
  8
0
 10
3.45
 20
-48.9999997503
 30
0.0
  0
VERTEX
  8
0
 10
3.4
 20
-48.9999997503
 30
0.0
  0
VERTEX
  8
0
 10
3.35
 20
-48.9999997503
 30
0.0
  0
VERTEX
  8
0
 10
3.3
 20
-48.9999997503
 30
0.0
  0
VERTEX
  8
0
 10
3.25
 20
-48.9999997503
 30
0.0
  0
VERTEX
  8
0
 10
3.2
 20
-48.9999997503
 30
0.0
  0
VERTEX
  8
0
 10
3.15
 20
-48.9999997503
 30
0.0
  0
VERTEX
  8
0
 10
3.1
 20
-48.9999997503
 30
0.0
  0
VERTEX
  8
0
 10
3.05
 20
-48.9999997503
 30
0.0
  0
VERTEX
  8
0
 10
3.0
 20
-48.9999997503
 30
0.0
  0
VERTEX
  8
0
 10
2.95
 20
-48.9999997503
 30
0.0
  0
VERTEX
  8
0
 10
2.9
 20
-48.9999997503
 30
0.0
  0
VERTEX
  8
0
 10
2.85
 20
-48.9999997503
 30
0.0
  0
VERTEX
  8
0
 10
2.8
 20
-48.9999997503
 30
0.0
  0
VERTEX
  8
0
 10
2.75
 20
-48.9999997503
 30
0.0
  0
VERTEX
  8
0
 10
2.7
 20
-48.9999997503
 30
0.0
  0
VERTEX
  8
0
 10
2.65
 20
-48.9999997503
 30
0.0
  0
VERTEX
  8
0
 10
2.6
 20
-48.9999997503
 30
0.0
  0
VERTEX
  8
0
 10
2.55
 20
-48.9999997503
 30
0.0
  0
VERTEX
  8
0
 10
2.5
 20
-48.9999997503
 30
0.0
  0
VERTEX
  8
0
 10
2.45
 20
-48.9999997503
 30
0.0
  0
VERTEX
  8
0
 10
2.4
 20
-48.9999997503
 30
0.0
  0
VERTEX
  8
0
 10
2.35
 20
-48.9999997503
 30
0.0
  0
VERTEX
  8
0
 10
2.3
 20
-48.9999997503
 30
0.0
  0
VERTEX
  8
0
 10
2.25
 20
-48.9999997503
 30
0.0
  0
VERTEX
  8
0
 10
2.2
 20
-48.9999997503
 30
0.0
  0
VERTEX
  8
0
 10
2.15
 20
-48.9999997503
 30
0.0
  0
VERTEX
  8
0
 10
2.1
 20
-48.9999997503
 30
0.0
  0
VERTEX
  8
0
 10
2.05
 20
-48.9999997503
 30
0.0
  0
VERTEX
  8
0
 10
2.0
 20
-48.9999997503
 30
0.0
  0
VERTEX
  8
0
 10
1.95
 20
-48.9999997503
 30
0.0
  0
VERTEX
  8
0
 10
1.9
 20
-48.9999997503
 30
0.0
  0
VERTEX
  8
0
 10
1.85
 20
-48.9999997503
 30
0.0
  0
VERTEX
  8
0
 10
1.8
 20
-48.9999997503
 30
0.0
  0
VERTEX
  8
0
 10
1.75
 20
-48.9999997503
 30
0.0
  0
VERTEX
  8
0
 10
1.7
 20
-48.9999997503
 30
0.0
  0
VERTEX
  8
0
 10
1.65
 20
-48.9999997503
 30
0.0
  0
VERTEX
  8
0
 10
1.6
 20
-48.9999997503
 30
0.0
  0
VERTEX
  8
0
 10
1.55
 20
-48.9999997503
 30
0.0
  0
VERTEX
  8
0
 10
1.5
 20
-48.9999997503
 30
0.0
  0
VERTEX
  8
0
 10
1.45
 20
-48.9999997503
 30
0.0
  0
VERTEX
  8
0
 10
1.4
 20
-48.9999997503
 30
0.0
  0
VERTEX
  8
0
 10
1.35
 20
-48.9999997503
 30
0.0
  0
VERTEX
  8
0
 10
1.3
 20
-48.9999997503
 30
0.0
  0
VERTEX
  8
0
 10
1.25
 20
-48.9999997503
 30
0.0
  0
VERTEX
  8
0
 10
1.2
 20
-48.9999997503
 30
0.0
  0
VERTEX
  8
0
 10
1.15
 20
-48.9999997503
 30
0.0
  0
VERTEX
  8
0
 10
1.1
 20
-48.9999997503
 30
0.0
  0
VERTEX
  8
0
 10
1.05
 20
-48.9999997503
 30
0.0
  0
VERTEX
  8
0
 10
1.0
 20
-48.9999997503
 30
0.0
  0
VERTEX
  8
0
 10
0.95
 20
-48.9999997503
 30
0.0
  0
VERTEX
  8
0
 10
0.9
 20
-48.9999997503
 30
0.0
  0
VERTEX
  8
0
 10
0.85
 20
-48.9999997503
 30
0.0
  0
VERTEX
  8
0
 10
0.8
 20
-48.9999997503
 30
0.0
  0
VERTEX
  8
0
 10
0.75
 20
-48.9999997503
 30
0.0
  0
VERTEX
  8
0
 10
0.7
 20
-48.9999997503
 30
0.0
  0
VERTEX
  8
0
 10
0.65
 20
-48.9999997503
 30
0.0
  0
VERTEX
  8
0
 10
0.6
 20
-48.9999997503
 30
0.0
  0
VERTEX
  8
0
 10
0.55
 20
-48.9999997503
 30
0.0
  0
VERTEX
  8
0
 10
0.5
 20
-48.9999997503
 30
0.0
  0
VERTEX
  8
0
 10
0.45
 20
-48.9999997503
 30
0.0
  0
VERTEX
  8
0
 10
0.4
 20
-48.9999997503
 30
0.0
  0
VERTEX
  8
0
 10
0.35
 20
-48.9999997503
 30
0.0
  0
VERTEX
  8
0
 10
0.3
 20
-48.9999997503
 30
0.0
  0
VERTEX
  8
0
 10
0.25
 20
-48.9999997503
 30
0.0
  0
VERTEX
  8
0
 10
0.2
 20
-48.9999997503
 30
0.0
  0
VERTEX
  8
0
 10
0.15
 20
-48.9999997503
 30
0.0
  0
VERTEX
  8
0
 10
0.1
 20
-48.9999997503
 30
0.0
  0
VERTEX
  8
0
 10
0.05
 20
-48.9999997503
 30
0.0
  0
VERTEX
  8
0
 10
-1.10193511127e-15
 20
-48.9999997503
 30
0.0
  0
VERTEX
  8
0
 10
-0.05
 20
-48.9999997503
 30
0.0
  0
VERTEX
  8
0
 10
-0.1
 20
-48.9999997503
 30
0.0
  0
VERTEX
  8
0
 10
-0.15
 20
-48.9999997503
 30
0.0
  0
VERTEX
  8
0
 10
-0.2
 20
-48.9999997503
 30
0.0
  0
VERTEX
  8
0
 10
-0.25
 20
-48.9999997503
 30
0.0
  0
VERTEX
  8
0
 10
-0.3
 20
-48.9999997503
 30
0.0
  0
VERTEX
  8
0
 10
-0.35
 20
-48.9999997503
 30
0.0
  0
VERTEX
  8
0
 10
-0.4
 20
-48.9999997503
 30
0.0
  0
VERTEX
  8
0
 10
-0.45
 20
-48.9999997503
 30
0.0
  0
VERTEX
  8
0
 10
-0.5
 20
-48.9999997503
 30
0.0
  0
VERTEX
  8
0
 10
-0.55
 20
-48.9999997503
 30
0.0
  0
VERTEX
  8
0
 10
-0.6
 20
-48.9999997503
 30
0.0
  0
VERTEX
  8
0
 10
-0.65
 20
-48.9999997503
 30
0.0
  0
VERTEX
  8
0
 10
-0.7
 20
-48.9999997503
 30
0.0
  0
VERTEX
  8
0
 10
-0.75
 20
-48.9999997503
 30
0.0
  0
VERTEX
  8
0
 10
-0.8
 20
-48.9999997503
 30
0.0
  0
VERTEX
  8
0
 10
-0.85
 20
-48.9999997503
 30
0.0
  0
VERTEX
  8
0
 10
-0.9
 20
-48.9999997503
 30
0.0
  0
VERTEX
  8
0
 10
-0.95
 20
-48.9999997503
 30
0.0
  0
VERTEX
  8
0
 10
-1.0
 20
-48.9999997503
 30
0.0
  0
VERTEX
  8
0
 10
-1.05
 20
-48.9999997503
 30
0.0
  0
VERTEX
  8
0
 10
-1.1
 20
-48.9999997503
 30
0.0
  0
VERTEX
  8
0
 10
-1.15
 20
-48.9999997503
 30
0.0
  0
VERTEX
  8
0
 10
-1.2
 20
-48.9999997503
 30
0.0
  0
VERTEX
  8
0
 10
-1.25
 20
-48.9999997503
 30
0.0
  0
VERTEX
  8
0
 10
-1.3
 20
-48.9999997503
 30
0.0
  0
VERTEX
  8
0
 10
-1.35
 20
-48.9999997503
 30
0.0
  0
VERTEX
  8
0
 10
-1.4
 20
-48.9999997503
 30
0.0
  0
VERTEX
  8
0
 10
-1.45
 20
-48.9999997503
 30
0.0
  0
VERTEX
  8
0
 10
-1.5
 20
-48.9999997503
 30
0.0
  0
VERTEX
  8
0
 10
-1.55
 20
-48.9999997503
 30
0.0
  0
VERTEX
  8
0
 10
-1.6
 20
-48.9999997503
 30
0.0
  0
VERTEX
  8
0
 10
-1.65
 20
-48.9999997503
 30
0.0
  0
VERTEX
  8
0
 10
-1.7
 20
-48.9999997503
 30
0.0
  0
VERTEX
  8
0
 10
-1.75
 20
-48.9999997503
 30
0.0
  0
VERTEX
  8
0
 10
-1.8
 20
-48.9999997503
 30
0.0
  0
VERTEX
  8
0
 10
-1.85
 20
-48.9999997503
 30
0.0
  0
VERTEX
  8
0
 10
-1.9
 20
-48.9999997503
 30
0.0
  0
VERTEX
  8
0
 10
-1.95
 20
-48.9999997503
 30
0.0
  0
VERTEX
  8
0
 10
-2.0
 20
-48.9999997503
 30
0.0
  0
VERTEX
  8
0
 10
-2.05
 20
-48.9999997503
 30
0.0
  0
VERTEX
  8
0
 10
-2.1
 20
-48.9999997503
 30
0.0
  0
VERTEX
  8
0
 10
-2.15
 20
-48.9999997503
 30
0.0
  0
VERTEX
  8
0
 10
-2.2
 20
-48.9999997503
 30
0.0
  0
VERTEX
  8
0
 10
-2.25
 20
-48.9999997503
 30
0.0
  0
VERTEX
  8
0
 10
-2.3
 20
-48.9999997503
 30
0.0
  0
VERTEX
  8
0
 10
-2.35
 20
-48.9999997503
 30
0.0
  0
VERTEX
  8
0
 10
-2.4
 20
-48.9999997503
 30
0.0
  0
VERTEX
  8
0
 10
-2.45
 20
-48.9999997503
 30
0.0
  0
VERTEX
  8
0
 10
-2.5
 20
-48.9999997503
 30
0.0
  0
VERTEX
  8
0
 10
-2.55
 20
-48.9999997503
 30
0.0
  0
VERTEX
  8
0
 10
-2.6
 20
-48.9999997503
 30
0.0
  0
VERTEX
  8
0
 10
-2.65
 20
-48.9999997503
 30
0.0
  0
VERTEX
  8
0
 10
-2.7
 20
-48.9999997503
 30
0.0
  0
VERTEX
  8
0
 10
-2.75
 20
-48.9999997503
 30
0.0
  0
VERTEX
  8
0
 10
-2.8
 20
-48.9999997503
 30
0.0
  0
VERTEX
  8
0
 10
-2.85
 20
-48.9999997503
 30
0.0
  0
VERTEX
  8
0
 10
-2.9
 20
-48.9999997503
 30
0.0
  0
VERTEX
  8
0
 10
-2.95
 20
-48.9999997503
 30
0.0
  0
VERTEX
  8
0
 10
-3.0
 20
-48.9999997503
 30
0.0
  0
VERTEX
  8
0
 10
-3.05
 20
-48.9999997503
 30
0.0
  0
VERTEX
  8
0
 10
-3.1
 20
-48.9999997503
 30
0.0
  0
VERTEX
  8
0
 10
-3.15
 20
-48.9999997503
 30
0.0
  0
VERTEX
  8
0
 10
-3.2
 20
-48.9999997503
 30
0.0
  0
VERTEX
  8
0
 10
-3.25
 20
-48.9999997503
 30
0.0
  0
VERTEX
  8
0
 10
-3.3
 20
-48.9999997503
 30
0.0
  0
VERTEX
  8
0
 10
-3.35
 20
-48.9999997503
 30
0.0
  0
VERTEX
  8
0
 10
-3.4
 20
-48.9999997503
 30
0.0
  0
VERTEX
  8
0
 10
-3.45
 20
-48.9999997503
 30
0.0
  0
VERTEX
  8
0
 10
-3.5
 20
-48.9999997503
 30
0.0
  0
VERTEX
  8
0
 10
-3.55
 20
-48.9999997503
 30
0.0
  0
VERTEX
  8
0
 10
-3.6
 20
-48.9999997503
 30
0.0
  0
VERTEX
  8
0
 10
-3.65
 20
-48.9999997503
 30
0.0
  0
VERTEX
  8
0
 10
-3.7
 20
-48.9999997503
 30
0.0
  0
VERTEX
  8
0
 10
-3.75
 20
-48.9999997503
 30
0.0
  0
VERTEX
  8
0
 10
-3.8
 20
-48.9999997503
 30
0.0
  0
VERTEX
  8
0
 10
-3.85
 20
-48.9999997503
 30
0.0
  0
VERTEX
  8
0
 10
-3.9
 20
-48.9999997503
 30
0.0
  0
VERTEX
  8
0
 10
-3.95
 20
-48.9999997503
 30
0.0
  0
VERTEX
  8
0
 10
-4.0
 20
-48.9999997503
 30
0.0
  0
VERTEX
  8
0
 10
-4.05
 20
-48.9999997503
 30
0.0
  0
VERTEX
  8
0
 10
-4.1
 20
-48.9999997503
 30
0.0
  0
VERTEX
  8
0
 10
-4.15
 20
-48.9999997503
 30
0.0
  0
VERTEX
  8
0
 10
-4.2
 20
-48.9999997503
 30
0.0
  0
VERTEX
  8
0
 10
-4.25
 20
-48.9999997503
 30
0.0
  0
VERTEX
  8
0
 10
-4.3
 20
-48.9999997503
 30
0.0
  0
VERTEX
  8
0
 10
-4.35
 20
-48.9999997503
 30
0.0
  0
VERTEX
  8
0
 10
-4.4
 20
-48.9999997503
 30
0.0
  0
VERTEX
  8
0
 10
-4.45
 20
-48.9999997503
 30
0.0
  0
VERTEX
  8
0
 10
-4.5
 20
-48.9999997503
 30
0.0
  0
VERTEX
  8
0
 10
-4.55
 20
-48.9999997503
 30
0.0
  0
VERTEX
  8
0
 10
-4.6
 20
-48.9999997503
 30
0.0
  0
VERTEX
  8
0
 10
-4.65
 20
-48.9999997503
 30
0.0
  0
VERTEX
  8
0
 10
-4.7
 20
-48.9999997503
 30
0.0
  0
VERTEX
  8
0
 10
-4.75
 20
-48.9999997503
 30
0.0
  0
VERTEX
  8
0
 10
-4.8
 20
-48.9999997503
 30
0.0
  0
VERTEX
  8
0
 10
-4.85
 20
-48.9999997503
 30
0.0
  0
VERTEX
  8
0
 10
-4.9
 20
-48.9999997503
 30
0.0
  0
VERTEX
  8
0
 10
-4.95
 20
-48.9999997503
 30
0.0
  0
VERTEX
  8
0
 10
-5.0
 20
-48.9999997503
 30
0.0
  0
VERTEX
  8
0
 10
-5.05
 20
-48.9999997503
 30
0.0
  0
VERTEX
  8
0
 10
-5.1
 20
-48.9999997503
 30
0.0
  0
VERTEX
  8
0
 10
-5.15
 20
-48.9999997503
 30
0.0
  0
VERTEX
  8
0
 10
-5.2
 20
-48.9999997503
 30
0.0
  0
VERTEX
  8
0
 10
-5.25
 20
-48.9999997503
 30
0.0
  0
VERTEX
  8
0
 10
-5.3
 20
-48.9999997503
 30
0.0
  0
VERTEX
  8
0
 10
-5.35
 20
-48.9999997503
 30
0.0
  0
VERTEX
  8
0
 10
-5.4
 20
-48.9999997503
 30
0.0
  0
VERTEX
  8
0
 10
-5.45
 20
-48.9999997503
 30
0.0
  0
VERTEX
  8
0
 10
-5.5
 20
-48.9999997503
 30
0.0
  0
VERTEX
  8
0
 10
-5.55
 20
-48.9999997503
 30
0.0
  0
VERTEX
  8
0
 10
-5.6
 20
-48.9999997503
 30
0.0
  0
VERTEX
  8
0
 10
-5.65
 20
-48.9999997503
 30
0.0
  0
VERTEX
  8
0
 10
-5.7
 20
-48.9999997503
 30
0.0
  0
VERTEX
  8
0
 10
-5.75
 20
-48.9999997503
 30
0.0
  0
VERTEX
  8
0
 10
-5.8
 20
-48.9999997503
 30
0.0
  0
VERTEX
  8
0
 10
-5.85
 20
-48.9999997503
 30
0.0
  0
VERTEX
  8
0
 10
-5.9
 20
-48.9999997503
 30
0.0
  0
VERTEX
  8
0
 10
-5.95
 20
-48.9999997503
 30
0.0
  0
VERTEX
  8
0
 10
-6.0
 20
-48.9999997503
 30
0.0
  0
VERTEX
  8
0
 10
-6.05
 20
-48.9999997503
 30
0.0
  0
VERTEX
  8
0
 10
-6.1
 20
-48.9999997503
 30
0.0
  0
VERTEX
  8
0
 10
-6.15
 20
-48.9999997503
 30
0.0
  0
VERTEX
  8
0
 10
-6.2
 20
-48.9999997503
 30
0.0
  0
VERTEX
  8
0
 10
-6.25
 20
-48.9999997503
 30
0.0
  0
VERTEX
  8
0
 10
-6.3
 20
-48.9999997503
 30
0.0
  0
SEQEND
  8
0
  0
LINE
  8
0
 62
0
 10
6.3
 20
-41.9999997503
 30
0.0
 11
6.3
 21
-48.9999997503
 31
0.0
  0
ARC
  8
0
 62
0
 10
0.3
 20
-48.9999997503
 30
0.0
 40
6.0
 50
-90.0
 51
-0.0
  0
LINE
  8
0
 62
0
 10
-7.5
 20
-41.9999997503
 30
0.0
 11
7.5
 21
-41.9999997503
 31
0.0
  0
LINE
  8
0
 62
0
 10
39.9999984495
 20
7.99999761463
 30
0.0
 11
7.5
 21
-41.9999997503
 31
0.0
  0
LINE
  8
0
 62
0
 10
40.0
 20
8.0
 30
0.0
 11
39.9999984495
 21
7.99999761463
 31
0.0
  0
LINE
  8
0
 62
0
 10
-7.5
 20
-41.9999997503
 30
0.0
 11
-40.0
 21
7.99999761463
 31
0.0
  0
ARC
  8
0
 62
0
 10
-4.4408920985e-16
 20
-2.44249065418e-15
 30
0.0
 40
15.0
 50
147.769058136
 51
-0.0
  0
ARC
  8
0
 62
0
 10
-6.03961325396e-14
 20
-1.57651669497e-14
 30
0.0
 40
15.0
 50
0.0
 51
32.2309418643
  0
LINE
  8
0
 62
0
 10
12.6885790444
 20
7.99999761463
 30
0.0
 11
39.9999984495
 21
7.99999761463
 31
0.0
  0
LINE
  8
0
 62
0
 10
-40.0
 20
7.99999761463
 30
0.0
 11
-12.6885790444
 21
7.99999761463
 31
0.0
  0
ARC
  8
0
 62
0
 10
8.881784197e-16
 20
0.0
 30
0.0
 40
15.0
 50
32.2309418643
 51
147.769058136
  0
LINE
  8
0
 62
0
 10
90.0
 20
8.0
 30
0.0
 11
40.0
 21
8.0
 31
0.0
  0
LINE
  8
0
 62
0
 10
90.0
 20
27.9999976146
 30
0.0
 11
90.0
 21
8.0
 31
0.0
  0
LINE
  8
0
 62
0
 10
-90.0
 20
27.9999976146
 30
0.0
 11
90.0
 21
27.9999976146
 31
0.0
  0
LINE
  8
0
 62
0
 10
-90.0
 20
7.99999761463
 30
0.0
 11
-90.0
 21
27.9999976146
 31
0.0
  0
LINE
  8
0
 62
0
 10
-90.0
 20
7.99999761463
 30
0.0
 11
-40.0
 21
7.99999761463
 31
0.0
  0
CIRCLE
  8
0
 62
0
 10
0.0
 20
0.0
 30
0.0
 40
12.5
  0
CIRCLE
  8
0
 62
0
 10
0.0
 20
0.0
 30
0.0
 40
8.0
  0
LINE
  8
0
 62
0
 10
-6.3
 20
-48.9999997503
 30
0.0
 11
-6.3
 21
-41.9999997503
 31
0.0
  0
ENDBLK
  0
ENDSEC
  0
SECTION
  2
ENTITIES
  0
INSERT
  2
POCKET007
  8
0
 10
0.0
 20
0.0
 30
0.0
  0
ENDSEC
  0
EOF
