999
dxfrw 0.6.3
  0
SECTION
  2
HEADER
  9
$ACADVER
  1
AC1021
  9
$DWGCODEPAGE
  3
ANSI_1252
  9
$INSBASE
 10
0
 20
0
 30
0
  9
$EXTMIN
 10
-7.5
 20
-70.5
 30
0
  9
$EXTMAX
 10
261.4048272588937
 20
841
 30
0
  9
$LIMMIN
 10
0
 20
0
  9
$LIMMAX
 10
420
 20
297
  9
$ORTHOMODE
 70
    0
  9
$REGENMODE
 70
    1
  9
$FILLMODE
 70
    1
  9
$QTEXTMODE
 70
    0
  9
$MIRRTEXT
 70
    0
  9
$LTSCALE
 40
1
  9
$ATTMODE
 70
    0
  9
$TEXTSIZE
 40
2.5
  9
$TRACEWID
 40
15.68
  9
$TEXTSTYLE
  7
STANDARD
  9
$CLAYER
  8
ghandi
  9
$CELTYPE
  6
BYLAYER
  9
$CECOLOR
 62
  256
  9
$CELTSCALE
 40
1
  9
$DISPSILH
 70
    0
  9
$DIMSCALE
 40
2.5
  9
$DIMASZ
 40
2.5
  9
$DIMEXO
 40
0.625
  9
$DIMDLI
 40
3.75
  9
$DIMRND
 40
0
  9
$DIMDLE
 40
0
  9
$DIMEXE
 40
1.25
  9
$DIMTP
 40
0
  9
$DIMTM
 40
0
  9
$DIMTXT
 40
2.5
  9
$DIMCEN
 40
2.5
  9
$DIMTSZ
 40
0
  9
$DIMTOL
 70
    0
  9
$DIMLIM
 70
    0
  9
$DIMTIH
 70
    0
  9
$DIMTOH
 70
    0
  9
$DIMSE1
 70
    0
  9
$DIMSE2
 70
    0
  9
$DIMTAD
 70
    1
  9
$DIMZIN
 70
    8
  9
$DIMBLK
  1

  9
$DIMASO
 70
    1
  9
$DIMSHO
 70
    1
  9
$DIMPOST
  1

  9
$DIMAPOST
  1

  9
$DIMALT
 70
    0
  9
$DIMALTD
 70
    3
  9
$DIMALTF
 40
0.03937
  9
$DIMLFAC
 40
1
  9
$DIMTOFL
 70
    1
  9
$DIMTVP
 40
0
  9
$DIMTIX
 70
    0
  9
$DIMSOXD
 70
    0
  9
$DIMSAH
 70
    0
  9
$DIMBLK1
  1

  9
$DIMBLK2
  1

  9
$DIMSTYLE
  2
STANDARD
  9
$DIMCLRD
 70
    0
  9
$DIMCLRE
 70
    0
  9
$DIMCLRT
 70
    0
  9
$DIMTFAC
 40
1
  9
$DIMGAP
 40
0.625
  9
$DIMJUST
 70
    0
  9
$DIMSD1
 70
    0
  9
$DIMSD2
 70
    0
  9
$DIMTOLJ
 70
    0
  9
$DIMTZIN
 70
    8
  9
$DIMALTZ
 70
    0
  9
$DIMALTTZ
 70
    0
  9
$DIMUPT
 70
    0
  9
$DIMDEC
 70
    4
  9
$DIMTDEC
 70
    2
  9
$DIMALTU
 70
    2
  9
$DIMALTTD
 70
    3
  9
$DIMTXSTY
  7
STANDARD
  9
$DIMAUNIT
 70
    0
  9
$DIMADEC
 70
    2
  9
$DIMALTRND
 40
0
  9
$DIMAZIN
 70
    0
  9
$DIMDSEP
 70
   44
  9
$DIMATFIT
 70
    3
  9
$DIMFRAC
 70
    0
  9
$DIMLDRBLK
  1
STANDARD
  9
$DIMLUNIT
 70
    2
  9
$DIMLWD
 70
   -2
  9
$DIMLWE
 70
   -2
  9
$DIMTMOVE
 70
    0
  9
$DIMFXL
 40
1
  9
$DIMFXLON
 70
    0
  9
$DIMJOGANG
 40
0.7854
  9
$DIMTFILL
 70
    0
  9
$DIMTFILLCLR
 70
    0
  9
$DIMARCSYM
 70
    0
  9
$DIMLTYPE
  6

  9
$DIMLTEX1
  6

  9
$DIMLTEX2
  6

  9
$LUNITS
 70
    2
  9
$LUPREC
 70
    4
  9
$SKETCHINC
 40
1
  9
$FILLETRAD
 40
0
  9
$AUNITS
 70
    0
  9
$AUPREC
 70
    2
  9
$MENU
  1
.
  9
$ELEVATION
 40
0
  9
$PELEVATION
 40
0
  9
$THICKNESS
 40
0
  9
$LIMCHECK
 70
    0
  9
$CHAMFERA
 40
0
  9
$CHAMFERB
 40
0
  9
$CHAMFERC
 40
0
  9
$CHAMFERD
 40
0
  9
$SKPOLY
 70
    0
  9
$USRTIMER
 70
    1
  9
$ANGBASE
 50
0
  9
$ANGDIR
 70
    0
  9
$PDMODE
 70
   34
  9
$PDSIZE
 40
0
  9
$PLINEWID
 40
0
  9
$SPLFRAME
 70
    0
  9
$SPLINETYPE
 70
    2
  9
$SPLINESEGS
 70
    8
  9
$HANDSEED
  5
20000
  9
$SURFTAB1
 70
    6
  9
$SURFTAB2
 70
    6
  9
$SURFTYPE
 70
    6
  9
$SURFU
 70
    6
  9
$SURFV
 70
    6
  9
$UCSBASE
  2

  9
$UCSNAME
  2

  9
$UCSORG
 10
0
 20
0
 30
0
  9
$UCSXDIR
 10
1
 20
0
 30
0
  9
$UCSYDIR
 10
0
 20
1
 30
0
  9
$UCSORTHOREF
  2

  9
$UCSORTHOVIEW
 70
    0
  9
$UCSORGTOP
 10
0
 20
0
 30
0
  9
$UCSORGBOTTOM
 10
0
 20
0
 30
0
  9
$UCSORGLEFT
 10
0
 20
0
 30
0
  9
$UCSORGRIGHT
 10
0
 20
0
 30
0
  9
$UCSORGFRONT
 10
0
 20
0
 30
0
  9
$UCSORGBACK
 10
0
 20
0
 30
0
  9
$PUCSBASE
  2

  9
$PUCSNAME
  2

  9
$PUCSORG
 10
0
 20
0
 30
0
  9
$PUCSXDIR
 10
1
 20
0
 30
0
  9
$PUCSYDIR
 10
0
 20
1
 30
0
  9
$PUCSORTHOREF
  2

  9
$PUCSORTHOVIEW
 70
    0
  9
$PUCSORGTOP
 10
0
 20
0
 30
0
  9
$PUCSORGBOTTOM
 10
0
 20
0
 30
0
  9
$PUCSORGLEFT
 10
0
 20
0
 30
0
  9
$PUCSORGRIGHT
 10
0
 20
0
 30
0
  9
$PUCSORGFRONT
 10
0
 20
0
 30
0
  9
$PUCSORGBACK
 10
0
 20
0
 30
0
  9
$USERI1
 70
    0
  9
$USERI2
 70
    0
  9
$USERI3
 70
    0
  9
$USERI4
 70
    0
  9
$USERI5
 70
    0
  9
$USERR1
 40
0
  9
$USERR2
 40
0
  9
$USERR3
 40
0
  9
$USERR4
 40
0
  9
$USERR5
 40
0
  9
$WORLDVIEW
 70
    1
  9
$SHADEDGE
 70
    3
  9
$SHADEDIF
 70
   70
  9
$TILEMODE
 70
    1
  9
$MAXACTVP
 70
   64
  9
$PINSBASE
 10
0
 20
0
 30
0
  9
$PLIMCHECK
 70
    0
  9
$PEXTMIN
 10
0
 20
0
 30
0
  9
$PEXTMAX
 10
0
 20
0
 30
0
  9
$GRIDMODE
 70
    1
  9
$SNAPSTYLE
 70
    0
  9
$GRIDUNIT
 10
0
 20
0
  9
$PLIMMIN
 10
0
 20
0
  9
$PLIMMAX
 10
297
 20
210
  9
$UNITMODE
 70
    0
  9
$VISRETAIN
 70
    1
  9
$PLINEGEN
 70
    0
  9
$PSLTSCALE
 70
    1
  9
$TREEDEPTH
 70
 3020
  9
$CMLSTYLE
  2
Standard
  9
$CMLJUST
 70
    0
  9
$CMLSCALE
 40
20
  9
$PROXYGRAPHICS
 70
    1
  9
$MEASUREMENT
 70
    1
  9
$CELWEIGHT
370
   -1
  9
$ENDCAPS
280
    0
  9
$JOINSTYLE
280
    0
  9
$LWDISPLAY
290
    0
  9
$INSUNITS
 70
    0
  9
$HYPERLINKBASE
  1

  9
$STYLESHEET
  1

  9
$XEDIT
290
    1
  9
$CEPSNTYPE
380
    0
  9
$PSTYLEMODE
290
    1
  9
$EXTNAMES
290
    1
  9
$PSVPSCALE
 40
0
  9
$OLESTARTUP
290
    0
  9
$SORTENTS
280
  127
  9
$INDEXCTL
280
    0
  9
$HIDETEXT
280
    1
  9
$XCLIPFRAME
290
    0
  9
$HALOGAP
280
    0
  9
$OBSCOLOR
 70
  257
  9
$OBSLTYPE
280
    0
  9
$INTERSECTIONDISPLAY
280
    0
  9
$INTERSECTIONCOLOR
 70
  257
  9
$DIMASSOC
280
    1
  9
$PROJECTNAME
  1

  9
$CAMERADISPLAY
290
    0
  9
$LENSLENGTH
 40
50
  9
$CAMERAHEIGHT
 40
0
  9
$STEPSPERSEC
 40
2
  9
$STEPSIZE
 40
50
  9
$3DDWFPREC
 40
2
  9
$PSOLWIDTH
 40
5
  9
$PSOLHEIGHT
 40
80
  9
$LOFTANG1
 40
1.570796326794897
  9
$LOFTANG2
 40
1.570796326794897
  9
$LOFTMAG1
 40
0
  9
$LOFTMAG2
 40
0
  9
$LOFTPARAM
 70
    7
  9
$LOFTNORMALS
280
    1
  9
$LATITUDE
 40
1
  9
$LONGITUDE
 40
1
  9
$NORTHDIRECTION
 40
0
  9
$TIMEZONE
 70
-8000
  9
$LIGHTGLYPHDISPLAY
280
    1
  9
$TILEMODELIGHTSYNCH
280
    1
  9
$SOLIDHIST
280
    1
  9
$SHOWHIST
280
    1
  9
$DWFFRAME
280
    2
  9
$DGNFRAME
280
    0
  9
$REALWORLDSCALE
290
    1
  9
$INTERFERECOLOR
 62
    1
  9
$CSHADOW
280
    0
  9
$SHADOWPLANELOCATION
 40
0
  0
ENDSEC
  0
SECTION
  2
CLASSES
  0
ENDSEC
  0
SECTION
  2
TABLES
  0
TABLE
  2
VPORT
  5
8
330
0
100
AcDbSymbolTable
 70
    1
  0
VPORT
  5
31
330
2
100
AcDbSymbolTableRecord
100
AcDbViewportTableRecord
  2
*ACTIVE
 70
    0
 10
0
 20
0
 11
1
 21
1
 12
94.99088856328271
 22
435.2677272851388
 13
0
 23
0
 14
10
 24
10
 15
10
 25
10
 16
0
 26
0
 36
1
 17
0
 27
0
 37
0
 40
215.337178715991
 41
1.58703071672355
 42
50
 43
0
 44
0
 50
0
 51
0
 71
    0
 72
  100
 73
    1
 74
    3
 75
    0
 76
    1
 77
    0
 78
    0
281
    0
 65
    1
110
0
120
0
130
0
111
1
121
0
131
0
112
0
122
1
132
0
 79
    0
146
0
348
10020
 60
    7
 61
    5
292
1
282
    1
141
0
142
0
 63
  250
421
3358443
  0
ENDTAB
  0
TABLE
  2
LTYPE
  5
5
330
0
100
AcDbSymbolTable
 70
    4
  0
LTYPE
  5
14
330
5
100
AcDbSymbolTableRecord
100
AcDbLinetypeTableRecord
  2
ByBlock
 70
    0
  3

 72
   65
 73
    0
 40
0
  0
LTYPE
  5
15
330
5
100
AcDbSymbolTableRecord
100
AcDbLinetypeTableRecord
  2
ByLayer
 70
    0
  3

 72
   65
 73
    0
 40
0
  0
LTYPE
  5
16
330
5
100
AcDbSymbolTableRecord
100
AcDbLinetypeTableRecord
  2
Continuous
 70
    0
  3
Solid line
 72
   65
 73
    0
 40
0
  0
LTYPE
  5
32
330
5
100
AcDbSymbolTableRecord
100
AcDbLinetypeTableRecord
  2
DOT
 70
    0
  3
Dot . . . . . . . . . . . . . . . . . . . . . .
 72
   65
 73
    2
 40
6.35
 49
0
 74
    0
 49
-6.35
 74
    0
  0
LTYPE
  5
33
330
5
100
AcDbSymbolTableRecord
100
AcDbLinetypeTableRecord
  2
DOTTINY
 70
    0
  3
Dot (.15x) .....................................
 72
   65
 73
    2
 40
0.9525
 49
0
 74
    0
 49
-0.9525
 74
    0
  0
LTYPE
  5
34
330
5
100
AcDbSymbolTableRecord
100
AcDbLinetypeTableRecord
  2
DOT2
 70
    0
  3
Dot (.5x) .....................................
 72
   65
 73
    2
 40
3.175
 49
0
 74
    0
 49
-3.175
 74
    0
  0
LTYPE
  5
35
330
5
100
AcDbSymbolTableRecord
100
AcDbLinetypeTableRecord
  2
DOTX2
 70
    0
  3
Dot (2x) .  .  .  .  .  .  .  .  .  .  .  .  .
 72
   65
 73
    2
 40
12.7
 49
0
 74
    0
 49
-12.7
 74
    0
  0
LTYPE
  5
36
330
5
100
AcDbSymbolTableRecord
100
AcDbLinetypeTableRecord
  2
DASHED
 70
    0
  3
Dashed _ _ _ _ _ _ _ _ _ _ _ _ _ _ _ _ _
 72
   65
 73
    2
 40
19.05
 49
12.7
 74
    0
 49
-6.35
 74
    0
  0
LTYPE
  5
37
330
5
100
AcDbSymbolTableRecord
100
AcDbLinetypeTableRecord
  2
DASHEDTINY
 70
    0
  3
Dashed (.15x) _ _ _ _ _ _ _ _ _ _ _ _ _ _ _ _ _
 72
   65
 73
    2
 40
2.8575
 49
1.905
 74
    0
 49
-0.9525
 74
    0
  0
LTYPE
  5
38
330
5
100
AcDbSymbolTableRecord
100
AcDbLinetypeTableRecord
  2
DASHED2
 70
    0
  3
Dashed (.5x) _ _ _ _ _ _ _ _ _ _ _ _ _ _ _ _ _
 72
   65
 73
    2
 40
9.524999999999999
 49
6.35
 74
    0
 49
-3.175
 74
    0
  0
LTYPE
  5
39
330
5
100
AcDbSymbolTableRecord
100
AcDbLinetypeTableRecord
  2
DASHEDX2
 70
    0
  3
Dashed (2x) ____  ____  ____  ____  ____  ___
 72
   65
 73
    2
 40
38.09999999999999
 49
25.4
 74
    0
 49
-12.7
 74
    0
  0
LTYPE
  5
3A
330
5
100
AcDbSymbolTableRecord
100
AcDbLinetypeTableRecord
  2
DASHDOT
 70
    0
  3
Dash dot __ . __ . __ . __ . __ . __ . __ . __
 72
   65
 73
    4
 40
25.4
 49
12.7
 74
    0
 49
-6.35
 74
    0
 49
0
 74
    0
 49
-6.35
 74
    0
  0
LTYPE
  5
3B
330
5
100
AcDbSymbolTableRecord
100
AcDbLinetypeTableRecord
  2
DASHDOTTINY
 70
    0
  3
Dash dot (.15x) _._._._._._._._._._._._._._._.
 72
   65
 73
    4
 40
3.81
 49
1.905
 74
    0
 49
-0.9525
 74
    0
 49
0
 74
    0
 49
-0.9525
 74
    0
  0
LTYPE
  5
3C
330
5
100
AcDbSymbolTableRecord
100
AcDbLinetypeTableRecord
  2
DASHDOT2
 70
    0
  3
Dash dot (.5x) _._._._._._._._._._._._._._._.
 72
   65
 73
    4
 40
12.7
 49
6.35
 74
    0
 49
-3.175
 74
    0
 49
0
 74
    0
 49
-3.175
 74
    0
  0
LTYPE
  5
3D
330
5
100
AcDbSymbolTableRecord
100
AcDbLinetypeTableRecord
  2
DASHDOTX2
 70
    0
  3
Dash dot (2x) ____  .  ____  .  ____  .  ___
 72
   65
 73
    4
 40
50.8
 49
25.4
 74
    0
 49
-12.7
 74
    0
 49
0
 74
    0
 49
-12.7
 74
    0
  0
LTYPE
  5
3E
330
5
100
AcDbSymbolTableRecord
100
AcDbLinetypeTableRecord
  2
DIVIDE
 70
    0
  3
Divide ____ . . ____ . . ____ . . ____ . . ____
 72
   65
 73
    6
 40
31.75
 49
12.7
 74
    0
 49
-6.35
 74
    0
 49
0
 74
    0
 49
-6.35
 74
    0
 49
0
 74
    0
 49
-6.35
 74
    0
  0
LTYPE
  5
3F
330
5
100
AcDbSymbolTableRecord
100
AcDbLinetypeTableRecord
  2
DIVIDETINY
 70
    0
  3
Divide (.15x) __..__..__..__..__..__..__..__.._
 72
   65
 73
    6
 40
4.7625
 49
1.905
 74
    0
 49
-0.9525
 74
    0
 49
0
 74
    0
 49
-0.9525
 74
    0
 49
0
 74
    0
 49
-0.9525
 74
    0
  0
LTYPE
  5
40
330
5
100
AcDbSymbolTableRecord
100
AcDbLinetypeTableRecord
  2
DIVIDE2
 70
    0
  3
Divide (.5x) __..__..__..__..__..__..__..__.._
 72
   65
 73
    6
 40
15.875
 49
6.35
 74
    0
 49
-3.175
 74
    0
 49
0
 74
    0
 49
-3.175
 74
    0
 49
0
 74
    0
 49
-3.175
 74
    0
  0
LTYPE
  5
41
330
5
100
AcDbSymbolTableRecord
100
AcDbLinetypeTableRecord
  2
DIVIDEX2
 70
    0
  3
Divide (2x) ________  .  .  ________  .  .  _
 72
   65
 73
    6
 40
63.5
 49
25.4
 74
    0
 49
-12.7
 74
    0
 49
0
 74
    0
 49
-12.7
 74
    0
 49
0
 74
    0
 49
-12.7
 74
    0
  0
LTYPE
  5
42
330
5
100
AcDbSymbolTableRecord
100
AcDbLinetypeTableRecord
  2
BORDER
 70
    0
  3
Border __ __ . __ __ . __ __ . __ __ . __ __ .
 72
   65
 73
    6
 40
44.45
 49
12.7
 74
    0
 49
-6.35
 74
    0
 49
12.7
 74
    0
 49
-6.35
 74
    0
 49
0
 74
    0
 49
-6.35
 74
    0
  0
LTYPE
  5
43
330
5
100
AcDbSymbolTableRecord
100
AcDbLinetypeTableRecord
  2
BORDERTINY
 70
    0
  3
Border (.15x) __.__.__.__.__.__.__.__.__.__.__.
 72
   65
 73
    6
 40
6.6675
 49
1.905
 74
    0
 49
-0.9525
 74
    0
 49
1.905
 74
    0
 49
-0.9525
 74
    0
 49
0
 74
    0
 49
-0.9525
 74
    0
  0
LTYPE
  5
44
330
5
100
AcDbSymbolTableRecord
100
AcDbLinetypeTableRecord
  2
BORDER2
 70
    0
  3
Border (.5x) __.__.__.__.__.__.__.__.__.__.__.
 72
   65
 73
    6
 40
22.225
 49
6.35
 74
    0
 49
-3.175
 74
    0
 49
6.35
 74
    0
 49
-3.175
 74
    0
 49
0
 74
    0
 49
-3.175
 74
    0
  0
LTYPE
  5
45
330
5
100
AcDbSymbolTableRecord
100
AcDbLinetypeTableRecord
  2
BORDERX2
 70
    0
  3
Border (2x) ____  ____  .  ____  ____  .  ___
 72
   65
 73
    6
 40
88.89999999999999
 49
25.4
 74
    0
 49
-12.7
 74
    0
 49
25.4
 74
    0
 49
-12.7
 74
    0
 49
0
 74
    0
 49
-12.7
 74
    0
  0
LTYPE
  5
46
330
5
100
AcDbSymbolTableRecord
100
AcDbLinetypeTableRecord
  2
CENTER
 70
    0
  3
Center ____ _ ____ _ ____ _ ____ _ ____ _ ____
 72
   65
 73
    4
 40
50.8
 49
31.75
 74
    0
 49
-6.35
 74
    0
 49
6.35
 74
    0
 49
-6.35
 74
    0
  0
LTYPE
  5
47
330
5
100
AcDbSymbolTableRecord
100
AcDbLinetypeTableRecord
  2
CENTERTINY
 70
    0
  3
Center (.15x) ___ _ ___ _ ___ _ ___ _ ___ _ ___
 72
   65
 73
    4
 40
7.619999999999999
 49
4.7625
 74
    0
 49
-0.9525
 74
    0
 49
0.9525
 74
    0
 49
-0.9525
 74
    0
  0
LTYPE
  5
48
330
5
100
AcDbSymbolTableRecord
100
AcDbLinetypeTableRecord
  2
CENTER2
 70
    0
  3
Center (.5x) ___ _ ___ _ ___ _ ___ _ ___ _ ___
 72
   65
 73
    4
 40
28.575
 49
19.05
 74
    0
 49
-3.175
 74
    0
 49
3.175
 74
    0
 49
-3.175
 74
    0
  0
LTYPE
  5
49
330
5
100
AcDbSymbolTableRecord
100
AcDbLinetypeTableRecord
  2
CENTERX2
 70
    0
  3
Center (2x) ________  __  ________  __  _____
 72
   65
 73
    4
 40
101.6
 49
63.5
 74
    0
 49
-12.7
 74
    0
 49
12.7
 74
    0
 49
-12.7
 74
    0
  0
ENDTAB
  0
TABLE
  2
LAYER
  5
2
330
0
100
AcDbSymbolTable
 70
    1
  0
LAYER
  5
10
330
2
100
AcDbSymbolTableRecord
100
AcDbLayerTableRecord
  2
0
 70
    0
 62
    7
  6
CONTINUOUS
370
    0
390
F
  0
LAYER
  5
4A
330
2
100
AcDbSymbolTableRecord
100
AcDbLayerTableRecord
  2
drop
 70
    0
 62
    5
  6
CONTINUOUS
370
    0
390
F
  0
LAYER
  5
4B
330
2
100
AcDbSymbolTableRecord
100
AcDbLayerTableRecord
  2
drop thru
 70
    0
 62
    6
  6
DOTTINY
370
    0
390
F
  0
LAYER
  5
4C
330
2
100
AcDbSymbolTableRecord
100
AcDbLayerTableRecord
  2
ghandi
 70
    0
 62
    2
  6
CONTINUOUS
370
    0
390
F
  0
LAYER
  5
4D
330
2
100
AcDbSymbolTableRecord
100
AcDbLayerTableRecord
  2
koty
 70
    1
 62
  253
420
10526884
  6
CONTINUOUS
370
    0
390
F
  0
LAYER
  5
4E
330
2
100
AcDbSymbolTableRecord
100
AcDbLayerTableRecord
  2
osa
 70
    0
 62
  253
420
10526884
  6
CENTERTINY
370
    0
390
F
1001
LibreCad
1070
    1
  0
LAYER
  5
4F
330
2
100
AcDbSymbolTableRecord
100
AcDbLayerTableRecord
  2
pomocny
 70
    1
 62
  253
420
10526884
  6
DASHED2
370
    0
390
F
1001
LibreCad
1070
    1
  0
LAYER
  5
50
330
2
100
AcDbSymbolTableRecord
100
AcDbLayerTableRecord
  2
shark
 70
    0
 62
    1
  6
CONTINUOUS
370
    0
390
F
  0
LAYER
  5
51
330
2
100
AcDbSymbolTableRecord
100
AcDbLayerTableRecord
  2
trucky
 70
    0
 62
    3
  6
CONTINUOUS
370
    0
390
F
  0
LAYER
  5
52
330
2
100
AcDbSymbolTableRecord
100
AcDbLayerTableRecord
  2
uzsi
 70
    0
 62
    8
  6
CONTINUOUS
370
    0
390
F
  0
ENDTAB
  0
TABLE
  2
STYLE
  5
3
330
0
100
AcDbSymbolTable
 70
    3
  0
STYLE
  5
53
330
2
100
AcDbSymbolTableRecord
100
AcDbTextStyleTableRecord
  2
Standard
 70
    0
 40
0
 41
1
 50
0
 71
    0
 42
1
  3
txt
  4

  0
ENDTAB
  0
TABLE
  2
VIEW
  5
6
330
0
100
AcDbSymbolTable
 70
    0
  0
ENDTAB
  0
TABLE
  2
UCS
  5
7
330
0
100
AcDbSymbolTable
 70
    0
  0
ENDTAB
  0
TABLE
  2
APPID
  5
9
330
0
100
AcDbSymbolTable
 70
    1
  0
APPID
  5
12
330
9
100
AcDbSymbolTableRecord
100
AcDbRegAppTableRecord
  2
ACAD
 70
    0
  0
APPID
  5
54
330
9
100
AcDbSymbolTableRecord
100
AcDbRegAppTableRecord
  2
LibreCad
 70
    0
  0
ENDTAB
  0
TABLE
  2
DIMSTYLE
  5
A
330
0
100
AcDbSymbolTable
 70
    1
100
AcDbDimStyleTable
 71
    1
  0
DIMSTYLE
105
55
330
A
100
AcDbSymbolTableRecord
100
AcDbDimStyleTableRecord
  2
Standard
 70
    0
 40
2.5
 41
2.5
 42
0.625
 43
0.38
 44
1.25
 45
0
 46
0
 47
0
 48
0
 49
1
140
2.5
141
0.09
142
0
143
25.4
144
1
145
0
146
1
147
0.625
148
0
 71
    0
 72
    0
 73
    0
 74
    1
 75
    0
 76
    0
 77
    0
 78
    8
 79
    0
170
    0
171
    2
172
    0
173
    0
174
    0
175
    0
176
    0
177
    0
178
    0
179
    2
271
    4
272
    4
273
    2
274
    2
275
    0
276
    0
277
    2
278
   44
279
    0
280
    0
281
    0
282
    0
283
    1
284
    0
285
    0
286
    0
288
    0
289
    3
340
STANDARD
341

371
   -2
372
   -2
  0
ENDTAB
  0
TABLE
  2
BLOCK_RECORD
  5
1
330
0
100
AcDbSymbolTable
 70
    2
  0
BLOCK_RECORD
  5
1F
330
1
100
AcDbSymbolTableRecord
100
AcDbBlockTableRecord
  2
*Model_Space
 70
    0
280
    1
281
    0
  0
BLOCK_RECORD
  5
1E
330
1
100
AcDbSymbolTableRecord
100
AcDbBlockTableRecord
  2
*Paper_Space
 70
    0
280
    1
281
    0
  0
BLOCK_RECORD
  5
56
330
1
100
AcDbSymbolTableRecord
100
AcDbBlockTableRecord
  2
*D1
 70
    0
280
    1
281
    0
  0
BLOCK_RECORD
  5
59
330
1
100
AcDbSymbolTableRecord
100
AcDbBlockTableRecord
  2
trucks-2
 70
    0
280
    1
281
    0
  0
ENDTAB
  0
ENDSEC
  0
SECTION
  2
BLOCKS
  0
BLOCK
  5
20
330
1F
100
AcDbEntity
  8
0
100
AcDbBlockBegin
  2
*Model_Space
 70
    0
 10
0
 20
0
 30
0
  3
*Model_Space
  1

  0
ENDBLK
  5
21
330
1F
100
AcDbEntity
  8
0
100
AcDbBlockEnd
  0
BLOCK
  5
1C
330
1B
100
AcDbEntity
  8
0
100
AcDbBlockBegin
  2
*Paper_Space
 70
    0
 10
0
 20
0
 30
0
  3
*Paper_Space
  1

  0
ENDBLK
  5
1D
330
1F
100
AcDbEntity
  8
0
100
AcDbBlockEnd
  0
BLOCK
  5
57
330
56
100
AcDbEntity
  8
0
100
AcDbBlockBegin
  2
*D1
 70
    1
 10
0
 20
0
  3
*D1
  1

  0
LINE
  5
5C
100
AcDbEntity
  8
koty
  6
ByBlock
 62
    0
370
   -2
100
AcDbLine
 10
-40.00000000000005
 20
63.5
 11
-40
 21
798.5
  0
SOLID
  5
5D
100
AcDbEntity
  8
koty
  6
ByBlock
 62
    0
370
   -2
100
AcDbTrace
 10
-40.00000000000005
 20
63.5
 30
0
 11
-41.04071164443215
 21
69.75
 31
0
 12
-38.95928835556795
 22
69.75
 32
0
 13
-38.95928835556795
 23
69.75
 33
0
  0
SOLID
  5
5E
100
AcDbEntity
  8
koty
  6
ByBlock
 62
    0
370
   -2
100
AcDbTrace
 10
-40
 20
798.5
 30
0
 11
-38.9592883555679
 21
792.25
 31
0
 12
-41.0407116444321
 22
792.25
 32
0
 13
-41.0407116444321
 23
792.25
 33
0
  0
MTEXT
  5
5F
100
AcDbEntity
  8
koty
  6
CONTINUOUS
 62
    0
370
   -2
100
AcDbMText
 10
-41.87500000000003
 20
431
 30
0
 40
6.25
 41
12.50000000000078
 71
    5
 72
    1
  1
735
  7
STANDARD
210
0
220
0
230
1
 50
90
 73
    2
 44
1
  0
LINE
  5
60
100
AcDbEntity
  8
koty
  6
ByBlock
 62
    0
370
   -2
100
AcDbLine
 10
-1.5625
 20
63.5
 11
-43.12500000000005
 21
63.5
  0
LINE
  5
61
100
AcDbEntity
  8
koty
  6
ByBlock
 62
    0
370
   -2
100
AcDbLine
 10
-1.5625
 20
798.5
 11
-43.125
 21
798.5
  0
ENDBLK
  5
58
330
56
100
AcDbEntity
  8
0
100
AcDbBlockEnd
  0
BLOCK
  5
5A
330
59
100
AcDbEntity
  8
0
100
AcDbBlockBegin
  2
trucks-2
 70
    0
 10
0
 20
0
  3
trucks-2
  1

  0
CIRCLE
  5
62
100
AcDbEntity
  8
0
  6
ByLayer
 62
  256
370
   -1
100
AcDbCircle
 10
0
 20
0
 40
2.5
  0
CIRCLE
  5
63
100
AcDbEntity
  8
0
  6
ByLayer
 62
  256
370
   -1
100
AcDbCircle
 10
41.275
 20
0
 40
2.5
  0
CIRCLE
  5
64
100
AcDbEntity
  8
0
  6
ByLayer
 62
  256
370
   -1
100
AcDbCircle
 10
41.275
 20
63.5
 40
2.5
  0
CIRCLE
  5
65
100
AcDbEntity
  8
0
  6
ByLayer
 62
  256
370
   -1
100
AcDbCircle
 10
0
 20
63.5
 40
2.5
  0
CIRCLE
  5
66
100
AcDbEntity
  8
0
  6
ByLayer
 62
  256
370
   -1
100
AcDbCircle
 10
0
 20
53.97500000000002
 40
2.5
  0
CIRCLE
  5
67
100
AcDbEntity
  8
0
  6
ByLayer
 62
  256
370
   -1
100
AcDbCircle
 10
41.275
 20
53.97500000000002
 40
2.5
  0
CIRCLE
  5
68
100
AcDbEntity
  8
0
  6
ByLayer
 62
  256
370
   -1
100
AcDbCircle
 10
0
 20
9.524999999999977
 40
2.5
  0
CIRCLE
  5
69
100
AcDbEntity
  8
0
  6
ByLayer
 62
  256
370
   -1
100
AcDbCircle
 10
41.275
 20
9.524999999999977
 40
2.5
  0
POINT
  5
6A
100
AcDbEntity
  8
0
  6
ByLayer
 62
  256
370
   -1
100
AcDbPoint
 10
0
 20
0
  0
POINT
  5
6B
100
AcDbEntity
  8
0
  6
ByLayer
 62
  256
370
   -1
100
AcDbPoint
 10
-7.5
 20
-7.5
  0
POINT
  5
6C
100
AcDbEntity
  8
0
  6
ByLayer
 62
  256
370
   -1
100
AcDbPoint
 10
48.775
 20
71
  0
LWPOLYLINE
  5
6D
100
AcDbEntity
  8
0
  6
ByLayer
 62
  256
370
   -1
100
AcDbPolyline
 90
    4
 70
    1
 43
0
 10
-7.5
 20
-7.5
 10
48.775
 20
-7.5
 10
48.775
 20
71
 10
-7.5
 20
71
  0
LINE
  5
6E
100
AcDbEntity
  8
0
  6
DASHED2
 62
  256
370
   -1
100
AcDbLine
 10
-7.5
 20
31.75
 11
48.775
 21
31.75
  0
LINE
  5
6F
100
AcDbEntity
  8
0
  6
DASHED2
 62
  256
370
   -1
100
AcDbLine
 10
20.6375
 20
71
 11
20.6375
 21
-7.5
  0
LINE
  5
70
100
AcDbEntity
  8
0
  6
ByLayer
 62
  256
370
   -1
100
AcDbLine
 10
0
 20
63.5
 11
2.5
 21
66
  0
LINE
  5
71
100
AcDbEntity
  8
0
  6
ByLayer
 62
  256
370
   -1
100
AcDbLine
 10
0
 20
63.5
 11
-2.5
 21
61
  0
LINE
  5
72
100
AcDbEntity
  8
0
  6
ByLayer
 62
  256
370
   -1
100
AcDbLine
 10
0
 20
63.5
 11
2.5
 21
61
  0
LINE
  5
73
100
AcDbEntity
  8
0
  6
ByLayer
 62
  256
370
   -1
100
AcDbLine
 10
0
 20
63.5
 11
-2.5
 21
66
  0
LINE
  5
74
100
AcDbEntity
  8
0
  6
ByLayer
 62
  256
370
   -1
100
AcDbLine
 10
0
 20
53.97500000000002
 11
2.5
 21
56.47500000000002
  0
LINE
  5
75
100
AcDbEntity
  8
0
  6
ByLayer
 62
  256
370
   -1
100
AcDbLine
 10
0
 20
53.97500000000002
 11
-2.5
 21
51.47500000000002
  0
LINE
  5
76
100
AcDbEntity
  8
0
  6
ByLayer
 62
  256
370
   -1
100
AcDbLine
 10
0
 20
53.97500000000002
 11
2.5
 21
51.47500000000002
  0
LINE
  5
77
100
AcDbEntity
  8
0
  6
ByLayer
 62
  256
370
   -1
100
AcDbLine
 10
0
 20
53.97500000000002
 11
-2.5
 21
56.47500000000002
  0
LINE
  5
78
100
AcDbEntity
  8
0
  6
ByLayer
 62
  256
370
   -1
100
AcDbLine
 10
41.275
 20
53.97500000000002
 11
43.775
 21
56.47500000000002
  0
LINE
  5
79
100
AcDbEntity
  8
0
  6
ByLayer
 62
  256
370
   -1
100
AcDbLine
 10
41.275
 20
53.97500000000002
 11
38.775
 21
51.47500000000002
  0
LINE
  5
7A
100
AcDbEntity
  8
0
  6
ByLayer
 62
  256
370
   -1
100
AcDbLine
 10
41.275
 20
53.97500000000002
 11
43.775
 21
51.47500000000002
  0
LINE
  5
7B
100
AcDbEntity
  8
0
  6
ByLayer
 62
  256
370
   -1
100
AcDbLine
 10
41.275
 20
53.97500000000002
 11
38.775
 21
56.47500000000002
  0
LINE
  5
7C
100
AcDbEntity
  8
0
  6
ByLayer
 62
  256
370
   -1
100
AcDbLine
 10
41.275
 20
63.5
 11
43.775
 21
66
  0
LINE
  5
7D
100
AcDbEntity
  8
0
  6
ByLayer
 62
  256
370
   -1
100
AcDbLine
 10
41.275
 20
63.5
 11
38.775
 21
61
  0
LINE
  5
7E
100
AcDbEntity
  8
0
  6
ByLayer
 62
  256
370
   -1
100
AcDbLine
 10
41.275
 20
63.5
 11
43.775
 21
61
  0
LINE
  5
7F
100
AcDbEntity
  8
0
  6
ByLayer
 62
  256
370
   -1
100
AcDbLine
 10
41.275
 20
63.5
 11
38.775
 21
66
  0
LINE
  5
80
100
AcDbEntity
  8
0
  6
ByLayer
 62
  256
370
   -1
100
AcDbLine
 10
41.27499999999999
 20
9.524999999999977
 11
43.77499999999999
 21
12.02499999999998
  0
LINE
  5
81
100
AcDbEntity
  8
0
  6
ByLayer
 62
  256
370
   -1
100
AcDbLine
 10
41.27499999999999
 20
9.524999999999977
 11
38.77499999999999
 21
7.024999999999977
  0
LINE
  5
82
100
AcDbEntity
  8
0
  6
ByLayer
 62
  256
370
   -1
100
AcDbLine
 10
41.27499999999999
 20
9.524999999999977
 11
43.77499999999999
 21
7.024999999999977
  0
LINE
  5
83
100
AcDbEntity
  8
0
  6
ByLayer
 62
  256
370
   -1
100
AcDbLine
 10
41.27499999999999
 20
9.524999999999977
 11
38.77499999999999
 21
12.02499999999998
  0
LINE
  5
84
100
AcDbEntity
  8
0
  6
ByLayer
 62
  256
370
   -1
100
AcDbLine
 10
41.275
 20
0
 11
43.775
 21
2.5
  0
LINE
  5
85
100
AcDbEntity
  8
0
  6
ByLayer
 62
  256
370
   -1
100
AcDbLine
 10
41.275
 20
0
 11
38.775
 21
-2.5
  0
LINE
  5
86
100
AcDbEntity
  8
0
  6
ByLayer
 62
  256
370
   -1
100
AcDbLine
 10
41.275
 20
0
 11
43.775
 21
-2.5
  0
LINE
  5
87
100
AcDbEntity
  8
0
  6
ByLayer
 62
  256
370
   -1
100
AcDbLine
 10
41.275
 20
0
 11
38.775
 21
2.5
  0
LINE
  5
88
100
AcDbEntity
  8
0
  6
ByLayer
 62
  256
370
   -1
100
AcDbLine
 10
0
 20
0
 11
2.5
 21
2.5
  0
LINE
  5
89
100
AcDbEntity
  8
0
  6
ByLayer
 62
  256
370
   -1
100
AcDbLine
 10
0
 20
0
 11
-2.5
 21
-2.5
  0
LINE
  5
8A
100
AcDbEntity
  8
0
  6
ByLayer
 62
  256
370
   -1
100
AcDbLine
 10
0
 20
0
 11
2.5
 21
-2.5
  0
LINE
  5
8B
100
AcDbEntity
  8
0
  6
ByLayer
 62
  256
370
   -1
100
AcDbLine
 10
0
 20
0
 11
-2.5
 21
2.5
  0
LINE
  5
8C
100
AcDbEntity
  8
0
  6
ByLayer
 62
  256
370
   -1
100
AcDbLine
 10
0
 20
9.524999999999977
 11
2.5
 21
12.02499999999998
  0
LINE
  5
8D
100
AcDbEntity
  8
0
  6
ByLayer
 62
  256
370
   -1
100
AcDbLine
 10
0
 20
9.524999999999977
 11
-2.5
 21
7.024999999999977
  0
LINE
  5
8E
100
AcDbEntity
  8
0
  6
ByLayer
 62
  256
370
   -1
100
AcDbLine
 10
0
 20
9.524999999999977
 11
2.5
 21
7.024999999999977
  0
LINE
  5
8F
100
AcDbEntity
  8
0
  6
ByLayer
 62
  256
370
   -1
100
AcDbLine
 10
0
 20
9.524999999999977
 11
-2.5
 21
12.02499999999998
  0
CIRCLE
  5
90
100
AcDbEntity
  8
drop thru
  6
ByLayer
 62
  256
370
   -1
100
AcDbCircle
 10
20.6375
 20
0
 40
14.3
  0
CIRCLE
  5
91
100
AcDbEntity
  8
drop thru
  6
ByLayer
 62
  256
370
   -1
100
AcDbCircle
 10
34.9375
 20
17.5
 40
11.1
  0
CIRCLE
  5
92
100
AcDbEntity
  8
drop thru
  6
ByLayer
 62
  256
370
   -1
100
AcDbCircle
 10
34.9375
 20
36.5
 40
11.1
  0
CIRCLE
  5
93
100
AcDbEntity
  8
drop thru
  6
ByLayer
 62
  256
370
   -1
100
AcDbCircle
 10
20.6375
 20
81
 40
14.3
  0
LINE
  5
94
100
AcDbEntity
  8
drop thru
  6
ByLayer
 62
  256
370
   -1
100
AcDbLine
 10
34.9375
 20
0
 11
34.9375
 21
81
  0
LINE
  5
95
100
AcDbEntity
  8
drop thru
  6
ByLayer
 62
  256
370
   -1
100
AcDbLine
 10
46.0375
 20
17.5
 11
46.0375
 21
36.5
  0
CIRCLE
  5
96
100
AcDbEntity
  8
drop thru
  6
ByLayer
 62
  256
370
   -1
100
AcDbCircle
 10
6.337499999999999
 20
17.5
 40
11.1
  0
CIRCLE
  5
97
100
AcDbEntity
  8
drop thru
  6
ByLayer
 62
  256
370
   -1
100
AcDbCircle
 10
6.337499999999999
 20
36.5
 40
11.1
  0
LINE
  5
98
100
AcDbEntity
  8
drop thru
  6
ByLayer
 62
  256
370
   -1
100
AcDbLine
 10
6.337499999999999
 20
0
 11
6.337499999999999
 21
81
  0
LINE
  5
99
100
AcDbEntity
  8
drop thru
  6
ByLayer
 62
  256
370
   -1
100
AcDbLine
 10
-4.762500000000003
 20
17.5
 11
-4.762500000000003
 21
36.5
  0
ENDBLK
  5
5B
330
59
100
AcDbEntity
  8
0
100
AcDbBlockEnd
  0
ENDSEC
  0
SECTION
  2
ENTITIES
  0
LINE
  5
9A
100
AcDbEntity
  8
pomocny
  6
ByLayer
 62
  256
370
   -1
100
AcDbLine
 10
20.6375
 20
841
 11
500
 21
841
  0
LINE
  5
9B
100
AcDbEntity
  8
pomocny
  6
ByLayer
 62
  256
370
   -1
100
AcDbLine
 10
20.6375
 20
-70.5
 11
500
 21
-70.5
  0
LINE
  5
9C
100
AcDbEntity
  8
pomocny
  6
ByLayer
 62
  256
370
   -1
100
AcDbLine
 10
20.6375
 20
309.5
 11
500
 21
309.5
  0
LINE
  5
9D
100
AcDbEntity
  8
pomocny
  6
ByLayer
 62
  256
370
   -1
100
AcDbLine
 10
20.6375
 20
511
 11
500
 21
511
  0
LINE
  5
9E
100
AcDbEntity
  8
pomocny
  6
ByLayer
 62
  256
370
   -1
100
AcDbLine
 10
20
 20
822.8625
 11
500
 21
822.8625
  0
ARC
  5
9F
100
AcDbEntity
  8
0
  6
ByLayer
 62
  256
370
   -1
100
AcDbCircle
 10
94.14183228711198
 20
-55.5
 40
15
100
AcDbArc
 50
270
 51
344.9315118405078
  0
LINE
  5
A0
100
AcDbEntity
  8
0
  6
ByLayer
 62
  256
370
   -1
100
AcDbLine
 10
71.04001415775807
 20
-70.5
 11
20.6375
 21
-70.5
  0
ARC
  5
A1
100
AcDbEntity
  8
uzsi
  6
ByLayer
 62
  256
370
   -1
100
AcDbCircle
 10
71.04001415775807
 20
-55.5
 40
15
100
AcDbArc
 50
270
 51
335.2248594311681
  0
ARC
  5
A2
100
AcDbEntity
  8
drop
  6
ByLayer
 62
  256
370
   -1
100
AcDbCircle
 10
125.6375
 20
645.5774039836856
 40
15
100
AcDbArc
 50
0
 51
53.57265294669664
  0
LINE
  5
A3
100
AcDbEntity
  8
0
  6
ByLayer
 62
  256
370
   -1
100
AcDbLine
 10
140.6375
 20
644.5774039836856
 11
140.6375
 21
663.7499616016748
  0
ARC
  5
A4
100
AcDbEntity
  8
drop
  6
ByLayer
 62
  256
370
   -1
100
AcDbCircle
 10
125.6375
 20
663.7499616016748
 40
15
100
AcDbArc
 50
0
 51
64.84352572330899
  0
LINE
  5
A5
100
AcDbEntity
  8
drop
  6
ByLayer
 62
  256
370
   -1
100
AcDbLine
 10
132.0138770203628
 20
677.3272152302328
 11
91.50836893891163
 21
696.350089663795
  0
LINE
  5
A6
100
AcDbEntity
  8
drop
  6
ByLayer
 62
  256
370
   -1
100
AcDbLine
 10
65.6375
 20
798.5
 11
65.6375
 21
737.0818505494689
  0
ARC
  5
A7
100
AcDbEntity
  8
drop
  6
ByLayer
 62
  256
370
   -1
100
AcDbCircle
 10
110.6375
 20
737.0818505494689
 40
45
100
AcDbArc
 50
180
 51
244.8435257233089
  0
LINE
  5
A8
100
AcDbEntity
  8
drop
  6
ByLayer
 62
  256
370
   -1
100
AcDbLine
 10
134.5445448752368
 20
657.6465610209654
 11
83.92551751356137
 21
695.0034324958024
  0
LINE
  5
A9
100
AcDbEntity
  8
drop
  6
ByLayer
 62
  256
370
   -1
100
AcDbLine
 10
65.64665579027569
 20
731.2290306687986
 11
65.64861065387127
 21
736.0819328519634
  0
ARC
  5
AA
100
AcDbEntity
  8
drop
  6
ByLayer
 62
  256
370
   -1
100
AcDbCircle
 10
110.6466521392717
 20
731.2109036076414
 40
45
100
AcDbArc
 50
179.9769199082806
 51
233.5726529466965
  0
LINE
  5
AB
100
AcDbEntity
  8
drop
  6
ByLayer
 62
  256
370
   -1
100
AcDbLine
 10
65.6375
 20
798.5
 11
65.6375
 21
802.8625000000001
  0
ARC
  5
AC
100
AcDbEntity
  8
drop
  6
ByLayer
 62
  256
370
   -1
100
AcDbCircle
 10
45.6375
 20
802.8625000000001
 40
20
100
AcDbArc
 50
0
 51
90
  0
LINE
  5
AD
100
AcDbEntity
  8
drop
  6
ByLayer
 62
  256
370
   -1
100
AcDbLine
 10
65.6375
 20
797.5
 11
65.6375
 21
821
  0
LINE
  5
AE
100
AcDbEntity
  8
drop
  6
ByLayer
 62
  256
370
   -1
100
AcDbLine
 10
45.6375
 20
841
 11
20.6375
 21
841
  0
ARC
  5
AF
100
AcDbEntity
  8
drop
  6
ByLayer
 62
  256
370
   -1
100
AcDbCircle
 10
45.6375
 20
821
 40
20
100
AcDbArc
 50
0
 51
90
  0
LINE
  5
B0
100
AcDbEntity
  8
0
  6
ByLayer
 62
  256
370
   -1
100
AcDbLine
 10
59.65858216289939
 20
841
 11
20.6375
 21
841
  0
ARC
  5
B1
100
AcDbEntity
  8
0
  6
ByLayer
 62
  256
370
   -1
100
AcDbCircle
 10
59.65858216289939
 20
821
 40
20
100
AcDbArc
 50
32.47119229084849
 51
90
  0
LINE
  5
B2
100
AcDbEntity
  8
0
  6
ByLayer
 62
  256
370
   -1
100
AcDbLine
 10
76.53181191754155
 20
831.7375098438632
 11
88.61073286428021
 21
812.7563483561311
  0
LINE
  5
B3
100
AcDbEntity
  8
0
  6
ByLayer
 62
  256
370
   -1
100
AcDbLine
 10
140.6375
 20
716.4399656399621
 11
140.6375
 21
662.7499616016748
  0
LINE
  5
B4
100
AcDbEntity
  8
0
  6
ByLayer
 62
  256
370
   -1
100
AcDbLine
 10
132.8205743866054
 20
743.2837402496201
 11
88.07385737208705
 21
813.6000098438632
  0
ARC
  5
B5
100
AcDbEntity
  8
0
  6
ByLayer
 62
  256
370
   -1
100
AcDbCircle
 10
90.63749999999999
 20
716.4399656399621
 40
50
100
AcDbArc
 50
0
 51
32.47119229084851
  0
LINE
  5
B6
100
AcDbEntity
  8
uzsi
  6
ByLayer
 62
  256
370
   -1
100
AcDbLine
 10
84.65940492526485
 20
-61.7858726619262
 11
136.0048545955857
 21
49.03741252302456
  0
LINE
  5
B7
100
AcDbEntity
  8
0
  6
ByLayer
 62
  256
370
   -1
100
AcDbLine
 10
140.6375
 20
645.5774039836856
 11
140.6375
 21
70.05652613417351
  0
ARC
  5
B8
100
AcDbEntity
  8
uzsi
  6
ByLayer
 62
  256
370
   -1
100
AcDbCircle
 10
90.63749999999999
 20
70.05652613417355
 40
50
100
AcDbArc
 50
335.1412757178662
 51
359.9999999999999
  0
LINE
  5
B9
100
AcDbEntity
  8
0
  6
ByLayer
 62
  256
370
   -1
100
AcDbLine
 10
138.905496374207
 20
52.62837270438006
 11
108.626068664922
 21
-59.39960210171809
  0
LINE
  5
BA
100
AcDbEntity
  8
0
  6
ByLayer
 62
  256
370
   -1
100
AcDbLine
 10
140.6375
 20
65.67446507027802
 11
140.6375
 21
70.0565261341735
  0
ARC
  5
BB
100
AcDbEntity
  8
0
  6
ByLayer
 62
  256
370
   -1
100
AcDbCircle
 10
90.6375
 20
65.67446507027789
 40
50
100
AcDbArc
 50
344.8752316748059
 51
1.526666247102488e-13
  0
LINE
  5
BC
100
AcDbEntity
  8
0
  6
ByLayer
 62
  256
370
   -1
100
AcDbLine
 10
71.04001415775807
 20
-70.5
 11
94.14183228711198
 21
-70.5
  0
LINE
  5
BD
100
AcDbEntity
  8
pomocny
  6
ByLayer
 62
  256
370
   -1
100
AcDbLine
 10
130.6375
 20
608.9411625859528
 11
130.6375
 21
-164.3368048363419
  0
ARC
  5
BE
100
AcDbEntity
  8
shark
  6
ByLayer
 62
  256
370
   -1
100
AcDbCircle
 10
130.6375
 20
521
 40
10
100
AcDbArc
 50
299.9999999999981
 51
0
  0
ARC
  5
BF
100
AcDbEntity
  8
shark
  6
ByLayer
 62
  256
370
   -1
100
AcDbCircle
 10
140.6375
 20
503.6794919243098
 40
10
100
AcDbArc
 50
119.999999999998
 51
180
  0
ARC
  5
C0
100
AcDbEntity
  8
shark
  6
ByLayer
 62
  256
370
   -1
100
AcDbCircle
 10
130.6375
 20
299.5
 40
10
100
AcDbArc
 50
0
 51
59.99999999999968
  0
LINE
  5
C1
100
AcDbEntity
  8
shark
  6
ByLayer
 62
  256
370
   -1
100
AcDbLine
 10
130.6375
 20
316.8205080756885
 11
130.6375
 21
503.6794919243098
  0
ARC
  5
C2
100
AcDbEntity
  8
shark
  6
ByLayer
 62
  256
370
   -1
100
AcDbCircle
 10
140.6375
 20
316.8205080756885
 40
10
100
AcDbArc
 50
180
 51
239.9999999999996
  0
LINE
  5
C3
100
AcDbEntity
  8
osa
  6
ByLayer
 62
  256
370
   -1
100
AcDbLine
 10
20.6375
 20
727.5
 11
20.6375
 21
71
  0
LINE
  5
C4
100
AcDbEntity
  8
shark
  6
ByLayer
 62
  256
370
   -1
100
AcDbLine
 10
35.60293733970319
 20
-65.28764120206354
 11
70.04001415775807
 21
-70.5
  0
ARC
  5
C5
100
AcDbEntity
  8
shark
  6
ByLayer
 62
  256
370
   -1
100
AcDbCircle
 10
20.63750000000005
 20
-164.161478415107
 40
100
100
AcDbArc
 50
81.39310247074812
 51
90.00000000000004
  0
DIMENSION
  5
C6
100
AcDbEntity
  8
koty
  6
ByLayer
 62
  256
370
   -1
100
AcDbDimension
  2
*D1
 10
-40
 20
798.5
 30
0
 11
-41.87500000000003
 21
431
 31
0
 70
   32
 71
    5
  3
Standard
 53
0
210
0
220
0
230
1
100
AcDbAlignedDimension
 13
0
 23
63.5
 33
0
 14
0
 24
798.5
 34
0
 50
90
100
AcDbRotatedDimension
  0
LINE
  5
C7
100
AcDbEntity
  8
uzsi
  6
ByLayer
 62
  256
370
   -1
100
AcDbLine
 10
71.20062761744481
 20
822.8625
 11
20.6375
 21
822.8625
  0
ARC
  5
C8
100
AcDbEntity
  8
uzsi
  6
ByLayer
 62
  256
370
   -1
100
AcDbCircle
 10
71.20062761744481
 20
802.8625
 40
20
100
AcDbArc
 50
32.47119229084844
 51
90
  0
LINE
  5
C9
100
AcDbEntity
  8
shark
  6
ByLayer
 62
  256
370
   -1
100
AcDbLine
 10
140.6375
 20
707.8054302298261
 11
140.6375
 21
717.4398989746288
  0
ARC
  5
CA
100
AcDbEntity
  8
shark
  6
ByLayer
 62
  256
370
   -1
100
AcDbCircle
 10
130.6375
 20
717.4398989746288
 40
10
100
AcDbArc
 50
0
 51
70.12723214228245
  0
LINE
  5
CB
100
AcDbEntity
  8
shark
  6
ByLayer
 62
  256
370
   -1
100
AcDbLine
 10
128.4650630082365
 20
731.8308001719382
 11
88.61073286428021
 21
812.7563483561311
  0
ARC
  5
CC
100
AcDbEntity
  8
shark
  6
ByLayer
 62
  256
370
   -1
100
AcDbCircle
 10
137.4361520345448
 20
736.2488949742315
 40
10
100
AcDbArc
 50
206.219390200457
 51
250.1272321422826
  0
LINE
  5
CD
100
AcDbEntity
  8
shark
  6
ByLayer
 62
  256
370
   -1
100
AcDbLine
 10
140.6375
 20
81.05652613417351
 11
140.6375
 21
93.2107747020525
  0
ARC
  5
CE
100
AcDbEntity
  8
shark
  6
ByLayer
 62
  256
370
   -1
100
AcDbCircle
 10
130.6375
 20
81.05652613417351
 40
10
100
AcDbArc
 50
296.076169263262
 51
0
  0
LINE
  5
CF
100
AcDbEntity
  8
shark
  6
ByLayer
 62
  256
370
   -1
100
AcDbLine
 10
129.5697991872342
 20
64.76559431965036
 11
108.3341124490935
 21
-60.35584017486414
  0
ARC
  5
D0
100
AcDbEntity
  8
shark
  6
ByLayer
 62
  256
370
   -1
100
AcDbCircle
 10
139.428812397125
 20
63.09231654020154
 40
10
100
AcDbArc
 50
116.0761692632619
 51
170.3675133910635
  0
LINE
  5
D1
100
AcDbEntity
  8
shark
  6
ByLayer
 62
  256
370
   -1
100
AcDbLine
 10
134.3583902663223
 20
71.84929706855969
 11
135.9079104372628
 21
72.55812782491601
  0
LINE
  5
D2
100
AcDbEntity
  8
shark
  6
ByLayer
 62
  256
370
   -1
100
AcDbLine
 10
129.0698305816132
 20
66.03070428898454
 11
85.07978719748783
 21
-60.87852557001448
  0
ARC
  5
D3
100
AcDbEntity
  8
shark
  6
ByLayer
 62
  256
370
   -1
100
AcDbCircle
 10
138.5183113646712
 20
62.75561484101777
 40
10
100
AcDbArc
 50
114.5818099141485
 51
160.8823518643069
  0
LINE
  5
D4
100
AcDbEntity
  8
osa
  6
ByLayer
 62
  256
370
   -1
100
AcDbLine
 10
20.6375
 20
399.25
 11
261.4048272588937
 21
399.25
  0
ARC
  5
D5
100
AcDbEntity
  8
drop
  6
ByLayer
 62
  256
370
   -1
100
AcDbCircle
 10
125.6375
 20
152.9225960163144
 40
15
100
AcDbArc
 50
306.4273470533034
 51
360
  0
ARC
  5
D6
100
AcDbEntity
  8
drop
  6
ByLayer
 62
  256
370
   -1
100
AcDbCircle
 10
125.6375
 20
134.7500383983252
 40
15
100
AcDbArc
 50
295.156474276691
 51
360
  0
LINE
  5
D7
100
AcDbEntity
  8
drop
  6
ByLayer
 62
  256
370
   -1
100
AcDbLine
 10
132.0138770203628
 20
121.1727847697672
 11
91.50836893891163
 21
102.149910336205
  0
LINE
  5
D8
100
AcDbEntity
  8
drop
  6
ByLayer
 62
  256
370
   -1
100
AcDbLine
 10
65.6375
 20
0
 11
65.6375
 21
61.41814945053113
  0
ARC
  5
D9
100
AcDbEntity
  8
drop
  6
ByLayer
 62
  256
370
   -1
100
AcDbCircle
 10
110.6375
 20
61.41814945053113
 40
45
100
AcDbArc
 50
115.1564742766911
 51
180
  0
LINE
  5
DA
100
AcDbEntity
  8
drop
  6
ByLayer
 62
  256
370
   -1
100
AcDbLine
 10
134.5445448752368
 20
140.8534389790346
 11
83.92551751356137
 21
103.4965675041976
  0
LINE
  5
DB
100
AcDbEntity
  8
drop
  6
ByLayer
 62
  256
370
   -1
100
AcDbLine
 10
65.64665579027569
 20
67.2709693312014
 11
65.6486106538713
 21
62.41806714803658
  0
ARC
  5
DC
100
AcDbEntity
  8
drop
  6
ByLayer
 62
  256
370
   -1
100
AcDbCircle
 10
110.6466521392717
 20
67.2890963923586
 40
45
100
AcDbArc
 50
126.4273470533035
 51
180.0230800917194
  0
LINE
  5
DD
100
AcDbEntity
  8
drop
  6
ByLayer
 62
  256
370
   -1
100
AcDbLine
 10
20.63749999999998
 20
-24.36249999999995
 11
45.63749999999997
 21
-24.36249999999995
  0
ARC
  5
DE
100
AcDbEntity
  8
drop
  6
ByLayer
 62
  256
370
   -1
100
AcDbCircle
 10
45.63749999999997
 20
-4.362500000000068
 40
20
100
AcDbArc
 50
270
 51
360
  0
LINE
  5
DF
100
AcDbEntity
  8
drop
  6
ByLayer
 62
  256
370
   -1
100
AcDbLine
 10
65.6375
 20
1
 11
65.6375
 21
-22.5
  0
ARC
  5
E0
100
AcDbEntity
  8
drop
  6
ByLayer
 62
  256
370
   -1
100
AcDbCircle
 10
45.63749999999997
 20
-22.5
 40
20
100
AcDbArc
 50
270
 51
360
  0
LINE
  5
E1
100
AcDbEntity
  8
drop
  6
ByLayer
 62
  256
370
   -1
100
AcDbLine
 10
45.63749999999997
 20
-42.5
 11
20.6375
 21
-42.5
  0
LINE
  5
E2
100
AcDbEntity
  8
drop
  6
ByLayer
 62
  256
370
   -1
100
AcDbLine
 10
20.6375
 20
822.8624999999998
 11
45.6375
 21
822.8625
  0
LINE
  5
E3
100
AcDbEntity
  8
drop
  6
ByLayer
 62
  256
370
   -1
100
AcDbLine
 10
41.275
 20
822.8625
 11
20.6375
 21
822.8625
  0
LINE
  5
E4
100
AcDbEntity
  8
shark
  6
ByLayer
 62
  256
370
   -1
100
AcDbLine
 10
32.97363962973475
 20
837.533516698497
 11
60.65816554831296
 21
840.9750052078994
  0
LINE
  5
E5
100
AcDbEntity
  8
shark
  6
ByLayer
 62
  256
370
   -1
100
AcDbLine
 10
30.24135657725192
 20
818.7891238248236
 11
72.20021100285838
 21
822.8375052078993
  0
ARC
  5
E6
100
AcDbEntity
  8
shark
  6
ByLayer
 62
  256
370
   -1
100
AcDbCircle
 10
20.63749999999891
 20
936.7696978978746
 40
100
100
AcDbArc
 50
270.0000000000006
 51
277.0861383187517
  0
ARC
  5
E7
100
AcDbEntity
  8
shark
  6
ByLayer
 62
  256
370
   -1
100
AcDbCircle
 10
20.63750000000073
 20
918.326885196293
 40
100
100
AcDbArc
 50
269.9999999999996
 51
275.5110985843682
  0
INSERT
  5
E8
100
AcDbEntity
  8
trucky
  6
ByLayer
 62
  256
370
   -1
100
AcDbBlockReference
  2
trucks-2
 10
0
 20
735
 30
0
 41
1
 42
1
 43
0
 50
0
 70
    1
 71
    1
 44
0
 45
0
  0
INSERT
  5
E9
100
AcDbEntity
  8
trucky
  6
ByLayer
 62
  256
370
   -1
100
AcDbBlockReference
  2
trucks-2
 10
1.13686837721616e-13
 20
63.5
 30
0
 41
-1
 42
1
 43
0
 50
180
 70
    1
 71
    1
 44
0
 45
0
  0
ARC
  5
EA
100
AcDbEntity
  8
ghandi
  6
ByLayer
 62
  256
370
   -1
100
AcDbCircle
 10
20.6375
 20
715.4399656399621
 40
120
100
AcDbArc
 50
0
 51
90
  0
ENDSEC
  0
SECTION
  2
OBJECTS
  0
DICTIONARY
  5
C
330
0
100
AcDbDictionary
281
    1
  3
ACAD_GROUP
350
D
  0
DICTIONARY
  5
D
330
C
100
AcDbDictionary
281
    1
  0
ENDSEC
  0
EOF
