<?xml version="1.0" encoding="utf-8"?>
<!-- Generator: Adobe Illustrator 16.0.4, SVG Export Plug-In . SVG Version: 6.00 Build 0)  -->
<!DOCTYPE svg PUBLIC "-//W3C//DTD SVG 1.1//EN" "http://www.w3.org/Graphics/SVG/1.1/DTD/svg11.dtd">
<svg version="1.1" id="Layer_1" xmlns="http://www.w3.org/2000/svg" xmlns:xlink="http://www.w3.org/1999/xlink" x="0px" y="0px"
	 width="1008px" height="1008px" viewBox="0 0 1008 1008" enable-background="new 0 0 1008 1008" xml:space="preserve">
<path fill="none" stroke="#000000" stroke-miterlimit="10" d="M507.117,325.462c-45.929,0-75.283,27.911-75.283,67.276
	c0,19.685,10.594,33.572,30.279,33.572h4.492c4.971,0,9,4.029,9,9v246.555h87.301V435.311c0-4.971,4.029-9,9-9h4.492v-28.572
	C576.398,358.373,546.481,325.462,507.117,325.462z"/>
<g>
	<g>
		<defs>
			<rect id="SVGID_1_" x="471.105" y="645.405" width="96.301" height="40.19"/>
		</defs>
		<clipPath id="SVGID_2_">
			<use xlink:href="#SVGID_1_"  overflow="visible"/>
		</clipPath>
		<path clip-path="url(#SVGID_2_)" fill="#FFFFFF" d="M567.406,645.404h-96.301H567.406z"/>
		<rect x="471.105" y="645.404" clip-path="url(#SVGID_2_)" fill="#FFFFFF" width="96.301" height="1.089"/>
		<rect x="471.105" y="646.493" clip-path="url(#SVGID_2_)" fill="#FAFAFA" width="96.301" height="1.085"/>
		<rect x="471.105" y="647.578" clip-path="url(#SVGID_2_)" fill="#F4F4F4" width="96.301" height="1.086"/>
		<rect x="471.105" y="648.664" clip-path="url(#SVGID_2_)" fill="#EFEFEF" width="96.301" height="1.085"/>
		<rect x="471.105" y="649.749" clip-path="url(#SVGID_2_)" fill="#EAEAEA" width="96.301" height="1.089"/>
		<rect x="471.105" y="650.838" clip-path="url(#SVGID_2_)" fill="#E5E5E5" width="96.301" height="1.085"/>
		<rect x="471.105" y="651.923" clip-path="url(#SVGID_2_)" fill="#DFDFDF" width="96.301" height="1.085"/>
		<rect x="471.105" y="653.008" clip-path="url(#SVGID_2_)" fill="#DADADA" width="96.301" height="1.09"/>
		<rect x="471.105" y="654.098" clip-path="url(#SVGID_2_)" fill="#D5D5D5" width="96.301" height="1.085"/>
		<rect x="471.105" y="655.183" clip-path="url(#SVGID_2_)" fill="#D0D0D0" width="96.301" height="1.086"/>
		<rect x="471.105" y="656.269" clip-path="url(#SVGID_2_)" fill="#CACACA" width="96.301" height="1.084"/>
		<rect x="471.105" y="657.353" clip-path="url(#SVGID_2_)" fill="#C5C5C5" width="96.301" height="1.089"/>
		<rect x="471.105" y="658.441" clip-path="url(#SVGID_2_)" fill="#C0C0C0" width="96.301" height="1.085"/>
		<rect x="471.105" y="659.526" clip-path="url(#SVGID_2_)" fill="#BABABA" width="96.301" height="1.085"/>
		<rect x="471.105" y="660.611" clip-path="url(#SVGID_2_)" fill="#B5B5B5" width="96.301" height="1.089"/>
		<rect x="471.105" y="661.7" clip-path="url(#SVGID_2_)" fill="#B0B0B0" width="96.301" height="1.086"/>
		<rect x="471.105" y="662.786" clip-path="url(#SVGID_2_)" fill="#ABABAB" width="96.301" height="1.085"/>
		<rect x="471.105" y="663.871" clip-path="url(#SVGID_2_)" fill="#A5A5A5" width="96.301" height="1.085"/>
		<rect x="471.105" y="664.956" clip-path="url(#SVGID_2_)" fill="#A0A0A0" width="96.301" height="1.089"/>
		<rect x="471.105" y="666.045" clip-path="url(#SVGID_2_)" fill="#9B9B9B" width="96.301" height="1.085"/>
		<rect x="471.105" y="667.13" clip-path="url(#SVGID_2_)" fill="#959595" width="96.301" height="1.085"/>
		<rect x="471.105" y="668.215" clip-path="url(#SVGID_2_)" fill="#909090" width="96.301" height="1.09"/>
		<rect x="471.105" y="669.305" clip-path="url(#SVGID_2_)" fill="#8B8B8B" width="96.301" height="1.085"/>
		<rect x="471.105" y="670.39" clip-path="url(#SVGID_2_)" fill="#868686" width="96.301" height="1.085"/>
		<rect x="471.105" y="671.475" clip-path="url(#SVGID_2_)" fill="#808080" width="96.301" height="1.085"/>
		<rect x="471.105" y="672.56" clip-path="url(#SVGID_2_)" fill="#7B7B7B" width="96.301" height="1.09"/>
		<rect x="471.105" y="673.649" clip-path="url(#SVGID_2_)" fill="#767676" width="96.301" height="1.085"/>
		<rect x="471.105" y="674.734" clip-path="url(#SVGID_2_)" fill="#717171" width="96.301" height="1.084"/>
		<rect x="471.105" y="675.818" clip-path="url(#SVGID_2_)" fill="#6B6B6B" width="96.301" height="1.09"/>
		<rect x="471.105" y="676.908" clip-path="url(#SVGID_2_)" fill="#666666" width="96.301" height="1.085"/>
		<rect x="471.105" y="677.993" clip-path="url(#SVGID_2_)" fill="#616161" width="96.301" height="1.085"/>
		<rect x="471.105" y="679.078" clip-path="url(#SVGID_2_)" fill="#5B5B5B" width="96.301" height="1.085"/>
		<rect x="471.105" y="680.163" clip-path="url(#SVGID_2_)" fill="#565656" width="96.301" height="1.084"/>
		<rect x="471.105" y="681.247" clip-path="url(#SVGID_2_)" fill="#515151" width="96.301" height="1.091"/>
		<rect x="471.105" y="682.338" clip-path="url(#SVGID_2_)" fill="#4C4C4C" width="96.301" height="1.085"/>
		<rect x="471.105" y="683.423" clip-path="url(#SVGID_2_)" fill="#464646" width="96.301" height="1.089"/>
		<rect x="471.105" y="684.512" clip-path="url(#SVGID_2_)" fill="#414141" width="96.301" height="1.085"/>
		<path clip-path="url(#SVGID_2_)" fill="#414141" d="M471.105,685.597h96.301H471.105z"/>
	</g>
</g>
<circle cx="519.256" cy="397.739" r="12.392"/>
<path d="M527.191,626.023c0,4.383-3.553,7.936-7.936,7.936s-7.936-3.553-7.936-7.936V454.756c0-4.383,3.553-7.936,7.936-7.936
	s7.936,3.553,7.936,7.936V626.023z"/>
</svg>
