999
dxf-class
0
SECTION
2
HEADER
9
$ACADVER
1
AC1009
9
$EXTMIN
10
0
20
0
30
0
9
$EXTMAX
10
1000
20
1000
30
0
9
$MEASUREMENT
70
1
9
$INSUNITS
70
4
0
ENDSEC
0
SECTION
2
ENTITIES
0
LINE
8
x-half
10
80
20
50
11
80
21
50
0
LINE
8
x-half
10
80
20
50
11
120
21
50
0
LINE
8
x-half
10
180
20
50
11
180
21
50
0
LINE
8
x-half
10
180
20
50
11
220
21
50
0
LINE
8
x-half
10
280
20
50
11
280
21
50
0
LINE
8
x-half
10
280
20
50
11
320
21
50
0
LINE
8
x-half
10
380
20
50
11
380
21
50
0
LINE
8
x-half
10
380
20
50
11
420
21
50
0
LINE
8
x-half
10
480
20
50
11
480
21
50
0
LINE
8
x-half
10
480
20
50
11
520
21
50
0
LINE
8
x-half
10
580
20
50
11
580
21
50
0
LINE
8
x-half
10
580
20
50
11
620
21
50
0
LINE
8
x-half
10
680
20
50
11
680
21
50
0
LINE
8
x-half
10
680
20
50
11
720
21
50
0
LINE
8
x-half
10
80
20
150
11
80
21
150
0
LINE
8
x-half
10
80
20
150
11
120
21
150
0
LINE
8
x-half
10
180
20
150
11
180
21
150
0
LINE
8
x-half
10
180
20
150
11
220
21
150
0
LINE
8
x-half
10
280
20
150
11
280
21
150
0
LINE
8
x-half
10
280
20
150
11
320
21
150
0
LINE
8
x-half
10
380
20
150
11
380
21
150
0
LINE
8
x-half
10
380
20
150
11
420
21
150
0
LINE
8
x-half
10
480
20
150
11
480
21
150
0
LINE
8
x-half
10
480
20
150
11
520
21
150
0
LINE
8
x-half
10
580
20
150
11
580
21
150
0
LINE
8
x-half
10
580
20
150
11
620
21
150
0
LINE
8
x-half
10
680
20
150
11
680
21
150
0
LINE
8
x-half
10
680
20
150
11
720
21
150
0
LINE
8
x-half
10
80
20
250
11
80
21
250
0
LINE
8
x-half
10
80
20
250
11
120
21
250
0
LINE
8
x-half
10
180
20
250
11
180
21
250
0
LINE
8
x-half
10
180
20
250
11
220
21
250
0
LINE
8
x-half
10
280
20
250
11
280
21
250
0
LINE
8
x-half
10
280
20
250
11
320
21
250
0
LINE
8
x-half
10
380
20
250
11
380
21
250
0
LINE
8
x-half
10
380
20
250
11
420
21
250
0
LINE
8
x-half
10
480
20
250
11
480
21
250
0
LINE
8
x-half
10
480
20
250
11
520
21
250
0
LINE
8
x-half
10
580
20
250
11
580
21
250
0
LINE
8
x-half
10
580
20
250
11
620
21
250
0
LINE
8
x-half
10
680
20
250
11
680
21
250
0
LINE
8
x-half
10
680
20
250
11
720
21
250
0
LINE
8
x-half
10
80
20
350
11
80
21
350
0
LINE
8
x-half
10
80
20
350
11
120
21
350
0
LINE
8
x-half
10
180
20
350
11
180
21
350
0
LINE
8
x-half
10
180
20
350
11
220
21
350
0
LINE
8
x-half
10
280
20
350
11
280
21
350
0
LINE
8
x-half
10
280
20
350
11
320
21
350
0
LINE
8
x-half
10
380
20
350
11
380
21
350
0
LINE
8
x-half
10
380
20
350
11
420
21
350
0
LINE
8
x-half
10
480
20
350
11
480
21
350
0
LINE
8
x-half
10
480
20
350
11
520
21
350
0
LINE
8
x-half
10
580
20
350
11
580
21
350
0
LINE
8
x-half
10
580
20
350
11
620
21
350
0
LINE
8
x-half
10
680
20
350
11
680
21
350
0
LINE
8
x-half
10
680
20
350
11
720
21
350
0
LINE
8
x-half
10
80
20
450
11
80
21
450
0
LINE
8
x-half
10
80
20
450
11
120
21
450
0
LINE
8
x-half
10
180
20
450
11
180
21
450
0
LINE
8
x-half
10
180
20
450
11
220
21
450
0
LINE
8
x-half
10
280
20
450
11
280
21
450
0
LINE
8
x-half
10
280
20
450
11
320
21
450
0
LINE
8
x-half
10
380
20
450
11
380
21
450
0
LINE
8
x-half
10
380
20
450
11
420
21
450
0
LINE
8
x-half
10
480
20
450
11
480
21
450
0
LINE
8
x-half
10
480
20
450
11
520
21
450
0
LINE
8
x-half
10
580
20
450
11
580
21
450
0
LINE
8
x-half
10
580
20
450
11
620
21
450
0
LINE
8
x-half
10
680
20
450
11
680
21
450
0
LINE
8
x-half
10
680
20
450
11
720
21
450
0
LINE
8
x-half
10
80
20
550
11
80
21
550
0
LINE
8
x-half
10
80
20
550
11
120
21
550
0
LINE
8
x-half
10
180
20
550
11
180
21
550
0
LINE
8
x-half
10
180
20
550
11
220
21
550
0
LINE
8
x-half
10
280
20
550
11
280
21
550
0
LINE
8
x-half
10
280
20
550
11
320
21
550
0
LINE
8
x-half
10
380
20
550
11
380
21
550
0
LINE
8
x-half
10
380
20
550
11
420
21
550
0
LINE
8
x-half
10
480
20
550
11
480
21
550
0
LINE
8
x-half
10
480
20
550
11
520
21
550
0
LINE
8
x-half
10
580
20
550
11
580
21
550
0
LINE
8
x-half
10
580
20
550
11
620
21
550
0
LINE
8
x-half
10
680
20
550
11
680
21
550
0
LINE
8
x-half
10
680
20
550
11
720
21
550
0
LINE
8
x-half
10
80
20
650
11
80
21
650
0
LINE
8
x-half
10
80
20
650
11
120
21
650
0
LINE
8
x-half
10
180
20
650
11
180
21
650
0
LINE
8
x-half
10
180
20
650
11
220
21
650
0
LINE
8
x-half
10
280
20
650
11
280
21
650
0
LINE
8
x-half
10
280
20
650
11
320
21
650
0
LINE
8
x-half
10
380
20
650
11
380
21
650
0
LINE
8
x-half
10
380
20
650
11
420
21
650
0
LINE
8
x-half
10
480
20
650
11
480
21
650
0
LINE
8
x-half
10
480
20
650
11
520
21
650
0
LINE
8
x-half
10
580
20
650
11
580
21
650
0
LINE
8
x-half
10
580
20
650
11
620
21
650
0
LINE
8
x-half
10
680
20
650
11
680
21
650
0
LINE
8
x-half
10
680
20
650
11
720
21
650
0
LINE
8
x-half
10
80
20
750
11
80
21
750
0
LINE
8
x-half
10
80
20
750
11
120
21
750
0
LINE
8
x-half
10
180
20
750
11
180
21
750
0
LINE
8
x-half
10
180
20
750
11
220
21
750
0
LINE
8
x-half
10
280
20
750
11
280
21
750
0
LINE
8
x-half
10
280
20
750
11
320
21
750
0
LINE
8
x-half
10
380
20
750
11
380
21
750
0
LINE
8
x-half
10
380
20
750
11
420
21
750
0
LINE
8
x-half
10
480
20
750
11
480
21
750
0
LINE
8
x-half
10
480
20
750
11
520
21
750
0
LINE
8
x-half
10
580
20
750
11
580
21
750
0
LINE
8
x-half
10
580
20
750
11
620
21
750
0
LINE
8
x-half
10
680
20
750
11
680
21
750
0
LINE
8
x-half
10
680
20
750
11
720
21
750
0
LINE
8
x-half
10
80
20
850
11
80
21
850
0
LINE
8
x-half
10
80
20
850
11
120
21
850
0
LINE
8
x-half
10
180
20
850
11
180
21
850
0
LINE
8
x-half
10
180
20
850
11
220
21
850
0
LINE
8
x-half
10
280
20
850
11
280
21
850
0
LINE
8
x-half
10
280
20
850
11
320
21
850
0
LINE
8
x-half
10
380
20
850
11
380
21
850
0
LINE
8
x-half
10
380
20
850
11
420
21
850
0
LINE
8
x-half
10
480
20
850
11
480
21
850
0
LINE
8
x-half
10
480
20
850
11
520
21
850
0
LINE
8
x-half
10
580
20
850
11
580
21
850
0
LINE
8
x-half
10
580
20
850
11
620
21
850
0
LINE
8
x-half
10
680
20
850
11
680
21
850
0
LINE
8
x-half
10
680
20
850
11
720
21
850
0
LINE
8
x-half
10
80
20
950
11
80
21
950
0
LINE
8
x-half
10
80
20
950
11
120
21
950
0
LINE
8
x-half
10
180
20
950
11
180
21
950
0
LINE
8
x-half
10
180
20
950
11
220
21
950
0
LINE
8
x-half
10
280
20
950
11
280
21
950
0
LINE
8
x-half
10
280
20
950
11
320
21
950
0
LINE
8
x-half
10
380
20
950
11
380
21
950
0
LINE
8
x-half
10
380
20
950
11
420
21
950
0
LINE
8
x-half
10
480
20
950
11
480
21
950
0
LINE
8
x-half
10
480
20
950
11
520
21
950
0
LINE
8
x-half
10
580
20
950
11
580
21
950
0
LINE
8
x-half
10
580
20
950
11
620
21
950
0
LINE
8
x-half
10
680
20
950
11
680
21
950
0
LINE
8
x-half
10
680
20
950
11
720
21
950
0
LINE
8
x-half
10
80
20
1050
11
80
21
1050
0
LINE
8
x-half
10
80
20
1050
11
120
21
1050
0
LINE
8
x-half
10
180
20
1050
11
180
21
1050
0
LINE
8
x-half
10
180
20
1050
11
220
21
1050
0
LINE
8
x-half
10
280
20
1050
11
280
21
1050
0
LINE
8
x-half
10
280
20
1050
11
320
21
1050
0
LINE
8
x-half
10
380
20
1050
11
380
21
1050
0
LINE
8
x-half
10
380
20
1050
11
420
21
1050
0
LINE
8
x-half
10
480
20
1050
11
480
21
1050
0
LINE
8
x-half
10
480
20
1050
11
520
21
1050
0
LINE
8
x-half
10
580
20
1050
11
580
21
1050
0
LINE
8
x-half
10
580
20
1050
11
620
21
1050
0
LINE
8
x-half
10
680
20
1050
11
680
21
1050
0
LINE
8
x-half
10
680
20
1050
11
720
21
1050
0
LINE
8
x-half
10
80
20
1150
11
80
21
1150
0
LINE
8
x-half
10
80
20
1150
11
120
21
1150
0
LINE
8
x-half
10
180
20
1150
11
180
21
1150
0
LINE
8
x-half
10
180
20
1150
11
220
21
1150
0
LINE
8
x-half
10
280
20
1150
11
280
21
1150
0
LINE
8
x-half
10
280
20
1150
11
320
21
1150
0
LINE
8
x-half
10
380
20
1150
11
380
21
1150
0
LINE
8
x-half
10
380
20
1150
11
420
21
1150
0
LINE
8
x-half
10
480
20
1150
11
480
21
1150
0
LINE
8
x-half
10
480
20
1150
11
520
21
1150
0
LINE
8
x-half
10
580
20
1150
11
580
21
1150
0
LINE
8
x-half
10
580
20
1150
11
620
21
1150
0
LINE
8
x-half
10
680
20
1150
11
680
21
1150
0
LINE
8
x-half
10
680
20
1150
11
720
21
1150
0
LINE
8
x-half
10
80
20
1250
11
80
21
1250
0
LINE
8
x-half
10
80
20
1250
11
120
21
1250
0
LINE
8
x-half
10
180
20
1250
11
180
21
1250
0
LINE
8
x-half
10
180
20
1250
11
220
21
1250
0
LINE
8
x-half
10
280
20
1250
11
280
21
1250
0
LINE
8
x-half
10
280
20
1250
11
320
21
1250
0
LINE
8
x-half
10
380
20
1250
11
380
21
1250
0
LINE
8
x-half
10
380
20
1250
11
420
21
1250
0
LINE
8
x-half
10
480
20
1250
11
480
21
1250
0
LINE
8
x-half
10
480
20
1250
11
520
21
1250
0
LINE
8
x-half
10
580
20
1250
11
580
21
1250
0
LINE
8
x-half
10
580
20
1250
11
620
21
1250
0
LINE
8
x-half
10
680
20
1250
11
680
21
1250
0
LINE
8
x-half
10
680
20
1250
11
720
21
1250
0
LINE
8
x-half
10
0
20
50
11
0
21
50
0
LINE
8
x-half
10
0
20
50
11
20
21
50
0
LINE
8
x-half
10
800
20
50
11
800
21
50
0
LINE
8
x-half
10
800
20
50
11
780
21
50
0
LINE
8
x-half
10
0
20
150
11
0
21
150
0
LINE
8
x-half
10
0
20
150
11
20
21
150
0
LINE
8
x-half
10
800
20
150
11
800
21
150
0
LINE
8
x-half
10
800
20
150
11
780
21
150
0
LINE
8
x-half
10
0
20
250
11
0
21
250
0
LINE
8
x-half
10
0
20
250
11
20
21
250
0
LINE
8
x-half
10
800
20
250
11
800
21
250
0
LINE
8
x-half
10
800
20
250
11
780
21
250
0
LINE
8
x-half
10
0
20
350
11
0
21
350
0
LINE
8
x-half
10
0
20
350
11
20
21
350
0
LINE
8
x-half
10
800
20
350
11
800
21
350
0
LINE
8
x-half
10
800
20
350
11
780
21
350
0
LINE
8
x-half
10
0
20
450
11
0
21
450
0
LINE
8
x-half
10
0
20
450
11
20
21
450
0
LINE
8
x-half
10
800
20
450
11
800
21
450
0
LINE
8
x-half
10
800
20
450
11
780
21
450
0
LINE
8
x-half
10
0
20
550
11
0
21
550
0
LINE
8
x-half
10
0
20
550
11
20
21
550
0
LINE
8
x-half
10
800
20
550
11
800
21
550
0
LINE
8
x-half
10
800
20
550
11
780
21
550
0
LINE
8
x-half
10
0
20
650
11
0
21
650
0
LINE
8
x-half
10
0
20
650
11
20
21
650
0
LINE
8
x-half
10
800
20
650
11
800
21
650
0
LINE
8
x-half
10
800
20
650
11
780
21
650
0
LINE
8
x-half
10
0
20
750
11
0
21
750
0
LINE
8
x-half
10
0
20
750
11
20
21
750
0
LINE
8
x-half
10
800
20
750
11
800
21
750
0
LINE
8
x-half
10
800
20
750
11
780
21
750
0
LINE
8
x-half
10
0
20
850
11
0
21
850
0
LINE
8
x-half
10
0
20
850
11
20
21
850
0
LINE
8
x-half
10
800
20
850
11
800
21
850
0
LINE
8
x-half
10
800
20
850
11
780
21
850
0
LINE
8
x-half
10
0
20
950
11
0
21
950
0
LINE
8
x-half
10
0
20
950
11
20
21
950
0
LINE
8
x-half
10
800
20
950
11
800
21
950
0
LINE
8
x-half
10
800
20
950
11
780
21
950
0
LINE
8
x-half
10
0
20
1050
11
0
21
1050
0
LINE
8
x-half
10
0
20
1050
11
20
21
1050
0
LINE
8
x-half
10
800
20
1050
11
800
21
1050
0
LINE
8
x-half
10
800
20
1050
11
780
21
1050
0
LINE
8
x-half
10
0
20
1150
11
0
21
1150
0
LINE
8
x-half
10
0
20
1150
11
20
21
1150
0
LINE
8
x-half
10
800
20
1150
11
800
21
1150
0
LINE
8
x-half
10
800
20
1150
11
780
21
1150
0
LINE
8
x-half
10
0
20
1250
11
0
21
1250
0
LINE
8
x-half
10
0
20
1250
11
20
21
1250
0
LINE
8
x-half
10
800
20
1250
11
800
21
1250
0
LINE
8
x-half
10
800
20
1250
11
780
21
1250
0
LINE
8
y-half
10
50
20
1220
11
50
21
1220
0
LINE
8
y-half
10
50
20
1220
11
50
21
1180
0
LINE
8
y-half
10
50
20
1120
11
50
21
1120
0
LINE
8
y-half
10
50
20
1120
11
50
21
1080
0
LINE
8
y-half
10
50
20
1020
11
50
21
1020
0
LINE
8
y-half
10
50
20
1020
11
50
21
980
0
LINE
8
y-half
10
50
20
920
11
50
21
920
0
LINE
8
y-half
10
50
20
920
11
50
21
880
0
LINE
8
y-half
10
50
20
720
11
50
21
720
0
LINE
8
y-half
10
50
20
720
11
50
21
680
0
LINE
8
y-half
10
50
20
820
11
50
21
820
0
LINE
8
y-half
10
50
20
820
11
50
21
780
0
LINE
8
y-half
10
50
20
620
11
50
21
620
0
LINE
8
y-half
10
50
20
620
11
50
21
580
0
LINE
8
y-half
10
50
20
80
11
50
21
80
0
LINE
8
y-half
10
50
20
80
11
50
21
120
0
LINE
8
y-half
10
50
20
180
11
50
21
180
0
LINE
8
y-half
10
50
20
180
11
50
21
220
0
LINE
8
y-half
10
50
20
280
11
50
21
280
0
LINE
8
y-half
10
50
20
280
11
50
21
320
0
LINE
8
y-half
10
50
20
380
11
50
21
380
0
LINE
8
y-half
10
50
20
380
11
50
21
420
0
LINE
8
y-half
10
50
20
480
11
50
21
480
0
LINE
8
y-half
10
50
20
480
11
50
21
520
0
LINE
8
y-half
10
150
20
1220
11
150
21
1220
0
LINE
8
y-half
10
150
20
1220
11
150
21
1180
0
LINE
8
y-half
10
150
20
1120
11
150
21
1120
0
LINE
8
y-half
10
150
20
1120
11
150
21
1080
0
LINE
8
y-half
10
150
20
1020
11
150
21
1020
0
LINE
8
y-half
10
150
20
1020
11
150
21
980
0
LINE
8
y-half
10
150
20
920
11
150
21
920
0
LINE
8
y-half
10
150
20
920
11
150
21
880
0
LINE
8
y-half
10
150
20
720
11
150
21
720
0
LINE
8
y-half
10
150
20
720
11
150
21
680
0
LINE
8
y-half
10
150
20
820
11
150
21
820
0
LINE
8
y-half
10
150
20
820
11
150
21
780
0
LINE
8
y-half
10
150
20
620
11
150
21
620
0
LINE
8
y-half
10
150
20
620
11
150
21
580
0
LINE
8
y-half
10
150
20
80
11
150
21
80
0
LINE
8
y-half
10
150
20
80
11
150
21
120
0
LINE
8
y-half
10
150
20
180
11
150
21
180
0
LINE
8
y-half
10
150
20
180
11
150
21
220
0
LINE
8
y-half
10
150
20
280
11
150
21
280
0
LINE
8
y-half
10
150
20
280
11
150
21
320
0
LINE
8
y-half
10
150
20
380
11
150
21
380
0
LINE
8
y-half
10
150
20
380
11
150
21
420
0
LINE
8
y-half
10
150
20
480
11
150
21
480
0
LINE
8
y-half
10
150
20
480
11
150
21
520
0
LINE
8
y-half
10
250
20
1220
11
250
21
1220
0
LINE
8
y-half
10
250
20
1220
11
250
21
1180
0
LINE
8
y-half
10
250
20
1120
11
250
21
1120
0
LINE
8
y-half
10
250
20
1120
11
250
21
1080
0
LINE
8
y-half
10
250
20
1020
11
250
21
1020
0
LINE
8
y-half
10
250
20
1020
11
250
21
980
0
LINE
8
y-half
10
250
20
920
11
250
21
920
0
LINE
8
y-half
10
250
20
920
11
250
21
880
0
LINE
8
y-half
10
250
20
720
11
250
21
720
0
LINE
8
y-half
10
250
20
720
11
250
21
680
0
LINE
8
y-half
10
250
20
820
11
250
21
820
0
LINE
8
y-half
10
250
20
820
11
250
21
780
0
LINE
8
y-half
10
250
20
620
11
250
21
620
0
LINE
8
y-half
10
250
20
620
11
250
21
580
0
LINE
8
y-half
10
250
20
80
11
250
21
80
0
LINE
8
y-half
10
250
20
80
11
250
21
120
0
LINE
8
y-half
10
250
20
180
11
250
21
180
0
LINE
8
y-half
10
250
20
180
11
250
21
220
0
LINE
8
y-half
10
250
20
280
11
250
21
280
0
LINE
8
y-half
10
250
20
280
11
250
21
320
0
LINE
8
y-half
10
250
20
380
11
250
21
380
0
LINE
8
y-half
10
250
20
380
11
250
21
420
0
LINE
8
y-half
10
250
20
480
11
250
21
480
0
LINE
8
y-half
10
250
20
480
11
250
21
520
0
LINE
8
y-half
10
350
20
1220
11
350
21
1220
0
LINE
8
y-half
10
350
20
1220
11
350
21
1180
0
LINE
8
y-half
10
350
20
1120
11
350
21
1120
0
LINE
8
y-half
10
350
20
1120
11
350
21
1080
0
LINE
8
y-half
10
350
20
1020
11
350
21
1020
0
LINE
8
y-half
10
350
20
1020
11
350
21
980
0
LINE
8
y-half
10
350
20
920
11
350
21
920
0
LINE
8
y-half
10
350
20
920
11
350
21
880
0
LINE
8
y-half
10
350
20
720
11
350
21
720
0
LINE
8
y-half
10
350
20
720
11
350
21
680
0
LINE
8
y-half
10
350
20
820
11
350
21
820
0
LINE
8
y-half
10
350
20
820
11
350
21
780
0
LINE
8
y-half
10
350
20
620
11
350
21
620
0
LINE
8
y-half
10
350
20
620
11
350
21
580
0
LINE
8
y-half
10
350
20
80
11
350
21
80
0
LINE
8
y-half
10
350
20
80
11
350
21
120
0
LINE
8
y-half
10
350
20
180
11
350
21
180
0
LINE
8
y-half
10
350
20
180
11
350
21
220
0
LINE
8
y-half
10
350
20
280
11
350
21
280
0
LINE
8
y-half
10
350
20
280
11
350
21
320
0
LINE
8
y-half
10
350
20
380
11
350
21
380
0
LINE
8
y-half
10
350
20
380
11
350
21
420
0
LINE
8
y-half
10
350
20
480
11
350
21
480
0
LINE
8
y-half
10
350
20
480
11
350
21
520
0
LINE
8
y-half
10
450
20
1220
11
450
21
1220
0
LINE
8
y-half
10
450
20
1220
11
450
21
1180
0
LINE
8
y-half
10
450
20
1120
11
450
21
1120
0
LINE
8
y-half
10
450
20
1120
11
450
21
1080
0
LINE
8
y-half
10
450
20
1020
11
450
21
1020
0
LINE
8
y-half
10
450
20
1020
11
450
21
980
0
LINE
8
y-half
10
450
20
920
11
450
21
920
0
LINE
8
y-half
10
450
20
920
11
450
21
880
0
LINE
8
y-half
10
450
20
720
11
450
21
720
0
LINE
8
y-half
10
450
20
720
11
450
21
680
0
LINE
8
y-half
10
450
20
820
11
450
21
820
0
LINE
8
y-half
10
450
20
820
11
450
21
780
0
LINE
8
y-half
10
450
20
620
11
450
21
620
0
LINE
8
y-half
10
450
20
620
11
450
21
580
0
LINE
8
y-half
10
450
20
80
11
450
21
80
0
LINE
8
y-half
10
450
20
80
11
450
21
120
0
LINE
8
y-half
10
450
20
180
11
450
21
180
0
LINE
8
y-half
10
450
20
180
11
450
21
220
0
LINE
8
y-half
10
450
20
280
11
450
21
280
0
LINE
8
y-half
10
450
20
280
11
450
21
320
0
LINE
8
y-half
10
450
20
380
11
450
21
380
0
LINE
8
y-half
10
450
20
380
11
450
21
420
0
LINE
8
y-half
10
450
20
480
11
450
21
480
0
LINE
8
y-half
10
450
20
480
11
450
21
520
0
LINE
8
y-half
10
550
20
1220
11
550
21
1220
0
LINE
8
y-half
10
550
20
1220
11
550
21
1180
0
LINE
8
y-half
10
550
20
1120
11
550
21
1120
0
LINE
8
y-half
10
550
20
1120
11
550
21
1080
0
LINE
8
y-half
10
550
20
1020
11
550
21
1020
0
LINE
8
y-half
10
550
20
1020
11
550
21
980
0
LINE
8
y-half
10
550
20
920
11
550
21
920
0
LINE
8
y-half
10
550
20
920
11
550
21
880
0
LINE
8
y-half
10
550
20
720
11
550
21
720
0
LINE
8
y-half
10
550
20
720
11
550
21
680
0
LINE
8
y-half
10
550
20
820
11
550
21
820
0
LINE
8
y-half
10
550
20
820
11
550
21
780
0
LINE
8
y-half
10
550
20
620
11
550
21
620
0
LINE
8
y-half
10
550
20
620
11
550
21
580
0
LINE
8
y-half
10
550
20
80
11
550
21
80
0
LINE
8
y-half
10
550
20
80
11
550
21
120
0
LINE
8
y-half
10
550
20
180
11
550
21
180
0
LINE
8
y-half
10
550
20
180
11
550
21
220
0
LINE
8
y-half
10
550
20
280
11
550
21
280
0
LINE
8
y-half
10
550
20
280
11
550
21
320
0
LINE
8
y-half
10
550
20
380
11
550
21
380
0
LINE
8
y-half
10
550
20
380
11
550
21
420
0
LINE
8
y-half
10
550
20
480
11
550
21
480
0
LINE
8
y-half
10
550
20
480
11
550
21
520
0
LINE
8
y-half
10
650
20
1220
11
650
21
1220
0
LINE
8
y-half
10
650
20
1220
11
650
21
1180
0
LINE
8
y-half
10
650
20
1120
11
650
21
1120
0
LINE
8
y-half
10
650
20
1120
11
650
21
1080
0
LINE
8
y-half
10
650
20
1020
11
650
21
1020
0
LINE
8
y-half
10
650
20
1020
11
650
21
980
0
LINE
8
y-half
10
650
20
920
11
650
21
920
0
LINE
8
y-half
10
650
20
920
11
650
21
880
0
LINE
8
y-half
10
650
20
720
11
650
21
720
0
LINE
8
y-half
10
650
20
720
11
650
21
680
0
LINE
8
y-half
10
650
20
820
11
650
21
820
0
LINE
8
y-half
10
650
20
820
11
650
21
780
0
LINE
8
y-half
10
650
20
620
11
650
21
620
0
LINE
8
y-half
10
650
20
620
11
650
21
580
0
LINE
8
y-half
10
650
20
80
11
650
21
80
0
LINE
8
y-half
10
650
20
80
11
650
21
120
0
LINE
8
y-half
10
650
20
180
11
650
21
180
0
LINE
8
y-half
10
650
20
180
11
650
21
220
0
LINE
8
y-half
10
650
20
280
11
650
21
280
0
LINE
8
y-half
10
650
20
280
11
650
21
320
0
LINE
8
y-half
10
650
20
380
11
650
21
380
0
LINE
8
y-half
10
650
20
380
11
650
21
420
0
LINE
8
y-half
10
650
20
480
11
650
21
480
0
LINE
8
y-half
10
650
20
480
11
650
21
520
0
LINE
8
y-half
10
750
20
1220
11
750
21
1220
0
LINE
8
y-half
10
750
20
1220
11
750
21
1180
0
LINE
8
y-half
10
750
20
1120
11
750
21
1120
0
LINE
8
y-half
10
750
20
1120
11
750
21
1080
0
LINE
8
y-half
10
750
20
1020
11
750
21
1020
0
LINE
8
y-half
10
750
20
1020
11
750
21
980
0
LINE
8
y-half
10
750
20
920
11
750
21
920
0
LINE
8
y-half
10
750
20
920
11
750
21
880
0
LINE
8
y-half
10
750
20
720
11
750
21
720
0
LINE
8
y-half
10
750
20
720
11
750
21
680
0
LINE
8
y-half
10
750
20
820
11
750
21
820
0
LINE
8
y-half
10
750
20
820
11
750
21
780
0
LINE
8
y-half
10
750
20
620
11
750
21
620
0
LINE
8
y-half
10
750
20
620
11
750
21
580
0
LINE
8
y-half
10
750
20
80
11
750
21
80
0
LINE
8
y-half
10
750
20
80
11
750
21
120
0
LINE
8
y-half
10
750
20
180
11
750
21
180
0
LINE
8
y-half
10
750
20
180
11
750
21
220
0
LINE
8
y-half
10
750
20
280
11
750
21
280
0
LINE
8
y-half
10
750
20
280
11
750
21
320
0
LINE
8
y-half
10
750
20
380
11
750
21
380
0
LINE
8
y-half
10
750
20
380
11
750
21
420
0
LINE
8
y-half
10
750
20
480
11
750
21
480
0
LINE
8
y-half
10
750
20
480
11
750
21
520
0
LINE
8
y-half
10
50
20
0
11
50
21
0
0
LINE
8
y-half
10
50
20
0
11
50
21
20
0
LINE
8
y-half
10
150
20
0
11
150
21
0
0
LINE
8
y-half
10
150
20
0
11
150
21
20
0
LINE
8
y-half
10
250
20
0
11
250
21
0
0
LINE
8
y-half
10
250
20
0
11
250
21
20
0
LINE
8
y-half
10
350
20
0
11
350
21
0
0
LINE
8
y-half
10
350
20
0
11
350
21
20
0
LINE
8
y-half
10
450
20
0
11
450
21
0
0
LINE
8
y-half
10
450
20
0
11
450
21
20
0
LINE
8
y-half
10
550
20
0
11
550
21
0
0
LINE
8
y-half
10
550
20
0
11
550
21
20
0
LINE
8
y-half
10
650
20
0
11
650
21
0
0
LINE
8
y-half
10
650
20
0
11
650
21
20
0
LINE
8
y-half
10
750
20
0
11
750
21
0
0
LINE
8
y-half
10
750
20
0
11
750
21
20
0
LINE
8
holes
10
56
20
50
11
56
21
50
0
ARC
8
holes
10
50
20
50
40
6.0
50
0.0
51
360.0
0
LINE
8
holes
10
156
20
50
11
156
21
50
0
ARC
8
holes
10
150
20
50
40
6.0
50
0.0
51
360.0
0
LINE
8
holes
10
256
20
50
11
256
21
50
0
ARC
8
holes
10
250
20
50
40
6.0
50
0.0
51
360.0
0
LINE
8
holes
10
356
20
50
11
356
21
50
0
ARC
8
holes
10
350
20
50
40
6.0
50
0.0
51
360.0
0
LINE
8
holes
10
456
20
50
11
456
21
50
0
ARC
8
holes
10
450
20
50
40
6.0
50
0.0
51
360.0
0
LINE
8
holes
10
556
20
50
11
556
21
50
0
ARC
8
holes
10
550
20
50
40
6.0
50
0.0
51
360.0
0
LINE
8
holes
10
656
20
50
11
656
21
50
0
ARC
8
holes
10
650
20
50
40
6.0
50
0.0
51
360.0
0
LINE
8
holes
10
756
20
50
11
756
21
50
0
ARC
8
holes
10
750
20
50
40
6.0
50
0.0
51
360.0
0
LINE
8
holes
10
56
20
150
11
56
21
150
0
ARC
8
holes
10
50
20
150
40
6.0
50
0.0
51
360.0
0
LINE
8
holes
10
156
20
150
11
156
21
150
0
ARC
8
holes
10
150
20
150
40
6.0
50
0.0
51
360.0
0
LINE
8
holes
10
256
20
150
11
256
21
150
0
ARC
8
holes
10
250
20
150
40
6.0
50
0.0
51
360.0
0
LINE
8
holes
10
356
20
150
11
356
21
150
0
ARC
8
holes
10
350
20
150
40
6.0
50
0.0
51
360.0
0
LINE
8
holes
10
456
20
150
11
456
21
150
0
ARC
8
holes
10
450
20
150
40
6.0
50
0.0
51
360.0
0
LINE
8
holes
10
556
20
150
11
556
21
150
0
ARC
8
holes
10
550
20
150
40
6.0
50
0.0
51
360.0
0
LINE
8
holes
10
656
20
150
11
656
21
150
0
ARC
8
holes
10
650
20
150
40
6.0
50
0.0
51
360.0
0
LINE
8
holes
10
756
20
150
11
756
21
150
0
ARC
8
holes
10
750
20
150
40
6.0
50
0.0
51
360.0
0
LINE
8
holes
10
56
20
250
11
56
21
250
0
ARC
8
holes
10
50
20
250
40
6.0
50
0.0
51
360.0
0
LINE
8
holes
10
156
20
250
11
156
21
250
0
ARC
8
holes
10
150
20
250
40
6.0
50
0.0
51
360.0
0
LINE
8
holes
10
256
20
250
11
256
21
250
0
ARC
8
holes
10
250
20
250
40
6.0
50
0.0
51
360.0
0
LINE
8
holes
10
356
20
250
11
356
21
250
0
ARC
8
holes
10
350
20
250
40
6.0
50
0.0
51
360.0
0
LINE
8
holes
10
456
20
250
11
456
21
250
0
ARC
8
holes
10
450
20
250
40
6.0
50
0.0
51
360.0
0
LINE
8
holes
10
556
20
250
11
556
21
250
0
ARC
8
holes
10
550
20
250
40
6.0
50
0.0
51
360.0
0
LINE
8
holes
10
656
20
250
11
656
21
250
0
ARC
8
holes
10
650
20
250
40
6.0
50
0.0
51
360.0
0
LINE
8
holes
10
756
20
250
11
756
21
250
0
ARC
8
holes
10
750
20
250
40
6.0
50
0.0
51
360.0
0
LINE
8
holes
10
56
20
350
11
56
21
350
0
ARC
8
holes
10
50
20
350
40
6.0
50
0.0
51
360.0
0
LINE
8
holes
10
156
20
350
11
156
21
350
0
ARC
8
holes
10
150
20
350
40
6.0
50
0.0
51
360.0
0
LINE
8
holes
10
256
20
350
11
256
21
350
0
ARC
8
holes
10
250
20
350
40
6.0
50
0.0
51
360.0
0
LINE
8
holes
10
356
20
350
11
356
21
350
0
ARC
8
holes
10
350
20
350
40
6.0
50
0.0
51
360.0
0
LINE
8
holes
10
456
20
350
11
456
21
350
0
ARC
8
holes
10
450
20
350
40
6.0
50
0.0
51
360.0
0
LINE
8
holes
10
556
20
350
11
556
21
350
0
ARC
8
holes
10
550
20
350
40
6.0
50
0.0
51
360.0
0
LINE
8
holes
10
656
20
350
11
656
21
350
0
ARC
8
holes
10
650
20
350
40
6.0
50
0.0
51
360.0
0
LINE
8
holes
10
756
20
350
11
756
21
350
0
ARC
8
holes
10
750
20
350
40
6.0
50
0.0
51
360.0
0
LINE
8
holes
10
56
20
450
11
56
21
450
0
ARC
8
holes
10
50
20
450
40
6.0
50
0.0
51
360.0
0
LINE
8
holes
10
156
20
450
11
156
21
450
0
ARC
8
holes
10
150
20
450
40
6.0
50
0.0
51
360.0
0
LINE
8
holes
10
256
20
450
11
256
21
450
0
ARC
8
holes
10
250
20
450
40
6.0
50
0.0
51
360.0
0
LINE
8
holes
10
356
20
450
11
356
21
450
0
ARC
8
holes
10
350
20
450
40
6.0
50
0.0
51
360.0
0
LINE
8
holes
10
456
20
450
11
456
21
450
0
ARC
8
holes
10
450
20
450
40
6.0
50
0.0
51
360.0
0
LINE
8
holes
10
556
20
450
11
556
21
450
0
ARC
8
holes
10
550
20
450
40
6.0
50
0.0
51
360.0
0
LINE
8
holes
10
656
20
450
11
656
21
450
0
ARC
8
holes
10
650
20
450
40
6.0
50
0.0
51
360.0
0
LINE
8
holes
10
756
20
450
11
756
21
450
0
ARC
8
holes
10
750
20
450
40
6.0
50
0.0
51
360.0
0
LINE
8
holes
10
56
20
550
11
56
21
550
0
ARC
8
holes
10
50
20
550
40
6.0
50
0.0
51
360.0
0
LINE
8
holes
10
156
20
550
11
156
21
550
0
ARC
8
holes
10
150
20
550
40
6.0
50
0.0
51
360.0
0
LINE
8
holes
10
256
20
550
11
256
21
550
0
ARC
8
holes
10
250
20
550
40
6.0
50
0.0
51
360.0
0
LINE
8
holes
10
356
20
550
11
356
21
550
0
ARC
8
holes
10
350
20
550
40
6.0
50
0.0
51
360.0
0
LINE
8
holes
10
456
20
550
11
456
21
550
0
ARC
8
holes
10
450
20
550
40
6.0
50
0.0
51
360.0
0
LINE
8
holes
10
556
20
550
11
556
21
550
0
ARC
8
holes
10
550
20
550
40
6.0
50
0.0
51
360.0
0
LINE
8
holes
10
656
20
550
11
656
21
550
0
ARC
8
holes
10
650
20
550
40
6.0
50
0.0
51
360.0
0
LINE
8
holes
10
756
20
550
11
756
21
550
0
ARC
8
holes
10
750
20
550
40
6.0
50
0.0
51
360.0
0
LINE
8
holes
10
56
20
650
11
56
21
650
0
ARC
8
holes
10
50
20
650
40
6.0
50
0.0
51
360.0
0
LINE
8
holes
10
156
20
650
11
156
21
650
0
ARC
8
holes
10
150
20
650
40
6.0
50
0.0
51
360.0
0
LINE
8
holes
10
256
20
650
11
256
21
650
0
ARC
8
holes
10
250
20
650
40
6.0
50
0.0
51
360.0
0
LINE
8
holes
10
356
20
650
11
356
21
650
0
ARC
8
holes
10
350
20
650
40
6.0
50
0.0
51
360.0
0
LINE
8
holes
10
456
20
650
11
456
21
650
0
ARC
8
holes
10
450
20
650
40
6.0
50
0.0
51
360.0
0
LINE
8
holes
10
556
20
650
11
556
21
650
0
ARC
8
holes
10
550
20
650
40
6.0
50
0.0
51
360.0
0
LINE
8
holes
10
656
20
650
11
656
21
650
0
ARC
8
holes
10
650
20
650
40
6.0
50
0.0
51
360.0
0
LINE
8
holes
10
756
20
650
11
756
21
650
0
ARC
8
holes
10
750
20
650
40
6.0
50
0.0
51
360.0
0
LINE
8
holes
10
56
20
750
11
56
21
750
0
ARC
8
holes
10
50
20
750
40
6.0
50
0.0
51
360.0
0
LINE
8
holes
10
156
20
750
11
156
21
750
0
ARC
8
holes
10
150
20
750
40
6.0
50
0.0
51
360.0
0
LINE
8
holes
10
256
20
750
11
256
21
750
0
ARC
8
holes
10
250
20
750
40
6.0
50
0.0
51
360.0
0
LINE
8
holes
10
356
20
750
11
356
21
750
0
ARC
8
holes
10
350
20
750
40
6.0
50
0.0
51
360.0
0
LINE
8
holes
10
456
20
750
11
456
21
750
0
ARC
8
holes
10
450
20
750
40
6.0
50
0.0
51
360.0
0
LINE
8
holes
10
556
20
750
11
556
21
750
0
ARC
8
holes
10
550
20
750
40
6.0
50
0.0
51
360.0
0
LINE
8
holes
10
656
20
750
11
656
21
750
0
ARC
8
holes
10
650
20
750
40
6.0
50
0.0
51
360.0
0
LINE
8
holes
10
756
20
750
11
756
21
750
0
ARC
8
holes
10
750
20
750
40
6.0
50
0.0
51
360.0
0
LINE
8
holes
10
56
20
850
11
56
21
850
0
ARC
8
holes
10
50
20
850
40
6.0
50
0.0
51
360.0
0
LINE
8
holes
10
156
20
850
11
156
21
850
0
ARC
8
holes
10
150
20
850
40
6.0
50
0.0
51
360.0
0
LINE
8
holes
10
256
20
850
11
256
21
850
0
ARC
8
holes
10
250
20
850
40
6.0
50
0.0
51
360.0
0
LINE
8
holes
10
356
20
850
11
356
21
850
0
ARC
8
holes
10
350
20
850
40
6.0
50
0.0
51
360.0
0
LINE
8
holes
10
456
20
850
11
456
21
850
0
ARC
8
holes
10
450
20
850
40
6.0
50
0.0
51
360.0
0
LINE
8
holes
10
556
20
850
11
556
21
850
0
ARC
8
holes
10
550
20
850
40
6.0
50
0.0
51
360.0
0
LINE
8
holes
10
656
20
850
11
656
21
850
0
ARC
8
holes
10
650
20
850
40
6.0
50
0.0
51
360.0
0
LINE
8
holes
10
756
20
850
11
756
21
850
0
ARC
8
holes
10
750
20
850
40
6.0
50
0.0
51
360.0
0
LINE
8
holes
10
56
20
950
11
56
21
950
0
ARC
8
holes
10
50
20
950
40
6.0
50
0.0
51
360.0
0
LINE
8
holes
10
156
20
950
11
156
21
950
0
ARC
8
holes
10
150
20
950
40
6.0
50
0.0
51
360.0
0
LINE
8
holes
10
256
20
950
11
256
21
950
0
ARC
8
holes
10
250
20
950
40
6.0
50
0.0
51
360.0
0
LINE
8
holes
10
356
20
950
11
356
21
950
0
ARC
8
holes
10
350
20
950
40
6.0
50
0.0
51
360.0
0
LINE
8
holes
10
456
20
950
11
456
21
950
0
ARC
8
holes
10
450
20
950
40
6.0
50
0.0
51
360.0
0
LINE
8
holes
10
556
20
950
11
556
21
950
0
ARC
8
holes
10
550
20
950
40
6.0
50
0.0
51
360.0
0
LINE
8
holes
10
656
20
950
11
656
21
950
0
ARC
8
holes
10
650
20
950
40
6.0
50
0.0
51
360.0
0
LINE
8
holes
10
756
20
950
11
756
21
950
0
ARC
8
holes
10
750
20
950
40
6.0
50
0.0
51
360.0
0
LINE
8
holes
10
56
20
1050
11
56
21
1050
0
ARC
8
holes
10
50
20
1050
40
6.0
50
0.0
51
360.0
0
LINE
8
holes
10
156
20
1050
11
156
21
1050
0
ARC
8
holes
10
150
20
1050
40
6.0
50
0.0
51
360.0
0
LINE
8
holes
10
256
20
1050
11
256
21
1050
0
ARC
8
holes
10
250
20
1050
40
6.0
50
0.0
51
360.0
0
LINE
8
holes
10
356
20
1050
11
356
21
1050
0
ARC
8
holes
10
350
20
1050
40
6.0
50
0.0
51
360.0
0
LINE
8
holes
10
456
20
1050
11
456
21
1050
0
ARC
8
holes
10
450
20
1050
40
6.0
50
0.0
51
360.0
0
LINE
8
holes
10
556
20
1050
11
556
21
1050
0
ARC
8
holes
10
550
20
1050
40
6.0
50
0.0
51
360.0
0
LINE
8
holes
10
656
20
1050
11
656
21
1050
0
ARC
8
holes
10
650
20
1050
40
6.0
50
0.0
51
360.0
0
LINE
8
holes
10
756
20
1050
11
756
21
1050
0
ARC
8
holes
10
750
20
1050
40
6.0
50
0.0
51
360.0
0
LINE
8
holes
10
56
20
1150
11
56
21
1150
0
ARC
8
holes
10
50
20
1150
40
6.0
50
0.0
51
360.0
0
LINE
8
holes
10
156
20
1150
11
156
21
1150
0
ARC
8
holes
10
150
20
1150
40
6.0
50
0.0
51
360.0
0
LINE
8
holes
10
256
20
1150
11
256
21
1150
0
ARC
8
holes
10
250
20
1150
40
6.0
50
0.0
51
360.0
0
LINE
8
holes
10
356
20
1150
11
356
21
1150
0
ARC
8
holes
10
350
20
1150
40
6.0
50
0.0
51
360.0
0
LINE
8
holes
10
456
20
1150
11
456
21
1150
0
ARC
8
holes
10
450
20
1150
40
6.0
50
0.0
51
360.0
0
LINE
8
holes
10
556
20
1150
11
556
21
1150
0
ARC
8
holes
10
550
20
1150
40
6.0
50
0.0
51
360.0
0
LINE
8
holes
10
656
20
1150
11
656
21
1150
0
ARC
8
holes
10
650
20
1150
40
6.0
50
0.0
51
360.0
0
LINE
8
holes
10
756
20
1150
11
756
21
1150
0
ARC
8
holes
10
750
20
1150
40
6.0
50
0.0
51
360.0
0
LINE
8
holes
10
56
20
1250
11
56
21
1250
0
ARC
8
holes
10
50
20
1250
40
6.0
50
0.0
51
360.0
0
LINE
8
holes
10
156
20
1250
11
156
21
1250
0
ARC
8
holes
10
150
20
1250
40
6.0
50
0.0
51
360.0
0
LINE
8
holes
10
256
20
1250
11
256
21
1250
0
ARC
8
holes
10
250
20
1250
40
6.0
50
0.0
51
360.0
0
LINE
8
holes
10
356
20
1250
11
356
21
1250
0
ARC
8
holes
10
350
20
1250
40
6.0
50
0.0
51
360.0
0
LINE
8
holes
10
456
20
1250
11
456
21
1250
0
ARC
8
holes
10
450
20
1250
40
6.0
50
0.0
51
360.0
0
LINE
8
holes
10
556
20
1250
11
556
21
1250
0
ARC
8
holes
10
550
20
1250
40
6.0
50
0.0
51
360.0
0
LINE
8
holes
10
656
20
1250
11
656
21
1250
0
ARC
8
holes
10
650
20
1250
40
6.0
50
0.0
51
360.0
0
LINE
8
holes
10
756
20
1250
11
756
21
1250
0
ARC
8
holes
10
750
20
1250
40
6.0
50
0.0
51
360.0
0
LINE
8
holes
10
353.6
20
50
11
353.6
21
50
0
ARC
8
holes
10
350
20
50
40
3.6
50
0.0
51
360.0
0
LINE
8
holes
10
453.6
20
50
11
453.6
21
50
0
ARC
8
holes
10
450
20
50
40
3.6
50
0.0
51
360.0
0
LINE
8
holes
10
553.6
20
50
11
553.6
21
50
0
ARC
8
holes
10
550
20
50
40
3.6
50
0.0
51
360.0
0
LINE
8
holes
10
653.6
20
50
11
653.6
21
50
0
ARC
8
holes
10
650
20
50
40
3.6
50
0.0
51
360.0
0
LINE
8
holes
10
753.6
20
50
11
753.6
21
50
0
ARC
8
holes
10
750
20
50
40
3.6
50
0.0
51
360.0
0
LINE
8
holes
10
353.6
20
150
11
353.6
21
150
0
ARC
8
holes
10
350
20
150
40
3.6
50
0.0
51
360.0
0
LINE
8
holes
10
453.6
20
150
11
453.6
21
150
0
ARC
8
holes
10
450
20
150
40
3.6
50
0.0
51
360.0
0
LINE
8
holes
10
553.6
20
150
11
553.6
21
150
0
ARC
8
holes
10
550
20
150
40
3.6
50
0.0
51
360.0
0
LINE
8
holes
10
653.6
20
150
11
653.6
21
150
0
ARC
8
holes
10
650
20
150
40
3.6
50
0.0
51
360.0
0
LINE
8
holes
10
753.6
20
150
11
753.6
21
150
0
ARC
8
holes
10
750
20
150
40
3.6
50
0.0
51
360.0
0
LINE
8
holes
10
353.6
20
250
11
353.6
21
250
0
ARC
8
holes
10
350
20
250
40
3.6
50
0.0
51
360.0
0
LINE
8
holes
10
453.6
20
250
11
453.6
21
250
0
ARC
8
holes
10
450
20
250
40
3.6
50
0.0
51
360.0
0
LINE
8
holes
10
553.6
20
250
11
553.6
21
250
0
ARC
8
holes
10
550
20
250
40
3.6
50
0.0
51
360.0
0
LINE
8
holes
10
653.6
20
250
11
653.6
21
250
0
ARC
8
holes
10
650
20
250
40
3.6
50
0.0
51
360.0
0
LINE
8
holes
10
753.6
20
250
11
753.6
21
250
0
ARC
8
holes
10
750
20
250
40
3.6
50
0.0
51
360.0
0
LINE
8
holes
10
353.6
20
350
11
353.6
21
350
0
ARC
8
holes
10
350
20
350
40
3.6
50
0.0
51
360.0
0
LINE
8
holes
10
453.6
20
350
11
453.6
21
350
0
ARC
8
holes
10
450
20
350
40
3.6
50
0.0
51
360.0
0
LINE
8
holes
10
553.6
20
350
11
553.6
21
350
0
ARC
8
holes
10
550
20
350
40
3.6
50
0.0
51
360.0
0
LINE
8
holes
10
653.6
20
350
11
653.6
21
350
0
ARC
8
holes
10
650
20
350
40
3.6
50
0.0
51
360.0
0
LINE
8
holes
10
753.6
20
350
11
753.6
21
350
0
ARC
8
holes
10
750
20
350
40
3.6
50
0.0
51
360.0
0
LINE
8
holes
10
353.6
20
450
11
353.6
21
450
0
ARC
8
holes
10
350
20
450
40
3.6
50
0.0
51
360.0
0
LINE
8
holes
10
453.6
20
450
11
453.6
21
450
0
ARC
8
holes
10
450
20
450
40
3.6
50
0.0
51
360.0
0
LINE
8
holes
10
553.6
20
450
11
553.6
21
450
0
ARC
8
holes
10
550
20
450
40
3.6
50
0.0
51
360.0
0
LINE
8
holes
10
653.6
20
450
11
653.6
21
450
0
ARC
8
holes
10
650
20
450
40
3.6
50
0.0
51
360.0
0
LINE
8
holes
10
753.6
20
450
11
753.6
21
450
0
ARC
8
holes
10
750
20
450
40
3.6
50
0.0
51
360.0
0
LINE
8
holes
10
353.6
20
550
11
353.6
21
550
0
ARC
8
holes
10
350
20
550
40
3.6
50
0.0
51
360.0
0
LINE
8
holes
10
453.6
20
550
11
453.6
21
550
0
ARC
8
holes
10
450
20
550
40
3.6
50
0.0
51
360.0
0
LINE
8
holes
10
553.6
20
550
11
553.6
21
550
0
ARC
8
holes
10
550
20
550
40
3.6
50
0.0
51
360.0
0
LINE
8
holes
10
653.6
20
550
11
653.6
21
550
0
ARC
8
holes
10
650
20
550
40
3.6
50
0.0
51
360.0
0
LINE
8
holes
10
753.6
20
550
11
753.6
21
550
0
ARC
8
holes
10
750
20
550
40
3.6
50
0.0
51
360.0
0
LINE
8
holes
10
353.6
20
650
11
353.6
21
650
0
ARC
8
holes
10
350
20
650
40
3.6
50
0.0
51
360.0
0
LINE
8
holes
10
453.6
20
650
11
453.6
21
650
0
ARC
8
holes
10
450
20
650
40
3.6
50
0.0
51
360.0
0
LINE
8
holes
10
553.6
20
650
11
553.6
21
650
0
ARC
8
holes
10
550
20
650
40
3.6
50
0.0
51
360.0
0
LINE
8
holes
10
653.6
20
650
11
653.6
21
650
0
ARC
8
holes
10
650
20
650
40
3.6
50
0.0
51
360.0
0
LINE
8
holes
10
753.6
20
650
11
753.6
21
650
0
ARC
8
holes
10
750
20
650
40
3.6
50
0.0
51
360.0
0
LINE
8
holes
10
353.6
20
750
11
353.6
21
750
0
ARC
8
holes
10
350
20
750
40
3.6
50
0.0
51
360.0
0
LINE
8
holes
10
453.6
20
750
11
453.6
21
750
0
ARC
8
holes
10
450
20
750
40
3.6
50
0.0
51
360.0
0
LINE
8
holes
10
553.6
20
750
11
553.6
21
750
0
ARC
8
holes
10
550
20
750
40
3.6
50
0.0
51
360.0
0
LINE
8
holes
10
653.6
20
750
11
653.6
21
750
0
ARC
8
holes
10
650
20
750
40
3.6
50
0.0
51
360.0
0
LINE
8
holes
10
753.6
20
750
11
753.6
21
750
0
ARC
8
holes
10
750
20
750
40
3.6
50
0.0
51
360.0
0
LINE
8
holes
10
353.6
20
850
11
353.6
21
850
0
ARC
8
holes
10
350
20
850
40
3.6
50
0.0
51
360.0
0
LINE
8
holes
10
453.6
20
850
11
453.6
21
850
0
ARC
8
holes
10
450
20
850
40
3.6
50
0.0
51
360.0
0
LINE
8
holes
10
553.6
20
850
11
553.6
21
850
0
ARC
8
holes
10
550
20
850
40
3.6
50
0.0
51
360.0
0
LINE
8
holes
10
653.6
20
850
11
653.6
21
850
0
ARC
8
holes
10
650
20
850
40
3.6
50
0.0
51
360.0
0
LINE
8
holes
10
753.6
20
850
11
753.6
21
850
0
ARC
8
holes
10
750
20
850
40
3.6
50
0.0
51
360.0
0
LINE
8
holes
10
353.6
20
950
11
353.6
21
950
0
ARC
8
holes
10
350
20
950
40
3.6
50
0.0
51
360.0
0
LINE
8
holes
10
453.6
20
950
11
453.6
21
950
0
ARC
8
holes
10
450
20
950
40
3.6
50
0.0
51
360.0
0
LINE
8
holes
10
553.6
20
950
11
553.6
21
950
0
ARC
8
holes
10
550
20
950
40
3.6
50
0.0
51
360.0
0
LINE
8
holes
10
653.6
20
950
11
653.6
21
950
0
ARC
8
holes
10
650
20
950
40
3.6
50
0.0
51
360.0
0
LINE
8
holes
10
753.6
20
950
11
753.6
21
950
0
ARC
8
holes
10
750
20
950
40
3.6
50
0.0
51
360.0
0
LINE
8
holes
10
353.6
20
1050
11
353.6
21
1050
0
ARC
8
holes
10
350
20
1050
40
3.6
50
0.0
51
360.0
0
LINE
8
holes
10
453.6
20
1050
11
453.6
21
1050
0
ARC
8
holes
10
450
20
1050
40
3.6
50
0.0
51
360.0
0
LINE
8
holes
10
553.6
20
1050
11
553.6
21
1050
0
ARC
8
holes
10
550
20
1050
40
3.6
50
0.0
51
360.0
0
LINE
8
holes
10
653.6
20
1050
11
653.6
21
1050
0
ARC
8
holes
10
650
20
1050
40
3.6
50
0.0
51
360.0
0
LINE
8
holes
10
753.6
20
1050
11
753.6
21
1050
0
ARC
8
holes
10
750
20
1050
40
3.6
50
0.0
51
360.0
0
LINE
8
holes
10
353.6
20
1150
11
353.6
21
1150
0
ARC
8
holes
10
350
20
1150
40
3.6
50
0.0
51
360.0
0
LINE
8
holes
10
453.6
20
1150
11
453.6
21
1150
0
ARC
8
holes
10
450
20
1150
40
3.6
50
0.0
51
360.0
0
LINE
8
holes
10
553.6
20
1150
11
553.6
21
1150
0
ARC
8
holes
10
550
20
1150
40
3.6
50
0.0
51
360.0
0
LINE
8
holes
10
653.6
20
1150
11
653.6
21
1150
0
ARC
8
holes
10
650
20
1150
40
3.6
50
0.0
51
360.0
0
LINE
8
holes
10
753.6
20
1150
11
753.6
21
1150
0
ARC
8
holes
10
750
20
1150
40
3.6
50
0.0
51
360.0
0
LINE
8
holes
10
353.6
20
1250
11
353.6
21
1250
0
ARC
8
holes
10
350
20
1250
40
3.6
50
0.0
51
360.0
0
LINE
8
holes
10
453.6
20
1250
11
453.6
21
1250
0
ARC
8
holes
10
450
20
1250
40
3.6
50
0.0
51
360.0
0
LINE
8
holes
10
553.6
20
1250
11
553.6
21
1250
0
ARC
8
holes
10
550
20
1250
40
3.6
50
0.0
51
360.0
0
LINE
8
holes
10
653.6
20
1250
11
653.6
21
1250
0
ARC
8
holes
10
650
20
1250
40
3.6
50
0.0
51
360.0
0
LINE
8
holes
10
753.6
20
1250
11
753.6
21
1250
0
ARC
8
holes
10
750
20
1250
40
3.6
50
0.0
51
360.0
0
LINE
8
holes
10
53.6
20
50
11
53.6
21
50
0
ARC
8
holes
10
50
20
50
40
3.6
50
0.0
51
360.0
0
LINE
8
holes
10
53.6
20
150
11
53.6
21
150
0
ARC
8
holes
10
50
20
150
40
3.6
50
0.0
51
360.0
0
LINE
8
holes
10
53.6
20
250
11
53.6
21
250
0
ARC
8
holes
10
50
20
250
40
3.6
50
0.0
51
360.0
0
LINE
8
holes
10
53.6
20
350
11
53.6
21
350
0
ARC
8
holes
10
50
20
350
40
3.6
50
0.0
51
360.0
0
LINE
8
holes
10
53.6
20
450
11
53.6
21
450
0
ARC
8
holes
10
50
20
450
40
3.6
50
0.0
51
360.0
0
LINE
8
holes
10
53.6
20
550
11
53.6
21
550
0
ARC
8
holes
10
50
20
550
40
3.6
50
0.0
51
360.0
0
LINE
8
holes
10
53.6
20
650
11
53.6
21
650
0
ARC
8
holes
10
50
20
650
40
3.6
50
0.0
51
360.0
0
LINE
8
holes
10
53.6
20
750
11
53.6
21
750
0
ARC
8
holes
10
50
20
750
40
3.6
50
0.0
51
360.0
0
LINE
8
holes
10
53.6
20
850
11
53.6
21
850
0
ARC
8
holes
10
50
20
850
40
3.6
50
0.0
51
360.0
0
LINE
8
holes
10
53.6
20
950
11
53.6
21
950
0
ARC
8
holes
10
50
20
950
40
3.6
50
0.0
51
360.0
0
LINE
8
holes
10
53.6
20
1050
11
53.6
21
1050
0
ARC
8
holes
10
50
20
1050
40
3.6
50
0.0
51
360.0
0
LINE
8
holes
10
53.6
20
1150
11
53.6
21
1150
0
ARC
8
holes
10
50
20
1150
40
3.6
50
0.0
51
360.0
0
LINE
8
holes
10
53.6
20
1250
11
53.6
21
1250
0
ARC
8
holes
10
50
20
1250
40
3.6
50
0.0
51
360.0
0
LINE
8
holes
10
153.6
20
50
11
153.6
21
50
0
ARC
8
holes
10
150
20
50
40
3.6
50
0.0
51
360.0
0
LINE
8
holes
10
253.6
20
50
11
253.6
21
50
0
ARC
8
holes
10
250
20
50
40
3.6
50
0.0
51
360.0
0
LINE
8
holes
10
153.6
20
150
11
153.6
21
150
0
ARC
8
holes
10
150
20
150
40
3.6
50
0.0
51
360.0
0
LINE
8
holes
10
253.6
20
150
11
253.6
21
150
0
ARC
8
holes
10
250
20
150
40
3.6
50
0.0
51
360.0
0
LINE
8
holes
10
153.6
20
250
11
153.6
21
250
0
ARC
8
holes
10
150
20
250
40
3.6
50
0.0
51
360.0
0
LINE
8
holes
10
253.6
20
250
11
253.6
21
250
0
ARC
8
holes
10
250
20
250
40
3.6
50
0.0
51
360.0
0
LINE
8
holes
10
153.6
20
350
11
153.6
21
350
0
ARC
8
holes
10
150
20
350
40
3.6
50
0.0
51
360.0
0
LINE
8
holes
10
253.6
20
350
11
253.6
21
350
0
ARC
8
holes
10
250
20
350
40
3.6
50
0.0
51
360.0
0
LINE
8
holes
10
153.6
20
450
11
153.6
21
450
0
ARC
8
holes
10
150
20
450
40
3.6
50
0.0
51
360.0
0
LINE
8
holes
10
253.6
20
450
11
253.6
21
450
0
ARC
8
holes
10
250
20
450
40
3.6
50
0.0
51
360.0
0
LINE
8
holes
10
153.6
20
550
11
153.6
21
550
0
ARC
8
holes
10
150
20
550
40
3.6
50
0.0
51
360.0
0
LINE
8
holes
10
253.6
20
550
11
253.6
21
550
0
ARC
8
holes
10
250
20
550
40
3.6
50
0.0
51
360.0
0
LINE
8
holes
10
153.6
20
650
11
153.6
21
650
0
ARC
8
holes
10
150
20
650
40
3.6
50
0.0
51
360.0
0
LINE
8
holes
10
253.6
20
650
11
253.6
21
650
0
ARC
8
holes
10
250
20
650
40
3.6
50
0.0
51
360.0
0
LINE
8
holes
10
153.6
20
750
11
153.6
21
750
0
ARC
8
holes
10
150
20
750
40
3.6
50
0.0
51
360.0
0
LINE
8
holes
10
253.6
20
750
11
253.6
21
750
0
ARC
8
holes
10
250
20
750
40
3.6
50
0.0
51
360.0
0
LINE
8
holes
10
153.6
20
850
11
153.6
21
850
0
ARC
8
holes
10
150
20
850
40
3.6
50
0.0
51
360.0
0
LINE
8
holes
10
253.6
20
850
11
253.6
21
850
0
ARC
8
holes
10
250
20
850
40
3.6
50
0.0
51
360.0
0
LINE
8
holes
10
153.6
20
950
11
153.6
21
950
0
ARC
8
holes
10
150
20
950
40
3.6
50
0.0
51
360.0
0
LINE
8
holes
10
253.6
20
950
11
253.6
21
950
0
ARC
8
holes
10
250
20
950
40
3.6
50
0.0
51
360.0
0
LINE
8
holes
10
153.6
20
1050
11
153.6
21
1050
0
ARC
8
holes
10
150
20
1050
40
3.6
50
0.0
51
360.0
0
LINE
8
holes
10
253.6
20
1050
11
253.6
21
1050
0
ARC
8
holes
10
250
20
1050
40
3.6
50
0.0
51
360.0
0
LINE
8
holes
10
153.6
20
1150
11
153.6
21
1150
0
ARC
8
holes
10
150
20
1150
40
3.6
50
0.0
51
360.0
0
LINE
8
holes
10
253.6
20
1150
11
253.6
21
1150
0
ARC
8
holes
10
250
20
1150
40
3.6
50
0.0
51
360.0
0
LINE
8
holes
10
153.6
20
1250
11
153.6
21
1250
0
ARC
8
holes
10
150
20
1250
40
3.6
50
0.0
51
360.0
0
LINE
8
holes
10
253.6
20
1250
11
253.6
21
1250
0
ARC
8
holes
10
250
20
1250
40
3.6
50
0.0
51
360.0
0
LINE
8
holes-small
10
353.6
20
50
11
353.6
21
50
0
ARC
8
holes-small
10
350
20
50
40
3.6
50
0.0
51
360.0
0
LINE
8
holes-small
10
453.6
20
50
11
453.6
21
50
0
ARC
8
holes-small
10
450
20
50
40
3.6
50
0.0
51
360.0
0
LINE
8
holes-small
10
553.6
20
50
11
553.6
21
50
0
ARC
8
holes-small
10
550
20
50
40
3.6
50
0.0
51
360.0
0
LINE
8
holes-small
10
653.6
20
50
11
653.6
21
50
0
ARC
8
holes-small
10
650
20
50
40
3.6
50
0.0
51
360.0
0
LINE
8
holes-small
10
753.6
20
50
11
753.6
21
50
0
ARC
8
holes-small
10
750
20
50
40
3.6
50
0.0
51
360.0
0
LINE
8
holes-small
10
353.6
20
150
11
353.6
21
150
0
ARC
8
holes-small
10
350
20
150
40
3.6
50
0.0
51
360.0
0
LINE
8
holes-small
10
453.6
20
150
11
453.6
21
150
0
ARC
8
holes-small
10
450
20
150
40
3.6
50
0.0
51
360.0
0
LINE
8
holes-small
10
553.6
20
150
11
553.6
21
150
0
ARC
8
holes-small
10
550
20
150
40
3.6
50
0.0
51
360.0
0
LINE
8
holes-small
10
653.6
20
150
11
653.6
21
150
0
ARC
8
holes-small
10
650
20
150
40
3.6
50
0.0
51
360.0
0
LINE
8
holes-small
10
753.6
20
150
11
753.6
21
150
0
ARC
8
holes-small
10
750
20
150
40
3.6
50
0.0
51
360.0
0
LINE
8
holes-small
10
353.6
20
250
11
353.6
21
250
0
ARC
8
holes-small
10
350
20
250
40
3.6
50
0.0
51
360.0
0
LINE
8
holes-small
10
453.6
20
250
11
453.6
21
250
0
ARC
8
holes-small
10
450
20
250
40
3.6
50
0.0
51
360.0
0
LINE
8
holes-small
10
553.6
20
250
11
553.6
21
250
0
ARC
8
holes-small
10
550
20
250
40
3.6
50
0.0
51
360.0
0
LINE
8
holes-small
10
653.6
20
250
11
653.6
21
250
0
ARC
8
holes-small
10
650
20
250
40
3.6
50
0.0
51
360.0
0
LINE
8
holes-small
10
753.6
20
250
11
753.6
21
250
0
ARC
8
holes-small
10
750
20
250
40
3.6
50
0.0
51
360.0
0
LINE
8
holes-small
10
353.6
20
350
11
353.6
21
350
0
ARC
8
holes-small
10
350
20
350
40
3.6
50
0.0
51
360.0
0
LINE
8
holes-small
10
453.6
20
350
11
453.6
21
350
0
ARC
8
holes-small
10
450
20
350
40
3.6
50
0.0
51
360.0
0
LINE
8
holes-small
10
553.6
20
350
11
553.6
21
350
0
ARC
8
holes-small
10
550
20
350
40
3.6
50
0.0
51
360.0
0
LINE
8
holes-small
10
653.6
20
350
11
653.6
21
350
0
ARC
8
holes-small
10
650
20
350
40
3.6
50
0.0
51
360.0
0
LINE
8
holes-small
10
753.6
20
350
11
753.6
21
350
0
ARC
8
holes-small
10
750
20
350
40
3.6
50
0.0
51
360.0
0
LINE
8
holes-small
10
353.6
20
450
11
353.6
21
450
0
ARC
8
holes-small
10
350
20
450
40
3.6
50
0.0
51
360.0
0
LINE
8
holes-small
10
453.6
20
450
11
453.6
21
450
0
ARC
8
holes-small
10
450
20
450
40
3.6
50
0.0
51
360.0
0
LINE
8
holes-small
10
553.6
20
450
11
553.6
21
450
0
ARC
8
holes-small
10
550
20
450
40
3.6
50
0.0
51
360.0
0
LINE
8
holes-small
10
653.6
20
450
11
653.6
21
450
0
ARC
8
holes-small
10
650
20
450
40
3.6
50
0.0
51
360.0
0
LINE
8
holes-small
10
753.6
20
450
11
753.6
21
450
0
ARC
8
holes-small
10
750
20
450
40
3.6
50
0.0
51
360.0
0
LINE
8
holes-small
10
353.6
20
550
11
353.6
21
550
0
ARC
8
holes-small
10
350
20
550
40
3.6
50
0.0
51
360.0
0
LINE
8
holes-small
10
453.6
20
550
11
453.6
21
550
0
ARC
8
holes-small
10
450
20
550
40
3.6
50
0.0
51
360.0
0
LINE
8
holes-small
10
553.6
20
550
11
553.6
21
550
0
ARC
8
holes-small
10
550
20
550
40
3.6
50
0.0
51
360.0
0
LINE
8
holes-small
10
653.6
20
550
11
653.6
21
550
0
ARC
8
holes-small
10
650
20
550
40
3.6
50
0.0
51
360.0
0
LINE
8
holes-small
10
753.6
20
550
11
753.6
21
550
0
ARC
8
holes-small
10
750
20
550
40
3.6
50
0.0
51
360.0
0
LINE
8
holes-small
10
353.6
20
650
11
353.6
21
650
0
ARC
8
holes-small
10
350
20
650
40
3.6
50
0.0
51
360.0
0
LINE
8
holes-small
10
453.6
20
650
11
453.6
21
650
0
ARC
8
holes-small
10
450
20
650
40
3.6
50
0.0
51
360.0
0
LINE
8
holes-small
10
553.6
20
650
11
553.6
21
650
0
ARC
8
holes-small
10
550
20
650
40
3.6
50
0.0
51
360.0
0
LINE
8
holes-small
10
653.6
20
650
11
653.6
21
650
0
ARC
8
holes-small
10
650
20
650
40
3.6
50
0.0
51
360.0
0
LINE
8
holes-small
10
753.6
20
650
11
753.6
21
650
0
ARC
8
holes-small
10
750
20
650
40
3.6
50
0.0
51
360.0
0
LINE
8
holes-small
10
353.6
20
750
11
353.6
21
750
0
ARC
8
holes-small
10
350
20
750
40
3.6
50
0.0
51
360.0
0
LINE
8
holes-small
10
453.6
20
750
11
453.6
21
750
0
ARC
8
holes-small
10
450
20
750
40
3.6
50
0.0
51
360.0
0
LINE
8
holes-small
10
553.6
20
750
11
553.6
21
750
0
ARC
8
holes-small
10
550
20
750
40
3.6
50
0.0
51
360.0
0
LINE
8
holes-small
10
653.6
20
750
11
653.6
21
750
0
ARC
8
holes-small
10
650
20
750
40
3.6
50
0.0
51
360.0
0
LINE
8
holes-small
10
753.6
20
750
11
753.6
21
750
0
ARC
8
holes-small
10
750
20
750
40
3.6
50
0.0
51
360.0
0
LINE
8
holes-small
10
353.6
20
850
11
353.6
21
850
0
ARC
8
holes-small
10
350
20
850
40
3.6
50
0.0
51
360.0
0
LINE
8
holes-small
10
453.6
20
850
11
453.6
21
850
0
ARC
8
holes-small
10
450
20
850
40
3.6
50
0.0
51
360.0
0
LINE
8
holes-small
10
553.6
20
850
11
553.6
21
850
0
ARC
8
holes-small
10
550
20
850
40
3.6
50
0.0
51
360.0
0
LINE
8
holes-small
10
653.6
20
850
11
653.6
21
850
0
ARC
8
holes-small
10
650
20
850
40
3.6
50
0.0
51
360.0
0
LINE
8
holes-small
10
753.6
20
850
11
753.6
21
850
0
ARC
8
holes-small
10
750
20
850
40
3.6
50
0.0
51
360.0
0
LINE
8
holes-small
10
353.6
20
950
11
353.6
21
950
0
ARC
8
holes-small
10
350
20
950
40
3.6
50
0.0
51
360.0
0
LINE
8
holes-small
10
453.6
20
950
11
453.6
21
950
0
ARC
8
holes-small
10
450
20
950
40
3.6
50
0.0
51
360.0
0
LINE
8
holes-small
10
553.6
20
950
11
553.6
21
950
0
ARC
8
holes-small
10
550
20
950
40
3.6
50
0.0
51
360.0
0
LINE
8
holes-small
10
653.6
20
950
11
653.6
21
950
0
ARC
8
holes-small
10
650
20
950
40
3.6
50
0.0
51
360.0
0
LINE
8
holes-small
10
753.6
20
950
11
753.6
21
950
0
ARC
8
holes-small
10
750
20
950
40
3.6
50
0.0
51
360.0
0
LINE
8
holes-small
10
353.6
20
1050
11
353.6
21
1050
0
ARC
8
holes-small
10
350
20
1050
40
3.6
50
0.0
51
360.0
0
LINE
8
holes-small
10
453.6
20
1050
11
453.6
21
1050
0
ARC
8
holes-small
10
450
20
1050
40
3.6
50
0.0
51
360.0
0
LINE
8
holes-small
10
553.6
20
1050
11
553.6
21
1050
0
ARC
8
holes-small
10
550
20
1050
40
3.6
50
0.0
51
360.0
0
LINE
8
holes-small
10
653.6
20
1050
11
653.6
21
1050
0
ARC
8
holes-small
10
650
20
1050
40
3.6
50
0.0
51
360.0
0
LINE
8
holes-small
10
753.6
20
1050
11
753.6
21
1050
0
ARC
8
holes-small
10
750
20
1050
40
3.6
50
0.0
51
360.0
0
LINE
8
holes-small
10
353.6
20
1150
11
353.6
21
1150
0
ARC
8
holes-small
10
350
20
1150
40
3.6
50
0.0
51
360.0
0
LINE
8
holes-small
10
453.6
20
1150
11
453.6
21
1150
0
ARC
8
holes-small
10
450
20
1150
40
3.6
50
0.0
51
360.0
0
LINE
8
holes-small
10
553.6
20
1150
11
553.6
21
1150
0
ARC
8
holes-small
10
550
20
1150
40
3.6
50
0.0
51
360.0
0
LINE
8
holes-small
10
653.6
20
1150
11
653.6
21
1150
0
ARC
8
holes-small
10
650
20
1150
40
3.6
50
0.0
51
360.0
0
LINE
8
holes-small
10
753.6
20
1150
11
753.6
21
1150
0
ARC
8
holes-small
10
750
20
1150
40
3.6
50
0.0
51
360.0
0
LINE
8
holes-small
10
353.6
20
1250
11
353.6
21
1250
0
ARC
8
holes-small
10
350
20
1250
40
3.6
50
0.0
51
360.0
0
LINE
8
holes-small
10
453.6
20
1250
11
453.6
21
1250
0
ARC
8
holes-small
10
450
20
1250
40
3.6
50
0.0
51
360.0
0
LINE
8
holes-small
10
553.6
20
1250
11
553.6
21
1250
0
ARC
8
holes-small
10
550
20
1250
40
3.6
50
0.0
51
360.0
0
LINE
8
holes-small
10
653.6
20
1250
11
653.6
21
1250
0
ARC
8
holes-small
10
650
20
1250
40
3.6
50
0.0
51
360.0
0
LINE
8
holes-small
10
753.6
20
1250
11
753.6
21
1250
0
ARC
8
holes-small
10
750
20
1250
40
3.6
50
0.0
51
360.0
0
LINE
8
holes-small
10
53.6
20
50
11
53.6
21
50
0
ARC
8
holes-small
10
50
20
50
40
3.6
50
0.0
51
360.0
0
LINE
8
holes-small
10
53.6
20
150
11
53.6
21
150
0
ARC
8
holes-small
10
50
20
150
40
3.6
50
0.0
51
360.0
0
LINE
8
holes-small
10
53.6
20
250
11
53.6
21
250
0
ARC
8
holes-small
10
50
20
250
40
3.6
50
0.0
51
360.0
0
LINE
8
holes-small
10
53.6
20
350
11
53.6
21
350
0
ARC
8
holes-small
10
50
20
350
40
3.6
50
0.0
51
360.0
0
LINE
8
holes-small
10
53.6
20
450
11
53.6
21
450
0
ARC
8
holes-small
10
50
20
450
40
3.6
50
0.0
51
360.0
0
LINE
8
holes-small
10
53.6
20
550
11
53.6
21
550
0
ARC
8
holes-small
10
50
20
550
40
3.6
50
0.0
51
360.0
0
LINE
8
holes-small
10
53.6
20
650
11
53.6
21
650
0
ARC
8
holes-small
10
50
20
650
40
3.6
50
0.0
51
360.0
0
LINE
8
holes-small
10
53.6
20
750
11
53.6
21
750
0
ARC
8
holes-small
10
50
20
750
40
3.6
50
0.0
51
360.0
0
LINE
8
holes-small
10
53.6
20
850
11
53.6
21
850
0
ARC
8
holes-small
10
50
20
850
40
3.6
50
0.0
51
360.0
0
LINE
8
holes-small
10
53.6
20
950
11
53.6
21
950
0
ARC
8
holes-small
10
50
20
950
40
3.6
50
0.0
51
360.0
0
LINE
8
holes-small
10
53.6
20
1050
11
53.6
21
1050
0
ARC
8
holes-small
10
50
20
1050
40
3.6
50
0.0
51
360.0
0
LINE
8
holes-small
10
53.6
20
1150
11
53.6
21
1150
0
ARC
8
holes-small
10
50
20
1150
40
3.6
50
0.0
51
360.0
0
LINE
8
holes-small
10
53.6
20
1250
11
53.6
21
1250
0
ARC
8
holes-small
10
50
20
1250
40
3.6
50
0.0
51
360.0
0
LINE
8
holes-small
10
153.6
20
50
11
153.6
21
50
0
ARC
8
holes-small
10
150
20
50
40
3.6
50
0.0
51
360.0
0
LINE
8
holes-small
10
253.6
20
50
11
253.6
21
50
0
ARC
8
holes-small
10
250
20
50
40
3.6
50
0.0
51
360.0
0
LINE
8
holes-small
10
153.6
20
150
11
153.6
21
150
0
ARC
8
holes-small
10
150
20
150
40
3.6
50
0.0
51
360.0
0
LINE
8
holes-small
10
253.6
20
150
11
253.6
21
150
0
ARC
8
holes-small
10
250
20
150
40
3.6
50
0.0
51
360.0
0
LINE
8
holes-small
10
153.6
20
250
11
153.6
21
250
0
ARC
8
holes-small
10
150
20
250
40
3.6
50
0.0
51
360.0
0
LINE
8
holes-small
10
253.6
20
250
11
253.6
21
250
0
ARC
8
holes-small
10
250
20
250
40
3.6
50
0.0
51
360.0
0
LINE
8
holes-small
10
153.6
20
350
11
153.6
21
350
0
ARC
8
holes-small
10
150
20
350
40
3.6
50
0.0
51
360.0
0
LINE
8
holes-small
10
253.6
20
350
11
253.6
21
350
0
ARC
8
holes-small
10
250
20
350
40
3.6
50
0.0
51
360.0
0
LINE
8
holes-small
10
153.6
20
450
11
153.6
21
450
0
ARC
8
holes-small
10
150
20
450
40
3.6
50
0.0
51
360.0
0
LINE
8
holes-small
10
253.6
20
450
11
253.6
21
450
0
ARC
8
holes-small
10
250
20
450
40
3.6
50
0.0
51
360.0
0
LINE
8
holes-small
10
153.6
20
550
11
153.6
21
550
0
ARC
8
holes-small
10
150
20
550
40
3.6
50
0.0
51
360.0
0
LINE
8
holes-small
10
253.6
20
550
11
253.6
21
550
0
ARC
8
holes-small
10
250
20
550
40
3.6
50
0.0
51
360.0
0
LINE
8
holes-small
10
153.6
20
650
11
153.6
21
650
0
ARC
8
holes-small
10
150
20
650
40
3.6
50
0.0
51
360.0
0
LINE
8
holes-small
10
253.6
20
650
11
253.6
21
650
0
ARC
8
holes-small
10
250
20
650
40
3.6
50
0.0
51
360.0
0
LINE
8
holes-small
10
153.6
20
750
11
153.6
21
750
0
ARC
8
holes-small
10
150
20
750
40
3.6
50
0.0
51
360.0
0
LINE
8
holes-small
10
253.6
20
750
11
253.6
21
750
0
ARC
8
holes-small
10
250
20
750
40
3.6
50
0.0
51
360.0
0
LINE
8
holes-small
10
153.6
20
850
11
153.6
21
850
0
ARC
8
holes-small
10
150
20
850
40
3.6
50
0.0
51
360.0
0
LINE
8
holes-small
10
253.6
20
850
11
253.6
21
850
0
ARC
8
holes-small
10
250
20
850
40
3.6
50
0.0
51
360.0
0
LINE
8
holes-small
10
153.6
20
950
11
153.6
21
950
0
ARC
8
holes-small
10
150
20
950
40
3.6
50
0.0
51
360.0
0
LINE
8
holes-small
10
253.6
20
950
11
253.6
21
950
0
ARC
8
holes-small
10
250
20
950
40
3.6
50
0.0
51
360.0
0
LINE
8
holes-small
10
153.6
20
1050
11
153.6
21
1050
0
ARC
8
holes-small
10
150
20
1050
40
3.6
50
0.0
51
360.0
0
LINE
8
holes-small
10
253.6
20
1050
11
253.6
21
1050
0
ARC
8
holes-small
10
250
20
1050
40
3.6
50
0.0
51
360.0
0
LINE
8
holes-small
10
153.6
20
1150
11
153.6
21
1150
0
ARC
8
holes-small
10
150
20
1150
40
3.6
50
0.0
51
360.0
0
LINE
8
holes-small
10
253.6
20
1150
11
253.6
21
1150
0
ARC
8
holes-small
10
250
20
1150
40
3.6
50
0.0
51
360.0
0
LINE
8
holes-small
10
153.6
20
1250
11
153.6
21
1250
0
ARC
8
holes-small
10
150
20
1250
40
3.6
50
0.0
51
360.0
0
LINE
8
holes-small
10
253.6
20
1250
11
253.6
21
1250
0
ARC
8
holes-small
10
250
20
1250
40
3.6
50
0.0
51
360.0
0
LINE
8
0
10
0
20
0
11
0
21
0
0
LINE
8
0
10
0
20
0
11
0
21
1250
0
LINE
8
0
10
100
20
0
11
100
21
0
0
LINE
8
0
10
100
20
0
11
100
21
1250
0
LINE
8
0
10
200
20
0
11
200
21
0
0
LINE
8
0
10
200
20
0
11
200
21
1250
0
LINE
8
0
10
300
20
0
11
300
21
0
0
LINE
8
0
10
300
20
0
11
300
21
1250
0
LINE
8
0
10
400
20
0
11
400
21
0
0
LINE
8
0
10
400
20
0
11
400
21
1250
0
LINE
8
0
10
500
20
0
11
500
21
0
0
LINE
8
0
10
500
20
0
11
500
21
1250
0
LINE
8
0
10
600
20
0
11
600
21
0
0
LINE
8
0
10
600
20
0
11
600
21
1250
0
LINE
8
0
10
700
20
0
11
700
21
0
0
LINE
8
0
10
700
20
0
11
700
21
1250
0
LINE
8
0
10
800
20
0
11
800
21
0
0
LINE
8
0
10
800
20
0
11
800
21
1250
0
LINE
8
holes-big
10
56
20
50
11
56
21
50
0
ARC
8
holes-big
10
50
20
50
40
6.0
50
0.0
51
360.0
0
LINE
8
holes-big
10
156
20
50
11
156
21
50
0
ARC
8
holes-big
10
150
20
50
40
6.0
50
0.0
51
360.0
0
LINE
8
holes-big
10
256
20
50
11
256
21
50
0
ARC
8
holes-big
10
250
20
50
40
6.0
50
0.0
51
360.0
0
LINE
8
holes-big
10
356
20
50
11
356
21
50
0
ARC
8
holes-big
10
350
20
50
40
6.0
50
0.0
51
360.0
0
LINE
8
holes-big
10
456
20
50
11
456
21
50
0
ARC
8
holes-big
10
450
20
50
40
6.0
50
0.0
51
360.0
0
LINE
8
holes-big
10
556
20
50
11
556
21
50
0
ARC
8
holes-big
10
550
20
50
40
6.0
50
0.0
51
360.0
0
LINE
8
holes-big
10
656
20
50
11
656
21
50
0
ARC
8
holes-big
10
650
20
50
40
6.0
50
0.0
51
360.0
0
LINE
8
holes-big
10
756
20
50
11
756
21
50
0
ARC
8
holes-big
10
750
20
50
40
6.0
50
0.0
51
360.0
0
LINE
8
holes-big
10
56
20
150
11
56
21
150
0
ARC
8
holes-big
10
50
20
150
40
6.0
50
0.0
51
360.0
0
LINE
8
holes-big
10
156
20
150
11
156
21
150
0
ARC
8
holes-big
10
150
20
150
40
6.0
50
0.0
51
360.0
0
LINE
8
holes-big
10
256
20
150
11
256
21
150
0
ARC
8
holes-big
10
250
20
150
40
6.0
50
0.0
51
360.0
0
LINE
8
holes-big
10
356
20
150
11
356
21
150
0
ARC
8
holes-big
10
350
20
150
40
6.0
50
0.0
51
360.0
0
LINE
8
holes-big
10
456
20
150
11
456
21
150
0
ARC
8
holes-big
10
450
20
150
40
6.0
50
0.0
51
360.0
0
LINE
8
holes-big
10
556
20
150
11
556
21
150
0
ARC
8
holes-big
10
550
20
150
40
6.0
50
0.0
51
360.0
0
LINE
8
holes-big
10
656
20
150
11
656
21
150
0
ARC
8
holes-big
10
650
20
150
40
6.0
50
0.0
51
360.0
0
LINE
8
holes-big
10
756
20
150
11
756
21
150
0
ARC
8
holes-big
10
750
20
150
40
6.0
50
0.0
51
360.0
0
LINE
8
holes-big
10
56
20
250
11
56
21
250
0
ARC
8
holes-big
10
50
20
250
40
6.0
50
0.0
51
360.0
0
LINE
8
holes-big
10
156
20
250
11
156
21
250
0
ARC
8
holes-big
10
150
20
250
40
6.0
50
0.0
51
360.0
0
LINE
8
holes-big
10
256
20
250
11
256
21
250
0
ARC
8
holes-big
10
250
20
250
40
6.0
50
0.0
51
360.0
0
LINE
8
holes-big
10
356
20
250
11
356
21
250
0
ARC
8
holes-big
10
350
20
250
40
6.0
50
0.0
51
360.0
0
LINE
8
holes-big
10
456
20
250
11
456
21
250
0
ARC
8
holes-big
10
450
20
250
40
6.0
50
0.0
51
360.0
0
LINE
8
holes-big
10
556
20
250
11
556
21
250
0
ARC
8
holes-big
10
550
20
250
40
6.0
50
0.0
51
360.0
0
LINE
8
holes-big
10
656
20
250
11
656
21
250
0
ARC
8
holes-big
10
650
20
250
40
6.0
50
0.0
51
360.0
0
LINE
8
holes-big
10
756
20
250
11
756
21
250
0
ARC
8
holes-big
10
750
20
250
40
6.0
50
0.0
51
360.0
0
LINE
8
holes-big
10
56
20
350
11
56
21
350
0
ARC
8
holes-big
10
50
20
350
40
6.0
50
0.0
51
360.0
0
LINE
8
holes-big
10
156
20
350
11
156
21
350
0
ARC
8
holes-big
10
150
20
350
40
6.0
50
0.0
51
360.0
0
LINE
8
holes-big
10
256
20
350
11
256
21
350
0
ARC
8
holes-big
10
250
20
350
40
6.0
50
0.0
51
360.0
0
LINE
8
holes-big
10
356
20
350
11
356
21
350
0
ARC
8
holes-big
10
350
20
350
40
6.0
50
0.0
51
360.0
0
LINE
8
holes-big
10
456
20
350
11
456
21
350
0
ARC
8
holes-big
10
450
20
350
40
6.0
50
0.0
51
360.0
0
LINE
8
holes-big
10
556
20
350
11
556
21
350
0
ARC
8
holes-big
10
550
20
350
40
6.0
50
0.0
51
360.0
0
LINE
8
holes-big
10
656
20
350
11
656
21
350
0
ARC
8
holes-big
10
650
20
350
40
6.0
50
0.0
51
360.0
0
LINE
8
holes-big
10
756
20
350
11
756
21
350
0
ARC
8
holes-big
10
750
20
350
40
6.0
50
0.0
51
360.0
0
LINE
8
holes-big
10
56
20
450
11
56
21
450
0
ARC
8
holes-big
10
50
20
450
40
6.0
50
0.0
51
360.0
0
LINE
8
holes-big
10
156
20
450
11
156
21
450
0
ARC
8
holes-big
10
150
20
450
40
6.0
50
0.0
51
360.0
0
LINE
8
holes-big
10
256
20
450
11
256
21
450
0
ARC
8
holes-big
10
250
20
450
40
6.0
50
0.0
51
360.0
0
LINE
8
holes-big
10
356
20
450
11
356
21
450
0
ARC
8
holes-big
10
350
20
450
40
6.0
50
0.0
51
360.0
0
LINE
8
holes-big
10
456
20
450
11
456
21
450
0
ARC
8
holes-big
10
450
20
450
40
6.0
50
0.0
51
360.0
0
LINE
8
holes-big
10
556
20
450
11
556
21
450
0
ARC
8
holes-big
10
550
20
450
40
6.0
50
0.0
51
360.0
0
LINE
8
holes-big
10
656
20
450
11
656
21
450
0
ARC
8
holes-big
10
650
20
450
40
6.0
50
0.0
51
360.0
0
LINE
8
holes-big
10
756
20
450
11
756
21
450
0
ARC
8
holes-big
10
750
20
450
40
6.0
50
0.0
51
360.0
0
LINE
8
holes-big
10
56
20
550
11
56
21
550
0
ARC
8
holes-big
10
50
20
550
40
6.0
50
0.0
51
360.0
0
LINE
8
holes-big
10
156
20
550
11
156
21
550
0
ARC
8
holes-big
10
150
20
550
40
6.0
50
0.0
51
360.0
0
LINE
8
holes-big
10
256
20
550
11
256
21
550
0
ARC
8
holes-big
10
250
20
550
40
6.0
50
0.0
51
360.0
0
LINE
8
holes-big
10
356
20
550
11
356
21
550
0
ARC
8
holes-big
10
350
20
550
40
6.0
50
0.0
51
360.0
0
LINE
8
holes-big
10
456
20
550
11
456
21
550
0
ARC
8
holes-big
10
450
20
550
40
6.0
50
0.0
51
360.0
0
LINE
8
holes-big
10
556
20
550
11
556
21
550
0
ARC
8
holes-big
10
550
20
550
40
6.0
50
0.0
51
360.0
0
LINE
8
holes-big
10
656
20
550
11
656
21
550
0
ARC
8
holes-big
10
650
20
550
40
6.0
50
0.0
51
360.0
0
LINE
8
holes-big
10
756
20
550
11
756
21
550
0
ARC
8
holes-big
10
750
20
550
40
6.0
50
0.0
51
360.0
0
LINE
8
holes-big
10
56
20
650
11
56
21
650
0
ARC
8
holes-big
10
50
20
650
40
6.0
50
0.0
51
360.0
0
LINE
8
holes-big
10
156
20
650
11
156
21
650
0
ARC
8
holes-big
10
150
20
650
40
6.0
50
0.0
51
360.0
0
LINE
8
holes-big
10
256
20
650
11
256
21
650
0
ARC
8
holes-big
10
250
20
650
40
6.0
50
0.0
51
360.0
0
LINE
8
holes-big
10
356
20
650
11
356
21
650
0
ARC
8
holes-big
10
350
20
650
40
6.0
50
0.0
51
360.0
0
LINE
8
holes-big
10
456
20
650
11
456
21
650
0
ARC
8
holes-big
10
450
20
650
40
6.0
50
0.0
51
360.0
0
LINE
8
holes-big
10
556
20
650
11
556
21
650
0
ARC
8
holes-big
10
550
20
650
40
6.0
50
0.0
51
360.0
0
LINE
8
holes-big
10
656
20
650
11
656
21
650
0
ARC
8
holes-big
10
650
20
650
40
6.0
50
0.0
51
360.0
0
LINE
8
holes-big
10
756
20
650
11
756
21
650
0
ARC
8
holes-big
10
750
20
650
40
6.0
50
0.0
51
360.0
0
LINE
8
holes-big
10
56
20
750
11
56
21
750
0
ARC
8
holes-big
10
50
20
750
40
6.0
50
0.0
51
360.0
0
LINE
8
holes-big
10
156
20
750
11
156
21
750
0
ARC
8
holes-big
10
150
20
750
40
6.0
50
0.0
51
360.0
0
LINE
8
holes-big
10
256
20
750
11
256
21
750
0
ARC
8
holes-big
10
250
20
750
40
6.0
50
0.0
51
360.0
0
LINE
8
holes-big
10
356
20
750
11
356
21
750
0
ARC
8
holes-big
10
350
20
750
40
6.0
50
0.0
51
360.0
0
LINE
8
holes-big
10
456
20
750
11
456
21
750
0
ARC
8
holes-big
10
450
20
750
40
6.0
50
0.0
51
360.0
0
LINE
8
holes-big
10
556
20
750
11
556
21
750
0
ARC
8
holes-big
10
550
20
750
40
6.0
50
0.0
51
360.0
0
LINE
8
holes-big
10
656
20
750
11
656
21
750
0
ARC
8
holes-big
10
650
20
750
40
6.0
50
0.0
51
360.0
0
LINE
8
holes-big
10
756
20
750
11
756
21
750
0
ARC
8
holes-big
10
750
20
750
40
6.0
50
0.0
51
360.0
0
LINE
8
holes-big
10
56
20
850
11
56
21
850
0
ARC
8
holes-big
10
50
20
850
40
6.0
50
0.0
51
360.0
0
LINE
8
holes-big
10
156
20
850
11
156
21
850
0
ARC
8
holes-big
10
150
20
850
40
6.0
50
0.0
51
360.0
0
LINE
8
holes-big
10
256
20
850
11
256
21
850
0
ARC
8
holes-big
10
250
20
850
40
6.0
50
0.0
51
360.0
0
LINE
8
holes-big
10
356
20
850
11
356
21
850
0
ARC
8
holes-big
10
350
20
850
40
6.0
50
0.0
51
360.0
0
LINE
8
holes-big
10
456
20
850
11
456
21
850
0
ARC
8
holes-big
10
450
20
850
40
6.0
50
0.0
51
360.0
0
LINE
8
holes-big
10
556
20
850
11
556
21
850
0
ARC
8
holes-big
10
550
20
850
40
6.0
50
0.0
51
360.0
0
LINE
8
holes-big
10
656
20
850
11
656
21
850
0
ARC
8
holes-big
10
650
20
850
40
6.0
50
0.0
51
360.0
0
LINE
8
holes-big
10
756
20
850
11
756
21
850
0
ARC
8
holes-big
10
750
20
850
40
6.0
50
0.0
51
360.0
0
LINE
8
holes-big
10
56
20
950
11
56
21
950
0
ARC
8
holes-big
10
50
20
950
40
6.0
50
0.0
51
360.0
0
LINE
8
holes-big
10
156
20
950
11
156
21
950
0
ARC
8
holes-big
10
150
20
950
40
6.0
50
0.0
51
360.0
0
LINE
8
holes-big
10
256
20
950
11
256
21
950
0
ARC
8
holes-big
10
250
20
950
40
6.0
50
0.0
51
360.0
0
LINE
8
holes-big
10
356
20
950
11
356
21
950
0
ARC
8
holes-big
10
350
20
950
40
6.0
50
0.0
51
360.0
0
LINE
8
holes-big
10
456
20
950
11
456
21
950
0
ARC
8
holes-big
10
450
20
950
40
6.0
50
0.0
51
360.0
0
LINE
8
holes-big
10
556
20
950
11
556
21
950
0
ARC
8
holes-big
10
550
20
950
40
6.0
50
0.0
51
360.0
0
LINE
8
holes-big
10
656
20
950
11
656
21
950
0
ARC
8
holes-big
10
650
20
950
40
6.0
50
0.0
51
360.0
0
LINE
8
holes-big
10
756
20
950
11
756
21
950
0
ARC
8
holes-big
10
750
20
950
40
6.0
50
0.0
51
360.0
0
LINE
8
holes-big
10
56
20
1050
11
56
21
1050
0
ARC
8
holes-big
10
50
20
1050
40
6.0
50
0.0
51
360.0
0
LINE
8
holes-big
10
156
20
1050
11
156
21
1050
0
ARC
8
holes-big
10
150
20
1050
40
6.0
50
0.0
51
360.0
0
LINE
8
holes-big
10
256
20
1050
11
256
21
1050
0
ARC
8
holes-big
10
250
20
1050
40
6.0
50
0.0
51
360.0
0
LINE
8
holes-big
10
356
20
1050
11
356
21
1050
0
ARC
8
holes-big
10
350
20
1050
40
6.0
50
0.0
51
360.0
0
LINE
8
holes-big
10
456
20
1050
11
456
21
1050
0
ARC
8
holes-big
10
450
20
1050
40
6.0
50
0.0
51
360.0
0
LINE
8
holes-big
10
556
20
1050
11
556
21
1050
0
ARC
8
holes-big
10
550
20
1050
40
6.0
50
0.0
51
360.0
0
LINE
8
holes-big
10
656
20
1050
11
656
21
1050
0
ARC
8
holes-big
10
650
20
1050
40
6.0
50
0.0
51
360.0
0
LINE
8
holes-big
10
756
20
1050
11
756
21
1050
0
ARC
8
holes-big
10
750
20
1050
40
6.0
50
0.0
51
360.0
0
LINE
8
holes-big
10
56
20
1150
11
56
21
1150
0
ARC
8
holes-big
10
50
20
1150
40
6.0
50
0.0
51
360.0
0
LINE
8
holes-big
10
156
20
1150
11
156
21
1150
0
ARC
8
holes-big
10
150
20
1150
40
6.0
50
0.0
51
360.0
0
LINE
8
holes-big
10
256
20
1150
11
256
21
1150
0
ARC
8
holes-big
10
250
20
1150
40
6.0
50
0.0
51
360.0
0
LINE
8
holes-big
10
356
20
1150
11
356
21
1150
0
ARC
8
holes-big
10
350
20
1150
40
6.0
50
0.0
51
360.0
0
LINE
8
holes-big
10
456
20
1150
11
456
21
1150
0
ARC
8
holes-big
10
450
20
1150
40
6.0
50
0.0
51
360.0
0
LINE
8
holes-big
10
556
20
1150
11
556
21
1150
0
ARC
8
holes-big
10
550
20
1150
40
6.0
50
0.0
51
360.0
0
LINE
8
holes-big
10
656
20
1150
11
656
21
1150
0
ARC
8
holes-big
10
650
20
1150
40
6.0
50
0.0
51
360.0
0
LINE
8
holes-big
10
756
20
1150
11
756
21
1150
0
ARC
8
holes-big
10
750
20
1150
40
6.0
50
0.0
51
360.0
0
LINE
8
holes-big
10
56
20
1250
11
56
21
1250
0
ARC
8
holes-big
10
50
20
1250
40
6.0
50
0.0
51
360.0
0
LINE
8
holes-big
10
156
20
1250
11
156
21
1250
0
ARC
8
holes-big
10
150
20
1250
40
6.0
50
0.0
51
360.0
0
LINE
8
holes-big
10
256
20
1250
11
256
21
1250
0
ARC
8
holes-big
10
250
20
1250
40
6.0
50
0.0
51
360.0
0
LINE
8
holes-big
10
356
20
1250
11
356
21
1250
0
ARC
8
holes-big
10
350
20
1250
40
6.0
50
0.0
51
360.0
0
LINE
8
holes-big
10
456
20
1250
11
456
21
1250
0
ARC
8
holes-big
10
450
20
1250
40
6.0
50
0.0
51
360.0
0
LINE
8
holes-big
10
556
20
1250
11
556
21
1250
0
ARC
8
holes-big
10
550
20
1250
40
6.0
50
0.0
51
360.0
0
LINE
8
holes-big
10
656
20
1250
11
656
21
1250
0
ARC
8
holes-big
10
650
20
1250
40
6.0
50
0.0
51
360.0
0
LINE
8
holes-big
10
756
20
1250
11
756
21
1250
0
ARC
8
holes-big
10
750
20
1250
40
6.0
50
0.0
51
360.0
0
LINE
8
x-lines
10
0
20
0
11
0
21
0
0
LINE
8
x-lines
10
0
20
0
11
800
21
0
0
LINE
8
x-lines
10
0
20
100
11
0
21
100
0
LINE
8
x-lines
10
0
20
100
11
800
21
100
0
LINE
8
x-lines
10
0
20
200
11
0
21
200
0
LINE
8
x-lines
10
0
20
200
11
800
21
200
0
LINE
8
x-lines
10
0
20
300
11
0
21
300
0
LINE
8
x-lines
10
0
20
300
11
800
21
300
0
LINE
8
x-lines
10
0
20
400
11
0
21
400
0
LINE
8
x-lines
10
0
20
400
11
800
21
400
0
LINE
8
x-lines
10
0
20
500
11
0
21
500
0
LINE
8
x-lines
10
0
20
500
11
800
21
500
0
LINE
8
x-lines
10
0
20
600
11
0
21
600
0
LINE
8
x-lines
10
0
20
600
11
800
21
600
0
LINE
8
x-lines
10
0
20
700
11
0
21
700
0
LINE
8
x-lines
10
0
20
700
11
800
21
700
0
LINE
8
x-lines
10
0
20
800
11
0
21
800
0
LINE
8
x-lines
10
0
20
800
11
800
21
800
0
LINE
8
x-lines
10
0
20
900
11
0
21
900
0
LINE
8
x-lines
10
0
20
900
11
800
21
900
0
LINE
8
x-lines
10
0
20
1000
11
0
21
1000
0
LINE
8
x-lines
10
0
20
1000
11
800
21
1000
0
LINE
8
x-lines
10
0
20
1100
11
0
21
1100
0
LINE
8
x-lines
10
0
20
1100
11
800
21
1100
0
LINE
8
x-lines
10
0
20
1200
11
0
21
1200
0
LINE
8
x-lines
10
0
20
1200
11
800
21
1200
0
LINE
8
corner
10
0
20
0
11
0
21
0
0
LINE
8
corner
10
0
20
0
11
10
21
10
0
ENDSEC
0
EOF
