<?xml version="1.0"?>
<svg xmlns="http://www.w3.org/2000/svg" xmlns:lc="http://www.librecad.org" xmlns:xlink="http://www.w3.org/1999/xlink" width="753.6mm" height="1253.6mm" viewBox="0 0 753.6 1253.6">
    <g lc:layername="corner" lc:is_locked="false" lc:is_construction="false" fill="none" stroke="black" stroke-width="1">
        <line x1="0" y1="1253.6" x2="10" y2="1243.6"/>
    </g>
    <g lc:layername="holes-small" lc:is_locked="false" lc:is_construction="false" fill="none" stroke="black" stroke-width="1">
        <circle cx="50" cy="1203.6" r="3.6"/>
        <circle cx="150" cy="1203.6" r="3.6"/>
        <circle cx="250" cy="1203.6" r="3.6"/>
        <circle cx="350" cy="1203.6" r="3.6"/>
        <circle cx="450" cy="1203.6" r="3.6"/>
        <circle cx="550" cy="1203.6" r="3.6"/>
        <circle cx="650" cy="1203.6" r="3.6"/>
        <circle cx="750" cy="1203.6" r="3.6"/>
        <circle cx="50" cy="1103.6" r="3.6"/>
        <circle cx="150" cy="1103.6" r="3.6"/>
        <circle cx="250" cy="1103.6" r="3.6"/>
        <circle cx="350" cy="1103.6" r="3.6"/>
        <circle cx="450" cy="1103.6" r="3.6"/>
        <circle cx="550" cy="1103.6" r="3.6"/>
        <circle cx="650" cy="1103.6" r="3.6"/>
        <circle cx="750" cy="1103.6" r="3.6"/>
        <circle cx="50" cy="1003.6" r="3.6"/>
        <circle cx="150" cy="1003.6" r="3.6"/>
        <circle cx="250" cy="1003.6" r="3.6"/>
        <circle cx="350" cy="1003.6" r="3.6"/>
        <circle cx="450" cy="1003.6" r="3.6"/>
        <circle cx="550" cy="1003.6" r="3.6"/>
        <circle cx="650" cy="1003.6" r="3.6"/>
        <circle cx="750" cy="1003.6" r="3.6"/>
        <circle cx="50" cy="903.6" r="3.6"/>
        <circle cx="150" cy="903.6" r="3.6"/>
        <circle cx="250" cy="903.6" r="3.6"/>
        <circle cx="350" cy="903.6" r="3.6"/>
        <circle cx="450" cy="903.6" r="3.6"/>
        <circle cx="550" cy="903.6" r="3.6"/>
        <circle cx="650" cy="903.6" r="3.6"/>
        <circle cx="750" cy="903.6" r="3.6"/>
        <circle cx="50" cy="803.6" r="3.6"/>
        <circle cx="150" cy="803.6" r="3.6"/>
        <circle cx="250" cy="803.6" r="3.6"/>
        <circle cx="350" cy="803.6" r="3.6"/>
        <circle cx="450" cy="803.6" r="3.6"/>
        <circle cx="550" cy="803.6" r="3.6"/>
        <circle cx="650" cy="803.6" r="3.6"/>
        <circle cx="750" cy="803.6" r="3.6"/>
        <circle cx="50" cy="703.6" r="3.6"/>
        <circle cx="150" cy="703.6" r="3.6"/>
        <circle cx="250" cy="703.6" r="3.6"/>
        <circle cx="350" cy="703.6" r="3.6"/>
        <circle cx="450" cy="703.6" r="3.6"/>
        <circle cx="550" cy="703.6" r="3.6"/>
        <circle cx="650" cy="703.6" r="3.6"/>
        <circle cx="750" cy="703.6" r="3.6"/>
        <circle cx="50" cy="603.6" r="3.6"/>
        <circle cx="150" cy="603.6" r="3.6"/>
        <circle cx="250" cy="603.6" r="3.6"/>
        <circle cx="350" cy="603.6" r="3.6"/>
        <circle cx="450" cy="603.6" r="3.6"/>
        <circle cx="550" cy="603.6" r="3.6"/>
        <circle cx="650" cy="603.6" r="3.6"/>
        <circle cx="750" cy="603.6" r="3.6"/>
        <circle cx="50" cy="503.6" r="3.6"/>
        <circle cx="150" cy="503.6" r="3.6"/>
        <circle cx="250" cy="503.6" r="3.6"/>
        <circle cx="350" cy="503.6" r="3.6"/>
        <circle cx="450" cy="503.6" r="3.6"/>
        <circle cx="550" cy="503.6" r="3.6"/>
        <circle cx="650" cy="503.6" r="3.6"/>
        <circle cx="750" cy="503.6" r="3.6"/>
        <circle cx="50" cy="403.6" r="3.6"/>
        <circle cx="150" cy="403.6" r="3.6"/>
        <circle cx="250" cy="403.6" r="3.6"/>
        <circle cx="350" cy="403.6" r="3.6"/>
        <circle cx="450" cy="403.6" r="3.6"/>
        <circle cx="550" cy="403.6" r="3.6"/>
        <circle cx="650" cy="403.6" r="3.6"/>
        <circle cx="750" cy="403.6" r="3.6"/>
        <circle cx="50" cy="303.6" r="3.6"/>
        <circle cx="150" cy="303.6" r="3.6"/>
        <circle cx="250" cy="303.6" r="3.6"/>
        <circle cx="350" cy="303.6" r="3.6"/>
        <circle cx="450" cy="303.6" r="3.6"/>
        <circle cx="550" cy="303.6" r="3.6"/>
        <circle cx="650" cy="303.6" r="3.6"/>
        <circle cx="750" cy="303.6" r="3.6"/>
        <circle cx="50" cy="203.6" r="3.6"/>
        <circle cx="150" cy="203.6" r="3.6"/>
        <circle cx="250" cy="203.6" r="3.6"/>
        <circle cx="350" cy="203.6" r="3.6"/>
        <circle cx="450" cy="203.6" r="3.6"/>
        <circle cx="550" cy="203.6" r="3.6"/>
        <circle cx="650" cy="203.6" r="3.6"/>
        <circle cx="750" cy="203.6" r="3.6"/>
        <circle cx="50" cy="103.6" r="3.6"/>
        <circle cx="150" cy="103.6" r="3.6"/>
        <circle cx="250" cy="103.6" r="3.6"/>
        <circle cx="350" cy="103.6" r="3.6"/>
        <circle cx="450" cy="103.6" r="3.6"/>
        <circle cx="550" cy="103.6" r="3.6"/>
        <circle cx="650" cy="103.6" r="3.6"/>
        <circle cx="750" cy="103.6" r="3.6"/>
        <circle cx="50" cy="3.6" r="3.6"/>
        <circle cx="150" cy="3.6" r="3.6"/>
        <circle cx="250" cy="3.6" r="3.6"/>
        <circle cx="350" cy="3.6" r="3.6"/>
        <circle cx="450" cy="3.6" r="3.6"/>
        <circle cx="550" cy="3.6" r="3.6"/>
        <circle cx="650" cy="3.6" r="3.6"/>
        <circle cx="750" cy="3.6" r="3.6"/>
    </g>
</svg>
