<?xml version="1.0"?>
<svg xmlns="http://www.w3.org/2000/svg" xmlns:lc="http://www.librecad.org" xmlns:xlink="http://www.w3.org/1999/xlink" width="756mm" height="1256mm" viewBox="0 0 756 1256">
    <g lc:layername="corner" lc:is_locked="false" lc:is_construction="false" fill="none" stroke="black" stroke-width="1">
        <line x1="0" y1="1256" x2="10" y2="1246"/>
    </g>
    <g lc:layername="holes-big" lc:is_locked="false" lc:is_construction="false" fill="none" stroke="black" stroke-width="1">
        <circle cx="50" cy="1206" r="6"/>
        <circle cx="150" cy="1206" r="6"/>
        <circle cx="250" cy="1206" r="6"/>
        <circle cx="350" cy="1206" r="6"/>
        <circle cx="450" cy="1206" r="6"/>
        <circle cx="550" cy="1206" r="6"/>
        <circle cx="650" cy="1206" r="6"/>
        <circle cx="750" cy="1206" r="6"/>
        <circle cx="50" cy="1106" r="6"/>
        <circle cx="150" cy="1106" r="6"/>
        <circle cx="250" cy="1106" r="6"/>
        <circle cx="350" cy="1106" r="6"/>
        <circle cx="450" cy="1106" r="6"/>
        <circle cx="550" cy="1106" r="6"/>
        <circle cx="650" cy="1106" r="6"/>
        <circle cx="750" cy="1106" r="6"/>
        <circle cx="50" cy="1006" r="6"/>
        <circle cx="150" cy="1006" r="6"/>
        <circle cx="250" cy="1006" r="6"/>
        <circle cx="350" cy="1006" r="6"/>
        <circle cx="450" cy="1006" r="6"/>
        <circle cx="550" cy="1006" r="6"/>
        <circle cx="650" cy="1006" r="6"/>
        <circle cx="750" cy="1006" r="6"/>
        <circle cx="50" cy="906" r="6"/>
        <circle cx="150" cy="906" r="6"/>
        <circle cx="250" cy="906" r="6"/>
        <circle cx="350" cy="906" r="6"/>
        <circle cx="450" cy="906" r="6"/>
        <circle cx="550" cy="906" r="6"/>
        <circle cx="650" cy="906" r="6"/>
        <circle cx="750" cy="906" r="6"/>
        <circle cx="50" cy="806" r="6"/>
        <circle cx="150" cy="806" r="6"/>
        <circle cx="250" cy="806" r="6"/>
        <circle cx="350" cy="806" r="6"/>
        <circle cx="450" cy="806" r="6"/>
        <circle cx="550" cy="806" r="6"/>
        <circle cx="650" cy="806" r="6"/>
        <circle cx="750" cy="806" r="6"/>
        <circle cx="50" cy="706" r="6"/>
        <circle cx="150" cy="706" r="6"/>
        <circle cx="250" cy="706" r="6"/>
        <circle cx="350" cy="706" r="6"/>
        <circle cx="450" cy="706" r="6"/>
        <circle cx="550" cy="706" r="6"/>
        <circle cx="650" cy="706" r="6"/>
        <circle cx="750" cy="706" r="6"/>
        <circle cx="50" cy="606" r="6"/>
        <circle cx="150" cy="606" r="6"/>
        <circle cx="250" cy="606" r="6"/>
        <circle cx="350" cy="606" r="6"/>
        <circle cx="450" cy="606" r="6"/>
        <circle cx="550" cy="606" r="6"/>
        <circle cx="650" cy="606" r="6"/>
        <circle cx="750" cy="606" r="6"/>
        <circle cx="50" cy="506" r="6"/>
        <circle cx="150" cy="506" r="6"/>
        <circle cx="250" cy="506" r="6"/>
        <circle cx="350" cy="506" r="6"/>
        <circle cx="450" cy="506" r="6"/>
        <circle cx="550" cy="506" r="6"/>
        <circle cx="650" cy="506" r="6"/>
        <circle cx="750" cy="506" r="6"/>
        <circle cx="50" cy="406" r="6"/>
        <circle cx="150" cy="406" r="6"/>
        <circle cx="250" cy="406" r="6"/>
        <circle cx="350" cy="406" r="6"/>
        <circle cx="450" cy="406" r="6"/>
        <circle cx="550" cy="406" r="6"/>
        <circle cx="650" cy="406" r="6"/>
        <circle cx="750" cy="406" r="6"/>
        <circle cx="50" cy="306" r="6"/>
        <circle cx="150" cy="306" r="6"/>
        <circle cx="250" cy="306" r="6"/>
        <circle cx="350" cy="306" r="6"/>
        <circle cx="450" cy="306" r="6"/>
        <circle cx="550" cy="306" r="6"/>
        <circle cx="650" cy="306" r="6"/>
        <circle cx="750" cy="306" r="6"/>
        <circle cx="50" cy="206" r="6"/>
        <circle cx="150" cy="206" r="6"/>
        <circle cx="250" cy="206" r="6"/>
        <circle cx="350" cy="206" r="6"/>
        <circle cx="450" cy="206" r="6"/>
        <circle cx="550" cy="206" r="6"/>
        <circle cx="650" cy="206" r="6"/>
        <circle cx="750" cy="206" r="6"/>
        <circle cx="50" cy="106" r="6"/>
        <circle cx="150" cy="106" r="6"/>
        <circle cx="250" cy="106" r="6"/>
        <circle cx="350" cy="106" r="6"/>
        <circle cx="450" cy="106" r="6"/>
        <circle cx="550" cy="106" r="6"/>
        <circle cx="650" cy="106" r="6"/>
        <circle cx="750" cy="106" r="6"/>
        <circle cx="50" cy="6" r="6"/>
        <circle cx="150" cy="6" r="6"/>
        <circle cx="250" cy="6" r="6"/>
        <circle cx="350" cy="6" r="6"/>
        <circle cx="450" cy="6" r="6"/>
        <circle cx="550" cy="6" r="6"/>
        <circle cx="650" cy="6" r="6"/>
        <circle cx="750" cy="6" r="6"/>
    </g>
</svg>
