<?xml version="1.0"?>
<svg xmlns="http://www.w3.org/2000/svg" xmlns:lc="http://www.librecad.org" xmlns:xlink="http://www.w3.org/1999/xlink" width="800mm" height="1250mm" viewBox="0 0 800 1250">
    <g lc:layername="x-half" lc:is_locked="false" lc:is_construction="false" fill="none" stroke="black" stroke-width="1">
        <line x1="0" y1="1200" x2="20" y2="1200"/>
        <line x1="80" y1="1200" x2="120" y2="1200"/>
        <line x1="180" y1="1200" x2="220" y2="1200"/>
        <line x1="280" y1="1200" x2="320" y2="1200"/>
        <line x1="380" y1="1200" x2="420" y2="1200"/>
        <line x1="480" y1="1200" x2="520" y2="1200"/>
        <line x1="580" y1="1200" x2="620" y2="1200"/>
        <line x1="680" y1="1200" x2="720" y2="1200"/>
        <line x1="800" y1="1200" x2="780" y2="1200"/>
        <line x1="0" y1="1100" x2="20" y2="1100"/>
        <line x1="80" y1="1100" x2="120" y2="1100"/>
        <line x1="180" y1="1100" x2="220" y2="1100"/>
        <line x1="280" y1="1100" x2="320" y2="1100"/>
        <line x1="380" y1="1100" x2="420" y2="1100"/>
        <line x1="480" y1="1100" x2="520" y2="1100"/>
        <line x1="580" y1="1100" x2="620" y2="1100"/>
        <line x1="680" y1="1100" x2="720" y2="1100"/>
        <line x1="800" y1="1100" x2="780" y2="1100"/>
        <line x1="0" y1="1000" x2="20" y2="1000"/>
        <line x1="80" y1="1000" x2="120" y2="1000"/>
        <line x1="180" y1="1000" x2="220" y2="1000"/>
        <line x1="280" y1="1000" x2="320" y2="1000"/>
        <line x1="380" y1="1000" x2="420" y2="1000"/>
        <line x1="480" y1="1000" x2="520" y2="1000"/>
        <line x1="580" y1="1000" x2="620" y2="1000"/>
        <line x1="680" y1="1000" x2="720" y2="1000"/>
        <line x1="800" y1="1000" x2="780" y2="1000"/>
        <line x1="0" y1="900" x2="20" y2="900"/>
        <line x1="80" y1="900" x2="120" y2="900"/>
        <line x1="180" y1="900" x2="220" y2="900"/>
        <line x1="280" y1="900" x2="320" y2="900"/>
        <line x1="380" y1="900" x2="420" y2="900"/>
        <line x1="480" y1="900" x2="520" y2="900"/>
        <line x1="580" y1="900" x2="620" y2="900"/>
        <line x1="680" y1="900" x2="720" y2="900"/>
        <line x1="800" y1="900" x2="780" y2="900"/>
        <line x1="0" y1="800" x2="20" y2="800"/>
        <line x1="80" y1="800" x2="120" y2="800"/>
        <line x1="180" y1="800" x2="220" y2="800"/>
        <line x1="280" y1="800" x2="320" y2="800"/>
        <line x1="380" y1="800" x2="420" y2="800"/>
        <line x1="480" y1="800" x2="520" y2="800"/>
        <line x1="580" y1="800" x2="620" y2="800"/>
        <line x1="680" y1="800" x2="720" y2="800"/>
        <line x1="800" y1="800" x2="780" y2="800"/>
        <line x1="0" y1="700" x2="20" y2="700"/>
        <line x1="80" y1="700" x2="120" y2="700"/>
        <line x1="180" y1="700" x2="220" y2="700"/>
        <line x1="280" y1="700" x2="320" y2="700"/>
        <line x1="380" y1="700" x2="420" y2="700"/>
        <line x1="480" y1="700" x2="520" y2="700"/>
        <line x1="580" y1="700" x2="620" y2="700"/>
        <line x1="680" y1="700" x2="720" y2="700"/>
        <line x1="800" y1="700" x2="780" y2="700"/>
        <line x1="0" y1="600" x2="20" y2="600"/>
        <line x1="80" y1="600" x2="120" y2="600"/>
        <line x1="180" y1="600" x2="220" y2="600"/>
        <line x1="280" y1="600" x2="320" y2="600"/>
        <line x1="380" y1="600" x2="420" y2="600"/>
        <line x1="480" y1="600" x2="520" y2="600"/>
        <line x1="580" y1="600" x2="620" y2="600"/>
        <line x1="680" y1="600" x2="720" y2="600"/>
        <line x1="800" y1="600" x2="780" y2="600"/>
        <line x1="0" y1="500" x2="20" y2="500"/>
        <line x1="80" y1="500" x2="120" y2="500"/>
        <line x1="180" y1="500" x2="220" y2="500"/>
        <line x1="280" y1="500" x2="320" y2="500"/>
        <line x1="380" y1="500" x2="420" y2="500"/>
        <line x1="480" y1="500" x2="520" y2="500"/>
        <line x1="580" y1="500" x2="620" y2="500"/>
        <line x1="680" y1="500" x2="720" y2="500"/>
        <line x1="800" y1="500" x2="780" y2="500"/>
        <line x1="0" y1="400" x2="20" y2="400"/>
        <line x1="80" y1="400" x2="120" y2="400"/>
        <line x1="180" y1="400" x2="220" y2="400"/>
        <line x1="280" y1="400" x2="320" y2="400"/>
        <line x1="380" y1="400" x2="420" y2="400"/>
        <line x1="480" y1="400" x2="520" y2="400"/>
        <line x1="580" y1="400" x2="620" y2="400"/>
        <line x1="680" y1="400" x2="720" y2="400"/>
        <line x1="800" y1="400" x2="780" y2="400"/>
        <line x1="0" y1="300" x2="20" y2="300"/>
        <line x1="80" y1="300" x2="120" y2="300"/>
        <line x1="180" y1="300" x2="220" y2="300"/>
        <line x1="280" y1="300" x2="320" y2="300"/>
        <line x1="380" y1="300" x2="420" y2="300"/>
        <line x1="480" y1="300" x2="520" y2="300"/>
        <line x1="580" y1="300" x2="620" y2="300"/>
        <line x1="680" y1="300" x2="720" y2="300"/>
        <line x1="800" y1="300" x2="780" y2="300"/>
        <line x1="0" y1="200" x2="20" y2="200"/>
        <line x1="80" y1="200" x2="120" y2="200"/>
        <line x1="180" y1="200" x2="220" y2="200"/>
        <line x1="280" y1="200" x2="320" y2="200"/>
        <line x1="380" y1="200" x2="420" y2="200"/>
        <line x1="480" y1="200" x2="520" y2="200"/>
        <line x1="580" y1="200" x2="620" y2="200"/>
        <line x1="680" y1="200" x2="720" y2="200"/>
        <line x1="800" y1="200" x2="780" y2="200"/>
        <line x1="0" y1="100" x2="20" y2="100"/>
        <line x1="80" y1="100" x2="120" y2="100"/>
        <line x1="180" y1="100" x2="220" y2="100"/>
        <line x1="280" y1="100" x2="320" y2="100"/>
        <line x1="380" y1="100" x2="420" y2="100"/>
        <line x1="480" y1="100" x2="520" y2="100"/>
        <line x1="580" y1="100" x2="620" y2="100"/>
        <line x1="680" y1="100" x2="720" y2="100"/>
        <line x1="800" y1="100" x2="780" y2="100"/>
        <line x1="0" y1="0" x2="20" y2="0"/>
        <line x1="80" y1="0" x2="120" y2="0"/>
        <line x1="180" y1="0" x2="220" y2="0"/>
        <line x1="280" y1="0" x2="320" y2="0"/>
        <line x1="380" y1="0" x2="420" y2="0"/>
        <line x1="480" y1="0" x2="520" y2="0"/>
        <line x1="580" y1="0" x2="620" y2="0"/>
        <line x1="680" y1="0" x2="720" y2="0"/>
        <line x1="800" y1="0" x2="780" y2="0"/>
    </g>
    <g lc:layername="x-lines" lc:is_locked="false" lc:is_construction="false" fill="none" stroke="black" stroke-width="1">
        <line x1="0" y1="1250" x2="800" y2="1250"/>
        <line x1="0" y1="1150" x2="800" y2="1150"/>
        <line x1="0" y1="1050" x2="800" y2="1050"/>
        <line x1="0" y1="950" x2="800" y2="950"/>
        <line x1="0" y1="850" x2="800" y2="850"/>
        <line x1="0" y1="750" x2="800" y2="750"/>
        <line x1="0" y1="650" x2="800" y2="650"/>
        <line x1="0" y1="550" x2="800" y2="550"/>
        <line x1="0" y1="450" x2="800" y2="450"/>
        <line x1="0" y1="350" x2="800" y2="350"/>
        <line x1="0" y1="250" x2="800" y2="250"/>
        <line x1="0" y1="150" x2="800" y2="150"/>
        <line x1="0" y1="50" x2="800" y2="50"/>
    </g>
</svg>
